<svg width="14" height="16" viewBox="0 0 14 16" fill="none" xmlns="http://www.w3.org/2000/svg">
    <path d="M7.74352 7.98796L13.6917 13.4457C14.1028 13.8229 14.1028 14.4329 13.6917 14.8061L12.7032 15.7131C12.2921 16.0903 11.6273 16.0903 11.2206 15.7131L7 11.8485L2.78382 15.7171C2.3727 16.0943 1.7079 16.0943 1.30116 15.7171L0.308341 14.8101C-0.10278 14.4329 -0.10278 13.8229 0.308341 13.4497L6.25648 7.99197C6.6676 7.61074 7.3324 7.61074 7.74352 7.98796V7.98796ZM6.25648 0.282919L0.308341 5.74066C-0.10278 6.11788 -0.10278 6.72787 0.308341 7.10108L1.29678 8.00803C1.7079 8.38525 2.3727 8.38525 2.77944 8.00803L6.99563 4.13945L11.2118 8.00803C11.6229 8.38525 12.2877 8.38525 12.6945 8.00803L13.6829 7.10108C14.094 6.72385 14.094 6.11387 13.6829 5.74066L7.73477 0.282919C7.3324 -0.0943065 6.6676 -0.0943065 6.25648 0.282919Z"
          fill="url(#paint0_linear_4_2279)"/>
    <defs>
        <linearGradient id="paint0_linear_4_2279" x1="1.66714e-07" y1="8.32626" x2="13.9995" y2="8.45833"
                        gradientUnits="userSpaceOnUse">
            <stop stop-color="#F38522"/>
            <stop offset="1" stop-color="#FFB800"/>
        </linearGradient>
    </defs>
</svg>
