<svg width="32" height="32" viewBox="0 0 32 32" fill="none" xmlns="http://www.w3.org/2000/svg">
<rect width="32" height="32" rx="10" fill="#FF0000" fill-opacity="0.15"/>
<path d="M23.6715 8.0014C20.5486 7.9454 16.9867 9.57737 14.7317 12.1103C12.5767 12.1513 10.4788 13.0343 8.93382 14.5793C8.84382 14.6683 8.81182 14.8003 8.85082 14.9203C8.89082 15.0403 8.99482 15.1283 9.12081 15.1463L11.6898 15.5143L11.3728 15.8693C11.2548 16.0012 11.2608 16.2022 11.3858 16.3272L15.6707 20.6122C15.7357 20.6772 15.8207 20.7102 15.9067 20.7102C15.9857 20.7102 16.0657 20.6822 16.1287 20.6252L16.4837 20.3082L16.8517 22.8771C16.8697 23.0021 16.9687 23.0941 17.0877 23.1341C17.1187 23.1441 17.1507 23.1491 17.1827 23.1491C17.2767 23.1491 17.3737 23.1081 17.4407 23.0421C18.9646 21.5191 19.8466 19.4212 19.8876 17.2662C22.4236 15.0073 24.0685 11.4463 23.9965 8.32639C23.9935 8.14939 23.8495 8.0064 23.6715 8.0014ZM20.5996 13.7563C20.2746 14.0813 19.8476 14.2433 19.4216 14.2433C18.9946 14.2433 18.5676 14.0813 18.2426 13.7563C17.5937 13.1063 17.5937 12.0493 18.2426 11.3993C18.8926 10.7493 19.9496 10.7493 20.5996 11.3993C21.2496 12.0493 21.2496 13.1063 20.5996 13.7563Z" fill="#FC573B"/>
<path d="M9.8159 19.2686C9.10191 19.9816 8.12293 23.2056 8.01393 23.5706C7.97893 23.6885 8.01093 23.8155 8.09793 23.9015C8.16093 23.9655 8.24593 23.9995 8.33293 23.9995C8.36493 23.9995 8.39693 23.9945 8.42893 23.9855C8.79392 23.8765 12.0169 22.8966 12.7308 22.1826C13.5348 21.3786 13.5348 20.0716 12.7308 19.2686C11.9269 18.4646 10.6199 18.4656 9.8159 19.2686Z" fill="#FD907E"/>
</svg>
