<svg width="17" height="18" viewBox="0 0 17 18" fill="none" xmlns="http://www.w3.org/2000/svg">
<path d="M8.51732 0.184911C6.6926 1.91008 5.58479 4.83167 5.74436 7.52488C4.53095 8.76012 3.83355 10.4369 3.83355 12.175C3.83297 12.2757 3.89037 12.3679 3.98164 12.4135C4.07347 12.4585 4.18368 12.4495 4.26634 12.3888L5.95215 11.1507L5.97396 11.5287C5.982 11.6693 6.10081 11.779 6.24431 11.779L11.1634 11.779C11.238 11.779 11.3058 11.7498 11.3551 11.7014C11.4005 11.657 11.4303 11.5962 11.4338 11.5287L11.4556 11.1507L13.1414 12.3888C13.2235 12.449 13.3331 12.445 13.4244 12.4006C13.4479 12.3888 13.4691 12.3736 13.4875 12.3556C13.5415 12.3027 13.5736 12.2251 13.5742 12.1503C13.5748 10.4363 12.8768 8.76012 11.6634 7.52488C11.8224 4.82773 10.7226 1.89939 8.89041 0.184912C8.78709 0.0870385 8.62236 0.0875996 8.51732 0.184911ZM10.0573 5.15004C10.0573 5.51566 9.90523 5.84697 9.66071 6.08659C9.41562 6.32677 9.07753 6.47583 8.70444 6.47583C7.95882 6.47527 7.35211 5.88072 7.35154 5.15004C7.35154 4.4188 7.95825 3.82424 8.70444 3.82424C9.45063 3.82424 10.0573 4.4188 10.0573 5.15004Z" fill="white"/>
<path d="M7.03167 14.3174C7.03109 15.1201 8.31971 17.4842 8.46665 17.7509C8.51429 17.8369 8.60555 17.8904 8.70485 17.8898C8.77775 17.8904 8.84606 17.8617 8.89599 17.8127C8.91436 17.7947 8.92986 17.7739 8.94306 17.7509C9.09 17.4842 10.3775 15.1201 10.3775 14.3168C10.3775 13.4124 9.62726 12.6772 8.70485 12.6777C7.78187 12.6777 7.03224 13.4135 7.03167 14.3174Z" fill="white"/>
</svg>
