<svg width="18" height="18" viewBox="0 0 18 18" fill="none" xmlns="http://www.w3.org/2000/svg">
    <path d="M8.51732 0.184896C6.6926 1.91006 5.58479 4.83165 5.74436 7.52487C4.53095 8.7601 3.83355 10.4369 3.83355 12.175C3.83297 12.2757 3.89037 12.3679 3.98164 12.4135C4.07347 12.4585 4.18368 12.4495 4.26634 12.3887L5.95215 11.1507L5.97396 11.5287C5.982 11.6693 6.10081 11.779 6.24431 11.779L11.1634 11.779C11.238 11.779 11.3058 11.7498 11.3551 11.7014C11.4005 11.6569 11.4303 11.5962 11.4338 11.5287L11.4556 11.1507L13.1414 12.3887C13.2235 12.4489 13.3331 12.445 13.4244 12.4006C13.4479 12.3887 13.4691 12.3736 13.4875 12.3556C13.5415 12.3027 13.5736 12.2251 13.5742 12.1502C13.5748 10.4363 12.8768 8.7601 11.6634 7.52487C11.8224 4.82771 10.7226 1.89938 8.89041 0.184896C8.78709 0.0870232 8.62236 0.0875843 8.51732 0.184896ZM10.0573 5.15002C10.0573 5.51564 9.90523 5.84695 9.66071 6.08657C9.41562 6.32676 9.07753 6.47582 8.70444 6.47582C7.95882 6.47526 7.35211 5.8807 7.35154 5.15002C7.35154 4.41878 7.95825 3.82423 8.70444 3.82423C9.45063 3.82423 10.0573 4.41878 10.0573 5.15002Z" fill="url(#paint0_linear_4_2223)"/>
    <path d="M7.03164 14.3174C7.03106 15.1201 8.31968 17.4843 8.46662 17.7509C8.51426 17.837 8.60552 17.8904 8.70482 17.8898C8.77772 17.8904 8.84603 17.8617 8.89596 17.8128C8.91433 17.7948 8.92983 17.774 8.94303 17.7509C9.08997 17.4843 10.3774 15.1201 10.3774 14.3169C10.3774 13.4124 9.62723 12.6772 8.70482 12.6778C7.78184 12.6778 7.03221 13.4135 7.03164 14.3174Z" fill="url(#paint1_linear_4_2223)"/>
    <defs>
        <linearGradient id="paint0_linear_4_2223" x1="5.07245" y1="13.5008" x2="5.83874" y2="4.40991" gradientUnits="userSpaceOnUse">
            <stop stop-color="#675EAA"/>
            <stop offset="1" stop-color="#AD66D5"/>
        </linearGradient>
        <linearGradient id="paint1_linear_4_2223" x1="7.42925" y1="16.75" x2="7.70036" y2="13.5512" gradientUnits="userSpaceOnUse">
            <stop stop-color="#675EAA"/>
            <stop offset="1" stop-color="#AD66D5"/>
        </linearGradient>
    </defs>
</svg>

