<svg xmlns="http://www.w3.org/2000/svg" width="128" height="128" viewBox="0 0 128 128" shape-rendering="geometricPrecision" text-rendering="geometricPrecision" image-rendering="optimizeQuality" fill-rule="evenodd" clip-rule="evenodd"><defs><style type="text/css"><![CDATA[
    .fil0 {fill:#4D4D4D}
   ]]></style></defs><g id="_331819096"><path id="_439029680" class="fil0" d="M20.407.074h86.268c3.403 0 6.19 2.786 6.19 6.19v115.552c0 3.405-2.787 6.191-6.19 6.191h-86.268c-3.404 0-6.19-2.786-6.19-6.191v-115.552c0-3.404 2.786-6.19 6.19-6.19zm2.593 2.947h81.445c3.215 0 5.844 2.632 5.844 5.844v110.554c0 3.217-2.629 5.844-5.844 5.844h-81.445c-3.215 0-5.844-2.627-5.844-5.844v-110.554c0-3.213 2.629-5.844 5.844-5.844z"/><path id="_439030280" class="fil0" d="M33.127 20.463h61.142c.811 0 1.474.663 1.474 1.474 0 .81-.663 1.474-1.474 1.474h-61.142c-.811 0-1.474-.664-1.474-1.474 0-.811.663-1.474 1.474-1.474z"/><path id="_439030256" class="fil0" d="M33.127 46.667h61.142c.811 0 1.474.663 1.474 1.473 0 .811-.663 1.474-1.474 1.474h-61.142c-.811 0-1.474-.663-1.474-1.474 0-.81.663-1.473 1.474-1.473z"/><path id="_439030040" class="fil0" d="M33.127 72.87h61.142c.811 0 1.474.664 1.474 1.474 0 .811-.663 1.474-1.474 1.474h-61.142c-.811 0-1.474-.663-1.474-1.474 0-.81.663-1.474 1.474-1.474z"/><path id="_439029152" class="fil0" d="M33.127 99.074h24.76c.811 0 1.474.663 1.474 1.474 0 .81-.663 1.474-1.474 1.474h-24.76c-.811 0-1.474-.664-1.474-1.474 0-.811.663-1.474 1.474-1.474z"/><path id="_439029488" class="fil0" d="M67.852 98.037l12.582 9.525s.587.683 1.543.041c.956-.641 19.682-21.551 19.682-21.551s.327-.654-.274-1.337c-.6-.683-1.419-.464-2.047.054-.627.519-18.506 19.434-18.506 19.434l-11.191-8.134s-.956-.19-1.447.383c-.491.573-.41.654-.343 1.585z"/></g></svg>