<svg xmlns="http://www.w3.org/2000/svg" width="128" height="128" viewBox="0 0 128 128" shape-rendering="geometricPrecision" text-rendering="geometricPrecision" image-rendering="optimizeQuality" fill-rule="evenodd" clip-rule="evenodd"><defs><style type="text/css"><![CDATA[
    .fil0 {fill:#4D4D4D}
   ]]></style></defs><path class="fil0" d="M1.528 73.986h33.581c.781 0 1.419.639 1.419 1.419v32.382c0 .78-.638 1.417-1.419 1.417h-33.581c-.78 0-1.419-.638-1.419-1.417v-32.382c0-.78.639-1.419 1.419-1.419zm2.578 2.665h28.631c.66 0 1.201.541 1.201 1.201v27.436c0 .661-.541 1.202-1.201 1.202h-28.631c-.66 0-1.201-.541-1.201-1.202v-27.436c0-.66.541-1.201 1.201-1.201zm6.693-15.747s-1.421 7.299-1.543 8.646c-.123 1.346-.221 1.69-.221 1.69s4.311-2.131 6.221-3.184c1.911-1.054 3.086-1.788 3.086-1.788s4.948 2.792 7.054 3.748c2.106.956 2.229 1.054 2.229 1.054s-.612-4.605-1.029-6.859c-.416-2.252-.735-3.429-.735-3.429s4.409-4.139 5.804-5.56c1.396-1.42 1.519-1.665 1.519-1.665s-3.723-.735-5.902-1.052c-2.18-.319-4.311-.465-4.311-.465s-2.865-5.928-3.65-7.569c-.783-1.641-1.028-1.935-1.028-1.935s-1.421 2.523-2.425 4.629c-1.005 2.106-2.18 4.85-2.18 4.85s-5.584.514-7.886.954c-2.302.442-2.646.563-2.646.563s4.899 5.267 7.642 7.373zm36.407-18.18h33.581c.78 0 1.419.638 1.419 1.419v32.382c0 .78-.639 1.417-1.419 1.417h-1.17v-31.351c0-.661-.541-1.201-1.201-1.201h-28.631c-.66 0-1.201.54-1.201 1.201v31.351h-1.377c-.78 0-1.419-.638-1.419-1.417v-32.382c0-.781.639-1.419 1.419-1.419zm9.27-13.082s-1.421 7.298-1.543 8.646c-.123 1.346-.221 1.69-.221 1.69s4.311-2.131 6.221-3.184c1.91-1.054 3.086-1.788 3.086-1.788s4.948 2.792 7.054 3.748c2.106.954 2.229 1.052 2.229 1.052s-.613-4.604-1.029-6.858c-.416-2.252-.735-3.429-.735-3.429s4.408-4.139 5.804-5.56c1.396-1.421 1.519-1.665 1.519-1.665s-3.723-.735-5.902-1.054c-2.18-.318-4.311-.465-4.311-.465s-2.865-5.927-3.65-7.567c-.783-1.641-1.028-1.935-1.028-1.935s-1.421 2.523-2.425 4.629c-1.005 2.106-2.18 4.85-2.18 4.85s-5.584.514-7.886.954c-2.302.442-2.646.563-2.646.563s4.899 5.267 7.642 7.373zm-9.27 44.407h1.377v31.304c0 .66.541 1.201 1.201 1.201h28.631c.66 0 1.201-.541 1.201-1.201v-31.304h1.17c.78 0 1.419.639 1.419 1.419v32.382c0 .78-.639 1.417-1.419 1.417h-33.581c-.78 0-1.419-.638-1.419-1.417v-32.382c0-.78.639-1.419 1.419-1.419zm45.775-15.706h33.581c.78 0 1.417.638 1.417 1.417v32.382c0 .781-.638 1.419-1.417 1.419h-1.071v-24.626h-.099v-6.726c0-.66-.541-1.201-1.202-1.201h-28.63c-.661 0-1.201.541-1.201 1.201v31.352h-1.377c-.781 0-1.419-.638-1.419-1.419v-32.382c0-.78.638-1.417 1.419-1.417zm.099 15.707h1.278v28.7h.099v2.602c0 .66.541 1.201 1.202 1.201h28.63c.661 0 1.201-.541 1.201-1.201v-31.302h1.172c.78 0 1.417.638 1.417 1.417v32.382c0 .781-.638 1.419-1.417 1.419h-33.583c-.78 0-1.417-.638-1.417-1.419v-32.382c0-.78.638-1.417 1.417-1.417zm9.383-28.2s-1.421 7.299-1.544 8.646c-.122 1.348-.22 1.69-.22 1.69s4.31-2.131 6.221-3.184c1.91-1.052 3.085-1.787 3.085-1.787s4.948 2.792 7.054 3.747c2.107.956 2.229 1.054 2.229 1.054s-.612-4.604-1.028-6.858c-.417-2.254-.735-3.429-.735-3.429s4.408-4.14 5.804-5.56c1.396-1.421 1.519-1.665 1.519-1.665s-3.723-.735-5.903-1.054c-2.179-.319-4.31-.465-4.31-.465s-2.865-5.927-3.65-7.569c-.784-1.641-1.029-1.935-1.029-1.935s-1.421 2.523-2.425 4.629c-1.004 2.107-2.179 4.85-2.179 4.85s-5.584.515-7.886.956c-2.303.441-2.646.563-2.646.563s4.898 5.265 7.642 7.371z" id="Слой_x0020_1"/></svg>