<svg xmlns="http://www.w3.org/2000/svg" width="128" height="128" viewBox="0 0 128 128" shape-rendering="geometricPrecision" text-rendering="geometricPrecision" image-rendering="optimizeQuality" fill-rule="evenodd" clip-rule="evenodd"><defs><style type="text/css"><![CDATA[
    .fil0 {fill:#4D4D4D}
   ]]></style></defs><path class="fil0" d="M9.13 21.591h110.41c4.689 0 8.526 3.836 8.526 8.526v68.298c0 4.689-3.837 8.526-8.526 8.526h-110.41c-4.689 0-8.526-3.837-8.526-8.526v-68.298c0-4.69 3.837-8.526 8.526-8.526zm3.497 3.76h102.964c4.69 0 8.526 3.837 8.526 8.526v60.027c0 4.689-3.836 8.525-8.526 8.525h-102.964c-4.234 0-7.7-3.464-7.7-7.7v-61.679c0-4.238 3.468-7.7 7.7-7.7zm51.991 53.108l-57.177-51.087 57.366 43.098 56.459-42.943z" id="Слой_x0020_1"/></svg>