<svg xmlns="http://www.w3.org/2000/svg" width="128" height="128" viewBox="0 0 128 128" shape-rendering="geometricPrecision" text-rendering="geometricPrecision" image-rendering="optimizeQuality" fill-rule="evenodd" clip-rule="evenodd"><defs><style type="text/css"><![CDATA[
    .fil0 {fill:#4D4D4D}
   ]]></style></defs><g id="_439022168"><path id="_439027040" class="fil0" d="M20.051 116.224l30.538-.024s.704 4.132 2.487 6.01c1.783 1.878 1.783 2.159 5.352 4.319 3.568 2.159 8.779.609 10.703 0 1.925-.611 5.727-3.803 6.807-6.62 1.081-2.816 1.174-3.709 1.174-3.709l30.35.024s1.056 0 1.596-.985c.54-.986.094-1.807-.164-2.206-.259-.399-5.563-7.722-7.44-12.464-1.878-4.741-4.695-13.519-4.883-19.153-.188-5.633-.235-20.514-.235-20.514s-.939-8.028-4.178-13.427c-3.24-5.399-8.356-9.717-10.468-11.172-2.113-1.455-4.132-2.301-4.132-2.301s.704-4.694-1.408-8.825c-2.113-4.132-6.103-6.431-9.671-7.23-3.568-.798-7.886.282-10.563 2.206-2.675 1.925-3.614 3.568-4.695 5.539-1.08 1.972-1.267 3.897-1.22 5.727.047 1.831.047 2.629.047 2.629s-5.211 2.441-7.817 5.071c-2.606 2.628-5.727 5.304-8.121 10.938-2.394 5.633-2.441 8.215-2.722 10.14-.282 1.925-.094 16.195-.282 19.388-.188 3.193-1.032 11.126-3.098 16.149-2.066 5.023-3.193 7.675-3.193 7.675s-2.441 4.554-3.709 6.385c-1.267 1.831-1.831 2.606-2.254 3.005-.423.398-.657 1.455-.235 2.252.423.798.587.729 1.433 1.172zm33.753-83.605s-.141-4.506 2.254-7.37c2.394-2.863 5.211-3.426 8.121-3.661 2.91-.235 6.901 2.347 8.356 5.117l1.173 5.962s-9.294-3.756-19.904-.047zm.739 83.622s1.502 5.915 5.773 6.925c4.272 1.009 6.808.046 9.507-1.597l3.309-5.352-18.59.024zm-30.338-3.958l79.242-.046s-5.328-8.074-7.769-15.539c-2.44-7.465-2.769-12.534-3.239-18.168-.469-5.633 1.409-17.087-1.878-25.068-3.286-7.981-9.67-14.365-16.994-16.899-7.323-2.536-15.679-2.066-22.721 1.313-7.041 3.38-11.172 9.765-12.956 13.239-1.785 3.474-2.724 7.793-3.005 13.896-.282 6.102.939 17.087-1.409 25.725-2.347 8.638-2.91 10.703-9.272 21.547z"/><path id="_439027208" class="fil0" d="M63.662 41.962s8.544-.141 15.069 5.915c6.526 6.056 6.666 14.505 6.666 14.505s-.141 17.605.33 20.985c.469 3.38 1.127 8.262 2.254 11.925 1.127 3.661 3.849 10.844 3.849 10.844s.54 1.526 1.596.939c1.057-.587-.305-2.817-.844-4.436-.54-1.619-2.629-6.408-3.755-12.417-1.127-6.008-1.269-10.328-1.362-16.899-.094-6.573.047-12.581-.423-14.271-.469-1.69-1.643-8.262-8.355-13.754-6.713-5.493-15.163-5.306-15.163-5.306s-.634.141-.658.963c-.024.822.587.998.797 1.009z"/><path id="_439026848" class="fil0" d="M23.338 56.938s-4.037 3.99-5.445 9.106c-1.409 5.118-.939 10.047-.235 12.957s2.958 6.338 4.132 7.558c1.173 1.221 2.206 2.489 2.347 2.864.141.376-.047 2.066-1.408 2.323-1.362.259-1.925-.376-3.028-1.525-1.103-1.15-5.047-5.939-6.174-12.183-1.127-6.243-.047-11.501.986-14.365 1.032-2.863 3.403-6.971 5.117-8.638 1.714-1.667 2.183-1.596 2.887-1.526.704.071 1.619 1.103 1.597 1.902-.024.798-.775 1.526-.775 1.526z"/><path id="_439027280" class="fil0" d="M12.939 48.77s-4.553 4.178-7.135 11.642c-2.582 7.465-1.127 16.383-1.127 16.383s1.408 7.652 5.492 13.52c4.084 5.868 5.023 6.15 5.445 6.713.423.563.094 2.277-.904 2.582-.997.305-1.936-.105-2.218-.317-.281-.211-7.194-7.746-9.495-14.319-2.3-6.572-3.709-15.585-1.455-24.364 2.254-8.778 9.06-14.975 9.06-14.975s1.948-.657 2.535.446c.587 1.103.563 1.878-.198 2.687z"/><path id="_439026704" class="fil0" d="M104.354 56.853s4.037 3.991 5.445 9.108c1.409 5.117.94 10.047.235 12.957-.704 2.91-2.958 6.338-4.13 7.558-1.174 1.22-2.206 2.489-2.348 2.864-.141.376.047 2.066 1.409 2.323 1.361.259 1.924-.376 3.027-1.526 1.103-1.149 5.047-5.939 6.174-12.182 1.127-6.243.047-11.501-.985-14.365-1.033-2.863-3.404-6.971-5.118-8.638-1.713-1.667-2.183-1.597-2.887-1.526-.704.071-1.619 1.103-1.596 1.902.024.797.774 1.525.774 1.525z"/><path id="_439026728" class="fil0" d="M114.753 48.686s4.554 4.178 7.136 11.642c2.582 7.463 1.127 16.383 1.127 16.383s-1.409 7.652-5.493 13.52c-4.084 5.868-5.022 6.15-5.445 6.713-.423.563-.093 2.277.904 2.582.998.305 1.937-.106 2.218-.317.282-.211 7.194-7.747 9.495-14.319 2.3-6.572 3.709-15.586 1.455-24.364-2.254-8.779-9.06-14.975-9.06-14.975s-1.948-.657-2.535.446c-.587 1.103-.563 1.877.198 2.687z"/></g></svg>