<svg xmlns="http://www.w3.org/2000/svg" width="128" height="128" viewBox="0 0 128 128" shape-rendering="geometricPrecision" text-rendering="geometricPrecision" image-rendering="optimizeQuality" fill-rule="evenodd" clip-rule="evenodd"><defs><style type="text/css"><![CDATA[
    .fil0 {fill:#4D4D4D}
   ]]></style></defs><path class="fil0" d="M1.762 32.588l24.366 2.818 18.964 63.352s.567 1.762 1.429 2.446c.861.685 2.505.411 3.835.02 1.331-.391 65.348-16.87 65.348-16.87s1.272-.255 1.683-.998c.411-.744.783-1.468.979-2.995.195-1.526 5.871-35.873 5.871-35.873s.117-1.135-.568-1.781c-.685-.646-.959-1.018-1.898-1.076-.94-.059-32.488.802-32.488.802s-1.742.313-2.329 1.84c-.587 1.526.294 2.955.548 3.268.254.313.959.587 1.292.626.332.039 29.003-.567 29.003-.567l-5.166 31.392-62.391 16.283-19.141-63.761s-.508-1.135-1.702-1.449c-1.194-.313-27.144-3.424-27.144-3.424s-1.82 0-2.368 1.8c-.548 1.801-.039 2.721.489 3.19.528.47 1.388.958 1.388.958zm43.215 16.93l22.389-.704s2.113-.626 2.231-2.74c.117-2.114-1.018-2.583-1.722-2.896-.705-.313-22.468.508-22.468.508s-2.7.548-2.505 2.858c.196 2.309 1.174 2.465 2.075 2.974zm29.786-16.87l.822 25.677-6.214-5.236s-1.028-.733-2.27-.097c-1.244.635-1.792 1.732-1.801 2.505-.009.772.039 1.302.539 1.937.498.637 10.812 9.678 11.351 10.021.539.343 1.517.665 2.583.039 1.067-.626 11.028-8.943 11.576-10.06.548-1.115.607-2.289-.293-3.17-.9-.881-1.664-1.331-2.642-1.076-.978.254-1.664.724-2.564 1.546-.9.822-4.403 3.914-4.403 3.914l-.783-26.283s-.058-1.527-1.233-2.134c-1.174-.606-2.681-.489-3.248-.058-.568.43-.979.626-1.419 2.474zm-17.017 49.174l44.934-7.241s2.261-.813 2.105-2.946c-.157-2.133-2.055-2.603-2.466-2.73-.411-.128-1.713.058-2.515.195-.803.137-42.597 6.85-42.675 6.85-.078 0-2.104.568-2.476 2.29-.372 1.722.567 2.602 1.311 3.053.744.45 1.781.528 1.781.528zm-4.325 20.505c7.155 0 12.956 5.828 12.956 13.017 0 7.189-5.8 13.017-12.956 13.017-7.155 0-12.957-5.828-12.957-13.017 0-7.189 5.802-13.017 12.957-13.017zm.007 6.052c3.83 0 6.936 3.137 6.936 7.006 0 3.871-3.105 7.006-6.936 7.006-3.83 0-6.936-3.136-6.936-7.006 0-3.869 3.105-7.006 6.936-7.006zm60.485-12.765c7.155 0 12.956 5.828 12.956 13.017 0 7.188-5.8 13.017-12.956 13.017s-12.957-5.829-12.957-13.017c0-7.189 5.8-13.017 12.957-13.017zm.007 6.052c3.83 0 6.936 3.137 6.936 7.006s-3.105 7.006-6.936 7.006c-3.83 0-6.936-3.137-6.936-7.006s3.105-7.006 6.936-7.006z" id="Слой_x0020_1"/></svg>