<svg xmlns="http://www.w3.org/2000/svg" width="128" height="128" viewBox="0 0 128 128" shape-rendering="geometricPrecision" text-rendering="geometricPrecision" image-rendering="optimizeQuality" fill-rule="evenodd" clip-rule="evenodd"><defs><style type="text/css"><![CDATA[
    .fil0 {fill:#4D4D4D}
   ]]></style></defs><g id="_329811800"><path id="_439022240" class="fil0" d="M.739 31.471l.067 84.423s-.033 5.505 4.323 8.949c4.356 3.444 16.243 2.836 16.243 2.836h87.194s5.639-.81 8.341-4.322c2.701-3.513 3.005-5.167 2.904-8.003-.102-2.837.304-24.078.304-24.078h5.74l.034-31.742h-5.842l.067-28.131s-.371-3.41-2.06-5.808c-1.688-2.398-3.478-3.478-4.221-3.918-.743-.439-1.857-1.486-5.571-1.789-3.715-.305-8.882-.27-8.882-.27l-8.645-15.703s-.641-1.148-3.275-2.229c-2.634-1.081-4.695-.338-5.471-.067-.777.27-32.892 18.201-32.892 18.201l-36.572.169s-5.64.067-8.341 3.884c-2.701 3.816-2.567 3.68-3.445 7.599zm102.372-5.524l2.87 5.235h8.037s-.676-2.398-2.432-3.782c-1.755-1.384-3.039-1.756-8.476-1.453zm16.918 39.544l-.067 19.992-24.179.067s-4.93-.81-7.362-5.673c-2.431-4.863 0-10.739 2.904-12.495 2.904-1.755 4.525-1.822 4.525-1.822l24.179-.069zm-82.11-39.695l-25.327.034s-2.296.371-3.749 1.689c-1.452 1.317-1.824 3.174-1.925 4.153-.1.979-.203 83.714-.203 83.714s.676 4.728 3.444 5.471c2.77.743 2.973.709 3.85.743.878.033 93.676-.034 93.676-.034s2.937-.169 4.492-2.06c1.553-1.891 1.824-2.567 1.857-4.322.034-1.756 0-23.775 0-23.775l-18.842-.067s-4.458-.269-8.105-3.377c-3.647-3.106-4.863-6.686-5.606-10.873-.743-4.187 1.485-10.299 4.153-12.933 2.668-2.635 6.686-4.221 9.456-4.593 2.769-.371 18.978-.135 18.978-.135v-22.288l-99.957.033s-2.432-.608-2.229-3.208c.202-2.601 2.296-2.837 2.296-2.837l14.69.067 9.051-5.402zm3.546 5.301l42.178-23.773s1.299-.574 1.975.118c.676.692 13.306 23.673 13.306 23.673l-57.459-.018z"/><ellipse id="_439029488" class="fil0" cx="99.059" cy="75.622" rx="6.045" ry="5.943"/></g></svg>