<svg xmlns="http://www.w3.org/2000/svg" width="128" height="128" viewBox="0 0 128 128" shape-rendering="geometricPrecision" text-rendering="geometricPrecision" image-rendering="optimizeQuality" fill-rule="evenodd" clip-rule="evenodd"><defs><style type="text/css"><![CDATA[
    .fil0 {fill:#4D4D4D}
   ]]></style></defs><g id="_439029128"><path id="_329812064" class="fil0" d="M5.453 41.644h24.668c2.94 0 5.346 2.406 5.346 5.346v74.171c0 2.94-2.406 5.345-5.346 5.345h-24.668c-2.94 0-5.345-2.405-5.345-5.345v-74.171c0-2.94 2.405-5.346 5.345-5.346zm3.084 4.243h18.501c2.204 0 4.009 1.805 4.009 4.01v68.357c0 2.205-1.805 4.009-4.009 4.009h-18.501c-2.205 0-4.009-1.804-4.009-4.009v-68.357c0-2.205 1.804-4.01 4.009-4.01z"/><path id="_329812088" class="fil0" d="M51.426 22.903h24.668c2.94 0 5.345 2.406 5.345 5.346v92.911c0 2.94-2.405 5.345-5.345 5.345h-24.668c-2.94 0-5.346-2.405-5.346-5.345v-92.911c0-2.94 2.406-5.346 5.346-5.346zm3.083 5.18h18.501c2.205 0 4.009 1.804 4.009 4.009v85.224c0 2.205-1.804 4.01-4.009 4.01h-18.501c-2.204 0-4.009-1.805-4.009-4.01v-85.224c0-2.205 1.805-4.009 4.009-4.009z"/><path id="_329811896" class="fil0" d="M96.863 7.699h24.668c2.94 0 5.345 2.405 5.345 5.345v108.117c0 2.94-2.405 5.345-5.345 5.345h-24.668c-2.94 0-5.346-2.405-5.346-5.345v-108.117c0-2.94 2.406-5.345 5.346-5.345zm3.083 5.94h18.501c2.205 0 4.009 1.805 4.009 4.009v98.909c0 2.205-1.804 4.009-4.009 4.009h-18.501c-2.205 0-4.009-1.804-4.009-4.009v-98.909c0-2.204 1.804-4.009 4.009-4.009z"/></g></svg>