<svg xmlns="http://www.w3.org/2000/svg" width="128" height="128" viewBox="0 0 128 128" shape-rendering="geometricPrecision" text-rendering="geometricPrecision" image-rendering="optimizeQuality" fill-rule="evenodd" clip-rule="evenodd"><defs><style type="text/css"><![CDATA[
    .fil0 {fill:#4D4D4D;fill-rule:nonzero}
   ]]></style></defs><g id="_331803704"><path id="_330322272" class="fil0" d="M115.64 102.917l-12.946 12.993c-1.128 1.128-3.155 1.042-4.348.07-.115-.093-8.407-8.398-10.973-10.966-3.333 1.942-7.45 3.777-11.186 4.673l.001.004-.18.045-.012 15.347h.006c0 1.435-1.14 2.706-2.492 3.057-1.02.266-18.675.074-18.727.074-1.385 0-2.64-.914-3.095-2.203h.001l-.009-.028h-.005c-.118-.333-.119-.536-.156-.868l.013-15.363c-3.81-1.002-7.974-2.682-11.372-4.689l-10.832 10.781.002.002c-1.217 1.217-3.377 1.162-4.566-.027l-12.937-12.977-.002.002c-.001-.001-.876-1.259-.671-2.598h.006c.143-.92.933-1.774 1.391-2.2l-.028-.028 10.304-10.336c-.706-1.228-1.975-3.546-2.819-5.75l.004-.001c-.817-2.132-1.504-4.351-1.866-5.587l-15.371-.027v.006c-.004 0-1.711-.241-2.483-1.303l.005-.002c-.5-.686-.697-1.402-.697-2.238l.021-17.812c0-1.335 1.052-2.62 2.323-2.989l-.002-.002c.432-.129.801-.126.806-.126v.005l15.39-.02c1.176-4.074 2.574-7.662 4.689-11.341l-10.916-10.954-.004.004c-.001-.002-.872-1.162-.777-2.342.04-.477.122-.819.236-1.101h-.001c.073-.185.967-1.52 1.078-1.408l13.37-13.402 2.521 2.516c-.334-.305-.588-.496-1.071-.496v-.001c-.785 0-1.206.445-1.564 1.063-.477.43-.878.872-.72 1.599l-11.073 11.125-.001-.001c-.067.024-.073.45-.073.529l12.405 12.448c-1.219 2.03-2.324 3.98-3.284 6.173-1.189 2.715-1.885 5.511-2.812 8.297l-17.393.024v.005c-.162.052-.399.228-.405.398l-.033 17.717c.011.261.015.517.178.742h.006l.281.181 17.424.031c.706 2.473 1.422 4.922 2.346 7.329h.006c.973 2.541 2.333 4.811 3.673 7.153l-12.132 12.068s-.209.195-.253.472l.005.001c-.037.246-.093.262-.093.262l12.937 12.977.002-.004c.162.15.559.207.718.027l12.4-12.337c2.062 1.378 3.895 2.359 6.224 3.379 2.804 1.227 5.356 1.879 8.223 2.695l-.026 17.306h-.001l.008.103-.004.001c.057.151.129.23.256.345l-.002.002c.209.171 18.189.227 18.503.037.054-.034.13-.103.229-.221l.001.002.08-17.626c4.918-1.221 10.319-3.03 14.418-6.1l.83.832c.031.031 10.934 11.058 11.518 11.536l.087.061-.001.001c.144.059.488.152.615.048l.004.002 11.349-11.386c.348.259.537.155.866.423 1.002 1.285 2.655.031 2.655-1.289l.014-.717.939.937-.957.959zm-24.097-18.851c-12.144 16.803-36.805 19.212-51.858 4.108-15.497-15.552-12.521-41.364 5.706-53.127.409-.136.51-.194.785-.469.23-.063.795-.361 1.074-.509v-.001c.272-.102.608-.42.841-.529l1.935 1.931-1.558.879c-18.093 10.2-21.643 35.079-6.859 49.912 14.855 14.906 39.707 11.198 49.802-7.013l.873-1.572 1.665 1.662c-.275.118-.508.324-.658.598-.622.137-1.067.689-1.067 1.328h-.001v.115c-.137.124-.249.276-.327.446-.891.404-1.068 1.589-.353 2.243zm-61.555-68.608l1.951 1.948c-.093-.06-.42-.181-.432-.191 0-.03-.249-.207-.289-.23-.428-.485-.691-1.043-1.176-1.445l-.053-.081zm2.928 2.926l1.642 1.639c-.783-.517-1.049-.966-1.642-1.639z"/><path id="_330322392" class="fil0" d="M16.852 20.364l8.145-8.175c1.114-1.115 3.147-1.051 4.348-.07.115.093 8.407 8.398 10.973 10.967 3.328-1.942 7.454-3.78 11.186-4.675l-.001-.004.18-.045.012-15.345h-.005c0-1.07.691-2.125 1.587-2.68.157-.096.733-.379.905-.379 1.045-.269 18.674-.073 18.725-.073 1.921 0 3.063 1.382 3.263 3.099l-.013 15.364c3.808.998 7.976 2.682 11.372 4.687l10.832-10.78-.002-.002c1.217-1.217 3.377-1.162 4.566.027l12.937 12.977.002-.002c.001.001.869 1.254.665 2.593h.005c-.142.922-.937 1.779-1.396 2.206l.028.028-10.304 10.335c.703 1.221 1.959 3.526 2.815 5.75h.005c.806 2.099 1.496 4.342 1.863 5.589l15.371.026v-.006c.004 0 1.713.244 2.483 1.304l-.005.002c.5.686.697 1.402.697 2.238l-.021 17.811c0 1.609-1.502 3.121-3.126 3.121v-.006l-15.39.02c-1.183 4.078-2.57 7.656-4.688 11.341l10.916 10.954.002-.002c.001.001.872 1.163.777 2.341-.04.484-.124.83-.24 1.111l-.001-.001c-.139.337-.278.513-.429.699l.001.001c-.046.058-.627.716-.645.698l-6.214 6.229-.764-1.215c.001.001-.008-1.082-.372-1.491l5.428-5.444c.459-.458.534-.396.534-1.011l-12.404-12.449c1.218-2.03 2.323-3.979 3.282-6.17 1.188-2.718 1.885-5.515 2.815-8.3l17.391-.022v-.005l.035-.008v-.001l.05-.021-.001-.001c.131-.081.315-.201.321-.367l.033-17.716c-.009-.261-.015-.517-.178-.742h-.006l-.281-.182-17.423-.031c-.71-2.476-1.427-4.917-2.353-7.329l.005-.001c-.973-2.535-2.342-4.811-3.677-7.153l12.131-12.065c.17-.161.262-.508.341-.735l-12.936-12.978-.004.004c-.162-.15-.559-.206-.718-.027l-12.399 12.334c-2.065-1.374-3.895-2.356-6.226-3.377-2.808-1.23-5.356-1.876-8.223-2.696l.026-17.303h.001l-.008-.111.002-.001c-.125-.25-.229-.413-.549-.416-.051 0-17.633-.099-18.04-.024v.001c-.193.05-.265.123-.396.276l-.066.157-.014 17.469c-4.916 1.225-10.322 3.032-14.418 6.103l-.832-.83c-.031-.031-10.931-11.055-11.518-11.536-.15-.112-.553-.231-.702-.11l-.004-.004-7.394 7.419c-.918-.335-1.775-.835-2.672-1.165zm67.908 67.2c13.156-11.687 14.528-32.795 1.374-45.996-14.205-14.252-37.788-11.583-48.642 5.084-.756-.311-1.452-.422-2.244-.529l-.19-.698.254-.389c.645-.185 1.007-.758.982-1.414 12.319-16.818 36.872-18.909 51.765-3.966 14.421 14.465 12.831 37.823-2.113 50.468 0-1 .188-2.38-1.185-2.559zm-48.924-38.076l-.48.881-.918-.915 1.397.034z"/></g></svg>