<svg width="41" height="41" viewBox="0 0 41 41" fill="none" xmlns="http://www.w3.org/2000/svg">
<path fill-rule="evenodd" clip-rule="evenodd" d="M5 19.3191L6.40717 25.7294L8.7524 25.1041L7.34522 18.85L5 19.3191Z" fill="white"/>
<path fill-rule="evenodd" clip-rule="evenodd" d="M7.97061 18.5373L9.37778 24.9478H12.9739L14.2247 31.0454C14.2247 31.0454 14.3809 31.6708 15.0065 31.6708C15.6318 31.6708 17.1953 31.2017 17.3517 30.8892C17.5081 30.5765 17.1954 29.3256 17.1954 29.3256L16.2574 25.1041C16.2574 25.1041 20.3223 25.7296 22.9804 26.355C25.6385 26.9802 25.951 27.1364 26.2637 27.4493C26.5765 27.7622 27.3583 27.6055 27.5146 26.9802C27.6708 26.355 23.9184 9.78161 23.9184 9.78161C23.9184 9.78161 23.7622 9 23.1368 9C22.5113 9 22.0421 9.93805 22.0421 9.93805C22.0421 9.93805 14.8502 16.3484 7.97061 18.5373Z" fill="white"/>
<path fill-rule="evenodd" clip-rule="evenodd" d="M26.7328 14.6287C26.7328 14.6287 28.6091 16.1919 29.078 18.5373C29.5471 20.8826 28.7653 22.4462 28.7653 22.9151C28.7653 23.3842 29.2342 24.0096 30.016 23.6969C30.798 23.3842 31.2672 21.977 31.2672 20.5699C31.2672 19.1627 31.1107 18.3811 30.6416 16.8175C30.1725 15.2539 28.2964 13.3778 28.2964 13.3778C28.2964 13.3778 27.3581 12.9086 26.8892 13.3778C26.4201 13.8467 26.5765 14.4723 26.7328 14.6287Z" fill="white"/>
<path fill-rule="evenodd" clip-rule="evenodd" d="M29.078 11.0323C29.078 11.0323 30.798 12.4397 31.7361 14.1596C32.6743 15.8794 33.4558 19.0063 33.2995 21.039C33.1433 23.0715 32.5179 24.3223 32.5179 24.7914C32.5179 25.2605 33.1433 25.7294 33.6124 25.7294C34.0813 25.7294 35.0196 25.7292 35.3322 21.3517C35.6447 16.9739 33.7686 13.6904 33.7686 13.6904C33.7686 13.6904 32.6743 11.5017 31.2672 10.4072C29.86 9.31268 29.7037 9.62536 29.3909 9.93805C29.078 10.2507 28.9218 10.5634 29.078 11.0323Z" fill="white"/>
</svg>
