<svg xmlns="http://www.w3.org/2000/svg" xmlns:xlink="http://www.w3.org/1999/xlink" width="163.839" height="163.839" viewBox="0 0 43.349 43.349" shape-rendering="geometricPrecision" image-rendering="optimizeQuality" fill-rule="evenodd" xmlns:v="https://vecta.io/nano"><defs><linearGradient id="A" x1="7.95" y1="8.172" x2="33.32" y2="30.232" xlink:href="#V"><stop offset="0" stop-color="#88c1cc"/><stop offset=".51" stop-color="#ebe8df"/><stop offset="1" stop-color="#cdb956"/></linearGradient><linearGradient id="B" x1="5.276" y1="21.1" x2="5.662" y2="21.1" xlink:href="#V"><stop offset="0" stop-color="#616161"/><stop offset=".239" stop-color="#9d9d9d"/><stop offset=".722" stop-color="#b9b9b9"/><stop offset="1" stop-color="#8f9092"/></linearGradient><linearGradient id="C" x1="11.596" y1="31.924" x2="21.565" y2="31.924" xlink:href="#V"><stop offset="0" stop-color="#242424"/><stop offset=".071" stop-color="#414145"/><stop offset="1" stop-color="#5f5e66"/></linearGradient><linearGradient id="D" x1="14.18" y1="33.22" x2="21.214" y2="33.22" xlink:href="#V"><stop offset="0" stop-color="#000002"/><stop offset="1" stop-color="#4a4e5a"/></linearGradient><linearGradient id="E" x1="15.41" y1="32.233" x2="20.566" y2="32.233" xlink:href="#V"><stop offset="0" stop-color="#050306"/><stop offset="1" stop-color="#5f5e66"/></linearGradient><linearGradient id="F" x1="19.484" y1="29.425" x2="33.669" y2="29.425" xlink:href="#V"><stop offset="0" stop-color="#131315"/><stop offset="1" stop-color="#222126"/></linearGradient><linearGradient id="G" x1="16.08" y1="32.759" x2="26.445" y2="32.759" xlink:href="#V"><stop offset="0" stop-color="#222224"/><stop offset="1" stop-color="#141416"/></linearGradient><linearGradient id="H" x1="35.858" y1="14.64" x2="37.959" y2="14.64" xlink:href="#V"><stop offset="0" stop-color="#232325"/><stop offset="1" stop-color="#868789"/></linearGradient><linearGradient id="I" x1="11.453" y1="32.175" x2="15.136" y2="32.175" xlink:href="#V"><stop offset="0" stop-color="#232429"/><stop offset="1" stop-color="#5a5559"/></linearGradient><linearGradient id="J" x1="4.994" y1="16.209" x2="6.166" y2="16.209" xlink:href="#V"><stop offset="0" stop-color="#252429"/><stop offset="1" stop-color="#949599"/></linearGradient><linearGradient id="K" x1="15.634" y1="33.28" x2="21.246" y2="33.28" xlink:href="#V"><stop offset="0" stop-color="#2e2e2e"/><stop offset="1" stop-color="#73737b"/></linearGradient><linearGradient id="L" x1="13.716" y1="30.048" x2="22.351" y2="30.048" xlink:href="#V"><stop offset="0" stop-color="#49474c"/><stop offset="1" stop-color="#373538"/></linearGradient><linearGradient id="M" x1="11.614" y1="32.307" x2="15.762" y2="32.307" xlink:href="#V"><stop offset="0" stop-color="#4c4d4f"/><stop offset="1" stop-color="#605b61"/></linearGradient><linearGradient id="N" x1="5.746" y1="22.036" x2="6.075" y2="22.036" xlink:href="#V"><stop offset="0" stop-color="#505358"/><stop offset="1" stop-color="#85888d"/></linearGradient><linearGradient id="O" x1="6.165" y1="17.657" x2="6.263" y2="17.657" xlink:href="#V"><stop offset="0" stop-color="#fbfbfb"/><stop offset="1" stop-color="#d6d6d6"/></linearGradient><linearGradient id="P" x1="4.856" y1="17.992" x2="4.999" y2="17.992" xlink:href="#V"><stop offset="0" stop-color="#838383"/><stop offset="1" stop-color="#939393"/></linearGradient><linearGradient id="Q" x1="5.892" y1="29.872" x2="5.892" y2="23.873" xlink:href="#V"><stop offset="0" stop-color="#2d2d2d"/><stop offset="1" stop-color="#434343"/></linearGradient><linearGradient id="R" x1="35.766" y1="25.32" x2="35.766" y2="8.806" xlink:href="#V"><stop offset="0" stop-color="#e5e5e5"/><stop offset="1" stop-color="#c5c5c5"/></linearGradient><linearGradient id="S" x1="18.586" y1="32.14" x2="18.586" y2="27.714" xlink:href="#V"><stop offset="0" stop-color="#e0e1e3"/><stop offset=".8" stop-color="#9fa0a4"/><stop offset="1" stop-color="#c2c6c9"/></linearGradient><linearGradient id="T" x1="36.974" y1="23.158" x2="38.3" y2="22.82" xlink:href="#V"><stop offset="0" stop-color="#6a6a6a"/><stop offset="1" stop-color="#aba9aa"/></linearGradient><path id="U" d="M22.818 32.443c.05 0 .05.062 0 .062v-.062z"/><linearGradient id="V" gradientUnits="userSpaceOnUse"/></defs><circle cx="22.089" cy="22.053" r="19.05" fill="#f0f0f0"/><path d="M40.54 34.267s0 .225-.053.37c-.35.96-5.23 1.238-5.81.232l-.043-.603h5.907z" fill="#38373b"/><path d="M37.587 33.55c3.94.013 3.938 1.443 0 1.43s-3.935-1.443 0-1.43z" fill="#171717"/><path d="M37.2 33.682c3.348 0 3.348 1.31 0 1.31s-3.348-1.31 0-1.31z" fill="#3d3c41"/><path d="M7.59 11.494v16.28s-.003.106.13.11l7.752.156-1.536.076c-.026.03-.053.258.043.288s1.42-.026 1.944-.053l.858-.008-6.897.965s.114.177.673.128l7.33-.664c.527-.05 1.32-.008 1.805.192l7.083 3.18c.087.028.375.056.363-.08l-6.686-3.306s.146-.026.457.056l5.9 1.548c.192.048.383-.092.447-.272l-3.502-1.012 4.14.78.02.17c.017.026.543.118.568.113l.1-.14 3.684.79 1.627.358c.066 0 .152-.048.162-.147S34.05 7.384 34.05 7.384s-.093-.14-.14-.15c-.001 0-5.5 1.644-5.972 1.752l-8.517 1.61-8.626.637-3.03.04s-.162.116-.177.218z" fill="#333"/><path d="M18.128 27.714s-.023.33-.54.473c-1.21.333-7.668.768-7.73 1.063-.026.13.33.1 1.248 0l6.89-.758a3.6 3.6 0 0 1 1.931.44l5.6 2.586 1.252.548c.37.073.557-.105.268-.286-1.385-.868-4.853-2.2-6.6-3.026 0 0-.503-.234-.697-.413s-.217-.303-.242-.404-.11-.098-.11-.098l-1.273-.126z" fill="url(#S)"/><path d="M7.902 11.7l-.01 15.67 5.967.043 6.527.553 6.533 1.054 6.493 1.3V8.118c-4.775 1.374-9.46 2.415-14.388 3.037-3.602.455-7.493.54-11.123.545z"/><path d="M7.955 11.735l-.01 15.562c6.72-.1 12.336.45 18.92 1.638l6.457 1.29V8.176c-8.872 2.55-16.188 3.545-25.37 3.558z" fill="url(#A)"/><path d="M33.824 7.465s-.18.01-.215.497.06 23.047.06 23.047l-8.792-1.762 8.644 1.82s.416.13.436.013l-.05-.29-.083-23.325z" fill="#7b7c80"/><path d="M19.484 27.855s.063.345.24.457c.096.06 5.807.95 6.48 1.097l7.405 1.585c.06-.285-6.844-1.576-7.518-1.725-.838-.185-6.16-.853-6.406-1.238l-.078-.162-.124-.014z" fill="url(#F)"/><path d="M17.865 28.053l-.157.073c-.038.005-2.63-.302-4.66-.37s-5.053.037-5.195.003c-.75-.18 4.542-.137 5.424-.113 3.086.086 4.6.407 4.6.407z" fill="#232227"/><path d="M7.74 11.28s-.036.116.278.125 4.295-.093 5.798-.152 7.046-.65 7.576-.735 5.192-1.026 6.73-1.47l2.973-.946-4.98 1.324-3.773.74-7.57.888-7.032.228z" fill="#7f8384"/><path d="M18.5 27.994c-.005.044-.07.044-.086.02l.003-.017.064-.005-.05-.09.07-.005-.002.017-.05-.003.054.08zm.025.043l.012-.135.018.002-.013.12-.018.013zm.136.02c-.086-.01-.066-.15.018-.142s.065.15-.018.142zm.015-.127c-.056-.006-.074.104-.012.11.057.006.072-.105.012-.11zm.184.14l-.02.005-.046-.098-.01-.027-.012.115-.018-.002.013-.128.03.001.048.114.004-.036.008-.075h.017l-.013.128zm.15-.048c-.007.066-.086.083-.112.06l.014-.135c.028-.017.104.013.098.077zm-.02-.001l-.063-.06-.01.108.075-.048zm.094.085c-.085-.01-.066-.15.018-.142s.066.15-.018.142zm.015-.127c-.058-.006-.07.105-.012.11s.07-.105.012-.11z" fill-rule="nonzero"/><path d="M37.253 25.48l-.013 8.77c-1.978-.01 2.534.024.66-.014v-8.743l-.648-.012z" fill="#171717"/><path d="M37.257 25.545s.252.048.265.35L37.49 33.1l-.233-3.26v-4.295z" fill="#434343"/><path d="M35.665 25.365s.492.16 1.583.16l1.236-.153.004-15.236-.116-.38-.012-1.244c-.116-.25-2.15.156-2.513.285l-.182 16.567z" fill="#090909"/><path d="M36.065 25.45l1.35.05.817-.038-.135-.14-2.03.13z" fill="#515151"/><path d="M38.077 25.264h.176L38.25 8.387h-.175z" fill="#fdfdfb"/><path d="M7.734 29.902l-.032.226c-.213.586-3.192.756-3.547.142l-.026-.368h3.606z" fill="#38373b"/><path d="M5.93 29.466c2.4.006 2.4.88 0 .873s-2.404-.88 0-.873z" fill="#171717"/><path d="M5.7 29.545c2.043 0 2.044.8 0 .8s-2.043-.8 0-.8z" fill="#3d3c41"/><path d="M37.31 25.265l.65-.002.002-4.55h-.645z" fill="url(#T)"/><path d="M35.6 25.367l.24-.05.008-16.637s-.207-.02-.225.058-.023 16.63-.023 16.63z" fill="#8c8c8c"/><path d="M35.742 25.32h.058l-.002-16.514-.066.004z" fill="url(#R)"/><path d="M35.916 20.8l1.2-.12c.57-.054.835-.033.835-.033l.01-12.2-1.493.182c-.485.1-.608.166-.608.166v12.037l.056-.033z" fill="url(#H)"/><path d="M4.996 23.773s.917.08 1.272.003.318-.096.318-.096l.007-10.788c-.3-.33-.25-.615-.238-1.033 0 0 .02-.166-.29-.046l-1.05.45c-.03.043-.017 11.5-.017 11.5z" fill="#29292b"/><path d="M6.165 23.598h.098l-.003-11.835-.093.005c-.001.052-.001 11.83-.001 11.83z" fill="url(#O)"/><path d="M5.02 23.775s.134.065.73.06.823-.128.836-.155-.558-.044-1.566.095z" fill="#363636"/><path d="M6.07 20.423s-.277.033-.278.096l-.046 3.123s.316.007.323-.013.002-3.206.002-3.206z" fill="url(#N)"/><path d="M6.166 11.768l-.202.106c-.08.02-.59.195-.746.284L5 12.312l-.006 8.336.62-.2c.185-.04.55-.09.55-.09l.001-8.59z" fill="url(#J)"/><path d="M4.996 23.773s-.126-.04-.133-.096.04-11.402.04-11.402l.08-.042.013.044-.001 11.497z" fill="url(#P)"/><path d="M5.28 21.163l.048-.053.14-.046.114-.017.074.03-.137.026-.177.06H5.28z" fill="url(#B)"/><path d="M6.093 23.703l.008 6.167-.335-.002.003-6.172.323.007z" fill="#0b0b0b"/><path d="M5.784 23.885c.234-.012.125 5.455.124 5.987l-.14-.003.017-5.984z" fill="url(#Q)"/><path d="M26.443 30.948l-4.1-.647-8.647.162-2.014.468 9.77 1.766c.235.043 4.9-1.73 4.993-1.75z" fill="#3b3a3f"/><path d="M21.55 34.547l4.897-2.042-.003-1.557-4.992 1.75-.254 1.71L16.08 33.4l5.47 1.157z" fill="url(#G)"/><path d="M21.565 32.612c-.24.1-.22.022-.315.323l-9.604-1.797c-.05-.104-.028-.214.087-.22s9.51 1.74 9.51 1.74.113-.07.32-.048z" fill="url(#C)"/><path d="M15.584 31.676l-.174.207 5.02.907.136-.252z" fill="url(#E)"/><path d="M11.623 31.387l9.592 1.825c.44-.007.592-.224.16-.268-.178-.018-9.656-1.78-9.656-1.78s.102.143-.096.222z" fill="#0b0c07"/><path d="M14.013 28.016c0-.028 1.58.1 1.58.1l5.678.812 1.063-.006-7.112-.92c-.24-.001-1.07-.004-1.21.023z" fill="#323033"/><path d="M13.722 30.78s-.06.068.35.16l7.94 1.427c.246.03 1.185-.39 1.235-.434s-1.07-.254-1.07-.254l-8.456-.9z" fill="#1e1c1f"/><path d="M15.136 32.055l-3.544-.677-.14 1.035 2.727.558z" fill="url(#I)"/><path d="M21.087 34.385l-6.907-1.413.956-.916 6.078 1.156z" fill="url(#D)"/><path d="M15.833 32.26l5.33.986-.15 1.094-5.3-1.075-.088.004 5.453 1.116.16-1.174-5.443-1.035-.147 1.065z" fill="url(#K)"/><path d="M15.762 32.187l-4.14-.778-.01.03 4.128.783-.152.983.04-.037z" fill="url(#M)"/><path d="M21.066 34.38l.13.026.254-1.71-.093-.017-.065.097-.037.147z" fill="#0b0c10"/><g fill="#474749"><use xlink:href="#U"/><use xlink:href="#U" y="0.217"/><use xlink:href="#U" x="0.008" y="0.409"/><use xlink:href="#U" x="0.012" y="0.597"/><use xlink:href="#U" x="0.299" y="-0.096"/></g><path d="M13.722 30.78c-.006-.415.062-2.633.265-2.792l1.348.006 7.015.927-1.458 3.188-7.17-1.328z" fill="url(#L)"/><path d="M20.852 32.105c.017-.437.128-2.95.344-3.12.124-.097 1.2-.193 1.2.022 0 .94-.08 1.978-.248 2.905 0 0-.547.26-1.286.192z" fill="#212025"/><g fill="#474749"><use xlink:href="#U" x="0.299" y="0.111"/><use xlink:href="#U" x="0.307" y="0.303"/><use xlink:href="#U" x="0.31" y="0.489"/><use xlink:href="#U" x="0.598" y="-0.22"/><use xlink:href="#U" x="0.598" y="-0.003"/><use xlink:href="#U" x="0.605" y="0.19"/><use xlink:href="#U" x="0.609" y="0.377"/><use xlink:href="#U" x="0.882" y="-0.335"/><use xlink:href="#U" x="0.882" y="-0.128"/><use xlink:href="#U" x="0.892" y="0.064"/><use xlink:href="#U" x="0.894" y="0.25"/><path d="M23.978 32c.05 0 .05.062 0 .062V32z"/><use xlink:href="#U" x="1.16" y="-0.237"/><use xlink:href="#U" x="1.168" y="-0.045"/><use xlink:href="#U" x="1.172" y="0.141"/><use xlink:href="#U" x="1.447" y="-0.533"/><use xlink:href="#U" x="1.447" y="-0.325"/><use xlink:href="#U" x="1.455" y="-0.133"/><use xlink:href="#U" x="1.458" y="0.053"/></g><path d="M22.552 33.498c.034 0 .034.123 0 .123v-.123z" fill="#7d7c81"/><path d="M22.645 33.66s.093.135.15.102.027-.537-.15-.102z" fill="#8c8b91"/><g fill="#5e5e5e"><path d="M14.976 32.445l-.048.152s.34-.054.048-.152zm.012.042l-.02.066s.148-.023.02-.066zm.122-.002l.023.152.107-.114-.1.048zm.18.013l-.048.152s.34-.054.048-.152zm.012.042l-.02.066s.148-.023.02-.066z"/><path d="M14.886 32.666l.456.1s-.324-.15-.456-.1z"/></g><g fill="#7aa361"><path d="M16.623 32.852l.02.072c-.057.038-.142.085-.065.126l.028-.05c.056-.03.17-.193.017-.147zm.217.003l-.052.1c.035.02.138.037.072.08l-.03.06c.065.004.108-.082.045-.15s.063-.058.042-.075l-.076-.025z"/><path d="M17.053 32.897s-.172.08-.065.226.23-.2.065-.226zm-.004.047s-.116.054-.044.152.154-.14.044-.152zm.205-.014l-.052.1c.035.02.138.037.072.08l-.03.06c.065.004.107-.082.045-.15s.064-.058.042-.075l-.076-.025z"/></g><g fill="#717075"><path d="M11.783 31.925c.107-.26.38.188.116.198-.11.004-.155-.102-.116-.198z"/><path d="M12.06 31.92l-.02.185.148.01s.08.064.106-.01-.023-.2-.07-.166l-.093.133-.07-.154zm.18.078l-.025.082c.027.034.086-.001.025-.082z"/></g><path d="M11.822 31.937l.112.167c.084-.014.013-.2-.112-.167z" fill="#5e5f63"/><path d="M17.437 32.952l-.052.1c.035.02.138.037.072.08l-.03.06c.065.004.108-.082.045-.15s.064-.058.042-.075l-.076-.025z" fill="#7aa361"/><g fill="#696c71"><path d="M18.362 33.25c.214.05-.094.08-.013.103.058.015.252-.097.013-.103z"/><path d="M18.753 33.292l.006.077.127.04-.133-.117zm.44.078s-.085.087-.04.114.123-.037.123-.075-.16.154-.083-.04zm.31.168c.352.144-.216-.332 0 0zm.368.02l.096.05c.037-.01-.068-.097-.096-.05zm.407.026c-.16.15.227.103 0 0zm.525.14c-.004-.17-.3.023-.106.076.1.028.182.01.18-.08s-.075.004-.075.004z"/></g><path d="M11.6 32.443l-.23.134 9.604 1.784z" fill="#757374"/><path d="M21.31 34.574l-3.686-.84 3.705.784.33-.034s-.12.102-.35.1z" fill="#706e6f"/></svg>