<svg width="20" height="20" viewBox="0 0 20 20" fill="none" xmlns="http://www.w3.org/2000/svg">
<path d="M18.7607 7.63346C18.7473 7.61795 18.7358 7.60284 18.7199 7.58774L18.0191 6.91139C18.6003 6.77954 19.2261 6.29258 19.2261 5.79297C19.2261 5.21091 18.4183 5.00437 17.7288 5.00437C17.008 5.00437 16.9243 5.49827 16.9157 5.84726L15.1075 4.10392C14.7401 3.74024 14.0433 3.4541 13.5225 3.4541H10.0006H9.9998H6.47713C5.95669 3.4541 5.26032 3.74024 4.89254 4.10392L3.08468 5.84726C3.07529 5.49827 2.99161 5.00437 2.27157 5.00437C1.58132 5.00437 0.773925 5.21091 0.773925 5.79297C0.773925 6.29258 1.40009 6.77954 1.98135 6.91139L1.28049 7.58774C1.26457 7.60284 1.25355 7.61795 1.23967 7.63346C0.489826 8.2743 0 9.46292 0 10.3254V12.8884C0 13.5104 0.245321 14.0749 0.641672 14.4958V15.4897C0.641672 16.0709 1.12823 16.5448 1.72664 16.5448H3.03855C3.63696 16.5448 4.12311 16.0718 4.12311 15.4897V15.2354H9.9998H10.0006H15.8769V15.4897C15.8769 16.0718 16.3626 16.5448 16.9619 16.5448H18.2734C18.8722 16.5448 19.3579 16.0709 19.3579 15.4897V14.4958C19.7547 14.0749 19.9996 13.5104 19.9996 12.8884V10.3254C20.0004 9.46292 19.5106 8.2743 18.7607 7.63346ZM5.55667 4.87865C5.81097 4.6668 6.25549 4.50598 6.47713 4.50598H9.9998H10.0006H13.5233C13.7449 4.50598 14.1894 4.6668 14.4437 4.87865L16.8149 7.1767H10.0006H9.9998H3.18591L5.55667 4.87865ZM0.813519 9.93763C0.813519 9.30659 1.30743 8.79432 1.91726 8.79432C2.52669 8.79432 4.51824 9.96335 4.51824 10.5944C4.51824 11.2254 2.52669 11.0793 1.91726 11.0793C1.30743 11.0793 0.813519 10.5691 0.813519 9.93763ZM4.12352 14.1117H3.9133H3.70308L2.45607 14.1137C2.10993 14.006 1.86583 13.8802 1.69316 13.7451C1.60581 13.677 1.53887 13.6059 1.48662 13.5353C1.43397 13.4639 1.3956 13.3937 1.3707 13.3235C1.21558 12.8851 1.53601 12.4822 1.53601 12.4822H3.66431L5.08317 14.1109L4.12352 14.1117ZM13.0604 14.1125H10.0006H9.9998H6.94002C6.30202 14.1125 5.78403 13.5945 5.78403 12.9569H9.9998H10.0006H14.2164C14.2164 13.5953 13.6984 14.1125 13.0604 14.1125ZM13.329 12.1683H10.0006H9.9998H6.67143C5.97751 12.1683 5.41421 11.3128 5.41421 10.2576H9.9998H10.0006H14.5862C14.5862 11.3132 14.0229 12.1683 13.329 12.1683ZM18.6301 13.3243C18.6048 13.3945 18.5664 13.4647 18.5138 13.5357C18.4619 13.6064 18.395 13.6774 18.3072 13.7455C18.135 13.8806 17.8905 14.0072 17.5443 14.1141L16.2973 14.1121H16.0871H15.8769H14.9164L16.3361 12.4834H18.464C18.464 12.483 18.7848 12.8851 18.6301 13.3243ZM18.0831 11.0793C17.4741 11.0793 15.4826 11.2246 15.4826 10.5944C15.4826 9.96416 17.4741 8.79432 18.0831 8.79432C18.693 8.79432 19.1869 9.30659 19.1869 9.93763C19.1869 10.5683 18.693 11.0793 18.0831 11.0793Z" fill="#838383"/>
</svg>
