<svg width="25" height="25" viewBox="0 0 25 25" fill="none" xmlns="http://www.w3.org/2000/svg">
<path d="M12.4703 24.7861C19.2385 24.7861 24.7252 19.2994 24.7252 12.5312C24.7252 5.76298 19.2385 0.276276 12.4703 0.276276C5.7021 0.276276 0.215393 5.76298 0.215393 12.5312C0.215393 19.2994 5.7021 24.7861 12.4703 24.7861Z" fill="#D5D5D5"/>
<path fill-rule="evenodd" clip-rule="evenodd" d="M12.4381 4.02226C12.4381 4.02226 11.5073 3.97216 10.5108 4.39197C9.5148 4.81187 8.76922 5.86657 8.59333 6.62844C8.41765 7.3903 8.36226 7.71942 8.34882 8.8005C8.33588 9.88148 8.72657 11.0794 9.10451 11.8805C9.48186 12.6811 10.1788 13.6646 11.3119 14.075C12.4449 14.4853 13.6171 14.1008 13.6171 14.1008C13.6171 14.1008 14.8934 13.6059 15.6554 12.2518C16.4174 10.897 16.5734 9.32108 16.5734 9.32108C16.5734 9.32108 16.7034 7.38079 16.2739 6.37138C15.844 5.36206 15.31 4.92608 14.9322 4.67187C14.5548 4.41775 13.91 4.02226 12.4381 4.02226ZM9.67049 11.5446C9.98529 12.2459 10.5657 13.1068 11.509 13.4649C12.4525 13.8246 13.4284 13.4888 13.4284 13.4888C13.4284 13.4888 14.4908 13.0551 15.1247 11.87C15.2059 11.7185 15.2785 11.5638 15.3444 11.4101C15.7911 10.3548 15.8899 9.3054 15.8899 9.3054C15.8899 9.3054 15.9983 7.60716 15.64 6.72344C15.2827 5.84118 14.8375 5.45912 14.5232 5.23648C14.2089 5.01442 13.672 4.66805 12.4469 4.66805C12.4469 4.66805 11.671 4.62412 10.8418 4.99197C10.0125 5.35922 9.39157 6.28216 9.24539 6.94903C9.09931 7.61579 9.05284 7.90344 9.04196 8.84961C9.03088 9.73677 9.31706 10.7135 9.61177 11.4101C9.63137 11.4563 9.65039 11.5008 9.67049 11.5446ZM9.67049 11.5446C9.98529 12.2459 10.5657 13.1068 11.509 13.4649C12.4525 13.8246 13.4284 13.4888 13.4284 13.4888C13.4284 13.4888 14.4908 13.0551 15.1247 11.87C15.2059 11.7185 15.2785 11.5638 15.3444 11.4101C15.7911 10.3548 15.8899 9.3054 15.8899 9.3054C15.8899 9.3054 15.9983 7.60716 15.64 6.72344C15.2827 5.84118 14.8375 5.45912 14.5232 5.23648C14.2089 5.01442 13.672 4.66805 12.4469 4.66805C12.4469 4.66805 11.671 4.62412 10.8418 4.99197C10.0125 5.35922 9.39157 6.28216 9.24539 6.94903C9.09931 7.61579 9.05284 7.90344 9.04196 8.84961C9.03088 9.73677 9.31706 10.7135 9.61177 11.4101C9.63137 11.4563 9.65039 11.5008 9.67049 11.5446Z" fill="white"/>
<path fill-rule="evenodd" clip-rule="evenodd" d="M9.53647 14.2312C9.53647 14.2312 7.57549 14.5828 6.13725 15.7029C4.69941 16.8227 4.69941 17.6757 4.69941 18.057C4.69941 18.4376 4.98804 19.4732 6.21892 20.0006C7.44941 20.528 8.26343 20.6545 9.28559 20.8471C10.3084 21.0395 12.4613 21.0395 12.4613 21.0395C12.4613 21.0395 14.606 21.0945 16.6309 20.6779C18.6563 20.2609 19.3336 19.6031 19.6135 19.3557C19.8934 19.1083 20.1299 18.6526 20.2234 18.1902C20.3167 17.7278 20.0238 17.0895 19.796 16.7318C19.5676 16.3735 18.8449 15.6832 18.3243 15.4033C17.803 15.123 17.1128 14.7193 16.3314 14.4849C15.5499 14.2508 15.4215 14.2292 15.278 14.2427C15.1348 14.2556 15.0535 14.3272 14.9035 14.4409C14.7541 14.5551 14.0963 15.0107 13.1682 15.177C12.2405 15.3428 11.4686 15.1121 11.3029 15.0729C11.1366 15.0336 10.5214 14.7829 10.2315 14.5941C9.94196 14.4051 9.78873 14.2622 9.71069 14.2407C9.63245 14.2196 9.53647 14.2312 9.53647 14.2312ZM7.11412 19.66C7.77471 19.8707 8.98853 20.2165 10.7998 20.3522C12.6113 20.4874 14.3886 20.3522 15.334 20.2303C16.2798 20.1094 18.4466 19.6385 19.0637 18.912C19.6809 18.184 19.54 17.828 19.2854 17.3003C19.0303 16.7724 17.9507 15.903 17.025 15.4823C16.0987 15.0619 15.515 14.9401 15.515 14.9401C15.515 14.9401 14.7039 15.5605 13.6234 15.8386C12.5439 16.1166 11.5575 15.9169 10.9675 15.7602C10.3772 15.6034 9.78716 15.2252 9.36931 14.9262C9.36931 14.9262 8.1202 15.2758 7.13029 15.8634C6.14206 16.4519 5.67147 17.0719 5.50716 17.4459C5.34294 17.8204 5.31618 18.1485 5.49382 18.5331C5.67147 18.9182 6.45343 19.4497 7.11412 19.66ZM13.6234 15.8386C12.5439 16.1166 11.5575 15.9169 10.9675 15.7602C10.3772 15.6034 9.78716 15.2252 9.36931 14.9262C9.36931 14.9262 8.1202 15.2758 7.13029 15.8634C6.14206 16.4519 5.67147 17.0719 5.50716 17.4459C5.34294 17.8204 5.31618 18.1485 5.49382 18.5331C5.67147 18.9182 6.45343 19.4497 7.11412 19.66C7.77471 19.8707 8.98853 20.2165 10.7998 20.3522C12.6113 20.4874 14.3886 20.3522 15.334 20.2303C16.2798 20.1094 18.4466 19.6385 19.0637 18.912C19.6809 18.184 19.54 17.828 19.2854 17.3003C19.0303 16.7724 17.9507 15.903 17.025 15.4823C16.0987 15.0619 15.515 14.9401 15.515 14.9401C15.515 14.9401 14.7039 15.5605 13.6234 15.8386Z" fill="white"/>
</svg>
