<svg xmlns="http://www.w3.org/2000/svg" width="10.837mm" height="10.837mm" viewBox="0 0 10.8372 10.8372" shape-rendering="geometricPrecision" text-rendering="geometricPrecision" image-rendering="optimizeQuality" fill-rule="evenodd" clip-rule="evenodd"><defs><style type="text/css"><![CDATA[
    .fil1 {fill:#4D4D4D}
    .fil0 {fill:#E55B5B}
   ]]></style></defs><g id="Слой_x0020_1"><path class="fil0" d="M2.867 4.922l-.117-.005-.346.048-.799.145c-.407.079-.807.241-.807.241l-.241.143c-.078.064-.142.157-.179.214l-.086.156-.053.056-.061.194-.012.141.045.032.023.008-.002.042-.054.036.028.179.047.058.215.069c.146.041.375.061.375.061l.011.023.384.033-.036-.154c.003-.084.007-.244.053-.359.046-.115.106-.24.26-.369.154-.13.322-.17.46-.184.138-.015.373.026.521.12.149.094.248.204.328.339.08.134.08.208.08.208l-.011.011.032.249-.002.246.057-.017.078-.072.056-.039.003-.008 4.397-.009-.001-.057.022-.26c.022-.112.12-.361.233-.454.112-.093.178-.162.397-.233.22-.071.487-.008.569.034l.12.063s.115.05.244.218c.129.169.136.307.136.307l-.009.007.032.24-.015.228.061-.04.08-.099.095-.026.902-.136.159-.073.097-.117-.004-.069-.001-.008.025-.117-.004-.314-.081-.073-.106-.114c-.023-.056-.025-.219-.032-.352l-.024-.195-.021-.138-.024-.111-.063-.062-.577-.075-.247-.023-.053-.017c-.027-.016-.492-.293-.778-.425l-.331-.151-.253-.099-.038-.014-.031-.019c-.027-.008-.305-.087-.596-.116-.291-.029-.626-.036-.626-.036l-.676-.004s-.615.025-.946.078c-.331.053-.591.17-.591.17l-.631.315-.793.444-.152.093-.115-.005zm5.851.295l.003.199.079.069.281-.004.057-.094-.004-.17-.072-.057h-.285l-.058.057zm-.948-.912l.171.204.168.229.051.028.301-.012.01-.031c-.019-.025-.201-.162-.351-.246l-.316-.166-.033-.006zm-1.705.567l.079-.854s.432-.006.795.039c.363.044.485.087.485.087l.29.32-.034.34-1.615.068zm-2.203.168l.043-.4s.747-.435 1.204-.532c.457-.097.785-.08.785-.08l-.247.872-1.785.14z"/><path class="fil1" d="M3.582 4.968l.034-.025s.014-.157.082-.215c.069-.058.142-.058.172-.055l.083.01.051.072.014.195-.04.072-.148.051-.219.008-.028-.073-.001-.042zm-1.509.839c.419 0 .758.335.758.748s-.339.748-.758.748-.758-.335-.758-.748.339-.748.758-.748zm-.026.242c.287 0 .521.234.521.524 0 .289-.233.524-.521.524-.287 0-.521-.235-.521-.524 0-.289.233-.524.521-.524zm6.364-.264c.419 0 .758.335.758.748s-.339.748-.758.748-.758-.335-.758-.748.339-.748.758-.748zm0 .224c.287 0 .521.234.521.524 0 .289-.233.524-.521.524-.287 0-.521-.235-.521-.524 0-.289.233-.524.521-.524z"/></g></svg>