<svg xmlns="http://www.w3.org/2000/svg" xmlns:xlink="http://www.w3.org/1999/xlink" width="163.839" height="163.839" viewBox="0 0 43.349 43.349" shape-rendering="geometricPrecision" image-rendering="optimizeQuality" fill-rule="evenodd" xmlns:v="https://vecta.io/nano"><style><![CDATA[.BO{fill-rule:nonzero}.BP{fill:#5a5b5f}.BQ{fill:#ccc}.BR{fill:#818286}.BS{fill:#fbfcff}.BT{fill:#0d0d0f}]]></style><defs><linearGradient id="A" x1="2.83" y1="33.502" x2="11.38" y2="33.502" xlink:href="#g"><stop offset="0" stop-color="#b9bcbc"/><stop offset="1" stop-color="#494b4a"/></linearGradient><linearGradient id="B" x1="20.547" y1="8.57" x2="37.588" y2="8.57" xlink:href="#g"><stop offset="0" stop-color="#f8f8f8"/><stop offset="1" stop-color="#f3f3f3"/></linearGradient><linearGradient id="C" x1="4.871" y1="36.737" x2="15.098" y2="36.737" xlink:href="#g"><stop offset="0"/><stop offset="1" stop-color="#666"/></linearGradient><linearGradient id="D" x1="20.134" y1="32.184" x2="25.674" y2="32.184" xlink:href="#g"><stop offset="0" stop-color="#2f2f31"/><stop offset=".502" stop-color="#484746"/><stop offset="1" stop-color="#302f30"/></linearGradient><linearGradient id="E" x1="21.777" y1="27.002" x2="36.28" y2="13.388" xlink:href="#g"><stop offset="0" stop-color="#cccdcf"/><stop offset=".51" stop-color="#eaeaec"/><stop offset="1" stop-color="#d4d5d7"/></linearGradient><linearGradient id="F" x1="23.444" y1="34.273" x2="23.444" y2="29.773" xlink:href="#g"><stop offset="0" stop-color="#434343"/><stop offset="1" stop-color="#424241"/></linearGradient><linearGradient id="G" x1="18.972" y1="26.479" x2="18.972" y2="25.292" xlink:href="#g"><stop offset="0" stop-color="#62656c"/><stop offset="1" stop-color="#fcf9fd"/></linearGradient><linearGradient id="H" x1="23.197" y1="34.113" x2="23.197" y2="28.051" xlink:href="#g"><stop offset="0" stop-color="#353537"/><stop offset=".58" stop-color="#434343"/><stop offset="1" stop-color="#52514f"/></linearGradient><linearGradient id="I" x1="16.218" y1="11.982" x2="22.471" y2="3.276" xlink:href="#g"><stop offset="0" stop-color="#5f5c56"/><stop offset="1" stop-color="#52504d"/></linearGradient><linearGradient id="J" x1="12.081" y1="32.583" x2="15.226" y2="32.701" xlink:href="#g"><stop offset="0" stop-color="gray"/><stop offset="1" stop-color="#424242"/></linearGradient><linearGradient id="K" xlink:href="#C" x1="4.922" y1="34.44" x2="23.692" y2="34.44"/><linearGradient id="L" x1="14.323" y1="31.685" x2="19.155" y2="28.665" xlink:href="#g"><stop offset="0" stop-color="#5a5a5f"/><stop offset=".2" stop-color="#1e1e21"/><stop offset=".38" stop-color="#454447"/><stop offset="1" stop-color="#969596"/></linearGradient><linearGradient id="M" x1="13.315" y1="36.429" x2="14.264" y2="35.491" xlink:href="#g"><stop offset="0" stop-color="#252528"/><stop offset="1" stop-color="#434343"/></linearGradient><linearGradient id="N" x1="29.531" y1="10.491" x2="28.552" y2="11.694" xlink:href="#g"><stop offset="0" stop-color="#707175"/><stop offset=".62" stop-color="#8e8f93"/><stop offset="1" stop-color="#acadb2"/></linearGradient><linearGradient id="O" x1="10.368" y1="32.788" x2="25.232" y2="28.57" xlink:href="#g"><stop offset="0" stop-color="#161618"/><stop offset=".71" stop-color="#595856"/><stop offset="1" stop-color="#56514d"/></linearGradient><linearGradient id="P" x1="1.697" y1="25.387" x2="25.463" y2="10.741" xlink:href="#g"><stop offset="0" stop-color="#7f8384"/><stop offset="1" stop-color="#999"/></linearGradient><linearGradient id="Q" x1="16.469" y1="13.009" x2="18.296" y2="13.586" xlink:href="#g"><stop offset="0" stop-color="#878784"/><stop offset="1" stop-color="#7e7e79"/></linearGradient><linearGradient id="R" x1="31.506" y1="15.922" x2="26.587" y2="23.916" xlink:href="#g"><stop offset="0" stop-color="#333"/><stop offset=".212" stop-color="#4d4d4d"/><stop offset=".4" stop-color="#333"/><stop offset=".6" stop-color="#4d4d4d"/><stop offset=".769" stop-color="#1a1a1a"/><stop offset="1" stop-color="#333"/></linearGradient><linearGradient id="S" x1="4.652" y1="32.952" x2="10.654" y2="32.952" xlink:href="#g"><stop offset="0" stop-color="#e8e9e7"/><stop offset="1" stop-color="#6b6f70"/></linearGradient><linearGradient id="T" x1="33.046" y1="16.759" x2="24.991" y2="23.648" xlink:href="#g"><stop offset="0" stop-color="#a3a4a9"/><stop offset=".278" stop-color="#c4c5c8"/><stop offset="1" stop-color="#e6e6e8"/></linearGradient><linearGradient id="U" x1="23.566" y1="11.529" x2="23.566" y2="11.055" xlink:href="#g"><stop offset="0" stop-color="#e2e2e4"/><stop offset=".6" stop-color="#bfbfc3"/><stop offset="1" stop-color="#9b9ca1"/></linearGradient><linearGradient id="V" x1="13.285" y1="23.578" x2="17.077" y2="24.752" xlink:href="#g"><stop offset="0" stop-color="#bfc2bb"/><stop offset=".439" stop-color="#868884"/><stop offset="1" stop-color="#4d4d4d"/></linearGradient><linearGradient id="W" x1="32.488" y1="14.832" x2="25.569" y2="25.035" xlink:href="#g"><stop offset="0" stop-color="#55565b"/><stop offset=".239" stop-color="#ccc"/><stop offset=".549" stop-color="#666"/><stop offset=".702" stop-color="#999"/><stop offset=".749" stop-color="#b3b3b3"/><stop offset="1" stop-color="#5c5d62"/></linearGradient><path id="X" d="M28.292 10.707c.117 0 .08.053.054.053-.117 0-.08-.053-.054-.053z"/><path id="Y" d="M28.344 11.047c.025 0 .063.053-.054.053-.025 0-.063-.053.054-.053z"/><path id="Z" d="M31.715 11.094h.006c.277 0 .223.337.223.524 0 .123-.1.223-.223.223h-.006c-.277 0-.223-.337-.223-.524 0-.123.1-.223.223-.223zm.006.024h-.006c-.28 0-.305.7 0 .7h.006c.28 0 .305-.7 0-.7z"/><path id="a" d="M31.547 9.74c.046 0 .046.067 0 .067s-.045-.067 0-.067z"/><path id="b" d="M31.544 10.537c.045 0 .045.067 0 .067s-.046-.067 0-.067z"/><path id="c" d="M21.924 32.994c.01-.05.075-.113.123-.117 0 0-.132-.04-.123.117z"/><path id="d" d="M22.06 33.116l.094-.073c.017-.033 0 .102-.094.073z"/><path id="e" d="M22.106 32.964l.01.085c-.007.023.107-.054-.01-.085z"/><path id="f" d="M28.95 33.004l.02.085.097-.002c.07-.037-.054-.134-.053-.083l.025.055-.087-.056z"/><linearGradient id="g" gradientUnits="userSpaceOnUse"/></defs><circle cx="22.089" cy="22.053" r="19.05" fill="#f0f0f0"/><path d="M37.8 33.01s-.084.06-.296.07-.335-.015-.403.02-.147.083-.5.093-11.958.03-11.958.03l.165-.232 12.993.02z" fill="#2e2d2d"/><path d="M20.534 8.355s-.345.037-.397.302-.12 3.905-.12 4.03-.015 19.82.017 19.968.166.31.26.35.65.024.65.024a.85.85 0 0 0 .379.114c.205.006 15.47-.01 15.47-.01l.203-.06.073-.045.68-.015c.07-.01.21-.25.226-.332s.01-19.963.01-19.963l-.132-3.71s-.015-.254-.078-.42-.26-.233-.37-.233H20.536z" fill="#e4e4e6"/><g class="BQ"><path d="M22.584 12.345l-.13.35.975.001.117-.35-.962-.001z"/><path d="M23.547 12.346h-.963l.29-.803 1.033-.001z"/></g><path d="M29.018 14.818c7.017 0 7.017 10.77 0 10.77s-7.017-10.77 0-10.77z" fill="url(#T)"/><path d="M29.047 15.33c2.564 0 4.642 2.055 4.642 4.6s-2.078 4.6-4.642 4.6-4.642-2.055-4.642-4.6 2.078-4.6 4.642-4.6z" fill="url(#R)"/><path d="M20.18 9.1a2.42 2.42 0 0 1 .593-.047l-.08 2.883c.038.23.22.36.453.35l4.906-.002a.48.48 0 0 0 .384-.496V9.056l11.252.003.084.02.105.006s-.033-.062-.296-.078-17.17-.001-17.17-.001-.244.013-.23.094zm.65-.034l5.566-.007-.014 2.83s-.007.2-.17.282-.26.077-.26.077l-4.896-.003s-.157-.007-.24-.136-.088-.218-.088-.218l.1-2.825z" fill="#8e8e90"/><path d="M20.577 8.712l17.01-.022s-.04-.186-.138-.224-16.79.015-16.79.015-.112.097-.082.23z" fill="url(#B)"/><path d="M20.1 12.7s.046-.045.172-.053l17.563.02.1.036.062.02-.038-.068c-.05-.026-.07-.04-.227-.04l-17.488-.017-.134.03-.008.073z" fill="#8c8b90"/><path d="M22.184 10.836h2.765c.388 0 .416.912 0 .912h-2.765c-.388 0-.416-.912 0-.912z" fill="url(#U)"/><path d="M28.307 9.41h1.43c.077 0 .14.063.14.14v1.52c0 1.12-1.712 1.12-1.712 0v-1.52c0-.078.063-.14.14-.14z" fill="#0f0f11"/><path d="M29.03 10.566c.753 0 .753 1.08 0 1.08s-.753-1.08 0-1.08z" fill="#c4c3c8"/><path d="M29.01 10.633a.49.49 0 0 1 0 .975.49.49 0 0 1 0-.975z" fill="#302f34"/><path d="M29.04 10.605a.49.49 0 0 1 0 .975.49.49 0 0 1 0-.975z" fill="url(#N)"/><g fill="#90be27"><path d="M28.97 9.64h.128v.06h-.128v-.06z"/><path d="M29.094 9.803V9.7h.055v.113h-.055z"/><path d="M28.967 9.806h.128v.06h-.128v-.06zm-.002.166h.128v.06h-.128v-.06z"/><path d="M29.1 9.985v-.113h.055v.113H29.1zm.138-.348h.128v.06h-.128v-.06z"/><path d="M29.224 9.975h.128v.06h-.128v-.06zm-.054-.168v-.113h.055v.113h-.055z"/><path d="M29.168 10v-.113h.055V10h-.055zm.18-.18v-.113h.055V9.8h-.055zm-.003.18v-.113h.055V10h-.055z"/></g><g fill="#a80b36"><path d="M28.593 9.646c.108 0 .108.17 0 .17s-.108-.17 0-.17zm.001.036c.07 0 .07.102 0 .102s-.07-.102 0-.102z"/><path d="M28.592 9.68v.06-.06z"/></g><g fill="#88888a"><path d="M27.093 9.734c.118 0 .118.186 0 .186s-.118-.186 0-.186zm0 .024c-.087 0-.087.138 0 .138s.087-.138 0-.138z" class="BO"/><path d="M27.108 9.818h-.08v.016h.08z"/><path d="M27.087 9.758h.02v.06h-.02z"/></g><g fill="#414143"><use xlink:href="#X"/><path d="M28.292 10.344c.117 0 .078.053.054.053-.117 0-.078-.053-.054-.053z"/><use xlink:href="#Y"/><path d="M28.357 11.403c.094-.067.095-.002.074.013-.094.066-.096.003-.074-.013zm1.266.015c-.02-.015-.02-.08.075-.012.02.014.02.08-.075.012z"/><use xlink:href="#Y" x="1.416" y="-0.342"/><use xlink:href="#X" x="1.414" y="-0.367"/><use xlink:href="#X" x="1.412" y="0.337"/></g><g fill="#c0c0c2"><path d="M27.016 9.542h1.102v.04h-1.102zm-.002.543h1.102v.04h-1.102zm1.05.262h.053v.04h-.053zm-.198.358h.247v.04h-.247zm-.275.355h.52v.04h-.52zm.45.4h.138v.04h-.138zm1.842.004h.14v.04h-.14zm.08-.394h.3v.04h-.3zm-.008-.35h.28v.04h-.28zm0-.37h.485v.04h-.485zm-.001-.247h1.086v.025h-1.086zm0-.55h1.092v.04h-1.092z"/><path d="M28.084 9.744v.212c0 .16-.274.158-.274 0v-.212c0-.158.274-.16.274 0zm-.25 0v.212c0 .13.226.127.226 0v-.212c0-.13-.226-.127-.226 0z" class="BO"/></g><path d="M34.638 11.222h.04v.277h-.04zm-.085-.004h.046v.282h-.046z" fill="#605f65"/><g fill="#464648"><path d="M34.37 11.218h.033v.286h-.033z"/><path d="M34.587 11.355l-.016.023-.195-.138.016-.023z"/><path d="M34.563 11.356l.016.023-.196.136-.016-.023z"/></g><g fill="#96959a" class="BO"><path d="M30.065 9.857l.033.107.1-.001.02-.104.023.004-.022.123-.127.001-.038-.124zm.312.01l.03.1h.08l.026-.097.023.006-.03.115H30.4l-.036-.118z"/><path d="M30.73 9.915l.033-.013c-.03-.066-.124.017-.065.063.036.03.094-.003.106-.048l.023.006c-.025.09-.156.106-.17.015s.095-.114.126-.047c.034.073-.06.046-.06.046l.006-.023z"/></g><path d="M30.176 9.9h-.07.07zm.308.006h-.078.078z" fill="#a4a4a6"/><g class="BO"><path d="M30.117 9.697c.087 0 .087.124 0 .124s-.087-.124 0-.124zm0 .024c-.056 0-.056.076 0 .076s.055-.076 0-.076zm.307-.023c.087 0 .087.124 0 .124s-.087-.124 0-.124zm0 .024c-.055 0-.055.076 0 .076s.056-.076 0-.076z" fill="#4d4e52"/><g fill="#bababc"><use xlink:href="#Z"/><use xlink:href="#Z" x="0.777" y="0.003"/><use xlink:href="#Z" x="1.572" y="0.006"/><path d="M34.513 10.92h.01c.392 0 .316.413.316.642 0 .15-.142.274-.316.274h-.01c-.392 0-.315-.413-.315-.642 0-.15.142-.274.315-.274zm.01.03h-.01c-.394 0-.43.857 0 .857h.01c.394 0 .43-.857 0-.857z"/></g><path d="M30.73 9.695l.066.062-.066.062-.066-.062.066-.062zm0 .024l-.042.038.042.038.042-.038-.042-.038z" fill="#4d4e52"/></g><path d="M31.408 9.552h2.133c.05 0 .088.04.088.088v1.196c0 .05-.04.088-.088.088h-2.133c-.05 0-.088-.04-.088-.088V9.64c0-.05.04-.088.088-.088z" class="BT"/><g fill="#a7a6ab"><path d="M33.247 10.53c.042.172.2.223.176-.006l-.06.1-.005-.073-.04.007-.002.063-.068-.092z"/><path d="M33.247 10.262l.032.124.118.004.026-.115-.08-.017c-.025.05-.058.06-.097.004z"/><path d="M33.262 10.034l.02.075.102.003.014-.073.024-.03-.066-.026-.073-.01-.02.06zm.036-.016l.004.064.08-.06-.083-.003z"/><path d="M33.328 9.688l-.076.12c.03.106.3.064.076-.12z"/></g><path d="M31.755 10.017l-.015.001-.005-.013L31.72 10l-.028.047.065.023c0 .05-.08.067-.08-.017s.07-.078.078-.035zm-.06.052c0 .083.096-.026.024-.026l-.024.026zm.078-.02c0-.106.107-.064.074.034l-.035.027-.04-.062zm.022.04l.017.01.017-.09-.017-.01-.016.01-.001.08z" fill="#c3c3c5" class="BO"/><g fill="#343436"><use xlink:href="#a"/><path d="M31.55 10.002c.046 0 .045.067 0 .067v-.067z"/><path d="M31.537 10.265c.045 0 .045.067 0 .067v-.067z"/><use xlink:href="#b"/><use xlink:href="#a" x="0.786" y="0.806"/><use xlink:href="#a" x="0.786" y="0.54"/><use xlink:href="#a" x="0.786" y="0.267"/><path d="M32.327 9.74c.045 0 .046.067 0 .067V9.74z"/><use xlink:href="#b" x="1.566" y="0.02"/><use xlink:href="#b" x="1.566" y="-0.244"/><use xlink:href="#b" x="1.566" y="-0.519"/><use xlink:href="#a" x="1.558" y="0.012"/></g><path d="M34.763 9.822c.15.253-.155.51-.417.387.24.08.527-.13.417-.387z" fill="#8d8d8f"/><g fill="#49494b"><path d="M34.53 9.793c.063.02.11.07.11.133 0 .35-.57-.03-.212-.133v.042c-.235.105.175.333.175.093l-.073-.096v-.038z"/><path d="M34.455 9.743h.05v.187h-.05z"/></g><g class="BO"><path d="M29.03 13.048c3.942 0 7.11 3.215 7.11 7.147s-3.17 7.147-7.11 7.147-7.11-3.216-7.11-7.147 3.17-7.147 7.11-7.147zm0 .092c-3.892 0-7.02 3.174-7.02 7.055s3.127 7.055 7.02 7.055 7.02-3.174 7.02-7.055-3.127-7.055-7.02-7.055z" fill="#4d4d4d"/><path d="M29.032 14.91c2.72 0 4.918 2.208 4.918 4.925s-2.2 4.926-4.918 4.926-4.918-2.208-4.918-4.926 2.2-4.925 4.918-4.925zm0 .03c-2.703 0-4.888 2.195-4.888 4.896s2.185 4.896 4.888 4.896 4.888-2.195 4.888-4.896-2.185-4.896-4.888-4.896z" fill="#3a3b3f"/><path d="M29.03 15.146a4.91 4.91 0 0 1 3.449 1.402c.883.866 1.43 2.063 1.43 3.385s-.546 2.52-1.43 3.385a4.91 4.91 0 0 1-6.898 0c-.883-.866-1.43-2.063-1.43-3.385s.546-2.52 1.43-3.385a4.91 4.91 0 0 1 3.449-1.402zm3.324 1.53a4.73 4.73 0 0 0-3.324-1.35c-1.298 0-2.473.516-3.324 1.35a4.55 4.55 0 0 0 0 6.516 4.73 4.73 0 0 0 3.324 1.35c1.298 0 2.473-.516 3.324-1.35a4.55 4.55 0 0 0 0-6.516z" fill="url(#W)"/></g><path d="M34.045 29.175h.9l-.035.083h-.82l-.035-.083z" fill="#2e2d32"/><g class="BO"><path d="M32.546 29.14h3.842a.37.37 0 0 1 .37.37v2.78a.37.37 0 0 1-.37.37h-3.842a.37.37 0 0 1-.37-.37v-2.78a.37.37 0 0 1 .37-.37zm3.842.036h-3.842c-.184 0-.335.15-.335.335v2.78c0 .184.15.335.335.335h3.842c.184 0 .335-.15.335-.335V29.5c0-.184-.15-.335-.335-.335z" fill="#8d8d8f"/><path d="M20.128 32.744s.07.053.24.064 17.507.001 17.557.001v.024c-.05 0-17.385.01-17.558-.001-.178-.01-.256-.07-.256-.07l.017-.017z" fill="#9a9ba0"/></g><path d="M20.1 32.76c.163.336.564.277.87.27.008-.132.158-.2.27-.22 0 0-.972.034-1.14-.05zm16.984.073l.022.198.693-.02c.058-.004.154-.193.154-.193l-.87.015z" fill="#97989d"/><use xlink:href="#c" class="BP"/><g class="BR"><use xlink:href="#d"/><path d="M22.15 32.957l-.103-.07s.12-.03.103.07z"/></g><path d="M21.965 32.976l.02.085h.097l.01-.068-.064-.014.025.055-.087-.056z" class="BP"/><g class="BS"><use xlink:href="#e"/><path d="M22 33.074l.035.02-.035-.02z"/></g><use xlink:href="#c" x="6.976" y="0.028" class="BP"/><path d="M24.764 9.062l-.627 1.774h-1.074l.55-1.773z" class="BQ"/><g class="BR"><use xlink:href="#d" x="6.987" y="0.028"/><path d="M29.135 32.986l-.103-.07s.12-.03.103.07z"/></g><use xlink:href="#f" class="BP"/><g class="BS"><use xlink:href="#e" x="6.984" y="0.028"/><path d="M28.985 33.102l.035.02-.035-.02z"/></g><use xlink:href="#c" x="13.974" y="0.023" class="BP"/><g class="BR"><use xlink:href="#d" x="13.975" y="0.024"/><path d="M36.123 32.98l-.103-.07s.12-.03.103.07z"/></g><use xlink:href="#f" x="6.988" y="-0.004" class="BP"/><g class="BS"><use xlink:href="#e" x="13.974" y="0.023"/><path d="M35.973 33.097l.035.02-.035-.02z"/></g><path d="M29.03 13.14c-3.892 0-7.02 3.174-7.02 7.055s3.127 7.055 7.02 7.055 7.02-3.174 7.02-7.055-3.127-7.055-7.02-7.055zm-5.35 7.063c0-2.974 2.39-5.386 5.34-5.386s5.34 2.41 5.34 5.386-2.39 5.386-5.34 5.386-5.34-2.41-5.34-5.386z" fill="url(#E)"/><g class="BO"><g fill="#777779"><path d="M27.023 10.314h.07v.02h-.05v.027c.07 0 .11.07-.02.07v-.115zm.02.096v-.03.03zm.075-.096h.02v.046c.077 0 .1.07-.02.07v-.115zm.02.096v-.03.03zm.07-.096h.02v.115h-.02v-.115zm.098.073l.018.007-.038.037c-.108 0 .008-.206.038-.086l-.02.006-.043.02.043.016zm.052.042v-.096h-.027v-.02h.073v.02h-.027v.096h-.018zm.058 0v-.115c.103 0 .095.072.02.072v.044h-.02zm.02-.096v.033-.033zm.14.096h-.02l-.008-.026h-.037l-.007.026h-.02l.036-.115h.02l.037.115zm-.035-.046l-.013-.043-.012.043h.025zm.1.046v-.048l-.042.048.01-.05c-.09-.02.016-.065.052-.065v.115h-.02zm0-.096v.03-.03zm.133.053l.018.007c-.015.065-.08.042-.08-.02 0-.072.07-.08.08-.027l-.018.006-.043.02.044.016zm.052.042v-.096h-.028v-.02h.074v.02h-.027v.096h-.02zm.058-.115h.018v.077l.037-.077h.02v.115h-.017v-.075l-.038.075h-.018v-.115z"/><path d="M27.122 10.674h.07v.02h-.05v.027c.07 0 .112.07-.02.07v-.115zm.02.096v-.03.03zm.075-.096h.02v.046c.077 0 .1.07-.02.07v-.115zm.02.096v-.03.03zm.07-.096h.02v.115h-.02v-.115zm.098.073l.018.007-.04.037c-.11 0 .008-.206.04-.086l-.02.006-.043.02.044.016zm.052.042v-.096h-.028v-.02h.074v.02h-.028v.096h-.02zm.058 0v-.115c.104 0 .096.072.02.072v.044h-.02zm.02-.096v.033-.033zm.14.096h-.02l-.008-.026h-.037l-.008.026h-.02l.036-.115h.02l.037.115zm-.035-.046l-.013-.043-.012.043h.025zm.1.046v-.048l-.042.048h-.023l.032-.05c-.092-.02.016-.065.052-.065v.115h-.02zm0-.096v.03-.03z"/><path d="M27.255 11.12v-.048l-.038.048.008-.05c-.084-.02.015-.065.047-.065v.115h-.017zm0-.096v.03-.03zm.122.053l.016.007c-.014.065-.074.042-.074-.02 0-.072.063-.08.074-.027l-.017.006-.04.02.04.016zm.047.042v-.096H27.4v-.02h.067v.02h-.025v.096h-.017zm.053-.115h.016v.077l.034-.077h.017v.115h-.016v-.075l-.035.075h-.017v-.115zm.207.404h.068v.02h-.05v.027c.068 0 .1.07-.02.07V11.4zm.02.096v-.03.03zm.073-.096h.018v.046c.075 0 .1.07-.018.07v-.115zm.018.096v-.03.03zm.068-.096h.018v.115h-.018v-.115zm.096.073l.018.007-.038.037c-.107 0 .008-.207.038-.086l-.018.005-.042.02.043.016zm2.175-.075h.04v.02h-.03v.027c.04 0 .066.07-.01.07v-.115zm.01.096v-.03.03zm.044-.096h.01v.046c.045 0 .06.07-.01.07v-.115zm.01.096v-.03.03zm.04-.096h.01v.115h-.01v-.115zm.058.073v.007l-.023.037c-.064 0 .005-.207.023-.086v.005l-.025.02.026.016zm.03.042v-.096H30.3v-.02h.044v.02h-.016v.096h-.01zm.035 0v-.115c.06 0 .057.072.01.072v.044h-.01zm.01-.096v.033-.033z"/><path d="M30.364 11.01h.04v.02h-.03v.027c.04 0 .066.07-.01.07v-.115zm.01.096v-.03.03zm.044-.096h.01v.046c.045 0 .06.07-.01.07v-.115zm.01.096v-.03.03zm.04-.096h.01v.115h-.01v-.115zm.058.073l.01.007-.023.037c-.064 0 .005-.207.023-.086l-.01.005-.025.02.026.016zm.03.042v-.096h-.016v-.02h.043v.02h-.016v.096h-.01zm.034 0v-.115c.06 0 .057.072.01.072v.044h-.01zm.01-.096v.033-.033zm.083.096h-.012l-.005-.026h-.022l-.004.026h-.012l.02-.115h.012l.022.115zm-.02-.046l-.008-.043-.007.043h.015zm.06.046v-.048l-.025.048h-.013l.02-.05c-.054-.02.01-.065.03-.065v.115h-.01zm0-.096v.03-.03z"/><path d="M30.363 10.66h.045v.02h-.033v.027c.044 0 .072.07-.012.07v-.115zm.012.096v-.03.03zm.048-.096h.012v.046c.05 0 .065.07-.012.07v-.115zm.012.096v-.03.03zm.045-.096h.012v.115h-.012v-.115zm.063.073l.012.007-.025.037c-.07 0 .005-.207.025-.086l-.012.005-.028.02.028.016zm.033.042v-.096h-.018v-.02h.047v.02h-.018v.096h-.012zm.037 0v-.115c.066 0 .06.072.012.072v.044h-.012zm.012-.096v.033-.033zm.1.096h-.013l-.005-.026h-.024l-.005.026h-.013l.023-.115h.013l.024.115zm-.022-.046l-.008-.043-.008.043h.016zm.064.046v-.048l-.027.048h-.015l.02-.05c-.06-.02.01-.065.033-.065v.115h-.012zm0-.096v.03-.03z"/><path d="M30.52 10.305h.04v.02h-.03v.027c.04 0 .063.07-.01.07v-.115zm.01.096v-.03.03zm.042-.096h.01v.046c.043 0 .057.07-.01.07v-.115zm.01.096v-.03.03zm.04-.096h.01v.115h-.01v-.115zm.056.073l.01.007-.022.037c-.06 0 .005-.206.022-.086l-.01.006-.024.02.025.016zm.03.042v-.096h-.016v-.02h.042v.02h-.016v.096h-.01zm.033 0v-.115c.06 0 .054.072.01.072v.044h-.01zm.01-.096v.033-.033zm.08.096h-.012l-.005-.026h-.02l-.004.026h-.01l.02-.115h.01l.02.115zm-.02-.046l-.007-.043-.007.043h.014zm.057.046v-.048l-.024.048h-.013l.018-.05.03-.065v.115h-.01zm0-.096v.03-.03z"/></g><g fill="#c3c3c5"><path d="M31.75 9.742l-.015.001-.006-.013-.015-.006-.028.047.065.023c0 .05-.08.067-.08-.017l.077-.035zm-.06.052c0 .083.096-.026.024-.026l-.024.026zm.078-.02c0-.106.107-.064.074.034l-.035.027-.04-.062zm.022.04l.017.01.017-.1-.017-.01-.016.01-.001.08zm-.037.72l-.015.001-.005-.013-.015-.007-.028.047.065.023c0 .05-.08.067-.08-.017s.07-.078.078-.035zm-.06.052c0 .083.095-.026.024-.026l-.024.026zm.078-.02c0-.107.108-.064.074.034l-.035.027-.04-.062zm.022.04l.017.01.017-.1-.017-.01-.016.008-.001.08z"/><path d="M31.748 10.26h-.015l-.005-.013-.015-.007-.028.047.065.023c0 .05-.08.067-.08-.017s.07-.078.078-.035zm-.06.052c0 .083.096-.026.024-.026l-.024.026zm.078-.02c0-.107.107-.064.074.034l-.035.027-.04-.062zm.022.04l.017.01.017-.1-.017-.01-.016.008-.001.08zm.758.218h-.015l-.006-.013-.015-.007-.028.047.065.023c0 .05-.08.067-.08-.017s.07-.078.077-.035zm-.06.052c0 .083.096-.026.024-.026l-.024.026zm.078-.02c0-.107.107-.064.074.034l-.035.027-.04-.062zm.022.04l.017.01.017-.1-.017-.01-.016.008-.001.08z"/><path d="M32.54 10.275l-.015.001-.005-.013-.015-.007-.028.047.065.023c0 .05-.08.067-.08-.017s.07-.078.078-.035zm-.06.052c0 .083.095-.026.024-.026l-.024.026zm.078-.02c0-.107.108-.064.074.034l-.035.027-.04-.062zm.022.04l.017.01.017-.09-.017-.01-.016.008v.08z"/><path d="M32.54 10.017l-.015.001-.005-.013-.015-.006-.028.047.065.023c0 .05-.08.066-.08-.017l.078-.035zm-.06.052c0 .083.096-.026.024-.026l-.024.026zm.078-.02c0-.107.107-.064.074.034l-.035.027-.04-.062zm.022.04l.017.01.017-.09-.017-.01-.016.01v.08z"/><path d="M32.534 9.742l-.015.001-.006-.013-.015-.006-.028.047.065.023c0 .05-.08.066-.08-.017l.077-.035zm-.06.052c0 .083.096-.026.024-.026l-.024.026zm.078-.02c0-.107.107-.064.074.034l-.035.027-.04-.062zm.022.04l.017.01.017-.09-.017-.01-.016.01-.001.08z"/></g><path d="M27.233 9.875l.001-.016.002-.06.05-.008-.002.015-.052.07zm.124.006l-.05-.006V9.79h.02v.076l.03.016zm.05.002c-.06 0-.062-.098.002-.098s.06.098-.002.098zm.001-.082l-.001.066.001-.066zm.14.074l-.02.006-.04-.073v.07h-.017v-.085l.022-.006.04.068V9.8h.017v.085zm.1-.042l-.073.05-.006-.088c0-.013.08-.017.08.04zm-.06-.03v.064c.064 0 .05-.064 0-.064zm.115.08c-.062 0-.06-.098.002-.098s.06.098-.002.098zm.001-.082l-.001.066.001-.066z" fill="#88888a"/></g><path d="M24.083 33.785s-.57.49-1.874.872-.652.134-2.09.172L14.523 35c-9.993-1.183 8.668-1.277 9.56-1.217z" fill="url(#K)"/><path d="M6.274 34.803s-1.402 1.012-1.287 1.53 7.207 2.338 8.21 2.238 1.903-.847 1.865-1.288-5.454-2.092-8.786-2.48z" fill="url(#C)"/><path d="M20.104 33.432a.53.53 0 0 0 .175.199c.1.065.253.06.253.06l.47-.01s.002-.072.1-.123l.182-.075s-1 .035-1.17-.05z" fill="#97989d"/><path d="M21.968 33.67l.058-.086.07-.035s-.136-.042-.127.12z" class="BP"/><g class="BR"><path d="M22.11 33.797l.097-.075c.017-.034 0 .105-.097.075z"/><path d="M22.2 33.634l-.063-.06-.043-.012s.125-.03.106.07z"/></g><path d="M22 33.653l.02.087.1-.002.01-.07-.066-.015.025.057-.1-.057z" class="BP"/><path d="M22.155 33.64l.01.087c-.007.024.1-.055-.01-.087zm-.1.114l.035.02-.035-.02z" class="BS"/><path d="M20.044 25.313l3.857 8.514c.43.205 1.68-1.8 1.725-1.826.24-.08.153-1.026.077-1.098-.975-.916-1.053-6.072-5.66-5.6z" class="BQ"/><path d="M3.186 31.94s1.105-.644 2.757-1.404 4.037-2.213 5.225-3.21 2.574-2.27 3.752-3.762c3.1-3.926 6.12-8.918 7.077-13.87.323-1.672.12-2.902.12-2.902s-.17-.076-.123-.2.218-.266.048-.788-.597-.63-.826-.685-.352-.037.246-.246c2.513-.877 2.373 2.87 2.152 4.327-.114.75-2.318 7.068-4.218 10.488-2.24 4.03-4.898 6.36-8.19 9.3-1.53 1.22-5.015 3.147-4.902 3.05 0 0-2.346 0-3.118-.097z" fill="url(#P)"/><path d="M4.732 31.99l3.662-1.74-2.883 1.78z" fill="#36383b"/><path d="M11.17 34.067l-5.612-.283c-2.175-.237-2.63-.408-2.688-1.016s.086-.874.722-.902 2.185.304 3.8.37l3.6.09s1.512 1.14.19 1.742z" fill="url(#S)"/><path d="M2.942 32.835c1.405.45 7.577 1.535 8.255-.2 0 0 .183.777-.277 1.174-.24.207-8.088.395-7.978-.974z" fill="url(#A)"/><path d="M5.42 30.887S7.18 30.193 8.68 29.3s2.764-1.957 3.45-2.575 2.166-2.004 3.182-3.268 2.926-4.056 3.914-6.013l2.223-4.873c.456-1.435.855-3.192.912-3.857s-.22-.02-.22-.02-.28 2.04-1.34 4.884-3.605 6.95-3.605 6.95l-2.817 3.69c-1.002 1.202-2.34 2.35-3.918 3.586s-3.248 2.09-5.04 3.083z" fill="#545457"/><path d="M10.238 32.316l.67.014c.583.313.405 1.386.05 1.477 4.9.916 7.046.323 11.663.525 1.27.056 2.26-1.355 2.432-2.48l.328-.057v-.926l-.287-.048c.01-.896-.883-3.137-1.503-3.805-.356-.383-10.017 3.67-10.57 3.895-.48.135-.804.443-1.282.475-.285.02-.333.447-.38.503s-.247-.048-.408.02-.086.123-.17.142-.56.076-.54.264z" fill="url(#O)"/><path d="M24.416 29.103c-1.734-1.758-4.26 2.527-2.755 4.736.294.432.93.442.93.442s-.537.033-.98-.354c-1.573-1.37-.633-4.083.767-4.995.613-.4 1.487-.522 2.038.17z" fill="#0f1012"/><path d="M21.947 30.1c-.726 1.17-.784 4.003.955 3.952 1.155-.034 1.964-1.42 2.066-2.45.264-2.647-1.745-3.56-3.02-1.5z" fill="url(#H)"/><path d="M23.407 28.973c-1.426.217-1.966 1.843-2.007 3.08-.026.808.38 1.782 1.22 2.014 1.775.49 3.053-2.82 2.1-4.394-.25-.408-.732-.873-1.256-.705 0 0 .373.026.62.164 1.35.752 1.007 3.486-.12 4.4-2.508 2.034-3.82-3.014-.546-4.56z" fill="url(#D)"/><path d="M23.06 29.95s-.92.404-.92 1.895c0 2.43 2.61 1.407 2.147-1.264-.133-.77-1.083-.807-1.226-.632z" fill="url(#F)"/><path d="M15.367 32.88c-.02 1.687-.19 1.666-1.77 1.454l.437-1.254s.342.03.437 0 .147-.347.147-.347l.748.147z" fill="#141517"/><path d="M20.546 33.264l-4.555-.342c.007 1.532.883 1.423 2.223 1.57l-2.542.03c.4-.33.293-1.26.28-1.75l4.593.49z" fill="#19191b"/><path d="M14.77 31.84s-.024.12.076.138.35-.062.356.176.117.718.117.718l.144-.79 2.674.086 1.443-3.933-.54.138L18 32.007s-1.04.08-3.24-.166z" fill="#0a0b0d"/><path d="M14.353 31.66l.838.42.004.766-.576-.113-.147.404-.373-.03s-.086.622-.252.865-.394.437-.394.437l-.328-.067-1.012-.318.523-.8.477-2.35 1.38.25-.14.532z" fill="url(#J)"/><path d="M14.272 32.1l.323.1-.2.86-.295-.076z" fill="#0a0b0c"/><path d="M12.24 31.753c.743.122.436 1.09.354 1.534l-.482.737-.2-.062.48-1.715h-.546c-.163-.12-.04-.564.385-.494z" fill="#0f0f11"/><path d="M20.192 19.576c-.148 0 2.05-3.97 2.645-5.425l.59-1.454-.975-.001-2.41 5.737V19.8l.148-.225z" class="BQ"/><path d="M11.106 32.3c.435.617.498.753.27 1.525l.214.024c.096-.434.104-.596.104-1.026 0 0 .147.048.152.014.075-.528-.628-.88-.36-.446.114.185-.214-.214-.38-.1z" class="BT"/><path d="M17.263 10.34l-.304 1.705 1.254.228s.157-1.335.328-1.73.55-.73.55-.73.328.3.66.142S21.4 8.187 21.4 8.187l-.2-.318.846-.998-.06-.28.195-.233c.067-.76-.74-1.62-1.59-1.064-.123.08-1.98 2.2-1.98 2.2s.116-1.738.306-2.095 1.506-1.164 1.658-1.107.176.17.294.12.342-.285.437-.556-.147-.5-.556-.632c-.704-.23-2.788 1.285-3.15 1.848-.23.358-1.02 3.817-1.062 4.263-.11 1.2.497.72.718 1.014z" fill="url(#I)"/><path d="M10.357 32.32c.24-.2.44-.26.64.025l-.64-.025z" class="BT"/><path d="M17.994 32.026c-1.142-.066-2.326-.07-3.433-.277-.156-.03-.018-.798-.018-.798l-.147-.073.476-2.23c1.362-.054 2.878-.08 4.2-.323l-1.087 3.702z" fill="url(#L)"/><path d="M14.698 30.034l-.17.803c.247.193.117.438.266.503.12.052.27.03.285-.057.016-.094-.364-.95-.38-1.25z" fill="#abacb0"/><path d="M4.167 31.896s2.892-.615 6.08-2.966 6.355-5.377 7.248-6.67 3.582-5.998 4.223-7.653 1.287-2.94 1.62-4.773.37-3.334.18-3.733.31.352.21 1.682c-.527 6.89-5.428 13.608-9.51 18.866-.988 1.273-2.862 2.203-2.862 2.203-.77.66-4.673 3.342-5.294 3.277 0 0-1.154-.047-1.895-.235z" fill="#424649"/><path d="M17.614 28.69l-.142 1.762.266-1.7z" fill="#b4b6b9"/><path d="M11.988 27.505c-.356.294-.242.49.03.54s1.2.32 1.696.45c1.7.434 5.857-.015 7.392-.657l-.3-.093 1.796-.584c.597-.174.317-1.327.157-1.506-.123-.138-.76-.518-2.707-.618-2.252-.115-6.202.926-8.07 2.47z" fill="#2c020a"/><path d="M11.534 31.062c-.062-.08-.2-2.47-.195-2.575s.632-.456.632-.456l1.667.484-.076.235h-.23l-.067.114-.73-.235-.24.257.212 2.02c.018.026.515-.04.515-.04s.001.623-.058.734c-.075.14-1.276-.336-1.43-.54z" fill="#1e2023"/><path d="M12.527 30.934l.496-.067s.024-.202.062-.21l.083-.02.394-1.883h-.23l-.067.114-.73-.235-.24.257s.093 1.933.23 2.047z" fill="#ecedf1"/><path d="M11.614 31.058c.19-.52.375-.14.42.188 0 0-.385-.095-.42-.188z" fill="#4f4b43"/><g fill="#6c6b70"><path d="M12.93 31.62s-.588-.25-.646-.325-.27-2.396-.26-2.46.468-.42.534-.425.71.455.71.455l-.73-.235-.24.257.208 2.012c-.033.116.446-.015.52-.032l-.007.338c-.49-.073-1.073-.382-.014.205l-.073.2z"/><path d="M11.716 28.232c.01.815.245-.29-.052.508l-.304-.11s.074-.354.356-.4z"/></g><g fill="#b6b6ba"><path d="M11.432 28.45l.21-.02v-.13z"/><path d="M11.343 28.593l.36.11s-.264-.228-.36-.11z"/></g><path d="M17.75 14.55l.46-2.28-1.254-.228-.405 2.277 1.198.23z" fill="url(#Q)"/><path d="M13.143 30.73l2.764-13.37c.433-.035.936.075 1.312.293l-2.85 13.353-1.226-.276z" fill="url(#V)"/><path d="M12.453 34.088l.204-.3c-.044-.09-.21-.1-.302-.13l.04-.06.344.082c.4.117.8-2.438.86-2.714l-.478-.13-.013-.1c.1.02.54.163.572.02.012-.05 3.995-20.346 3.995-20.346-.222.02-.595-.096-.767-.235 0 0 .447-.252.418-.38s-.138.1-.45.12c-.846.05.557-4.37.565-4.38.147-.152.59-.176.598.28.005.235-.665 3.46-.38 3.187.127-.12.554-3.314.732-3.843.185-.55 1.856-1.996 2.332-1.89.3.067.537.176.57.323.002.006-2.378 1.167-2.522 1.596-.133.394-.2.47-.195.27-.018-.736-.73 2.65-.69 2.836.024.11.66.323.73.337s.018-1.002-.001-1.135c-.01-.06 1.524-2.435 2.49-2.39.21.01.726.382.816.524.07.11-2.842 3.35-3.028 3.567 0 0-.05-.375-.135-.427s-.817-.21-.817-.21c-.036.65-.283 1.14-.788 1.55.328.14.69.218 1.045.16l-4.156 20.6s.285.086.323.128-.215.004-.31.02-.45 2.337-.575 2.465-.56.456-.56.456.19.147.197.276c.003.063-.642-.106-.666-.125z" fill="#1a1b1e"/><path d="M12.706 28.398s.183.166.242.123-.18-.17-.242-.123zm.434.055s.35.237.435.16-.435-.16-.435-.16z" fill="#e6e7ec"/><g fill="#060608"><path d="M12.042 31.497l.884.295.04-.192-.562-.174s-.02.128-.36.07z"/><path d="M11.952 31.246c.006-.02.176.147.292.135s.05-.133-.292-.135zm.064-3.15c-.425.193-.56 1.327.558.192l-.558-.192z"/></g><path d="M13.125 28.196l.532.26.03-.22z" fill="#c78f92"/><path d="M12.722 27.676c.27-.127.63-.31.93-.31l.185.1-1.116.21z" fill="#493338"/><path d="M14.983 28.37l.18-.736 1.966-.043s-1.905.54-2.147.78zm2.432-.708s-2.47.64-2.137.76 2.033-.674 2.137-.76z" fill="#3c2225"/><g fill="#814f54"><path d="M15.975 28.55c1.533-.093 2.3-.6 3.6-1.282l.02.898-3.63.385zm3.72-.4l-.005-.94.2-.08.74.627.392.05s-.5.245-1.318.345z"/><path d="M20.022 27.106l.64.54c-.087.124 1.99-.57 2.128-.74.08-.1-.276-.375-.228-.59s-.03-.138-.176-.1-2.266.732-2.365.888z"/></g><path d="M20.813 27.743s.123.067.3.093 2.2-.682 2.305-.72c.257-.103-.008-.55-.347-.537-.114.004-.01.2-.223.35-.3.227-2.03.764-2.026.812z" fill="#6d6d6d"/><path d="M20.817 27.782l1.638-.51.3-.133c.128-.01.233.067.342.014l.26-.084c.196-.045-.108-.144-.227-.116-.692.166-1.65.526-2.303.828z"/><path d="M15.158 27.655l2.176-.14c.655-.076.665-.1 1.078-.394 1.008-.72 2.037-1.223 3.292-1.183.294.01.256-.2.095-.294-.934-.605-5.14-.2-6.33.146l-.3 1.866z" fill="#3b3c41"/><path d="M15.377 27.11c1.08.233 1.624.142 2.54.257.342.043.98-.732 1.016-.812.276-.587-3.262-.664-3.43-.698-.05-.01-.228 1.116-.214 1.188s.086.067.086.067z" fill="#090a0e"/><path d="M16.327 25.753c.72-.093 2.505.293 3.068.727.806-.446 1.286-.706 2.222-.545 0 0-.517-.34-1.405-.5s-3.67.06-3.885.31z" fill="url(#G)"/><path d="M19.775 26.598s1.658-.66 1.79-.546-1.72.565-1.79.546z" fill="#756d74"/><path d="M15.272 27.33l.147.252.076-.147.318.028-.014.1-.57.005z" fill="#555358"/><path d="M15.63 26.156s-.162.584-.123.674c.004.01 1.216.184 1.235.17.306-.21-.994-.202-1.064-.342-.067-.133-.048-.503-.048-.503z" fill="#86898c"/><path d="M18.72 25.406s-.157.223.27.313 1.31.043 1.4-.067.036-.167.036-.167c.245.202-1.366.317-1.708-.08z" fill="#53585d"/><path d="M11.805 27.706s.93-.538 1.06-.538.965.245.965.245l.02-.098s-.733-.076-.62-.204.727-.317.727-.317-.442.022-.636.127-.404.104-.4.014-.955.49-1.117.77z" fill="#b6b5bf"/><path d="M10.463 34.385l-.005-.18-.162-.166s.237.043.35-.08.223-.162.442-.162 2.318.565 2.418.636.427.48.437.556-.147.185-.147.185c.628.094.57 1.098.233 1.36 0 0 .69.21.727.285s.03.945.02.993c-.07.345-1.56.767-1.957.827l-7.833-2.304s-.024-.674.152-.836a10.02 10.02 0 0 1 1.615-.85c.152-.024 2.256.522 2.323.475s.755-.603 1.387-.736z" fill="#252429"/><path d="M8.27 36.095c.005-.282.02-.484.38-.475.185.005 1.698.57 1.64.648s-.21.046-.228.17-.014.195-.057.204-1.68-.442-1.734-.546z" fill="#545557"/><path d="M8.33 35.943c.148.056 1.696.656 1.696.442 0-.052-1.61-.528-1.677-.537s-.07.05-.02.095z" fill="#757877"/><path d="M5.12 36.276c-.034-.328-.16-.788.3-.788.123 0 7.664 2.173 7.664 2.173s-.178.214-.2.333.002.508-.033.534-7.73-2.25-7.73-2.25z" fill="#8d8e89"/><path d="M5.13 35.744l7.752 2.25-.013.434-.02.1-7.73-2.25s-.062-.522.012-.532z" fill="#545659"/><path d="M11.202 36.563l.855.27s-.442-.447-.855-.27z" fill="#808383"/><path d="M12.394 36.882l.76.252s-.565-.318-.76-.252z" fill="#333235"/><g fill="#4f4e4c"><path d="M10.534 34.362c.597.048 1.543.156 1.97.613-.86.325-1.706.77-2.36 1.425l1.282-.77c.237-.104-.02.104.128.166s.347.1.347.1c.355-.207.604-.683.836-1.03.038-.057-1.824-.755-2.204-.494z"/><path d="M12.577 35.335c.565-.36.623.007.78-.095.426-.278.758-.794-.044-.88-.187-.02-.785.804-.735.974z"/><path d="M12.29 36.668s1.126-1.21 1.24-1.206-.05-.264.17-.257.47.323.484.437-.132-.154-.38-.17-.684.803-.684.803-.233-.11-.83.394z"/></g><path d="M13.287 36.112s.195.328.413.328c.265 0 .592-.754.047-.96 0 0-.418.295-.46.632z" fill="url(#M)"/><path d="M13.607 35.74s.128-.162.228-.126-.228.126-.228.126zm.08.294s-.012.27.107.152-.107-.152-.107-.152z" fill="#5b5a5b"/><path d="M13.695 35.894s.112.1.164.195c.052.095.074-.397-.164-.195z" fill="#252527"/><path d="M13.01 38.494c-.046-.925.356-.976 1.126-1.44l.1.993s-.722.418-1.216.447z" fill="#3f3f41"/><path d="M14.268 36.974l.043.74.394-.27.005.394s.143-.855.048-1.02-.49.157-.49.157z" fill="#65686d"/><path d="M14.175 36.66c-.2.196-.26.35.093.314 0 0 .157-.133.32-.2s-.413-.123-.413-.123z" fill="#384043"/><path d="M3.9 31.547c-1.094.38-.334.486.335.457 0 0-.817-.09-.335-.457z" fill="#737678"/><path d="M15.8 17.36s.54-.015.91.08.383.214.492.214.197-.036.35-.665.382-2.14.382-2.297-.684-.294-1.026-.345-.627-.075-.73.324-.556 2.58-.378 2.688z" fill="#111214"/><path d="M15.816 17.26s.294.074.451.076c.157.002.071-.703.04-.736-.031-.033-.247-.083-.314-.045-.067.038-.245.57-.178.705z" fill="#8d8d8b"/><path d="M15.944 16.457s.5.015.525-.012-.347-.114-.337-.17l.392-.107-.33-.164c-.02-.078.378-.014.363-.116s-.36-.102-.316-.202l.354-.088-.292-.15c.08-.078.5-.036.36-.13s-.468-.076-.304-.147.41.007.33-.112-.506-.102-.273-.176.4.052.347-.1-.354-.188-.404-.07c-.185.44-.278 1.516-.413 1.734z" fill="#93928e"/><path d="M16.835 17.393s.36.2.406.162c.012-.007.718-2.645.5-2.88-.06-.064-.142-.12-.254-.017s-.65 2.736-.65 2.736z" fill="#676662"/><g fill="#2d251e"><path d="M19.1 9.812c.276.237.666.26.92-.02l-.546-.432c.794-.686 1.292-1.258 2-2.066-.546.495-2.338 2.222-2.65 2.76-.356.613.285-.24.285-.24zm1.832-3.047c.305.526.425.493.1-.095l-.1.095z"/><path d="M21.16 6.527l.3.613c.024.052.603-.684.68-.817s-.222-.698-.222-.698l-.766.902zM17.564 10.2a2.62 2.62 0 0 0 .48-.912l.633-3.87-.617 3.302c-.06.45-.23 1.316-.703 1.5l.207-.03zm.408-5.528c-.015-.016.28.074.325-.123s-.026-.1-.325.123z"/></g><path d="M16.61 14.33l.815-3.9c.054-.04-.172-.03-.172-.03l-.75 3.93.108.002z" fill="#333536"/><path d="M16.915 9.147s-.123.425-.062.527.4-.21.4-.21l-.337-.318z" fill="#8d8c8a"/><path d="M17.32 6.813s-.052-.278.097-.397.387-.083.323.26-.1.152-.095.323-.088.427-.26.444-.287-.31-.067-.632z" fill="#798789"/><path d="M17.72 5.753s-.214.02-.26.22c-.115.49.764.18.26-.22z" fill="#8a2427"/><path d="M21.963 5.7c.778-.44 1.16-.334 1.628.43-.17-1.156-1.666-1.83-2.58-1.032 0 0 .837.165.95.602z" fill="#424649"/><path d="M21.976 6.65s.285.237.218 1.188L22.07 9.13s1.073-3.6-.095-2.48z" fill="#adadad"/><path d="M24.874 8.707l-.084.305-1.15.001.034-.304z" class="BQ"/><path d="M24.948 8.463l-.074.244-1.202.002.02-.242z" fill="#c7c7c7"/><path d="M24.982 8.348l-.034.115-1.255.003.008-.118z" class="BQ"/></svg>