<svg width="37" height="37" viewBox="0 0 37 37" fill="none" xmlns="http://www.w3.org/2000/svg">
<g clip-path="url(#clip0)">
<path fill-rule="evenodd" clip-rule="evenodd" d="M4.02919 31.1069H4.02936L4.01861 31.11L4.02919 31.1069ZM2.65893 31.1306L2.60686 31.1166H2.60703L2.65893 31.1306ZM5.24018 31.3512C5.34858 31.4065 5.40867 31.468 5.40867 31.533C5.40867 31.7909 4.46517 32.0082 3.3013 32.0185C2.13759 32.0286 1.19409 31.8278 1.19409 31.5699C1.19409 31.4995 1.26425 31.4323 1.39006 31.3713C1.9295 31.7571 2.58911 31.9838 3.3013 31.9838C4.02577 31.9838 4.69563 31.7491 5.24018 31.3512Z" fill="white"/>
<path fill-rule="evenodd" clip-rule="evenodd" d="M4.70947 20.7575C3.13146 20.7575 1.85236 22.2682 1.85236 24.1318C1.85236 24.7606 1.99814 25.349 2.25164 25.8531C2.37267 25.8073 2.49746 25.7693 2.62532 25.7394C2.40562 25.2614 2.28083 24.7138 2.28083 24.1318C2.28083 22.3534 3.4459 20.8963 4.92371 20.7669C4.85304 20.7607 4.78151 20.7575 4.70947 20.7575ZM2.48585 26.2503C2.78049 26.681 3.16287 27.0243 3.60073 27.2425H4.02938C3.56011 27.0091 3.15502 26.6318 2.85304 26.1576C2.72723 26.1796 2.60466 26.2109 2.48585 26.2503ZM4.16714 27.4453C4.3428 27.4852 4.52409 27.506 4.70947 27.506C4.78151 27.506 4.85304 27.503 4.92371 27.4966C4.65246 27.4729 4.39179 27.4043 4.147 27.2973C4.15382 27.314 4.15877 27.3353 4.16219 27.3611C4.16526 27.3841 4.1668 27.4121 4.16714 27.4453Z" fill="white"/>
<path fill-rule="evenodd" clip-rule="evenodd" d="M5.13794 21.5787C3.9546 21.5787 2.99506 22.7218 2.99506 24.1318C2.99506 24.7071 3.15484 25.2378 3.42438 25.6648C4.25095 25.6984 4.99096 26.07 5.51127 26.646C6.51674 26.4355 7.28082 25.3899 7.28082 24.1318C7.28082 22.7218 6.32128 21.5787 5.13794 21.5787ZM6.01076 24.6562C6.00103 24.7858 5.97508 24.9041 5.93275 25.012C5.89024 25.1197 5.8322 25.2122 5.7576 25.2914C5.68249 25.3705 5.59065 25.4314 5.48157 25.476C5.373 25.5204 5.23422 25.5422 5.06624 25.5422H4.48498C4.44367 25.5422 4.41175 25.5279 4.38819 25.4994C4.36481 25.4707 4.35576 25.4217 4.36105 25.3524L4.54832 22.8688C4.5531 22.8039 4.56948 22.7573 4.59714 22.7286C4.62496 22.7001 4.6574 22.6858 4.69512 22.6858H5.94299C5.95409 22.6858 5.96365 22.6895 5.97184 22.697C5.98003 22.7039 5.98601 22.7167 5.99113 22.7354C5.99608 22.7535 5.99898 22.7769 5.99967 22.8063C6.00035 22.8348 5.99881 22.871 5.99557 22.9147C5.9925 22.9562 5.98857 22.9908 5.98362 23.0202C5.9785 23.0489 5.97201 23.0721 5.96433 23.0902C5.95648 23.1091 5.94845 23.1219 5.93924 23.1301C5.92985 23.1385 5.92029 23.1422 5.90987 23.1422H4.97406L4.92046 23.8519H5.28782C5.42968 23.8519 5.54576 23.8691 5.63555 23.9044C5.72466 23.94 5.79909 23.9927 5.8573 24.062C5.91602 24.1313 5.95853 24.2156 5.98516 24.3158C6.01196 24.4161 6.02032 24.5297 6.01076 24.6562ZM5.55463 24.6933C5.55924 24.6306 5.55549 24.5734 5.54354 24.5231C5.53108 24.4717 5.5111 24.4289 5.48311 24.3927C5.45494 24.3565 5.41704 24.3287 5.3701 24.3099C5.32281 24.2909 5.25897 24.2812 5.17754 24.2812H4.88819L4.82606 25.1038H5.12087C5.1941 25.1038 5.25521 25.0948 5.30352 25.0774C5.35252 25.0594 5.39417 25.033 5.42865 24.9983C5.4633 24.963 5.49164 24.9193 5.514 24.8681C5.53603 24.816 5.54968 24.758 5.55463 24.6933ZM3.85747 26.1789C4.15279 26.4417 4.50701 26.6154 4.89212 26.668C4.5939 26.4335 4.2419 26.2634 3.85747 26.1789Z" fill="white"/>
<path fill-rule="evenodd" clip-rule="evenodd" d="M5.97046 32.0188H15.7014V19.7022H5.12769V26.2896C5.8327 26.8389 6.28661 27.6986 6.28661 28.6649C6.28661 29.6313 5.8327 30.491 5.12769 31.0403V31.1762C5.12769 31.6397 5.50683 32.0188 5.97046 32.0188ZM19.5823 32.0188H24.5082C24.3134 31.4654 24.1982 30.7785 24.1982 30.0345C24.1982 28.2141 24.8884 26.7365 25.7434 26.7163V26.7158H25.761H26.5621H26.5686H26.7267V26.7325C27.5155 26.9009 28.1314 28.315 28.1314 30.0345C28.1314 30.7785 28.0162 31.4654 27.8214 32.0188H29.2905C29.7542 32.0188 30.1333 31.6397 30.1333 31.1762V19.7022H19.5823V32.0188ZM5.12769 26.8782V30.4517C5.58364 29.992 5.86514 29.3613 5.86514 28.6649C5.86514 27.9686 5.58364 27.3379 5.12769 26.8782Z" fill="white"/>
<path fill-rule="evenodd" clip-rule="evenodd" d="M4.98704 12.7728H15.7014V18.5325H4.14426V13.6156C4.14426 13.152 4.5234 12.7728 4.98704 12.7728ZM19.5823 12.7728H30.274C30.7378 12.7728 31.1168 13.152 31.1168 13.6156V18.5325H19.5823V12.7728Z" fill="white"/>
<path fill-rule="evenodd" clip-rule="evenodd" d="M15.6487 12.7728H10.6065C10.6065 12.7728 7.93753 12.3514 6.39212 11.6489C4.84671 10.9466 4.84671 10.9466 4.84671 10.9466C5.59594 10.4316 6.34517 9.9164 7.09441 9.40138C7.09441 9.40138 8.49932 10.8061 9.76358 11.2274C11.028 11.6489 11.7303 11.6489 11.7303 11.6489C11.7303 11.6489 9.3421 10.3847 8.49932 8.69875C7.65637 7.01302 7.93753 6.02958 8.49932 5.32729C9.06112 4.62484 10.1849 4.20336 11.5898 4.06287C12.9947 3.92255 13.978 4.90582 14.54 5.88926C15.1019 6.8727 14.9614 8.13696 15.2424 9.40138C15.5234 10.6656 15.6639 10.8061 15.6639 10.8061C15.6639 10.8061 15.9445 10.1038 17.0686 9.82286C18.1926 9.5417 19.0353 10.1035 19.3163 10.3847C19.5973 10.6656 19.5973 10.6656 19.5973 10.6656C19.5973 10.6656 20.0188 8.83958 20.2998 7.29418C20.5807 5.74877 21.4234 4.34385 22.9688 4.06287C24.5142 3.78206 26.1999 4.48434 26.7619 5.32729C27.3238 6.17024 27.6047 7.4345 26.7619 8.69875C25.9189 9.96318 25.076 10.6656 25.076 10.6656C25.076 10.6656 23.8119 11.6489 23.6714 11.6489C23.5307 11.6489 25.2166 11.5086 26.4809 10.6656C27.7453 9.82286 28.1666 9.40138 28.1666 9.40138L30.274 10.9466C30.274 10.9466 29.1501 11.6489 27.7453 12.0704C26.3404 12.4919 24.7318 12.7728 24.7318 12.7728H15.6487ZM20.2998 11.6489C20.2998 11.6489 23.1093 10.8063 24.2332 9.40138C25.3571 7.99646 25.6381 7.4345 25.6381 7.4345C25.6381 7.4345 24.9355 7.01302 23.8117 7.01302C22.688 7.01302 21.9855 7.01302 21.4235 8.27745C20.8616 9.5417 21.283 9.96318 20.2998 11.6489ZM9.62309 7.29418C9.62309 7.29418 10.4662 6.87253 11.8708 7.01302C13.2755 7.15351 13.8373 7.85597 14.1185 9.12023C14.3995 10.3847 14.3995 10.5253 14.6804 11.0871C14.9613 11.6489 14.9613 11.6489 14.9613 11.6489C14.9613 11.6489 12.9945 11.2274 11.5898 9.96318C10.1851 8.69875 9.62309 7.29418 9.62309 7.29418Z" fill="white"/>
<path fill-rule="evenodd" clip-rule="evenodd" d="M21.845 6.73221C21.845 6.73221 22.407 5.60827 24.3737 5.88926C26.3404 6.17024 25.6381 7.4345 25.6381 7.4345C25.6381 7.4345 24.9355 7.01302 23.8117 7.01302C22.6879 7.01302 21.9855 7.01302 21.4235 8.27744C20.8616 9.5417 21.283 9.96317 20.2998 11.6489C20.2998 11.6489 20.5807 7.85597 21.845 6.73221Z" fill="white"/>
<path fill-rule="evenodd" clip-rule="evenodd" d="M12.7137 6.45123C12.7137 6.45123 10.3254 5.74877 9.90405 6.59155C9.48257 7.4345 9.62306 7.29418 9.62306 7.29418C9.62306 7.29418 10.4662 6.87253 11.8708 7.01302C13.2755 7.15352 13.8373 7.85597 14.1185 9.12023C14.3994 10.3847 14.3994 10.5253 14.6804 11.0871C14.9612 11.6489 14.9612 11.6489 14.9612 11.6489C14.9612 11.6489 15.2424 7.71565 12.7137 6.45123Z" fill="white"/>
<path fill-rule="evenodd" clip-rule="evenodd" d="M6.47679 9.82593C6.47679 9.82593 7.37556 11.2274 8.9208 11.7896C10.466 12.3515 12.133 12.7728 12.133 12.7728H10.6065C10.6065 12.7728 7.93753 12.3514 6.39212 11.6489C4.84671 10.9466 4.84671 10.9466 4.84671 10.9466L6.47662 9.82593H6.47679Z" fill="white"/>
<path fill-rule="evenodd" clip-rule="evenodd" d="M29.2204 10.174C29.2204 10.174 28.8759 10.8421 26.9024 11.7896C24.9597 12.7221 23.6569 12.7716 23.6168 12.7728H23.6158H24.7318C24.7318 12.7728 26.3404 12.4919 27.7453 12.0704C29.1501 11.6489 30.274 10.9466 30.274 10.9466L29.2206 10.174H29.2204Z" fill="white"/>
<path fill-rule="evenodd" clip-rule="evenodd" d="M11.8846 12.7728H24.7318C24.7318 12.7728 17.4899 11.7896 11.8846 12.7728Z" fill="white"/>
<path fill-rule="evenodd" clip-rule="evenodd" d="M34.0789 31.7138C35.0348 31.8551 35.7526 32.0849 35.7526 32.2653C35.7526 32.4722 34.8093 32.5354 33.6454 32.4067C32.4817 32.278 31.5382 32.0062 31.5382 31.7993C31.5382 31.7394 31.6173 31.6916 31.7576 31.6569C32.1249 31.8648 32.5365 31.9814 32.9711 31.9814C33.3644 31.9814 33.739 31.886 34.0789 31.7138Z" fill="white"/>
<path fill-rule="evenodd" clip-rule="evenodd" d="M3.3013 25.3461C5.12462 25.3461 6.60276 26.8319 6.60276 28.665C6.60276 30.498 5.12462 31.9838 3.3013 31.9838C1.47815 31.9838 0 30.498 0 28.665C0 26.8319 1.47815 25.3461 3.3013 25.3461ZM4.35422 29.1808C4.35422 29.3083 4.33254 29.4246 4.28884 29.5306C4.24513 29.6366 4.17992 29.7276 4.09252 29.8054C4.00444 29.8833 3.89314 29.9434 3.75845 29.9871C3.62427 30.0308 3.44947 30.0523 3.23523 30.0523H2.49437C2.44179 30.0523 2.39945 30.0381 2.36685 30.01C2.33424 29.9818 2.31803 29.9336 2.31803 29.8655V27.4225C2.31803 27.3589 2.33424 27.313 2.36685 27.2848C2.39945 27.2566 2.43957 27.2425 2.48771 27.2425H4.07852C4.09252 27.2425 4.10515 27.2462 4.11625 27.2537C4.12735 27.2604 4.13622 27.273 4.14442 27.2914C4.15261 27.3092 4.15842 27.3322 4.16217 27.3611C4.16593 27.3893 4.16729 27.4248 4.16729 27.4678C4.16729 27.5086 4.16593 27.5426 4.16217 27.5716C4.15842 27.5997 4.15261 27.6226 4.14442 27.6404C4.13622 27.659 4.12735 27.6716 4.11625 27.6796C4.10515 27.6878 4.0932 27.6916 4.07989 27.6916H2.88699V28.3896H3.35541C3.53619 28.3896 3.68573 28.4065 3.80352 28.4413C3.92062 28.4763 4.02065 28.528 4.1014 28.5963C4.183 28.6644 4.24513 28.7474 4.28884 28.8459C4.33254 28.9446 4.35422 29.0564 4.35422 29.1808ZM3.7762 29.2172C3.7762 29.1556 3.76579 29.0994 3.74582 29.0497C3.72499 28.9994 3.69546 28.957 3.6562 28.9215C3.61693 28.886 3.56572 28.8585 3.50427 28.8401C3.44196 28.8215 3.35968 28.8119 3.25606 28.8119H2.88699V29.6209H3.26272C3.35609 29.6209 3.43308 29.612 3.49317 29.595C3.55394 29.5772 3.6043 29.5513 3.6451 29.5173C3.68573 29.4825 3.71765 29.4395 3.74138 29.3891C3.76425 29.3379 3.7762 29.2809 3.7762 29.2172ZM3.3013 25.662C4.95015 25.662 6.28662 27.0065 6.28662 28.665C6.28662 30.3234 4.95015 31.6679 3.3013 31.6679C1.65261 31.6679 0.316149 30.3234 0.316149 28.665C0.316149 27.0065 1.65261 25.662 3.3013 25.662ZM3.3013 26.1187C4.71731 26.1187 5.86514 27.2587 5.86514 28.665C5.86514 30.0712 4.71731 31.2112 3.3013 31.2112C1.88546 31.2112 0.737624 30.0712 0.737624 28.665C0.737624 27.2587 1.88546 26.1187 3.3013 26.1187Z" fill="white"/>
<path fill-rule="evenodd" clip-rule="evenodd" d="M33.393 25.3375C34.9462 25.3375 36.2054 26.8247 36.2054 28.6595C36.2054 30.4941 34.9462 31.9815 33.393 31.9815C33.3221 31.9815 33.2518 31.9782 33.1821 31.9722L33.1876 31.9717L33.2501 31.9652L33.2991 31.9589L33.3221 31.9558L33.3645 31.949L33.3892 31.9449L33.4249 31.9383L33.4623 31.9309L33.4855 31.9258L33.5285 31.9161L33.5623 31.9077L33.5915 31.9002L33.6268 31.8905L33.6634 31.8799L33.6941 31.8703L33.7212 31.8618L33.7608 31.8485L33.7902 31.8382L33.8254 31.8253L33.8556 31.8136L33.8844 31.8022L33.9211 31.7868L33.9507 31.7742L33.9828 31.7599L34.0135 31.7457L34.0387 31.7334L34.0813 31.7126L34.093 31.7064L34.1369 31.6834L34.1434 31.68L34.1903 31.6539L34.2023 31.647L34.2515 31.618L34.2603 31.6126L34.3117 31.5805L34.3177 31.5765L34.3213 31.5741L34.3742 31.539L34.4295 31.5006L34.43 31.5001L34.485 31.4596L34.487 31.4581L34.5389 31.4176L34.5435 31.414L34.5922 31.3744L34.5992 31.3686L34.6444 31.3297L34.6538 31.3215L34.6958 31.2836L34.7074 31.2728L34.7462 31.2361L34.7508 31.2315L34.7834 31.1996L34.8018 31.181L34.8259 31.1563L34.8554 31.1252L34.872 31.1074L34.9049 31.0712L34.922 31.0518L34.9483 31.0216L34.9734 30.9919L34.9937 30.9675L35.0201 30.9347L35.0379 30.9121L35.0615 30.8818L35.085 30.8502L35.1091 30.8174L35.1238 30.7969L35.148 30.7626L35.1659 30.7363L35.1934 30.6955L35.2014 30.6831L35.2313 30.6361L35.234 30.632L35.2646 30.5825L35.2719 30.5702L35.3032 30.5168L35.3085 30.5074L35.3141 30.4972L35.3438 30.4434L35.3762 30.3821L35.3781 30.3785L35.4109 30.313V30.3126L35.4426 30.2457L35.444 30.243L35.473 30.1779L35.4758 30.1718L35.5022 30.1091L35.5027 30.1078L35.5244 30.0535L35.5311 30.0366L35.5469 29.9941L35.5563 29.9692L35.5623 29.9526L35.5707 29.9282L35.5852 29.8865L35.5958 29.8541L35.6089 29.8135L35.6186 29.7819L35.6333 29.7326L35.6384 29.7141L35.6545 29.6561L35.6605 29.6329L35.6733 29.5823L35.6794 29.5567L35.6932 29.4966L35.6961 29.4828L35.7081 29.4253L35.7141 29.3952L35.7231 29.3459L35.7277 29.3194L35.7352 29.2739L35.7422 29.2285L35.7433 29.2213L35.7509 29.1653L35.752 29.1564L35.7569 29.1151L35.7624 29.067L35.7639 29.0511L35.7699 28.9862L35.7701 28.9838L35.7752 28.915L35.7759 28.9034L35.7765 28.8896L35.78 28.8227L35.7825 28.7452V28.7413L35.7834 28.6595L35.7825 28.5777V28.5738L35.78 28.4963L35.7767 28.4313L35.7759 28.4154L35.7752 28.4039L35.7701 28.3352L35.7699 28.3328L35.7636 28.2653L35.7624 28.2529L35.7566 28.2011L35.7521 28.1639L35.7509 28.1535L35.7433 28.0977L35.7422 28.0909L35.7352 28.0451L35.7277 27.9995L35.7231 27.9731L35.7141 27.9237L35.7079 27.8932L35.6968 27.8391L35.6924 27.8186L35.6799 27.7643L35.6731 27.7361L35.66 27.6839L35.6547 27.6636L35.6396 27.609L35.6323 27.583L35.6183 27.5361L35.6096 27.5079L35.5959 27.4654L35.5843 27.4299L35.5814 27.4212L35.5623 27.3664L35.5563 27.3498L35.549 27.3302L35.5299 27.2793L35.5061 27.2192L35.5022 27.2097L35.4758 27.1472L35.473 27.1409L35.444 27.076L35.4426 27.0731L35.4109 27.0062V27.0059L35.3781 26.9403L35.3762 26.9369L35.3438 26.8754L35.3404 26.869L35.3085 26.8116L35.2859 26.7727L35.2668 26.7402L35.2646 26.7365L35.234 26.6868L35.2246 26.672L35.1951 26.626L35.1926 26.6223L35.1659 26.5825L35.148 26.5562L35.1268 26.5263L35.106 26.4973L35.0853 26.469L35.0637 26.4403L35.0384 26.4075L35.0152 26.378L34.9997 26.3589L34.9689 26.3218L34.9481 26.2971L34.9278 26.2737L34.8996 26.2418L34.8776 26.2175L34.8544 26.1924L34.8259 26.1626L34.8028 26.1388L34.7957 26.1315L34.76 26.0962L34.7552 26.0916L34.7226 26.0605L34.7025 26.0415L34.6721 26.0141L34.6538 25.9975L34.6444 25.9893L34.5992 25.9504L34.5922 25.9446L34.5435 25.9048L34.5389 25.9012L34.487 25.8609L34.485 25.8594L34.43 25.8189L34.4295 25.8184L34.3742 25.7798L34.3709 25.7776L34.3177 25.7423L34.3117 25.7385L34.311 25.738L34.2528 25.7018L34.2515 25.701L34.2023 25.672L34.1903 25.6651L34.1434 25.639L34.1362 25.6353L34.1082 25.6204L34.0749 25.6032L34.043 25.5875L34.0135 25.5733L33.9828 25.5591L33.9507 25.5448L33.9175 25.5304L33.8896 25.5188L33.8554 25.5052L33.8197 25.4915L33.7931 25.4818L33.7581 25.4695L33.7286 25.4596L33.6839 25.4454L33.6661 25.44L33.6268 25.4285L33.5915 25.4188L33.5623 25.4113L33.5285 25.4029L33.4855 25.3932L33.4623 25.3881L33.4249 25.3807L33.3892 25.3741L33.3645 25.37L33.3221 25.3631L33.2991 25.3601L33.2501 25.3538L33.1876 25.3473L33.1821 25.3468C33.2518 25.3406 33.3221 25.3375 33.393 25.3375Z" fill="white"/>
<path fill-rule="evenodd" clip-rule="evenodd" d="M32.9712 26.146C34.1361 26.146 35.0804 27.2713 35.0804 28.6593C35.0804 30.0475 34.1361 31.1728 32.9712 31.1728C31.8064 31.1728 30.8621 30.0475 30.8621 28.6593C30.8621 27.2713 31.8064 26.146 32.9712 26.146ZM33.733 29.1759C33.7235 29.3034 33.698 29.4198 33.6564 29.5258C33.6147 29.632 33.5575 29.7232 33.4841 29.801C33.4102 29.8788 33.3199 29.9389 33.2125 29.9826C33.1058 30.0265 32.9693 30.048 32.804 30.048H32.2322C32.1917 30.048 32.1601 30.0338 32.1371 30.0057C32.114 29.9775 32.105 29.9294 32.1103 29.8611L32.2945 27.4159C32.2993 27.3522 32.3153 27.3063 32.3426 27.278C32.3699 27.2498 32.4018 27.2358 32.4389 27.2358H33.6666C33.6774 27.2358 33.6869 27.2395 33.6949 27.2469C33.703 27.2535 33.7089 27.2662 33.7137 27.2848C33.7187 27.3025 33.7216 27.3254 33.7223 27.3544C33.7229 27.3826 33.7214 27.4183 33.7182 27.4611C33.7151 27.5019 33.7113 27.5361 33.7064 27.5651C33.7014 27.5932 33.6951 27.6161 33.6874 27.634C33.6798 27.6525 33.6719 27.6651 33.6627 27.6733C33.6535 27.6815 33.6441 27.6853 33.6338 27.6853H32.7132L32.6606 28.3838H33.022C33.1615 28.3838 33.2757 28.4009 33.364 28.4357C33.4517 28.4705 33.5249 28.5224 33.5823 28.5907C33.64 28.659 33.6816 28.7419 33.7081 28.8406C33.7344 28.9393 33.7424 29.0513 33.733 29.1759ZM33.2844 29.2122C33.289 29.1506 33.2853 29.0943 33.2735 29.0446C33.2614 28.9941 33.2417 28.9519 33.2141 28.9162C33.1864 28.8807 33.149 28.8532 33.1029 28.8346C33.0563 28.8162 32.9935 28.8065 32.9136 28.8065H32.6287L32.5678 29.6163H32.8576C32.9297 29.6163 32.9898 29.6074 33.0374 29.5903C33.0857 29.5726 33.1265 29.5466 33.1605 29.5125C33.1946 29.4777 33.2224 29.4347 33.2445 29.3843C33.2661 29.3331 33.2796 29.2759 33.2844 29.2122Z" fill="white"/>
<path fill-rule="evenodd" clip-rule="evenodd" d="M32.9452 26.1492C32.9688 26.1492 32.9921 26.1498 33.0155 26.1508C31.8832 26.195 30.9766 27.3025 30.9766 28.6626C30.9766 30.0226 31.8832 31.1303 33.0155 31.1745C32.9921 31.1754 32.9688 31.176 32.9452 31.176C31.7803 31.176 30.8359 30.0507 30.8359 28.6626C30.8359 27.2745 31.7803 26.1492 32.9452 26.1492Z" fill="white"/>
<path fill-rule="evenodd" clip-rule="evenodd" d="M25.761 27.4884C26.3923 27.4884 26.9024 28.6284 26.9024 30.0345C26.9024 31.4408 26.3923 32.5808 25.761 32.5808C25.1296 32.5808 24.6195 31.4408 24.6195 30.0345C24.6195 28.6284 25.1296 27.4884 25.761 27.4884ZM26.0946 30.5856C26.0946 30.7131 26.0883 30.8293 26.0754 30.9354C26.0626 31.0414 26.0435 31.1323 26.0179 31.2102C25.992 31.288 25.9595 31.3481 25.9199 31.3918C25.8807 31.4355 25.8293 31.457 25.7665 31.457H25.5493C25.5338 31.457 25.5215 31.4429 25.5119 31.4147C25.5024 31.3865 25.4976 31.3384 25.4976 31.2703V28.8275C25.4976 28.7638 25.5024 28.7177 25.5119 28.6897C25.5215 28.6615 25.5331 28.6474 25.5473 28.6474H26.0138C26.0179 28.6474 26.0217 28.6511 26.0249 28.6585C26.0282 28.6651 26.0307 28.6777 26.0331 28.6964C26.0355 28.7141 26.0372 28.737 26.0384 28.766C26.0394 28.794 26.0398 28.8297 26.0398 28.8727C26.0398 28.9133 26.0394 28.9475 26.0384 28.9763C26.0372 29.0045 26.0355 29.0275 26.0331 29.0453C26.0307 29.0637 26.0282 29.0764 26.0249 29.0845C26.0217 29.0927 26.0181 29.0963 26.0142 29.0963H25.6644V29.7943H25.8018C25.8547 29.7943 25.8986 29.8114 25.9332 29.8462C25.9676 29.8811 25.9968 29.9328 26.0205 30.0011C26.0444 30.0692 26.0626 30.1521 26.0754 30.2508C26.0883 30.3493 26.0946 30.4611 26.0946 30.5856ZM25.9251 30.6219C25.9251 30.5605 25.9222 30.5041 25.9162 30.4545C25.9102 30.4041 25.9015 30.3619 25.8899 30.3263C25.8785 30.2908 25.8634 30.2633 25.8453 30.2448C25.8272 30.2262 25.803 30.2167 25.7726 30.2167H25.6644V31.0257H25.7747C25.802 31.0257 25.8245 31.0168 25.8421 30.9997C25.86 30.9821 25.8747 30.9562 25.8866 30.922C25.8986 30.8872 25.908 30.8442 25.915 30.7938C25.9216 30.7428 25.9251 30.6856 25.9251 30.6219Z" fill="white"/>
</g>
<defs>
<clipPath id="clip0">
<rect width="37" height="37" fill="white"/>
</clipPath>
</defs>
</svg>
