<?xml version="1.0" encoding="UTF-8"?>
<!DOCTYPE svg PUBLIC "-//W3C//DTD SVG 1.1//EN" "http://www.w3.org/Graphics/SVG/1.1/DTD/svg11.dtd">
<!-- Creator: CorelDRAW -->
<svg xmlns="http://www.w3.org/2000/svg" xml:space="preserve" width="15mm" height="15mm" style="shape-rendering:geometricPrecision; text-rendering:geometricPrecision; image-rendering:optimizeQuality; fill-rule:evenodd; clip-rule:evenodd"
viewBox="0 0 15 15"
 xmlns:xlink="http://www.w3.org/1999/xlink">
 <defs>
  <style type="text/css">
   <![CDATA[
    .fil0 {fill:#333333}
   ]]>
  </style>
 </defs>
 <g id="Слой_x0020_1">
  <metadata id="CorelCorpID_0Corel-Layer"/>
  <g id="_400051528">
   <path id="_400079440" class="fil0" d="M0.3119 0.4519l14.4714 0 0 10.2395c0,0.5756 -0.4711,1.0467 -1.0469,1.0467l-12.3778 0c-0.5756,0 -1.0467,-0.4711 -1.0467,-1.0467l0 -10.2395zm0.8006 1.7623l13.0249 0.0036 -0.0417 8.1051c-0.0018,0.3957 -0.3252,0.7209 -0.7208,0.7209l-11.5607 0c-0.3957,0 -0.7218,-0.3245 -0.7208,-0.7209l0.0191 -8.1087z"/>
   <path id="_400080640" class="fil0" d="M6.9503 11.5736l-2.6312 2.6225c0,0 -0.1299,0.3029 0.0216,0.4587 0.1515,0.1559 0.2727,0.1385 0.4588,0.0779 0.186,-0.0605 2.4234,-2.3628 2.4234,-2.3628l-0.0044 2.2762c0,0 0.0476,0.1514 0.1645,0.2163 0.1168,0.0649 0.2423,0.0606 0.357,0.0433 0.1147,-0.0173 0.1861,-0.1622 0.1991,-0.2077 0.013,-0.0455 0.013,-0.052 0.013,-0.052l0.0107 -2.3066 2.3802 2.3974c0,0 0.3116,0.0606 0.4457,-0.0562 0.1342,-0.1169 0.1385,-0.2554 0.1342,-0.3203 -0.0043,-0.0649 -0.0303,-0.1687 -0.1125,-0.2682 -0.0822,-0.0996 -2.6354,-2.5707 -2.6354,-2.5707l-1.2247 0.0522z"/>
   <polygon id="_400080328" class="fil0" points="8.4174,5.2291 12.667,5.2291 12.667,5.6835 8.4174,5.6835 "/>
   <polygon id="_400053712" class="fil0" points="8.4174,6.4278 12.667,6.4278 12.667,6.8822 8.4174,6.8822 "/>
   <polygon id="_400056496" class="fil0" points="8.4259,7.6265 11.1046,7.6265 11.1046,8.0896 8.4259,8.0896 "/>
   <path id="_400079104" class="fil0" d="M4.9897 4.1471c1.2584,0 2.2958,0.9424 2.4406,2.1576l-2.5444 0.2919 1.6544 1.9004c-0.423,0.3431 -0.9626,0.5489 -1.5506,0.5489 -1.3575,0 -2.458,-1.0966 -2.458,-2.4494 0,-1.3527 1.1005,-2.4494 2.458,-2.4494z"/>
  </g>
 </g>
</svg>
