<svg xmlns="http://www.w3.org/2000/svg" width="10.837mm" height="10.837mm" viewBox="0 0 10.8372 10.8372" shape-rendering="geometricPrecision" text-rendering="geometricPrecision" image-rendering="optimizeQuality" fill-rule="evenodd" clip-rule="evenodd"><defs><style type="text/css"><![CDATA[
    .fil2 {fill:#E6E6E6}
    .fil1 {fill:#EDDEC5}
    .fil3 {fill:#E55B5B}
    .fil0 {fill:#91948F}
   ]]></style></defs><g id="Слой_x0020_1"><path class="fil0" d="M3.056 7.414l.866 1.27.541-.461-.829-1.18-.578.371zm.986.718c.066 0 .119.053.119.119s-.053.119-.119.119-.119-.053-.119-.119.053-.119.119-.119z"/><path class="fil1" d="M4.437 7.995l.282-.197c.069-.036.164-.056.423-.053.259.003.494.004.708-.013.214-.018.583-.17.836-.258.253-.087.46-.225.553-.292l.493-.413s.105-.102.102-.175c-.002-.074-.026-.123-.111-.13-.085-.007-.197.054-.244.077-.047.023-.393.184-.523.262l-.17.118c-.004.038.002.172-.104.275-.105.103-.316.142-.316.142l-.234.038c-.139.009-.301.011-.399-.011-.098-.022-.407-.053-.49-.057l-.136-.019.11-.016c.064 0 .277.003.521.026s.386.019.516-.007.315-.075.375-.145c.06-.07.07-.158.053-.209-.017-.051-.09-.099-.244-.119-.154-.02-.629-.032-.686-.039l-.374-.139c-.162-.057-.374-.125-.593-.127-.219-.002-.34.051-.438.104-.098.053-.158.107-.197.154l-.145.167-.201.166.631.896z"/><path class="fil2" d="M5.069 4.989l-.001 1.262 1.069-.001-.001-1.149-.276.385-.077-.143-.177.008.258-.361zm1.237.152v1.109h1.069v-1.261h-.827l.233.329-.192.008-.061.122zm-1.383-.723v.466h1.214v-.466zm1.383.001v.465h1.213v-.466z"/><path class="fil3" d="M5.299 3.552s-.117.066-.139.264c-.023.197.098.348.231.429.133.081.53.089.53.089l.528.003s.36-.002.511-.053c.151-.051.236-.139.289-.261.053-.122.032-.305-.025-.387-.057-.082-.127-.129-.293-.139-.166-.01-.276.075-.337.118s-.145.115-.234.227l-.138.214-.139-.213c-.086-.116-.225-.228-.356-.3-.131-.072-.307-.04-.307-.04l-.12.05zm1.078.6s.085-.16.21-.283c.125-.123.19-.169.309-.188.119-.019.177.049.188.08l.001.175c-.028.103-.145.161-.227.182-.082.021-.48.034-.48.034zm-.313.002s-.085-.16-.21-.283c-.125-.124-.19-.169-.309-.188-.119-.019-.177.049-.188.08l-.001.175c.028.103.145.161.227.182.082.021.481.034.481.034z"/></g></svg>