<svg width="27" height="17" viewBox="0 0 27 17" fill="none" xmlns="http://www.w3.org/2000/svg">
<path fill-rule="evenodd" clip-rule="evenodd" d="M4.6023 0H17.6306C18.3278 0 18.8982 0.570405 18.8982 1.26762V11.657C18.2062 12.2014 17.7638 13.0324 17.7638 13.9635C17.7638 14.038 17.7667 14.1119 17.7723 14.1849H11.5047C11.5094 14.1176 11.5121 14.0499 11.5121 13.9815C11.5121 12.3415 10.1405 11.0121 8.44877 11.0121C6.75698 11.0121 5.3856 12.3415 5.3856 13.9815C5.3856 14.0499 5.38821 14.1176 5.39282 14.1849H4.34868C3.65158 14.1849 3.08105 13.6145 3.08105 12.9173V9.88523C3.08105 9.88523 3.10099 9.58365 3.44305 9.5175H8.22143C8.91864 9.5175 9.48905 8.9471 9.48905 8.24988V8.0193C9.48905 7.32209 8.91864 6.75168 8.22143 6.75168H3.47208H3.44654C3.40406 6.74969 3.31263 6.73736 3.206 6.67432C3.11033 6.61777 3.08629 6.49544 3.08105 6.41646V6.34347V6.25403V6.01024V5.97188C3.08741 5.88306 3.14135 5.67042 3.51456 5.67042H10.4305C11.1278 5.67042 11.6983 5.10001 11.6983 4.40279V4.17209C11.6983 3.475 11.1278 2.90447 10.4305 2.90447H3.40942H3.35449C3.30976 2.89899 3.24337 2.87893 3.17697 2.81503C3.13038 2.77043 3.10036 2.68249 3.08105 2.59304V1.52112C3.08105 0.684511 3.76557 0 4.6023 0Z" fill="#695EAE"/>
<path fill-rule="evenodd" clip-rule="evenodd" d="M2.20877 3.51709H10.5184C10.8438 3.51709 11.11 3.7833 11.11 4.10867V4.50867C11.11 4.83404 10.8438 5.10025 10.5184 5.10025H2.20877C1.88352 5.10025 1.61731 4.83404 1.61731 4.50867V4.10867C1.61731 3.7833 1.88352 3.51709 2.20877 3.51709Z" fill="#695EAE"/>
<path fill-rule="evenodd" clip-rule="evenodd" d="M0.679472 7.3418H8.33005C8.65543 7.3418 8.92163 7.608 8.92163 7.93338V8.33325C8.92163 8.65862 8.65543 8.92483 8.33005 8.92483H0.679472C0.354096 8.92483 0.0878906 8.65862 0.0878906 8.33325V7.93338C0.0878906 7.608 0.354096 7.3418 0.679472 7.3418Z" fill="#695EAE"/>
<path fill-rule="evenodd" clip-rule="evenodd" d="M17.506 14.1849L17.7724 14.1854C17.7668 14.1121 17.7639 14.0381 17.7639 13.9635C17.7639 12.3237 19.1353 10.9941 20.8272 10.9941C22.519 10.9941 23.8904 12.3237 23.8904 13.9635C23.8904 14.042 23.8872 14.1196 23.881 14.1965L24.2765 14.1972H25.6539C25.6539 14.1972 26.2665 14.139 26.602 13.6248C26.9373 13.1106 26.8658 12.073 26.8658 12.073V9.86841C26.8658 9.86841 26.8569 8.98745 26.5348 8.53576C26.2128 8.08407 25.8954 8.05729 25.3588 7.93197C24.8221 7.80678 24.2765 7.63686 23.9367 7.2076C23.5967 6.77833 22.5906 4.56024 22.5906 4.56024C22.5906 4.56024 22.1232 3.99444 21.7856 3.80672C21.448 3.61887 20.8442 3.48695 20.6586 3.47798C20.4732 3.46901 19.041 3.46901 19.041 3.46901C19.041 3.46901 18.9068 3.41432 18.8621 3.13703C18.8174 2.85974 16.8787 8.99966 16.8072 10.5559C16.7356 12.1122 17.506 14.1849 17.506 14.1849ZM19.459 4.40253C19.459 4.40253 20.1074 4.38472 20.3892 4.41599C20.6708 4.44726 21.3059 4.69777 21.6547 5.10025C22.0035 5.50261 22.5222 6.74582 22.7727 7.17969C23.0231 7.61345 23.1305 7.73415 23.0723 7.79233C23.0141 7.85038 23.1125 7.84589 22.5267 7.84589C21.941 7.84589 19.0521 7.83705 19.0521 7.83705C19.0521 7.83705 18.9312 7.85274 18.9312 7.42335C18.9312 6.99408 18.9324 4.50767 18.9324 4.50767C18.9324 4.50767 18.9357 4.41711 19.459 4.40253Z" fill="#695EAE"/>
<path fill-rule="evenodd" clip-rule="evenodd" d="M8.45768 11.674C9.76915 11.674 10.8322 12.731 10.8322 14.0352C10.8322 15.3392 9.76915 16.3963 8.45768 16.3963C7.14621 16.3963 6.08313 15.3392 6.08313 14.0352C6.08313 12.731 7.14621 11.674 8.45768 11.674ZM8.47113 13.0197C9.02684 13.0197 9.47728 13.4676 9.47728 14.0202C9.47728 14.5728 9.02684 15.0208 8.47113 15.0208C7.91543 15.0208 7.46486 14.5728 7.46486 14.0202C7.46486 13.4676 7.91543 13.0197 8.47113 13.0197Z" fill="#695EAE"/>
<path fill-rule="evenodd" clip-rule="evenodd" d="M20.8315 11.6888C22.1429 11.6888 23.206 12.7459 23.206 14.0499C23.206 15.3541 22.1429 16.4112 20.8315 16.4112C19.52 16.4112 18.4569 15.3541 18.4569 14.0499C18.4569 12.7459 19.52 11.6888 20.8315 11.6888ZM20.8449 13.0346C21.4006 13.0346 21.8511 13.4825 21.8511 14.0351C21.8511 14.5876 21.4006 15.0355 20.8449 15.0355C20.2892 15.0355 19.8388 14.5876 19.8388 14.0351C19.8388 13.4825 20.2892 13.0346 20.8449 13.0346Z" fill="#695EAE"/>
</svg>
