<svg xmlns="http://www.w3.org/2000/svg" width="10.837mm" height="10.837mm" viewBox="0 0 10.8372 10.8372" shape-rendering="geometricPrecision" text-rendering="geometricPrecision" image-rendering="optimizeQuality" fill-rule="evenodd" clip-rule="evenodd"><defs><style type="text/css"><![CDATA[
    .fil1 {fill:#027CBA}
    .fil3 {fill:#4D4D4D}
    .fil2 {fill:#666666}
    .fil0 {fill:#ED8290}
   ]]></style></defs><g id="Слой_x0020_1"><path class="fil0" d="M4.988 3.438s.147.017.308-.085c.161-.102.199-.178.234-.197l.183.002c.055.013.343.114.579.334l.278.299c-.27 0-.388-.094-.568-.034-.204.068-.916.758-.933.905-.014.121.768.609 1.046.779l-.002.858-.547.547-.077-.014-.27-.101c-.126-.059-.14-.112-.412-.158-.272-.047-.494-.011-.494-.011l-.208.048-.106.034-.065-.077.005-.158.043-1.632-.369.259-.055.003c-.03-.011-.5-.607-.5-.607l.005-.066c.021-.045.19-.299.403-.552.213-.253.533-.466.533-.466s.141-.086.282-.115l.19-.014.16.119.228.091.128.013z"/><path class="fil1" d="M5.532 7.194l.292.004.475-.523h.864l.364.471.093-.018.109-.111-.369-.423 1.12-1.534.009-.552.351-.367c.045-.048-.093-.138-.093-.138s-3.133 2.993-3.215 3.19zm-.237-2.564l1.283.971s.027.088.124.032c.097-.057 1.303-1.294 1.303-1.294s-.014-.061-.152-.163c-.138-.102-.538-.348-.597-.355l-.278.104c-.09.011-.629.023-.729-.007-.1-.029-.17 0-.229.038s-.674.614-.726.674z"/><path class="fil2" d="M6.269 7.055v.663l.07.054c.081.014.984 0 .984 0l.004-.378-.912-.324-.147-.016z"/><path class="fil3" d="M5.255 7.723s.007-.176.188-.292c.181-.115.453-.029.527.09.075.12.12.179.1.326-.02.147-.186.321-.305.339-.12.018-.31.025-.425-.124-.115-.149-.1-.292-.084-.339zm.217.14s-.075-.145.041-.217c.115-.072.278-.088.337.043s-.036.244-.09.276c-.054.032-.253.016-.287-.102zm2.061-.17s-.045-.244.21-.455c.256-.21.527-.097.638-.014.111.084.224.231.231.425.007.195-.149.432-.317.502-.167.07-.353.063-.502-.034-.149-.097-.217-.21-.26-.425zm.229-.039s0-.154.1-.253c.1-.1.326-.093.416-.011.09.081.136.195.111.342-.025.147-.17.242-.249.244-.079.002-.391-.009-.378-.321zm.292.154s-.138-.011-.12-.165c.018-.154.156-.158.226-.115s.075.14.054.192c-.02.052-.079.084-.161.088zm0 .001s-.138-.011-.12-.165c.018-.154.156-.158.226-.115s.075.14.054.192c-.02.052-.079.084-.161.088z"/></g></svg>