<svg xmlns="http://www.w3.org/2000/svg" width="10.837mm" height="10.837mm" viewBox="0 0 10.8372 10.8372" shape-rendering="geometricPrecision" text-rendering="geometricPrecision" image-rendering="optimizeQuality" fill-rule="evenodd" clip-rule="evenodd"><defs><style type="text/css"><![CDATA[
    .fil0 {fill:#4D4D4D}
    .fil2 {fill:#BAAD82}
    .fil1 {fill:#E85669}
    .fil3 {fill:#E8D8A5}
   ]]></style></defs><g id="Слой_x0020_1"><path class="fil0" d="M4.29 7.076l.249-.017v-.067l.209.002v.064s.275.011.396.043l.098.067c-.005.015-.085.068-.445.087-.234.012-.428-.009-.547-.027l.04-.151zm.249-.235v-.338h.209v.379l-.165-.045-.044.004zm0-.454v-.015h.209v.015h-.209zm0-.015v-.071h.21v.071h-.209zm0-.157v-1.278l.211.056-.001 1.222h-.21zm0-1.394v-.857h.211l-.001.858-.211-.001zm-.51-.857l.001.689-.049.043-.002.268.06.044.073-.03.009-.049-.001-.233-.031-.036-.018-.01v-.686h-.043z"/><path class="fil1" d="M3.73 3.929l1.828-.003-.387-1.378h-.288l-.133-.077-.21.001-.097.049-.024.026-.299.003-.39 1.38z"/><path class="fil2" d="M4.214 7.091l-.123.449-.07.053c-.06.012-.087-.045-.094-.072-.007-.027.136-.564.136-.564l-.146-.016-.053-.13-.093-.936.078-.079.269-.008.085.076v.428l-.11.127-.023.145s-.009.31.009.365l.135.163z"/><path class="fil3" d="M4.385 6.261l.002-.399-.066-.154c-.064-.074-.165-.092-.165-.092l-.036-.641.036-.067.085-.032h1.559l.002 1.383-1.417.002z"/><path class="fil2" d="M4.336 6.434h3.116l.061.038.018.045-.002.353-.046.063c-.027.014-3.169.003-3.169.003l-.059-.056.001-.386.08-.06zm3.233.659l.123.449.07.053c.06.012.087-.045.094-.072.007-.027-.136-.564-.136-.564l.146-.016.054-.13.093-.936-.078-.079-.269-.008-.085.076v.428s.085.053.109.127l.023.145s.009.31-.009.365l-.135.164z"/><path class="fil3" d="M7.398 6.262l-.002-.399.066-.154c.064-.074.165-.092.165-.092l.036-.641-.036-.067-.085-.032h-1.559l-.002 1.383 1.417.002z"/></g></svg>