<svg xmlns="http://www.w3.org/2000/svg" width="10.837mm" height="10.837mm" viewBox="0 0 10.8372 10.8372" shape-rendering="geometricPrecision" text-rendering="geometricPrecision" image-rendering="optimizeQuality" fill-rule="evenodd" clip-rule="evenodd"><defs><style type="text/css"><![CDATA[
    .fil0 {fill:#4D4D4D}
    .fil1 {fill:url(#id0)}
   ]]></style><linearGradient id="id0" gradientUnits="userSpaceOnUse" x1="4.546" y1="6.787" x2="6.936" y2="3.462"><stop offset="0" stop-color="#8411BD"/><stop offset=".6" stop-color="#C109DE"/><stop offset="1" stop-color="#f0f"/></linearGradient></defs><g id="Слой_x0020_1"><g id="_202655648"><path id="_202656296" class="fil0" d="M7.041 6.882h-.054l-2.495.004-.088.001v.312c-.001.031-.011.389.349.387h1.943c.031-.005.18.024.275-.077.095-.101.095-.189.095-.26v-.367h-.024zm-1.298.125c.13 0 .236.106.236.238 0 .131-.106.238-.236.238s-.236-.107-.236-.238.106-.238.236-.238z"/><path id="_202656056" class="fil0" d="M4.404 7.199v-.312l-.002-3.85s.009-.167.099-.273c.09-.106.256-.092.256-.092l1.927-.004s.186-.023.288.077c.102.1.092.238.092.238l.002 3.899v.367c0 .071.001.159-.095.26-.095.101-.244.072-.275.077h-1.943c-.36.002-.35-.356-.349-.387zm.252.516h2.147s.146.008.259-.101c.113-.109.136-.179.15-.253.014-.074-.002-4.484-.002-4.484s-.023-.127-.136-.232c-.113-.105-.284-.099-.284-.099l-2.129.004s-.164 0-.263.111l-.129.273.002 4.375s.018.37.386.407z"/><path id="_202656008" class="fil0" d="M4.492 6.885l2.495-.004.002-3.654-2.495-.004-.002 3.662zm2.381-.004l-2.262.004v-3.524l2.262.004v3.517z"/><path id="_202655816" class="fil0" d="M5.456 3.068h.572c.049 0 .088-.04.088-.088v-.016c0-.049-.04-.088-.088-.088h-.572c-.049 0-.088.04-.088.088v.016c0 .049.04.088.088.088z"/></g><path class="fil1" d="M4.61 3.365h2.262v3.52h-2.262z"/></g></svg>