<svg xmlns="http://www.w3.org/2000/svg" xmlns:xlink="http://www.w3.org/1999/xlink" width="163.839" height="163.839" viewBox="0 0 43.349 43.349" shape-rendering="geometricPrecision" image-rendering="optimizeQuality" fill-rule="evenodd" xmlns:v="https://vecta.io/nano"><style><![CDATA[.Ar{fill:#1f1f1f}.As{fill:#090909}.At{fill:url(#H)}.Au{fill:#0f1112}.Av{fill-rule:nonzero}.Aw{fill:#454545}]]></style><defs><linearGradient id="A" x1="30.231" y1="29.655" x2="16.532" y2="37.517" xlink:href="#d"><stop offset="0" stop-color="#202020"/><stop offset=".38" stop-color="#777"/><stop offset="1" stop-color="#cecece"/></linearGradient><linearGradient id="B" x1="18.427" y1="31.497" x2="25.822" y2="35.531" xlink:href="#d"><stop offset="0" stop-color="#636363"/><stop offset=".6" stop-color="#070709"/><stop offset="1" stop-color="#3b3b3d"/></linearGradient><linearGradient id="C" x1="17.122" y1="30.027" x2="29.987" y2="37.045" xlink:href="#d"><stop offset="0" stop-color="#a5a5a5"/><stop offset=".329" stop-color="#0c0b0e"/><stop offset=".588" stop-color="#3f3e41"/><stop offset=".788" stop-color="#141414"/><stop offset="1" stop-color="#222124"/></linearGradient><linearGradient id="D" x1="11.812" y1="30.808" x2="12.604" y2="30.808" xlink:href="#d"><stop offset="0" stop-color="#78a5aa"/><stop offset="1" stop-color="#a0dfe4"/></linearGradient><linearGradient id="E" x1="16.538" y1="29.776" x2="30.24" y2="29.776" xlink:href="#d"><stop offset="0" stop-color="#b4b4b4"/><stop offset="1" stop-color="#575757"/></linearGradient><linearGradient id="F" x1="10.409" y1="33.764" x2="13.985" y2="33.764" xlink:href="#d"><stop offset="0" stop-color="#d3d3d3"/><stop offset=".388" stop-color="#a6a6a6"/><stop offset=".769" stop-color="#fff"/><stop offset="1" stop-color="#e6e6e6"/></linearGradient><linearGradient id="G" x1="15.402" y1="29.388" x2="30.002" y2="29.388" xlink:href="#d"><stop offset="0" stop-color="#c8c8c8"/><stop offset=".4" stop-color="#999"/><stop offset="1" stop-color="#696969"/></linearGradient><linearGradient id="H" x1="27.965" y1="31.767" x2="29.664" y2="31.767" xlink:href="#d"><stop offset="0" stop-color="#0f0f0f"/><stop offset="1" stop-color="#161618"/></linearGradient><linearGradient id="I" x1="30.012" y1="33.275" x2="30.245" y2="33.275" xlink:href="#d"><stop offset="0" stop-color="#2d2d2f"/><stop offset="1" stop-color="#1e1e1e"/></linearGradient><linearGradient id="J" x1="24.698" y1="22.152" x2="26.191" y2="22.152" xlink:href="#d"><stop offset="0" stop-color="#dde0e4"/><stop offset="1" stop-color="#7f8386"/></linearGradient><linearGradient id="K" x1="28.323" y1="34.546" x2="29.542" y2="34.546" xlink:href="#d"><stop offset="0" stop-color="#909294"/><stop offset=".502" stop-color="#d8dadc"/><stop offset="1" stop-color="#8e9394"/></linearGradient><linearGradient id="L" x1="4.747" y1="35.003" x2="24.496" y2="35.003" xlink:href="#d"><stop offset="0" stop-color="#fff"/><stop offset=".51"/><stop offset="1" stop-color="#fefefe"/></linearGradient><linearGradient id="M" x1="24.402" y1="21.05" x2="39.189" y2="21.05" xlink:href="#d"><stop offset="0" stop-color="#868686"/><stop offset=".322" stop-color="#b4b4b4"/><stop offset=".561" stop-color="#7d7d7d"/><stop offset="1" stop-color="#878787"/></linearGradient><linearGradient id="N" x1="10.926" y1="30.979" x2="13.456" y2="30.979" xlink:href="#d"><stop offset="0" stop-color="#fff"/><stop offset=".341" stop-color="#343434"/><stop offset=".69" stop-color="#fff"/><stop offset="1" stop-color="#595e5a"/></linearGradient><linearGradient id="O" x1="12.871" y1="33.936" x2="16.762" y2="33.936" xlink:href="#d"><stop offset="0" stop-color="#646368"/><stop offset="1"/></linearGradient><linearGradient id="P" x1="10.883" y1="30.443" x2="13.346" y2="30.443" xlink:href="#d"><stop offset="0" stop-color="#8bc6ca"/><stop offset="1" stop-color="#9fced4"/></linearGradient><linearGradient id="Q" x1="15.444" y1="37.412" x2="16.476" y2="29.157" xlink:href="#d"><stop offset="0" stop-color="#686868"/><stop offset="1" stop-color="#929292"/></linearGradient><linearGradient id="R" x1="16.606" y1="37.494" x2="16.866" y2="33.471" xlink:href="#d"><stop offset="0" stop-color="#747474"/><stop offset="1" stop-color="#b2b2b2"/></linearGradient><linearGradient id="S" x1="37.743" y1="36.203" x2="37.743" y2="6.303" xlink:href="#d"><stop offset="0" stop-color="#636363"/><stop offset="1" stop-color="#a3a3a3"/></linearGradient><linearGradient id="T" x1="35.606" y1="22.494" x2="35.606" y2="22.174" xlink:href="#d"><stop offset="0" stop-color="#878792"/><stop offset="1" stop-color="#ecf0f9"/></linearGradient><linearGradient id="U" x1="36.088" y1="36.258" x2="36.088" y2="6.128" xlink:href="#d"><stop offset="0" stop-color="#6f6d6d"/><stop offset=".949" stop-color="#7f7c7e"/><stop offset="1" stop-color="#a6a5a3"/></linearGradient><linearGradient id="V" x1="27.27" y1="36.683" x2="27.27" y2="30.081" xlink:href="#d"><stop offset="0" stop-color="#4b4b4b"/><stop offset=".188" stop-color="#4b4b4b"/><stop offset=".361" stop-color="#e4e4e4"/><stop offset=".741" stop-color="#949494"/><stop offset=".8" stop-color="#454545"/><stop offset=".851" stop-color="#5b5b5b"/><stop offset="1" stop-color="#e7e7e7"/></linearGradient><linearGradient id="W" x1="4.152" y1="22.615" x2="25.63" y2="32.559" xlink:href="#d"><stop offset="0" stop-color="#36a1ff"/><stop offset=".302" stop-color="#4f6df0"/><stop offset="1" stop-color="#1dc8e6"/></linearGradient><linearGradient id="X" x1="27.117" y1="10.507" x2="28.384" y2="13.04" xlink:href="#d"><stop offset="0" stop-color="#a0a1a1"/><stop offset="1" stop-color="#afafaf"/></linearGradient><linearGradient id="Y" x1="9.359" y1="34.418" x2="10.431" y2="34.325" xlink:href="#d"><stop offset="0" stop-color="#373737"/><stop offset="1" stop-color="#4d4d4d"/></linearGradient><linearGradient id="Z" x1="23.415" y1="20.209" x2="6.364" y2="35.052" xlink:href="#d"><stop offset="0" stop-color="#181818"/><stop offset="1" stop-color="#525252"/></linearGradient><linearGradient id="a" x1="16.628" y1="33.628" x2="16.949" y2="33.628" xlink:href="#d"><stop offset="0" stop-color="#b3b3b3"/><stop offset="1" stop-color="#4d4d4d"/></linearGradient><linearGradient id="b" x1="30.454" y1="22.614" x2="30.515" y2="21.928" xlink:href="#d"><stop offset="0" stop-color="#848486"/><stop offset="1" stop-color="#a3a2aa"/></linearGradient><linearGradient id="c" x1="7.974" y1="34.402" x2="8.582" y2="35.379" xlink:href="#d"><stop offset="0" stop-color="#5b5a45"/><stop offset="1" stop-color="#9d9c97"/></linearGradient><linearGradient id="d" gradientUnits="userSpaceOnUse"/></defs><circle cx="22.089" cy="22.053" r="19.05" fill="#f0f0f0"/><path d="M12.164 36.647c.754 0 1.365.095 1.365.212s-.61.212-1.365.212-1.365-.095-1.365-.212.61-.212 1.365-.212z" fill="#858585"/><path d="M15.286 35.94l1.257 1.536c.173.095.62.06 1.072.044l12.52-.653-14.85-.928z" class="Aw"/><path d="M30.125 35.77c.032.001 4.951.475 4.951.475s.08.041.292.065l.5.061-.103-.232-5.653-.658.014.29z" fill="#474747"/><path d="M14.62 34.8l9.874.203c0 .112-4.42.203-9.874.203s-9.874-.09-9.874-.203 4.42-.203 9.874-.203z" fill="url(#L)"/><path d="M4.046 33.818V21.46l.068-.075c.07-.01 21.557.003 21.557.003l.062.064-.014 12.37-.06.057c-.053.005-21.544-.001-21.544-.001l-.07-.06z" fill="url(#Z)"/><path d="M4.05 33.827l21.665-.002-.037.053c-.024.006-21.592 0-21.592 0l-.036-.052z"/><path d="M4.323 33.557l21.122-.001.017-.033c-.002-.025.001-11.904.001-11.904L4.323 33.557z" fill="#3f403b"/><path d="M4.34 21.637l-.001 11.9h21.105v-11.9z" fill="url(#W)"/><path d="M14.62 33.728l-.076.028.002-.02.05-.005-.05-.054.067-.027-.001.02-.04.004.05.054zm.08.035l-.06-.002v-.113h.024l-.002.095h.037v.02zm.064.002c-.078 0-.07-.123.005-.122s.07.123-.005.122zm.003-.103c-.042 0-.046.083-.002.083s.045-.083.002-.083zm.17.098h-.022l-.05-.09-.001.088h-.022l.005-.113.072.084v-.013l.001-.07h.022l-.005.113zm.036 0l-.005-.002.002-.115c.06-.05.184.117.003.117zm.02-.1l-.002.08c.07 0 .07-.08.002-.08zm.14.102c-.078 0-.07-.123.005-.122s.07.123-.005.122zm.003-.103c-.042 0-.046.083-.002.083s.045-.083.002-.083z" fill="#c0c5c6" class="Av"/><path d="M12.882 33.88s-.03.13.063.156 3.873.008 3.873.008l.067-.097v-.067h-4.003z"/><path d="M12.948 33.97l3.774.022.04-.1-3.802-.001s-.088.053-.01.09z" fill="url(#O)"/><path d="M10.27 33.88l.156.592-.03.153a.83.83 0 0 1-.215.192c-.073.037-.36.046-.415.02s-.404-.955-.404-.955h.907z" fill="url(#Y)"/><path d="M7.18 35.883l2.676-1.755-.383-.248h-.11l-2.64 1.73.01.127.058.098s.292.066.386.048z" fill="url(#c)"/><path d="M9.6 33.97l-2.633 1.74c-.076-.083-.117-.114-.23-.114l2.64-1.715s.087 0 .225.09zm-2.816 1.866s-.117-.177-.082-.208c.095-.086.35.196.415.26 0 0-.15-.002-.333-.05z" fill="#52513c"/><path d="M9.925 33.88l.303.908s.148-.118.182-.2-.005-.195-.023-.263l-.117-.446h-.345z" fill="#4e4e4e"/><path d="M36.316 36.207l2.873-2.277-.055-25.838-2.116-1.338.003-.312-.718-.43-.188-.03-.104-.227c-.043-.07-5.648.366-5.648.366l-.004.034-.453.037-.012.092-.176-.083-3.402.3-1.842.24.008 28.183s1.194.244 3.193.485l2.03.236.19-.032.05.076c.06.02 5.142.5 5.142.5l.07.047.606.08s.03.098.185.072.33-.19.33-.19l.038.006zM24.632 22.023h-.152v.225l.283.008-.13-.234z" fill="url(#M)"/><path d="M39.134 8.092l.055 25.838-2.892 2.274.04-29.9z" fill="url(#S)"/><path d="M35.927 36.258l.315-.274.008-29.66L36 6.13z" fill="url(#U)"/><path d="M36.24 36.173l.01-29.91.087.05-.033 29.9z" fill="#cacacb"/><path d="M35.865 36.26l.06-.002-.03-30.536-.033.025z" fill="#c8c9c3"/><path d="M37.018 6.73l-.725-.44-.02-.04.747.424z" fill="#5c5a5b"/><path d="M36.02 5.766l.035.053-.004.304.227.19-.066-.001-.19-.16v-.386z" fill="#35282c"/><path d="M36.272 6.345l-.001 2.67-.026-2.703z" fill="#605d5c"/><path d="M29.738 6.19l-.527.045.03 15.88 1.122.006-.003-15.986-.453.057-.012.15-.16-.076z" fill="#4c4344"/><path d="M29.742 35.64l-.003-7.426-.466-.004-.03-.08-.018-5.77-4.462-.106-.13-.234 4.61.1-.012-11.496.325 2.193.102 9.297.298.005-.032-9.066-.186-3.754V6.274l.157.08-.003 3.938.22 3.038.026 8.748.224.04.063.026 5.53.092s.15.02.215-.012l.02.255s-.247.02-.61.016l-5.44-.115.003 5.644.245.034-.001.18-.488-.003c-.032.016-.007 7.386-.007 7.386l-.153.016z" fill="#100d0e"/><path d="M30.39 28.06l.001-5.673-.25-.005.003 5.644zm-.736-.074l.323.042.001-5.668h-.286z" fill="#4c4344"/><path d="M24.698 22.044v.095l.134.09 1.36.033-.003-.177z" fill="url(#J)"/><path d="M26.252 22.27l4.144.08 4.32.1-.003-.188-4.32-.093-.093-.03-4.043-.063-.006.186z" fill="url(#b)"/><path d="M34.745 22.27v.184l.13.001.06-.188z" fill="#afbac0"/><path d="M35.003 22.267l-.035.188.493-.008.27-.025h.17l.015.07.308-.112.023-.207-.372.114c-.062.007-.87-.02-.87-.02z" fill="url(#T)"/><path d="M34.476 6.556c0 .06-.086.082-.114.055l.002-.03.074-.016-.077-.074c0-.055.077-.073.1-.052l-.001.03-.062.014.077.073zm.12.04l-.1.007-.003-.172.037-.004v.145l.057-.006v.03zm.097-.008c-.12.013-.11-.175.003-.187.12-.013.11.175-.003.187zm.002-.157c-.064.007-.067.133-.001.126s.067-.133.001-.126zm.26.12l-.034.006-.08-.13.001.135-.033.003.004-.172.044-.004.068.12v-.125l.033-.003-.004.172zm.193-.112c0 .096-.065.1-.14.107l-.008-.002V6.37c.025-.024.147-.024.147.07zm-.038.005l-.075-.052v.123l.075-.07zm.143.08c-.12.013-.11-.175.003-.187.12-.013.11.175-.003.187zm.002-.157c-.064.007-.067.133-.001.126s.067-.133.001-.126z" fill="#e2e4e5" class="Av"/><path d="M27.373 13.31l.742-.034s.066-.001.067-.13v-2.808s-.004-.067-.08-.07l-.74.03-.05.072c-.007.063.001 2.874.001 2.874l.06.067z" fill="#838382"/><path d="M27.352 13.252l.794-.038.003-2.888-.1-.028-.67.035-.04.07.012 2.848z" fill="url(#X)"/><path d="M27.48 10.64l-.012.06.077.005.265-.013.075-.022.077.03.057-.036-.043-.036.033-.053-.09.023-.043-.007-.06.005-.06.02-.108.005-.05.01c-.05.04-.1.05-.117.013z" fill="#3a3738"/><path d="M27.63 10.95l.001.186.093-.003v-.215zm.115-.035v.215l.095.003.001-.185z" fill="#f8f8fc"/><path d="M27.62 11.502l.083.006-.001.06-.077.004-.03.033-.002.088.035.027.088.005-.002-.028-.09-.007.001-.085.086-.008.034-.03.002-.06-.032-.028-.113-.001zm.156-.028l.062.001.03.033.003.188-.03.028h-.09l-.01-.04.008-.185.026-.025zm-.001.035l.003.186.062-.005v-.18h-.066z" fill="#eee"/><path d="M27.532 11.914l.001.084.024.032-.09.094.158-.026-.013-.036-.05-.08.025-.03-.056-.036zm.003.248l.001.063.018.024-.067.07.118-.02-.01-.027-.037-.06.02-.023-.042-.027zm.175-.018l.001.063.018.024-.067.07.118-.02-.01-.027-.037-.06.02-.023-.042-.027zm.183.007l.001.063.018.024-.067.07.118-.02-.01-.027-.037-.06.02-.023-.042-.027zm-.012-.26l.001.084.024.032-.09.094.158-.026-.013-.036-.05-.08.026-.03-.057-.036z" fill="#c1c1c1"/><path d="M27.53 12.607h.054v.05h-.054zm-.006.087h.066v.055h-.066z" class="Aw"/><path d="M27.453 12.884h.075v.062h-.075zm.114-.008h.07v.066h-.07z" fill="#6b6b6b"/><path d="M27.833 12.874h.134v.067h-.134z" fill="#5e5e5e"/><path d="M27.846 12.568h.113v.18h-.113z" fill="#242424"/><path d="M35.744 36.283s.058.142.22.096.244-.16.244-.16-.2.16-.188.102l.066-.174s-.088.21-.34.138z" fill="#d1d0c2"/><path d="M16.55 29.98l13.69-.27s-.118-.09-.223-.112l-.252-.017-13.136.153s-.092.17-.08.245z" fill="url(#E)"/><path d="M15.402 29.18l1.26.567 13.342-.15-2.748-.57z" fill="url(#G)"/><path d="M15.402 29.18s-.115.056-.13.164a1035.25 1035.25 0 0 0 .003 6.606l1.18 1.393.062.046.06-7.47.083-.17-1.26-.567z" fill="url(#Q)"/><path d="M16.523 29.934l-1.246-.61s.002-.084.088-.12l.086-.037 1.193.605s-.107.034-.122.163z" fill="#8c8c8c"/><path d="M15.325 30.284l-.003-.12.153.102s-.125-.05-.15.018zm.02-.222l-.003-.12.153.102s-.125-.05-.15.018zm.203.113l-.003-.12.153.102s-.125-.05-.15.018zm-.01.234l-.003-.12.153.102s-.125-.05-.15.018zm.215.112l-.003-.12.153.102s-.125-.05-.15.018zm-.003-.235l-.003-.12.153.102s-.125-.05-.15.018zm.001-.248l-.003-.12.153.102s-.125-.05-.15.018zm.227.103l-.003-.12.153.102s-.125-.05-.15.018zm.001.267l-.003-.12.153.102s-.125-.05-.15.018zm.005.245l-.003-.12.153.102s-.125-.05-.15.018z" fill="#626262"/><path d="M15.384 34.37l.1.114s.033-.202-.1-.114zm-.007-.24l.1.114s.033-.202-.1-.114zm.005-.234l.1.114s.033-.202-.1-.114zm-.002-.237l.1.114s.033-.202-.1-.114zm.187.19l.144.114s.043-.202-.144-.114zm0 .244l.144.114s.043-.202-.144-.114zm.004.242l.144.114s.043-.202-.144-.114zm-.003.247l.144.114s.043-.202-.144-.114zm.22.205l.144.114s.043-.202-.144-.114zm.007-.247l.144.114s.043-.202-.144-.114zm-.01-.255l.144.114s.043-.202-.144-.114zm.003-.248l.144.114s.043-.202-.144-.114zm.232.2l.144.114s.043-.202-.144-.114zm-.01.255l.144.114s.043-.202-.144-.114zm-.004.257l.144.114s.043-.202-.144-.114zm-.001.248l.144.114s.043-.202-.144-.114z" fill="#080808"/><path d="M16.518 37.39a.54.54 0 0 0 .308.101c.187.003 13.116-.555 13.116-.555s.182-.008.193-.057.1-7.156.1-7.156c-.07-.043-12.13.08-13.472.092 0 0-.177.008-.196.155s-.06 7.42-.06 7.42z" fill="url(#A)"/><path d="M16.732 33.475l-.19 1.39-.006 2.517s.05.074.16.09l.16.013s.08-3.86-.124-4z" fill="url(#R)"/><path d="M16.536 37.382l.01-4.346-.028 4.347z" fill="#363636"/><path d="M16.72 29.752c0-.001-.162.027-.17.186l.014 1.645.007-1.653c.002-.085.085-.135.148-.178z" fill="#292929"/><path d="M17.015 37.49l.033-7.628c-.394-.095-.52.077-.3.072l-.033 7.544.3.012z" fill="url(#a)"/><path d="M16.66 29.873l.126-.05.312.046-.13.024s-.18-.044-.307-.02z" class="Aw"/><path d="M27.494 29.77l-10.507.106.001-.02 10.508-.108z" fill="#616161"/><path d="M27.41 37.044v-.368l-10.026.406s-.125-.008-.2-.098-.1-.174-.104-.235.016-6.24.016-6.24-.016-.136.128-.247.42-.095.42-.095l9.85-.145-.001-.312-.22-.082.26.086-.001.307L29.707 30s.187.02.247.164.056.245.056.245l-.09 5.84s-.004.167-.137.265l-.57.104-1.766.065-.005.37-.03.001z" class="Ar"/><path d="M17.152 30.513l-.016 6.258c-.006.207.2.287.385.27l12.13-.496c.187-.057.246-.207.25-.4l.08-5.857c-.036-.188-.177-.273-.36-.284l-12.165.207s-.234.042-.303.292z" fill="url(#C)"/><path d="M18.467 31.63l.022 3.977 7.205-.222.087-3.96z" fill="url(#B)"/><path d="M26.63 36.683c-.17-.504-.38-1.204-.346-1.736l.033-3.375c.043-.53.148-.995.37-1.48l.31 1.036c.05.293-.022 4.41-.022 4.41s-.012.6-.343 1.145z" fill="#030303"/><path d="M27.4 36.656s.317-.616.344-.844c.157-1.318.075-2.974.094-4.326-.04-.517-.166-.923-.344-1.405l-.82.01c.118.316.31.86.32 1.19l-.032 4.256a2.5 2.5 0 0 1-.343 1.145l.78-.027z" fill="url(#V)"/><path d="M19.92 29.822l7.57-.09-.015-.018zm7.608-.124l.01.02 2.563-.036z" fill="#b3b3b3"/><path d="M16.72 29.733l13.116-.133-13.116.133z" fill="#c7c7c7"/><path d="M28.456 30.71l.01-.11-.01.11zm-.015.125l.01-.11-.01.11zm.17-.24l.11.007-.006.09-.11.015-.035.122c.008.044.13.02.134.01l-.12-.01.016-.093.12-.023.023-.116-.132-.005zm.243.106l.028-.09.095-.007.01.106.01-.123-.12-.003-.026.118zm.13.025l-.024.092-.095.01-.015-.106-.006.124.12-.002.02-.12zm.132-.026l.028-.09.095-.007.01.106.01-.123-.12-.003-.026.118zm.13.025l-.024.092-.095.01-.015-.106-.006.124.12-.002.02-.12z" fill="#4484ac"/><path d="M28.366 31.367c.175 0 .175.27 0 .27s-.175-.27 0-.27zm-.05.067l-.02.07.02.08c.014.014.125-.075.13-.11l-.1.084-.023-.057-.006-.07zm.924-.074c.175 0 .175.27 0 .27s-.175-.27 0-.27zm-.076.075s-.018.116.062.13.096-.1.088-.117l-.038.087-.07-.02.074-.055c.02-.035-.096.073-.115-.024z" fill="#dce1e2"/><path d="M28.597 31.48h-.12v.03h.12zm.417-.008h.107v.03h-.107z" fill="#949999"/><path d="M28.65 31.393l.003.077.035-.01.023.005.068.001.052-.004.04.003.034-.001.027-.05.013.05.017-.053.001-.03-.073.013-.056.007-.007.046-.03-.056-.032.026-.03.003-.01-.01-.033.001-.043-.018zm-.002.2l.003-.077.035.01.09-.006.052.004.074-.001.027.05.013-.05.018.084-.072-.013-.056-.007-.007-.046-.03.056-.06-.03-.01.01-.033-.001-.043.018z" fill="#b9babe"/><path d="M27.937 31.864l1.746-.007.001-.2-1.752.034z" class="As"/><path d="M27.967 31.707l-.001.142 1.7-.02-.001-.145z" class="At"/><path d="M29.66 31.778l.005.035-1.7.026v-.024z" class="Ar"/><path d="M28.838 31.696l.002.143h-.02v-.143z" class="Au"/><path d="M27.912 32.377l1.746-.007.001-.2-1.752.034z" class="As"/><path d="M27.942 32.22l-.001.142 1.7-.02v-.145z" class="At"/><path d="M29.634 32.29l.005.035-1.7.026v-.024z" class="Ar"/><path d="M28.813 32.21l.002.143h-.02l.001-.143z" class="Au"/><path d="M27.915 32.896l1.746-.007.001-.2-1.752.034z" class="As"/><path d="M27.944 32.74l-.001.142 1.7-.02-.001-.145z" class="At"/><path d="M29.637 32.8l.005.035-1.7.026v-.024z" class="Ar"/><path d="M28.816 32.728l.002.143h-.02l.001-.143z" class="Au"/><path d="M27.915 33.4l1.746-.007.001-.2-1.752.034z" class="As"/><path d="M27.944 33.244l-.001.142 1.7-.02-.001-.145z" class="At"/><path d="M29.637 33.315l.005.035-1.7.026v-.024z" class="Ar"/><path d="M28.816 33.233l.002.143h-.02l.001-.143z" class="Au"/><path d="M28.32 32.068c.044 0 .044.098 0 .098v-.098zm-.001.017v.06-.06zm.077-.022c.044 0 .044.098 0 .098v-.098zm-.001.017v.06-.06zm-.077-.084v.057-.057zm.08-.004h0z" fill="#dee2e1"/><path d="M29.118 32.082s.022-.12.076-.104c.072.022.268.098.074.156-.063.02-.146-.01-.15-.052zm.184-.038l-.017.02.017-.02zm-.147.04c-.024-.127.13.008 0 0zm-.848.497l.037-.08.06.087c.09.09-.142.1-.132.03l.035-.037zm.028-.042l-.013.09.074-.018-.06-.07zm.84-.073s-.04.16.003.177l.07-.04.037-.054-.033-.06-.078-.024zm.013.034l.006.12.033-.026-.003-.07-.036-.022zm-.897.558l.06-.052c.06.012.056.112.053.16l-.125.007.008-.098.004-.018zm.016.026c-.026.1.07.066.07.062.003-.015.022-.074-.07-.062zm.012-.026c.023-.066.09.014 0 0zm.824.093l.001-.144.14.001.002.09-.057.058-.087-.004zm.017-.04v-.037l.05-.05.058.004-.01.052-.05.05-.047-.017z" fill="#c9cdce"/><path d="M28.287 34.7c.17.188.378.306.637.308l-.637-.308z" fill="#29282b"/><path d="M28.578 34.86s-.347-.157-.393-.233-.128-.415.103-.583.52-.108.624-.057l.15.098-.483.776z" fill="#141414"/><path d="M28.932 34.074c.6 0 .6.944 0 .944s-.6-.944 0-.944z" fill="url(#K)"/><path d="M28.217 34.098h0zm.14-.07c.156-.243.612-.256.783-.025-.243-.196-.546-.164-.783.025zm.877-.01l.001.047-.04.001-.001.027.04-.001.005.05h.025l-.001-.048.04-.003-.003-.025-.037-.003-.001-.045z" fill="#ceced0"/><path d="M29.442 34.526c.046 0 .083.036.083.08s-.037.08-.083.08-.083-.036-.083-.08.037-.08.083-.08zm-.001.013l.068.066-.068.066-.068-.066.068-.066zm-.065.058h.072v.018h-.072zm.054-.058h.018v.075h-.018z" fill="#9ea0a2"/><path d="M30.093 29.622l-.082 7.307.124-.05c.016-.037.1-7.156.1-7.156s-.02-.075-.152-.1z" fill="url(#I)"/><path d="M27.883 35.868l1.746-.01v-.295l-1.752.05z" class="As"/><path d="M27.912 35.638l-.001.208 1.7-.03-.001-.212z" class="At"/><path d="M29.605 35.742l.005.05-1.7.04v-.035z" class="Ar"/><path d="M28.783 35.62l.002.2h-.02l.001-.2z" class="Au"/><path d="M28.17 35.245c.12 0 .12.178 0 .178s-.12-.178 0-.178zm-.006.06c.05 0 .05.072 0 .072v-.072z" fill="#98251f"/><path d="M28.103 35.466h.144v.06h-.144z" fill="#6e292c"/><path d="M28.25 35.4l.084-.124c.022-.001-.056.125-.084.124zm.134-.114s-.052.09-.007.116l.083-.038c.053.007.135-.145-.004-.054l-.07-.024zm.005.026l-.003.073c.04.003.077-.054.003-.073z" fill="#acaeb0"/><path d="M28.995 35.23l-.092.102.098.09.087-.094-.093-.097zm.001.025l-.07.074.073.065.065-.07-.07-.07zm-.08.217l.07-.02h.1l-.004.064-.03-.03c0 .024-.116.045-.125.03l.03-.048-.04.003zm.19-.082l.082-.14-.082.14zm.09-.043l.03-.035.056.04.001-.082.048.005.01.028.01.048.017-.065c.12-.002.033.1.013.088l-.043.004-.034-.018-.058.008-.05-.023z" fill="#a4a9aa"/><path d="M29.37 34.912l.001-.18.145.001-.12.034z" fill="#07090a"/><path d="M22.974 36.37c0 .076-.1.096-.147.058l.003-.04c.004 0 .096.047.096-.012l-.1-.104c0-.07.1-.085.13-.055l-.002.04-.08.01.1.103zm.156.066l-.116-.001-.004-.222.047-.001v.187h.073v.04zm.125.001c-.153.003-.143-.238.004-.24.153-.003.143.238-.004.24zm.003-.202c-.082.001-.086.164-.001.163s.086-.164.001-.163zm.335.185l-.043.004-.1-.177v.174l-.043.001.005-.22h.057l.088.162-.001-.026v-.135l.043-.001-.005.22zm.25-.123c0 .123-.084.12-.18.122l-.01-.003v-.225c.032-.03.19-.014.19.106zm-.05.002c0-.07-.038-.077-.097-.076v.158c.062-.001.097-.01.097-.082zm.184.12c-.153.003-.143-.238.004-.24.153-.003.143.238-.004.24zm.003-.202c-.082.002-.086.164-.001.163s.086-.164.001-.163z" fill="#c0c5c6" class="Av"/><path d="M10.997 30.552s-.525 1.972-.557 3.64.2 2.5.2 2.5.103.177.443.245c.467.094 2.384.25 2.66-.232.05-.086.18-1.032.206-1.613s-.016-1.832-.074-2.206l-.433-2.222c-.132-.322-1.863-.3-2.455-.112z" fill="url(#F)"/><path d="M12.192 29.876c-.357-.014-1.095.144-1.162.56l-.064.235s-.024.16.083.29.317.317.68.383.72.08 1.09-.03.555-.325.602-.44.034-.21.034-.21l-.095-.324c-.127-.366-.83-.47-1.167-.47z" fill="#6a6c6b"/><path d="M11.06 30.328l-.095.353c-.038.923 2.484.95 2.492-.006l-.097-.33s.076.244-.22.433c-.454.288-1.205.305-1.692.092-.333-.145-.42-.315-.387-.542z" fill="url(#N)"/><path d="M12.17 29.903c-.318-.004-1.286.206-1.055.658.032.062.134.232.453.33s.49.095.8.096a1.47 1.47 0 0 0 .781-.232c.19-.125.208-.297.19-.4s-.3-.465-1.158-.455z" fill="url(#P)"/><path d="M11.808 30.654s-.03.172-.005.21.367.145.635.092.205-.177.183-.2-.813-.094-.813-.094z" fill="#557d7f"/><path d="M11.813 30.79s.05.14.245.17.375 0 .46-.066.086-.132.08-.203-.785-.003-.785-.003l.001.1z" fill="url(#D)"/><path d="M11.815 30.704c.04.327.79.273.782-.016-.006-.3-.88-.23-.782.016z" fill="#a9d6d9"/><path d="M12.09 30.783l.007.055c.03.015.246.016.27-.008l-.05-.043c-.025.023-.098.06-.147.025l-.078-.03z" fill="#446c6e"/><path d="M10.452 34.546c.268.318 3.024.332 3.448.05l.06-.048c-.21.375-3.513.318-3.51-.004zm.006.17c.293.348 3.07.302 3.447.05l.06-.048c-.218.388-3.513.308-3.51-.004z" fill="#a9a8a6"/><path d="M11.187 36.96c.001-.004-.007.078.13.088s.277-.035.277-.035l-.407-.053zm1.645.056c.09.065.357.042.404-.055l-.404.055z" fill="#565656"/><g fill="#5a5b5d"><path d="M11.865 35.218l.001.175h.703v-.18l-.704.004zm.026.03l.001.112h.643v-.114l-.644.002z"/><path d="M11.982 35.316l-.07.017.002-.012.046-.003-.046-.032.062-.016-.001.012-.038.003.046.032zm.074.02L12 35.336v-.067h.023l-.002.057h.035v.012zm.06.001c-.073 0-.066-.073.004-.073s.066.073-.004.073zm.003-.06l-.002.05.002-.05zm.158.058l-.02.001-.046-.054-.001.052h-.02l.004-.067.067.05v-.05h.02l-.005.067zm.033 0l-.005-.001.002-.068c.056-.03.172.07.003.07zm.018-.06l-.001.048c.064 0 .066-.048.001-.048zm.132.06c-.073 0-.066-.073.004-.073s.066.073-.004.073zm.003-.06l-.002.05.002-.05z" class="Av"/></g><path d="M12.213 35.64c.546 0 .546.805 0 .805s-.546-.805 0-.805zm-.005.05c.49 0 .49.72 0 .72s-.49-.72 0-.72z" fill="#747673"/><path d="M11.848 35.932c.078-.298.484-.354.677-.105.255.33-.363-.526-.677.105z" fill="#72bdc2"/><path d="M12.722 36.015l.014-.001c0-.024-.04-.285-.074-.224-.005.008.064.088.06.225zm-.045.258c.032-.05.078-.168.06-.223l-.013.005-.048.218zm-.182.2c.022-.015.196-.165.155-.177l-.155.177zm-.264.066l.003.022c.027.018.25-.064.215-.077-.008-.003-.136.07-.218.055zm-.263-.06l-.015.024.16.057.073-.007-.22-.073zm-.235-.158l.034-.02.158.156-.03.02-.16-.156zm-.087-.28h.053l.048.22-.03.016a.42.42 0 0 1-.072-.235zm0-.038l.05.001c-.004-.082.075-.2.02-.217-.026-.01-.08.103-.07.216z" fill="#030303"/><path d="M11.646 35.74l.018-.046.014.028.022-.028.01.04.028-.04.02.04.013-.018-.012-.017.02.013.016-.013-.012.024.01.022-.02-.016-.016.02-.023-.024-.03.022-.01-.025-.017.015-.014-.017z" fill="#6e6e6e"/><path d="M12.582 35.74l.017-.043.013.028.017-.028.013.042.005-.042.01.043.008-.042.03.027.014-.033-.006.054-.032-.026-.014.026-.01-.003-.01.001-.012-.02-.01.018-.014-.018z" fill="#9ea09f"/></svg>