<svg width="18" height="18" viewBox="0 0 18 18" fill="none" xmlns="http://www.w3.org/2000/svg">
<path fill-rule="evenodd" clip-rule="evenodd" d="M0.915112 2.21924H11.1308C11.0315 2.41164 10.976 2.6262 10.976 2.85262C10.976 3.06469 11.0249 3.26666 11.1128 3.44968H0.915112C0.576542 3.44968 0.299805 3.17294 0.299805 2.83455V2.83437C0.299805 2.49598 0.576542 2.21924 0.915112 2.21924ZM14.1505 2.21924H16.9834C17.322 2.21924 17.5987 2.49598 17.5987 2.83437V2.83455C17.5987 3.17294 17.322 3.44968 16.9834 3.44968H14.1686C14.2566 3.26666 14.3055 3.06469 14.3055 2.85262C14.3055 2.6262 14.2499 2.41164 14.1505 2.21924Z" fill="#666666"/>
<path fill-rule="evenodd" clip-rule="evenodd" d="M0.915112 8.37158H3.15222C3.04078 8.5732 2.97789 8.80068 2.97789 9.04128C2.97789 9.23953 3.02059 9.42875 3.09801 9.6022H0.915112C0.576542 9.6022 0.299805 9.32528 0.299805 8.98689C0.299805 8.6485 0.576542 8.37158 0.915112 8.37158ZM6.13309 8.37158H16.9834C17.322 8.37158 17.5987 8.6485 17.5987 8.98689C17.5987 9.32528 17.322 9.6022 16.9834 9.6022H6.1873C6.26473 9.42875 6.30742 9.23953 6.30742 9.04128C6.30742 8.80068 6.24453 8.5732 6.13309 8.37158Z" fill="#666666"/>
<path fill-rule="evenodd" clip-rule="evenodd" d="M0.915112 14.5239H9.90041C9.80102 14.7165 9.74539 14.9311 9.74539 15.1573C9.74539 15.3696 9.79428 15.5715 9.88234 15.7545H0.915112C0.576542 15.7545 0.299805 15.4776 0.299805 15.1392C0.299805 14.8008 0.576542 14.5239 0.915112 14.5239ZM12.9201 14.5239H16.9834C17.322 14.5239 17.5987 14.8008 17.5987 15.1392C17.5987 15.4776 17.322 15.7545 16.9834 15.7545H12.9381C13.026 15.5715 13.0749 15.3696 13.0749 15.1573C13.0749 14.9311 13.0195 14.7165 12.9201 14.5239Z" fill="#666666"/>
<path fill-rule="evenodd" clip-rule="evenodd" d="M12.6768 0.337402C14.0359 0.337402 15.1379 1.44719 15.1379 2.81635C15.1379 4.18551 14.0359 5.2953 12.6768 5.2953C11.3178 5.2953 10.2159 4.18551 10.2159 2.81635C10.2159 1.44719 11.3178 0.337402 12.6768 0.337402ZM12.6768 1.56784C13.3765 1.56784 13.9436 2.12681 13.9436 2.81635C13.9436 3.50589 13.3765 4.06486 12.6768 4.06486C11.9774 4.06486 11.4102 3.50589 11.4102 2.81635C11.4102 2.12681 11.9774 1.56784 12.6768 1.56784Z" fill="#666666"/>
<path fill-rule="evenodd" clip-rule="evenodd" d="M4.63971 6.4873C5.99895 6.4873 7.10076 7.59727 7.10076 8.96625C7.10076 10.3354 5.99895 11.4452 4.63971 11.4452C3.28065 11.4452 2.17883 10.3354 2.17883 8.96625C2.17883 7.59727 3.28065 6.4873 4.63971 6.4873ZM4.63971 7.71774C5.33935 7.71774 5.90647 8.27671 5.90647 8.96625C5.90647 9.65579 5.33935 10.2148 4.63971 10.2148C3.94025 10.2148 3.37313 9.65579 3.37313 8.96625C3.37313 8.27671 3.94025 7.71774 4.63971 7.71774Z" fill="#666666"/>
<path fill-rule="evenodd" clip-rule="evenodd" d="M11.4162 12.675C12.7753 12.675 13.8771 13.785 13.8771 15.1542C13.8771 16.5232 12.7753 17.6331 11.4162 17.6331C10.0571 17.6331 8.95532 16.5232 8.95532 15.1542C8.95532 13.785 10.0571 12.675 11.4162 12.675ZM11.4162 13.9055C12.1157 13.9055 12.6828 14.4646 12.6828 15.1542C12.6828 15.8437 12.1157 16.4027 11.4162 16.4027C10.7166 16.4027 10.1496 15.8437 10.1496 15.1542C10.1496 14.4646 10.7166 13.9055 11.4162 13.9055Z" fill="#666666"/>
</svg>
