<?xml version="1.0" encoding="UTF-8"?>
<!DOCTYPE svg PUBLIC "-//W3C//DTD SVG 1.1//EN" "http://www.w3.org/Graphics/SVG/1.1/DTD/svg11.dtd">
<!-- Creator: CorelDRAW -->
<svg xmlns="http://www.w3.org/2000/svg" xml:space="preserve" width="15mm" height="15mm" style="shape-rendering:geometricPrecision; text-rendering:geometricPrecision; image-rendering:optimizeQuality; fill-rule:evenodd; clip-rule:evenodd"
viewBox="0 0 15 15"
 xmlns:xlink="http://www.w3.org/1999/xlink">
 <defs>
  <style type="text/css">
   <![CDATA[
    .fil0 {fill:#AFAFAF}
    .fil1 {fill:#AFAFAF;fill-rule:nonzero}
   ]]>
  </style>
 </defs>
 <g id="Слой_x0020_1">
  <metadata id="CorelCorpID_0Corel-Layer"/>
  <g id="_400054768">
   <path id="_400056808" class="fil0" d="M0.8849 13.1876l-0.0067 -11.0838c0,0 0.0266,-0.4912 0.239,-0.7965 0.2124,-0.3053 0.4181,-0.4911 0.7168,-0.6239 0.2986,-0.1327 0.6836,-0.1261 0.6836,-0.1261l10.1613 -0.0066c0,0 0.5973,0.0465 0.9557,0.3982 0.3584,0.3518 0.4547,0.6737 0.4845,0.8396 0.0299,0.1659 0.0366,0.4944 0.0366,0.4944l-0.0033 10.8914c0,0 -0.0033,0.1693 -0.0863,0.2356 -0.083,0.0664 -0.0863,0.0863 -0.1958,0.0963 -0.1095,0.0099 -4.9545,0.0033 -4.9545,0.0033l-1.2312 1.2145c0,0 -0.0481,0.0482 -0.1543,0.0548 -0.1062,0.0066 -0.1776,-0.0547 -0.2124,-0.083 -0.0348,-0.0282 -1.183,-1.1863 -1.183,-1.1863l-4.9861 -0.005c0,0 -0.1112,-0.0166 -0.1809,-0.0913 -0.0697,-0.0746 -0.083,-0.2256 -0.083,-0.2256zm0.6306 -10.7272l-0.0016 -0.438c0,0 0.0614,-0.3983 0.3219,-0.6024 0.2605,-0.2041 0.5044,-0.2289 0.5044,-0.2289l10.3471 -0.0017c0,0 0.3784,0.0265 0.5841,0.2887 0.2058,0.2621 0.2622,0.5409 0.2622,0.5409l-0.0033 0.4414 -12.0148 0zm0.0016 0.6239l0 9.8063 4.7505 -0.0001c0,0 0.0937,-0.0107 0.1808,0.0589 0.0871,0.0697 1.0786,1.0694 1.0786,1.0694l1.0752 -1.0752c0,0 0.0282,-0.0531 0.1692,-0.0547 0.141,-0.0017 4.7621,0 4.7621,0l0.005 -9.8079 -12.0214 0.0033z"/>
   <path id="_400054816" class="fil1" d="M0.6358 13.1876l-0.0065 -11.0838 0 -0.0176c0.0001,-0.0014 0.0295,-0.5576 0.2827,-0.9215 0.1166,-0.1677 0.2343,-0.305 0.3671,-0.4215 0.1335,-0.1171 0.2799,-0.2098 0.4534,-0.2868l-0.0002 -0.0004c0.3518,-0.1564 0.7841,-0.1486 0.7853,-0.1486l0 0.001 10.1613 -0.0067 0.0146 0c0.0018,0.0001 0.6928,0.0543 1.1159,0.4695 0.201,0.1973 0.3301,0.3893 0.4134,0.5559 0.0869,0.1739 0.1248,0.3196 0.1424,0.4185l-0.0008 0.0001c0.0338,0.1883 0.0413,0.5363 0.0413,0.5372l-0.001 0 -0.0033 10.8915 0.001 0c0,0.0008 -0.007,0.2919 -0.181,0.4307l-0.0002 -0.0003 -0.0308 0.0254 0.0002 0.0002c-0.0946,0.0798 -0.1282,0.1081 -0.2978,0.1238l-0.001 0c-0.1606,0.0144 -4.1836,0.0069 -4.8747,0.0055l-1.1562 1.1406 0.0005 0.0005c-0.0002,0.0002 -0.1145,0.1145 -0.3156,0.1271l-0.001 0c-0.1976,0.012 -0.3169,-0.084 -0.3789,-0.1341l-0.0019 -0.0009 -0.0044 -0.0036 0.0004 -0.0005c-0.0197,-0.0191 -0.8739,-0.8739 -1.13,-1.1304l-4.8813 -0.0049 0 0.001c-0.0006,0 -0.2325,-0.0313 -0.3634,-0.1714 -0.1261,-0.135 -0.1505,-0.3949 -0.1505,-0.3955l0.001 0zm0.4915 -11.0667l0.0065 11.0667 0.001 0c0,0.0001 0.0026,0.0416 0.0157,0.0557 0.0085,0.0091 -0.0018,0.0112 -0.0018,0.0112l0 0.001 4.9861 0.005 0.1048 0.0001 0.072 0.0721c0.0032,0.0032 1.0983,1.1169 1.1634,1.1698l0.001 0 0.0044 0.0036 -0.0003 0.0004c0.0108,0.0087 0.0298,0.0237 0.0355,0.0234l0 0.0001c0.0038,0.0002 0.0028,0.0035 0.0004,0.0072l0.0002 0.0028 1.2248 -1.2082 0.0732 -0.0723 0.1016 0c0.0139,0 4.8617,0.0025 4.932,-0.0013 0.0115,-0.001 0.0141,-0.0031 0.0206,-0.0086l0.0029 -0.002 0.0366 -0.0302 0.0029 -0.0029c0.0079,-0.0063 -0.0084,-0.04 -0.0084,-0.0401l0.001 0 0.0033 -10.8915 -0.001 0c0,-0.0008 -0.0058,-0.3068 -0.0317,-0.4504l-0.001 -0.0009c-0.0119,-0.0671 -0.0375,-0.1656 -0.0956,-0.2819 -0.0618,-0.1236 -0.1603,-0.2687 -0.3176,-0.4231 -0.2884,-0.2831 -0.7772,-0.3255 -0.795,-0.3269l-10.1472 0.0067 0 0.001c-0.0009,0 -0.3368,-0.0054 -0.5821,0.1036l-0.001 0c-0.1246,0.0553 -0.2304,0.1223 -0.3272,0.2072 -0.0977,0.0857 -0.1894,0.1941 -0.2851,0.3317 -0.1686,0.2423 -0.1941,0.6558 -0.1949,0.671zm6.3825 12.4254l0.0055 -0.0054 -0.0002 -0.0023c-0.0031,0.0043 -0.0073,0.0086 -0.0073,0.0086l0.002 -0.0009zm-6.2433 -12.0859l-0.0017 -0.438 0 -0.0219 0.0039 -0.022c0.0002,-0.0012 0.0746,-0.489 0.4137,-0.7548 0.3168,-0.2481 0.6218,-0.2797 0.6225,-0.2798l0.0133 -0.0018 0.0219 -0.0001 10.3473 -0.0016 0.0114 0 0.0111 0.001c0.0013,0.0001 0.4842,0.0337 0.7578,0.3823 0.242,0.3084 0.3079,0.634 0.3081,0.6348l0.007 0.0282 -0.0002 0.0333 -0.0033 0.4414 -0.0019 0.249 -0.2471 0 -12.0148 0 -0.248 0 -0.001 -0.25zm0.4964 -0.4155l0.0006 0.1655 11.5197 0 0.0012 -0.1597c-0.0183,-0.0685 -0.0757,-0.2481 -0.2093,-0.4184 -0.1218,-0.1552 -0.3489,-0.1884 -0.3998,-0.1939l-10.3135 0.0016c-0.0456,0.0076 -0.2013,0.0419 -0.3728,0.1763 -0.1531,0.12 -0.2114,0.3565 -0.2261,0.4286zm0.0043 1.2883l0 9.3074 4.5004 0c0.0005,0 0.1676,-0.0213 0.3371,0.1145 0.0676,0.0542 0.6276,0.6144 0.9222,0.9102l0.8985 -0.8985 0.003 0.003c0.055,-0.0553 0.1608,-0.1277 0.3402,-0.1299l0.0029 -0.001 4.513 0 0.0049 -9.3088 -11.5222 0.0031zm-0.5 9.5574l0 -9.8063 0 -0.2489 0.25 -0.0001 12.0213 -0.0033 0.2491 0 -0.0001 0.249 -0.0051 9.8079 -0.0002 0.25 -0.2488 0 -4.7619 0 0 -0.011 -1.0678 1.0677 -0.1795 0.1794 -0.177 -0.1833c-0.0027,-0.0028 -0.9733,-0.9825 -1.0551,-1.048 -0.0045,-0.0036 -0.0245,-0.0031 -0.0245,-0.0031l-4.7504 0 -0.25 0 0 -0.25zm7.5118 0.2298l-0.0047 0.0047 0.0001 0.0085c0.0016,-0.0042 0.0054,-0.011 0.0103,-0.019l-0.0057 0.0058z"/>
   <path id="_400056112" class="fil0" d="M3.3823 4.4705l1.0221 0.0037c0,0 0.1958,0.0331 0.2588,0.2133 0.0631,0.1803 -0.0166,0.3201 -0.073,0.3716 -0.0564,0.0514 -0.1261,0.0882 -0.1892,0.1029 -0.063,0.0148 -1.0718,0.0074 -1.0718,0.0074 0,0 -0.2323,-0.0809 -0.229,-0.3494 0.0033,-0.2686 0.1891,-0.3164 0.2821,-0.3495z"/>
   <path id="_400056280" class="fil0" d="M5.5758 4.4705c0,0 -0.2588,0.0588 -0.2588,0.3016 0,0.2428 0.0962,0.3108 0.1377,0.3421 0.0414,0.0313 0.1211,0.0423 0.1211,0.0423l6.0961 0.0074c0,0 0.2024,-0.0552 0.2489,-0.206 0.0465,-0.1508 0.0265,-0.2686 -0.0531,-0.3679 -0.0796,-0.0993 -0.2124,-0.1177 -0.2124,-0.1177l-6.0795 -0.0018z"/>
   <path id="_400077064" class="fil0" d="M3.369 6.5644l1.0221 0.0037c0,0 0.1958,0.0331 0.2589,0.2133 0.063,0.1803 -0.0166,0.3201 -0.073,0.3715 -0.0564,0.0515 -0.1261,0.0883 -0.1892,0.103 -0.063,0.0148 -1.0719,0.0074 -1.0719,0.0074 0,0 -0.2323,-0.0809 -0.2289,-0.3495 0.0033,-0.2685 0.1891,-0.3163 0.282,-0.3494z"/>
   <path id="_400051768" class="fil0" d="M5.5626 6.5644c0,0 -0.2589,0.0588 -0.2589,0.3016 0,0.2428 0.0963,0.3108 0.1377,0.3421 0.0415,0.0313 0.1212,0.0423 0.1212,0.0423l6.0961 0.0074c0,0 0.2024,-0.0552 0.2489,-0.206 0.0464,-0.1509 0.0265,-0.2686 -0.0531,-0.3679 -0.0797,-0.0993 -0.2124,-0.1177 -0.2124,-0.1177l-6.0795 -0.0018z"/>
   <path id="_400054408" class="fil0" d="M3.3823 8.6684l1.0221 0.0037c0,0 0.1958,0.0331 0.2589,0.2134 0.063,0.1802 -0.0166,0.32 -0.0731,0.3715 -0.0564,0.0515 -0.1261,0.0883 -0.1891,0.103 -0.0631,0.0147 -1.0719,0.0073 -1.0719,0.0073 0,0 -0.2323,-0.0809 -0.229,-0.3494 0.0033,-0.2685 0.1892,-0.3164 0.2821,-0.3495z"/>
   <path id="_400079080" class="fil0" d="M5.5758 8.6684c0,0 -0.2588,0.0589 -0.2588,0.3016 0,0.2428 0.0962,0.3109 0.1377,0.3421 0.0415,0.0313 0.1211,0.0423 0.1211,0.0423l6.0962 0.0074c0,0 0.2024,-0.0552 0.2488,-0.206 0.0465,-0.1508 0.0266,-0.2685 -0.0531,-0.3678 -0.0796,-0.0994 -0.2123,-0.1178 -0.2123,-0.1178l-6.0796 -0.0018z"/>
   <path id="_400079008" class="fil0" d="M3.3691 10.7623l1.0221 0.0037c0,0 0.1958,0.0331 0.2588,0.2134 0.0631,0.1802 -0.0166,0.32 -0.073,0.3715 -0.0564,0.0515 -0.1261,0.0883 -0.1891,0.103 -0.0631,0.0147 -1.0719,0.0073 -1.0719,0.0073 0,0 -0.2323,-0.0809 -0.229,-0.3494 0.0033,-0.2686 0.1892,-0.3164 0.2821,-0.3495z"/>
   <path id="_400080016" class="fil0" d="M5.5626 10.7623c0,0 -0.2588,0.0589 -0.2588,0.3016 0,0.2428 0.0962,0.3109 0.1377,0.3421 0.0415,0.0313 0.1211,0.0423 0.1211,0.0423l6.0961 0.0074c0,0 0.2025,-0.0552 0.2489,-0.206 0.0465,-0.1508 0.0266,-0.2685 -0.0531,-0.3679 -0.0796,-0.0993 -0.2124,-0.1177 -0.2124,-0.1177l-6.0795 -0.0018z"/>
  </g>
 </g>
</svg>
