<?xml version="1.0" encoding="UTF-8"?>
<!DOCTYPE svg PUBLIC "-//W3C//DTD SVG 1.1//EN" "http://www.w3.org/Graphics/SVG/1.1/DTD/svg11.dtd">
<!-- Creator: CorelDRAW -->
<svg xmlns="http://www.w3.org/2000/svg" xml:space="preserve" width="15mm" height="15mm" style="shape-rendering:geometricPrecision; text-rendering:geometricPrecision; image-rendering:optimizeQuality; fill-rule:evenodd; clip-rule:evenodd"
viewBox="0 0 15 15"
 xmlns:xlink="http://www.w3.org/1999/xlink">
 <defs>
  <style type="text/css">
   <![CDATA[
    .fil0 {fill:#AFAFAF}
   ]]>
  </style>
 </defs>
 <g id="Слой_x0020_1">
  <metadata id="CorelCorpID_0Corel-Layer"/>
  <g id="_400057120">
   <ellipse id="_400053712" class="fil0" cx="5.46948" cy="13.613" rx="1.24083" ry="1.2138"/>
   <ellipse id="_400079440" class="fil0" cx="12.4638" cy="13.589" rx="1.24083" ry="1.2138"/>
   <path id="_400080640" class="fil0" d="M12.8154 11.3056c0,0 -2.1752,0.006 -3.353,0.1021 -1.1777,0.0962 -3.1547,0.2824 -3.5393,0.2884 -0.3845,0.006 -1.1717,-0.048 -1.5262,-0.4807 -0.3545,-0.4326 -0.2825,-0.8653 -0.2224,-1.2318 0.0601,-0.3665 0.2374,-0.5438 0.2614,-0.6309 0.024,-0.0872 -0.0271,-0.3125 -0.0871,-0.4657 -0.0601,-0.1532 -2.1873,-7.3098 -2.1873,-7.3098l-1.5323 -0.0181c0,0 -0.4627,-0.0661 -0.4867,-0.5287 -0.024,-0.4627 0.1562,-0.5589 0.3004,-0.631 0.1443,-0.0721 2.1392,-0.042 2.1392,-0.042 0,0 0.4146,-0.0361 0.5949,0.3845 0.1803,0.4206 0.5168,1.7726 0.5168,1.7726l10.5575 -0.012c0,0 0.3065,-0.012 0.4447,0.2344 0.1382,0.2463 0.0781,0.685 0.0541,0.8232 -0.024,0.1382 -1.0515,5.1796 -1.0515,5.1796 0,0 -0.0601,0.2524 -0.4026,0.3305 -0.3425,0.0781 -8.088,0.9915 -8.088,0.9915 0,0 -0.1201,0.045 -0.1292,0.2674 -0.009,0.2223 0.0511,0.3545 0.2765,0.3725 0.2253,0.018 0.4626,0.0871 2.4336,-0.1292 1.9709,-0.2163 5.0024,-0.2914 5.3118,-0.2434 0.3095,0.0481 0.4477,0.2554 0.4537,0.4748 0.006,0.2193 -0.1171,0.3965 -0.3124,0.4566 -0.1953,0.0601 -0.4266,0.0452 -0.4266,0.0452zm-2.0069 -5.0146l-0.0241 1.8748 1.8508 -0.2283 0.3485 -1.6465 -2.1752 0zm-3.1367 -0.012l-0.036 2.2834 2.5718 -0.3485 0.024 -1.9349 -2.5598 0zm-2.8422 0l0.7451 2.4997 1.5383 -0.1863 0 -2.3194 -2.2834 0.006zm-0.7812 -2.5597l0.5889 1.9889 2.4696 0 0.0121 -1.9889 -3.0706 0zm3.6414 0l0 1.9829 2.5478 0 -0.012 -1.9949 -2.5358 0.012zm3.0946 -0.006l0.006 2.0129 2.2654 -0.012 0.4146 -1.9889 -2.686 -0.012z"/>
  </g>
 </g>
</svg>
