<?xml version="1.0" encoding="UTF-8"?>
<!DOCTYPE svg PUBLIC "-//W3C//DTD SVG 1.1//EN" "http://www.w3.org/Graphics/SVG/1.1/DTD/svg11.dtd">
<!-- Creator: CorelDRAW -->
<svg xmlns="http://www.w3.org/2000/svg" xml:space="preserve" width="15mm" height="15mm" style="shape-rendering:geometricPrecision; text-rendering:geometricPrecision; image-rendering:optimizeQuality; fill-rule:evenodd; clip-rule:evenodd"
viewBox="0 0 15 15"
 xmlns:xlink="http://www.w3.org/1999/xlink">
 <defs>
  <style type="text/css">
   <![CDATA[
    .fil0 {fill:#333333}
    .fil1 {fill:#333333;fill-rule:nonzero}
   ]]>
  </style>
 </defs>
 <g id="Слой_x0020_1">
  <metadata id="CorelCorpID_0Corel-Layer"/>
  <g id="_400077136">
   <path id="_400053568" class="fil0" d="M2.4445 0.8821l10.0577 0c1.3069,0 2.3762,1.0693 2.3762,2.3762l0 5.6654c0,1.3069 -1.0693,2.3762 -2.3762,2.3762l-7.9994 0 0.4019 -0.625 7.2903 0c1.1501,0 2.091,-0.941 2.091,-2.0911l0 -4.9855c0,-1.1501 -0.9409,-2.0911 -2.091,-2.0911l-9.4432 0c-1.1501,0 -2.0911,0.941 -2.0911,2.0911l0 4.9855c0,1.1501 0.941,2.0911 2.0911,2.0911l0.7616 0 -0.1354 0.625 -0.9335 0c-1.3069,0 -2.3762,-1.0693 -2.3762,-2.3762l0 -5.6654c0,-1.3069 1.0693,-2.3762 2.3762,-2.3762zm-1.1513 13.7844c0,0 1.2338,-0.7865 1.9883,-1.3942 0.7544,-0.6078 1.5194,-1.6137 1.5194,-1.6137l0.2525 -0.3587 -0.5506 0c0,0 -0.184,0.2932 -0.4983,0.6364 -0.3144,0.3431 -0.7754,0.7387 -0.7754,0.7387 0,0 -0.1887,0.1703 -0.3354,0.2856 -0.1467,0.1152 -0.1493,0.1205 -0.1493,0.1205 0,0 0.1703,-0.3786 0.241,-0.541 0.0707,-0.1624 0.2331,-0.6339 0.3301,-0.9588 0.0037,-0.0125 0.0884,-0.2814 0.0618,-0.2814l-0.5604 0 -0.0334 0.1805c0,0 -0.068,0.4284 -0.3037,0.9785 -0.2358,0.5501 -0.2961,0.6366 -0.3747,0.8095 -0.0786,0.1729 -0.2881,0.4924 -0.4505,0.7754 -0.1625,0.2829 -0.3614,0.6227 -0.3614,0.6227z"/>
   <path id="_400077064" class="fil1" d="M7.1421 7.6375c-0.0028,-0.0987 -0.0043,-0.1735 -0.0043,-0.2229 0,-0.2921 0.041,-0.5447 0.1242,-0.7564 0.0607,-0.1594 0.1581,-0.3203 0.2935,-0.484 0.0988,-0.1185 0.278,-0.2907 0.5348,-0.5179 0.2583,-0.2286 0.4248,-0.4092 0.5024,-0.5447 0.0776,-0.134 0.1157,-0.2822 0.1157,-0.4416 0,-0.2893 -0.1129,-0.5433 -0.3387,-0.7635 -0.2257,-0.2187 -0.5037,-0.3287 -0.8311,-0.3287 -0.3175,0 -0.5814,0.1001 -0.793,0.2977 -0.2131,0.199 -0.3514,0.5094 -0.4177,0.9313l-0.7649 -0.0917c0.0692,-0.5644 0.2738,-0.9976 0.6139,-1.2982 0.34,-0.3006 0.7902,-0.4502 1.349,-0.4502 0.5927,0 1.0654,0.1609 1.4182,0.4841 0.3527,0.3217 0.5291,0.7112 0.5291,1.1698 0,0.2638 -0.0621,0.508 -0.1862,0.7309 -0.1242,0.223 -0.3655,0.4953 -0.7268,0.8142 -0.2427,0.2159 -0.4007,0.374 -0.4755,0.4756 -0.0748,0.103 -0.1298,0.2201 -0.1651,0.3514 -0.0367,0.1326 -0.0564,0.3471 -0.0621,0.6448l-0.7154 0zm-0.0452 1.493l0 -0.8481 0.8467 0 0 0.8481 -0.8467 0z"/>
  </g>
 </g>
</svg>
