<?xml version="1.0" encoding="UTF-8"?>
<!DOCTYPE svg PUBLIC "-//W3C//DTD SVG 1.1//EN" "http://www.w3.org/Graphics/SVG/1.1/DTD/svg11.dtd">
<!-- Creator: CorelDRAW -->
<svg xmlns="http://www.w3.org/2000/svg" xml:space="preserve" width="15mm" height="15mm" style="shape-rendering:geometricPrecision; text-rendering:geometricPrecision; image-rendering:optimizeQuality; fill-rule:evenodd; clip-rule:evenodd"
viewBox="0 0 15 15"
 xmlns:xlink="http://www.w3.org/1999/xlink">
 <defs>
  <style type="text/css">
   <![CDATA[
    .fil0 {fill:#AFAFAF}
   ]]>
  </style>
 </defs>
 <g id="Слой_x0020_1">
  <metadata id="CorelCorpID_0Corel-Layer"/>
  <path class="fil0" d="M7.466 0.5179c3.9355,0 7.1258,3.1903 7.1258,7.1258 0,3.9354 -3.1903,7.1258 -7.1258,7.1258 -3.9355,0 -7.1258,-3.1904 -7.1258,-7.1258 0,-3.9355 3.1903,-7.1258 7.1258,-7.1258zm-0.3758 11.5516c0,0 1.9311,-0.0105 3.1941,-0.2506 1.263,-0.24 1.4509,-0.6576 1.4822,-0.9081 0.0313,-0.2505 -0.2192,-1.2317 -0.501,-1.5344 -0.2818,-0.3027 -0.9916,-0.5741 -1.6179,-0.856 -0.6263,-0.2818 -0.9864,-0.3235 -1.1273,-0.621 -0.1409,-0.2975 -0.0835,-0.3967 0.1252,-0.6942 0.2088,-0.2975 0.2297,-0.3862 0.3028,-0.5845 0.073,-0.1983 0.0939,-0.3236 0.214,-0.3653 0.12,-0.0418 0.381,-0.3236 0.4175,-0.5794 0.0365,-0.2557 0.013,-0.3444 -0.0678,-0.4619 -0.0809,-0.1174 -0.1931,-0.0782 -0.1931,-0.0782 0,0 0.0313,-0.7412 -0.0157,-1.0126 -0.047,-0.2714 -0.2871,-0.9812 -0.7463,-1.2473 -0.4593,-0.2662 -0.8873,-0.2975 -1.4353,-0.261 -0.548,0.0365 -1.0543,0.4593 -1.263,0.7985 -0.2088,0.3393 -0.2558,0.8664 -0.261,1.0647 -0.0052,0.1984 0.0052,0.6524 0.0052,0.6524 0,0 -0.1748,0.0052 -0.2296,0.1566 -0.0548,0.1514 -0.0444,0.5062 0.0965,0.6837 0.1409,0.1774 0.2557,0.2923 0.3392,0.3288 0.0835,0.0365 0.2662,0.6054 0.4645,0.8768 0.1984,0.2714 0.1931,0.4802 0.1566,0.6263 -0.0365,0.1461 -0.1774,0.3132 -0.5167,0.4541 -0.3392,0.1409 -1.4875,0.5689 -1.8945,0.8089 -0.4071,0.2401 -0.5428,0.5898 -0.6159,0.7516 -0.0731,0.1618 -0.2662,0.9133 -0.2454,1.1221 0.0209,0.2087 0.1096,0.3705 0.6577,0.621 0.548,0.2506 2.1972,0.5115 3.275,0.509z"/>
 </g>
</svg>
