<?xml version="1.0" encoding="UTF-8"?>
<!DOCTYPE svg PUBLIC "-//W3C//DTD SVG 1.1//EN" "http://www.w3.org/Graphics/SVG/1.1/DTD/svg11.dtd">
<!-- Creator: CorelDRAW -->
<svg xmlns="http://www.w3.org/2000/svg" xml:space="preserve" width="15mm" height="15mm" style="shape-rendering:geometricPrecision; text-rendering:geometricPrecision; image-rendering:optimizeQuality; fill-rule:evenodd; clip-rule:evenodd"
viewBox="0 0 15 15"
 xmlns:xlink="http://www.w3.org/1999/xlink">
 <defs>
  <style type="text/css">
   <![CDATA[
    .fil0 {fill:#AFAFAF}
   ]]>
  </style>
 </defs>
 <g id="Слой_x0020_1">
  <metadata id="CorelCorpID_0Corel-Layer"/>
  <g id="_400056736">
   <path id="_400071856" class="fil0" d="M0.0903 14.2538l0 0.6515 8.0458 -0.0026 0.0256 -0.613 -0.6258 -0.0384 -0.0359 -0.7772c0,0 -0.0333,-0.1539 -0.1847,-0.2872 -0.1513,-0.1334 -0.359,-0.1437 -0.359,-0.1437l-5.7375 0.0026c0,0 -0.1565,0.0179 -0.295,0.159 -0.1385,0.1411 -0.1744,0.3129 -0.1744,0.3129l-0.0051 0.7335 -0.654 0.0026z"/>
   <path id="_400072192" class="fil0" d="M1.3136 8.7215l3.955 2.2775c0,0 0.1269,0.0603 0.336,0.009 0.209,-0.0513 0.2911,-0.1693 0.3578,-0.2578 0.0666,-0.0884 0.1167,-0.2295 0.0833,-0.4681 -0.0333,-0.2385 -0.1744,-0.2975 -0.2949,-0.3924 -0.1206,-0.0949 -3.8446,-2.2211 -3.8446,-2.2211 0,0 -0.2309,-0.0641 -0.454,0.0256 -0.2232,0.0898 -0.3437,0.3411 -0.3591,0.5412 -0.0154,0.2 0.0846,0.3385 0.2205,0.4861z"/>
   <path id="_400071520" class="fil0" d="M2.3242 7.1812l3.7446 2.1519 0.7797 -1.3312 6.7275 4.2102c0,0 0.1873,0.0641 0.3886,0.0282 0.2014,-0.0359 0.4168,-0.0859 0.6323,-0.3937 0.2154,-0.3078 0.1436,-0.7053 0.1436,-0.7053 0,0 -0.0359,-0.2591 -0.2744,-0.4976 -0.2385,-0.2386 -7.025,-3.7087 -7.025,-3.7087l0.79 -1.3325 -3.7356 -2.1596 -2.1713 3.7383z"/>
   <path id="_400056904" class="fil0" d="M4.7094 2.8352l3.955 2.2776c0,0 0.1269,0.0603 0.336,0.009 0.209,-0.0513 0.2911,-0.1693 0.3578,-0.2578 0.0667,-0.0885 0.1167,-0.2296 0.0833,-0.4681 -0.0333,-0.2385 -0.1744,-0.2975 -0.2949,-0.3924 -0.1206,-0.0949 -3.8446,-2.2212 -3.8446,-2.2212 0,0 -0.2309,-0.0641 -0.454,0.0257 -0.2231,0.0897 -0.3437,0.3411 -0.3591,0.5411 -0.0154,0.2001 0.0846,0.3386 0.2205,0.4861z"/>
  </g>
 </g>
</svg>
