<svg xmlns="http://www.w3.org/2000/svg" width="10.837mm" height="10.837mm" viewBox="0 0 10.8372 10.8372" shape-rendering="geometricPrecision" text-rendering="geometricPrecision" image-rendering="optimizeQuality" fill-rule="evenodd" clip-rule="evenodd"><defs><style type="text/css"><![CDATA[
    .fil4 {fill:#2B99E3}
    .fil6 {fill:#4D4D4D}
    .fil7 {fill:#7A592D}
    .fil3 {fill:#CCCCCC}
    .fil5 {fill:#E6C993}
    .fil2 {fill:#ED8290}
    .fil0 {fill:#E78E17}
    .fil1 {fill:#91948F}
   ]]></style></defs><g id="Слой_x0020_1"><path class="fil0" d="M9.036 7.62s-.219-.018-.363-.097l-.23-.15.481-.492s.103.131.133.288c.029.157-.008.366-.022.451zm.03-.879l-.098.098s.117.113.153.289c.037.176.008.355.008.355l-.028.137s.159-.003.319-.062c.161-.059.27-.185.27-.185l-.625-.632zm.037-.968s.219.018.362.097l.23.15-.481.492s-.103-.131-.133-.288c-.029-.157.008-.366.022-.451zm-.029.878l.098-.098s-.117-.113-.153-.289c-.037-.176-.008-.355-.008-.355l.028-.137s-.159.003-.319.062l-.27.185.625.632zm-.933.081s.018.219.097.363l.15.23.492-.481s-.131-.103-.288-.133c-.157-.029-.366.008-.451.022zm.879-.029l-.098.098s-.113-.117-.289-.153c-.176-.037-.355-.008-.355-.008l-.137.028s.003-.159.062-.319l.185-.27.632.625zm.968-.038s-.018-.219-.097-.363l-.15-.23-.492.481s.131.103.289.133c.157.029.366-.008.451-.022zm-.101-.042l-.063.01-.053-.225-.051-.094.056-.029s.11.156.111.338zm-.142-.391l-.05.041-.039-.045.05-.045.038.049zm-.636.462l.098-.098s.113.117.289.153c.176.037.355.008.355.008l.137-.028s-.003.159-.062.319l-.185.27-.632-.625zm.609.512l-.056-.042.102-.161.048-.176.065.012s-.017.198-.159.366z"/><path class="fil1" d="M6.624 2.648s.104-.019.218.023c.114.042.172.111.172.111s.037-.081 0-.186c-.037-.104-.121-.107-.202-.114-.081-.007-.176.088-.188.165z"/><path class="fil2" d="M7.064 2.819s.218.237.237.798c.019.561-.084 1.169-.084 1.169l-.088.404s.195-.195.469-.227c.274-.033.471.118.587.227.116.109.207.332.227.455l.028.234s.104-.341.116-.666c.012-.325-.088-.879-.292-1.274s-.455-.603-.631-.775c-.176-.172-.569-.346-.569-.346zm-.501-.157s-.232.072-.408.234c-.176.162-.339.383-.566.722-.227.339-.457.931-.457.931s-.053-.292-.281-.485c-.227-.193-.466-.158-.624-.146-.158.012-.383.218-.443.278l-.121.137s.172-.557.631-1.026 1.044-.636 1.429-.682c.385-.046.84.037.84.037z"/><path class="fil3" d="M5.38 4.755s.292-.729.613-1.193c.32-.464.531-.562.627-.589.095-.028.211-.005.267.139.056.144.169.536.104 1.019-.065.483-.19 1.086-.19 1.086s-.005-.121-.102-.357c-.098-.237-.299-.332-.299-.332l-.097-.05-.184-.041s-.132-.026-.309.03c-.176.056-.429.289-.429.289zm.182 2.322l.407.016.163-.376-.338-.001.001-.163 1.796.004.344-.57.131.085-.388.643-.186.003.288.642.143.077.041.078-5.314.008s-.025-.104.262-.195c.288-.091.316-.114 1.146-.19.831-.076 1.204-.063 1.204-.063l.299.002zm.739-.357l-.06.147 1.152-.005-.068-.143h-1.023zm-.158.381l.035-.079 1.274-.005.124.281s-.304-.082-.583-.124c-.279-.042-.851-.073-.851-.073z"/><path class="fil4" d="M1.244 7.411s.155.174.529.172c.374-.002.687-.265.87-.429.183-.165.481-.52.69-.633.209-.114.367-.058.499-.063.132-.005.225-.06.234-.174.009-.114-.111-.188-.223-.209-.111-.021-.262.002-.515.155s-.622.68-.877.914c-.255.234-.45.339-.754.369-.304.03-.454-.102-.454-.102zm-.238-.29s.262.258.638.251c.376-.007.543-.16.808-.432s.506-.733.891-.928c.385-.195.543-.093.636-.028.093.065.23.151.364.128.135-.023.204-.139.211-.26.007-.121-.137-.299-.255-.381-.118-.081-.348-.139-.624-.128-.276.012-.587.237-.84.427s-.543.812-.701 1.012c-.158.2-.2.291-.448.381-.248.089-.368.046-.68-.042z"/><path class="fil5" d="M7.505 7.515l-4.855.007.065-.103c.075-.06.356-.166.726-.217.369-.051 1.012-.114 1.417-.121.406-.007.702-.004.994.007.291.011.81.05 1.308.114.498.063.738.211.738.211l.059.068.008.034-.459.001z"/><path class="fil6" d="M5.263 7.074l.854-2.639.184.041.097.05-.837 2.549-.299-.002z"/><path class="fil7" d="M7.591 6.557l-1.796-.004-.001.163.338.001-.163.376-.098-.004h.006c.295.013.798.051 1.282.112l-.167-.029c-.279-.042-.851-.073-.851-.073l.035-.079 1.274-.005.118.267.209.072-.286-.637.186-.003.388-.643-.131-.085-.344.57zm-1.291.163h1.023l.068.143-1.152.005.06-.147z"/></g></svg>