<svg width="20" height="20" viewBox="0 0 20 20" fill="none" xmlns="http://www.w3.org/2000/svg">
<path d="M10 0C4.48583 0 0 4.48583 0 10C0 15.5142 4.48583 20 10 20C15.5142 20 20 15.5142 20 10C20 4.48583 15.5142 0 10 0ZM10 4.16667C10.46 4.16667 10.8333 4.54 10.8333 5C10.8333 5.46 10.46 5.83333 10 5.83333C9.54 5.83333 9.16667 5.46 9.16667 5C9.16667 4.54 9.54 4.16667 10 4.16667ZM11.875 15.8333H8.125C7.66417 15.8333 7.29167 15.46 7.29167 15C7.29167 14.54 7.66417 14.1667 8.125 14.1667H9.16667V9.16667H8.54167C8.08083 9.16667 7.70833 8.79333 7.70833 8.33333C7.70833 7.87333 8.08083 7.5 8.54167 7.5H10C10.4608 7.5 10.8333 7.87333 10.8333 8.33333V14.1667H11.875C12.3358 14.1667 12.7083 14.54 12.7083 15C12.7083 15.46 12.3358 15.8333 11.875 15.8333Z" fill="#838383"/>
</svg>
