<?xml version="1.0" encoding="UTF-8"?>
<!DOCTYPE svg PUBLIC "-//W3C//DTD SVG 1.1//EN" "http://www.w3.org/Graphics/SVG/1.1/DTD/svg11.dtd">
<!-- Creator: CorelDRAW -->
<svg xmlns="http://www.w3.org/2000/svg" xml:space="preserve" width="15mm" height="15mm" style="shape-rendering:geometricPrecision; text-rendering:geometricPrecision; image-rendering:optimizeQuality; fill-rule:evenodd; clip-rule:evenodd"
viewBox="0 0 15 15"
 xmlns:xlink="http://www.w3.org/1999/xlink">
 <defs>
  <style type="text/css">
   <![CDATA[
    .fil2 {fill:white}
    .fil1 {fill:url(#id0)}
    .fil0 {fill:url(#id1)}
   ]]>
  </style>
  <linearGradient id="id0" gradientUnits="userSpaceOnUse" x1="7.4093" y1="14.1026" x2="7.6062" y2="-0.0834">
   <stop offset="0" style="stop-color:#50226A"/>
   <stop offset="1" style="stop-color:#F39221"/>
  </linearGradient>
  <linearGradient id="id1" gradientUnits="userSpaceOnUse" x1="7.3818" y1="14.9682" x2="7.5787" y2="0.7822">
   <stop offset="0" style="stop-color:#E6E6E6"/>
   <stop offset="1" style="stop-color:#1A71B6"/>
  </linearGradient>
 </defs>
 <g id="Слой_x0020_1">
  <metadata id="CorelCorpID_0Corel-Layer"/>
  <g id="_404757712">
   <path id="_404751640" class="fil0" d="M6.8657 0.8789l1.2614 -0.0015c1.7841,-0.0021 3.4507,0.3281 4.7506,1.5102 1.1326,1.0301 1.402,2.9313 1.4038,4.359l0.0026 2.0897c0.0023,1.752 -0.1274,3.1722 -1.3641,4.5141 -0.9375,1.0173 -2.9219,1.5246 -4.3957,1.5222l-2.1884 -0.0037c-1.6505,-0.0027 -3.1014,-0.494 -4.2777,-1.5245 -1.0733,-0.9401 -1.3841,-2.7253 -1.3841,-4.3008l0 -2.3157c0,-1.5643 0.3219,-3.3335 1.3807,-4.3359 1.1752,-1.1128 3.1493,-1.5112 4.8109,-1.5131z"/>
   <path id="_404751880" class="fil1" d="M6.8932 0.0133l1.2614 -0.0015c1.7841,-0.0021 3.4507,0.3281 4.7506,1.5102 1.1326,1.0301 1.4019,2.9313 1.4038,4.359l0.0026 2.0898c0.0023,1.752 -0.1274,3.1721 -1.3641,4.5141 -0.9375,1.0172 -2.9219,1.5246 -4.3957,1.5221l-2.1885 -0.0036c-1.6504,-0.0028 -3.1013,-0.4941 -4.2776,-1.5245 -1.0733,-0.9402 -1.3841,-2.7254 -1.3841,-4.3009l0 -2.3157c0,-1.5643 0.3218,-3.3334 1.3806,-4.3359 1.1753,-1.1127 3.1493,-1.5112 4.811,-1.5131z"/>
   <path id="_404749264" class="fil2" d="M5.572 10.2374l3.9259 -0.0073c0,0 0.5235,-0.0072 0.9306,-0.458 0.4072,-0.4508 0.3708,-0.887 0.3708,-0.887l0.0001 -3.8824c0,0 -0.0254,-0.3926 -0.4253,-0.8034 -0.3999,-0.4108 -0.9851,-0.4399 -0.9851,-0.4399l-3.6752 -0.0036c0,0 -0.4544,0.0309 -0.7416,0.2672 -0.2872,0.2363 -0.5234,0.5707 -0.578,0.7997 -0.0545,0.2291 -0.0436,0.2945 -0.0436,0.2945l-0.0001 3.7734c0,0 0.0109,0.4144 0.2399,0.7052 0.2291,0.2908 0.2945,0.349 0.5235,0.4689 0.229,0.12 0.2763,0.1345 0.4581,0.1727zm0.2083 -5.8217l3.5423 0c0.4534,0 0.8244,0.3709 0.8244,0.8243l0 3.4988c0,0.4534 -0.371,0.8243 -0.8244,0.8243l-3.5423 0c-0.4534,0 -0.8243,-0.3709 -0.8243,-0.8243l0 -3.4988c0,-0.4534 0.3709,-0.8243 0.8243,-0.8243z"/>
   <path id="_404757976" class="fil2" d="M7.5751 5.3572c0.9225,0 1.6704,0.7486 1.6704,1.6722 0,0.9235 -0.7479,1.6721 -1.6704,1.6721 -0.9225,0 -1.6703,-0.7486 -1.6703,-1.6721 0,-0.9236 0.7478,-1.6722 1.6703,-1.6722zm0.0002 0.6492c0.5582,0 1.0106,0.453 1.0106,1.0117 0,0.5588 -0.4524,1.0117 -1.0106,1.0117 -0.5581,0 -1.0106,-0.4529 -1.0106,-1.0117 0,-0.5587 0.4525,-1.0117 1.0106,-1.0117z"/>
   <ellipse id="_404757616" class="fil2" cx="9.29513" cy="5.36807" rx="0.435755" ry="0.436235"/>
  </g>
 </g>
</svg>
