<svg xmlns="http://www.w3.org/2000/svg" xmlns:xlink="http://www.w3.org/1999/xlink" width="163.839" height="163.839" viewBox="0 0 43.349 43.349" shape-rendering="geometricPrecision" image-rendering="optimizeQuality" fill-rule="evenodd" xmlns:v="https://vecta.io/nano"><defs><linearGradient id="A" x1="20.985" y1="12.691" x2="19.551" y2="14.177" xlink:href="#q"><stop offset="0" stop-color="#a90007"/><stop offset="1" stop-color="#e62730"/></linearGradient><linearGradient id="B" x1="27.659" y1="25.623" x2="29.508" y2="37.333" xlink:href="#q"><stop offset="0" stop-color="#955050"/><stop offset="1" stop-color="#995151"/></linearGradient><linearGradient id="C" x1="14.42" y1="16.1" x2="19.11" y2="16.1" xlink:href="#q"><stop offset="0" stop-color="#c22327"/><stop offset="1" stop-color="#ea2b33"/></linearGradient><linearGradient id="D" x1="11.109" y1="34.77" x2="16.612" y2="34.77" xlink:href="#q"><stop offset="0" stop-color="#b9917b"/><stop offset="1" stop-color="#edc5b1"/></linearGradient><linearGradient id="E" x1="26.885" y1="24.365" x2="39.111" y2="24.365" xlink:href="#q"><stop offset="0" stop-color="#be767b"/><stop offset=".49" stop-color="#e8acb7"/><stop offset="1" stop-color="#d5939c"/></linearGradient><linearGradient id="F" x1="9.827" y1="29.553" x2="19.121" y2="29.553" xlink:href="#q"><stop offset="0" stop-color="#cc9a80"/><stop offset="1" stop-color="#eeccb9"/></linearGradient><linearGradient id="G" x1="10.685" y1="28.755" x2="16.586" y2="28.755" xlink:href="#q"><stop offset="0" stop-color="#9f6350"/><stop offset=".071" stop-color="#97604e"/><stop offset=".11" stop-color="#703927"/><stop offset=".188" stop-color="#703826"/><stop offset=".702" stop-color="#c27045"/><stop offset="1" stop-color="#612b1d"/></linearGradient><linearGradient id="H" x1="31.771" y1="30.753" x2="35.173" y2="30.753" xlink:href="#q"><stop offset="0" stop-color="#8a7e54"/><stop offset=".11" stop-color="#b5a263"/><stop offset=".251" stop-color="#ada075"/><stop offset=".349" stop-color="#a69455"/><stop offset=".502" stop-color="#b8aa79"/><stop offset=".631" stop-color="#b8ac7f"/><stop offset=".71" stop-color="#b09f66"/><stop offset=".871" stop-color="#bdad7b"/><stop offset="1" stop-color="#a39151"/></linearGradient><linearGradient id="I" x1="10.355" y1="34.162" x2="17.052" y2="34.162" xlink:href="#q"><stop offset="0" stop-color="#b16d46"/><stop offset=".49" stop-color="#d89063"/><stop offset="1" stop-color="#cd8157"/></linearGradient><linearGradient id="J" x1="26.711" y1="30.807" x2="39.219" y2="30.807" xlink:href="#q"><stop offset="0" stop-color="#e09093"/><stop offset=".49" stop-color="#d9a1ac"/><stop offset="1" stop-color="#b4787b"/></linearGradient><linearGradient id="K" x1="19.712" y1="10.45" x2="24.247" y2="10.45" xlink:href="#q"><stop offset="0" stop-color="#ae0006"/><stop offset="1" stop-color="#fc3d41"/></linearGradient><linearGradient id="L" x1="13.273" y1="9.16" x2="23.548" y2="1.6" xlink:href="#q"><stop offset="0" stop-color="#bfafa0"/><stop offset=".722" stop-color="#e7cfc1"/><stop offset="1" stop-color="#e5cec4"/></linearGradient><linearGradient id="M" x1="26.815" y1="4.4" x2="20.643" y2="10.28" xlink:href="#q"><stop offset="0" stop-color="#e74147"/><stop offset="1" stop-color="#f34949"/></linearGradient><linearGradient id="N" x1="19.88" y1="10.792" x2="27.013" y2="4.254" xlink:href="#q"><stop offset="0" stop-color="#e23d3e"/><stop offset=".169" stop-color="#ee4749"/><stop offset=".361" stop-color="#ff5150"/><stop offset=".588" stop-color="#ff5150"/><stop offset=".761" stop-color="#ee3a42"/><stop offset=".878" stop-color="#fb5050"/><stop offset="1" stop-color="#ea4747"/></linearGradient><linearGradient id="O" x1="13.748" y1="32.785" x2="12.446" y2="30.831" xlink:href="#q"><stop offset="0" stop-color="#582008"/><stop offset="1" stop-color="#a55228"/></linearGradient><linearGradient id="P" x1="8.656" y1="33.477" x2="8.602" y2="34.075" xlink:href="#q"><stop offset="0" stop-color="#eed9d0"/><stop offset="1" stop-color="#f9f4f1"/></linearGradient><linearGradient id="Q" x1="20.466" y1="13.613" x2="14.873" y2="16.092" xlink:href="#q"><stop offset="0" stop-color="#d82933"/><stop offset="1" stop-color="#e23635"/></linearGradient><linearGradient id="R" x1="20.998" y1="38.477" x2="26.626" y2="24.408" xlink:href="#q"><stop offset="0" stop-color="#ce8687"/><stop offset=".529" stop-color="#cf9197"/><stop offset=".788" stop-color="#d9a2ad"/><stop offset="1" stop-color="#dc9ca0"/></linearGradient><linearGradient id="S" x1="26.402" y1="7.298" x2="27.228" y2="4.819" xlink:href="#q"><stop offset="0" stop-color="#ff3f48"/><stop offset=".49" stop-color="#e42536"/><stop offset="1" stop-color="#ee5456"/></linearGradient><linearGradient id="T" x1="18.246" y1="26.538" x2="15.044" y2="32.944" xlink:href="#q"><stop offset="0" stop-color="#cc1e28"/><stop offset="1" stop-color="#cd1e2c"/></linearGradient><linearGradient id="U" x1="18.516" y1="33.565" x2="18.538" y2="34.216" xlink:href="#q"><stop offset="0" stop-color="#6e4d3d"/><stop offset="1" stop-color="#f7edea"/></linearGradient><linearGradient id="V" x1="9.632" y1="29.366" x2="12.878" y2="32.293" xlink:href="#q"><stop offset="0" stop-color="#d0977b"/><stop offset="1" stop-color="#f0ccb2"/></linearGradient><linearGradient id="W" x1="7.453" y1="29.167" x2="9.315" y2="30.258" xlink:href="#q"><stop offset="0" stop-color="#f7efe8"/><stop offset="1" stop-color="#ecd1c1"/></linearGradient><linearGradient id="X" x1="6.958" y1="31.251" x2="17.231" y2="29.538" xlink:href="#q"><stop offset="0" stop-color="#ddb092"/><stop offset="1" stop-color="#f4d1b7"/></linearGradient><linearGradient id="Y" x1="15.252" y1="34.036" x2="18.434" y2="31.828" xlink:href="#q"><stop offset="0" stop-color="#ddaf92"/><stop offset="1" stop-color="#e7bda4"/></linearGradient><linearGradient id="Z" x1="14.73" y1="32.146" x2="16.1" y2="33.745" xlink:href="#q"><stop offset="0" stop-color="#f4ebe4"/><stop offset="1" stop-color="#eacfc2"/></linearGradient><linearGradient id="a" xlink:href="#O" x1="14.166" y1="32.491" x2="13.341" y2="31.253"/><linearGradient id="b" x1="11.688" y1="27.829" x2="14.773" y2="29.428" xlink:href="#q"><stop offset="0" stop-color="#703829"/><stop offset="1" stop-color="#864327"/></linearGradient><linearGradient id="c" x1="21.337" y1="36.712" x2="19.958" y2="38.22" xlink:href="#q"><stop offset="0" stop-color="#512323"/><stop offset="1" stop-color="#aa777a"/></linearGradient><linearGradient id="d" x1="19.67" y1="11.796" x2="16.031" y2="9.741" xlink:href="#q"><stop offset="0" stop-color="#b6141d"/><stop offset="1" stop-color="#e03537"/></linearGradient><linearGradient id="e" x1="16.134" y1="22.337" x2="14.079" y2="23.963" xlink:href="#q"><stop offset="0" stop-color="#be011a"/><stop offset=".38" stop-color="#d51a2b"/><stop offset="1" stop-color="#ed333d"/></linearGradient><linearGradient id="f" x1="13" y1="28.61" x2="20.354" y2="24.891" xlink:href="#q"><stop offset="0" stop-color="#fa3a45"/><stop offset="1" stop-color="#dc2a31"/></linearGradient><linearGradient id="g" x1="16.726" y1="18.949" x2="15.039" y2="18.66" xlink:href="#q"><stop offset="0" stop-color="#ff3f44"/><stop offset="1" stop-color="#e13a3b"/></linearGradient><linearGradient id="h" x1="21.854" y1="28.802" x2="26.708" y2="30.09" xlink:href="#q"><stop offset="0" stop-color="#e4c7d3"/><stop offset="1" stop-color="#ddb4c1"/></linearGradient><linearGradient id="i" x1="17.636" y1="11.555" x2="20.702" y2="10.954" xlink:href="#q"><stop offset="0" stop-color="#e63e3e"/><stop offset=".561" stop-color="#c92b30"/><stop offset="1" stop-color="#ac1721"/></linearGradient><linearGradient id="j" x1="21.462" y1="11.297" x2="22.075" y2="13.688" xlink:href="#q"><stop offset="0" stop-color="#d4222e"/><stop offset=".478" stop-color="#e13036"/><stop offset="1" stop-color="#ee3e3f"/></linearGradient><linearGradient id="k" x1="12.847" y1="17.268" x2="28.434" y2="22.799" xlink:href="#q"><stop offset="0" stop-color="#e03e3e"/><stop offset="1" stop-color="#fc3e40"/></linearGradient><linearGradient id="l" x1="13.283" y1="27.072" x2="9.518" y2="31.626" xlink:href="#q"><stop offset="0" stop-color="#572818"/><stop offset=".6" stop-color="#8a4c30"/><stop offset="1" stop-color="#be7049"/></linearGradient><linearGradient id="m" x1="26.88" y1="30.884" x2="31.111" y2="29.147" xlink:href="#q"><stop offset="0" stop-color="#945352"/><stop offset="1" stop-color="#d0939f"/></linearGradient><linearGradient id="n" x1="17.64" y1="16.967" x2="19.759" y2="19.06" xlink:href="#q"><stop offset="0" stop-color="#b60215"/><stop offset=".102" stop-color="#d02029"/><stop offset="1" stop-color="#eb3e3e"/></linearGradient><linearGradient id="o" xlink:href="#H" x1="32.071" y1="30.396" x2="34.797" y2="30.396"/><linearGradient id="p" xlink:href="#H" x1="32.068" y1="31.202" x2="34.921" y2="31.202"/><linearGradient id="q" gradientUnits="userSpaceOnUse"/></defs><circle cx="22.089" cy="22.053" r="19.05" fill="#f0f0f0"/><path d="M11.126 34.664c.007.075 4.88.4 5.386.233.1-.033-.244-.177-.37-.205-.288-.063-5.032-.218-5.015-.028z" fill="url(#D)"/><path d="M16.872 34.16c3.676.025.807-.564-.366-.416l.366.416z" fill="url(#U)"/><path d="M14.41 9.107l6.607-.48 2.57-4.433c-.903-.095-2.13-.34-2.244-1.39l-.128-.82c-.096-.233-2.997-.33-3.164-.11-.273.357-.002 1.464-.665 1.845-.8.46-2.552.63-3.535 1.23-.617.376.21 3.605.557 4.16z" fill="url(#L)"/><path d="M23.49 3.895l3.336.35c.055.033-.094.6-.094.6l1.053.37c.033.067-.37.91-.875 1.63-.98 1.398-.377.526-.377 1.147 0 .224-1.412 1.684-1.7 1.923.25.74-.05.884-.183 1.42-.817 3.267-.973 4.867-.094 8.068.555 2.02 1.064 3.056 1.064 5.286-3.852 4.82-6.73 11.476-11.655 4.552-.054-1.354.003-3.215-.247-4.524-.254-1.33.162-.987.25-1.856a756.34 756.34 0 0 1 1.02-3.336c.216-.67.266-.637.11-.698s-.587-.3-.67-.416.033-.188.11-.327c.253-.45-.157-.364-.028-.73.233-.66.433-2.744.526-2.876.122-.172.2-.105.183-.4-.087-1.6-1.437-4.054-.67-5.314.97-1.594 4.55-.177 4.887-.493.177-.166 1.6-1.02 2.444-2.06s1.518-2.24 1.612-2.31z" fill="url(#k)"/><path d="M24.214 24.6l-.37-2.626c-.3-1.716-1.413-3.82-1.39-5.524.01-.83-.04-.886-.04-.886-.192 1.476.273 3.034.765 4.416.5 1.403.67 3.94 1.008 4.677l.028-.055z" fill="#ec3138"/><path d="M8.405 33.502s-.003.213.022.266.402.285.416.294-.05-.58-.05-.58l-.388.02z" fill="url(#P)"/><path d="M21.026 13.747c-1.268 1.28-2.673 2.554-4.372 3.225l-.28 5.31s4.537-6.018 4.653-8.533z" fill="url(#n)"/><path d="M19.806 31.046c-2-2.71-3.946-5.957-3.854-9.433-.365.342-1.04.982-1.468 1.183.42-.23 2.013-2.14 1.94-2.23 0 0-.162.824-.16 1.7.008 2.437 2.068 6.8 3.7 8.44l-.17.344z" fill="#ff3a40"/><path d="M16.35 20.637c-.133-.643-.793-1.03-1.238-1.476l.473-1.682 1.07-.507-.305 3.665z" fill="url(#g)"/><path d="M19.976 30.702c-1.076-1.36-1.594-2.413-2.402-3.917-1.055-1.964-1.46-3.604-1.224-5.807.243-1.007.305-2.922.305-4.006l.017 1.413c-.098 3.56-.938 4.98 1.058 8.51l2.247 3.807z" fill="#d5061b"/><path d="M19.457 31.907c-1.9-.385-3.672-2.334-4.67-3.9-1.125-1.765-.737-1.67-1.092-3.4-.086-.416-.18-.558-.016-.948.204-.484 1.784-1.6 2.3-2.067-.108 3.413 1.774 6.8 3.863 9.384l-.383.93z" fill="url(#f)"/><path d="M19.43 31.9c-1.8-.227-5.536-4.404-5.57-5.215l.103 2.563c.565.832 1.107 1.518 1.87 2.17.407.347.746.23 1.157.186l2.155 1.19.282-.896z" fill="url(#T)"/><path d="M16.48 30.156l.315 1.493c.14-.046-.056-1.375-.315-1.493z" fill="#b50a17"/><path d="M14.693 22.67c-.001.763-.185 1.32-.46 2.016l1.748-2.316-.028-.753-1.26 1.053z" fill="url(#e)"/><path d="M13.977 22.99c-.48-.096 2.1-2.27 2.295-2.58l-.107-.208c-.046-.073-2.007 2.005-2.188 2.787z" fill="#a30004"/><path d="M15.51 19.595a2.57 2.57 0 0 1 .582.549s-.548-.344-.582-.55z" fill="#cd1425"/><path d="M15.25 18.905s-.457-.186-.64-.337-.38-.2.075-.56c.463-.367 1.92-.95 1.97-1.002 0 0-.88.404-1.034.57s-.37 1.33-.37 1.33z" fill="#95020b"/><path d="M15.46 17.382c1.743-1.07 4.683-2.106 5.402-4.178 0 0 .188.166.072.476-.255.68-2.636 2.213-3.38 2.66-.47.283-1.945.92-2.095 1.042z" fill="#d8222e"/><path d="M14.523 17.625c.253-.548 2.084-1.368 2.72-1.73.194-.11 1.324-.842 1.596-1.08s-.86.553-1.6 1.003c-.613.378-2.397 1.115-2.75 1.58-.077.102.012.217.026.23z" fill="url(#C)"/><path d="M14.993 16.845c1.26-.85 2.446-1.218 3.768-2.222.52-.394 1.335-1.13 1.585-1.762-.947 1.153-1.806 1.992-3.136 2.704-.704.377-2.106 1.008-2.216 1.28z" fill="url(#Q)"/><path d="M19.542 14.168c.372-.34.917-.963 1.003-1.468.208.233.448.66.39.98-.653-.192-.907.066-1.392.488z" fill="url(#A)"/><path d="M20.968 13.552s.048-.268-.265-.643-.684-.663-.596-.907.6-.587.6-.587c-.008.452.368 2.04.262 2.138z" fill="#ff5252"/><path d="M20.567 11.448c.032.043 2.642-.78 2.887-.826-.735.264-2 .253-2.536.615-.338.233-.35.21-.35.21z" fill="#f8454c"/><path d="M20.124 11.714c-.412-.618 1.078-1.4 1.474-1.613.903-.484 1.45-.01 2.65-.914-.812.836-1.69.675-2.71 1.047-.646.235-1.353.726-1.413 1.48z" fill="url(#K)"/><path d="M26.258 8.05c-.4.602-.906 1.075-1.396 1.6 0 0 1.302-.875 1.396-1.6z" fill="#e14343"/><path d="M20.703 10.47c1.048-.637 2.69-.803 3.18-1.22 1.44-1.224 2.788-3.058 2.87-5.022l-.14-.018c-.27 1.846-1.344 4.4-3.136 5.2-1.037.463-1.77-.035-2.776 1.058z" fill="url(#M)"/><path d="M26.166 7.44c.656-.61 1.153-1.208 1.558-2.012-.354.812-.87 1.528-1.402 2.23l-.156-.22z" fill="#b5312b"/><path d="M26.06 7.2c.75-.703.952-1.214 1.502-1.99 0 0-.482 1.524-1.502 1.99z" fill="#db2c38"/><path d="M21 13.246a6.02 6.02 0 0 1-.304-1.805c.592-.4 1.42-.55 2.125-.517 0 0-.393 1.42-.47 2.294s-1.35.028-1.35.028z" fill="url(#j)"/><path d="M19.546 8.43s-1.124 1.722-1.537 2.74c-.454 1.12 1.396 3.128 2.436 1.45-1.026-.747.34-4.41-.898-4.19z" fill="url(#i)"/><path d="M15.257 14.287c-.05-.015.743-.626 1.214-1.036s-1.208.72-1.214 1.036z" fill="#d52d2e"/><path d="M15.756 8.11s-.122.837-.14 1.496c-.015.6.885 3.576.8 3.63l.095-.056c-.195-.992-.832-2.694-.817-3.556l.06-1.513z" fill="#cb1f28"/><path d="M19.4 8.328c-1.535 2.302-.567 2.148-3.097 3.88l.21.97c.005.03 1.266-1.65 1.496-2.008.427-.66 1.39-2.842 1.39-2.842z" fill="url(#d)"/><path d="M20.044 11.118l.12-2.934c.032-.128 3.77-1.887 3.672-4.256l2.99.316c.02.008-1.48 4.46-3.635 5.275-1.41.532-1.74-.2-3.147 1.6z" fill="url(#N)"/><path d="M26.034 7.264c.565-.625 1.188-1.372 1.56-2.13l-.863-.28c-.116.898-.625 1.716-.698 2.4z" fill="url(#S)"/><path d="M8.608 25.56c-.68.574-1.574 2.62-.992 3.402.762 1.022.643 4.475.848 4.62.078.056.283 0 .32-.055.103-.148-.266-2.896-.105-3.47.876.577 1.37 2.704 1.8 3.707.61 1.462 6.412 1.032 6.566.693.12-.26-1.996-2.21-2.55-2.24-.9-.05-2.162-2.106-2.593-2.776-.492-.765-2.605-3.69-3.286-3.88z" fill="url(#X)"/><path d="M8.138 29.554c.313 1.135.355 2.563.464 3.75L8.8 33.3c-.03-.55-.272-2.864-.093-3.23l-.56-.517z" fill="#a27250"/><path d="M8.388 33.304s-.004.212.056.263.185.03.254.014c.164-.04.03-.154-.042-.277h-.27z" fill="#d28b61"/><path d="M8.62 33.305l.052.284c.147-.016.12-.173.117-.29l-.168.005z" fill="#9b5231"/><path d="M7.53 28.8c.224.464 1.71 1.755 1.665 1.823-.263-.74-1.162-1.188-1.665-1.823z" fill="url(#W)"/><path d="M19.676 36.375c3.9-4.054 15.437-.058 9.386 1.396-.894.215-12.06 1.383-9.386-1.396z" fill="#ac9095"/><path d="M19.545 36.518c-1.335 1.128 1.546 1.377 2.117 1.423.9.072-.4-1.854-2.117-1.423z" fill="#ba9096"/><path d="M19.82 36.64s-.493.355-.11.643c1.32.995 8.913.705 9.17.044.113-.3-1.245-.318 1.357.01.135.017-.015.14-1.05.402s-2.995.426-5.777.46c-.093.001-5.75-.225-3.866-1.684l.275.123z" fill="#cbb8bf"/><path d="M21.898 37.827c.092.1-2.593-.738-1.64-.798.39-.025 1.4.536 1.64.798z" fill="url(#c)"/><path d="M8.973 26.75c.635 1.264.872 2.67 1.28 4.012.4 1.312.91 2.426 2.532 2.11l1.7-.576c-.725-.174-1.55-1.057-1.906-1.7-.555-.985-3.257-4.62-3.884-4.915-.383-.18.265 1.035.277 1.058z" fill="url(#l)"/><path d="M9.91 27.015c.083-.07.08 1.51.1 1.7.3-.572 1.88 1.235 2.117 1.48-.422-.752-1.578-2.727-2.216-3.18z" fill="#572617"/><path d="M9.843 28.772s.665.665 1.02 1.651c.299.832.882 2.154 1.804 2.467-.975-.552-1.309-2.077-1.89-3.051-.377-.632-.859-1.069-.934-1.067z" fill="url(#V)"/><path d="M13.068 32.75c.307-.054.498-.132.776-.27-.525-.362-1.287-.998-1.493-1.615 0 0 .244 1.546.718 1.884z" fill="url(#O)"/><path d="M13.09 31.315c.34.42 1.353.968 1.353.968s-.28.136-.372.14-1.005-.87-.982-1.11z" fill="url(#a)"/><path d="M8.505 25.85l.72 1.737c.296.75.484 1.534.726 2.302.302.957.445 1.957 1.19 2.7.75.75 1.998.223 2.857-.05l.57-.183c-.148-.086-1.97.71-2.787.55-.692-.134-1.243-1.3-1.442-1.87-.352-1.005-.513-2.08-.87-3.07l-.937-2.26-.027.14z" fill="#fad7be"/><path d="M10.076 26.98c.305.65.92 1.316 1.342 1.91.466.656 1.37 2.18 1.952 2.713.262.24.556.472.8.518.388.07-.704-.452-1.588-1.65l-1.304-1.9-1.21-1.584z" fill="#f7ceb4"/><path d="M14.39 32.37s.202-.1.418.056.457.4 1.014.776l.62.438-.593-.537-.92-.75c-.172-.105-.443-.094-.54.016z" fill="url(#Z)"/><path d="M12.184 34.05c.304.268.437.39.71.01 0 0-.55-.083-.71-.01z" fill="#fff9f1"/><path d="M16.774 34.184l.155.18c.04.044-.008-.188-.155-.18z" fill="#fce7d8"/><path d="M10.355 33.464c.3 1.128 2.768 1.16 3.713 1.138.66-.016 2.364.056 2.95-.213v.095c-.29.375-4.208.25-4.794.174-.802-.104-1.663-.312-1.87-1.194z" fill="url(#I)"/><path d="M9.827 26.693c.117-.273.577-1.414.9-1.355.612.11 2.026 2.35 2.587 2.987.587.665 2.304 3.692 3.417 3.344.505-.158 1.908.85 2.4 1.115-.178.28-.206.632-.282.952l-2.225.093c-.2-.206-1.746-1.5-1.894-1.54-.124-.035-.233.01-.233.01-1.244-.61-2.35-2.39-3.092-3.585-.252-.406-1.305-1.808-1.567-2.018z" fill="url(#F)"/><path d="M10.685 25.415c.1.523 1.664 3.082 2.03 3.826.21.427.344 1.058.77 1.623s.55.67.852.914c.558.45 1.994.325 2.23-.067.018-.03-.296-.022-.6-.183-1.02-.523-1.903-2.173-2.606-3.054l-1.676-2.255c-.063-.073-.848-.94-.992-.805z" fill="url(#G)"/><path d="M11.915 26.7l-.02.91c.85 1.106 1.82 1.865 2.67 2.926-.605-1.347-1.652-2.76-2.65-3.837z" fill="url(#b)"/><path d="M12.664 29.136c.808.724 1.78 2.602 2.382 2.957-.855-1.047-1.388-2.357-2.493-3.187l.11.23z" fill="#f1ceb7"/><path d="M10.592 25.355c-.435.55 1.927 4.148 2.31 4.807.45.775.933 1.742 1.878 1.978.734.183 1.363-.134 1.996-.442-.58.226-1.208.483-1.84.393-1.072-.152-1.887-1.91-2.233-2.787-.474-1.2-1.39-2.835-2.11-3.95z" fill="#fad7bd"/><path d="M12.476 29.496l.385.4c.04.003-.213-.476-.385-.4z" fill="#fffff9"/><path d="M16.832 31.636l2.038 1.012c-.163-.092-2.01-1.24-2.038-1.012z" fill="#f0dad7"/><path d="M16.613 33.828c.626-.018 1.65.01 2.235-.137l-.001-.103-2.358.105.123.135z" fill="#b36e4c"/><path d="M14.773 32.216c-.02.046.183-.044 1.008-.044.898 0 2.056.95 3.154 1.113l-.087.303-2.358.105-1.717-1.476z" fill="url(#Y)"/><path d="M27.035 36.344c.79 1.75 11.925 1.6 12.013.022l.172-12.007c-1.086-.84-12.51-.605-12.33.116l.144 11.87z" fill="url(#J)"/><path d="M27.012 24.448s.548.288 2.455.377l5.984.044c1.673-.044 3.075-.294 3.325-.37s.335-.154.303-.207-1.917-.474-4.897-.432l-5.05.122c-1.466.09-1.988.28-1.988.28s-.26.064-.13.188z" fill="url(#E)"/><path d="M27.022 24.307s-.13.064-.13.14.132.192.6.292 2.225.213 4.136.263 4.36-.09 5.225-.166 1.823-.2 2.095-.3.276-.145.255-.177l-.197-.085.044.1c.003.075-.375.2-.976.273s-2.317.247-3.134.266l-3.372.036-2.923-.136c-.76-.055-1.213-.15-1.452-.233s-.303-.093-.17-.262z" fill="#e3b0b8"/><path d="M26.908 25.898c3.3-3.34 4.175 8.684 3.178 11.576-.467-.065-3.044-.566-3.052-1.187l-.126-10.39z" fill="url(#m)"/><path d="M27.604 25.73c2.58.96 1.673 9.363 1.296 11.497 0 0-.646-.166-1.223-.393s-.642-.547-.642-.547L26.983 32l.62-6.27z" fill="url(#B)"/><path d="M19.386 36.625l2.427 1.125c2.947.604 6.405-8.005 6.42-10.453.005-.975-.188-1.17-.366-1.385s-2.604-1.38-2.604-1.38c-.05 2.52.603 2.985-.64 5.832-.606 1.387-3.785 5.854-5.236 6.26z" fill="url(#R)"/><path d="M18.98 36.415c-1.772-2.09 3.123-10.166 4.965-11.625.712-.564 1.536-.554 1.754.45.68 3.13-4.798 12.746-6.718 11.176z" fill="#e0b4bf"/><path d="M25.154 24.52c1.316.9-.75 5.864-1.338 6.962l-1.468 2.554c-.255.393 1.432-1.923 2.118-3.324.518-1.058 1.886-4.904 1.223-5.9 0 0-.375-.36-.535-.302z" fill="url(#h)"/><path d="M24.014 31.89s1.164-2.205 1.707-4.377.025-2.745.025-2.745l-.235-.115s.385.372.37 1.16-.45 2.44-.683 3.082-.732 1.777-.965 2.267-.218.73-.218.73z" fill="#d59098"/><path d="M31.77 29.543l.006 2.42h3.385l.01-2.42H31.77zm.14.216l.01 2 3.03-.006.01-1.99-3.053-.005z" fill="url(#H)"/><g fill-rule="nonzero"><path d="M32.492 30.613c-.007.04-.102.04-.108 0l-.06-.306-.057.306c-.007.04-.1.04-.108 0l-.088-.442.08.002.066.37.068-.367c.006-.034.08-.035.087 0l.07.367.066-.368.073-.003c-.006.105-.065.327-.09.442zm.22.012h-.076v-.456h.076v.456zm.32-.39h-.093v.39h-.076v-.39h-.094v-.08h.263v.08zm.347.39H33.3v-.195h-.14v.195h-.076v-.456h.076v.177h.14v-.177h.076v.456zm.41.013h-.17l-.022-.03v-.438h.076v.388h.117v.08zm.202.01c-.253 0-.228-.5.007-.5.247 0 .232.5-.007.5zm.004-.42c-.132 0-.14.34-.002.34s.138-.34.002-.34zm.415.394c-.007.03-.097.03-.104-.001l-.115-.45.08.001.09.372.09-.37.074-.002c-.015.118-.084.325-.116.45zm.374.017l-.204-.007c-.017-.02-.01-.458 0-.468l.202-.007v.077h-.133v.118h.113v.075h-.113v.136h.135v.077z" fill="url(#o)"/><path d="M32.4 31.2c0 .193-.245.228-.32.14v-.095c.05-.044.445.116.068-.153-.048-.034-.068-.083-.068-.14 0-.17.215-.21.282-.132l-.004.096c-.008 0-.174-.102-.174.023 0 .1.216.08.216.262zm.34.174l-.253-.01c-.02-.02-.01-.5-.01-.554 0-.026.103-.026.103 0v.466h.16v.097zm.272.01c-.338 0-.3-.6.01-.6.33 0 .313.6-.01.6zm.006-.503c-.18 0-.186.406-.003.406s.186-.406.003-.406zm.74.452c0 .06-.1.05-.124.028-.048-.047-.17-.344-.202-.436l.002.433c0 .027-.092.028-.092 0v-.52c0-.064.123-.056.15-.01l.175.388-.002-.402h.092v.52zm.12.033c-.023-.022-.013-.55 0-.562l.15-.01c.53 0 .126.845-.15.57zm.093-.478v.394c.3 0 .293-.394 0-.394zm.61.497c-.333 0-.313-.6.01-.6.33 0 .313.6-.01.6zm.006-.503c-.178 0-.187.406-.003.406s.186-.406.003-.406z" fill="url(#p)"/></g><path d="M13.712 5.078c.132 1.408.476 2.63.675 3.992-.544-.717-.868-3.13-.675-3.992z" fill="#47403d"/><path d="M18.032 1.907c.687.2 2.49.25 3.198.114.197-.223-3.21-.42-3.198-.114z" fill="#a68a79"/><path d="M16.134 7.955c0 .028-.29-2.493-.472-3.705l.1-.034.446 3.766-.075-.028z" fill="#c9b4a5"/><g fill="#d6c1b4"><path d="M19.597 2.12c.002-.058-.045.657.005 5.968l.067-.06-.003-5.898-.07-.008z"/><path d="M17.54 3.666c-.02-.03.25.427 1.224.62.368.073 2.182.186 2.394-.238 0 0-.333.327-1.17.388-.543.04-2.313-.14-2.548-.752l.1-.018z"/></g><path d="M13.797 5.85c.97-1.498 2.558-1.425 3.995-1.88-.313-.058-.158-.363-.088-.585-.145.738-4.122 1.04-4.008 1.918a5.95 5.95 0 0 0 .101.547z" fill="#baa799"/><path d="M19.168 8.346c-.004.055 3.502-2.677 3.907-4.252l.24.053c-.477 1.063-3.02 4.366-4.148 4.2z" fill="#9f9181"/></svg>