<svg xmlns="http://www.w3.org/2000/svg" width="10.837mm" height="10.837mm" viewBox="0 0 10.8372 10.8372" shape-rendering="geometricPrecision" text-rendering="geometricPrecision" image-rendering="optimizeQuality" fill-rule="evenodd" clip-rule="evenodd"><defs><style type="text/css"><![CDATA[
    .fil0 {fill:#666666}
    .fil1 {fill:#D6C994}
   ]]></style></defs><g id="Слой_x0020_1"><path class="fil0" d="M6.993 7.771l.355.05c.181.033.514.056.739.041.224-.015.42-.076.484-.116l.109-.099s.088.01.253-.067c.164-.077.271-.219.296-.257.025-.038.094-.123.125-.258.03-.135.006-.236-.019-.314-.025-.078-.08-.144-.152-.201-.071-.057-.15-.091-.182-.184-.033-.093-.032-.16-.003-.253.028-.093.143-.189.177-.215l.128-.116-.026-.123-.12-.029-.162.058-.147.162-.104.242c-.037.126-.031.265-.017.317l.105.173.151.105c.043.02.12.093.13.149.01.057.016.15-.031.242-.046.093-.108.153-.155.182l-.116.035-.059-.056c.004-.05-.049-.214-.088-.316-.04-.102-.219-.42-.331-.564-.112-.144-.309-.352-.458-.494-.148-.142-.27-.206-.327-.236l-.102-.053-.036-.048-.361.185-.326.141-.104.038s.037.264.049.531c.011.267-.009 1.142-.009 1.142l-.01.112c.017.052.072.093.159.099l.145-.014.042.003zm-.407-2.053l.382-.139.31-.151.083-.053.026-.246.037-.245-.061-.225-.061-.194-.087-.278-.091-.093c-.026-.003-.077.021-.131.1l-.163.309-.236.031c-.104.032-.15.086-.163.117l-.074.154-.185.181-.009.16c.009.078.054.182.106.233l.142.077c.048.02.096.072.174.262z"/><path class="fil1" d="M4.236 4.413s.342.143.64.235l.395.109s-.014-.069.046-.183c.06-.114.148-.106.21-.125.061-.018.353-.082.497-.174.144-.093.162-.255.17-.337.008-.082.011-.188-.034-.247l-.256-.078-.341-.006-.116-.216c-.061-.096-.099-.129-.163-.142l-.232-.024-.071-.002-.017-.305c-.018-.092-.057-.116-.08-.126-.024-.01-.082.009-.125.068-.043.059-.13.214-.221.475l-.302 1.079zm-.057.204l1.122.369.296 2.555s.013.112-.053.155l-.21.019c-.077-.016-.241-.015-.439.025-.197.04-.494.113-.724.131-.23.018-.347.018-.448-.003l-.125-.037-.109.035c-.087.008-.169.004-.28-.041-.111-.045-.229-.154-.306-.32-.077-.165-.127-.322-.143-.53-.016-.208.003-.3.033-.37.029-.07.048-.076.077-.041l.134.384c.036.109.105.293.241.45l.147.149s-.011-.227.043-.573c.054-.347.433-1.516.433-1.516l.309-.842z"/></g></svg>