<svg xmlns="http://www.w3.org/2000/svg" xmlns:xlink="http://www.w3.org/1999/xlink" width="163.839" height="163.839" viewBox="0 0 43.349 43.349" shape-rendering="geometricPrecision" image-rendering="optimizeQuality" fill-rule="evenodd" xmlns:v="https://vecta.io/nano"><defs><linearGradient id="A" x1="3.569" y1="32.605" x2="10.783" y2="32.605" xlink:href="#AO"><stop offset="0" stop-color="#ffba03"/><stop offset="1" stop-color="#cc8f3e"/></linearGradient><linearGradient id="B" x1="5.11" y1="15.167" x2="10.576" y2="15.167" xlink:href="#AO"><stop offset="0" stop-color="#79563a"/><stop offset="1" stop-color="#7a4c28"/></linearGradient><linearGradient id="C" x1="9.614" y1="27.044" x2="12.399" y2="27.044" xlink:href="#AO"><stop offset="0" stop-color="#818085"/><stop offset="1" stop-color="#88888a"/></linearGradient><linearGradient id="D" x1="4.354" y1="30.704" x2="9.845" y2="30.704" xlink:href="#AO"><stop offset="0" stop-color="#662718"/><stop offset=".302" stop-color="#755944"/><stop offset=".8" stop-color="#472916"/><stop offset="1" stop-color="#634a36"/></linearGradient><linearGradient id="E" x1="4.155" y1="31.275" x2="10.304" y2="31.275" xlink:href="#AO"><stop offset="0" stop-color="#f7bf72"/><stop offset=".529" stop-color="#febf02"/><stop offset="1" stop-color="#e19d0a"/></linearGradient><linearGradient id="F" x1="8.762" y1="25.355" x2="41.25" y2="25.355" xlink:href="#AO"><stop offset="0" stop-color="#de7a62"/><stop offset=".31" stop-color="#e46753"/><stop offset=".729" stop-color="#e46d59"/><stop offset="1" stop-color="#e97a66"/></linearGradient><linearGradient id="G" x1="4.443" y1="31.134" x2="5.206" y2="31.134" xlink:href="#AO"><stop offset="0" stop-color="#532815"/><stop offset="1" stop-color="#b07950"/></linearGradient><linearGradient id="H" xlink:href="#G" x1="4.904" y1="31.267" x2="5.78" y2="31.267"/><linearGradient id="I" xlink:href="#G" x1="6.192" y1="30.743" x2="7.38" y2="30.743"/><linearGradient id="J" xlink:href="#G" x1="6.869" y1="30.467" x2="7.888" y2="30.467"/><linearGradient id="K" xlink:href="#G" x1="7.808" y1="31.27" x2="8.996" y2="31.27"/><linearGradient id="L" xlink:href="#G" x1="7.913" y1="30.796" x2="8.81" y2="30.796"/><linearGradient id="M" xlink:href="#G" x1="8.166" y1="30.479" x2="9.062" y2="30.479"/><linearGradient id="N" xlink:href="#G" x1="8.61" y1="31.047" x2="9.515" y2="31.047"/><linearGradient id="O" x1="10.641" y1="28.442" x2="11.799" y2="28.442" xlink:href="#AO"><stop offset="0" stop-color="#56555a"/><stop offset="1" stop-color="#919297"/></linearGradient><linearGradient id="P" x1="19.401" y1="23.959" x2="23.768" y2="23.959" xlink:href="#AO"><stop offset="0" stop-color="#5a403f"/><stop offset="1" stop-color="#83888c"/></linearGradient><linearGradient id="Q" x1="17.319" y1="28.196" x2="20.268" y2="28.196" xlink:href="#AO"><stop offset="0" stop-color="#686a6e"/><stop offset="1" stop-color="#7a7d82"/></linearGradient><linearGradient id="R" x1="4.294" y1="30.587" x2="5.292" y2="30.587" xlink:href="#AO"><stop offset="0" stop-color="#b24a2d"/><stop offset="1" stop-color="#5b2217"/></linearGradient><linearGradient id="S" xlink:href="#R" x1="4.697" y1="30.83" x2="5.645" y2="30.83"/><linearGradient id="T" xlink:href="#R" x1="5.466" y1="31.023" x2="6.317" y2="31.023"/><linearGradient id="U" xlink:href="#R" x1="5.586" y1="31.435" x2="6.375" y2="31.435"/><linearGradient id="V" xlink:href="#R" x1="6.146" y1="31.417" x2="7.144" y2="31.417"/><linearGradient id="W" xlink:href="#R" x1="7.22" y1="31.066" x2="8.143" y2="31.066"/><linearGradient id="X" xlink:href="#R" x1="7.302" y1="31.465" x2="8.207" y2="31.465"/><linearGradient id="Y" xlink:href="#R" x1="7.502" y1="30.636" x2="8.424" y2="30.636"/><linearGradient id="Z" xlink:href="#R" x1="8.162" y1="30.901" x2="9.084" y2="30.901"/><linearGradient id="a" xlink:href="#R" x1="8.425" y1="31.344" x2="9.347" y2="31.344"/><linearGradient id="b" xlink:href="#R" x1="9.31" y1="30.787" x2="10.098" y2="30.787"/><linearGradient id="c" x1="5.903" y1="29.704" x2="7.025" y2="29.704" xlink:href="#AO"><stop offset="0" stop-color="#c6996f"/><stop offset="1" stop-color="#c19c82"/></linearGradient><linearGradient id="d" xlink:href="#c" x1="5.91" y1="31.158" x2="6.895" y2="31.158"/><linearGradient id="e" xlink:href="#c" x1="6.496" y1="31.576" x2="7.386" y2="31.576"/><linearGradient id="f" xlink:href="#c" x1="6.641" y1="31.087" x2="7.572" y2="31.087"/><linearGradient id="g" xlink:href="#c" x1="6.656" y1="29.589" x2="7.531" y2="29.589"/><linearGradient id="h" xlink:href="#c" x1="6.818" y1="29.493" x2="7.465" y2="29.493"/><linearGradient id="i" xlink:href="#c" x1="7.141" y1="30.899" x2="8.021" y2="30.899"/><linearGradient id="j" xlink:href="#c" x1="8.413" y1="30.543" x2="9.346" y2="30.543"/><linearGradient id="k" xlink:href="#c" x1="8.948" y1="30.922" x2="9.876" y2="30.922"/><linearGradient id="l" x1="5.174" y1="32.728" x2="6.726" y2="32.728" xlink:href="#AO"><stop offset="0" stop-color="#ffce4d"/><stop offset="1" stop-color="#ffd66d"/></linearGradient><linearGradient id="m" x1="28.496" y1="24.389" x2="34.412" y2="24.389" xlink:href="#AO"><stop offset="0" stop-color="#3e4145"/><stop offset=".251" stop-color="#606468"/><stop offset="1" stop-color="#83888c"/></linearGradient><linearGradient id="n" x1="22.316" y1="33.879" x2="24.163" y2="33.879" xlink:href="#AO"><stop offset="0" stop-color="#e1e4d3"/><stop offset=".722" stop-color="#b0b3a2"/><stop offset="1" stop-color="#7e8170"/></linearGradient><linearGradient id="o" xlink:href="#n" x1="23.225" y1="32.4" x2="24.769" y2="32.4"/><linearGradient id="p" x1="12.722" y1="18.103" x2="13.499" y2="18.103" xlink:href="#AO"><stop offset="0" stop-color="#bc362d"/><stop offset=".141" stop-color="#ee684f"/><stop offset=".278" stop-color="#ed5144"/><stop offset=".451" stop-color="#ef5b41"/><stop offset="1" stop-color="#be543c"/></linearGradient><linearGradient id="q" x1="15.595" y1="24.092" x2="17.988" y2="24.092" xlink:href="#AO"><stop offset="0" stop-color="#271b1f"/><stop offset="1" stop-color="#83888c"/></linearGradient><linearGradient id="r" x1="28.801" y1="28.19" x2="30.597" y2="28.19" xlink:href="#AO"><stop offset="0" stop-color="#606266"/><stop offset="1" stop-color="#7a7d82"/></linearGradient><linearGradient id="s" x1="28.269" y1="26.813" x2="29.17" y2="26.813" xlink:href="#AO"><stop offset="0" stop-color="#ba4f3c"/><stop offset="1" stop-color="#e46c58"/></linearGradient><linearGradient id="t" xlink:href="#c" x1="7.396" y1="30.873" x2="8.413" y2="29.856"/><linearGradient id="u" xlink:href="#c" x1="7.647" y1="30.549" x2="8.573" y2="29.622"/><linearGradient id="v" xlink:href="#G" x1="5.214" y1="30.932" x2="5.214" y2="29.97"/><linearGradient id="w" xlink:href="#G" x1="5.856" y1="30.702" x2="5.856" y2="30.136"/><linearGradient id="x" xlink:href="#G" x1="6.726" y1="30.348" x2="6.726" y2="29.581"/><linearGradient id="y" xlink:href="#G" x1="9.164" y1="30.887" x2="9.164" y2="29.866"/><linearGradient id="z" x1="23.616" y1="34.926" x2="23.616" y2="31.823" xlink:href="#AO"><stop offset="0" stop-color="#748908"/><stop offset="1" stop-color="#dcf31d"/></linearGradient><linearGradient id="AA" x1="22.757" y1="35.159" x2="22.757" y2="33.12" xlink:href="#AO"><stop offset="0" stop-color="#a8a8a8"/><stop offset="1" stop-color="#fff"/></linearGradient><linearGradient id="AB" x1="27.707" y1="26.198" x2="27.707" y2="25.474" xlink:href="#AO"><stop offset="0" stop-color="#ab3f25"/><stop offset="1" stop-color="#e46b57"/></linearGradient><linearGradient id="AC" x1="31.284" y1="26.13" x2="31.284" y2="24.91" xlink:href="#AO"><stop offset="0" stop-color="#b44a34"/><stop offset="1" stop-color="#e46b57"/></linearGradient><linearGradient id="AD" xlink:href="#c" x1="5.733" y1="30.507" x2="5.733" y2="29.736"/><linearGradient id="AE" xlink:href="#c" x1="5.928" y1="31.118" x2="5.928" y2="30.196"/><linearGradient id="AF" xlink:href="#c" x1="6.928" y1="30.814" x2="6.928" y2="30.009"/><linearGradient id="AG" xlink:href="#p" x1="15.034" y1="17.691" x2="15.034" y2="14.291"/><linearGradient id="AH" x1="20.724" y1="26.84" x2="20.098" y2="26.84" xlink:href="#AO"><stop offset="0" stop-color="#b85040"/><stop offset="1" stop-color="#e46753"/></linearGradient><linearGradient id="AI" xlink:href="#R" x1="6.202" y1="29.71" x2="6.202" y2="30.712"/><linearGradient id="AJ" xlink:href="#R" x1="6.671" y1="29.769" x2="6.671" y2="30.645"/><linearGradient id="AK" xlink:href="#R" x1="7.494" y1="29.479" x2="7.494" y2="30.355"/><linearGradient id="AL" xlink:href="#R" x1="8.518" y1="29.699" x2="8.518" y2="30.398"/><linearGradient id="AM" x1="18.921" y1="26.125" x2="18.921" y2="24.565" xlink:href="#AO"><stop offset="0" stop-color="#943f2a"/><stop offset=".322" stop-color="#bb543f"/><stop offset="1" stop-color="#e36955"/></linearGradient><path id="AN" d="M34.437 31.122s-.153.037-.297.164.204.048.36.048-.062-.212-.062-.212z"/><linearGradient id="AO" gradientUnits="userSpaceOnUse"/></defs><circle cx="22.089" cy="22.053" r="19.05" fill="#f0f0f0"/><path d="M10.928 28.772c1.794.96 27.433.732 28.174.155.54-.42-27.488-.51-28.174-.155z" fill="#24272e"/><path d="M3.6 33.243s.05.338.374.587-.222.253-.167.328.46.082.765.016.77.49 3.272.42 2.024-.893 2.024-.893l.435.212s.462-.408.378-.74-7.082.07-7.082.07z" fill="#755216"/><path d="M24.47 34.405c-.117.754-3.54.225-3.425-.53s3.542-.224 3.425.53z" fill="url(#AA)"/><path d="M8.994 25.995s.243.583.357.6.306-.045.317.017-.413.193-.425.362-.25.764.453 1.23.923.544 1.365.584.59.14.78.198 1.897.176 4.343.142l3.023-.01c.16-.023 11.064-.068 12.084-.068l3.216.034c1.925.023 3.352-.017 3.805-.04s.368.085 1.138-.266 1.076-.827 1.1-1.263.074-.527-.13-.73-.124-.226-.634-.238-1.15-.102-1.206-.102l-2.072.368c-.9.153-1.495.272-3.143.31l-5.084.16-8.963-.08c-1.433-.034-4.57-.187-5.59-.295s-1.75-.272-1.993-.43-.278-.176-.73-.176-1.308.023-1.534-.085l-.476-.22z" fill="#7a7d82"/><path d="M19.36 29.13l-2.042-.015c1.43-.032 2.135-.61 2.78-1.85l.17.006s-.43 1.52-.906 1.86z" fill="url(#Q)"/><path d="M10.013 23.118c-.204.143-1.23.935-1.23 1.15 0 .074.204.312.108.527-.13.3-.067 1.524.62 1.544l1.78.008c.334.045.714.496 2.307.616 6.6.496 15.27.714 21.69.115 1.284-.12 2.294-.522 2.848-.573s2.18.062 2.18.062c.932-.278.36-3.466-.97-3.533 0 0-.572.7-.82.753-1.087.27-2.618.393-3.68.895-.397.187-1.128.394-1.128.394-3.595-1.455-14.82-1.413-18.263-.377 0 0-.934-.526-1.4-.662-.824-.242-2.39-.278-3.295-.337l-.212.048c-.074-.017-.512-.405-.537-.63z" fill="url(#F)"/><path d="M20.724 26.427c0-.016-.457.842-.457.842l-.17-.006s.293-.776.626-.836z" fill="url(#AH)"/><path d="M13.378 22.73c.044.62-1.55.51-1.934.456-.368-.05-.776-.198-1.104-.193s-.327.124-.327.124c.044.173.428.64.555.64l.194-.058c.7.01 3.07.192 3.7.498.376.18.622.533.73.76s.22.34.43.447.198.142.34.306c.293.34 2.985.667 3.624.69l9.518-.074c1.32-.09 3.948-.34 5.027-1.082 1.684-1.152 2.58-1.042 4.37-1.454.238-.055.837-.757.837-.757s-.035-.147-.188-.167-.32.184-.824.227-.867.218-1.017.218-.102-.2-.18-.278-.283-.155-.447-.27-.12-.23-.515-.22-1.826.22-2.596.26c-1.323.068-2.68-.03-4.037-.03-.16 0-.58-.34-1.113-.374l-10.796.388c-1.076.056-3.123-.24-3.3-.27s-.86-.14-.955.212zm-2.6.78c.998.05 4 .14 4.59.99.278.402.21.526.578.73s.34.43.906.55 1.653.34 2.655.408c2.663.18 7.525.172 10.192-.113.952-.102 3.94-.7 4.664-1.415.49-.49 2.62-.9 3.36-1.012.397-.06.468.005.612-.074s.617-.45.552-.487-1.276.218-1.44.252c-.278.057-.478.108-.515.045-.384-.65-.227-.21-.53-.53-.116-.122-.074-.18-.227-.153s-1.492.144-1.865.184c-1.145.122-3.64.127-4.78-.003-.45-.05-.914-.3-1.118-.348-1.95.043-9.295.583-11.764.357-1.246-.068-2.152-.23-2.505-.263s-.482.093-.493.266c-.037.586-2.13.462-2.642.35-.555-.12-.896-.196-.23.263z" fill="#e5dfe3"/><path d="M14.133 22.63c-.354-.034-.482.093-.493.266s-.13.348-1.02.413-1.1.05-1.623-.062-.65-.156-.563-.03.334.294.334.294c1.18.058 4.07.053 4.7 1.183 1.778-.424 5.19-.47 7.102-.56l3.682-.137c1.668.064 5.91.554 7.295 1.127.788-.223.792-.745 2.072-.946.106-.016 2.65-.577 2.698-.603.144-.08.617-.45.552-.487s-1.276.218-1.44.252c-.278.057-.478.108-.515.045s.005-.2-.12-.306l-.4-.224c-.116-.122-.074-.18-.227-.153-.878.162-3.446.348-4.264.243-.487-.062-1.93-.01-2.38-.062s-.914-.3-1.118-.348c-1.9-.45-9.284.49-11.764.357-1.246-.068-2.152-.23-2.505-.263z" fill="#83888c"/><path d="M19.21 29.115c.486-.1.97-2.018 1.43-2.703l7.604-.042c.485-.014.852 2.462 1.83 2.74-2.99.046-7.998.31-10.864.006z" fill="#333743"/><g fill="#808490"><path d="M23.17 27.45c.277-.556 1.318.1.6.22-.204.034-.526-.028-.6-.22zm.028.008c.253-.473 1.195.085.536.188-.185.03-.48-.024-.536-.188zm.906-.444c.13-.17.848-.256 1 .147.108.302-1.226.394-1-.147zm.06.028c.105-.142.694-.213.813.122.1.252-1.006.327-.813-.122zm2.563.648c-.277-.555-1.317.1-.6.22.203.034.526-.028.6-.22zm-.027.01c-.253-.474-1.195.085-.536.188.185.03.48-.024.536-.188zm-.55-.542c-.13-.17-.846-.255-1 .147-.107.302 1.226.394 1-.147zm-.06.028c-.105-.14-.696-.213-.813.122-.1.252 1.006.327.813-.122z"/><path d="M24.297 27.622s-.495.224-.592.36c-.44.622 2.1.443 2.237.39.498-.188-.83-1.193-1.645-.75zm.013.037s-.464.196-.554.316c-.413.545 1.963.39 2.097.343.467-.165-.778-1.047-1.543-.66z"/></g><path d="M30.597 29.048l-.6.062c-.523.007-1.026-1.398-1.195-1.84l.368-.007s.342 1.474 1.427 1.785z" fill="url(#r)"/><path d="M28.27 26.388l.533.882.368-.007s-.61-.907-.9-.876z" fill="url(#s)"/><path d="M11.573 28.717c-.932-.473-.552-.486.227-.55 0 0-.31.29-.227.55z" fill="url(#O)"/><path d="M9.636 27.006c.738-.064 1.833-.3 2.446.18.317.244.102.08-.102-.187-.198-.258-1-.344-1.308-.26-.272.074-1.06.142-1.036.266z" fill="url(#C)"/><path d="M9.294 26.302c-.015.064 1.37.273.95.4-.235.07-.76.042-.76.042s.203-.1.185-.13-.248.038-.317-.017-.457-.574-.058-.293z" fill="#828387"/><path d="M36.914 26.783s.768-.26 1.14-.304 1.08.17 1.568.175l.7.013c.73.448-1.557-.03-1.562-.03-1.148-.098-2.24.812-1.838.145z" fill="#615c63"/><path d="M37.745 27.753s.09.532.178.626.906.127.8-.014-1.1-.187-.725-.35c.977-.425-.32-.438-.263-.26z" fill="#737278"/><path d="M37.892 28.466l.13.218s.724.008-.13-.218z" fill="#3f3e44"/><path d="M38.085 28.814c.182.135.8.048.714.133-.068.06-.734.104-.714-.133z" fill="#36353b"/><path d="M36.276 27.04l-1.512.396c-.243.114-.42-.118-.42-.118l1.93-.278z" fill="#77787d"/><path d="M9.444 26.326l1.752.01-.68-.244z" fill="#ae4e38"/><path d="M11.903 25.197c1.45.034 2.518-.034 3.947.363 0 0 .08.125.212.227.287.22-.15-.25-4.16-.6zm20.882.65c.055.052 3.634-.174 3.37-.255-.238-.04-2.322.272-2.5.16s.18-.045.7-.266 2.94-.645 3.086-.714c.292-.135-2.724.92-2.468-.142 0 0-.3.133-.515.332-.64.6-.867.58-1.672.887zm.8.114c.702.252 3.866.074 4.615-.204l-4.615.204z" fill="#c45544"/><path d="M38.498 26.458l1.82.108c.08-.043.158-.22.158-.22s-.844.09-1.977.112z" fill="#a14133"/><path d="M8.784 24.267l1.766-.52c-.2-.168-.46-.36-.537-.63 0 0-.766.505-1.23 1.15z" fill="#d26f52"/><path d="M15.548 24.76c2.46-.264 6.745-.164 4.035 1.432l-2.095-.283c-.458-.09-.806-.055-1.137-.34s-.614-.44-.685-.55-.118-.258-.118-.258z" fill="url(#AM)"/><path d="M26.946 26.198s.742-.633 1.133-.68.097.65.097.65l-1.23.03z" fill="url(#AB)"/><path d="M28.985 26.097c.002.033.193-.487.55-.464s.583.21 1.15.13 1.347-.215 1.53-.334.63-.52.63-.52.687.157.713.213-.313.3-1.27.5-2.215.473-3.302.473z" fill="url(#AC)"/><path d="M19.4 24.254s1.49-.153 1.87-.368.52-.22 1.076-.085l1.422.253-4.367.2z" fill="url(#P)"/><path d="M11.3 23.54s-.46-.32-.478-.28c-.026.067.315.27.478.28zm1.915-.3s.43.012.504-.214.255-.26.408-.238c.028.004 3.433 1.942.453.05-.497-.315-.72-.35-.96.177-.077.17-.406.224-.406.224z" fill="#3e4145"/><path d="M15.61 24.68c-.003-.014 1.25-.206 1.803-.246.576-.042-1.493-.927-1.817-.785 0 0 .173.24.014 1.03z" fill="url(#q)"/><path d="M21.694 22.524l.257.255c.147.16-.113 1.03-.3 1.19s-.1.226-.1.226l.193-.013s.02-.32.19-.616.215-.657.147-.832-.24-.22-.24-.22l-.146.01z" fill="#3e4145"/><path d="M28.496 23.726c.666.57 3.588.942 4.37.545l1.232-.637c.226.004.17.706.314.958-.454.37-.393.552-.91.46l-4.9-.838-.104-.488z" fill="url(#m)"/><path d="M25.312 23.972l.133-.003.006-1.284z" fill="#635a5d"/><path d="M27.865 22.555l.085.062.187-.042c.065 0-.073.408.045.64s.24.975.24.975l.177.024c-.06-.378-.372-1.17-.26-1.48.045-.124.01-.204.01-.204l-.486.026zm.675.025c.017.125.18.18.23.1l-.23-.1zm7.76.154c-.476.14-1.9.6-1.928 1.214a7.84 7.84 0 0 0 .039.644c-.534-.3-.064-.73-.277-.916-.13-.113.034-.147.487-.385s1.404-.645 1.68-.557z" fill="#3e4145"/><path d="M36.997 23.784l.827-.272c.187-.093.408-.233.35-.258s-1.178.53-1.178.53z" fill="#545253"/><path d="M37.158 23.06l.454.18-.33.064c-.07.008-.128-.083-.125-.245z" fill="#c97e78"/><path d="M22.268 33.646c-.144.687 1.005 1.28 1.712 1.107.068-.017.07-.134.07-.134l.037-.02c.026.001.034.086.155.058s.446-.28.62-.57c.2-.335.253-.888.053-1.236-.09-.4-.46-.7-.82-.84-.12-.047-.893-.186-.893.076l-.073.001c-.048-.008-.09-.04-.265.053-.393.208-.747.862-.665 1.306l.07.2z" fill="url(#z)"/><path d="M22.316 33.558c.233-.217.98.257 1.168.407.156.126.483.655.52.658l.053-.03c.105-.124-.622-.828-.786-.924-.19-.112-.873-.538-.957-.112z" fill="url(#n)"/><path d="M23.225 32.123c.458.107 1.13.396 1.544.62-.276-.228-1.243-.685-1.544-.62z" fill="url(#o)"/><g fill="#84990c"><path d="M22.807 34.534c.275.048.798.038 1.015-.147.04.077.11.23.21.235l-.064.1c-.178.172-.944-.02-1.16-.19z"/><path d="M24.05 34.554c.142.074-.016-.21-.016-.3s.48-.28.603-.77.14-.64.176-.647c.325-.068.197.935.104 1.132-.076.163-.474.687-.722.68-.08-.003-.145-.107-.145-.107z"/><path d="M24.45 32.538c.06.013.3.032.33-.001a.5.5 0 0 0 .103.188l.033.123c-.15-.12-.292-.225-.465-.3z"/></g><g fill="#2b2b2b"><use xlink:href="#AN"/><use xlink:href="#AN" x="0.077" y="-0.082"/><use xlink:href="#AN" x="-17.905" y="2.332"/><use xlink:href="#AN" x="-17.877" y="2.25"/><use xlink:href="#AN" x="2.185" y="2.278"/><use xlink:href="#AN" x="2.213" y="2.198"/></g><path d="M31.963 25.234c.705.73 3.825 4.126 3.442 5.21-.136.385-.93.385-.996.725s.634.317 1.427.317c1.592 0-1.71-6.887-3.873-6.25z" fill="#804c24"/><path d="M11.69 11.976l3.714 2.3c1.404.793.5.578 4.043 1.133s10.424 2.135 11.137 2.135.668-.362.974-.42.52.102.44.69-.25 1.382.193 1.8 1.02 1.982 1.427 3.17c1.13 3.297 3.866 4.88 4.043 5.334.08.204.442 2.877.566 3.34s-1.653-2.163-2.197-2.775-2.548-2.027-3.952-2.978-1.982-2.23-2.514-2.74-1.472-1.1-3.058-.362c-1.72.8-4.667 1.96-6.545 1.96l-.17 4.394s-1.178.928-1.302.793-.17-2.775-.623-4.11-.725-1.12-1.88-1.744-1.387-1.49-1.648-3.176-.487-2.072-1.653-3-2.537-1.823-2.537-1.993-4.598-1.008-4.292-1.212 1.336-.95 1.552-1.472.193-.758.986-1.155 1.937-.453 1.937-.453.52-.442.147-1.02-.5-1.178-.5-1.178.283.59.78.838 1.155 1.36.94 1.89z" fill="#1c1c1c"/><path d="M15.177 20.82s-.668.193-.227 1.268 2.175 2.016 2.175 2.016c-.127-.4-1.307-3.765-1.948-3.284z" fill="#774e2e"/><path d="M10.362 12.137s-.17.815.498.838c1.183.04 1.075-2.25-.34-3.038l-.158 2.2z" fill="#18191b"/><path d="M9.928 11.523c-.005-.04-.164.634.08.85.72.637 1.558-1.19.866-2.084-.368-.475-.35-.283-.663-.666s-.356-.535-.356-.535-.198.578.04 1.025.548 1.208.034 1.4z" fill="#784a26"/><path d="M5.18 15.7s.18-.25.13-.425-.193-.21-.028-.373.776-.527 1.1-.532.43.283.815.272.436-.38 1.008-.39.827.073.595-.153-.317-.453.176-.368.9.526.753.702-.43.232-.034.362.883.34.782.578-.21.36-.53.27-.907-.202-1.23.15c-.83.902-3.604.74-3.533-.09z" fill="url(#B)"/><path d="M16.47 33.626s.023-.804.634-1.1 1.29-.25 1.36-.906.027-1.86.027-1.86c.486-.158 1.24-.443 1.342-1.02l.002 2.154c.1.295.17.67-.114.646s-.476-.023-.487.113-.068 1.517-.25 1.87-2.49.25-2.514.102z" fill="#834c23"/><path d="M34.82 27.666s1.28.938 2.017 2.376.725 2.197.5 2.4-.703.25-.748.702 0 .43.102.498 1.87.125 2.06-.023c1.044-.798-2.614-5.364-3.93-5.955z" fill="#804c24"/><path d="M4.737 15.14c-.135.31.284.558.59.575.164.008.01-.864.01-.864s-.436.03-.6.29z" fill="#18191b"/><path d="M9.854 9.088s-.02.535.14.88c.12.264.72 1.753-.1 1.64l.024-.086s.36-.098.27-.58-.273-.762-.35-.936-.102-.735.008-.92zm.154 3.284s.36.008.66-.37c.503-.636.128-1.345-.064-2.015.666.522.62 1.446.268 2.133-.142.278-.578.5-.865.253z" fill="#60442c"/><path d="M29.308 20.93c.193-1.585-.238.702.442 1.665s.702 1.427.702 1.427c-.833-.96-1.318-1.655-1.144-3.1zm7.995 6.988c-1.595-.816-2.05-.86-2.56-2.743 0 0 1.223 1.87 2.56 2.743z" fill="#080808"/><path d="M19.497 29.284l-.23 2.3s.044-.04.306-.05.34.074.342-.256-.115-.192-.118-.748l.035-1.787s-.05.26-.336.54z" fill="#78451e"/><path d="M16.76 14.976s-.973.156-1.63.428c-.785.325 3.276-.413 4.44.113l-2.81-.54z" fill="#080808"/><path d="M14.037 17.69c.162-.188.485-.452.59-.626.14-.193 1.923-2.338 1.642-2.433-.36-.122-.238-.15-.503-.34-.407.898-2.193 2.838-2.103 2.733.01.058-.107.172-.146.224 0 0 .374.36.52.443z" fill="url(#AG)"/><path d="M12.816 17.797s-.094.026-.092.112c.001.048.5.372.577.428.098.07.126.048.145-.003.053-.135-.63-.43-.63-.537z" fill="url(#p)"/><path d="M14.976 16.635l.023.107c-.146.648-1.112.053-.887-.33l.124-.087-.043.144c-.042.31.49.698.717.247l.066-.08z" fill="#9f8b96"/><path d="M14.157 16.438c-.152.14.086.45.264.5 0 0-.21-.154-.264-.5z" fill="#fffffd"/><path d="M13.447 18.377l.06.01c.063-.02.144-.112.157-.133l-.052-.037.327-.228-.023-.075.07-.024c.024-.03.336-.217.244-.302-.054-.05-.114-.001-.178.087l-.095.13-.522-.443.166-.21c.03-.013.092-.086.06-.12-.075-.08-.308.317-.365.362-.126.097-.282.308-.4.436-.048.052.43.34.52.436l.032.116z" fill="#544e42"/><g fill="#ece2d9"><path d="M12.914 17.84l.1-.087c.128.016.242.008.262-.156 0 0-.128.13-.164.1l-.06-.043c-.048.025-.138.186-.138.186zm.718.36c-.063-.058-.043-.14.046-.14l-.046.14z"/><path d="M13.6 18.244l.042.036-.042-.036zm-.326-.776a1.88 1.88 0 0 0 .376.297c.2.207.25.23.27.225.084-.013-.52-.523-.57-.56-.04-.03-.113.005-.076.037z"/><path d="M13.593 17.03s-.234.235-.22.264l-.04.052c-.008.04.572.456.635.512.03.026.293-.3.234-.29-.114-.003-.21.23-.243.233-.02.002-.446-.378-.522-.443.05-.127.273-.29.157-.327z"/></g><path d="M7.956 30.868c.066.252-.684.313-.75.06s.684-.313.75-.06z" fill="url(#i)"/><path d="M5.856 30.136c.438 0 .438.566 0 .566s-.438-.566 0-.566z" fill="url(#w)"/><path d="M8.235 30.97c-.072-.27.703-.406.777-.136s-.703.406-.777.136z" fill="url(#Z)"/><path d="M9.126 30.91c-.22.21-.713-.52-.492-.732s.712.52.492.732z" fill="url(#j)"/><path d="M7.575 30.704c-.073-.27.703-.406.777-.136s-.703.406-.777.136z" fill="url(#Y)"/><path d="M7.35 30.28c.14.272-.702.533-.84.262s.7-.534.84-.262z" fill="url(#AF)"/><path d="M7.165 29.89c.07.3-.81.457-.88.146s.81-.457.88-.146z" fill="url(#x)"/><path d="M4.518 30.55s-.278.127-.37.418-.254 1.32-.254 1.32c-.182.12-.325.755-.304.955.01.088.103.285.203.384l.133.12s-.167.164-.154.297c.032.346.617.138.8.058 1.45.557 3.595.517 5.064.03a1.14 1.14 0 0 0 .46.148c.403.034.362-.34.194-.487-.05-.045.203-.085.33-.38.164-.383-.053-.888-.327-1.165-.004-.32-.078-1.017-.236-1.277l-5.538-.42z" fill="url(#A)"/><path d="M5.394 31.745l1.2.176c.133.006-.145 1.707-.145 1.707-1.274.084-1.166-1.044-1.054-1.883z" fill="url(#l)"/><path d="M3.9 32.25c-.03.05-.318.62-.132.584 0 0 0-.212.132-.584zm6.42.082s.123.285.117.45c-.014.4.278-.266-.117-.45z" fill="#cc740a"/><path d="M7.575 33.988s1.3-.085 2.058-.363.884-.654.884-.654-.545.805-2.942 1.017z" fill="#e39f16"/><path d="M3.717 32.778s-.008.253.374.52 1.153.472 1.59.54-.73-.1-1.28-.43-.533-.397-.683-.63z" fill="#f9b400"/><path d="M10.03 31.005c.275.522-1.767.818-1.956.833-.588.045-3.918.094-3.906-.873.001-.13.3-.344.3-.344l5.562.384z" fill="url(#E)"/><path d="M4.482 30.64s-.128.24.16.565 1.544.52 2.246.564 1.736-.087 2.25-.285.698-.333.703-.412-.793-.756-1.454-.913-.798-.402-1.164-.482-.902.154-1.28.37l-1.46.595z" fill="url(#D)"/><g fill="#e69307"><path d="M4.084 33.627a1.41 1.41 0 0 0 .145.251c.043.11-.073.24-.073.24s.336-.09.406-.158-.072-.39-.124-.445-.354.112-.354.112z"/><path d="M3.92 34.214s.315.03.48-.038l.215-.114-.026-.112s-.167.262-.67.265z"/></g><path d="M10.215 33.745l-.383-.165c-.057-.012-.197.077-.203.215l-.005.23-.033.08c.023.035.243.142.462.173s.39-.132.162-.53z" fill="#ffbf00"/><path d="M10.176 33.738s.05.148.04.248-.096.194-.096.194l.215-.04c.044-.03-.043.1-.094.123s.14-.005.172-.17l-.238-.355z" fill="#d48d21"/><path d="M9.802 31.098c-.074.287-.854-.066-.78-.353s.854.065.78.353z" fill="url(#k)"/><path d="M7.353 31.453c-.22.212-.712-.52-.492-.73s.712.52.492.73z" fill="url(#f)"/><path d="M5.342 30.984c.438 0 .438.566 0 .566s-.438-.566 0-.566z" fill="url(#H)"/><path d="M8.877 31.18c.118.313-.83.496-.95.182s.832-.496.95-.182z" fill="url(#K)"/><path d="M7.26 30.652c.12.313-.83.496-.95.182s.832-.496.95-.182z" fill="url(#I)"/><path d="M7.644 30.825c-.245.203-.775-.514-.53-.716s.774.514.53.716z" fill="url(#J)"/><path d="M5.524 30.18c.205.21-.417.752-.62.54s.417-.752.62-.54z" fill="url(#v)"/><path d="M5.092 31.31c-.115.198-.65-.154-.534-.35s.648.154.534.35z" fill="url(#G)"/><path d="M8.695 30.652c.115.23-.552.52-.666.287s.55-.518.666-.287z" fill="url(#L)"/><path d="M8.843 30.8c-.22.176-.677-.465-.458-.64s.677.465.458.64z" fill="url(#M)"/><path d="M9.43 31.184c-.082.268-.82-.004-.738-.272s.822.004.738.272z" fill="url(#N)"/><path d="M9.504 30.634c-.17.252-.85-.262-.68-.515s.85.262.68.515z" fill="url(#y)"/><path d="M6.395 30.784c-.03.334-.965.08-.933-.254s.965-.08.933.254z" fill="url(#AE)"/><path d="M6.723 30.963c.172.196-.47.587-.642.39s.47-.587.642-.39z" fill="url(#d)"/><path d="M7.315 31.538c.07.25-.677.327-.748.076s.677-.327.748-.076z" fill="url(#e)"/><path d="M6.1 30.24c-.037.265-.774.026-.735-.24s.774-.026.735.24z" fill="url(#AD)"/><path d="M8.157 30.7c-.205.213-.7-.478-.505-.692s.71.478.505.692z" fill="url(#t)"/><path d="M8.5 30.262c-.074.287-.854-.064-.78-.352s.854.065.78.352z" fill="url(#u)"/><path d="M7.508 29.696c-.024.296-.852.082-.83-.213s.852-.083.83.213z" fill="url(#g)"/><path d="M7.112 29.92c-.295.032-.236-.823.06-.854s.236.823-.06.854z" fill="url(#h)"/><path d="M6.102 29.934c-.2-.22.523-.678.723-.458s-.523.677-.723.458z" fill="url(#c)"/><path d="M6.347 30.43c-.18-.214.47-.662.648-.448s-.47.662-.648.448z" fill="url(#AJ)"/><path d="M7.17 30.14c-.18-.214.47-.662.65-.447s-.47.662-.65.447z" fill="url(#AK)"/><path d="M7.364 31.517c-.062-.272.72-.376.78-.104s-.72.377-.78.104z" fill="url(#X)"/><path d="M5.588 31.397c.003-.28.786-.202.785.077s-.787.202-.785-.077z" fill="url(#U)"/><path d="M9.31 30.75c.002-.28.787-.203.784.077s-.786.203-.784-.077z" fill="url(#b)"/><path d="M8.498 31.412c-.073-.27.703-.405.776-.135s-.703.406-.776.135z" fill="url(#a)"/><path d="M7.294 31.134c-.073-.27.703-.406.776-.136s-.703.406-.776.136z" fill="url(#W)"/><path d="M8.13 29.977c.026-.278.8-.135.775.143s-.8.135-.775-.143z" fill="url(#AL)"/><path d="M6.015 29.865c.233-.154.606.54.373.694s-.606-.54-.373-.694z" fill="url(#AI)"/><path d="M5.51 30.928c.043-.276.808-.084.764.192s-.808.084-.764-.192z" fill="url(#T)"/><path d="M4.788 30.925c-.09-.264.674-.454.765-.2s-.673.454-.765.2z" fill="url(#S)"/><path d="M4.495 30.845c-.2-.194.395-.7.596-.515s-.395.71-.596.515z" fill="url(#R)"/><path d="M6.348 31.675c-.2-.194.395-.7.596-.515s-.395.71-.596.515z" fill="url(#V)"/></svg>