<svg xmlns="http://www.w3.org/2000/svg" xmlns:xlink="http://www.w3.org/1999/xlink" width="163.839" height="163.839" viewBox="0 0 43.349 43.349" shape-rendering="geometricPrecision" image-rendering="optimizeQuality" fill-rule="evenodd" xmlns:v="https://vecta.io/nano"><defs><linearGradient id="A" x1="11.039" y1="36.982" x2="19.205" y2="36.982" xlink:href="#O"><stop offset="0" stop-color="#d6d6d8"/><stop offset="1" stop-color="#dee0df"/></linearGradient><linearGradient id="B" x1="15.272" y1="32.274" x2="26.931" y2="32.274" xlink:href="#O"><stop offset="0" stop-color="#edebec"/><stop offset=".141" stop-color="#f6f6f6"/><stop offset="1" stop-color="#dde5da"/></linearGradient><linearGradient id="C" x1="6.344" y1="27.066" x2="35.955" y2="8.033" xlink:href="#O"><stop offset="0" stop-color="#8b2cc7"/><stop offset=".322" stop-color="#4d1373"/><stop offset=".78" stop-color="#c41893"/><stop offset="1" stop-color="#613680"/></linearGradient><linearGradient id="D" x1="5.806" y1="27.779" x2="36.576" y2="7.411" xlink:href="#O"><stop offset="0" stop-color="#010101"/><stop offset="1" stop-color="#010101"/></linearGradient><linearGradient id="E" x1="15.207" y1="38.012" x2="15.207" y2="36.254" xlink:href="#O"><stop offset="0" stop-color="#4d4e52"/><stop offset="1" stop-color="#c5c6cb"/></linearGradient><linearGradient id="F" x1="15.044" y1="37.783" x2="15.044" y2="35.842" xlink:href="#O"><stop offset="0" stop-color="#ebebeb"/><stop offset="1" stop-color="#fff"/></linearGradient><linearGradient id="G" x1="5.893" y1="30.235" x2="5.893" y2="7.697" xlink:href="#O"><stop offset="0" stop-color="#ccccce"/><stop offset="1" stop-color="#f5f5f5"/></linearGradient><linearGradient id="H" x1="19.099" y1="35.641" x2="36.929" y2="35.641" xlink:href="#O"><stop offset="0" stop-color="#d8d9dd"/><stop offset=".58" stop-color="#eff0f4"/><stop offset="1" stop-color="#dadbdf"/></linearGradient><linearGradient id="I" x1="36.848" y1="19.171" x2="5.307" y2="19.171" xlink:href="#O"><stop offset="0" stop-color="#d7d7d5"/><stop offset=".361" stop-color="#dfdfde"/><stop offset="1" stop-color="#e7e7e7"/></linearGradient><linearGradient id="J" x1="20.616" y1="35.161" x2="36.673" y2="35.161" xlink:href="#O"><stop offset="0" stop-color="#f2f2f2"/><stop offset="1" stop-color="#f9f9f9"/></linearGradient><linearGradient id="K" x1="36.915" y1="35.283" x2="19.562" y2="35.283" xlink:href="#O"><stop offset="0" stop-color="#a9aaae"/><stop offset="1" stop-color="#ccc"/></linearGradient><linearGradient id="L" x1="22.96" y1="35.788" x2="22.943" y2="36.634" xlink:href="#O"><stop offset="0" stop-color="#585858"/><stop offset="1" stop-color="#fafafa"/></linearGradient><linearGradient id="M" x1="21.403" y1="34.067" x2="21.268" y2="30.207" xlink:href="#O"><stop offset="0" stop-color="#b1b1b1"/><stop offset=".29" stop-color="#797a72"/><stop offset=".502" stop-color="#abaaa5"/><stop offset="1" stop-color="#cfcbc8"/></linearGradient><linearGradient id="N" x1="20.559" y1="36.514" x2="22.456" y2="34.515" xlink:href="#O"><stop offset="0" stop-color="#2b2c31"/><stop offset=".522" stop-color="#4a4b4f"/><stop offset="1" stop-color="#696a6e"/></linearGradient><linearGradient id="O" gradientUnits="userSpaceOnUse"/></defs><circle cx="22.089" cy="22.053" r="19.05" fill="#f0f0f0"/><path d="M6.21 7.633s-.572.22-.682.333-.193.327-.206.643.633 21.258.633 21.258c.042.52.39.842.914.813l29.36-.82s.51-.104.565-.548-.104-3.017-.104-3.017L6.21 7.633z" fill="url(#I)"/><path d="M35.238 8.028L6.21 7.633s-.37.16-.46.555.516 19.37.516 19.37l30.457-.66-.754-18.147s-.053-.67-.73-.723z" fill="url(#D)"/><path d="M6.047 30.235l.43-.005s-.1-.06-.114-.335a6932.46 6932.46 0 0 1-.622-21.59c.016-.403.337-.608.33-.59-.638.15-.724.415-.75 1.042-.014.35.63 21.058.63 21.058s.001.22.095.42z" fill="url(#G)"/><g fill="#030305"><path d="M22.06 28.03c.367-.014.676.267.7.63-.117 0-.22-.023-.29-.126l-.02-.032c-.03-.05-.15-.166-.2-.156-.005.055-.024.442-.06.454l-.15-.04c-.11-.074-.196-.33-.116-.415-.14.025-.34.342-.306.506l.03-.038.05.247.146-.003c-.01-.105-.024-.224.12-.225.13-.001.134.117.137.216l.138-.008c-.012-.077-.064-.33.084-.282.115.065.055.8.186.047l.25-.044c-.03.335-.303.603-.647.616-.888.034-.94-1.315-.052-1.35zm.133.747l.042-.452c-.072-.112-.257-.097-.294.028-.055.188.025.43.252.424zm.122-.236c.047-.002.05.07.003.07s-.05-.07-.003-.07zm.194.266h-.006c-.133 0-.15-.037-.178-.047.115.065.055.8.186.047z"/><path d="M23.16 28.574l.004.004-.005.006a1.37 1.37 0 0 1-.657.231v-.01c.157.001.545-.12.66-.232z"/><path d="M23.155 28.587l.012-.014-.005-.01-.017-.001-.012-.016-.018-.003-.015.004v.006l.004.002.028.007.02.006-.007.01v.01zm-.195.04l-.13.025-.07.004v.004l.2-.023.017-.006-.005-.003z"/><path d="M22.96 28.627l.08-.033.06-.048.012.008-.148.075-.005-.003z"/></g><path d="M15.85 33.617s1.336.463 1.853.524 8.904-.26 9.025-.278.144-.1.144-.1l-11.022-.146z" fill="#5b4c6d"/><path d="M15.82 30.43c-.13.55-.548 2.94.018 3.182.114.05 1.584.42 1.792.465s1.33.033 2.392.004l6.486-.27c.382-.033.37-.02.396-.106l.027-.085-3.96-.507-6.98-2.686-.172.005z" fill="url(#B)"/><path d="M15.992 30.426c-.116.5-.62 2.483-.14 2.807.212.143 1.776.698 1.776.698s.735.098 2.13.053l7.147-.394c-.05-.02-3.35-.514-3.676-.6-.963-.285-.845-1.972-.776-2.735l-6.463.18z" fill="url(#M)"/><path d="M19.156 37.086s-.233.28-.83.406-4.004.433-5.098.45c-.448.007-1.798.07-2.106-.37 0 0 .658.254 1.235.14 1.576-.3 3.202-1.456 4.825-1.363.906.052 2.1.465 1.974.738z" fill="url(#E)"/><path d="M10.957 37.383s.2.4.837.384 1.102-.004 1.78-.327 1.886-.84 2.563-.947 1.325-.094 1.808-.027.75.178.974.304.247.28.247.28.108-.237-.15-.402c-1.218-.783-3.795-.806-5.194-.604-1.045.15-3.008.857-2.865 1.34z" fill="url(#F)"/><path d="M18.254 36.602s-.518-.17-1.282-.127-.994.096-1.435.233-1.098.433-1.6.65-.74.323-1.188.382-1.018.028-1.018.028l1.408-.197s2.322-1.17 3.857-1.218 2.104.462 2.153.535.027.164.027.164-.325-.342-.912-.448z" fill="#636468"/><path d="M17.666 36.263s-1.38-.094-2.1.188l-2.55 1.07c-.64.17-1.14.17-1.506.114s-.46-.14-.46-.14a.87.87 0 0 0 .545.263c.358.04 1.108-.004 1.502-.127s1.48-.676 2.237-.915.955-.284 1.986-.297 1.61.354 1.61.354a.66.66 0 0 0 .199.175l.048.104s.04-.067.015-.186-.118-.205-.268-.274a6.75 6.75 0 0 0-.72-.273c-.227-.067-.527-.055-.527-.055z" fill="url(#A)"/><path d="M13.668 38s-.077-.122.188-.188c.302-.074 4.353-.362 4.372-.35.063.038.1.15.057.188s-2.22.237-4.617.35z" fill="#232227"/><path d="M12.843 36.52c.232-.272.573-.245.902-.245 0 0-.318.38-.902.245z" fill="#e5e5e5"/><path d="M23.35 35.827l-3.683.2s.397-.978.474-1.002 3.21.8 3.21.8z" fill="url(#N)"/><path d="M36.915 35.376s-.006-.084-.075-.1-6.376-1.186-6.46-1.19-10.817.636-10.817.636l7.18 1.78 10.173-1.117z" fill="url(#K)"/><path d="M26.435 36.547l-6.172-1.44s-.135-.037-.157.104-.008.63-.25.757c-.474.253-.716-.22-.733-.628-.025-.613.323-.66.792-.565l6.555 1.492s.118.047.46.04l9.984-.93-.006.188c-.02.047-9.725.994-9.884 1.002s-.424.037-.6-.018z" fill="url(#H)"/><path d="M26.41 36.542l.226.037.216-.004-.024-.27-.246-.016-.158-.035-.014.287z" fill="#85868a"/><path d="M36.877 35.57c-.476.25-9.315 1.104-10.108 1.08a2.77 2.77 0 0 1-.576-.073l-3.274-.726.43-.024 3.114.73a2.76 2.76 0 0 0 .629.004l9.785-.99z" fill="#5e5e60"/><path d="M26.238 36.586l-6.572-.558 3.523-.193z" fill="url(#L)"/><path d="M36.65 35.295l-.412.038v-.092l-.145.106-.453.042v-.09l-.145.104-.484.045v-.096l-.145.11-.648.06v-.114l-.145.128-3.286.304v-.126l-.145.13-.777.08v-.115l-.145.13-.596.055v-.116l-.187.13-.6.058v-.115l-.187.13-.63.06v-.11l-.187.126-.633.06-.52-.116.004-.118.704-.078-.363-.114-1.037.156-.995-.222-.037-.053-.212-.003-3.64-.8.045-.13a2719.64 2719.64 0 0 1 10.369-.616c.04.003 5.58 1.028 5.61 1.048l.01.136zm-13.282-.302l-.164.054h.164v-.054zm.298-.294l-.164.054h.164V34.7zm-.853.04l-.164.054h.164v-.054zm-.874.053l-.164.054h.164v-.054zm4.546.575l-.145.078h.145v-.078zm.726-.357l-.237.077h.237v-.077zm-.76.053l-.237.078h.237v-.078zm.055-.277l-.164.054h.164v-.054zm.274-.306l-.164.054h.164v-.054zm-.73.05l-.164.054h.164v-.054zm-.314.306l-.164.054h.164v-.054zm-.1.277l-.237.078h.237v-.078zm.048.308l-.145.077h.145v-.077zm-.836-.247l-.237.078h.237v-.078zm.11-.295l-.164.054h.164v-.054zm.294-.294l-.164.054h.164v-.054zm-.784.05l-.164.054h.164v-.054zm-.3.3l-.164.054h.164v-.054zm-.12.285l-.237.077h.237v-.077zm6.896-.987l-.164.054h.164v-.054zm-.67.037l-.164.054h.164v-.054zm-.66.03l-.164.054h.164v-.054zm-1.376.094l-.164.054h.164v-.054zm-.722.037l-.164.054h.164v-.054zm-.3.318l-.164.054h.164v-.054zm.74-.053l-.164.054h.164v-.054zm.706-.053l-.164.054h.164v-.054zm.67-.045l-.164.054h.164v-.054zm.684-.045l-.164.054h.164v-.054zm.645-.053l-.164.054h.164v-.054zm.65-.037l-.164.054h.164v-.054zm.61-.042l-.164.054h.164v-.054zm.686.185l-.164.078h.164v-.078zm-.62.05l-.164.078h.164v-.078zm-.64.045l-.164.078h.164v-.078zm-.647.04l-.164.078h.164v-.078zm-.648.047l-.237.078h.237v-.078zm-.7.07l-.237.078h.237v-.078zm-.694.04l-.237.077h.237v-.077zm-.7.06l-.237.077h.237v-.077zm-.69.35l-.145.077h.145v-.077zm.78-.064l-.145.078h.145v-.078zm.727-.048l-.145.077h.145v-.077zm.72-.067l-.145.077h.145v-.077zm.704-.047l-.145.078h.145v-.078zm.702-.053l-.145.077h.145v-.077zm.667-.062l-.145.078h.145v-.078zm.645-.04l-.145.077h.145v-.077zm.645-.053l-.145.078h.145v-.078zm.606-.052l-.145.077h.145v-.077zm-6.26.812l-.145.078h.145v-.078zm.78-.07l-.145.135c-.125.008-.573.05-.475.077l.194.102.872-.124c.07 0 .398.1.398.1l-.6-.186-.254.02v-.124zm.76-.078l-.145.078h.145v-.078zm.76-.073l-.145.078h.145v-.078zm.718-.053l-.145.077h.145v-.077zm.702-.06l-.145.077h.145v-.077zm.722-.04l-.145.078h.145v-.078zm.653-.06l-.145.078h.145v-.078zm.682-.057l-.145.077h.145v-.077zm.645-.053l-.145.078h.145v-.078zm.606-.052l-.145.077h.145v-.077z" fill="url(#J)"/><path d="M19.584 34.743c.45-.018.545.87.32 1.14-.116.14-.52.202-.647-.127s-.1-.606-.026-.765.184-.254.353-.247z" fill="#7c7d82"/><path d="M19.592 35.368l.21-.546.117.142c.03.062-.327.404-.327.404z" fill="#a0a1a6"/><path d="M20.007 35.263l-.416.105.404.297s.05-.292.012-.402z" fill="#bdbec2"/><path d="M19.765 35.97l-.173-.6.404.297s-.024.237-.23.304z" fill="#f7f8fc"/><path d="M19.377 35.92l.215-.55-.292.47.077.082z" fill="#bcbdc1"/><path d="M19.412 34.853l.18.515-.367-.222s.02-.185.188-.294z" fill="#f7f8fc"/><path d="M19.2 35.45l.392-.083-.367-.222s-.058.215-.025.304z" fill="#bdbec2"/><path d="M34.607 8.518l-27.81-.373s-.354.15-.44.524.495 18.285.495 18.285l29.18-.622-.723-17.13s-.05-.632-.7-.682z" fill="url(#C)"/></svg>