<svg xmlns="http://www.w3.org/2000/svg" xmlns:xlink="http://www.w3.org/1999/xlink" width="163.839" height="163.839" viewBox="0 0 43.349 43.349" shape-rendering="geometricPrecision" image-rendering="optimizeQuality" fill-rule="evenodd" xmlns:v="https://vecta.io/nano"><defs><linearGradient id="A" x1="27.922" y1="22.682" x2="27.689" y2="29.605" xlink:href="#AH"><stop offset="0" stop-color="#fbb486"/><stop offset="1" stop-color="#ffa06a"/></linearGradient><linearGradient id="B" x1="15.65" y1="32.577" x2="15.657" y2="32.97" xlink:href="#AH"><stop offset="0" stop-color="#4e4e4e"/><stop offset="1" stop-color="#2f2f2f"/></linearGradient><linearGradient id="C" xlink:href="#B" x1="17.463" y1="32.519" x2="17.469" y2="32.825"/><linearGradient id="D" x1="33.606" y1="16.076" x2="34.139" y2="20.754" xlink:href="#AH"><stop offset="0" stop-color="#c0bdb4"/><stop offset="1" stop-color="#cdccc8"/></linearGradient><linearGradient id="E" x1="18.913" y1="32.564" x2="28.701" y2="32.564" xlink:href="#AH"><stop offset="0" stop-color="#555"/><stop offset=".271" stop-color="#8b8b8b"/><stop offset="1" stop-color="#c2c2c2"/></linearGradient><linearGradient id="F" x1="21.651" y1="22.797" x2="23.351" y2="22.797" xlink:href="#AH"><stop offset="0" stop-color="#c7633a"/><stop offset="1" stop-color="#fcd8be"/></linearGradient><linearGradient id="G" x1="6.697" y1="20.522" x2="15.855" y2="20.522" xlink:href="#AH"><stop offset="0" stop-color="#3d5876"/><stop offset="1" stop-color="#163047"/></linearGradient><linearGradient id="H" x1="5.279" y1="27.328" x2="14.437" y2="27.328" xlink:href="#AH"><stop offset="0" stop-color="#90644b"/><stop offset="1" stop-color="#583a14"/></linearGradient><linearGradient id="I" x1="5.877" y1="13.756" x2="14.973" y2="13.756" xlink:href="#AH"><stop offset="0" stop-color="#ba557c"/><stop offset="1" stop-color="#783155"/></linearGradient><linearGradient id="J" x1="6.689" y1="21.262" x2="15.97" y2="21.262" xlink:href="#AH"><stop offset="0" stop-color="#6787ad"/><stop offset=".451" stop-color="#5a86b3"/><stop offset="1" stop-color="#23425e"/></linearGradient><linearGradient id="K" x1="5.271" y1="27.799" x2="14.553" y2="27.799" xlink:href="#AH"><stop offset="0" stop-color="#bb956e"/><stop offset=".451" stop-color="#d4a861"/><stop offset="1" stop-color="#866832"/></linearGradient><linearGradient id="L" x1="5.869" y1="14.502" x2="15.15" y2="14.502" xlink:href="#AH"><stop offset="0" stop-color="#c46c8d"/><stop offset=".451" stop-color="#f598b7"/><stop offset="1" stop-color="#a45e82"/></linearGradient><linearGradient id="M" x1="29.333" y1="27.253" x2="34.256" y2="27.253" xlink:href="#AH"><stop offset="0" stop-color="#77706a"/><stop offset=".302" stop-color="#49433f"/><stop offset="1" stop-color="#1a1613"/></linearGradient><linearGradient id="N" x1="29.393" y1="26.935" x2="30.07" y2="26.935" xlink:href="#AH"><stop offset="0" stop-color="#7d7872"/><stop offset="1" stop-color="#23201b"/></linearGradient><linearGradient id="O" x1="26.472" y1="30.437" x2="27.41" y2="30.437" xlink:href="#AH"><stop offset="0" stop-color="#c5c1be"/><stop offset="1" stop-color="#eda37e"/></linearGradient><linearGradient id="P" x1="29.387" y1="19.478" x2="34.245" y2="19.478" xlink:href="#AH"><stop offset="0" stop-color="#e7e3e2"/><stop offset="1" stop-color="#e1dfe0"/></linearGradient><linearGradient id="Q" x1="29.952" y1="16.084" x2="33.678" y2="16.084" xlink:href="#AH"><stop offset="0" stop-color="#fdfdfd"/><stop offset="1" stop-color="#8e9085"/></linearGradient><linearGradient id="R" x1="21.116" y1="30.55" x2="24.232" y2="30.55" xlink:href="#AH"><stop offset="0" stop-color="#dba18b"/><stop offset=".459" stop-color="#c6bdc0"/><stop offset="1" stop-color="#fef9f5"/></linearGradient><linearGradient id="S" x1="35.247" y1="27.756" x2="40.285" y2="27.756" xlink:href="#AH"><stop offset="0" stop-color="#69625a"/><stop offset=".129" stop-color="#34302d"/><stop offset=".341" stop-color="#36322f"/><stop offset=".569" stop-color="#211d1a"/><stop offset=".878" stop-color="#161211"/><stop offset="1" stop-color="#3a3635"/></linearGradient><linearGradient id="T" x1="21.727" y1="31.612" x2="26.735" y2="31.612" xlink:href="#AH"><stop offset="0" stop-color="#bd8b70"/><stop offset=".388" stop-color="#c79a87"/><stop offset="1" stop-color="#ca9a83"/></linearGradient><linearGradient id="U" x1="21.42" y1="30.974" x2="27.25" y2="30.974" xlink:href="#AH"><stop offset="0" stop-color="#e0cabd"/><stop offset=".051" stop-color="#5c5358"/><stop offset=".11" stop-color="#ddd8d5"/><stop offset=".278" stop-color="#b8b9be"/><stop offset=".478" stop-color="#fff"/><stop offset=".702" stop-color="#cdced0"/><stop offset=".839" stop-color="#cac5c2"/><stop offset="1" stop-color="#7e7b82"/></linearGradient><linearGradient id="V" x1="30.299" y1="12.941" x2="33.408" y2="12.941" xlink:href="#AH"><stop offset="0" stop-color="#c3322f"/><stop offset=".38" stop-color="#e25c59"/><stop offset=".89" stop-color="#7a0e0c"/><stop offset="1" stop-color="#c1585c"/></linearGradient><linearGradient id="W" x1="13.616" y1="25.457" x2="14.449" y2="25.457" xlink:href="#AH"><stop offset="0" stop-color="#4f4a44"/><stop offset="1" stop-color="#a7a39a"/></linearGradient><linearGradient id="X" x1="31.742" y1="11.649" x2="31.742" y2="9.842" xlink:href="#AH"><stop offset="0" stop-color="#ec8074"/><stop offset="1" stop-color="#a9241d"/></linearGradient><linearGradient id="Y" x1="24.334" y1="31.924" x2="24.334" y2="22.367" xlink:href="#AH"><stop offset="0" stop-color="#ff915a"/><stop offset=".4" stop-color="#fe8340"/><stop offset=".749" stop-color="#ff8440"/><stop offset=".878" stop-color="#ffa87b"/><stop offset="1" stop-color="#a73b15"/></linearGradient><linearGradient id="Z" xlink:href="#B" x1="17.813" y1="32.569" x2="17.816" y2="32.767"/><linearGradient id="a" xlink:href="#B" x1="14.195" y1="32.732" x2="14.199" y2="32.952"/><linearGradient id="b" xlink:href="#B" x1="16.612" y1="32.572" x2="16.618" y2="32.913"/><linearGradient id="c" xlink:href="#B" x1="13.835" y1="32.751" x2="13.842" y2="33.109"/><linearGradient id="d" xlink:href="#B" x1="14.739" y1="32.729" x2="14.745" y2="33.051"/><linearGradient id="e" xlink:href="#B" x1="16.283" y1="32.585" x2="16.288" y2="32.854"/><linearGradient id="f" xlink:href="#B" x1="18.116" y1="32.507" x2="18.119" y2="32.684"/><linearGradient id="g" xlink:href="#B" x1="18.401" y1="32.492" x2="18.405" y2="32.739"/><linearGradient id="h" xlink:href="#B" x1="13.56" y1="32.793" x2="13.567" y2="33.17"/><linearGradient id="i" xlink:href="#B" x1="15.997" y1="32.565" x2="16.003" y2="32.902"/><linearGradient id="j" xlink:href="#B" x1="14.48" y1="32.717" x2="14.483" y2="32.896"/><linearGradient id="k" xlink:href="#B" x1="15.075" y1="32.717" x2="15.081" y2="33.019"/><linearGradient id="l" xlink:href="#B" x1="15.355" y1="32.63" x2="15.361" y2="32.961"/><linearGradient id="m" xlink:href="#B" x1="16.93" y1="32.554" x2="16.937" y2="32.899"/><linearGradient id="n" xlink:href="#B" x1="17.164" y1="32.588" x2="17.169" y2="32.848"/><linearGradient id="o" x1="5.375" y1="32.931" x2="17.277" y2="27.583" xlink:href="#AH"><stop offset="0" stop-color="#c9c9c9"/><stop offset="1" stop-color="#404040"/></linearGradient><linearGradient id="p" x1="6.967" y1="16.808" x2="10.427" y2="18.73" xlink:href="#AH"><stop offset="0" stop-color="#6c6764"/><stop offset=".302" stop-color="#b5b2b1"/><stop offset="1" stop-color="#fefefe"/></linearGradient><linearGradient id="q" x1="21.85" y1="17.346" x2="26.683" y2="17.557" xlink:href="#AH"><stop offset="0" stop-color="#403931"/><stop offset=".2" stop-color="#66645e"/><stop offset=".478" stop-color="#1a1a1a"/><stop offset=".659" stop-color="#222"/><stop offset="1" stop-color="#393534"/></linearGradient><linearGradient id="r" x1="24.826" y1="25.01" x2="18.097" y2="31.178" xlink:href="#AH"><stop offset="0" stop-color="#a8a8a8"/><stop offset="1" stop-color="#b2b2b2"/></linearGradient><linearGradient id="s" x1="37.797" y1="24.639" x2="37.711" y2="23.005" xlink:href="#AH"><stop offset="0" stop-color="#302f2b"/><stop offset=".651" stop-color="#4e4d4a"/><stop offset="1" stop-color="#6d6c6a"/></linearGradient><linearGradient id="t" x1="20.004" y1="27.159" x2="23.19" y2="26.607" xlink:href="#AH"><stop offset="0" stop-color="#ffb186"/><stop offset="1" stop-color="#ffd6c0"/></linearGradient><linearGradient id="u" x1="22.877" y1="25.309" x2="21.081" y2="29.62" xlink:href="#AH"><stop offset="0" stop-color="#7d7d7d"/><stop offset="1" stop-color="#b1b1b1"/></linearGradient><linearGradient id="v" x1="25.873" y1="27.649" x2="28.667" y2="26.096" xlink:href="#AH"><stop offset="0" stop-color="#fea36e"/><stop offset="1" stop-color="#ffcbac"/></linearGradient><linearGradient id="w" x1="12.649" y1="18.644" x2="15.17" y2="18.644" xlink:href="#AH"><stop offset="0" stop-color="#eff3f2"/><stop offset=".8" stop-color="#aaaaa8"/><stop offset="1" stop-color="#65605d"/></linearGradient><linearGradient id="x" x1="14.13" y1="29.11" x2="16.708" y2="34.349" xlink:href="#AH"><stop offset="0" stop-color="#696969"/><stop offset=".62" stop-color="#acacac"/><stop offset="1" stop-color="#f0f0f0"/></linearGradient><linearGradient id="y" x1="24.763" y1="24.583" x2="23.592" y2="25.831" xlink:href="#AH"><stop offset="0" stop-color="#29272a"/><stop offset=".588" stop-color="#3a383a"/><stop offset="1" stop-color="#4b494a"/></linearGradient><path id="z" d="M8.475 29l.023 1.642 5.726.03.153-1.306c-.098-.58-5.283-.493-5.902-.366z"/><path id="AA" d="M5.34 29.146c-.03 1.1-.28 1.41.798 1.63l-.28-1.547s-.517.004-.517-.083z"/><path id="AB" d="M5.993 29.238s.08 1.47.207 1.453 2.226-.08 2.226-.08l.103-1.692-2.536.318z"/><path id="AC" d="M8.608 29.336l4.035-.015c-1.354-.23-4.058-.195-4.058-.195l.023.2z"/><path id="AD" d="M6.46 29.186c-.006 1.608.128 1.724.18.003l-.18-.003z"/><path id="AE" d="M14.24 26.805s.178.166.15.608l-.117 1.935.276-.105-.02-2.4-.3-.028z"/><path id="AF" d="M7.508 23.947c2.572-.382 5.407-.163 8.015-.124.22-.236.224-1.02.15-1.338l.295-.003c.013.403.2 1.59-.332 1.618l-8.127-.154z"/><path id="AG" d="M7.19 22.47c.004.583-.158 1.338.443 1.533v-1.518l-.443-.015z"/><linearGradient id="AH" gradientUnits="userSpaceOnUse"/></defs><circle cx="22.089" cy="22.053" r="19.05" fill="#f0f0f0"/><path d="M12.996 33.45s3.783-.01 10.033.403l6.02.378-.38-.624-15.672-.157z" fill="#aeaeae"/><path d="M7.554 34.368s11.533-3.043 13.632-3.826.622-1.45.622-1.45-13.926 4.364-14.253 5.277z" fill="url(#x)"/><path d="M5.354 30.445c.722.976 4.673.563 5.856.526l-5.856-.526z" fill="#525252"/><path d="M38.658 33.466l-4.47.474-5.325.35-.096-.043s8.247-1.427 9.9-.78zM21.87 31.73c.6.304 5.668.176 4.953-.188-.02-.01-5.53-.1-4.953.188z" fill="#424242"/><use xlink:href="#z" fill="#f2f8f6"/><use xlink:href="#AA" fill="#d9dad4"/><path d="M5.37 26.985c-.285.1-.112-2.267-.105-2.518-.095-.523 7.45-1.933 9.183 1.293v1.202c.623-.453-7.813-.1-9.078.022z" fill="#eff3f2"/><path d="M10.39 23.976c.964.084 3.442.793 3.675 1.807l.323-1.706-3.998-.1z" fill="#585d66"/><path d="M13.75 25.227c.334.565.422.885.458 1.533l.24.075-.002-2.756c-.156.43-.83 1.035-.697 1.148z" fill="url(#W)"/><use xlink:href="#AB" fill="#d9dad4"/><path d="M5.28 27.14c1.708-1.03 7.07-.26 9.25-.308l.023 2.653c-1.82-1.22-8.97-.04-9.206-.323-.075-.1-.068-2.022-.068-2.022z" fill="url(#K)"/><path d="M5.282 27.87c3.556-.783 5.98.18 9.083-.015 0 0 .073-.77-.015-.88-.293-.37-8.83-.307-9.07.165l.003.73z" fill="url(#H)"/><path d="M5.64 28.05c2.458-.568 4.646-.068 6.98-.068.45 0 .617-.245.617-.245s-1.278-.232-3.465-.25-3.71.248-3.976.29-.158.27-.158.27z" fill="#e8d092"/><use xlink:href="#AC" fill="#a0a19b"/><path d="M6.09 30.707l1.845-.2 6.17.075c.22-.236.224-1.02.15-1.338l.295-.003c.013.403.2 1.59-.332 1.618l-8.127-.154z" fill="#a59586"/><path d="M8.31 29.08l-.01 1.428.378.003-.038-1.52z" fill="#5e5c5f"/><path d="M5.77 29.23c.004.583-.158 1.338.444 1.533v-1.518l-.444-.015z" fill="#645656"/><use xlink:href="#AD" fill="#b0acad"/><path d="M5.492 27.017c.008.37.227 3.106-.145 3.135l-.024-3.102.17-.033z" fill="#eae6dd"/><use xlink:href="#AE" fill="#6e5526"/><use xlink:href="#z" x="1.418" y="-6.76" fill="#f2f8f6"/><use xlink:href="#AA" x="1.416" y="-6.76" fill="#d9dad4"/><path d="M6.788 20.225c-.285.1-.112-2.267-.105-2.518 0-.002 9.183-2.704 9.183 2.495-.04-1.345.392-1.186-9.078.023z" fill="#eff3f2"/><use xlink:href="#AB" x="1.407" y="-6.76" fill="#d9dad4"/><path d="M6.697 20.38c.852-.514 6.963-.584 8.2-.428l1.052.12.022 2.653c-1.623-1.09-9.005-.082-9.206-.323-.075-.1-.068-2.022-.068-2.022z" fill="url(#J)"/><path d="M6.7 21.1s.99-.218 3.056-.346c2.11-.13 4.385.433 6.027.33 0 0 .073-.77-.015-.88-.293-.37-8.83-.307-9.07.165l.003.73z" fill="url(#G)"/><path d="M7.057 21.29c1.544-.357 7.3.113 7.598-.313-2.213-.402-5.2-.32-7.44.042-.265.043-.158.27-.158.27z" fill="#bbd7ef"/><path d="M10.026 22.576l4.035-.015c-1.354-.23-4.058-.195-4.058-.195l.022.2z" fill="#a0a19b"/><use xlink:href="#AF" fill="#a59586"/><path d="M9.73 22.32l-.01 1.428.377.003-.038-1.52z" fill="#5e5c5f"/><use xlink:href="#AG" fill="#645656"/><use xlink:href="#AD" x="1.417" y="-6.76" fill="#b0acad"/><path d="M6.91 20.256c.008.37.227 3.106-.145 3.135L6.74 20.29l.17-.033z" fill="#eae6dd"/><use xlink:href="#AE" x="1.418" y="-6.76" fill="#2b4a5f"/><path d="M12.93 19.892l2.078.075.938.106-.01-2.56c-.073-.194-.287-.21-.602-.228l-3.526-.07 1.123 2.676z" fill="url(#w)"/><path d="M9.073 15.482l.023 1.642 5.726.03.153-1.306c-.098-.578-5.283-.493-5.902-.366z" fill="#f2f8f6"/><path d="M5.937 15.626s-.032 1.188.036 1.338.76.293.76.293l-.28-1.547s-.517.004-.517-.083z" fill="#d9dad4"/><path d="M5.97 13.466c-.285.1-.112-2.267-.105-2.518-.127-.7 6.61-.496 7.3-.496.932 0 1.894 1.79 1.894 1.79v1.202c.623-.453-7.813-.1-9.078.023z" fill="#eff3f2"/><use xlink:href="#AB" x="0.597" y="-13.52" fill="#d9dad4"/><path d="M5.877 13.622c.852-.514 6.963-.584 8.2-.428l1.052.12.023 2.653c-1.82-1.22-8.97-.04-9.206-.323-.075-.1-.068-2.022-.068-2.022z" fill="url(#L)"/><path d="M5.88 14.35c3.818-.84 5.986.18 9.083-.015 0 0 .01-.874-.077-.984-.293-.37-8.767-.202-9.008.27l.003.73z" fill="url(#I)"/><path d="M6.237 14.53s1.3-.3 3.48-.278l3.502.2c.45 0 .617-.245.617-.245s-1.278-.232-3.465-.25-3.71.248-3.976.29-.158.27-.158.27z" fill="#f2a7c1"/><use xlink:href="#AC" x="0.598" y="-13.52" fill="#a0a19b"/><use xlink:href="#AF" x="-0.82" y="-6.759" fill="#a59586"/><path d="M8.91 15.56l-.01 1.428.378.003-.038-1.52z" fill="#5e5c5f"/><use xlink:href="#AG" x="-0.82" y="-6.76" fill="#645656"/><use xlink:href="#AD" x="0.598" y="-13.52" fill="#b0acad"/><path d="M6.09 13.497c.008.37.227 3.106-.145 3.135L5.92 13.53l.17-.033z" fill="#eae6dd"/><path d="M14.838 13.285c.29.27.06 2.095.034 2.543l.276-.105-.02-2.4-.3-.028z" fill="#8a4d6b"/><path d="M12.112 13.132l2.078.075.938.106-.01-2.56c-.073-.194-.287-.21-.603-.228l-3.526-.07 1.123 2.676z" fill="url(#w)"/><path d="M6.665 18.505c.766-1.188 2.82-1.185 4.085-1.205-.488-.023-3.937-.268-4.062.37-.042.215-.023.835-.023.835z" fill="url(#p)"/><path d="M35.48 31.918l.042-8.686c.001-.088.042-.197.147-.194l4.285-.03.066.075c.013.07.08 1.373.085 1.886l.18 6.87c-.126.667-5.038.482-4.805.08z" fill="url(#S)"/><path d="M35.555 23.094s.347.6.476.693c1.2.85 3.117.538 3.922-.78l-4.327.042-.072.045z" fill="url(#s)"/><path d="M35.552 23.11s.002.078.104.224c.676.965 1.996 1.046 3.046.733.398-.12 1.29-.486 1.303-1.027l-.062-.035c-.022 0-.3.492-.448.617-.862.723-3.165.71-3.72-.17-.107-.17-.182-.204-.223-.342z" fill="#24201d"/><path d="M35.6 23.055l.25.492c.013.017-.398-.42-.25-.492z" fill="#f5f3f8"/><path d="M36.014 23.786c.25.185.982.47 1.273.414 0 0-.76-.138-1.273-.414z" fill="#535355"/><path d="M29.387 22.6l.008-.708c.003-.06.174-.1.226-.108l.022-1.013c.06-.07.097-.06.18-.043l.052-4.377s.007-.12.063-.198 4.017.026 4.017.026l-.045 4.538c.06-.005.117.063.112.12l-.014.957c.086-.002.205 0 .235.1l.001.72c-.02.08-.342.243-.424.292l-4.186-.07-.084-.133-.165-.1z" fill="url(#P)"/><path d="M29.552 22.7l-.158.06c-.05 1.385-.06 7.262.242 8.56.117.505 2.292.39 2.71.38.297-.006 1.634.082 1.662-.425l.25-8.498-.036-.045-.065-.034s-.453.084-.997.086-2.313-.01-2.313-.01-.948.008-1.294-.078z" fill="url(#M)"/><path d="M33.736 22.748l-.157 8.692c.008.08.272.056.363-.005s.07-.353.07-.353l.245-8.3-.077-.07c-.035-.015-.324.063-.443.047z" fill="#645c59"/><path d="M29.937 22.74l.133 8.448-.587-4.96-.1-3.48.147-.06.397.05z" fill="url(#N)"/><path d="M30.065 22.75l.013-.778.08-.046-.01-1.11.077-.015-.185-.03-.027-4.623.9.017-.035 4.676.114.037-.013 1.068.02.042-.02.777s-.52.008-.9-.013z" fill="#bab9b7"/><path d="M30.968 22.763l.018-.777-.02-.042.013-1.068-.114-.037.035-4.666-.066-.024s.01-.018.323-.02a3.54 3.54 0 0 1 .474.02s-.153.001-.18.066-.03 5.73-.03 5.73l.03.042.02.786s-.42.01-.5-.01z" fill="#fafafa"/><path d="M32.73 22.788l.013-.78-.025-.07.005-1.07.132-.05.04-4.637.69-.01.206-.027.096.03c.05-.08-.154-.123-.203-.124l-.072-.003.153.06-.18.03c-.105.01-.857.014-1.004.015-.843.006-1.758-.014-2.6-.023l.05 1.084.01-1.064.88-.004.59-.006.133.012s-.18-.027-.185.105l-.01 6.52 1.292.017z" fill="#170d0e"/><path d="M29.952 16.13l3.473.01.253-.012c-.064-.102-1.15-.103-1.287-.104l-2.28-.01c-.075.002-.16.115-.16.115z" fill="url(#Q)"/><path d="M33.364 16.052c.086-.004.37-.022.4.07 0 0-.166-.047-.4-.07z" fill="#006993"/><path d="M33.803 18.74l.06-2.55h-.04l-.02 2.55z" fill="#43383e"/><path d="M29.63 21.806l.14.098-.168.025s.176.042.475.043L31 21.97l-.85-.03c-.216-.02-.338-.03-.52-.132z" fill="#7f7979"/><g fill="#fffffd"><path d="M29.647 21.923l.28.02c.013.008-.034.023-.28-.02z"/><path d="M29.96 21.943l.087.001-.087-.001z"/></g><path d="M31.04 21.97l1.008.03c.344.013.65-.003.667-.01s-.865-.028-1.675-.02z" fill="#e2e3de"/><path d="M34.203 21.902c-.132.006-.312.04-.43.03-.13-.013-.725.01-.898.02-.11.006 1.122-.036.502-.036-.38 0-.794.042-1.18.06.292.006 1.838.035 2.006-.074z" fill="#797375"/><path d="M33.9 21.905l.102-.05.007-.07s.055.117-.11.123z" fill="#c2bebf"/><path d="M33.773 20.773l.134-.05c.003-.015.065-4.475.048-4.553s-.127-.112-.127-.112l.06.078-.053.06-.062 4.577z" fill="url(#D)"/><path d="M33.535 20.827v1.1l.122.002.013-1.113z" fill="#d2d1cd"/><path d="M33.167 21.998l.002.754-.002-.754zm.567-.034l-.007.766h.018l-.01-.766z" fill="#d0c7cc"/><path d="M29.72 20.725l.314.058.194.028s-.454-.102-.507-.086z" fill="#b8aeaf"/><path d="M30.214 20.816s.196.042.417.047l.8.001-1.207-.048z" fill="#5e5357"/><path d="M31.43 20.863l1.284-.002-.026-.015c-.015-.005-1.25-.018-1.258.017z" fill="#f3f2f0"/><path d="M32.694 20.834l.047.025c.102 0 1.212-.05 1.194-.122l-.027-.015c.001.067-1.06.106-1.214.113z" fill="#635f60"/><path d="M30.447 15.993c-.076-1.435-.147-3.905.61-5.152.136-.183.837-1 1.008-1 .395 0 1.157 2.507 1.205 2.85.138.97.128 3.35.128 3.35l-2.952-.047z" fill="url(#V)"/><path d="M30.885 11.206c.226.443 1.597.197 1.686-.53.028-.23-.327-.7-.515-.833-.42.254-1.012.91-1.17 1.364z" fill="url(#X)"/><path d="M5.78 34.773c4.07-1.303 8.727-2.606 12.597-4.33.62-.725.216-2.115-.532-2.635 0 0-.284-.15-.4-.163-.498-.052-11.307 3.91-12.75 4.696-.606.616.138 2.695 1.085 2.432z" fill="#131313"/><path d="M4.85 32.343l.15.375c.702.05.77 1.462.568 1.626-.097.08-.332-.12-.477-.302-.107-.134.244.818.822.634 3.737-1.185 9.033-2.83 12.56-4.377.158-.314.157-.967.157-.967L5.897 33.846s-.127-1.178-1.047-1.503z" fill="#1f1f1f"/><path d="M6.04 32.738l2.535-1.006c.387-.266-2.32.737-2.535 1.006z" fill="#1a1a1a"/><path d="M5.398 32.5c3.91-1.736 8.005-3.042 12.032-4.484-4.046 1.342-8.33 2.57-12.207 4.327l.175.157z" fill="url(#o)"/><path d="M5.123 32.32l3.308-1.565-3.596 1.514s.21-.004.288.05z" fill="#686868"/><path d="M9 30.756l5.644-2.14c-1.878.62-3.925 1.16-5.644 2.14z" fill="#636363"/><path d="M4.96 32.883c-.33.3.068 1.645.568 1.384.308-.16.006-1.605-.568-1.384z"/><path d="M4.754 32.387s.16.37.205.393-.136-.468-.205-.393z" fill="#0c0c0c"/><path d="M18.377 30.443c9.725-3.42 9.635-6.23-.93-2.798 0 0 .73.2 1.05 1s.21 1.438-.12 1.808z" fill="url(#r)"/><path d="M18.678 29.33c11.825-4.417 4.966-3.54 1.623-1.6-.122.07 4.722-1.292.042.187l-1.197.344s.653-.3.526-.332-1.312.44-1.312.44l-.13-.188c9.96-3.716 9.876-1.76.233 2.142 0 0 .285-.406.216-1.004z" fill="#cdcdcd"/><path d="M17.892 27.844l1.82-.542-1.71.64z" fill="#b9b9b9"/><path d="M18.077 28.027l4.926-1.457-4.926 1.457z" fill="#676767"/><path d="M18.454 30.414c7.816-3.087 8.12-3.178.054-.152l-.054.152z" fill="#848484"/><path d="M18.575 28.574c3.9-1.355 12.143-3.676 2.144-.004 0 0 .684-.903-2.144.004z" fill="url(#u)"/><path d="M5.538 32.739s.157.154.196.23c.039.076-.018-.236-.196-.23z" fill="silver"/><g fill-rule="nonzero"><path d="M11.105 31.707v-.07l.2-.084v.224c-.133.192-.434.334-.434-.033 0-.336.364-.598.427-.314l-.056.043c-.055-.216-.307-.01-.307.24 0 .278.216.196.31.05v-.112l-.138.058zm.293.11v-.602l.34-.142v.07l-.277.116v.184l.26-.108v.07l-.26.108v.205l.288-.12v.07l-.35.146z" fill="#e6e6e6"/><path d="M11.198 32.318v-.042l.142-.05v.132c-.095.113-.3.197-.3-.02s.263-.343.305-.185l-.04.025c-.037-.12-.22-.017-.22.14s.154.115.22.03v-.066l-.1.034zm.207.065v-.355l.044-.015v.313l.165-.057v.042l-.2.072zm.226-.077l.13-.4.048-.017.137.307-.05.017-.04-.094-.14.048-.037.12-.047.016zm.097-.18l.114-.04-.06-.15-.055.19zm.236-.05l.042-.018c.015.133.236-.004.173-.067-.037-.038-.202.046-.202-.068 0-.125.238-.223.244-.076l-.043.018c-.01-.097-.16-.025-.16.04l.198.048c.1.124-.248.32-.253.124zm.31-.11l.042-.018c.015.133.236-.004.173-.067l-.19-.028c-.086-.115.226-.29.232-.116l-.043.018c-.01-.082-.1-.04-.14-.004l-.005.07.184.02c.1.123-.248.32-.253.124zm.698-.252l.044-.003c-.042.187-.296.27-.296.035 0-.205.244-.33.29-.177l-.044.026c-.04-.117-.2-.016-.2.136 0 .19.18.122.206-.015zm.062.1l.13-.4.048-.016.137.307-.05.018-.04-.094-.14.048-.037.12-.047.016zm.097-.18l.114-.04-.06-.15-.055.19zm.304.043v-.313l-.11.038v-.042l.266-.09v.042l-.11.038v.313l-.044.015zm.32-.114v-.355c.12-.042.277-.13.277.08 0 .196-.12.22-.277.275zm.044-.057c.12-.04.187-.056.187-.203 0-.153-.093-.1-.187-.068v.27zm.294-.057v-.355l.242-.083v.042l-.198.068v.11l.185-.064v.042l-.185.064v.12l.206-.07v.042l-.25.086zm.295-.217l.042-.018c.013.112.182.035.182-.04 0-.092-.21.035-.21-.094s.238-.22.244-.076l-.043.018c-.01-.1-.16-.023-.16.04 0 .088.21-.046.21.093s-.263.243-.267.078zm.333-.003v-.355l.044-.015v.355l-.044.015zm.282-.235v-.042l.142-.05v.132c-.095.113-.3.197-.3-.02 0-.18.257-.363.305-.185l-.04.025c-.037-.12-.22-.014-.22.14 0 .163.154.115.22.03v-.066l-.1.034zm.208.065v-.355l.046-.016.176.218v-.278l.043-.015v.355l-.045.016-.176-.218v.28l-.043.015zm.402-.14l.13-.4.048-.016.137.307-.05.017-.04-.094-.14.048-.037.12-.047.016zm.097-.18l.114-.04-.06-.15-.055.19zm.255.057v-.355l.045-.016.176.218v-.278l.043-.015v.355l-.045.016-.176-.218v.28l-.043.015zm.338-.12v-.355c.12-.042.277-.13.277.08 0 .196-.12.22-.277.275zm.044-.057c.12-.04.187-.056.187-.203 0-.153-.093-.1-.187-.068v.27zm.406-.2l.042-.018c.013.114.182.033.182-.04 0-.093-.21.037-.21-.094 0-.125.238-.223.244-.076l-.043.018c-.01-.097-.16-.025-.16.04 0 .085.21-.043.21.093s-.263.244-.267.078zm.41-.03v-.313l-.11.038v-.042l.266-.09v.042l-.11.038v.313l-.044.015zm.2-.072v-.355l.044-.015v.355l-.044.015zm.36-.25l.044-.003c-.042.187-.296.27-.296.035 0-.202.244-.332.29-.177l-.044.026c-.04-.12-.2-.013-.2.136 0 .19.18.122.206-.015zm.097.088v-.355l.044-.015v.176l.167-.233.06-.02-.14.192.147.16-.06.02-.12-.138-.055.076v.123l-.044.015z" fill="#e0e0e0"/></g><path d="M24.518 31.78c.53 0 2.266.053 2.557-.462.556-.984 1.34-7.598.98-8.086-.46-.622-1.826-.703-1.957-.808-.07-.057-3.278.002-3.658.003-.625.183-1.962.28-2.036 1.1-.148 1.624.397 6.363 1.032 7.73.3.667 2.51.523 3.084.523z" fill="url(#Y)"/><path d="M21.852 22.427l4.83-.003-.603-9.36c-.02-.59-3.29-.5-3.582-.147-.347.417-.644 9.188-.645 9.51z" fill="url(#q)"/><path d="M22.754 22.942l-1.103-.007c.12-.06 1.7-.284 1.103.007z" fill="url(#F)"/><path d="M26.384 23c.308.1.94.2 1.244.207.08.001-.79-.2-1.244-.207z" fill="#f9b689"/><path d="M21.42 30.25c.086.723.064 1.233.873 1.354.467.07 1.383.097 2.224.067s1.477 0 1.944-.173c.498-.185.8-.542.557-1.095l-.716.263-2.062.04-1.602-.06-1.216-.397z" fill="url(#U)"/><path d="M21.116 30.11c.17.878 2.478.865 3.116.622l-1.824-.11-1.292-.51z" fill="url(#R)"/><path d="M27.4 30.094c-.055.5-.53.557-.938.686l.08-.212s.54-.055.857-.474z" fill="url(#O)"/><path d="M21.727 31.346s.103.24.345.295c1.017.237 3.122.182 4.137.067.278-.032.477-.255.502-.278s-.153.1-.456.128c-1.13.106-2.5.19-3.62.083-.17-.016-.635-.1-.907-.294z" fill="url(#T)"/><path d="M21.186 30.073l-.312-1.288c-.107-.527-.24-1.663-.3-2.347l-.113-1.933c-.027-.713.02-1.2.08-1.284s.183.027.183.027l.645 6.962s-.098-.028-.193-.137z" fill="#ffad7d"/><path d="M22.87 23.096c-.56.433.104 6.416.23 7.557-.495.018-1.375-.046-1.72-.443-.217-.78-1.285-6.87-.523-6.99.127-.02 2.014-.123 2.014-.123z" fill="url(#t)"/><path d="M27.024 23.212c.395.263-.333 6.36-.472 7.356 0 0 .367-.053.523-.217.514-.536.91-6.28.753-6.947-.053-.227-.098-.17-.805-.192z" fill="url(#v)"/><path d="M27.2 22.698c.076.05.7.416.685.457l-.05.047c.596.212-.27 5.663-.4 6.386.405-.778.477-1.91.545-2.773.034-.428.284-3.272.093-3.583-.073-.12-.347-.316-.864-.533z" fill="url(#A)"/><path d="M22.316 30.616s.208.054.856.09l2.535.023c.5-.017.832-.067.983-.133s.176-.113.176-.113-.155.07-.483.126c-1.018.17-2.995.082-4.068.008z" fill="#626065"/><path d="M21.99 31.495l.666.148c.986.07 2.53-.05 3.602-.114-1.085-.076-2.284.063-3.4.03l-.867-.063z" fill="#736564"/><path d="M22.343 24.46l-.017.446c-.06-.635-.627-.33-.152.092.087.077.146.15.176.218.106.24-.008.845-.357.583-.09-.068-.07.06-.12.06l.02-.505c.09.788.648.337.218-.043-.213-.19-.333-.46-.173-.738.146-.25.3-.02.35-.02l.054-.092zm.807.9l-.028.47h-.66v-.036c.17 0 .22-1.265 0-1.265v-.037h.397v.037c-.213 0-.143 1.02-.107 1.175.082.345.353-.344.4-.344zm.474-.887c.53-.036.534 1.387.007 1.387-.545 0-.5-1.424-.007-1.387zm.007.063c-.27 0-.276 1.25-.001 1.25s.275-1.25.001-1.25zm.713-.044l.367.83c0-.122.018-.655-.02-.738l-.088-.055v-.037h.246v.037l-.09.084c-.05.212-.01.98-.01 1.248l-.522-1.114c0 .143-.025.932.03 1.006l.067.04.018.036h-.264v-.036l.086-.045c.048-.087.024-.937.024-1.095-.025-.056-.04-.12-.1-.124v-.037h.264zm.547 1.338v-.036c.16 0 .223-1.265 0-1.265v-.037h.333c.35 0 .417.397.417.673s-.073.665-.417.665h-.333zm.284-1.262l.02 1.174c.188.19.25-.52.25-.57 0-.2.01-.608-.268-.605zm.947-.095c.53-.036.534 1.387.007 1.387-.545 0-.5-1.424-.007-1.387zm.007.063c-.27 0-.276 1.25-.001 1.25s.275-1.25.001-1.25z" fill="url(#y)" fill-rule="nonzero"/><path d="M21.922 26.128h4.684v.073h-4.684z" fill="#272027"/><g fill-rule="nonzero" fill="#2b1d1a"><path d="M23.303 27.198v-.713h.097l.375.56v-.56h.09v.713h-.097l-.375-.56v.56h-.09zm.643 0l.274-.713h.102l.292.713h-.108l-.083-.216h-.3l-.078.216h-.1zm.206-.293h.242l-.125-.345-.117.345zm.554.293v-.713h.094v.713h-.094zm.257 0v-.713h.095v.63h.352v.084h-.446z"/><path d="M22.094 28.118v-.713h.088v.63h.327v.084h-.415zm.447 0l.255-.713h.095l.272.713h-.1l-.077-.216h-.278l-.073.216h-.093zm.192-.293h.225l-.117-.345-.11.345zm.974.043l.088.024c-.094.394-.587.298-.587-.136 0-.402.48-.512.576-.156l-.086.022c-.076-.255-.4-.18-.4.133 0 .343.348.413.41.113zm.7.174l.113.066-.026.066-.143-.088c-.486.3-.703-.694-.16-.694.33 0 .407.453.217.65zm-.194-.12l.126.068c.137-.135.103-.516-.15-.516-.37 0-.26.716.09.557l-.087-.04.02-.07zm.848-.516h.088v.412c0 .183-.053.313-.26.313s-.263-.124-.263-.313v-.412h.088v.412c0 .123.02.23.167.23.157 0 .18-.1.18-.23v-.412zm.236.713v-.713h.48v.084h-.392v.218h.367v.084h-.367v.243h.408v.084h-.496zm.62 0v-.713c.744 0 .595.352.344.39.108.055.18.223.242.325h-.11c-.04-.066-.143-.258-.196-.294l-.19-.022v.317h-.088zm.088-.4c.48 0 .5-.236 0-.236v.236z"/></g><path d="M22.588 13.1c.28-.117.876-.153 1.197-.163 0 0-.84-.04-1.197.163z" fill="#a9a097"/><path d="M28.767 34.247l6.418-.444 3.762-.43c.103-.13.103-1.21.032-1.717s-.2-.617-.25-.617l-10.123-.087s-.158.49-.2 1.203.045 1.933.35 2.093z" fill="#b4b4b4"/><path d="M29.04 32.623l9.74-.257s.064.418-.074.48-.357-.048-.61-.048l-9.076.214.02-.388z" fill="#070707"/><path d="M28.767 34.247l6.418-.444 3.66-.38s-.363-.132-.678-.1l-6.155.553-3.15.15s-.08.093-.132.055-.17-.29-.17-.29.048.33.207.453z" fill="#757575"/><path d="M29 32.04l7.087-.322 2.585-.238s.112.55.117.884.047-.53-.005-.807-.177-.44-.177-.44l-7.67.13-2.1.122a3.95 3.95 0 0 0 .151.672z" fill="#7e7e7e"/><path d="M28.915 31.637s.913-.243 1.59-.256 1.235.18 2.007.16l2.688.013c.206.006-2.8.33-2.8.33l-3.405.096s-.068-.01-.068-.345z" fill="#bababa"/><path d="M28.918 31.76l2.595-.096c.797.026.94.103.94.103l-2.65.236-.812.037s-.076.08-.072-.28z" fill="#f1f1f1"/><path d="M28.84 31.37l4.044-.17-4.086-.035z" fill="#e1e1e1"/><path d="M28.803 34.078s.176-.13.183-.72-.01-1.3-.113-1.788-.193-.643-.248-.502-.15.405-.154 1.06 0 1.586.117 1.793.214.154.214.154z" fill="#070707"/><path d="M28.474 31.97s.052-.44.126-.585l.135-.292-.078-.068c-.036.02-.165.33-.183.945z" fill="#545454"/><path d="M28.478 33.016l-9.7.33s-.188.182-.2.224-.096-.122-.096-.122l-.146.148-.104-.193-.16.22-.172-.228-.096.225-.182-.215s-.164.035-.222.15-.138-.132-.138-.132l-.1.203-.138-.215s-.122.12-.122.18l-.106-.167s-.132.026-.186.154-.12-.138-.12-.138-.174.08-.212.167-.113-.158-.113-.158-.12.026-.153.143-.188-.13-.188-.13-.156.148-.167.2-.084-.198-.084-.198-.124.095-.14.166-.158-.16-.158-.16-.166.075-.193.17-.146-.17-.146-.17-.164.127-.175.195-.217-.156-.217-.156l-.145.113-.133-.104c-.018-.008-.048.14-.098.122l-.188-.085-.413-.002-.57-.098c-.06-.035.066-.095.092-.16s.034-.585.07-.566.097.103.16.055.132-.158.186-.1.193.135.215.045.003-.154.158-.05.106-.1.17-.103.116.248.235.164l.132-.16c.1.106.153.28.188.162s.04-.38.097-.248.077.33.14.222.12-.304.166-.193.113.26.17.164.006-.24.098-.14.143.217.2.1.024-.256.114-.148.117.275.188.17.068-.328.122-.228.064.264.148.2l.122-.183c.048.097.087.24.154.164s.093-.293.14-.183.125.27.177.174.1-.248.125-.135l.1-.013.1.158c.06-.093.103-.31.138-.215s.093.296.132.206.1-.283.167-.177.055.286.122.174.1-.293.13-.203.114.35.175.235.125-.293.146-.24.1.373.17.233.11-.325.154-.228.058.183.12.1.05-.215.1-.13.17.185.17.185l9.8-.376s.18.193.007.85z" fill="#090909"/><path d="M28.7 32.435l-8.084.31-1.704.045 9.788-.354z" fill="url(#E)"/><path d="M18.72 32.73l4.412-.277 4.482-.257-8.942.343.048.2z" fill="#535353"/><path d="M13.5 32.805l.18-.01-.254.373z" fill="url(#h)"/><path d="M13.813 32.754l-.106.354.264-.354z" fill="url(#c)"/><path d="M14.067 32.95l.096-.212.164-.003z" fill="url(#a)"/><path d="M14.446 32.718l-.045.177.144-.137-.1-.04z" fill="url(#j)"/><path d="M14.752 32.73l-.106.318.193-.28z" fill="url(#d)"/><path d="M15.076 32.718l-.087.3.177-.29z" fill="url(#k)"/><path d="M15.647 32.578l-.062.39.138-.278z" fill="url(#B)"/><path d="M15.352 32.63l-.063.33s.14-.204.138-.238l-.075-.09z" fill="url(#l)"/><path d="M15.952 32.566l.012.335.083-.27z" fill="url(#i)"/><path d="M16.256 32.586l-.035.267.13-.18z" fill="url(#e)"/><path d="M16.572 32.573l-.05.338.2-.27z" fill="url(#b)"/><path d="M16.9 32.555l-.04.343.145-.273z" fill="url(#m)"/><path d="M17.11 32.6l.087.257.03-.174z" fill="url(#n)"/><path d="M17.425 32.52l.027.304.055-.225z" fill="url(#C)"/><path d="M17.76 32.57l.032.196.074-.16z" fill="url(#Z)"/><path d="M18.016 32.56l.13.122.07-.174z" fill="url(#f)"/><path d="M18.324 32.494l.016.243s.14-.174-.016-.243z" fill="url(#g)"/><path d="M28.56 33.642s.132-.11.18.045.022.276.084.27.048.042.013.08-.072.075-.164-.001-.177-.288-.113-.395z" fill="#5b5b5b"/></svg>