<svg xmlns="http://www.w3.org/2000/svg" xmlns:xlink="http://www.w3.org/1999/xlink" width="163.839" height="163.839" viewBox="0 0 43.349 43.349" shape-rendering="geometricPrecision" image-rendering="optimizeQuality" fill-rule="evenodd" xmlns:v="https://vecta.io/nano"><defs><linearGradient id="A" x1="5.609" y1="24.879" x2="15.134" y2="24.879" xlink:href="#j"><stop offset="0" stop-color="#70706c"/><stop offset="1" stop-color="#dadcd9"/></linearGradient><linearGradient id="B" x1="22.209" y1="14.003" x2="22.209" y2="7.59" xlink:href="#j"><stop offset="0"/><stop offset=".18" stop-color="#373838"/><stop offset="1" stop-color="#161513"/></linearGradient><linearGradient id="C" x1="22.201" y1="30.589" x2="22.201" y2="7.037" xlink:href="#j"><stop offset="0" stop-color="#ecedeb"/><stop offset=".212" stop-color="#b2b5b1"/><stop offset=".459" stop-color="#aaaca9"/><stop offset=".631" stop-color="#d1d4d0"/><stop offset="1" stop-color="#e1e2e0"/></linearGradient><linearGradient id="D" x1="22.126" y1="22.983" x2="22.126" y2="20.34" xlink:href="#j"><stop offset="0" stop-color="#0e1010"/><stop offset="1" stop-color="#272a2b"/></linearGradient><linearGradient id="E" x1="34.03" y1="11.893" x2="10.461" y2="10.046" xlink:href="#j"><stop offset="0" stop-color="#536363"/><stop offset="1" stop-color="#cbd4d5"/></linearGradient><linearGradient id="F" xlink:href="#A" x1="29.167" y1="24.767" x2="38.692" y2="24.767"/><linearGradient id="G" x1="6.86" y1="26.584" x2="10.01" y2="26.584" xlink:href="#j"><stop offset="0" stop-color="#bbbdc2"/><stop offset="1" stop-color="#30353c"/></linearGradient><linearGradient id="H" x1="38.008" y1="20.537" x2="36.559" y2="19.747" xlink:href="#j"><stop offset="0" stop-color="#f4b24a"/><stop offset="1" stop-color="#edefea"/></linearGradient><linearGradient id="I" xlink:href="#H" x1="7.652" y1="20.594" x2="6.224" y2="19.817"/><linearGradient id="J" xlink:href="#G" x1="34.161" y1="26.421" x2="37.595" y2="26.421"/><linearGradient id="K" x1="8.19" y1="11.455" x2="5.14" y2="13.46" xlink:href="#j"><stop offset="0" stop-color="#848581"/><stop offset="1" stop-color="#a7a9a6"/></linearGradient><linearGradient id="L" x1="7.573" y1="18.788" x2="10.314" y2="20.864" xlink:href="#j"><stop offset="0" stop-color="#ccc"/><stop offset="1" stop-color="#fefefe"/></linearGradient><linearGradient id="M" x1="5.781" y1="19.087" x2="14.176" y2="20.785" xlink:href="#j"><stop offset="0" stop-color="#262828"/><stop offset=".212" stop-color="#242526"/><stop offset=".412" stop-color="#333637"/><stop offset=".71" stop-color="#2c2d2f"/><stop offset="1" stop-color="#242426"/></linearGradient><linearGradient id="N" x1="31.182" y1="21.345" x2="33.663" y2="19.518" xlink:href="#j"><stop offset="0" stop-color="#a7acae"/><stop offset="1" stop-color="#fff"/></linearGradient><linearGradient id="O" x1="38.897" y1="32.385" x2="34.044" y2="28.6" xlink:href="#j"><stop offset="0"/><stop offset="1" stop-color="#4d4d4d"/></linearGradient><linearGradient id="P" xlink:href="#N" x1="13.024" y1="21.408" x2="10.544" y2="19.582"/><linearGradient id="Q" xlink:href="#M" x1="30.015" y1="19.107" x2="38.442" y2="20.812"/><linearGradient id="R" xlink:href="#L" x1="36.633" y1="18.724" x2="33.893" y2="20.801"/><linearGradient id="S" xlink:href="#K" x1="39.005" y1="11.723" x2="35.994" y2="13.703"/><linearGradient id="T" x1="5.439" y1="28.837" x2="10.294" y2="32.324" xlink:href="#j"><stop offset="0" stop-color="#4d4d4d"/><stop offset="1" stop-color="#0b0b0b"/></linearGradient><linearGradient id="U" x1="5.495" y1="24.963" x2="11.774" y2="27.931" xlink:href="#j"><stop offset="0" stop-color="#182027"/><stop offset="1" stop-color="#585d64"/></linearGradient><linearGradient id="V" xlink:href="#U" x1="32.516" y1="24.867" x2="38.812" y2="27.843"/><linearGradient id="W" x1="37.83" y1="19.605" x2="36.071" y2="18.465" xlink:href="#j"><stop offset="0" stop-color="#efa445"/><stop offset="1" stop-color="#edefea"/></linearGradient><linearGradient id="X" x1="22.249" y1="22.937" x2="13.636" y2="5.116" xlink:href="#j"><stop offset="0" stop-color="#c7cac6"/><stop offset=".561" stop-color="#e1e3e0"/><stop offset="1" stop-color="#fcfcfb"/></linearGradient><linearGradient id="Y" xlink:href="#W" x1="8.136" y1="19.668" x2="6.376" y2="18.528"/><linearGradient id="Z" x1="7.521" y1="26.046" x2="9.929" y2="29.078" xlink:href="#j"><stop offset="0" stop-color="#f3f7fc"/><stop offset=".329" stop-color="#d3d5d8"/><stop offset="1" stop-color="#b3b3b3"/></linearGradient><linearGradient id="a" x1="38.29" y1="15.198" x2="36.512" y2="12.922" xlink:href="#j"><stop offset="0" stop-color="#1d1e1f"/><stop offset=".51" stop-color="#2c2f31"/><stop offset="1" stop-color="#3c4143"/></linearGradient><linearGradient id="b" xlink:href="#a" x1="7.828" y1="15.118" x2="6.122" y2="12.934"/><linearGradient id="c" xlink:href="#Z" x1="34.373" y1="25.934" x2="36.78" y2="28.967"/><linearGradient id="d" x1="18.815" y1="5.079" x2="26.121" y2="16.659" xlink:href="#j"><stop offset="0" stop-color="#757a7c"/><stop offset="1" stop-color="#1e2224"/></linearGradient><linearGradient id="e" x1="6.587" y1="26.235" x2="13.249" y2="26.235" xlink:href="#j"><stop offset="0" stop-color="#797975"/><stop offset=".122" stop-color="#a9aca7"/><stop offset="1" stop-color="#c6c9c5"/></linearGradient><linearGradient id="f" xlink:href="#e" x1="31.114" y1="26.03" x2="37.725" y2="26.03"/><linearGradient id="g" x1="36.437" y1="19.099" x2="34.402" y2="20.601" xlink:href="#j"><stop offset="0" stop-color="#9da5a4"/><stop offset=".2" stop-color="#8f9493"/><stop offset=".451" stop-color="#b6baba"/><stop offset=".659" stop-color="#8f9493"/><stop offset=".769" stop-color="#aab3b2"/><stop offset="1" stop-color="#9da5a4"/></linearGradient><linearGradient id="h" xlink:href="#g" x1="8.056" y1="19.164" x2="9.845" y2="20.485"/><linearGradient id="i" x1="22.329" y1="25.238" x2="22.329" y2="28.209" xlink:href="#j"><stop offset="0" stop-color="#333"/><stop offset="1"/></linearGradient><linearGradient id="j" gradientUnits="userSpaceOnUse"/></defs><circle cx="22.089" cy="22.053" r="19.05" fill="#f0f0f0"/><path d="M22.15 34.648c8.723 0 15.794-.883 15.794-1.972s-7.07-1.972-15.794-1.972-15.794.883-15.794 1.972 7.07 1.972 15.794 1.972z" fill="#666"/><g fill="#525252"><path d="M22.785 31.655L9.682 32.927l.424-1.4z"/><path d="M21.564 31.566l13.103 1.273-.424-1.4z"/></g><path d="M38.738 28.085c-.02.9.007 4.4-.872 4.815l-3.214-.06c-.208-.16-.406-1.075-.456-1.377l4.542-3.378z" fill="url(#O)"/><path d="M35.5 32.568l-.588-.152s.367.338.588.152zm.056-.325l-.558-.134s.323.487.558.134zm.032-.32l-.553-.164s.25.58.553.164zm.07-.316l-.57-.164s.226.474.57.164zm.003-.344c.013.25-.305.073-.4 0h.4z" fill="#293134"/><g fill="#2c3437"><path d="M36.23 31.192l-.024.63-.37-.3c.226-.088.06-.185.083-.325l.31-.006z"/><path d="M35.87 31.735l.308.22-.045.484-.36-.197c.03-.28.12-.157.125-.248.003-.066-.102-.066-.027-.26z"/></g><path d="M36.075 32.476s-.024.23-.1.272-.314-.01-.314-.01c.18-.162.007-.326.104-.37l.308.107z" fill="#2d3235"/><g fill="#4c565c"><path d="M36.535 32.757c.168-.41.37-1.25.31-1.68l-.293.1s.075.188.02.27c-.267.4.003.568-.116.705s-.06.32-.15.442-.15.203.227.173z"/><path d="M37.105 31.024c-.022.792-.207 1.1-.317 1.747.304.013.585-.184.457-.484-.02-.046.174-.407.182-.47l-.1-.278c.063-.057.152-.194.096-.254s-.05-.075-.018-.146.072-.35.072-.35l-.382.233z"/></g><g fill="#565c5e"><path d="M37.77 29.9c-.04.638-.126 2.354-.427 2.867 0 0 .59-.13.427-2.867z"/><path d="M38.052 32.44c-.27.36-.775.5-.355.02l.355-.02zm.105-.303l-.427.108s.207.33.427-.108zm.07-.335l-.433.164s.14.37.433-.164z"/><path d="M38.234 31.492l-.388.06s-.012.6.388-.06zm.063-.404l-.397.1s.02.65.397-.1zm0-.385l-.394.01s-.018.28.003.3.505.078.4-.308zm.073-.537l-.46.07c-.018-.006-.012.305-.012.305s.56.167.472-.373z"/><path d="M38.387 29.67l-.397.134c0 .58.443.206.397-.134z"/></g><path d="M5.596 28.173s.072 3.07.3 3.86.574.956.574.956l3.214-.06c.208-.16.406-1.075.456-1.377l-4.542-3.378z" fill="url(#T)"/><path d="M8.825 32.656l.588-.152s-.367.338-.588.152zm-.057-.326l.56-.134s-.323.487-.56.134zM8.735 32l.552-.164s-.25.58-.552.164zm-.068-.315l.57-.164s-.226.474-.57.164zm-.002-.345c-.013.25.306.073.4 0h-.4z" fill="#293134"/><g fill="#2c3437"><path d="M8.104 31.28l.024.63.37-.3c-.226-.088-.06-.185-.083-.325l-.31-.006z"/><path d="M8.465 31.823l-.308.22.045.484.36-.197c-.03-.28-.12-.157-.126-.248-.003-.066.102-.066.027-.26z"/></g><path d="M8.26 32.564c.033.312.122.325.412.263-.18-.162-.007-.326-.105-.37l-.308.107z" fill="#2d3235"/><g fill="#4c565c"><path d="M7.8 32.844c-.168-.41-.37-1.252-.31-1.68l.293.1s-.075.188-.02.27.1.1.13.308-.137.257-.015.397.06.32.15.442.15.203-.227.173z"/><path d="M7.23 31.112c.022.792.207 1.1.317 1.747-.304.013-.585-.184-.457-.484l-.096-.254-.087-.215.1-.278c-.063-.057-.152-.194-.096-.254.082-.086-.032-.343-.054-.496l.382.233z"/></g><g fill="#565c5e"><path d="M6.564 29.988c.04.638.126 2.354.427 2.867 0 0-.59-.128-.427-2.867z"/><path d="M6.282 32.53c.27.36.775.5.355.02l-.355-.02zm-.105-.305l.427.107s-.207.33-.427-.107zm-.072-.325l.433.164s-.14.37-.433-.164z"/><path d="M6.1 31.58l.388.06s.012.6-.388-.06zm-.063-.404l.397.1s-.02.65-.397-.1zm0-.386h.394s.018.28-.003.3-.505.078-.4-.308zm-.072-.537l.46.07c.018-.006.012.305.012.305s-.56.167-.472-.373z"/><path d="M5.947 29.758l.397.134c0 .58-.443.206-.397-.134z"/></g><path d="M5.513 27.6s.275 1.942.442 2.085 4.713.705 6.947.73c2.01.02 25.24.165 25.567-.95.67-2.277.89-7.303.293-9.516-.167-.62-.43-.932-.633-1.553s-.788-1.147-1.195-1.744L35.75 14.87c-1.113-2.263-2.504-5.3-4.42-6.965-.73-.633-1.278-.55-1.278-.55s.018.066-.057.072-3.572-.388-6.762-.388c-1.664 0-8.316.6-9.143.475-.128-.02-.352-.048-.493-.048-1.13 0-4.132 5.006-4.486 6.07-.33.994-1.852 3.477-2.587 4.265-.412.442-.293.43-.538 1.1s-.496.836-.615 1.673c-.328 2.297-.25 4.755.14 7.04z" fill="url(#C)"/><path d="M14.2 22.724l.765-1.942s.19-.46.848-.502 12.246-.12 12.76-.036.76.544.896.8.65 1.63.585 1.69c-.156.142-7.57.14-6.738.22.31.03 7.88.1 8.196-.197s.19-.43.19-.43.12.352-.245.544c-.508.267-18.113.634-18.787-.012-.293-.28-.155-.364-.084-.257s-.03.412 1.476.436 6.792-.078 6.792-.078c-.592-.008-6.744-.008-6.654-.24z" fill="#010202"/><path d="M5.383 21.033C5.672 20.24 7.23 17 7.665 17c.203 0 .968.43 1.72.358l.836-.072s-1.505-1.063-1.505-1.362.538-.932.514-1.302-.18.382 1.063 1.4l2.832 2.03-1.4-1.947c-.287-.346 4.827-.084 8.745-.107s10.06-2.007 10.06-2.007l-20.537-.048s-.705-.084-.562-.777 2.007-3.728 2.712-4.36.61-.633 1.792-.788c1.16-.152 14.143-.163 11.825-.924 0 0-5.554-.085-8.3.097s-2.96.314-3.358.31-.646-.055-.86.106c-1.176.9-3.676 4.392-4.064 5.79-.123.443-.045 1.446-.57 1.96-.54.527-2.237 2.343-2.418 2.937-.278.913-.812 1.743-.795 2.726z" fill="url(#X)"/><path d="M14.396 22.64c.378-.828.638-2.163 1.63-2.192.61-.018 11.923-.107 12.353-.054.86.107 1.22 1.556 1.476 2.264 0 0-10.156.325-15.46-.018z" fill="url(#D)"/><path d="M6.525 29.95s.018.8.12.92 3.03.794 5.155.806l19.892-.048c.9-.06 5.85-.362 6.045-.992.048-.155.008-.905.008-.905s-1.803.396-4.884.56c-5.647.303-11.917-.06-17.7.102-.484.013-4 .278-8.635-.445z" fill="#131718"/><path d="M6.61 30.296l5.968 1.344s-6.105 0-5.968-1.344z" fill="#232728"/><path d="M31.333 31.58c0 .05 6.427-1.344 6.427-1.344s.096 1.278-6.427 1.344z" fill="#282a2c"/><path d="M5.29 22.948l.233 4.5c.143.818.43.842.926.98 2.116.586 5.9 1.093 8.094.998l-8.626-2.03-.627-4.447z" fill="url(#e)"/><path d="M5.793 23.728c2.4 1.006 3.843 1.1 5.436 3.184.777 1.016 3.2 2.365 3.2 2.365l-2.94-.8-5.687-4.75z" fill="#e0e1df"/><path d="M5.826 23.862c1.607 1 3.88 1.274 4.79 2.92l.872 1.62c.1.63-3.73-.225-4.074-.33-.938-.28-1.372-.38-1.47-.83s-.263-3.333-.12-3.38z" fill="url(#U)"/><path d="M5.84 23.898s1.665.938 2.634 1.305 1.58.854 2.094 1.786.79 1.336.7 1.487-1.04.096-2.037-.114l-3.04-.657s2.97.9 4.35.95.86-.496.735-.717-.874-1.72-1.71-2.293L5.84 23.897z" fill="#020204"/><path d="M6.366 26.508c-.133 1.03 1.782 1.514.9 1.374-.305-.048-1.196-.387-1.196-.387.697.577 4.052 1.12 4.934 1.062.396-.026.35-.107.288-.12s-.68.06-1.57-.096-.967-.178-.717-.24c.32-.078.938-.468.788-.86 0 0-.084.627-.735.71s-.938.084-1.493-.15-.806-1-.806-1 .096.424.245.597-.34-.167-.627-.884z" fill="url(#Z)"/><path d="M7.123 27.12l.6.63s-.544-.277-.6-.63z" fill="#5b646c"/><path d="M7.75 27.537c.245.548 1.465.438 1.91-.34.38-.662-.81-1.802-1.8-1.673-.49.064-1.024.652-.818 1.063 0 0 .006-.56.657-.848 1.492-.657 2.198 2.207.06 1.798z" fill="url(#G)"/><path d="M8.12 25.626c1.296 0 1.296 1.953 0 1.953s-1.296-1.953 0-1.953z" fill="#060606"/><path d="M6.442 25.674l.65.42.605-.54s-.74-.674-1.254.12z" fill="#6c7479"/><path d="M7.357 25.348l-.664.762s.158-.58.664-.762zm-.377.862l.684-.717s-.696.15-.684.717z" fill="#000001"/><g fill="#0b161f"><path d="M6.6 26.623l.3.618s-.302-.206-.3-.618z"/><path d="M6.98 26.92c.106.286.492.778.787.836l-.467-.477c.505.522 1.617.903 2.186.344.163-.16-.425.633-1.747.275-.64-.173-.76-.977-.76-.977z"/></g><path d="M7.56 25.273c.555-.032 1.894.413 2.106.917 0 0-.43-.908-2.106-.917z" fill="#111117"/><path d="M39 22.837l-.233 4.5c-.33 1.885-7.385 1.734-8.948 1.667l8.626-2.03.555-4.137z" fill="url(#f)"/><path d="M38.51 23.616c-2.4 1.007-3.843 1.1-5.436 3.184-.777 1.016-3.2 2.365-3.2 2.365l2.94-.8 5.687-4.75z" fill="#e0e1df"/><path d="M38.476 23.75c-1.607 1-3.88 1.274-4.79 2.92l-.872 1.62c-.105.67 5.346-.24 5.543-1.16.097-.45.263-3.333.12-3.38z" fill="url(#V)"/><path d="M38.46 23.786c-1.695.955-3.79 1.39-4.728 3.09-.514.932-.79 1.336-.7 1.487s1.04.096 2.037-.114l3.04-.657s-2.97.9-4.35.95-.86-.496-.735-.717c1.747-3.1 2.468-2.535 5.434-4.042z" fill="#020204"/><path d="M37.935 26.397c.133 1.03-1.782 1.514-.9 1.374.305-.048 1.196-.387 1.196-.387-.697.577-4.052 1.12-4.934 1.062-.396-.026-.35-.107-.288-.12.003-.001 3.06-.146 2.288-.335-.32-.078-.938-.468-.788-.86.148 1.108 2.53 1.112 3.035-.448 0 0-.096.424-.245.597s.34-.167.627-.884z" fill="url(#c)"/><path d="M37.178 27.008l-.6.63s.544-.277.6-.63z" fill="#5b646c"/><path d="M36.55 27.426s-.116.26-.76.33c-1.09.117-1.703-1.14-.568-1.977 1.086-.802 2.442-.1 2.043.7 0 0-.006-.56-.657-.848-1.492-.657-2.198 2.207-.06 1.798z" fill="url(#J)"/><path d="M36.18 25.514c-1.296 0-1.296 1.953 0 1.953s1.296-1.953 0-1.953z" fill="#060606"/><path d="M37.86 25.562l-.65.42-.605-.54s.74-.674 1.254.12z" fill="#6c7479"/><path d="M36.944 25.236l.664.762s-.158-.58-.664-.762zm.376.864l-.684-.717s.696.15.684.717z" fill="#000001"/><g fill="#0b161f"><path d="M37.692 26.512l-.3.618s.302-.206.3-.618z"/><path d="M37.32 26.808c-.106.286-.492.78-.787.836l.467-.477c-.505.522-1.617.903-2.186.344-.163-.16.425.633 1.747.275.64-.173.76-.977.76-.977z"/></g><path d="M36.742 25.162c-.555-.032-1.894.413-2.106.917 0 0 .43-.908 2.106-.917z" fill="#111117"/><path d="M38.044 21.147s.096 1.23-1.326 1.65c-1.1.324-6.08 1.292-6.404 2.294 0 0-.645 2.604-.896 2.95s3.393-.777 3.393-.777c1.703-2.86 5.58-3.008 5.815-3.934.066-.257-.102-1.888-.102-1.888s-.352-.03-.48-.296z" fill="url(#F)"/><path d="M6.257 21.26s-.096 1.23 1.326 1.65c1.1.323 6.08 1.292 6.404 2.294 0 0 .645 2.604.896 2.95s-3.393-.777-3.393-.777c-1.785-2.998-2.877-2.004-5.11-3.348-.705-.424-.64-.33-.705-.585s.102-1.888.102-1.888.352-.03.48-.296z" fill="url(#A)"/><path d="M14.232 24.174c-.588.323.723 3.825.974 4.092.9.954 5.587 1.087 6.88 1.087 1.69 0 6.756.107 7.39-1.744.194-.566 1.336-3.464.336-3.514-.12-.006-12.226.122-15.58.08z" fill="#040403"/><path d="M14.378 24.307c-.263.3.824 3.59 1.072 3.877.658.762 5.678.908 6.7.908 1.675 0 6.192.108 7.02-1.565.225-.455 1.383-3.28.424-3.268-.502.006-8.644.305-15.206.048z" fill="url(#i)"/><path d="M14.745 26.276l14.887-.117-.082.28-14.8.077z" fill="#9b9b9e"/><path d="M7.11 17.54c.167-.048 6.7 2.04 6.86 2.237s-.13.28-.173.382c-.822 1.89-.8 2.217-3.106 1.93-.865-.108-3.84-.58-4.223-.95-.645-.625.196-3.472.642-3.6z" fill="url(#M)"/><path d="M7.132 17.655l1.2.567c.042.054-.642.45-.88.917s-.12 1.278.18 1.547.424.484.424.484c-.67-.232-1.663-.32-1.918-1.033-.1-.25.167-2.15.986-2.482z" fill="#edefea"/><path d="M6.3 19.725s-.063.63.173.7 1.168.263 1.168.263-.466-.744-1.34-.962z" fill="url(#I)"/><path d="M6.54 19.72c.003-.33.226-1.81.738-1.57l.693.34c-.655.546-.62.998-.558 1.8 0 0-.428-.415-.873-.57z" fill="url(#Y)"/><g fill="#ffdfa0"><path d="M7.262 18.225l.517.3-.158.164s.08-.143-.358-.454z"/><path d="M7.268 18.578l.317.203-.117.16s.03-.128-.2-.364z"/></g><path d="M8.944 18.485c.706 0 1.278.6 1.278 1.34s-.572 1.34-1.278 1.34-1.278-.6-1.278-1.34.572-1.34 1.278-1.34z" fill="url(#L)"/><path d="M7.916 20.104c.096.526.76.932 1.32.67s.22-.627.508-.92.054-.902-.054-.98-.37.28-.61.042-.365-.302-.61-.25c-.34.07-.602 1.185-.556 1.44z" fill="url(#h)"/><path d="M7.95 19.61s-.057.567.14.698.072.257.323.197.16-.125.5.03.717.066.502-.024-.346-.185-.137-.24c.42-.108.543-1.522.424-1.398-.125.13-.042.723-.215.64l-.227-.13c-.215-.036-.203-.442-.317-.31s-.293.376.006.442.62-.137.59.13.024.603-.263.442-.442-.5-.532-.603-.197.305-.036.5.358.143.33.317c-.1.583-.982-.832-1.078-.68z" fill="#31363c"/><path d="M8.34 18.527c-1.32.597-.927 2.262.203 2.837 0 0-.104.044-.424-.12s-1.78-.454-1.78-.454l2.192.68c.62.18 1.56-.436 1.726-.9s-.048.33-.693.58.514-.102.663-.986.072-1.153-.346-1.505-.854-.25-.854-.25c1.54.294 1.555 2.12.383 2.656-1.203.55-2.725-1.09-1.07-2.548z" fill="#020202"/><path d="M11.784 19.31c.642 0 1.162.53 1.162 1.186s-.52 1.186-1.162 1.186-1.162-.53-1.162-1.186.52-1.186 1.162-1.186z" fill="url(#P)"/><g fill="#a4acb0"><path d="M10.784 20c-.415 1.275.874 1.946 1.708 1.32.215-.16.12-.102-.597-.173s-.972.04-1.1-1.147zm.334-.117c1.018-.827 1.838.45 1.2.078-.245-.143-.86-.066-.842.448s1.105.735 1.338.454.2-.884-.436-1.302-1.242-.05-1.26.323z"/><path d="M11.034 19.936c-.05.424.012.833.328 1.145l.48.05s-.478.053-.807-1.196z"/></g><path d="M10.718 20.36s.03.582.365.88-.23-.293-.365-.88z"/><path d="M11.4 21.26l.872.072s-.332.317-.872-.072zm1.08-.6s.164-.33.248-.284.075.266-.248.284z"/><path d="M11.943 19.874s.344-.006.514.2-.137-.418-.514-.2zm-.18.08s-.237.253-.166.64-.293-.424.166-.64z" fill="#66727a"/><path d="M10.315 20.647c.26 1.175 1.184 1.808 2.288 1.135.5-.3 1.123-2 1.123-2s-.43.962-.502.9-.084-.872-.257-1.063.663.096.663.096-.908-.436-1.165-.448.478.31.568.884c.29 1.863-2.257 2.27-2.718.508z" fill="#070909"/><path d="M36.402 17.762c.01-1.148-.032-1.667-.8-2.505-.345-.377-.386-1.168-.395-1.438-.013-.38.62-.204.653-.175.078.066-.323.19-.394.37-.11.272 1.163 2.164 1.364 2.513 0 0-.43-.304-.564-.524-.123-.2.25 1.2.342 1.7l-.207.06z" fill="#727470"/><path d="M36.082 15.67l-.687-1.362c-.007.763.105.912.687 1.362z" fill="#2f271e"/><path d="M12.942 20.207c-.26-1.146-2.138-1.344-2.32-.164-.115.744.03 1.27.705 1.63-.95-.046-1.245-1.698-.43-2.33.293-.227 1.822-.574 2.046.863z" fill="#424344"/><path d="M6.32 21.058s.788.717 3.32 1.374 3.87.65 3.87.65c-1.198-.164-1.116-.73-.4-1.507-.24 1.33-5.963-.134-6.792-.517z" fill="#5a584f"/><path d="M5.338 21.14s.556-.116.774-.373-.505.36-.774.373z" fill="#7a7a7a"/><path d="M6.305 20.427l1.285.42c-.194-.033-1.348-.164-1.285-.42z" fill="#223942"/><path d="M37.096 17.478c-.167-.048-6.7 2.04-6.86 2.237s.125.28.173.382.573 1.446.95 1.732c.865.66 5.896-.284 6.38-.753.645-.625-.196-3.472-.642-3.6z" fill="url(#Q)"/><path d="M37.075 17.59l-1.2.567c-.042.054.642.45.88.917.517 1.01-.254 1.432-.603 2.03.67-.232 1.663-.32 1.918-1.033.1-.25-.167-2.15-.986-2.482z" fill="#edefea"/><path d="M37.908 19.66c.092.924-.528.792-1.34.962 0 0 .466-.744 1.34-.962z" fill="url(#H)"/><path d="M37.666 19.655c-.003-.33-.226-1.81-.738-1.57l-.693.34s.434.36.526.683.03 1.117.03 1.117.428-.415.873-.57z" fill="url(#W)"/><g fill="#ffdfa0"><path d="M36.945 18.162l-.517.3.158.164s-.08-.143.358-.454z"/><path d="M36.94 18.514l-.317.203.117.16s-.03-.128.2-.364z"/></g><path d="M35.263 18.42c-.706 0-1.278.6-1.278 1.34s.572 1.34 1.278 1.34 1.278-.6 1.278-1.34-.572-1.34-1.278-1.34z" fill="url(#R)"/><path d="M35.938 18.8c.724 1.14.096 2.398-.968 1.9-.56-.263-.22-.627-.508-.92s-.054-.902.054-.98.37.28.61.042c.307-.307.895-.36.812-.042z" fill="url(#g)"/><path d="M36.257 19.545c.03.3-.102.98-.463.895-.25-.06-.16-.125-.5.03s-.717.066-.502-.024.346-.185.137-.24-.388-.418-.4-.824-.15-.705-.024-.574.042.723.215.64l.227-.13c.215-.036.203-.442.317-.31.623.72-.635.232-.597.574.03.27-.024.603.263.442s.442-.5.532-.603.197.305.036.5-.358.143-.33.317.573-.024.77-.33.18-.555.307-.352z" fill="#31363c"/><path d="M35.867 18.463c1.32.597.927 2.262-.203 2.837.01.004 1.967-.526 2.204-.573-1.044.333-3.332 1.384-3.92-.21-.167-.454.048.33.693.58.57.222-1.782-1.256-.317-2.49.418-.352.854-.25.854-.25-1.54.294-1.555 2.12-.383 2.656.724.33 1.28-.08 1.614-.553s.317-1.237-.544-1.995z" fill="#020202"/><path d="M32.423 19.246c-.642 0-1.162.53-1.162 1.186s.52 1.186 1.162 1.186 1.162-.53 1.162-1.186-.52-1.186-1.162-1.186z" fill="url(#N)"/><g fill="#a4acb0"><path d="M33.423 19.927c.415 1.275-.874 1.946-1.708 1.32-.543-.407 1.484.594 1.708-1.32zm-.333-.107c-1.018-.827-1.838.45-1.2.078.245-.143.86-.066.842.448s-1.105.735-1.338.454c-.822-1 1.637-2.17 1.696-.98z"/><path d="M33.172 19.873c.09.775-.078 1.12-.807 1.196 0 0 .478.053.807-1.196z"/></g><path d="M33.49 20.297s-.03.582-.365.88.23-.293.365-.88z"/><path d="M32.796 21.196l-.872.072s.332.317.872-.072zm-1.078-.6s-.164-.33-.248-.284-.075.266.248.284z"/><path d="M32.264 19.8s-.344-.006-.514.2.137-.418.514-.2zm.18.09a.78.78 0 0 0 .166.641c-.072.388.293-.424-.166-.64z" fill="#66727a"/><path d="M33.892 20.584c-.26 1.175-1.184 1.808-2.288 1.135-.5-.3-1.123-2-1.123-2s.43.962.502.9.084-.872.257-1.063-.663.096-.663.096.908-.436 1.165-.448-.478.31-.568.884c-.29 1.863 2.257 2.27 2.718.508z" fill="#070909"/><path d="M31.265 20.143s.17-.75.995-.93c1.443-.314 1.95 1.682.62 2.395.95-.046 1.245-1.698.43-2.33-.293-.227-1.822-.574-2.046.863z" fill="#424344"/><path d="M37.886 20.994c-1.117 1.016-5.588 2.032-7.19 2.025 1.198-.164 1.116-.73.4-1.507.24 1.33 5.963-.134 6.792-.517z" fill="#5a584f"/><path d="M38.87 21.078s-.556-.117-.774-.373.505.36.774.373z" fill="#6b6b6b"/><path d="M37.902 20.363s-.252.17-.68.218-.606.203-.606.203l.74-.132c.283-.054.58-.146.544-.3z" fill="#223942"/><path d="M13.69 19.644s.356-.713.463-.79 2.963-.16 5.997-.233l8.89.048c.956.054 1.117.072 1.3.34a1.65 1.65 0 0 1 .22.56l.08-.088s-.137-.687-.633-.806-9.862-.167-11.75-.15-4.068.227-4.176.263-.498.8-.38.857z" fill="#4f4c49"/><path d="M7.91 17.747s-.008-.874.135-1.43.32-.697.664-1.075c.207-.226.71-1.587.226-1.643-.102-.012-.406-.036-.484.03s.323.19.394.37c.11.272-1.164 2.164-1.365 2.513 0 0 .43-.304.564-.524.123-.2-.25 1.2-.342 1.7l.207.06z" fill="#727470"/><path d="M8.23 15.654l.687-1.362c.007.763-.105.912-.687 1.362z" fill="#2f271e"/><path d="M16.977 14.546s.248.113.335-.003-.242-.508-.335.003zm9.843-.022s.248.114.335-.003-.242-.508-.335.003z" fill="#030404"/><path d="M8.547 14.784s-2.35-.11-2.942-.344-.565-.713-.565-.713 3.647.653 3.507 1.057z" fill="#787774"/><path d="M5.03 13.314l3.14.193s-.18.215-.012.245.28-.11.28-.11L8.95 14l-.375.74s-2.3-.133-2.93-.372-.644-.653-.614-1.053z" fill="url(#b)"/><path d="M8.172 13.507l.127-1.062c-.1-1.036-3.13.13-3.268.87l3.14.193z" fill="url(#K)"/><path d="M5.03 13.314s.108-.492 1.14-.857 1.702-.478 1.87-.37.257.358.257.358.018-.382-.346-.472-2.688.466-2.922 1.34z" fill="#d3d5d3"/><path d="M6.928 14.51c-.077-.567 1.366-.232 1.628-.397.146-.093.17-.274.235-.14s-.06.523-.124.516.065-.252-.4-.252-1.03-.072-1.138.1-.137.248-.212.182z" fill="#0c0d0c"/><path d="M35.754 14.786c.767-.036 3.51-.08 3.562-1.158 0 0-3.702.754-3.562 1.158z" fill="#787774"/><path d="M39.337 13.31l-3.208.197s.18.215.012.245-.28-.11-.28-.11l-.508.357.375.74c1.067-.062 3.72.068 3.6-1.43z" fill="url(#a)"/><path d="M36.13 13.508c-.06-.507-.4-1.6.47-1.496.597.064 2.54.603 2.672 1.303l-3.14.193z" fill="url(#S)"/><path d="M39.27 13.315s-.108-.492-1.14-.857-1.702-.478-1.87-.37-.257.358-.257.358-.018-.382.346-.472 2.688.466 2.922 1.34z" fill="#d3d5d3"/><path d="M37.373 14.512c.077-.567-1.366-.232-1.628-.397-.146-.093-.17-.274-.235-.14s.06.523.124.516-.065-.252.4-.252 1.03-.072 1.138.09.137.248.212.182z" fill="#0c0d0c"/><path d="M13.416 7.683s-.594.323-1.586 1.882l-2.252 3.817c-.137.466.43.532 2.08.577s13.214.03 14.564.034 7.133-.001 7.945-.204.41-.615.218-.902-1.735-3.06-2.4-3.934-1.11-1.213-1.11-1.213l.245.346s-3.89-.44-7.652-.468L19.693 7.6s-3.453.197-4.796.343-1.833.235-1.833.235.02-.13.353-.486z" fill="url(#B)"/><path d="M10.053 13.59s-.12-.042.245-.782 1.97-3.4 2.4-3.95.245-.508 1.66-.675c5.05-.597 11.273-.652 16.296-.024.43.054.436.024.675.388.485.74 3.67 4.94 2.457 5.293-1.246.362-20.25-.502-23.427-.502-.218 0-.242.04-.308.25z" fill="url(#d)"/><path d="M12.3 13.43c.3.024.502-.126 1.022-.072s.59.07.91.182.73.1.538-.027-.358-.003.777.117 2.55.137 2 .07l-1.338-.1c.5-.027 1.646.06 1.84.057l3.943-.143s.944-.143 1.78-.167 1.02.054.77.054-.956.107-.532.114.197-.126.848-.072c1.008.083 7.946.336 8.512-.095.52-.396-1.775-4.27-2.515-4.73-.364-.227-4.707-.43-6.416-.442s-1.744 0-1.744 0-.054.376-.167.418a2.8 2.8 0 0 1-.836.006c-.072-.042-.22-.4-.22-.4l-5.92.22c-1.708.096-2.127.155-2.4.442s-1.553 2.15-2.007 3.142-.526 1.314-.042 1.38 1.198.048 1.198.048z" fill="url(#E)"/></svg>