<svg width="16" height="22" viewBox="0 0 16 22" fill="none" xmlns="http://www.w3.org/2000/svg">
<path d="M11.0877 7.27041V5.18622C11.0877 4.31378 10.7758 3.57058 10.152 2.95663C9.55945 2.31037 8.8421 1.98724 8 1.98724C7.15789 1.98724 6.42495 2.31037 5.80117 2.95663C5.20858 3.57058 4.91228 4.31378 4.91228 5.18622V7.27041H11.0877ZM6.59649 15.9464C7.00195 16.3665 7.46979 16.5765 8 16.5765C8.53021 16.5765 8.99805 16.3665 9.40351 15.9464C9.80897 15.5264 10.0117 15.0417 10.0117 14.4923C10.0117 13.943 9.80897 13.4583 9.40351 13.0383C8.99805 12.6182 8.53021 12.4082 8 12.4082C7.46979 12.4082 7.00195 12.6182 6.59649 13.0383C6.19103 13.4583 5.9883 13.943 5.9883 14.4923C5.9883 15.0417 6.19103 15.5264 6.59649 15.9464ZM13.9883 7.27041C14.5185 7.27041 14.9864 7.48044 15.3918 7.90051C15.7973 8.28827 16 8.7568 16 9.30612V19.6786C16 20.2279 15.7973 20.7126 15.3918 21.1327C14.9864 21.5204 14.5185 21.7143 13.9883 21.7143H2.0117C1.48148 21.7143 1.01365 21.5204 0.608187 21.1327C0.202729 20.7126 0 20.2279 0 19.6786V9.30612C0 8.7568 0.202729 8.28827 0.608187 7.90051C1.01365 7.48044 1.48148 7.27041 2.0117 7.27041H2.99415V5.18622C2.99415 3.76446 3.47758 2.55272 4.44444 1.55102C5.4425 0.517007 6.62768 0 8 0C9.37232 0 10.5419 0.517007 11.5088 1.55102C12.5068 2.55272 13.0058 3.76446 13.0058 5.18622V7.27041H13.9883Z" fill="#F5B100"/>
</svg>
