<?xml version="1.0" encoding="UTF-8"?>
<!DOCTYPE svg PUBLIC "-//W3C//DTD SVG 1.1//EN" "http://www.w3.org/Graphics/SVG/1.1/DTD/svg11.dtd">
<!-- Creator: CorelDRAW 2019 (64-Bit) -->
<svg xmlns="http://www.w3.org/2000/svg" xml:space="preserve" width="32.5118mm" height="10.8372mm" version="1.1" style="shape-rendering:geometricPrecision; text-rendering:geometricPrecision; image-rendering:optimizeQuality; fill-rule:evenodd; clip-rule:evenodd"
viewBox="0 0 3251.18 1083.72"
 xmlns:xlink="http://www.w3.org/1999/xlink"
 xmlns:xodm="http://www.corel.com/coreldraw/odm/2003">
 <defs>
  <style type="text/css">
   <![CDATA[
    .fil3 {fill:#6A5EAE}
    .fil0 {fill:#7461BA}
    .fil4 {fill:white}
    .fil1 {fill:#494A61;fill-rule:nonzero}
    .fil2 {fill:url(#id0)}
   ]]>
  </style>
  <linearGradient id="id0" gradientUnits="userSpaceOnUse" x1="940.85" y1="690.35" x2="-1249.48" y2="-656.39">
   <stop offset="0" style="stop-opacity:1; stop-color:#6B5EAE"/>
   <stop offset="0.290196" style="stop-opacity:1; stop-color:#855CAC"/>
   <stop offset="1" style="stop-opacity:1; stop-color:#A05AA9"/>
  </linearGradient>
 </defs>
 <g id="Слой_x0020_1">
  <metadata id="CorelCorpID_0Corel-Layer"/>
  <path class="fil0" d="M975.71 530.47c0,0 -4.65,3.18 -4.99,4.99 -0.34,1.82 -0.98,2.44 1.29,4.03 2.27,1.59 3.89,1.19 4.46,5.02 0.56,3.83 2.07,9.02 3.51,9.64 1.45,0.62 -4.27,-23.68 -4.27,-23.68z"/>
  <path class="fil1" d="M1185.03 760.32c-48.89,38.18 -125.68,41.66 -182.82,21.11 -12.3,-4.3 -28.17,-11.33 -37.69,-20.45 -2.76,-2.88 -4.75,-6.96 -5.96,-12.27 -2.29,-9.98 -4.39,-49.31 4.86,-56.59 5.86,-4.31 13.47,0.29 18.57,3.65 33.67,21.52 82.35,37.14 121.8,25.42 31.91,-9.77 52.05,-46.44 30.95,-73.83 -11.5,-15.18 -31.59,-25.55 -48.75,-33.05 -46.12,-20.37 -93.49,-38.32 -114.17,-88.53 -27.61,-66.32 10.94,-138.74 78.14,-158.28 36.04,-10.46 76.29,-9.57 112.19,1 9.46,2.91 29.34,10 36.25,16.91 6.35,6.35 6.9,12.05 7.4,20.89 0.58,9.5 0.64,20.37 -0.11,29.84 -0.36,4.66 -1.23,13.47 -4.86,16.8 -4.94,4.57 -12.35,0.14 -17.02,-2.54 -28.67,-16.49 -69.67,-31.48 -102.46,-20.56 -28.22,9.11 -41.27,41.97 -23.43,65.65 19.67,26.57 83.87,45.78 115.61,65.44 22.29,13.65 39.3,31.75 49.41,56.03 20.16,48.08 2.94,110.83 -37.91,143.36zm337.32 17.9c-1.68,4.5 -4.5,8.29 -9.73,8.29l-191.98 0c-16.87,0 -25.2,-10.58 -25.2,-26.86l0 -380.65c0,-5.58 4.28,-8.4 9.06,-10.06 13.86,-4.79 53.56,-4.81 67.42,0 4.78,1.65 9.07,4.48 9.07,10.06l0 337.22 131.63 0c5.13,0 7.92,3.13 9.73,7.62 4.76,11.47 4.09,42.51 0,54.38zm405.63 -112.96c-16.61,52.83 -49.87,92.71 -101.79,113.51 -49.55,19.78 -122.31,19.86 -172.54,2.21 -51.07,-17.88 -81.83,-54.45 -97.15,-105.66 -16.42,-54.87 -16.64,-132.54 0.77,-187.23 16.71,-52.45 50.26,-92.07 101.8,-112.74 49.55,-20 121.25,-20.06 171.65,-2.65 50.71,17.6 81.95,54.39 97.7,105 17.01,54.89 16.81,132.72 -0.44,187.56zm-99.36 -195.19c-36.69,-56.74 -134.05,-53.62 -171.21,3.1 -31.98,48.79 -31.54,161.68 -0.88,210.55 35.65,56.36 134.89,52.86 171.31,-3.65 31.42,-48.68 32.09,-161.58 0.78,-210zm529.64 286.6c0,13.26 -6.68,24.71 -19.89,28.73 -11.78,3.51 -35.59,1.77 -48.52,1.77 -13.19,0 -24.5,-1.65 -34.82,-10.5 -11.61,-9.73 -21.34,-29.2 -28.07,-42.66 -45.93,-86.53 -103.88,-182.6 -139.26,-273.11 -0.22,0 1.98,286.8 1.98,313.67 0,5.44 -3.25,8.19 -7.95,10.17 -11.88,5.03 -49.68,5.19 -61.46,0 -4.67,-1.79 -7.51,-5.03 -7.51,-10.17l0 -376.67c0,-19.03 11.96,-30.51 30.83,-30.51l45.65 0c21.62,0 36.02,4.3 48.3,22.55 3.87,5.64 7.85,12.82 11.94,21.22 45.51,85.63 93.81,171.5 133.52,259.96 0.34,0 -1.66,-271.41 -1.66,-291.13 0,-5.37 3.89,-8.38 8.4,-10.39 10.99,-4.69 50.56,-5.1 61.23,0 4.44,2.23 7.29,5.18 7.29,10.39l0 376.68zm424.43 -87.21c-19.78,53.67 -57,88.44 -111.75,104.89 -58.1,17.45 -134.76,12.16 -196.07,12.16 -16.94,0 -25.31,-10.48 -25.31,-26.86l0 -365.4c0,-16.38 8.38,-26.86 25.31,-26.86 61.33,0 145.38,-6.06 202.48,13.16 51.48,17.23 87.63,51.37 106.44,102.45 19.53,53.26 18.33,133.47 -1.1,186.46zm-80.14 -151.09c-9.17,-33.65 -29.5,-59.47 -61.78,-73.5 -31.12,-13.42 -72.48,-10.5 -106.33,-10.5l0 284.5c33.13,0 72.25,2.77 103.23,-9.07 33.83,-12.66 53.92,-38.68 63.89,-72.72 10.38,-35.51 10.7,-82.92 0.99,-118.71zm528.76 146.89c-16.61,52.83 -49.87,92.71 -101.79,113.51 -49.55,19.78 -122.31,19.86 -172.54,2.21 -51.07,-17.88 -81.83,-54.45 -97.15,-105.66 -16.42,-54.87 -16.64,-132.54 0.77,-187.23 16.71,-52.45 50.26,-92.07 101.8,-112.74 49.55,-20 121.25,-20.06 171.65,-2.65 50.71,17.6 81.95,54.39 97.7,105 17.01,54.89 16.81,132.72 -0.44,187.56zm-99.36 -195.19c-36.72,-56.79 -134.07,-53.61 -171.21,3.1 -32.02,48.85 -31.79,161.28 -0.88,210.55 35.68,56.4 134.92,52.83 171.31,-3.65 31.5,-48.8 32.3,-161.26 0.78,-210z"/>
  <path class="fil2" d="M433.18 159.65c231.75,0 419.63,187.88 419.63,419.64 0,231.75 -187.88,419.63 -419.63,419.63 -231.76,0 -419.64,-187.88 -419.64,-419.63 0,-231.76 187.88,-419.64 419.64,-419.64zm65.01 466.82l36.83 -279.47c0,0 -26.54,-44.96 -71.49,-49.29 -44.95,-4.33 -94.78,9.75 -111.57,59.58 -16.79,49.82 -17.33,116.44 1.08,167.35 18.41,50.91 66.08,83.95 86.66,92.62 20.58,8.66 58.49,9.21 58.49,9.21zm46.58 -265.67l-33.05 256.45c0,0 -5.14,21.12 -14.08,23.83 -8.94,2.71 -55.79,-0.54 -93.16,-27.62 -37.37,-27.08 -64.45,-65.53 -75.56,-120.78 -11.1,-55.24 -1.9,-93.15 2.97,-113.73 4.88,-20.58 10.3,-26 10.3,-26 0,0 -51.47,7.03 -134.87,109.94 -83.41,102.91 -67.17,197.14 -67.17,197.14 0,0 15.17,-20.58 19.5,-22.74 4.33,-2.17 1.07,18.41 5.4,61.74 4.33,43.33 18.96,92.61 18.96,92.61l90.99 1.63c0,0 -3.79,-83.95 5.96,-100.74 9.74,-16.79 33.57,-37.37 73.65,-36.29 40.08,1.09 66.08,20.59 73.12,56.33 7.04,35.75 7.04,81.24 7.04,81.24l86.11 -1.63c0,0 -4.33,-37.36 -5.95,-86.11 -1.63,-48.74 3.79,-82.32 31.41,-92.07 27.62,-9.75 63.37,22.74 67.16,61.2 3.79,38.45 -7.04,84.49 -20.58,89.9 -13.54,5.42 -15.16,-1.62 -26,0.55 -10.83,2.16 -8.66,16.25 -6.5,20.04 2.17,3.79 24.92,10.83 66.08,-8.67 41.16,-19.5 71.49,-111.03 74.74,-181.43 3.25,-70.41 -35.75,-152.74 -87.74,-194.98 -51.99,-42.25 -68.73,-39.81 -68.73,-39.81zm34.82 122c12.22,0 22.14,9.79 22.14,21.86 0,12.08 -9.92,21.87 -22.14,21.87 -12.23,0 -22.14,-9.79 -22.14,-21.87 0,-12.07 9.91,-21.86 22.14,-21.86zm46.91 294.22c30.52,-14.46 55.08,-68.51 67.07,-124.19 -1.62,-0.04 -3.23,-0.1 -4.83,-0.16 -82.87,-3.48 -91.39,-26.53 -109.32,-33.31 17.25,10.67 31.74,32.12 34.08,55.84 3.79,38.45 -7.04,84.49 -20.58,89.9 -13.54,5.42 -15.16,-1.62 -26,0.55 -10.83,2.16 -8.66,16.25 -6.5,20.04 2.17,3.79 24.92,10.83 66.08,-8.67z"/>
  <path class="fil3" d="M851.12 573.75c56.41,2.36 107.15,-6 119.58,-9.73 18.15,-5.44 81.66,-28.12 101.62,-44.45 19.96,-16.34 13.83,-1.14 19.96,2.49 6.12,3.63 11.34,-0.22 13.15,4.54 0.25,0.66 -0.8,2 -3,3.89 -13.64,11.72 -71.52,44.72 -138.31,70.5 -33.39,12.89 -73.69,25.91 -115.38,36.29 2.08,-13.76 3.19,-27.89 3.19,-42.31 0,-7.15 -0.29,-14.23 -0.81,-21.22z"/>
  <path class="fil0" d="M1100.24 532.26c0,0 6.29,-5.04 7.53,-8.33 1.25,-3.29 -0.9,-6.36 -2.83,-6.7 -1.93,-0.34 -5.45,2.23 -10.43,-1.13 -4.99,-3.36 -4.88,-8.5 -6.81,-10.21 -1.93,-1.7 -5.33,-2.49 -10.89,-1.93 -5.55,0.57 -9.07,2.27 -9.07,2.27 0,0 3.74,3.01 5.19,3.94 1.44,0.94 2.89,2.05 2.89,2.05l24.98 12.75 -0.56 7.29z"/>
  <path class="fil4" d="M665.09 462.5c0,0 27.93,71.66 107.82,94.22 79.9,22.57 179.65,7.26 197.79,1.82 18.15,-5.45 81.66,-28.13 101.62,-44.46 19.96,-16.33 13.83,-1.14 19.96,2.49 6.12,3.63 11.34,-0.22 13.15,4.54 1.82,4.76 -63.74,44.46 -141.31,74.4 -77.58,29.94 -192.51,60.63 -275.38,57.16 -82.87,-3.48 -91.7,-25.76 -109.32,-33.31 -4.84,-2.07 -7.02,-3.67 -12.97,-5.76 -12.63,-4.43 -18.76,-16.93 -11.08,-21.27 10.43,-5.9 109.72,-129.83 109.72,-129.83z"/>
  <path class="fil4" d="M978.04 532.21c0,0 -5.89,0.91 -5.89,3.86 0,2.95 3.4,2.72 4.53,5.22 1.14,2.49 0.61,13.89 4.67,13.81 4.07,-0.09 9.48,-1.79 11.93,-4.17 2.46,-2.38 -2.76,-7.83 -2.53,-13.84 0.22,-6.01 4.99,-10.66 0,-10.66 -4.99,0 -12.71,5.78 -12.71,5.78z"/>
 </g>
</svg>
