<svg xmlns="http://www.w3.org/2000/svg" xmlns:xlink="http://www.w3.org/1999/xlink" width="163.839" height="163.839" viewBox="0 0 43.349 43.349" shape-rendering="geometricPrecision" image-rendering="optimizeQuality" fill-rule="evenodd" xmlns:v="https://vecta.io/nano"><defs><linearGradient id="A" x1="25.949" y1="27.062" x2="24.873" y2="33.188" xlink:href="#BW"><stop offset="0" stop-color="#885f3f"/><stop offset=".329" stop-color="#af8c6c"/><stop offset="1" stop-color="#d6b999"/></linearGradient><linearGradient id="B" x1="25.391" y1="26.778" x2="24.844" y2="32.941" xlink:href="#BW"><stop offset="0" stop-color="#79634b"/><stop offset=".11" stop-color="#ac987f"/><stop offset="1" stop-color="#dfceb4"/></linearGradient><linearGradient id="C" x1="33.584" y1="21.975" x2="33.508" y2="23.746" xlink:href="#BW"><stop offset="0" stop-color="#fafffb"/><stop offset="1" stop-color="#e7f0f9"/></linearGradient><linearGradient id="D" x1="15.585" y1="25.441" x2="15.474" y2="30.756" xlink:href="#BW"><stop offset="0" stop-color="#b59d81"/><stop offset="1" stop-color="#dccab2"/></linearGradient><linearGradient id="E" x1="34.209" y1="23.862" x2="34.209" y2="24.516" xlink:href="#BW"><stop offset="0" stop-color="#2a2a2a"/><stop offset="1" stop-color="#4e4e50"/></linearGradient><linearGradient id="F" x1="32.355" y1="18.294" x2="32.574" y2="25.491" xlink:href="#BW"><stop offset="0" stop-color="#cdaa8a"/><stop offset="1" stop-color="#cfb59e"/></linearGradient><linearGradient id="G" x1="21.39" y1="25.83" x2="21.457" y2="27.362" xlink:href="#BW"><stop offset="0" stop-color="#8e6f50"/><stop offset="1" stop-color="#a38972"/></linearGradient><linearGradient id="H" x1="9.687" y1="8.125" x2="11.356" y2="8.125" xlink:href="#BW"><stop offset="0" stop-color="#1a3b05"/><stop offset="1" stop-color="#386b16"/></linearGradient><linearGradient id="I" x1="14.356" y1="25.327" x2="15.075" y2="25.327" xlink:href="#BW"><stop offset="0" stop-color="#c3a58b"/><stop offset="1" stop-color="#9d7454"/></linearGradient><linearGradient id="J" x1="31.343" y1="18.221" x2="33.933" y2="18.221" xlink:href="#BW"><stop offset="0" stop-color="#a8927b"/><stop offset="1" stop-color="#bd8c64"/></linearGradient><linearGradient id="K" x1="9.754" y1="13.468" x2="10.547" y2="13.468" xlink:href="#BW"><stop offset="0" stop-color="#415119"/><stop offset=".329" stop-color="#4e621b"/><stop offset="1" stop-color="#5b741e"/></linearGradient><linearGradient id="L" x1="11.751" y1="9.777" x2="14.906" y2="9.777" xlink:href="#BW"><stop offset="0" stop-color="#4d6f38"/><stop offset="1" stop-color="#93b784"/></linearGradient><linearGradient id="M" x1="27.319" y1="22.358" x2="29.144" y2="22.358" xlink:href="#BW"><stop offset="0" stop-color="#575549"/><stop offset="1" stop-color="#95928b"/></linearGradient><linearGradient id="N" x1="13.713" y1="9.323" x2="17.443" y2="9.323" xlink:href="#BW"><stop offset="0" stop-color="#688c59"/><stop offset="1" stop-color="#688b5f"/></linearGradient><linearGradient id="O" x1="14.137" y1="11.017" x2="17.07" y2="11.017" xlink:href="#BW"><stop offset="0" stop-color="#83a245"/><stop offset="1" stop-color="#a5ca63"/></linearGradient><linearGradient id="P" x1="14.775" y1="26.169" x2="16.416" y2="26.169" xlink:href="#BW"><stop offset="0" stop-color="#c19771"/><stop offset="1" stop-color="#694930"/></linearGradient><linearGradient id="Q" x1="16.065" y1="25.846" x2="20.933" y2="25.846" xlink:href="#BW"><stop offset="0" stop-color="#c59e77"/><stop offset="1" stop-color="#a07e63"/></linearGradient><linearGradient id="R" x1="2.878" y1="18.668" x2="20.206" y2="18.668" xlink:href="#BW"><stop offset="0" stop-color="#dddddf"/><stop offset=".18" stop-color="#e0e0e2"/><stop offset=".42" stop-color="#cacacc"/><stop offset=".651" stop-color="#ccc"/><stop offset="1" stop-color="#fefefe"/></linearGradient><linearGradient id="S" x1="4.628" y1="26.363" x2="19.309" y2="26.363" xlink:href="#BW"><stop offset="0" stop-color="#c08c67"/><stop offset=".051" stop-color="#bd9975"/><stop offset=".188" stop-color="#a16948"/><stop offset=".329" stop-color="#c7a081"/><stop offset=".49" stop-color="#b67e59"/><stop offset=".639" stop-color="#c5a17f"/><stop offset=".82" stop-color="#bb8f6a"/><stop offset="1" stop-color="#cb9879"/></linearGradient><linearGradient id="T" x1="3.729" y1="19.597" x2="19.941" y2="19.597" xlink:href="#BW"><stop offset="0" stop-color="#f2f2f4"/><stop offset=".502" stop-color="#d6d6d6"/><stop offset="1" stop-color="#ededed"/></linearGradient><linearGradient id="U" x1="8.333" y1="14.392" x2="12.231" y2="14.392" xlink:href="#BW"><stop offset="0" stop-color="#dee0e2"/><stop offset="1" stop-color="#fefefe"/></linearGradient><linearGradient id="V" x1="36.285" y1="32.774" x2="36.891" y2="32.774" xlink:href="#BW"><stop offset="0" stop-color="#141414"/><stop offset="1" stop-color="#3a3937"/></linearGradient><linearGradient id="W" x1="2.905" y1="18.378" x2="20.216" y2="18.378" xlink:href="#BW"><stop offset="0" stop-color="#e0e1e3"/><stop offset="1" stop-color="#e8e9ed"/></linearGradient><linearGradient id="X" x1="13.709" y1="10.012" x2="14.286" y2="10.012" xlink:href="#BW"><stop offset="0" stop-color="#192508"/><stop offset="1" stop-color="#44692d"/></linearGradient><linearGradient id="Y" x1="13.778" y1="25.97" x2="14.388" y2="19.107" xlink:href="#BW"><stop offset="0" stop-color="#d0af90"/><stop offset="1" stop-color="#d7b89c"/></linearGradient><linearGradient id="Z" x1="12.123" y1="14.603" x2="12.387" y2="11.171" xlink:href="#BW"><stop offset="0" stop-color="#2e4c10"/><stop offset="1" stop-color="#3c4a2c"/></linearGradient><linearGradient id="a" x1="12.096" y1="14.594" x2="12.219" y2="11.683" xlink:href="#BW"><stop offset="0" stop-color="#4d6445"/><stop offset=".188" stop-color="#42513a"/><stop offset="1" stop-color="#363d2f"/></linearGradient><linearGradient id="b" x1="33.071" y1="30.147" x2="33.242" y2="25.644" xlink:href="#BW"><stop offset="0" stop-color="#8d8d95"/><stop offset=".502" stop-color="#c3c4c8"/><stop offset="1" stop-color="#9ba0a4"/></linearGradient><linearGradient id="c" x1="32.414" y1="33.01" x2="32.671" y2="25.651" xlink:href="#BW"><stop offset="0" stop-color="#c9ab6f"/><stop offset="1" stop-color="#fdd630"/></linearGradient><linearGradient id="d" x1="28.996" y1="28.21" x2="29.377" y2="16.155" xlink:href="#BW"><stop offset="0" stop-color="#d5b495"/><stop offset=".361" stop-color="#dfbd9a"/><stop offset=".729" stop-color="#e6c8ae"/><stop offset="1" stop-color="#d3c1b3"/></linearGradient><linearGradient id="e" x1="31.582" y1="29.176" x2="31.595" y2="27.846" xlink:href="#BW"><stop offset="0" stop-color="#b79d7a"/><stop offset="1" stop-color="#a2846c"/></linearGradient><linearGradient id="f" x1="35.928" y1="31.019" x2="35.882" y2="26.593" xlink:href="#BW"><stop offset="0" stop-color="#101113"/><stop offset="1" stop-color="#5e626d"/></linearGradient><linearGradient id="g" x1="11.28" y1="18.392" x2="5.541" y2="17.009" xlink:href="#BW"><stop offset="0" stop-color="#b5b5b5"/><stop offset="1" stop-color="#e1e2e5"/></linearGradient><linearGradient id="h" x1="13.571" y1="14.389" x2="9.742" y2="14.342" xlink:href="#BW"><stop offset="0" stop-color="#697062"/><stop offset=".302" stop-color="#959a93"/><stop offset="1" stop-color="#c2c4c4"/></linearGradient><linearGradient id="i" x1="30.053" y1="26.224" x2="28.287" y2="26.354" xlink:href="#BW"><stop offset="0" stop-color="#564237"/><stop offset="1" stop-color="#725f50"/></linearGradient><linearGradient id="j" x1="8.943" y1="9.065" x2="7.733" y2="9.175" xlink:href="#BW"><stop offset="0" stop-color="#6d9254"/><stop offset="1" stop-color="#849a75"/></linearGradient><linearGradient id="k" x1="21.85" y1="25.888" x2="21.717" y2="27.414" xlink:href="#BW"><stop offset="0" stop-color="#7e5c43"/><stop offset="1" stop-color="#8f705b"/></linearGradient><linearGradient id="l" x1="12.865" y1="8.999" x2="12.873" y2="9.556" xlink:href="#BW"><stop offset="0" stop-color="#33520f"/><stop offset="1" stop-color="#87a172"/></linearGradient><linearGradient id="m" x1="31.066" y1="24.911" x2="33.88" y2="33.04" xlink:href="#BW"><stop offset="0" stop-color="#4d4d4d"/><stop offset=".329" stop-color="#e6e6e6"/><stop offset=".659" stop-color="#ccc"/><stop offset="1" stop-color="#888c8e"/></linearGradient><linearGradient id="n" x1="35.429" y1="24.752" x2="36.137" y2="24.801" xlink:href="#BW"><stop offset="0" stop-color="#222325"/><stop offset="1" stop-color="#57585a"/></linearGradient><linearGradient id="o" x1="31.558" y1="23.312" x2="32.455" y2="18.244" xlink:href="#BW"><stop offset="0" stop-color="#ae9b7d"/><stop offset=".529" stop-color="#d7c6ac"/><stop offset="1" stop-color="#b28f69"/></linearGradient><linearGradient id="p" x1="14.841" y1="21.384" x2="15.545" y2="15.888" xlink:href="#BW"><stop offset="0" stop-color="#9d836a"/><stop offset="1" stop-color="#d7b89c"/></linearGradient><linearGradient id="q" x1="34.468" y1="30.358" x2="34.688" y2="27.306" xlink:href="#BW"><stop offset="0" stop-color="#797a7c"/><stop offset=".231" stop-color="#a2a3a7"/><stop offset=".761" stop-color="#77777f"/><stop offset="1" stop-color="#555658"/></linearGradient><linearGradient id="r" x1="40.688" y1="29.611" x2="40.711" y2="28.595" xlink:href="#BW"><stop offset="0" stop-color="#413735"/><stop offset="1" stop-color="#66676c"/></linearGradient><linearGradient id="s" x1="12.828" y1="9.886" x2="12.458" y2="9.587" xlink:href="#BW"><stop offset="0" stop-color="#1e3500"/><stop offset="1" stop-color="#6e7c53"/></linearGradient><linearGradient id="t" x1="21.39" y1="17.156" x2="20.476" y2="19.9" xlink:href="#BW"><stop offset="0" stop-color="#b89474"/><stop offset="1" stop-color="#d1bda4"/></linearGradient><linearGradient id="u" x1="28.796" y1="25.54" x2="32.717" y2="29.135" xlink:href="#BW"><stop offset="0" stop-color="#9e8664"/><stop offset="1" stop-color="#c1a98d"/></linearGradient><linearGradient id="v" x1="20.499" y1="26.566" x2="21.474" y2="26.566" xlink:href="#BW"><stop offset="0" stop-color="#89654d"/><stop offset="1" stop-color="#472c19"/></linearGradient><linearGradient id="w" x1="12.431" y1="11.174" x2="12.683" y2="11.174" xlink:href="#BW"><stop offset="0" stop-color="#193700"/><stop offset="1" stop-color="#98b275"/></linearGradient><linearGradient id="x" x1="33.527" y1="27.857" x2="36.613" y2="23.613" xlink:href="#BW"><stop offset="0" stop-color="#92959a"/><stop offset=".51" stop-color="#c5c4c9"/><stop offset="1" stop-color="#93969b"/></linearGradient><linearGradient id="y" x1="35.367" y1="32.962" x2="35.396" y2="31.998" xlink:href="#BW"><stop offset="0" stop-color="#858489"/><stop offset="1" stop-color="#a9aaaf"/></linearGradient><linearGradient id="z" x1="16.387" y1="28.637" x2="16.442" y2="29.179" xlink:href="#BW"><stop offset="0" stop-color="#4e3018"/><stop offset="1" stop-color="#9d7f65"/></linearGradient><linearGradient id="AA" x1="31.312" y1="27.626" x2="30.278" y2="27.664" xlink:href="#BW"><stop offset="0" stop-color="#262721"/><stop offset="1" stop-color="#636266"/></linearGradient><linearGradient id="AB" x1="30.03" y1="31.308" x2="29.069" y2="32.802" xlink:href="#BW"><stop offset="0" stop-color="#faf7b2"/><stop offset="1" stop-color="#ffe361"/></linearGradient><linearGradient id="AC" x1="38.036" y1="31.931" x2="37.678" y2="32.909" xlink:href="#BW"><stop offset="0" stop-color="#262626"/><stop offset="1" stop-color="#6d6e71"/></linearGradient><linearGradient id="AD" x1="9.465" y1="7.715" x2="9.652" y2="8.638" xlink:href="#BW"><stop offset="0" stop-color="#557811"/><stop offset="1" stop-color="#49730c"/></linearGradient><linearGradient id="AE" x1="34.584" y1="26.96" x2="36.858" y2="24.781" xlink:href="#BW"><stop offset="0" stop-color="#818183"/><stop offset=".471" stop-color="#c0c1c5"/><stop offset="1" stop-color="#696d70"/></linearGradient><linearGradient id="AF" x1="30.02" y1="30.595" x2="34.037" y2="23.495" xlink:href="#BW"><stop offset="0" stop-color="#7d7d7f"/><stop offset=".459" stop-color="#74757a"/><stop offset=".678" stop-color="#72777b"/><stop offset="1" stop-color="#7b7b7d"/></linearGradient><linearGradient id="AG" x1="11.459" y1="14.628" x2="12.299" y2="12.637" xlink:href="#BW"><stop offset="0" stop-color="#263510"/><stop offset="1" stop-color="#212e15"/></linearGradient><linearGradient id="AH" x1="35.838" y1="30.883" x2="36.105" y2="29.078" xlink:href="#BW"><stop offset="0" stop-color="#33383c"/><stop offset="1" stop-color="#50545f"/></linearGradient><linearGradient id="AI" x1="31.718" y1="26.761" x2="31.865" y2="24.989" xlink:href="#BW"><stop offset="0" stop-color="#1a1a1a"/><stop offset="1" stop-color="#515054"/></linearGradient><linearGradient id="AJ" x1="17.207" y1="28.404" x2="16.996" y2="28.926" xlink:href="#BW"><stop offset="0" stop-color="#865b3b"/><stop offset="1" stop-color="#a36c43"/></linearGradient><linearGradient id="AK" x1="21.698" y1="16.739" x2="14.943" y2="17.409" xlink:href="#BW"><stop offset="0" stop-color="#997f66"/><stop offset=".231" stop-color="#b89b81"/><stop offset="1" stop-color="#d7b89c"/></linearGradient><linearGradient id="AL" x1="18.391" y1="24.768" x2="16.587" y2="25.555" xlink:href="#BW"><stop offset="0" stop-color="#949494"/><stop offset="1" stop-color="#bcbabb"/></linearGradient><linearGradient id="AM" x1="10.643" y1="6.845" x2="8.435" y2="13.13" xlink:href="#BW"><stop offset="0" stop-color="#295c04"/><stop offset="1" stop-color="#6fa45b"/></linearGradient><linearGradient id="AN" x1="34.127" y1="31.554" x2="35.091" y2="32.572" xlink:href="#BW"><stop offset="0" stop-color="#434343"/><stop offset="1" stop-color="#616264"/></linearGradient><linearGradient id="AO" x1="34.065" y1="30.729" x2="36.013" y2="32.47" xlink:href="#BW"><stop offset="0" stop-color="#676767"/><stop offset="1" stop-color="#84898d"/></linearGradient><linearGradient id="AP" x1="31.526" y1="28.672" x2="30.421" y2="28.354" xlink:href="#BW"><stop offset="0" stop-color="#363634"/><stop offset=".361" stop-color="#4a4e51"/><stop offset="1" stop-color="#5f666e"/></linearGradient><linearGradient id="AQ" x1="16.453" y1="30.705" x2="4.491" y2="30.705" xlink:href="#BW"><stop offset="0" stop-color="#999"/><stop offset=".639" stop-color="#c4c4c4"/><stop offset="1" stop-color="#f0f0f0"/></linearGradient><linearGradient id="AR" x1="17.133" y1="25.852" x2="16.749" y2="26.22" xlink:href="#BW"><stop offset="0" stop-color="#815636"/><stop offset="1" stop-color="#a26d45"/></linearGradient><linearGradient id="AS" x1="31.27" y1="25.986" x2="33.904" y2="26.588" xlink:href="#BW"><stop offset="0" stop-color="#dfdfdf"/><stop offset=".729" stop-color="#cbc9cd"/><stop offset="1" stop-color="#b6b3ba"/></linearGradient><linearGradient id="AT" x1="9.504" y1="16.738" x2="14.035" y2="15.874" xlink:href="#BW"><stop offset="0" stop-color="#82756e"/><stop offset=".169" stop-color="#b6b6b4"/><stop offset=".749" stop-color="#eef0f2"/><stop offset="1" stop-color="#fefefe"/></linearGradient><linearGradient id="AU" x1="31.67" y1="28.356" x2="33.468" y2="24.833" xlink:href="#BW"><stop offset="0" stop-color="#e5cd6d"/><stop offset="1" stop-color="#979062"/></linearGradient><linearGradient id="AV" x1="31.305" y1="28.337" x2="31.877" y2="26.8" xlink:href="#BW"><stop offset="0" stop-color="#cad0cc"/><stop offset="1" stop-color="#9a9b9f"/></linearGradient><linearGradient id="AW" x1="30.71" y1="22.301" x2="30.439" y2="20.501" xlink:href="#BW"><stop offset="0" stop-color="#586d72"/><stop offset=".302" stop-color="#859ba2"/><stop offset="1" stop-color="#b3cad2"/></linearGradient><linearGradient id="AX" xlink:href="#AQ" x1="27.214" y1="29.347" x2="9.376" y2="29.347"/><linearGradient id="AY" x1="11.209" y1="12.056" x2="10.78" y2="13.093" xlink:href="#BW"><stop offset="0" stop-color="#22360d"/><stop offset="1" stop-color="#364628"/></linearGradient><linearGradient id="AZ" x1="38.832" y1="28.814" x2="37.859" y2="31.439" xlink:href="#BW"><stop offset="0" stop-color="#373632"/><stop offset=".302" stop-color="#464547"/><stop offset="1" stop-color="#56555c"/></linearGradient><linearGradient id="Aa" x1="19.133" y1="15.765" x2="21.202" y2="17.484" xlink:href="#BW"><stop offset="0" stop-color="#baafad"/><stop offset="1" stop-color="#ba9e92"/></linearGradient><linearGradient id="Ab" x1="41.026" y1="29.274" x2="41.745" y2="29.361" xlink:href="#BW"><stop offset="0" stop-color="#fed501"/><stop offset="1" stop-color="#f6a61d"/></linearGradient><linearGradient id="Ac" x1="31.014" y1="30.591" x2="29.601" y2="30.08" xlink:href="#BW"><stop offset="0" stop-color="#4a4947"/><stop offset=".588" stop-color="#a8abb0"/><stop offset="1" stop-color="#707978"/></linearGradient><linearGradient id="Ad" x1="34.963" y1="28.699" x2="29.143" y2="27.979" xlink:href="#BW"><stop offset="0" stop-color="#151515"/><stop offset=".302" stop-color="#333"/><stop offset="1" stop-color="#525252"/></linearGradient><linearGradient id="Ae" x1="36.798" y1="25.489" x2="37.771" y2="25.34" xlink:href="#BW"><stop offset="0" stop-color="#7c7a7b"/><stop offset="1" stop-color="#545351"/></linearGradient><linearGradient id="Af" x1="36.233" y1="32.648" x2="37.898" y2="31.931" xlink:href="#BW"><stop offset="0" stop-color="#4f4f51"/><stop offset="1" stop-color="#57565b"/></linearGradient><linearGradient id="Ag" x1="25.694" y1="24.968" x2="34.814" y2="19.067" xlink:href="#BW"><stop offset="0" stop-color="#d0a787"/><stop offset=".62" stop-color="#cda989"/><stop offset="1" stop-color="#c6b2a9"/></linearGradient><linearGradient id="Ah" x1="39.956" y1="29.682" x2="32.313" y2="27.653" xlink:href="#BW"><stop offset="0" stop-color="#666769"/><stop offset=".322" stop-color="#7a7d7f"/><stop offset="1" stop-color="#8f9396"/></linearGradient><linearGradient id="Ai" x1="30.554" y1="32.052" x2="28.89" y2="31.658" xlink:href="#BW"><stop offset="0" stop-color="#f7991b"/><stop offset=".251" stop-color="#fab216"/><stop offset="1" stop-color="#fecb10"/></linearGradient><linearGradient id="Aj" x1="40.934" y1="29.317" x2="35.16" y2="31.063" xlink:href="#BW"><stop offset="0" stop-color="#4e4d52"/><stop offset="1" stop-color="#63636d"/></linearGradient><linearGradient id="Ak" x1="17.211" y1="15.226" x2="16.947" y2="17.26" xlink:href="#BW"><stop offset="0" stop-color="#cfb9a2"/><stop offset="1" stop-color="#d7b89c"/></linearGradient><linearGradient id="Al" x1="38.794" y1="28.825" x2="38.92" y2="29.576" xlink:href="#BW"><stop offset="0" stop-color="#fdb719"/><stop offset="1" stop-color="#ffc416"/></linearGradient><linearGradient id="Am" x1="13.232" y1="13.679" x2="14.212" y2="14.013" xlink:href="#BW"><stop offset="0" stop-color="#142a05"/><stop offset=".8" stop-color="#476025"/><stop offset="1" stop-color="#7a9746"/></linearGradient><linearGradient id="An" x1="13.9" y1="10.77" x2="17.555" y2="11.802" xlink:href="#BW"><stop offset="0" stop-color="#769a3c"/><stop offset=".169" stop-color="#47680f"/><stop offset=".42" stop-color="#476907"/><stop offset=".749" stop-color="#85ae3e"/><stop offset="1" stop-color="#a7cb6f"/></linearGradient><linearGradient id="Ao" x1="35.152" y1="25.238" x2="35.302" y2="24.791" xlink:href="#BW"><stop offset="0" stop-color="#292a2c"/><stop offset="1" stop-color="#707176"/></linearGradient><linearGradient id="Ap" x1="31.369" y1="26.869" x2="31.179" y2="26.28" xlink:href="#BW"><stop offset="0" stop-color="#0b1013"/><stop offset="1" stop-color="#313131"/></linearGradient><linearGradient id="Aq" x1="35.214" y1="16.681" x2="31.345" y2="16.178" xlink:href="#BW"><stop offset="0" stop-color="#adc4cc"/><stop offset="1" stop-color="#b3cad2"/></linearGradient><linearGradient id="Ar" x1="30.673" y1="26.762" x2="28.366" y2="27.216" xlink:href="#BW"><stop offset="0" stop-color="#7a5239"/><stop offset=".349" stop-color="#a48064"/><stop offset="1" stop-color="#ceaf90"/></linearGradient><linearGradient id="As" x1="31.379" y1="31.475" x2="30.885" y2="31.311" xlink:href="#BW"><stop offset="0" stop-color="#272727"/><stop offset="1" stop-color="#6e6e6e"/></linearGradient><linearGradient id="At" x1="35.711" y1="9.523" x2="34.089" y2="9.376" xlink:href="#BW"><stop offset="0" stop-color="#acc3cb"/><stop offset=".749" stop-color="#afc6ce"/><stop offset="1" stop-color="#b3cad2"/></linearGradient><linearGradient id="Au" x1="37.676" y1="32.357" x2="26.078" y2="32.357" xlink:href="#BW"><stop offset="0" stop-color="#999"/><stop offset=".769" stop-color="#c4c4c4"/><stop offset="1" stop-color="#f0f0f0"/></linearGradient><linearGradient id="Av" x1="11.85" y1="31.728" x2="13.412" y2="30.986" xlink:href="#BW"><stop offset="0" stop-color="#9c5d3a"/><stop offset=".349" stop-color="#ac7552"/><stop offset="1" stop-color="#bd8e6a"/></linearGradient><linearGradient id="Aw" x1="31.247" y1="29.681" x2="29.996" y2="29.208" xlink:href="#BW"><stop offset="0" stop-color="#f0911d"/><stop offset=".188" stop-color="#f7ac19"/><stop offset="1" stop-color="#ffc815"/></linearGradient><linearGradient id="Ax" x1="38.618" y1="28.115" x2="38.797" y2="28.955" xlink:href="#BW"><stop offset="0" stop-color="#f6971f"/><stop offset="1" stop-color="#fdaf17"/></linearGradient><linearGradient id="Ay" x1="11.228" y1="13.985" x2="10.357" y2="13.553" xlink:href="#BW"><stop offset="0" stop-color="#afb072"/><stop offset="1" stop-color="#afa87f"/></linearGradient><linearGradient id="Az" x1="30.154" y1="28.492" x2="32.438" y2="30.045" xlink:href="#BW"><stop offset="0" stop-color="#1e231f"/><stop offset=".278" stop-color="#757876"/><stop offset="1" stop-color="#cdcdcd"/></linearGradient><linearGradient id="BA" x1="10.282" y1="11.843" x2="12.611" y2="12.809" xlink:href="#BW"><stop offset="0" stop-color="#2d3c19"/><stop offset="1" stop-color="#2b470c"/></linearGradient><linearGradient id="BB" x1="13.934" y1="11.175" x2="15.34" y2="11.618" xlink:href="#BW"><stop offset="0" stop-color="#2e4510"/><stop offset="1" stop-color="#53731f"/></linearGradient><linearGradient id="BC" x1="13.998" y1="11.472" x2="14.794" y2="11.323" xlink:href="#BW"><stop offset="0" stop-color="#496628"/><stop offset="1" stop-color="#88ac4e"/></linearGradient><linearGradient id="BD" x1="26.291" y1="22.497" x2="25.389" y2="22.379" xlink:href="#BW"><stop offset="0" stop-color="#99aeb3"/><stop offset=".271" stop-color="#a6bcc2"/><stop offset="1" stop-color="#b3cad2"/></linearGradient><linearGradient id="BE" x1="31.944" y1="28.819" x2="31.669" y2="28.933" xlink:href="#BW"><stop offset="0" stop-color="#482914"/><stop offset=".639" stop-color="#7d5e45"/><stop offset="1" stop-color="#b29377"/></linearGradient><linearGradient id="BF" x1="29.53" y1="5.547" x2="29.495" y2="7.413" xlink:href="#BW"><stop offset="0" stop-color="#acc3cb"/><stop offset=".11" stop-color="#afc6ce"/><stop offset="1" stop-color="#b3cad2"/></linearGradient><linearGradient id="BG" x1="9.928" y1="13.862" x2="10.499" y2="13.656" xlink:href="#BW"><stop offset="0" stop-color="#919c72"/><stop offset=".102" stop-color="#a8b07e"/><stop offset="1" stop-color="#c0c58a"/></linearGradient><linearGradient id="BH" x1="39.507" y1="26.858" x2="38.605" y2="27.272" xlink:href="#BW"><stop offset="0" stop-color="#181818"/><stop offset="1" stop-color="#6e6f71"/></linearGradient><linearGradient id="BI" x1="10.465" y1="13.287" x2="11.018" y2="12.83" xlink:href="#BW"><stop offset="0" stop-color="#283618"/><stop offset=".8" stop-color="#384b2b"/><stop offset="1" stop-color="#49613e"/></linearGradient><linearGradient id="BJ" x1="30.527" y1="28.85" x2="31.172" y2="28.954" xlink:href="#BW"><stop offset="0" stop-color="#f74a3c"/><stop offset=".259" stop-color="#ffa199"/><stop offset="1" stop-color="#ae2d28"/></linearGradient><linearGradient id="BK" x1="31.097" y1="28.961" x2="30.587" y2="28.803" xlink:href="#BW"><stop offset="0" stop-color="#782a1d"/><stop offset=".741" stop-color="#edb9b6"/><stop offset="1" stop-color="#ef524d"/></linearGradient><linearGradient id="BL" x1="21.152" y1="12.142" x2="26.252" y2="13.797" xlink:href="#BW"><stop offset="0" stop-color="#a4bac3"/><stop offset=".102" stop-color="#abc2ca"/><stop offset="1" stop-color="#b3cad2"/></linearGradient><linearGradient id="BM" x1="12.804" y1="13.672" x2="13.02" y2="13.672" xlink:href="#BW"><stop offset="0" stop-color="#1a220b"/><stop offset=".38" stop-color="#686637"/><stop offset="1" stop-color="#b6ab64"/></linearGradient><linearGradient id="BN" x1="26.03" y1="21.438" x2="26.603" y2="18.501" xlink:href="#BW"><stop offset="0" stop-color="#79969c"/><stop offset=".278" stop-color="#96b0b7"/><stop offset="1" stop-color="#b3cad2"/></linearGradient><linearGradient id="BO" x1="26.761" y1="9.829" x2="27.464" y2="9.314" xlink:href="#BW"><stop offset="0" stop-color="#a0bbc1"/><stop offset=".271" stop-color="#a9c2c9"/><stop offset="1" stop-color="#b3cad2"/></linearGradient><linearGradient id="BP" x1="26.023" y1="15.842" x2="26.564" y2="14.9" xlink:href="#BW"><stop offset="0" stop-color="#95b2b8"/><stop offset=".149" stop-color="#a4bec5"/><stop offset="1" stop-color="#b3cad2"/></linearGradient><linearGradient id="BQ" x1="19.056" y1="23.571" x2="19.645" y2="20.921" xlink:href="#BW"><stop offset="0" stop-color="#a8bbc1"/><stop offset=".4" stop-color="#adc2c9"/><stop offset="1" stop-color="#b3cad2"/></linearGradient><linearGradient id="BR" x1="31.598" y1="10.091" x2="31.958" y2="9.749" xlink:href="#BW"><stop offset="0" stop-color="#a9c2c9"/><stop offset="1" stop-color="#b3cad2"/></linearGradient><radialGradient id="BS" cx="36.663" cy="27.957" r="59.842" fx="36.663" fy="27.957" xlink:href="#BW"><stop offset="0" stop-color="#80828f"/><stop offset="1" stop-color="#5a5961"/></radialGradient><radialGradient id="BT" cx="9.449" cy="9.841" r="71.995" fx="9.449" fy="9.841" xlink:href="#BW"><stop offset="0" stop-color="#8dbf4c"/><stop offset="1" stop-color="#9bc889"/></radialGradient><radialGradient id="BU" cx="13.571" cy="11.829" r="41.711" fx="13.571" fy="11.829" xlink:href="#BW"><stop offset="0" stop-color="#8a9780"/><stop offset="1" stop-color="#2f4522"/></radialGradient><radialGradient id="BV" cx="29.594" cy="17.141" r="36.926" fx="29.594" fy="17.141" xlink:href="#BW"><stop offset="0" stop-color="#a5bec5"/><stop offset="1" stop-color="#b3cad2"/></radialGradient><linearGradient id="BW" gradientUnits="userSpaceOnUse"/></defs><circle cx="22.089" cy="22.053" r="19.05" fill="#f0f0f0"/><path d="M32.344 34.787l-.722-.233 3.437-.38 1.455-.653 2.61.482-.446-.596-12.306-4.562s-1.746 2.603-1.088 3.686 7.567 3.34 7.058 2.256z" fill="url(#Au)"/><path d="M9.545 33.454l-3.493-.988-2.08-4.5 9.724 2.488 1.35.376 1.927.71-.166.954-4.85-.504z" fill="url(#AQ)"/><path d="M24.76 32.868L8.385 28.256l2.22-2.43 17.6 5.142-1.214.288-4.054-.737-1.8.756 3.885 1.132z" fill="url(#AX)"/><path d="M16.154 24.8l.43.015c.664.027 1.577.16 2.226.296 1.58.33 5.944 1.423 7.113.98l5.045-3.042c.32-1.252.482-2.074 1.02-3.368.6-1.42.335-1.41 1.602-1.877l1.137-4.173c.174-.82.21-2.076.372-2.676.1-.377.186-1.363.23-1.837.05-.535.42-.906.343-1.423-.08-.534-.356-.844-.86-1.066-1.582-.696-7.8-.8-9.512-.435-1.856.395-1.265 1.8-1.654 2.975-.06.183-.19 1.73-.18 1.84-.766 1.686-.83 3.12-1.318 4.83-.393 1.376-1.002 2.663-1.42 4.032-1.15-.048-.89.03-1.67.053-.706-.368-3.514-.376-3.916.334-.227.4-.636.916-.795 1.293-.282.67-.715 2.15-.15 2.728.188.192.32.242.55.358.444.222.918.16 1.4.16z" fill="#b3cad2"/><path d="M23.818 7.746c3.22-2.53 7.664-.573 11.4-.877-1.456-1.065-7.616-.93-9.61-.728-.973.1-1.628.618-1.78 1.606z" fill="url(#BF)"/><path d="M24.533 10.912c-.955 1.994-1 3.085-1.265 5.205-.153.68-1.606 1.067-2.158 2.617l.714-1.92c.76-1.696.8-4.004 1.538-5.595.036-.077.116-.217.113-.3-.018-.497.067-1.276.17-1.756.16-.74.068-1.795.59-2.372.624-.687 1.567-.63 2.442-.718-2.49 1.45-1.943 4.78-2.146 4.85zm-3.808 8.952h0zm0 0l.205-.594-.05.16-.157.434z" fill="url(#BL)"/><path d="M20.725 19.864c.967.016 2.2.216 3.088.605l1.7.198c1.076.015 2.402.51 3.548.694.378.06.977.43 1.16.545.137.085.826.782.834.754l.852-2.792c-3.034-.6-6.848-1.734-9.964-2.513-.427-.107-1.063 2.074-1.063 2.074l-.157.434z" fill="url(#BN)"/><path d="M29.598 21.555c.026-.97 1.26-1.03 1.953-.786L31 22.276l-.38-.026c-.367-.364-.596-.467-1.02-.695z" fill="url(#AW)"/><path d="M30.663 22.787c-.028-.235-.082-1.16.076-1.293.108-.092.526-.242.526-.03 0 .223-.203 1.307-.293 1.565 0 0-.31-.2-.3-.24z" fill="#b3cad2"/><path d="M35.312 6.958c-.092.62-1.21 4.585-.878 4.66.238.054.43.136.6.323l.086-1.22c.116-.265.1-.852.108-1.16.013-.662.433-1.216.455-1.7a1.12 1.12 0 0 0-.369-.903z" fill="url(#At)"/><path d="M31.506 20.958l2.653-8.532c.053-.23.275-.81.275-.81s.62.282.598.327l-.062.164a1.64 1.64 0 0 1-.049.346c-.054.175.017.42-.065.64-.363.974-.663 2.57-.968 3.657l-1.333 4.492-1.05-.284z" fill="url(#Aq)"/><path d="M23.478 11.017c.6-.172 1.208-.112 1.82-.063-.16-.042-.18-.03-.004-.076l-.833.017.116-.088c.008-.045-.422.08-.47.094h-.163l.083-.057-.076.003.132-.094a2.21 2.21 0 0 0-.391.178l-.15.06a.96.96 0 0 1 .33-.401c-.068-.09-.362.33-.394.426z" fill="#718c97"/><path d="M23.625 9.253l-.053.582c.072-.18.157-.334.184-.524l-.133.31c-.006-.155.064-.203.08-.32l-.065.072-.013-.12z" fill="#a5b3be"/><path d="M23.634 9.593l.107-.305c0-.057-.124.233-.107.305zm-.015.194c.025-.05.19-.412.145-.342-.01.017-.15.258-.145.342z" fill="#baccd6"/><path d="M23.725 8.68c.09-.248.16-.455.317-.67-.11.073-.125.136-.07-.06-.157.28-.25.4-.248.73zm.044-.473l.233-.423c.017-.026-.146.22-.233.423zm.023-.203l.07-.207-.005-.234s-.07.287-.065.44z" fill="#a5b7c1"/><path d="M25.92 10.632l-.03-2.226c.078-.136 2.52 1.922 2.444 2.11-.042.105-1.817.152-2.167.357 0 0-.153-.283-.248-.24z" fill="url(#BO)"/><path d="M25.816 10.656c-.348.33.122.744.28.28.072-.212-.104-.385-.28-.28z" fill="#6e8994"/><path d="M25.934 11.1c-.232.147-.326-.382-.032-.437.198-.037.256.295.032.437z" fill="#a7c2cd"/><path d="M26.14 10.896a4.34 4.34 0 0 1 1.248-.321c.796-.04 1.928.142 2.73.324 0 0-2.892-.954-3.98-.004z" fill="#99b6bc"/><path d="M30.855 10.802c.432.017-.006.82-.258.44-.137-.208-.006-.45.258-.44z" fill="#698791"/><path d="M30.87 10.83c.323.144.017.604-.225.426-.154-.114-.08-.343.086-.424.08-.04.14-.001.14-.001z" fill="#b0c7cf"/><path d="M30.75 10.808l.116-2.35c.027-.033 1.83 2.632 1.893 2.822.046.137-1.718-.21-1.718-.21s.008-.3-.29-.262z" fill="url(#BR)"/><path d="M31.362 11.102l-.282.05.12-.05-.063-.077.224.076zm.272-.09c.224.067.276.115.542.162l-.492-.067c.05-.004-.05-.095-.05-.095zm.79.15l.135.078-.055.01.586.137c-.02-.01-.367-.082-.666-.227zm.872.286c.628.247 1.078.357 1.537.872-.344-.494-.986-.702-1.537-.872z" fill="#668188"/><path d="M34.644 12.824c.243.274.08.295.14.5l.073-.242c.017-.047-.14-.318-.213-.27z" fill="#799098"/><path d="M34.918 11.857l.05.25.042-.12-.093-.13z" fill="#899da6"/><path d="M34.384 10.83c.16.18.572.657.63.872l.015-.156c-.008-.072-.56-.67-.645-.715z" fill="#8aa1a9"/><path d="M35.026 11.5c.033-.104.024-.15.015-.253 0 0-.033.162-.015.253z" fill="#92a2af"/><path d="M33.535 8.89c.762.79 1.233 1.17 1.528 2.255l.004-.132-.204-.536c-.157-.33-1.064-1.5-1.327-1.587z" fill="#89a4ab"/><path d="M34.9 10.478l.14.378.03.12.023-.08-.042-.1c-.01-.057-.084-.277-.15-.328z" fill="#778d9a"/><path d="M35.002 10.108c.064.22.08.394.116.613l.037-.12-.05-.208c.01-.08-.047-.332-.105-.286z" fill="#8199a3"/><path d="M34.733 8.706c.17.364.376.716.47 1.1-.01-.294-.29-.916-.47-1.1z" fill="#87a2ad"/><path d="M35.225 9.518l-.01-.383c0-.07.09-.167.132-.232 0 0-.05.484-.12.616z" fill="#8ca4ae"/><path d="M34.355 7.317c.317.508.586.882.763 1.46-.086-.34-.51-1.338-.763-1.46z" fill="#93aab2"/><path d="M35.144 7.71c.072.244.15.525.185.776 0 0-.046-.614-.185-.776z" fill="#8ca5ac"/><path d="M35.36 8.858c.005-.377.022-.612.11-.98-.004.22-.043.766-.11.98z" fill="#889fa7"/><path d="M24.5 16.447l-.188-2.547c1.787 2.743.538 2.088 3.96 2.944-.677-.08-3.073-.433-3.616-.287 0 0-.004-.145-.156-.11z" fill="url(#BP)"/><path d="M35.447 8.58c.057-.13.22-.493.23-.624l-.094.226c0-.4-.022-.72-.204-1.08.142.505.19.963.07 1.48z" fill="#90abb6"/><path d="M24.372 16.452c.294-.12.403.187.22.397-.21.24-.554-.067-.22-.397z" fill="#6c898f"/><path d="M24.605 16.492c-.102-.14-.402.03-.343.277.045.19.23.158.336.03a.23.23 0 0 0 .008-.307z" fill="#a8bfc7"/><path d="M28.553 17.185c.135-1.003.445-1.806 1.455-2.186-.098 1.152 1.02 1.34.85 1.645-.11.197-1.853.204-2.306.54z" fill="url(#BV)"/><path d="M19.443 19.907l.72-.057-.054-.28c-.064-.128-.513.017-.602.06-.04.02-.072.036-.065.28z" fill="#99aeb3"/><path d="M19.482 19.884c-.034-.096-.024-.294.096-.22l.012.04c.072.034.06.097.08.185h-.116l.027-.056-.065-.1.083.028-.015-.036c-.147-.08-.1.058-.062.163l-.037.01-.003-.015z" fill="#536265"/><path d="M19.705 19.614l.096.22c.054.06-.04-.29-.096-.22zm.222-.07c.12.072.12.207.128.328h.024c-.003-.036-.056-.422-.152-.326zm.092-.01c.097.01.12.226.12.304l-.054.01.008.026.068-.008s-.013-.37-.143-.332z" fill="#81949b"/><path d="M30.922 22.83c.02-.012.114-.077.05-.093l-.05.093zm-.114.058l.02-.238c.02-.15.127-.788.1-.908l-.043-.08-.038-.093c-.05-.045-.175-.01-.146.088l.014.208c-.033.314-.01.63-.034.948l.02.005.04-.964.034-.114-.044-.108c.013-.06.055-.06.09-.047l.038.087.05.108c.008.068-.053.527-.053.527l-.07.553.037.03z" fill="#4b6061"/><path d="M15.077 20.355c-.622 1.145-2.298 3.746-.057 4.393.277.08.904.05 1.283.045 2.652-.025 7.25 1.785 9.2 1.4.212-.042.418-.11.418-.11-.042-.602-.02-2.602-.257-2.817-.75-.686-8.134-1.754-8.553-2.327-.02-.026-.585-3.024-2.036-.582z" fill="url(#BQ)"/><path d="M30.725 22.842l.057-.486.023-.277-.03.03-.066.723.015.01zm-.217-.64c.104.14.114.403.124.576l.023.012c-.002-.113.001-.57-.147-.588z" fill="#4b6061"/><path d="M30.773 22.308l.088-.56-.057-.125c-.06-.06.01.098.017.113l-.032.24-.016.332zm-.032-.578l-.003.057.003-.057zm.105-.064l.026.012-.026-.012z" fill="#101f22"/><path d="M31.13 22.236c.155-.686.397-1.366.646-2.025.095-.252.75-1.792.85-1.92l-.044.01c-.584 1.25-1.2 2.577-1.453 3.935z" fill="#2d2920"/><path d="M28.795 21.67a3.05 3.05 0 0 1 .418.626c-.057-.178-.18-.632-.418-.626z" fill="#8aa1a7"/><path d="M29.272 22.318c.13.018-.042-.326-.078-.382.022.12.038.27.078.382z" fill="#495a61"/><path d="M24.705 25.74l-2.884-.31-5.952-.877-.925.048 1.154-.072c.403.01 6.732 1.086 8.606 1.212z" fill="#84999e"/><path d="M27.32 22.564s.28-.132.66-.214a3.87 3.87 0 0 1 .86-.08l.305.025c-.594-.092-1.228-.005-1.785.215l.063-.358-.103.412z" fill="url(#M)"/><path d="M26.292 21.326c-.224.81-.313 1.68-.4 2.516-.026.01-.505-2.817.4-2.516z" fill="url(#BD)"/><path d="M26.207 21.61l-.115-.13.103.05-.12-.114c.398.184-.045-.08.057-.038l.128.07-.053.164z" fill="#8b9594"/><path d="M25.883 23.652c-.043.001-.02 1.4-.016 1.508v.124c-.03-.12-.194-.59-.162-.467.1.34.25.754.13 1.106.113-.145.047-.423.04-.597l.002-1.064.034-.586-.027-.024z" fill="#465558"/><path d="M25.51 24.293l.215.6c.036-.17-.148-.63-.215-.6z" fill="#7e9293"/><path d="M25.523 25.44l.057.465c.024-.09-.003-.43-.057-.465z" fill="#50656a"/><path d="M14.47 24.486c.21-.482-.156-.633-.53-1-.035.3.22.987.53 1z" fill="#9eb2b8"/><path d="M20.162 19.864l1.352-2.57c-1.005-.6-1.7-.83-2.8-1.163-2.42.067-3.47 2.707-3.936 4.713-1.07 1.368-1.598 3.885.863 3.954l.345-.005c.15-.013.422.02.422.02l.007.39 1.872-.198c1.446.266 6.507 1.474 7.634 1.077-.063-1.01-.074-1.945.05-2.95.294-2.383 1.33-6.405 4.247-6.52.588-.023 2.155.223 2.155.223.78.17 1.177.658 1.425 1.39l.187.465c.004.063-.057.296-.084.36-.043.1-.12.075-.22.057-.364.926-1.602 5.477-1.24 6.382.023.057.233.988.3 1.297-.386 1.882-1.555-1.697-2.538.476-.645.33-1.214.515-1.913.698.077.98.16 1.735.383 2.695.03.306.018.995-.414 1.02-.23.013-.563-.104-.704-.292-.115-.003-.47-.068-.558-.128-.138-.096-.187-.784-.22-1-1.414-.25-.725.863-1.485 2.265a.63.63 0 0 1-.526.338c-.218.017-.513-.136-.48-.414.07-.597.48-1.794.635-2.533l-7.51-1.488c.11.858-.618.905-1.242.746-.158.54-.376 1.486-1.023 1.565-.253.03-.494-.144-.48-.403.018-.36.517-1.603.63-2.174-.393-.7-.767-1.497-.935-2.285-.57-.204-1.946-9.715 2.635-10.34 1.266-.173 3.283.154 4.435.822l.478.29-.166.414-1.013 2.798-.563-.001zm7.157 2.7c1.04-.547 2.77-.346 3.648.475.27-1.643.922-3.228 1.642-4.724-.263-.236-.938-.776-1.266-.875-2.414.656-3.466 2.886-4.025 5.124zm-.885 6.2c.02.063.182.57.16.59l-.372-.073c.01-.045.18-.58.21-.516zm2.042-2.89l.97.185.217-.11-1.136-.18-.05.105zM17.21 26.6l3.57.646c-.224-.376-.365-.887-.598-1.217-.5.13-2.834.438-2.974.57zm4.223.767l.062-.06.275.047c.402.013.423-1.1.434-1.37l.048.002c.193.344.44.765.726 1.037.292.276.936.285.912-.247-.004-.084-.258-.55-.258-.55l2.346.39.023.225c-.576.057-.67.747-.738 1.223l-3.83-.696z" fill="#d7b89c"/><path d="M21.514 17.293l.082-.11.003-.2c-.62-.412-2.122-1.015-2.864-.836.992.282 1.896.61 2.78 1.157z" fill="url(#Aa)"/><path d="M21.6 16.99l-.744-.393L20 16.3c-.26-.076-.378-.103-.54-.116l-.383-.027s.172-.027.73.063 1.28.454 1.28.454.554.282.514.315z" fill="#bfaca5"/><path d="M19.364 15.665c-1.215-.07-2.263.22-3.062 1.185l-1.51.358c.995-1.93 2.636-1.885 4.57-1.543z" fill="url(#Ak)"/><path d="M14.416 21.4c.15-.855.354-1.788.688-2.588.364-.873.85-1.615 1.536-2.26.298-.28.56-.427.56-.427-1.67.938-2.406 3.117-2.77 4.88-.046.22-.053.46-.053.46l.04-.066z" fill="#ebd4c2"/><path d="M21.608 17.173l.07-.01.038-.134c-.538-.29-.953-.55-1.565-.716-.326-.088-.507-.144-.86-.177-.633-.058-1.365.054-1.932.348-.317.165-.57.403-.796.63s-.413.475-.413.475l-.454.686c-.128.205-.267.503-.417.86s-.197.525-.258.733l-.1.394-.13.56-.082.092s.053-.055.1-.294.238-.858.303-1.085.282-.698.403-.958.324-.542.433-.727.392-.54.585-.735c1.135-1.157 2.404-1.217 3.9-.75.837.26 1.3.643 1.3.643.05-.152.125-.273-.037.184l-.086-.001.006-.018z" fill="#947a61"/><path d="M21.14 18.614l-.586 1.25h.17z" fill="#91765b"/><path d="M21.602 17.19c-.472.744-1.1 1.848-1.424 2.673h.377l1.118-2.602.015-.07-.086-.001z" fill="url(#t)"/><path d="M16.8 16.86c.475-.45 1.012-.625 1.49-.703 1.134-.184 2.582.157 3.457.895l.144-.4c-.824-.572-1.917-.99-2.928-1.012-1.28-.03-2.102.594-2.915 1.488-1.282 1.41.603-.13.75-.268z" fill="url(#AK)"/><path d="M14.418 21.387c.11-.203.23-.363.36-.548 1.2-4.953.032-1.832-.36.548z" fill="url(#p)"/><path d="M14.02 19.14l.537 1.27c-.265 1.032-1.156 3.568-.09 4.08l.297 1.433a2.42 2.42 0 0 1-.416-.065c-.753-.548-.893-5.594-.327-6.718z" fill="url(#Y)"/><path d="M14.467 24.5l.297 1.433s.166-.1.22-.164c.085-.1-.14-.967-.163-1.078-.007-.023-.322-.192-.355-.19z" fill="#a98469"/><path d="M14.356 25.882l.406.072c.036-.003.244-.182.263-.203.05-.056-.16-.917-.19-1.053l-.017-.002.19 1.038-.235.192c-.026.01-.42-.043-.42-.043z" fill="url(#I)"/><path d="M15.393 27.64c-.205-.506-.505-1.144-.618-1.67.082-.072.27-.184.26-.3-.02-.254-.143-.706-.2-.975.358.116.776.087 1.15.094l.347.024.075-.001.007.388c-.576.13-.848.342-.73.973l-.008.082c-.117.415-.198.947-.284 1.383z" fill="url(#P)"/><path d="M15.968 25.325c-.355.157-.31.583-.302.878l-.094.502.127-.528c.06-.398-.19-.388.27-.853z" fill="#5e3f23"/><path d="M15.472 24.805c0-.005.928-.02.925.048l-.006.37.023-.01-.005-.398-.255-.025a5.96 5.96 0 0 0-.683.014z" fill="#635042"/><path d="M16.562 25.304c.18-.083 1.717-.2 2.032-.237l-.302-.05c.004.046-1.743.103-1.907.216l.177.07z" fill="url(#AL)"/><path d="M18.696 25.098l-2.073.21c-.01.003 1.2-.188 1.91-.23l.162.02z" fill="#483227"/><path d="M15.176 30.738c-.238-.1.56-2.64.643-3.06.134-.66.23-1.653.566-2.22l-.445.01c-.226.414-1.267 5.012-1.263 5.033.04.19.336.24.498.238z" fill="url(#D)"/><path d="M15.698 26.178s-.06-.24.008-.483c.02-.075.198-.4.32-.36l-.022.026c-.136.115-.266.637-.307.816z" fill="#b29671"/><path d="M16.065 26.44c.052-.337.176-.908.477-1.104.127-.083 1.756-.18 2.122-.243l1.487.317s-.003.202.028.225.753.147.753.147c-1.343.5-2.378.39-3.508.702-.104.03-.215.116-.215.116l-1.145-.16z" fill="url(#Q)"/><path d="M16.342 26.51c-.03.12-.28 1.027-.235 1.093.076.108 8.055 1.574 8.913 1.738l-.055.008-8.896-1.778c-.02-.105.273-1.06.273-1.06z" fill="#ab8560"/><path d="M16.817 28.31l-.128-.532-.027-.005z" fill="#7c5538"/><path d="M24.914 29.92l.097-.538-8.32-1.592.14.53z" fill="#cfa982"/><path d="M16.917 25.79s-.12.072-.13.215-.004.24.093.263.18-.105.202-.198a.31.31 0 0 0-.036-.227c-.03-.044-.09-.065-.13-.053z" fill="url(#AR)"/><path d="M16.496 28.042l.248.958.118.196.045.028-.226-.043s-.1.004-.193-.078l-.166-.475.174-.586zm-.333 1.137a2.74 2.74 0 0 0 .35.064l.117-.026s-.107-.002-.2-.06-.195-.206-.195-.206l-.07.228z" fill="#b49c84"/><path d="M16.325 28.64l-.1.3s.13.182.19.203l.172.02s-.098-.042-.147-.126a1.28 1.28 0 0 1-.124-.406z" fill="url(#z)"/><path d="M17.166 28.44s.103.056.078.24-.114.214-.174.227-.137-.04-.135-.2.076-.23.107-.26.11-.038.124-.007z" fill="url(#AJ)"/><path d="M20.487 25.95l-.303.08.598 1.217.393.056a7.13 7.13 0 0 0-.687-1.352z" fill="#aa927a"/><path d="M20.897 25.794c.08-.03.333.036.42.05-.033.327-.15.955-.07 1.265.034.136.126.148.25.198l-.06.058-.286-.05-.67-1.378.418-.143z" fill="url(#v)"/><path d="M21.648 25.903c-.034.213-.28 1.4.078 1.447-.1-.018-.345-.048-.412-.116-.192-.195-.046-1.108-.015-1.392l.35.06z" fill="url(#G)"/><path d="M22.204 25.985l-.087.883c-.018.174-.186.53-.392.48-.362 0-.1-1.24-.078-1.447l.556.082z" fill="url(#k)"/><path d="M21.852 26.642c-.135.046-.195.42-.01.42s.195-.487.01-.42z" fill="#7e5539"/><path d="M22.26 26.003c.197.367.74 1.332 1.272 1.213.034-.008-.812-.95-.914-1.15l-.357-.064z" fill="#98846b"/><path d="M23.632 26.226s.248.446.252.524c.02.397-.16.355-.385.447-.12.05-.806-1.002-.88-1.13l1.014.16z" fill="#b09580"/><path d="M17.19 26.62l8.064 1.47.005-.026L17.2 26.6z" fill="#897b6e"/><path d="M24.84 32.85c.002.01.28-1.62.433-2.344l.764-3.36-.037-.31c-.42.077-.488.255-.616.655-.11.348-.64 3.237-.64 3.237-.067.327-.548 1.82-.42 1.972.08.095.478.185.514.15z" fill="url(#B)"/><path d="M25.027 32.792c.477-.277.843-2.097.992-2.66.087-.392.19-1.052.41-1.38l-.173-.707-.065-.074-.154-.825c-.277.334-.575 2.383-.678 2.923-.077.4-.965 3.034-.332 2.722z" fill="url(#A)"/><path d="M26.005 28.324c-.09.186.06.343.11.166.013-.044.01-.3-.11-.166z" fill="#8a532a"/><path d="M25.987 28.377c.126-.2.144.052.1.17.12-.152-.016-.418-.1-.17z" fill="#6b3d19"/><path d="M26.02 30.132l.137-.535.502.122.114.557z" fill="#b89871"/><path d="M26.153 29.6l.505.1-.074-.368-.368-.08z" fill="#66482e"/><path d="M26.598 29.34c.215.673.543 1.462.944 2.043-.105.013-.45-.072-.536-.12-.125-.068-.194-.63-.208-.757l-.2-1.167z" fill="#c6af8d"/><path d="M27.308 30.998c.035.15.103.278.22.38l-.22-.38z" fill="#886346"/><path d="M26.262 28.053l.353.074.174.016.001-.033-.266-.033-.252-.05-.01.026z" fill="#b6997b"/><path d="M26.276 28.056l.01.124.2.763c.12.425.316.984.547 1.523s.53.944.57.987.065.084.165.112l.454.107s-.107-.088-.202-.227a10.99 10.99 0 0 1-.519-.971c-.122-.267-.404-1.087-.523-1.453s-.235-.875-.235-.875l-.47-.09z" fill="#dac3a4"/><path d="M28.186 31.638l-.285-.427c-.127-.202-.353-.713-.423-.866a11.18 11.18 0 0 1-.338-.917l-.195-.725-.14-.51-.015.08c-.006.04.157.648.202.784l.313.98c.183.5.696 1.492.88 1.602z" fill="#e0c9aa"/><path d="M28.326 30.674c-.19.107-.14.65.036.475.152-.152.136-.558-.036-.475z" fill="#cb9267"/><path d="M28.22 30.883c.03-.088.162-.314.218-.11-.013-.184-.186-.11-.218.11z" fill="#b6825b"/><path d="M26.226 28.032l.502.077.07-.07-.07-2.444c.026-1.806.367-4.167 1.283-5.748.78-1.345 2.806-3.592 4.516-2.967l-2.246-.268s-.83-.032-1.498.41c-1.235.815-1.986 2.524-2.38 3.9-.332 1.062-.56 2.672-.533 3.782.01.557.134 2.947.355 3.33z" fill="url(#d)"/><path d="M20.25 25.654l5.724.935-.045-.446-.11-.01c-1.044.414-5.55-.773-5.67-.694 0 0-.006.186.028.197l.07.02z" fill="#a98f74"/><path d="M27.247 22.926c.528-.337 1.525-.676 2.147-.6-.822-.11-1.298-.082-2.075.238l-.072.362z" fill="#c1b6a4"/><path d="M31.218 23.26c.478-1.624 1.043-3.443 1.823-4.932a2.38 2.38 0 0 0-.396-.029c-.265.03-1.512 4.234-1.674 4.722l.246.24z" fill="url(#o)"/><path d="M32.436 25.457c-.28-.862-.52-1.582-1.22-2.196.502-1.698 1.01-3.352 1.823-4.932.23.163.48.484.655.705l-.085.26a17.64 17.64 0 0 0-1.095 4.56c-.038.36-.14 1.2-.08 1.604z" fill="url(#F)"/><path d="M31.343 17.44c.512.228.845.463 1.24.86.12-.033.448-.02.543.067.192.175.445.435.57.666l-.004.068.153.006c.088-.01-.38-1.42-1.33-1.706-.23-.07-1.068-.034-1.17.04z" fill="url(#J)"/><path d="M32.615 18.306c.016-.02.37-.004.41.017.03.017.104.06.24.207l.423.493.022-.013c-.005-.045-.54-.626-.62-.678-.067-.044-.5-.115-.478-.026z" fill="#855936"/><path d="M26.807 28.128s.156-.153.202-.237-.27-1.663.004-3.586c.36-2.52 1.382-6.305 4.33-6.865 1.284-.454 2.188.466 2.56 1.61l.075-.28c.023-.21-.41-1.055-.52-1.248-.935-1.615-3.578-.067-4.487.917-.798.863-1.493 2.3-1.763 3.47-.38 1.638-.7 4.585-.4 6.222z" fill="url(#Ag)"/><path d="M31.352 27.85s.001.255-.044.578.004.488.04.55.1.128.162.143l.283.042.122.01s-.45-1.32-.563-1.324z" fill="url(#e)"/><path d="M31.703 28.585l.016.396c.013.088.05.15.09.168l.1.013-.207-.576z" fill="url(#BE)"/><path d="M28.934 25.317s.242.04.837.448 1.066 1.13 1.066 1.13a5.84 5.84 0 0 0 .402.671l.51 1.147c.12.337.14.447.203.526s.08.113.274.155l.308.054h.043s-.107-.025-.19-.17-.236-.814-.58-1.524-.986-1.444-.986-1.444-.462-.462-.847-.68-.904-.408-1.042-.317z" fill="url(#u)"/><path d="M28.282 27.96c.975-.266 1.686-.507 2.544-1.08-.195-.253-.5-.69-.754-.86-.263.187-1.415.518-1.782.573 0 0-.077.884-.008 1.367z" fill="url(#Ar)"/><path d="M28.288 26.616l.99-.285c.236-.082.557-.185.775-.315l-.39-.053a7.83 7.83 0 0 1-1.339.473l-.033.18z" fill="url(#i)"/><path d="M30.808 26.88c.005.008-.33-.45-.514-.628l-.242-.22.02-.018.33.324c.174.184.425.533.425.533l-.018.01z" fill="#614021"/><path d="M28.527 25.767l1.546.246s-.264-.26-.6-.44l-.513-.25c-.025-.006-.106.023-.184.09s-.15.172-.248.355z" fill="#4f392e"/><path d="M28.475 25.872l.993.175c-.36.166-.762.283-1.146.388 0 0 .075-.43.154-.563z" fill="#7e706d"/><path d="M30.2 27.257c-.001.007.932.153.932.153l-.15-.292c-.092-.166-.174-.243-.174-.243l-.607.38z" fill="#937156"/><path d="M31.352 27.85l-.23-.482.238.414z" fill="#635143"/><path d="M32.593 28.995s-.05-.115-.015-.32.172-.124.18-.1.048.202-.01.328-.114.153-.154.1z" fill="#c79069"/><path d="M3.268 18.042c1.532-1.883 16.95-1.64 16.95.07 0 .315-.178.418-.374.618s-.362.412-.7.58c-2.358 1.206-12.094 1.287-14.68.214-.404-.168-.744-.668-.744-.668s-.824-.4-.462-.815z" fill="url(#W)"/><path d="M3.73 18.857l.467.5c.195.184.69.305 1.33.456 2.944.698 10.66.744 13.54-.464.36-.15.605-.443.873-.713-3.298 1.72-12.205 1.353-16.212.22z" fill="url(#T)"/><path d="M4.628 19.56l1.946 11.935c.05.012 2.684.27 2.684.27.014.182.07 1.664.175 1.675l.637.063c.087 0 1.652-1.313 1.848-1.472l.044-.034 4.8.492c.036.04.218-.168.248-.2l2.3-13.07c-.217.165-1.542.587-1.554.533-.002-.01-1.974 11.137-1.974 11.137l-2.197-.2c.11-.11.265-.207.277-.372l.594-10.108c-.28.04-.575.028-.857.032l-.55 9.186-1.373 1.085-1.46-.14-.678-10.12-.982-.05.63 10.1c-.217-.02-1.434-.034-1.457-.217-.013-.105-1.62-10.155-1.62-10.155s-.97-.134-1.48-.358z" fill="url(#S)"/><path d="M10.13 33.483l1.768-1.433.045-.05c.03-.53-.06-.932-.16-1.44l.065-.042 1.737.162c.073-.074.26-.226.27-.324.005-.048.6-10.156.6-10.156l-.652.03-.532 9.184-.22.008-2.747 2.154-.76-11.33-.246-.01.84 13.246z" fill="#e0bd9f"/><path d="M11.967 32l1.513.155-1.698-1.593s.066.215.102.436a6.45 6.45 0 0 1 .083 1.002z" fill="url(#Av)"/><path d="M16.807 32.485L17 32.3c.055-.042 2.076-11.787 2.3-13.07l-.2.12-2.292 13.145z" fill="#dec9ac"/><path d="M6.804 31.523l.004.053c.038.02 2.453.227 2.453.227l-.003-.035-2.454-.245zm5.02.587c.7-.097 2.193.137 2.946.208l1.93.177.06-.004-4.787-.49-.017-.02-.134.13z" fill="#593b1f"/><path d="M9.545 33.454l.017.036c.086.003.44.064.485.007l-.502-.042z" fill="#442a1b"/><path d="M11.784 30.57c.114.314.195 1.092.158 1.432l.026-.003c.028-.2-.08-1.595-.184-1.43z" fill="#7b3f1b"/><path d="M4.268 17.526c-.3.08-1.38.5-.994.932 0 0 .202.217.69.39 2.62.924 7.996.964 10.756.702 1.135-.108 4.92-.343 5.488-1.323 0 0-.197.382-.304.43-2.29 1.025-6.215 1.153-8.678 1.122-1.37-.023-7.2-.242-7.95-1.267-.398-.552.65-.9.993-.985z" fill="url(#R)"/><path d="M11.22 17.482l-3.556-.54c-.25-.022-1.84.3-1.968.48-.134.187 4.947.947 5.562 1.06l-.038-1z" fill="url(#g)"/><path d="M9.502 7.736l.246.028.16.038c-.04.148-.127.675-.314.72-.386.094.001-.514-.092-.787z" fill="url(#AD)"/><path d="M9.658 14.407l.015 2.46a2.75 2.75 0 0 0 .645 1.244c.5.463 1.6.465 2.232.32.65-.15 1.048-.812 1.25-1.415.145-.43.038-2.61.038-2.61-.286-.37-3.978-.344-4.18.002z" fill="url(#AT)"/><path d="M10.537 14.184s-.544.06-.724.12-.155.144-.07.184c.353.165 2.012.153 2.487.14-.454-.102-1.25-.018-1.79-.074-2.107-.22 1.204-.393 1.544-.396 0 0-.698-.03-1.447.026z" fill="url(#U)"/><path d="M12.986 14.55l.502-.063c.08-.02-.067-.204-.067-.204-.535-.173-3.166-.18-3.63.092-.046.027-.025.05.03.078s.31.08.49.096h2.675z" fill="url(#h)"/><path d="M10.59 14.552c.6-.048 1.785-.13 2.342.002-.58.07-1.788.09-2.342-.002z" fill="#111516"/><path d="M10.044 14.508a2.59 2.59 0 0 0 .504.046s-.127-.152-.25-.34c-.182-.28-.29-1.35-.328-1.697l-.217-.14c.042.832.1 1.32.3 2.13z" fill="url(#K)"/><path d="M10.055 14.4l.067.05c.035-.012-.076-1.316-.098-1.48l.15.988.23.6-.315-.034-.034-.114z" fill="url(#BG)"/><path d="M9.09 11.13c.123-.203.48-.38.418-.015-.033.19-.084.456-.153.635-.28.73 1.08.638.93 1.225l.19-.342a1.17 1.17 0 0 1 .443-.462c.136-.084.71-.522.68-.633-.07-.26-.942-.922-1.15-1.224-.038-.055-.013-.082.072-.078.14.006 1.12.98 1.14 1.09l-.006.204c.09-.043.115-.524.204-.702.072-.145.086-.174.057-.2-.202-.256-1.776-1.2-1.688-1.3.054-.06 1.238.65 1.37.818l.166.235s-.038-.168 0-.315c.106-.408.195-.576-.008-1.032-.072-.364-.037-.9-.565-.956-.302-.026-.36-.502-.778-.547-.16-.017-.28-.02-.425.14-.16.174-.127.8-.416.856-.325.064.053-.554-.08-.89-.16-.403-.81-.626-1.2-.437-.128.064-.3.723-.286.885 0 0-.006-.2.195-.288.25-.098.557.5.4.5-.136 0-.514.014-.588-.11-.075.2-.384 1.023-.494 1.108l.18-.072c.38-.19 1.634-.28 1.167-.09-.312.126-1.387.592-1.387.973 0 .205.53 1.228.31 1.354l.074-.13c.21-.514.57-1.124 1.08-1.38.22-.11.32-.086.336-.03.03.114-1.006.885-.647 1.46l.53.813c-.292-.323-.307-.677-.086-1.045zm1.413-2.317l.248-.038c.118-.023.11-.046.328-.023a1.06 1.06 0 0 1 .526.24c.088.08.065.107-.03.137s-.458-.084-.687-.156-.35-.095-.385-.16z" fill="url(#AM)"/><path d="M7.647 9.935c.23-.066.534-.318.725-.332.162-.012-.867.612-.256 1.167.193-.335.757-1.036 1.185-.92.152.04-.288.414-.32.44.27.155.23.058.246.397.005.106.316.082.293.407-.014.2-.2.522-.05.69.08.097.783.76.81.698.05-.118.2-.416.14-.652s-.31-.553-.244-.53c.22.078.717.746.843.736.38-.03-.368-.778-.318-.806.03-.017.3.43.393-.198 0 0-.127-.182-.396-.426s-.26-.288-.258-.358c.002-.182.52.315.538.307.218-.097.36.05.355.027s-.263-.23-.263-.317c0-.1.366.105.304-.083-.034-.024-1.472-.863-1.112-.886.51-.032.973.338 1.018.324.433-.132-.704-.475-.857-.524s-.246-.082-.122-.12.172-.122.1-.11c-.353.058-.515-.154-.44-.167.093-.016.285-.07.075-.06a5.87 5.87 0 0 0-.981.193c-.095.046-.004.15-.002.19s-1.425.582-1.398.914z" fill="#5d9145"/><path d="M9.52 7.8c.013-.001-.47-.193-.54.03-.025.08.368.46.427.47.09.013.128-.402.113-.5z" fill="#1a3b05"/><path d="M9.872 7.965s.035-.3.17-.316c1.25-.14.07.764.282.805.118.023.862-.027.996-.027.035 0-.808.316-1.057.3-.102-.006-.11-.242-.578-.298 0 0 .15-.18.186-.465z" fill="url(#H)"/><path d="M10.308 9.302c-.004-.014.097-.05.296-.017s.558.43.634.475.33.34.33.34l-1.26-.798zm.586 1.196l.43.366c.095.06.315.35.315.35l-.454-.39s-.286-.277-.29-.327z" fill="#37661e"/><path d="M8.6 7.765s.275.35.48.53.39.278.408.303l.02.074c-.518.075-1.25-.227-1.65.205 0 0 .13-.126.315-.187s.77.01.795.018l.367.015.17-.003c.005.063.062.418.006.448-.577.305-.818.185-1.37.75 0 0 .366-.338.73-.484s.687-.256.708-.244.103.44.135.67c.06.434-.307.354-.524.698 0 0 .15-.187.343-.296l.237-.14.345 1.738c.006.057-.183-1.52-.347-2.342-.01-.057.282.11.282.11-.463-.14-.337-.7-.328-.698.027.004.337.054.73.174l.508.157-.088-.057c-.028-.024-1.096-.296-1.145-.353s-.096-.202-.095-.216l.067-.01.33-.072c.246-.063.32-.134.582-.172s.427-.033.427-.033c-.38-.024-1.49.313-1.406.223l.172-.168c-.36.462-.967-.375-1.204-.64z" fill="url(#BT)"/><path d="M8.174 9.918c.19-.157 1.272-.82 1.436-.714.013.008.14.77.15.832l.012-.038c.004-.013-.107-.796-.154-.822-.028-.015-1.05.27-1.445.743zm1.366-1.16l.042.362s.017-.227-.042-.362zm-.917-.083l.533.07.35-.006s-.492-.006-.885-.064z" fill="#518320"/><path d="M10.827 14.58c.14-.734.39-1.39.653-2.086l.673-2.066c.008-.122.117-.232.2-.313-.2-.01-.367-.05-.555.02 0 0 .244.078.265.122.055.115-.145.794-.185.797-.027.002-.026-.213-.026-.213l-.03.063c-.008.1.025.257-.007.327l-.19.553c-.025.078-.38 1.107-.446 1.157-.056.043-.354.633-.4.73s-.248.874-.248.874.168.042.286.035z" fill="url(#BA)"/><path d="M10.53 14.533l.586-1.5-.017-.02c-.18.122-.517 1.125-.642 1.427l.073.094z" fill="url(#Ay)"/><path d="M10.672 14.57c.01-.237-.032-.395-.124-.057-.01.032-.001.04.124.057z" fill="#9da742"/><path d="M8.072 7.734c-.376-.004-.83.194-.918.194-.17 0-.682.18-.813.273-.19.135-.28.343-.28.343-.186.186-.75.317-.635.69.152-.458.76-.226 1.068-.095.1.042.288-.013.444-.074s.383-.193.5-.267c.065-.045.324-.165.407-.16-.104.26-.473.5-.73.575h.03c.174-.03.453-.01.453-.01l.023-.04-.056.001.077-.043c.132-.26.245-.576.35-.853l.037-.097c-.256-.103-.42-.21-.705-.236.236-.043.49-.054.723.013l.03-.212zm-1.97.784c.466-.335.54-.315 1.083-.26.113.01.214-.013.225-.076s-.14-.1-.39-.088c-.242.002-.86.153-.917.423z" fill="#60793f"/><path d="M5.564 8.874c-.045.084-.136.202.018.156-.115.085-.116.17-.155.204-.033-.183.01-.232.137-.36zm2.34-.427c.01.003-.26-.084-.627-.06-.426.026-.7.183-1.083.318.43-.17 1.255-.412 1.696-.192l.015-.065zM6.65 8.85c.167-.064.532-.242.65-.36l-.65.36zm1.304-.522l.01-.037c-.47-.178-.645-.456-1.158-.2.37-.012.82.05 1.148.236zm-1.31-.096a21.4 21.4 0 0 0 .897.079l-.11-.13-.02-.002s.02.052-.088.073c-.174.034-.532-.073-.678-.02z" fill="#465a1c"/><path d="M14.233 9.69c.066.244.133.968.022 1.17-.03.055-.015.196-.015.196s-.137.116-.164.215c-.056.208.077.697.017 1.043 0 0 .055-.332.103-.433l.08-.135s.143-.223.256-.315.214-.105.208-.03-.162.32-.204.404-.154.387-.137.484c.026.15.665.54.77 1.47.135-.22.503-.412.73-.563l.427-.275c.008-.034-.145-.288-.368-.53s-.418-.443-.42-.505.053-.1.214-.06c.26.05 1.043.774.788 1.08.123-.07.438-.745.4-.858-.103-.31-1.514-.914-1.38-1.055.247-.256 1.446.552 1.598 1.146.178-.326.276-.86.147-1.217-.157-.43-1.434-.424-1.686-.605-.053-.038-.076-.1.177-.134.475-.064.876-.001 1.34.076l-.13-.217c-.188-.458-.777-1.23-1.343-1.167s-.378.2-.503.517c-.05.126-.142.396-.267.446s-.19-.163-.27-.263c0 0-.362-.027-.393.113z" fill="url(#An)"/><path d="M8.045 7.87l-.167-.05c-.048.004.06-.043.12-.03l.066.002-.02.08z" fill="#465a1c"/><path d="M7.177 8.514c-.333.05-.624.122-.923.282 0 0 .008.118.103.103s.53-.156.82-.385z" fill="#4b6618"/><path d="M7.735 9.193c-.007-.014.167.066.373.06s.364-.1.427-.118l.413-.12c-.08-.036-.273-.026-.354.01l-.093.092c-.116.053-.548.048-.7.047l-.065.03z" fill="url(#j)"/><path d="M10.332 9.47l.27.012.582.37-.295-.005-.557-.378z" fill="#8aae77"/><path d="M10.72 10.614l.163-.11.15.17.123.114-.134.092-.303-.266z" fill="#6c8463"/><path d="M11.037 9.948l.225-.046c.085.055.274.162.33.226l-.26.024-.296-.203z" fill="#648555"/><path d="M10.423 12.726c-.002-.001.255.163.627.04l.07.26.046-.07-.07-.22c0-.027-.044-.07.065-.1.4-.115.062-.44-.16-.514-.205.115-.51.368-.575.604z" fill="url(#AY)"/><path d="M11.067 12.717c-.06-.07-.17-.2-.265-.207-.068-.006-.318.117-.277.19.05.1.423.12.542.016zm.05-.168c-.001-.106.01-.16.063-.252.14-.038-.042.227-.063.252z" fill="#36462a"/><path d="M10.68 13.863l.04-1.547.077-.063.007 1.333s-.074.22-.124.278z" fill="url(#BI)"/><path d="M10.74 13.702l.002-.35c.022-.052.028.24.03.272l-.03.08z" fill="#899362"/><path d="M11.856 9.735l-.036.19-.062.165.013.073s.02-.06.26-.062.328.075.328.075c.35.01.84-.12 1.204-.216l.63-.26c.26-.068.545-.153.715.103 0-.036-.34-.426-.395-.43l-.483.1c-.173.03-.76.05-.975.067l-.406.036-.095.13-.1.063-.166-.14-.43.106z" fill="url(#L)"/><path d="M11.8 10.122l.022-.126.038-.108c-.001-.027-.082.143-.084.233l.024.001z" fill="#163c00"/><path d="M12.604 9.88l.077-.047.14-.11-.154-.152-.077.07-.123.142.138.097z" fill="url(#s)"/><path d="M12.67 9.92c.078-.01.206-.042.27-.086l-.04-.03c-.016.005-.28.08-.23.116z" fill="#213b07"/><path d="M13.096 10.002l-.06-.047.06.047zm-.25.002l.07.032-.07-.032zm-.032-.05c.048.014.155.06.17-.004l-.008-.06-.162.063zm.143.05c.06.07.197.1.25.036-.2.027-.153-.024-.225-.04l-.025.004z" fill="#486a35"/><path d="M12.836 9.568l.402.204-.288-.225-.115.02zm.39-.015c.077.085.308.118.418.097 0 0-.248-.103-.418-.097zm.36.006c.087.03.265.07.35.03 0 0-.326-.05-.35-.03z" fill="#678b54"/><path d="M13.788 9.507c-.001-.01.824.062.94.094-.033-.046-.168-.253-.232-.23a4.39 4.39 0 0 1-.709.135z" fill="#779b66"/><path d="M11.454 14.6c.11-.3.398-.698.568-.995l.51-.765.004-.143-.06-.034-.02.185a27.12 27.12 0 0 1-.975 1.423c-.2.15-.16.106-.265.326l.236.004z" fill="url(#AG)"/><path d="M12.522 12.33c-.08-.092-.275-.103-.36-.013-.132.14 1.155 1.017 1.88.876.207-.04.352-.097.395.192 0-.257-.35-.587-.505-.78-.177-.22-1.132-.444-1.345-.42l-.067.048.05.114-.05-.016z" fill="url(#BU)"/><path d="M12.25 12.268c-.07.05-.057.096-.032.168 0 0-.126-.112.032-.168zm.356.03l.015.065.123.005-.037-.046.032-.04c-.043.037-.085.057-.133.015z" fill="#2e3c1c"/><path d="M12.792 12.462c.05.134.08.275.225.328.03.01-.176-.297-.225-.328zm.22-.063c.105.072.567.37.668.37l-.668-.37zm.32.072h.202-.202z" fill="#3c5131"/><path d="M11.755 10.11c.07.04.28.1.308.15l.006.122-.1-.007.057.085c-.01.047-.167-.138-.16.1l-.248-.203.146.022-.015-.195.006-.084z" fill="#85ab6a"/><path d="M11.92 10.266l.115-.024-.07-.038-.046.062zm-.103.026c.012.008.17.108.095.113l-.045.045.01.12-.075-.06.01-.083.042.04-.046-.08.01-.095z" fill="#2f4513"/><path d="M11.5 10.137l.207.144c.017.025-.07-.14-.106-.145l-.1.001z" fill="#9db78a"/><path d="M11.916 11.19l.227 1.028.18 1.072c.22.535.248.69.32 1.282l-.19.008-.063.003-.3-2.26-.15-.767-.07-.223.048-.14z" fill="url(#Z)"/><path d="M12.296 14.587l.104-.004c-.165-.484-.18-1.138-.27-1.655l-.16-1.017.015-.126-.02-.094s-.052.076-.033.3c.05.577.186 1.233.256 1.833l.075.693.032.07z" fill="url(#a)"/><path d="M12.025 11.637l.048-.074-.02-.036-.044.038.017.072z" fill="#081b00"/><path d="M11.625 11.23l-.074.08c-.017.055.117.108.117.1 0-.05-.01-.15-.043-.19z" fill="#626e5f"/><path d="M11.77 11.15l.06-.013c.028.013-.076.265-.09.3l-.024-.02.054-.266z" fill="#638049"/><path d="M11.944 11.11l.276-.126c.11-.053.28-.056.28-.056l-.025.366-.003.32c-.168.001-.312-.057-.362-.06l-.044.02-.03-.034-.04.034c-.043-.15-.105-.31-.053-.464z" fill="#59744d"/><path d="M12.086 11.525l.228-.295.07-.132c.156-.28-.327.415-.335.437l.037-.01z" fill="#7c9a6b"/><path d="M12.104 11.193l.07.13-.001-.06c-.006-.026.114-.024-.068-.072zm.152.003l.04.015-.04-.015zm.008.136l.135-.23c.003.01-.063.192-.135.23z" fill="#4c6a3c"/><path d="M12.56 11.607c.22-.01.68-.124.402-.42-.023-.024-.264-.22-.282-.216l-.11.046-.01.288v.304z" fill="#7e9670"/><path d="M12.572 11.17v.083c.154-.062.225-.092 0-.083zm0 .212c.132-.08.156-.053.214.001l.05.044c-.063-.005-.216-.027-.266.02v-.065zm.005.1l.07-.012-.084.035.004-.022.01-.001z" fill="#567244"/><path d="M12.853 14.56l.247-.023.07-.008-.154-.852-.167-.763-.087-.053-.107-.08.176 1.125c.04.268.04.537.022.654z" fill="url(#BM)"/><path d="M12.53 12.193l-.046-.384c-.06-.45.02-1.195.124-1.647l.08-.008-.1.607c-.032.28-.04.784-.02.988l.067.433-.105.01z" fill="url(#w)"/><path d="M12.85 9.554c-.013-.015.13-.558.13-.558L12.888 9c-.017.004-.13.56-.13.56l.093-.006z" fill="url(#l)"/><path d="M12.883 9.007L12.695 9l-.28-.067-.315-.01c-.104-.023-.352-.274-.38-.308l-.055-.16-.027-.067s.048-.296.19-.553.33-.4.517-.523a3.89 3.89 0 0 1 .486-.271l.107-.07.137.05c.1.027.42.127.548.268l.355.393.382.37c.07.1.124.297.06.467l-.107.307c-.06.11-.275.27-.465.343s-.475.03-.547-.015-.145-.137-.233-.153l-.134.01-.052-.014z" fill="#86b374"/><path d="M13.87 8.43c-.305.1-.626.177-.915.314 0 0 .844-.222.915-.314zm-.905.426l.054-.06c.004-.002-.058-.07-.054.06zm-.737-.704c.107.148.317.223.473.31l-.473-.31zm.737.158l.495-.326-.495.326z" fill="#6e9d57"/><path d="M12.977 8.8c.035-.044.7-.252.696-.265l-.662.223c-.123.034-.072-.334-.072-.414l.382-.217c.063-.04-.355.208-.383.2s-.03-.99-.03-.99l-.036 1.213-.036.008c-.004-.001.1.25.063.3l-.046.02.065.13.02.03c.055-.018.01-.2.042-.24z" fill="#a2d184"/><path d="M12.926 7.455c-.015 0 .168-.253.15-.424-.03-.013-.128-.07-.145-.035l-.06.063c-.015.008.046.082.053.397z" fill="#6e9d57"/><path d="M12.554 7.785l.174.158-.174-.158z" fill="#7ba864"/><path d="M11.88 8.765c-.001.001.095-.175.363.174-.17.025-.25-.06-.363-.174z" fill="#67954c"/><path d="M13.285 14.517s.003-.087.09-.163c.17-.15.446-.897.53-1.143l.255-.04c-.08.305-.23 1.026-.425 1.25 0 0-.286.103-.448.097z" fill="url(#Am)"/><path d="M13.548 14.464c.003.012.122-.154.16-.258l.348-1.016.042-.01-.442 1.263-.11.02z" fill="#3d5f0f"/><path d="M14.08 12.767l.48-2.674.154-.065c-.073.078-.277 1.557-.318 1.886l-.172.484c-.04.112-.113.347-.143.368z" fill="url(#BC)"/><path d="M14.546 9.636l.086.155.008.016.09-.003-.04-.157-.146-.01z" fill="#c1da92"/><path d="M14.652 10.228l.076-.045.003-.092c.092.174.075.04.04-.06l.074-.033.022.055c.118.045 1-.277 1.257-.31l.18-.017s-.483.096-.654.174c-.308.14-.476.14-.788.193l.04.273c.06.098 2.02.443 2.17.93-.343-.537-1.18-.6-1.71-.767l-.327-.07-.1.01c.002.044.118.582.14.624.046.093 1.023.462 1.29.856 0 0-.203-.202-.532-.414s-.635-.317-.704-.35l-.082-.04.093.64c.003.015.337.248.404.338-.13-.108-.236-.192-.387-.267.017.15.047.302.082.45-.06-.143-.14-.58-.158-.61-.14.125-.222.366-.296.54.036-.32.27-.486.27-.68s-.14-.76-.14-.76c-.45.252-.454.3-.767.706.09-.26.483-.588.7-.74.033-.198-.004-.377-.088-.564l-.11.047.004-.02z" fill="url(#O)"/><path d="M14.324 10.432l.206-.13.003-.018-.2.114-.01.035z" fill="#93b459"/><path d="M13.74 9.976c-.027.134.08.217.27.233.59.047 1.508-.7 1.99-.64.183.023.317.11.347.114l-.114-.183.003-.092s.494.02.698-.072l.336-.168c.066-.018-.823.155-.88.07-.03-.044.042-.1.322-.15.253-.045.51-.12.73.07-.025-.152-.155-.452-.343-.4-.158.035-.64.28-.816.368l-.037-.045c.152-.115.41-.267.605-.227.256-.046-.452-.454-.914-.142-.104.07-.947.887-.935.927s.076.113.027.15c-.166.12-1.22-.153-1.3.2z" fill="url(#N)"/><path d="M34.937 25.207l.383.012c.03.002.198-.263.18-.31s-.164-.098-.164-.098l-.398.398z" fill="url(#Ao)"/><path d="M13.993 9.802l.03.095c.11.098.228.06.263.276l-.194.036c-.145.012-.296-.056-.34-.123s-.02-.182.06-.222l.18-.062z" fill="url(#X)"/><path d="M14.815 9.958c.165-.16 1.484-.77 1.547-.736.001 0-.198.25-.227.35h-.304c-.263.023-.7.296-1.015.387z" fill="#8dab7f"/><path d="M16.05 8.865c-.016-.15.21-.196.21-.144l-.21.144zm.29-.27c.178.004-.014.126.08.11.228-.037.227.046.456.082 0 0-.294-.24-.536-.193zm-.107.788c-.115.04-.135.09-.117.208l.202.08c.076.01-.15-.17-.085-.288z" fill="#4b6330"/><path d="M14.18 12.92l.245-.847.27-.723.16-.42.214-.567.084-.338.048-.154-.162.072-.025.297c-.017.118-.273.746-.273.746l-.3.763-.27.76-.11.274.06.08.047.058z" fill="url(#BB)"/><path d="M16.304 9.404c0 .001.61.02.704-.14-.14.053-.577.16-.704.14zm.922-.625c.033.076.106.202.108.28l.105.077c.003.017-.102-.29-.213-.356z" fill="#4b6330"/><path d="M10.356 18.146c.29.333.84.37 1.25.37.446.002.89.002 1.296-.2-.526.27-2.063.294-2.546-.17z" fill="#392f25"/><path d="M32.84 32.728c-1.43.27-2.722-1.05-3.15-2.306-.417-1.222-.405-2.46-.02-3.685.5-1.583 1.64-2.92 3.4-3.02.633-.036 1.296.285 1.764.7L32.84 32.73zm-1.414-.986l-.072-.11-.07.12.142-.012zm-.517-.32c-.637-.702-.08-.95.18-.373l-.18.373zm-.69-4.112c-.188-.048-.405 1.488-.14 1.597.24.098.45-1.634.14-1.597zm3.534-2.96c.182.068.613.272.618.498l-.15.124c-.223-.075-.687-.26-.62-.55.027-.116.153-.07.153-.07zm-2.514.795c.103-.1.68-.693.8-.51 0 0 .1.076.042.24-.063.18-.637.666-.845.694s-.134-.303.004-.423z" fill="url(#Ad)"/><path d="M34.282 24.958c-.113.023-.177.046-.277.103-1.024-.07-1.945.682-2.498 1.472-.844 1.207-.665 2.336-.626 3.732.02.67.598 1.747 1.17 2.12.186.122.615.36.84.342.536.265.796.098 1.08.192.125.042.122.036.262.03l.05-7.992z" fill="url(#m)"/><path d="M36.52 23.758c2.282-.05 3.17 2.73 3.124 4.593-.043 1.8-.65 2.54-1.446 4.063l-.526.53c-.542.522-1.33.68-2.056.63-1.845-.137-2.58-2.304-2.77-3.847-.264-2.125 1.122-5.913 3.675-5.968zm-1.815 2.004c.253-.192.767-.6.805-.917.01-.082-.063-.1-.063-.1-.294.22-.75.61-.742 1.007zm4.1.72l-.088.15c-.034.252.07 1.065.242 1.224.027.025.078.002.103-.076.058-.183-.12-1.347-.258-1.297zm-1.627-2.033s-.13.198-.143.265c-.043.215.515.427.68.458l.067-.39s-.48-.355-.603-.334zm-.803 8.532c.305-.07.824-.226.824-.595 0-.25-.888.11-.897.32" fill="url(#Ah)"/><path d="M34.197 31.535c-.17.506.7 1.222.603.757-.018-.087-.534-.778-.603-.757z" fill="#0f1012"/><path d="M34.687 25.86c-.008.58.404 1.344 1.045.778.615-.542 1.03-1.063.404-1.846-.204-.255-.46-.23-.7-.037.543.108-.594.998-.76 1.105z" fill="url(#AE)"/><path d="M35.44 25.047c.168-.187.446-.25.69-.23-.224-.244-.408-.3-.666-.058.1.032.01.23-.023.288z" fill="url(#n)"/><path d="M33.605 29.475a.65.65 0 0 0 .351.42c1.032.432 1.595-2.314.416-2.5-.29-.048-.46.145-.6.35.072.238-.06 1.686-.168 1.74z" fill="url(#q)"/><path d="M33.6 29.454c.155.017.23-1.53.214-1.703l-.01-.067-.107.2c-.05.282.001 1.186-.134 1.36l.037.2z" fill="#2a2a2c"/><path d="M34.728 32.567a.67.67 0 0 0 .381.208c.394.03.698-.735.73-1.08.026-.28-.414-.9-.652-1.034-.47-.267-.977.412-.977.774.21.215.977.893.517 1.13z" fill="url(#AO)"/><path d="M34.216 31.403l.74.85c.065.122.022.47.022.47-.195-.076-.362-.24-.485-.408l-.138-.192s.277.307.395.32.035-.213.007-.26c-.048-.078-.492-.65-.56-.646l.018-.132z" fill="url(#AN)"/><path d="M34.984 32.745c.278.225.73-.477.804-.756-.145.275-.694.516-.815.314 0 0 .07.32.01.442z" fill="url(#y)"/><path d="M36.6 31.727c.097-.055.538-.3.6-.294.45.37.63.32.507.87-.105.47-.552.835-1.022.847-.145.004-.3-.17-.3-.17.197-.054 1.06-.366.777-.663-.12-.126-.762.205-.847.358-.025-.334.16-.644.284-.947z" fill="url(#Af)"/><path d="M36.818 32.84l.43-.103c.362-.088.09-.492-.115-.435.296.152-.2.48-.314.538z" fill="#2c2c2c"/><path d="M37.79 31.945c.012.336-.057.584-.246.857l.18.093.448-.452s-.336-.496-.382-.498z" fill="url(#AC)"/><path d="M39.048 27.94l.07.057.052.197.113.028-.01-.22.042-.124s-.105.063-.267.063z" fill="#737375"/><path d="M39.308 28.227c.133-.185.144-.333.16-.55 0 0 .04.433-.16.55z" fill="#9f9f9f"/><path d="M37.038 24.78c-.235.686.012 1.135.71 1.268l.02-.04-.143-.027.085-.807s-.476-.13-.67-.394z" fill="url(#Ae)"/><path d="M37.18 24.92c.052.45.076.682.268 1.097.12.714-.446.214-1.074.62-.114.073.382-.103.948-.126.095-.004.147-.153.15-.195.008-.17.16-.045.23-.088.038-.023.066-.22.066-.22l-.143-.027.027-.31c-.1-.17-.18-.377-.156-.574 0 0-.212-.08-.315-.178z" fill="#232220"/><path d="M37.188 24.448c.19-.23.608-.023.734.13l-.02.14c-.08-.013-.082-.024-.122.056 0 0-.32-.267-.59-.325z" fill="#3c3c3c"/><path d="M37.61 24.373L37.56 24l.218.106c.01.054.058.357.037.394-.005.01-.162-.128-.204-.116z" fill="#2a2c2b"/><path d="M37.623 25.982l.92.06.018-.032.01-1.196-.07-.068c-.064-.013-.574-.04-.635-.04l-.076.076-.167 1.2z" fill="#ffd63f"/><path d="M38.47 26.036l.03-1.29.07.068-.01 1.196-.1.027zm-.05-1.165l-.038 1.074c.015-.004.1-1.068.038-1.074zm-.433.036c-.012.116-.117 1.018-.055 1.045.032.014.094-1.04.055-1.045zm-.263.983c.002-.026.075-.755.1-.383.001.008.045-.508.117-.8l-.132.03a18.33 18.33 0 0 0-.084 1.152z" fill="#fdb219"/><path d="M38.463 24.74l.232-2.867c.048-.76-.38-1.423-1.122-1.62-.328-.088-2.94.13-3.124.153-1.387.173-1.284 2.315-1.34 3.31.14.002.337.006.47.046.068-.917-.118-2.666 1.015-2.836.556-.083 2.458-.216 2.95-.128 1.124.203.428 3.15.36 3.92l.563.023z" fill="#7c878b"/><path d="M33.148 23.716c.07-.924-.06-2.73 1.055-3.087.343-.11 2.683-.214 3.067-.2.708.025.994.7 1.004 1.327-.06-.547-.353-1.156-.97-1.196-.638-.042-2.415.034-3.055.15-.147.027-.45.163-.608.396-.193.287.226-.3.584-.307.086-.002.105.048.074.063-.847.424-.653 1.17-.65 1.17.02-.004.084-.383.084-.383-.2.157.09-.457.452-.607-.633.502-.56 1.968-.61 2.72l-.43-.045z" fill="#989fa7"/><path d="M33.223 23.718c.02-.265.075-2.212.324-2.27.05-.01-.172 2.087-.184 2.286l-.14-.016z" fill="#fffffd"/><path d="M33.386 23.73c.01-.16.13-1.693.21-1.717.11-.032-.114 1.647-.12 1.73l-.09-.012z" fill="url(#C)"/><path d="M33.694 21.4l-.003.21s.072-.223.2-.368l.314-.297c-.06-.14-.452.32-.51.456zm.344-.615c-.116-.112 2.523-.22 2.963-.223l-2.963.223zm2.053-.05c.386-.05.93-.134 1.308-.063.06.01-1.308.063-1.308.063zm1.225-.152l.153.118.263.088c.045.026-.087-.23-.416-.206z" fill="#4b4e53"/><path d="M38.353 24.734l.252-2.824c.022-.58-.07-.85-.497-1.254-.156-.147.92 1.005-.074.26-.015-.01.202.378.217.772.026.673-.225 2.274-.294 3.02 0 0 .197.032.396.026z" fill="#bec5cf"/><path d="M38.37 21.06c.437.502.133 2.04.053 1.843-.01-.03.038-1.13.013-1.3s-.11-.504-.067-.532zm-.358 3.66l.183.007.152-3.223c-.1.16-.293 2.805-.335 3.216z" fill="#feffff"/><path d="M37.755 26.012l-.037.238c-.08-.015-.23-.053-.248.06-.007.04-.034.144-.087.176-.1.066-.48-.032-.906.26-.764.522-.95 1.606-.977 2.46-.02.676.287 1.384.9 1.713.538.29.93.557 1.372.99.24.235.676.91.8 1.244.044.118.128.26.15.393.063.402.092.53.51.666.6.196.94.037 1.224-.548.107-.22.16-.55.154-.8-.01-.362-.222-.823-.624-.866-.818-1.39-1.188-3.946-1.465-5.62l-.14-.1.016-.255s-.596-.058-.64-.02z" fill="url(#Aj)"/><path d="M37.21 28.917s-.175.847-.03 1.144c.19.393 1.366-.372 2.24 1.106.1.168.24.17.24.17-.22-.543-.34-1.045-.495-1.608-.457.062-1.065.195-1.515.08-.067-.017-.456-.164-.438-.892z" fill="url(#AZ)"/><path d="M37.913 26.018l-.023.195c.008.027.368.084.408.084l-.26-.1c-.034-.03.012-.187.012-.187l-.138.01zm-.04.32c-.03.712.36.383.38 0 0 0-.36-.025-.38 0z" fill="#8c8e9b"/><path d="M38.082 26.026l.125.04.13.03.017.18.024-.046.013-.198-.308-.004z" fill="#373330"/><path d="M38.726 28.08c-.124-.644-.663-1.466-1.392-1.03-.78.465-1.14 1.835-.896 2.668.4 1.33 1.54 1.315 2.076.1l-.04.006c-.693 1.5-1.992.946-2.077-.622-.1-2.147 1.988-3.136 2.312-1.118l.02-.003z" fill="#363638"/><path d="M37.178 27.193c-.365.342-.557.67-.7 1.156-.073.27-.086.468-.095.745.034-.456.116-.924.346-1.326a2.55 2.55 0 0 1 .439-.575z" fill="#8e8e9a"/><path d="M36.002 29.82l.246-1.677.038.118c.023.025.477-1.45 1.408-1.442-.32-.45-1.26.62-1.39.946-.52-.104-.388 1.732-.303 2.054z" fill="url(#BS)"/><path d="M36.263 31.012s-.204-.118-.366-.252c-.6-.502-.668-1.903-.483-2.6.164-.56.508-1.36 1.1-1.56-.436.305-.74.65-.93 1.156l-.044.15c-.004.012.374-1.015 1.04-1.25-.464.268-.78.668-.973 1.163a3.53 3.53 0 0 0-.193.818c-.08.83.02 1.88.837 2.314l.03-.06c-.202-.092-.713-.593-.67-.725.153.3.393.592.706.732l-.057.113z" fill="url(#f)"/><path d="M35.67 27.744s-.148.346-.212.62-.06.68-.045.778l.023-.35c.03-.277.103-.815.235-1.05z" fill="#b2b3b7"/><path d="M37.796 27.947c-.632.172-.787 1.497-.284 1.794.423.25 1.554-.004 2.02-.07l.206.008c.166.05.4-.01.5-.177l.11-.874c-.112-.332-.437-.326-.734-.31-.374-.098-1.448-.437-1.808-.37z" fill="#feba19"/><path d="M37.426 29.58l.023-.387.303.008c-.008-.083-.378-.044-.45-.044 0 0-.014.283.124.423zm.02.02l.4.044c-.001.08-.07-.002-.07.158 0 0-.29-.023-.33-.202z" fill="#f78d29"/><path d="M38.12 28.96l1.24-.107c-.355-.172-1.305-.74-1.24.107z" fill="url(#Ax)"/><path d="M40.207 29.505c.056.033-.184.2-.393.164-.053-.01.095-.322.095-.322s.048.174.297.158z" fill="#e89024"/><path d="M38.12 28.96s.078.465.12.538c.03.052 1.354-.176 1.152-.58-.033-.065-1.272.042-1.272.042z" fill="url(#Al)"/><path d="M38.187 28.024c-.22.16-.48.833-.393 1.02 0 0 .13-.67.393-1.02z" fill="#ffdd0f"/><path d="M37.522 28.222a1.58 1.58 0 0 0-.16.307l.156.053.004-.36z" fill="#ffc516"/><path d="M39.87 28.4c-.193.15-.22.706-.175.938l.145-.202c-.005-.32.262-.52.03-.736z" fill="#fcd828"/><path d="M40.177 28.605l1.162.147c.29.165.237.85-.174.85-.05 0-1.093-.122-1.093-.122-.294-.05-.304-.83.105-.874z" fill="url(#r)"/><path d="M40.247 28.614c-.427-.147-.5.65-.312.83.034.032.178.083.195.04-.33.063-.44-.88.117-.872z" fill="#8c4a16"/><path d="M40.214 29.394l.805.1-.01-.023-.794-.105zm.204-.213h0zm-.204-.293l-.032.07c.04.044.083-.012.032-.07zm.35-.135l.026.023-.026-.023zm-.328-.09c.253.044.48.085.74.06l-.74-.06zm.946.128c-.277.2-.216.767-.015.794-.245-.18-.155-.592.015-.794z" fill="#7a706f"/><path d="M37.562 28.603l.22.053c.05-.167.09-.246.166-.397-.147.183-.157.328-.385.343z" fill="#ffc516"/><path d="M40.247 29.353l.7.116-.02-.038-.702-.118zm.2-.187l.57.08-.007-.038-.558-.07-.005.028zm-.208-.202l.785.085-.005-.025-.773-.083-.007.023zm.013-.046l.77.08.004-.02-.778-.09.003.03z" fill="#3b393c"/><path d="M41.33 28.78c.405.097.108 1.077-.19.734-.072-.082-.092-.204-.097-.3s.038-.236.105-.318.114-.102.183-.107z" fill="url(#Ab)"/><path d="M41.32 29.57l-.087.03c-.263.01-.24-.555-.094-.75.102-.137.273-.13.325.04-.068-.1-.15-.156-.254-.064-.228.2-.23.8.1.745z" fill="#734813"/><path d="M39.184 33.314c.1-.2.7-1.136.694-1.152.054-.217-.755.928-.694 1.152z" fill="#6b6b77"/><path d="M39.96 31.98c.007-.004-.6.8-.767 1.203.07-.16.77-1.19.767-1.203z" fill="#484852"/><path d="M37.697 31.717c-.022-.093-.533-.24-.32-.3l.425-.086c.116-.01.268.445-.105.376z" fill="#121214"/><path d="M37.672 31.637c-.005.006.138-.146.243-.1-.025.194-.123.332-.243.1z" fill="#333e44"/><path d="M36.837 31.137c.32.182 1.092.93 1.3 1.24.017-.2-.125-.607-.328-.642l-.13-.062c-.064-.064-.258-.058-.304-.177-.033-.086.035-.078.093-.068.13.024-.492-.383-.587-.408l-.044.116z" fill="#333738"/><path d="M36.306 30.893c-.312-.28-.8-.888-.734-1.322.076-.503.725 1.114.865 1.26-.1-.016-.085-.01-.13.062z" fill="url(#AH)"/><path d="M38.897 33.884c-.056.077.046.15.112.165l.116-.046c.01-.001.394.013.252-.072-.058-.035-.43.057-.48-.047z" fill="#1c1b20"/><path d="M38.927 33.893c-.04.098.125.18.163.067.003-.01-.088-.07-.163-.067z" fill="#e0e5e9"/><path d="M38.96 33.943c.03.1.1-.023.008-.015l-.008.015z" fill="#939ea0"/><path d="M38.87 33.856c.066-.06.262.097.21.037l-.087-.077.106.06c.034.026-.062-.125-.18-.083l-.048.063z" fill="#3e3e48"/><path d="M37.207 33.266l1.534.4-.02-.122-1.378-.367-.136.088z" fill="#70706e"/><path d="M37.364 33.177l1.357.368-.018-.077-1.285-.325z" fill="#94938e"/><path d="M37.653 32.96l.936.234.067.15-.328-.007-.856-.232.18-.145z" fill="#4b4537"/><path d="M38.703 33.468l-.047-.123c-.062-.013-.373-.15-.388-.12l.06.065c.12.075-.368-.195-.3-.1l.082.08-.65-.165-.054.037 1.285.325z" fill="#747371"/><path d="M37.653 32.96l.937.234-.043-.11-.824-.192z" fill="#adb2b8"/><path d="M36.392 32.97l.114-.026.384-.155.115-.076-.606-.133-.076.062c-.018.028-.002.28.07.328z" fill="#b0b1b5"/><path d="M36.337 32.867l.182.073.1-.037-.312-.097z" fill="#595959"/><path d="M36.314 32.643l.576.14-.26.122-.307-.085s-.036-.152-.007-.175z" fill="url(#V)"/><path d="M36.905 30.95l-1.375 3.495c-.443 1.2-1.436 1.533-2.596 1.173-.53-.164-2.317-.66-2.634-1.194-.5-.83.025-1.674.365-2.448l.408.325c-.217.49-.777 1.452-.26 1.928.202.187 2.905.973 2.905.973.542.163 1.143-.557 1.308-1.013l1.302-3.33c-.03-.088.624-.002.577.09z" fill="#85888a"/><path d="M36.896 30.973c-.36.916-1.308 3.898-2.063 4.425-.437.305-.84.482-1.39.357-.762-.173-1.748-.57-2.51-.85-.483-.225-.682-.428-.804-.94.086.715 3.575 1.89 4.063 1.5l-.046.08c.51-.127.924-.886 1.265-1.26l.166-.215 1.278-3.156.042.067z" fill="#d1d0ce"/><path d="M36.513 30.898l.052-.03-.057-.025-.978 2.5c-.24.582-.538 1.43-1.004 1.868 0 0 .39-.223.584-.576s.647-1.676.647-1.676l-.038-.02.794-2.033zm-5.736 1.185l.092.056-.41.958-.065-.023-.066.206c-.004.027.184-.58.448-1.197z" fill="#fafeff"/><path d="M30.862 32.156l-.28.68c-.006.07.105.078.105.078.092-.287.13-.43.342-.65l-.167-.1zm-.286.98l-.19.5c0 .28.18.573.437.687.805.356 1.788.722 2.626.98-.102-.032-1.33-.44-1.05-.42.076.006.622.153.622.153-.35-.1-2.47-.625-2.47-1.036l-.035-.115c.135-.013-.01-.14-.006-.143.107-.092.085-.59.07-.604zm-.35 1.032s.085.232.398.393 2.482.88 2.717.923.374.008.374.008-.22.008-.45-.057l-2.52-.85c-.103-.038-.336-.17-.52-.416zm3.738 1.055c-.003-.017.164.055.448-.162s.536-.576.702-1.03l.48-1.304-.697 1.722a1.57 1.57 0 0 1-.599.641c-.21.126-.333.133-.333.133zm1.234-.667l.26-.332c.08-.097.218-.356.312-.644s1.084-2.674 1.084-2.674l-.112-.025-1.26 3.23c-.018-.235.578-1.637.702-1.96l-.046-.015-.94 2.423z" fill="#565658"/><path d="M30.328 32.855c-.296.51-.297 1.323.258 1.648.282.165 2.29.806 2.652.897.538.135.81.128 1.225-.31 0 0-.303.275-.67.31s-2.977-.88-3.176-.982-.603-.355-.3-1.562z" fill="#929397"/><path d="M34.92 34.617c.423-1.293.97-2.543 1.518-3.787l.07.013-1.59 3.774z" fill="#cbd0d4"/><path d="M35.59 33.84l1.154-2.96-.038-.01-1.17 3.025.056-.054z" fill="#9da9b5"/><path d="M35.827 32.975l.335-.88.053.05.04-.107-.04-.07.423-1.102-.075.005-.846 2.063z" fill="#d0d8e5"/><path d="M33.17 30.124s-.073-.77.037-1.575c.106-.778.658-2.572.653-2.582-.15-.3-1.41 3.35-.7 4.157z" fill="url(#b)"/><path d="M33.548 27.75c.424-1.413 1.262-3.516 2.985-3.656.226-.018.415-.1.202-.134-2.083-.238-3.54 3.484-3.186 3.8z" fill="url(#x)"/><path d="M34.222 24.97c-1.097.257-2.683 2.213-3.307 3.228l.034.018c.743-1.216 1.95-2.62 3.252-3.213l.02-.033z" fill="url(#AU)"/><path d="M34.005 25.06c-.71-.026-1.27.3-1.766.774-.347.338-1.026 1.448-1.046 1.923l.153-.23c.402-1.19 1.204-2.3 2.555-2.4l.104-.056zm-1.996.86s-.48.494-.726 1.053c-.16.364-.352.832-.41 1.233l.04-.006s.137-.557.362-1.093.702-1.123.732-1.187zm1.508-.575c-.57.233-1.1.6-1.4 1.158l-.054.156.196-.2c.24-.59 1.052-.828 1.26-1.104zm.45-.013c.02.013-.922.613-1.462 1.2l-.922 1.105-.42.665.09.027a9.08 9.08 0 0 1 2.631-2.863l.083-.134z" fill="#ecc925"/><path d="M33.754 25.706c-.983.308-1.598 2.36-1.694 3.273-.153 1.45.197 3.168 1.605 3.885-2.244-.675-2.144-3.796-1.53-5.603-.958 1.245-.545 4.975 1.35 5.585.038.012-2.285-.1-2.1-3.883-.306-.05.117 1.943.183 2.14.217.648.592 1.195 1.17 1.572-.98-.285-1.67-1.75-1.718-2.686-.156.468.24 1.327.522 1.755.296.452.773.957 1.348.986.48.223.575.155 1.06.186l.295.035c-1.352-1.042-1.466-2.5-1.452-4.064-.1.762-.002 1.793.25 2.51.224.64.493 1.086 1.045 1.492-2.09-.44-1.957-4.872-.708-6.42l.1-.223c-1.39 1.39-1.634 5.567.26 6.548l.145.08c-.743-.184-1.32-1.014-1.53-1.712-.577-1.93-.126-4.105 1.4-5.453z" fill="url(#c)"/><path d="M31.413 27.434l.296-.393c.484-.782.908-1.38 1.808-1.697l.345-.214c-.9.026-1.635.735-2.094 1.45-.026.04-.456.863-.356.854z" fill="url(#AS)"/><path d="M30.95 28.218c.373-.566.682-1.04 1.285-1.383-.312.378-.878 1.04-1.07 1.466l-.214-.084z" fill="url(#AV)"/><path d="M31.01 30.827c.187-.308.55.558.587.51.087-.105-.155-.73-.033-1.068.274-.753.07-1.963.55-3.117-.85.99-1.637 2.34-1.105 3.673z" fill="url(#Az)"/><path d="M32.1 26.948c-.09-.136 1.607-1.576 1.956-1.73l-.038.082c-.63.292-1.454 1.114-1.918 1.65z" fill="#d9dbda"/><path d="M31.286 28.334c.414-.7.937-1.387 1.535-1.94l1.035-.907-.11.197c-.555.4-.816.753-1.183 1.332-.04-.06.154-.372.2-.45-.24.24-.348.406-.534.67l.012-.08c.05-.102-.153.112-.276.396-.275.638-.387 1.77-.345 2.477l-.03-.874c.072-.562-.47.114-.093-.656l.154.057.187-.95c-.127.174-.317.956-.38.88l.05-.354c-.017-.03-.17.24-.17.24l-.055-.04z" fill="#4d4d4d"/><path d="M31.596 31.338s-.24-.645-.3-1.206l-.05-.698-.103.297s.134 1.167.454 1.606z" fill="#4f4f4f"/><path d="M32.998 27.583c-.43 1.16-.538 2.284-.153 3.487.244.763.47.982.47.982-.874-1.456-.584-2.913-.317-4.47z" fill="#72716f"/><path d="M30.45 28.6l.895.31c.05.006.115-.226.14-.313l-.02-.103-.01-.07c-.1-.032-.7-.314-.75-.252l-.027.034-.082.05c-.05.09-.156.24-.145.343z" fill="url(#AP)"/><path d="M30.502 28.493c.03.09.16-.254.174-.287l-.06.017-.115.27zm.34-.21c-.2.43-.076.386.05.032l-.05-.032zm-.132.364c.192-.046.173-.3.236-.31l.116.05-.1.267.05.07c.078-.012.068-.33.18-.3.046.012-.1.318-.12.38l-.363-.16zm.572.187c-.01-.003.103-.353.13-.338s-.07.366-.13.338z" fill="#8a8b90"/><path d="M30.716 28.592c.077.007.145-.193.17-.258.04-.054-.134-.09-.188-.112l.014-.022.45.196-.146.298-.054-.04.1-.267-.134-.06c-.02.046-.187.4-.213.264z" fill="#606569"/><path d="M31.118 28.4l-.123.298c-.088.06.087-.318.1-.325l.033.027zm.217.08l.05.024-.128.318c-.075.13.06-.306.076-.34z" fill="#292929"/><path d="M30.555 28.644c.01-.03.6.19.687.26l-.072.246-.727-.28.113-.227z" fill="url(#BK)"/><path d="M30.32 28.835l.972.358c.016.147-.22.862-.376.836-.067-.01-.942-.355-.942-.355-.038-.024.226-.64.273-.72l.073-.118z" fill="url(#Aw)"/><path d="M30.474 28.797c-.12-.046-.086-.123-.026-.11.1.02.898.288.864.38-.023.063-.758-.242-.838-.27z" fill="url(#BJ)"/><path d="M30.542 29.107l.135.05c.005.008-.17.476-.185.51s-.132.01-.135-.05.185-.51.185-.51z" fill="#fdf8be"/><path d="M31.13 29.4l.093.04-.166.433c-.13.012.05-.42.072-.473z" fill="#bc6327"/><path d="M30.906 29.323c-.306-.095-.248-.052-.353.297.035-.2.07-.6.353-.297z" fill="#f6c510"/><path d="M29.98 29.705l.94.36.018-.026-.954-.36z" fill="#895e29"/><path d="M29.98 29.705l.924.352c.083.045-.327.805-.377.908l-.81-.31c-.09-.038.25-.95.262-.95z" fill="url(#Ac)"/><path d="M29.932 30l-.027.174-.156.458-.023-.027.206-.605zm.494.216l-.22.59c.052.07.255-.54.26-.576l-.038-.013zm.253.066l-.202.53c.017.02.208-.397.202-.53z" fill="#9d9ea2"/><path d="M29.696 30.613l.018.023c.026.01.212-.752.244-.6.01.046-.21.607-.21.607l.045.024c.043-.115.343-.7.134-.686-.045.001-.23.633-.23.633zm.232.055l.217-.55c.117-.008-.128.524-.156.597.05-.1.326-.597.19-.658-.095-.043-.246.55-.252.612zm.202.114l.055.03.27-.643c-.14-.144-.323.57-.326.614zm.223.08l.065.03.26-.626c0-.182-.314.57-.324.597z" fill="#5e6166"/><path d="M30.374 30.855c-.006.014.23-.54.256-.574l-.025-.027a5.16 5.16 0 0 0-.23.601zm.422-.547l-.252.595c.01.005.277-.553.252-.595z" fill="#434345"/><path d="M29.747 30.666l.74.27-.95 2.11c-.105-.004-.58-.133-.58-.22 0-.02.76-2.125.8-2.158z" fill="url(#Ai)"/><path d="M29.7 31.186l.246.1-.8 1.623c-.002-.004.507-1.66.544-1.724z" fill="url(#AB)"/><path d="M29.965 30.763l-.14.372.086.033.16-.366-.107-.038z" fill="#ffee90"/><path d="M29.552 33.01l.656-1.65c.146-.183.137-.242.145-.46l.124.056-.925 2.056z" fill="#d66f24"/><path d="M30.31 28.42c-.14-.15-.12-.305.054-.413 0 0-.025.35-.054.413z" fill="#39393b"/><path d="M29.7 30.45l.06-.187a6.05 6.05 0 0 1-.04-3.166c.218-.9.746-1.862 1.427-2.506.52-.492 1.223-.824 1.946-.824.504 0 1.396.27 1.687.687l.043-.048c-.765-.68-1.475-.764-2.44-.6-2.075.353-3.15 3.376-2.98 5.28.043.49.2 1.16.298 1.363z" fill="url(#AF)"/><path d="M29.695 30.092c.022-.005-.156-.412-.19-1.17s.057-1.408.183-1.873c.342-1.265 1.096-2.503 2.338-3.045-1.868.82-2.805 3.782-2.402 5.638.12.55.072.452.072.452z" fill="#8f8f8f"/><path d="M29.543 28.827c.134-.034.238-.068.38-.053 0 0-.128.103-.147.206s.353.224.353.224l-.367 1.058c-.075-.3-.273-1.167-.218-1.435zm.001-.04l.233-.047c-.107-.223-.085-1.216.19-1.295l-.287-.08c-.07.38-.19 1.06-.137 1.423zm.437-1.737c-.07.05-.23.23-.23.308l.14.026s-.057-.16.09-.334zm.007-.695l.293.18.1-.14.143-.017c-.17-.098-.22-.24-.366-.368 0 0-.126.202-.16.347zm.708-.718c.024-.182.1-.41.3-.462l-.124-.283-.235.28c-.034.044.06.455.06.466zm.942-1.16l.155.026c.006.002-.188-.035.013-.364-.092.045-.198.104-.278.17 0 0 .117.074.11.17zm.226-.315c.098-.146.57-.24.675-.11l.246-.248c-.185.005-.877.202-.942.315l.02.044zm.976-.168c.056-.114.85-.235.687.013.054-.1.124-.14.238-.134-.208-.083-.743-.145-.95-.088l.023.21zm1.755.617l.08-.263.11.098zm-3.52 7.583s-.118-.297-.1-.34.195-.03.195-.03c-.387-.05-.532-.42-.568-.763l-.32.328s.442.616.793.805zm.015.02c.243.185.56.34.856.418-.166-.03-.162-.292-.106-.417-.135-.127-.253-.263-.367-.408l-.175.03-.208.378zm.924.437l.07-.24c.197.14.415.22.64.302 0 0-.327.035-.7-.06z" fill="#1f2120"/><path d="M30.442 28.87s-.15-.048-.145-.098c.042-.367.355-1.25-.008-1.507l.404-.847.606.46a4.55 4.55 0 0 0-.446 1.29c-.106-.02-.124-.036-.183.05l-.053.004c-.01.013-.172.34-.17.358l.096.077-.032.042-.08-.033-.05.084.084.064-.024.056z" fill="url(#AA)"/><path d="M30.962 26.353c.236.2.464.1.698-.05l-.342.542-.43-.335.074-.158z" fill="url(#Ap)"/><path d="M30.718 30.67c.082-.003.197.075.254.132l-.12-.468-.135.337zm1.46-6.015l.03.124c-.002.032.355.46.36.667l.03.013c-.03-.374-.055-.638.248-.9 0 0-.484.025-.67.095zm1.053-.368c-.057.052-.312.393-.307.473l.267-.048c-.234-.064-.068-.31.04-.425z" fill="#1f2120"/><path d="M31.32 25.6l-.36.763c.47.402.854-.29 1.15-.53.508-.413.143-.828.114-.593-.02.153-.065.473-.16.39s-.198-.153-.225.057c-.035.28-.492.646-.545.595-.26-.248.234-.78.428-.934 0 0-.322.258-.403.253z" fill="url(#AI)"/><path d="M32.974 25.245l-.044-.456c.133-.03.606-.127.715-.1l.236.18c-.326-.186-.946-.207-.755.303l-.153.072z" fill="#1f2120"/><path d="M33.77 24.287s.27.067.355.11l.183.118s.078-.126.158-.166.183-.028.183-.028-.148-.13-.494-.295-.354-.143-.354-.143l-.03.403z" fill="url(#E)"/><path d="M34.338 24.54l.186.14.018-.052c-.044-.06-.12-.092-.13-.18l-.075.09zm-3.708 1.777l.235.166c-.096-.092-.17-.154-.158-.296l-.076.13z" fill="#1f2120"/><path d="M35.16 25l.286.024.036-.08-.25-.022z" fill="#c0962a"/><path d="M34.698 25.77l.446-.37.177-.192-.36-.013s-.247.217-.264.576z" fill="#73737d"/><path d="M30.74 26.05l-.135.25.026.016.13-.254zm.557-.473l-.425.928.022.017.428-.93zm3.257-.926l.095-.33.02.017-.092.29zM30.3 27.316c-.01.013.08.02.084.345.005.3.008.908-.175 1.158.177.16.332-1.65.1-1.504zm-.155-1.32l1.166.884.018-.034-1.165-.9zm.747-.03l.305-.3.015.017zm.178-.503c-.104-.26.808-.96.894-.898 0 0-.727.372-.894.898zm1.024-.898c.232.3-.353.705-.56.877.214-.15.888-.572.56-.877zm-.278-.426a.93.93 0 0 1 .148.426l.02-.067c-.008-.125-.08-.266-.133-.38l-.036.02zm.373.518c.242-.072.464-.065.703-.106l.064.726.024-.01-.04-.476.703-.12-.71.093-.108-.976-.024.003.083.734-.706.11.01.024zm.76.03c.03-.075.21-.424.292-.397 0 0-.16.114-.292.397zm.825-.81l-.02.41.025-.005.02-.405zm.08.497c-.001.002.455.306.574.288-.147-.1-.403-.255-.574-.288zm-.284.154c-.132-.345.516-.2.694-.023-.188-.117-.66-.343-.694.023zm-3.303 2.74l.412-.864.025.018-.404.847zm-.577.098l.362.085.013-.025-.307-.066c.034-.125.12-.235.2-.325-.043.037-.268.28-.228.316l-.045-.01-.005.024zm.378-.404l.222-.426s-.163.414-.222.426zm.144.34c.004.013-.05-.048-.15.248-.1.32-.106.765-.113 1.116-.005-.124.015-1.553.263-1.364zm-.638 1.523l.166-.04.204-.033s-.352.022-.37.074zm1.318-3.94l.245.33-.153-.236c.13-.14.357-.337.52-.43l-.532.404-.07-.08-.01.013zm1.064-.364l-.013-.067c-.298-.105-.112.087.013.067z" fill="#7e7e7e"/><path d="M30.9 31.422l.172-.39c.075.203.147.424.274.6l-.07.12s-.347-.223-.376-.332z" fill="url(#As)"/><path d="M34.738 25.61c-.06-.014.298-.113.395-.206-.136.003-.264.074-.387.125l-.008.08zm.107-.266l.4-.04.032-.033c-.09-.004-.314-.012-.392.023l-.03.05z" fill="#b89e54"/><path d="M39.253 30.023l.01-.317-.126.027z" fill="#303131"/><path d="M39.08 27.724l.328.2c.102-.267-.043-1.457-.294-1.614-.2-.125-.466.08-.51.27l.114.023s.05-.153.107-.145c.123.016.262 1.075.256 1.255z" fill="url(#BH)"/><path d="M24.38 25.82c.115.02.612.054.67-.03.115.2.476.346.7.326-.288-.002-.5-.14-.685-.35 0 0-.186.085-.684.057z" fill="#50656a"/></svg>