<svg xmlns="http://www.w3.org/2000/svg" xmlns:xlink="http://www.w3.org/1999/xlink" width="163.839" height="163.839" viewBox="0 0 43.349 43.349" shape-rendering="geometricPrecision" image-rendering="optimizeQuality" fill-rule="evenodd" xmlns:v="https://vecta.io/nano"><defs><linearGradient id="A" x1="28.277" y1="9.822" x2="7.289" y2="31.04" xlink:href="#p"><stop offset="0" stop-color="#ec8384"/><stop offset="1" stop-color="#f18284"/></linearGradient><linearGradient id="B" x1="11.332" y1="11.178" x2="10.721" y2="16.123" xlink:href="#p"><stop offset="0" stop-color="#ec7f80"/><stop offset="1" stop-color="#f58381"/></linearGradient><linearGradient id="C" x1="5.326" y1="31.747" x2="7.612" y2="31.747" xlink:href="#p"><stop offset="0" stop-color="#e6955e"/><stop offset="1" stop-color="#ee9856"/></linearGradient><linearGradient id="D" x1="11.031" y1="33.475" x2="22.627" y2="33.475" xlink:href="#p"><stop offset="0" stop-color="#6c3526"/><stop offset=".38" stop-color="#905544"/><stop offset="1" stop-color="#b47662"/></linearGradient><linearGradient id="E" x1="11.049" y1="33.427" x2="22.554" y2="33.427" xlink:href="#p"><stop offset="0" stop-color="#704136"/><stop offset="1" stop-color="#b27662"/></linearGradient><linearGradient id="F" x1="10.191" y1="29.249" x2="13.521" y2="29.249" xlink:href="#p"><stop offset="0" stop-color="#4c1001"/><stop offset="1" stop-color="#a04616"/></linearGradient><linearGradient id="G" x1="12.864" y1="31.377" x2="17.681" y2="31.377" xlink:href="#p"><stop offset="0" stop-color="#944523"/><stop offset="1" stop-color="#d47337"/></linearGradient><linearGradient id="H" x1="19.496" y1="13.443" x2="25.784" y2="13.443" xlink:href="#p"><stop offset="0"/><stop offset=".302" stop-color="#636268"/><stop offset="1" stop-color="#12130e"/></linearGradient><linearGradient id="I" xlink:href="#H" x1="26.641" y1="13.958" x2="33.221" y2="13.958"/><linearGradient id="J" x1="5.363" y1="31.442" x2="10.799" y2="31.442" xlink:href="#p"><stop offset="0" stop-color="#bf632a"/><stop offset=".188" stop-color="#943f0a"/><stop offset=".412" stop-color="#3a0d02"/><stop offset="1" stop-color="#120301"/></linearGradient><linearGradient id="K" x1="4.99" y1="34.065" x2="11.803" y2="34.065" xlink:href="#p"><stop offset="0" stop-color="#cca397"/><stop offset=".212" stop-color="#c89681"/><stop offset=".6" stop-color="#c27750"/><stop offset="1" stop-color="#c0856d"/></linearGradient><linearGradient id="L" x1="10.86" y1="32.96" x2="22.372" y2="32.96" xlink:href="#p"><stop offset="0" stop-color="#744c2f"/><stop offset="1" stop-color="#ccad8d"/></linearGradient><linearGradient id="M" x1="10.975" y1="33.181" x2="22.535" y2="33.181" xlink:href="#p"><stop offset="0" stop-color="#9b745a"/><stop offset="1" stop-color="#e2cec1"/></linearGradient><linearGradient id="N" x1="4.85" y1="33.839" x2="11.786" y2="33.839" xlink:href="#p"><stop offset="0" stop-color="#cc9e8c"/><stop offset=".141" stop-color="#d2a394"/><stop offset=".588" stop-color="#9d675b"/><stop offset="1" stop-color="#b98a7e"/></linearGradient><linearGradient id="O" x1="10.917" y1="33.059" x2="22.359" y2="33.059" xlink:href="#p"><stop offset="0" stop-color="#5b391f"/><stop offset="1" stop-color="#a47a52"/></linearGradient><linearGradient id="P" x1="10.804" y1="33.022" x2="22.255" y2="33.022" xlink:href="#p"><stop offset="0" stop-color="#5f1c04"/><stop offset="1" stop-color="#b45e34"/></linearGradient><linearGradient id="Q" x1="14.127" y1="11.763" x2="20.969" y2="11.763" xlink:href="#p"><stop offset="0" stop-color="#ae4e52"/><stop offset=".478" stop-color="#e87575"/><stop offset="1" stop-color="#bc5152"/></linearGradient><linearGradient id="R" x1="11.29" y1="21.515" x2="11.455" y2="16.736" xlink:href="#p"><stop offset="0" stop-color="#dc676c"/><stop offset="1" stop-color="#f48482"/></linearGradient><linearGradient id="S" x1="17.318" y1="3.897" x2="17.475" y2="7.223" xlink:href="#p"><stop offset="0" stop-color="#797674"/><stop offset=".169" stop-color="#cacaca"/><stop offset=".349" stop-color="#9f9f9f"/><stop offset=".58" stop-color="#c6c6c6"/><stop offset=".78" stop-color="#b8b8b8"/><stop offset="1" stop-color="#d3d1d1"/></linearGradient><linearGradient id="T" x1="6.848" y1="27.907" x2="10.223" y2="27.907" xlink:href="#p"><stop offset="0" stop-color="#c47c4c"/><stop offset=".639" stop-color="#7a4127"/><stop offset="1" stop-color="#dc956a"/></linearGradient><linearGradient id="U" x1="7.976" y1="28.436" x2="8.025" y2="26.608" xlink:href="#p"><stop offset="0" stop-color="#7d400d"/><stop offset="1" stop-color="#ca7a13"/></linearGradient><linearGradient id="V" x1="7.977" y1="28.46" x2="8.009" y2="26.667" xlink:href="#p"><stop offset="0" stop-color="#9d4e19"/><stop offset=".278" stop-color="#cb7e1b"/><stop offset="1" stop-color="#f9af1e"/></linearGradient><linearGradient id="W" x1="14.368" y1="26.633" x2="14.34" y2="25.412" xlink:href="#p"><stop offset="0" stop-color="#7c4a35"/><stop offset="1" stop-color="#c28b71"/></linearGradient><linearGradient id="X" x1="8.202" y1="31.374" x2="8.097" y2="28.199" xlink:href="#p"><stop offset="0" stop-color="#492a21"/><stop offset="1" stop-color="#804c37"/></linearGradient><linearGradient id="Y" x1="11.701" y1="26.411" x2="11.766" y2="28.241" xlink:href="#p"><stop offset="0" stop-color="#6d5b61"/><stop offset="1" stop-color="#170606"/></linearGradient><linearGradient id="Z" x1="11.905" y1="26.999" x2="11.929" y2="26.119" xlink:href="#p"><stop offset="0" stop-color="#422c25"/><stop offset=".361" stop-color="#775a4d"/><stop offset="1" stop-color="#ad8875"/></linearGradient><linearGradient id="a" x1="21.296" y1="19.319" x2="40.657" y2="31.926" xlink:href="#p"><stop offset="0" stop-color="#d4ab73"/><stop offset=".678" stop-color="#c9a26e"/><stop offset="1" stop-color="#bd9968"/></linearGradient><linearGradient id="b" x1="8.017" y1="28.587" x2="7.741" y2="25.607" xlink:href="#p"><stop offset="0" stop-color="#7a4834"/><stop offset="1" stop-color="#c28b70"/></linearGradient><linearGradient id="c" x1="9.658" y1="34.713" x2="7.171" y2="26.009" xlink:href="#p"><stop offset="0" stop-color="#c65d1d"/><stop offset=".522" stop-color="#f89246"/><stop offset="1" stop-color="#ef8c40"/></linearGradient><linearGradient id="d" x1="28.757" y1="14.267" x2="35.66" y2="12.869" xlink:href="#p"><stop offset="0"/><stop offset=".278" stop-color="#676767"/><stop offset="1" stop-color="#262624"/></linearGradient><linearGradient id="e" x1="14.577" y1="7.087" x2="16.522" y2="10.839" xlink:href="#p"><stop offset="0" stop-color="#fde1c7"/><stop offset=".149" stop-color="#f6ceaf"/><stop offset=".2" stop-color="#f7d6b9"/><stop offset=".251" stop-color="#f6cfb2"/><stop offset=".349" stop-color="#f5c6a5"/><stop offset=".412" stop-color="#fad3b5"/><stop offset=".502" stop-color="#f5caab"/><stop offset=".612" stop-color="#f9d5b9"/><stop offset=".741" stop-color="#fcd1ae"/><stop offset=".812" stop-color="#fce0c7"/><stop offset=".922" stop-color="#f0caa9"/><stop offset="1" stop-color="#f6cead"/></linearGradient><linearGradient id="f" xlink:href="#d" x1="22.569" y1="14.01" x2="28.706" y2="12.767"/><linearGradient id="g" xlink:href="#e" x1="18.656" y1="10.755" x2="20.568" y2="7.159"/><linearGradient id="h" x1="7.897" y1="26.881" x2="7.851" y2="26.359" xlink:href="#p"><stop offset="0" stop-color="#87513f"/><stop offset="1" stop-color="#a3654c"/></linearGradient><linearGradient id="i" x1="19.861" y1="25.099" x2="30.363" y2="25.099" xlink:href="#p"><stop offset="0" stop-color="#6a95d9"/><stop offset=".122" stop-color="#5d84c0"/><stop offset="1" stop-color="#5072a7"/></linearGradient><linearGradient id="j" x1="11.769" y1="29.957" x2="20.541" y2="29.539" xlink:href="#p"><stop offset="0" stop-color="#963d0e"/><stop offset=".369" stop-color="#e17933"/><stop offset="1" stop-color="#fc974e"/></linearGradient><linearGradient id="k" x1="17.589" y1="12.945" x2="17.525" y2="12.367" xlink:href="#p"><stop offset="0" stop-color="#e8c6a9"/><stop offset="1" stop-color="#f8dcbf"/></linearGradient><linearGradient id="l" x1="21.839" y1="26.336" x2="22.987" y2="36.831" xlink:href="#p"><stop offset="0"/><stop offset=".541" stop-color="#787878"/><stop offset="1" stop-color="#f0f0f0"/></linearGradient><linearGradient id="m" x1="14.812" y1="23.197" x2="17.506" y2="23.197" xlink:href="#p"><stop offset="0" stop-color="#e27979"/><stop offset="1" stop-color="#f58381"/></linearGradient><radialGradient id="n" cx="26.525" cy="29.536" r="16.248" fx="26.525" fy="29.536" xlink:href="#p"><stop offset="0" stop-color="#ffbf75"/><stop offset="1" stop-color="#e8843f"/></radialGradient><path id="o" d="M29.335 19.2c.128 0 .23.116.23.26s-.103.26-.23.26-.23-.116-.23-.26.103-.26.23-.26z"/><linearGradient id="p" gradientUnits="userSpaceOnUse"/></defs><circle cx="22.089" cy="22.053" r="19.05" fill="#f0f0f0"/><path d="M38.5 31.75l-12.886 8.287L9.727 36.55l-3.392-2.455 18.2-10.963z" fill="url(#l)"/><path d="M11.217 18.677c-.05-.06-.726-.167-.817-.01-.035.06-.188.06-.34-.086-.38-.37-.083-.656-.254-.817-.316-.3-2.537-1.896-2.495-2.2.001-.008 1.663-2.813 1.924-3.3.334-.622 3.52-2.314 3.817-2.244.107.025.27-.137.325-.142s1.066.59 1.787.883c1.798.734 3.827.76 5.523-.284.132-.08.7-.604.863-.624s.396.152.57.152c.484 0 3.777 1.847 4.035 2.33.34.637 2.134 3.363 2.137 3.406.007.123-1.503 1.195-1.746 1.406L16.46 30.45c-.203.284-5.36.57-5.36.57-.053-1 .157-12.3.12-12.342z" fill="url(#A)"/><path d="M13.1 31.24c-.147-3.188.158-10.323.65-12.893.61-3.194 5.617 12.755-.65 12.893z" fill="url(#m)"/><path d="M9.88 17.9c-.016 0-.028.206.03.267s.12.11.056.168-.06.1-.03.11a.57.57 0 0 0 .278-.086c.036-.043-.168-.223-.333-.46z" fill="#aa4d4e"/><path d="M10.46 18.604c.005.012.365-.393.388-.502s-.244-.574-.142-.746c.114-.194.627.487.48.942-.06.188.097-.03.117.08s-.058.363-.058.363c.036-.167-.663-.152-.785-.138z" fill="#cf5c5f"/><path d="M10.65 18.523l.495-.525c.023.04.06.162-.003.193-.168.08-.35.333-.492.333zm.504.122c.035-.248.11-.192.08.06l-.08-.06z" fill="#b54f50"/><path d="M10.618 11.2c-.084.497.3 1.137.472 1.6.32.813.43 2.168.43 3.043 0 .255-.042-2.14-.444-3.267l-.457-1.378z" fill="url(#B)"/><path d="M11.212 21.513s.23-1.643.155-2.297.168-2.477.168-2.477l-.076 2.25-.04 1.72c-.046.437-.206.805-.206.805z" fill="url(#R)"/><path d="M10.52 11.282c.12.06 2.262-1.033 2.442-1.178.09-.074-.06 0 .173.457.65 1.27 1.856 2.43 3.223 2.873s3.167.02 4.208-.97c.584-.555 1.222-1.38 1.42-2.178-.603 1.363-1.37 2.255-2.726 2.898-1.64.778-3.344.196-4.67-.863-.582-.465-1.395-1.525-1.538-2.292-.2-.085-2.53 1.225-2.533 1.25z" fill="#d66a68"/><path d="M15.498 12.442l4.117.01c-.132.12-.65.418-.797.34h-2.614s-.482-.122-.706-.35z" fill="url(#k)"/><path d="M18.95 12.797l-2.746-.005c.525.257 2.38.493 2.746.005z" fill="#bb5656"/><path d="M20.97 11.166s0 .188-.624.42c-2.366.885-3.813.7-6.122-.348l-.096-.185c2.292 1.093 4.53 1.38 6.843.112z" fill="url(#Q)"/><path d="M14.427 10.428c.46 1.313.702 1.673 1.892 2.42-.766-.175-1.804-1.068-2.475-2.167l.585-.29-.002.036z" fill="#ae4d4f"/><path d="M21.172 10.927c-1.55 1.07-3.536 1.12-5.3.7 2.24.436 3.382.134 5.365-.827l-.066.127z" fill="#ea7576"/><path d="M20.764 10.455c.013.005.363.2.38.26s-.104.365-.104.365l.236-.37c.018-.053-.503-.29-.503-.29l-.01.032z" fill="#c2605b"/><path d="M17.622 8.88l-.005-1.673c-.772-.002-1.05.148-1.37.82-.51 1.066-1.737 1.504-2.77 1.95.003.23.42.747.42.747l3.725-1.843z" fill="url(#e)"/><path d="M17.617 7.206l.005 1.673 3.638 1.78c.063.05.32-.605.347-.713 0 0-1.386-.655-1.9-1.025-.975-.705-.433-1.712-2.09-1.714z" fill="url(#g)"/><path d="M17.592 8.846l-3.765 1.802.044.08 3.72-1.796z" fill="#c09e86"/><path d="M18.668 7.475s.256.363.322.564a2.4 2.4 0 0 0 .584.825c.256.223 1.56.923 1.7.984l.237.1-.05-.06-.483-.24-.95-.51c-.123-.075-.474-.286-.63-.504s-.61-1.067-.732-1.147z" fill="#d8b298"/><path d="M17.7 7.207s-.033-.685.003-.787.563-.538.706-.878.142-.564.005-.853c-.25-.525-1.015-.774-1.457-.36-.22.207-.367.643-.64.752-.076.03.023.117.058.14s.27-.22.396-.44c.28-.484.838-.786 1.317-.32.464.452.402.946-.04 1.393-.22.223-.457.5-.485.61s-.025.742-.025.742h.163z" fill="url(#S)"/><path d="M10.538 12.287c.287.267.475.515.543.91-.15-.243-.63-.693-.543-.91zm-.178.578c.41.297.83.83.965 1.32-.274-.3-.895-.926-.965-1.32zm-.157.315c.28.178.974 1.144 1.015 1.416 0 0-1-.975-1.015-1.416zm-.04.553l.96 1.137c.08.173-.746-.34-.96-1.137z" fill="#f5898b"/><path d="M23.7 16.348c.053.275.3 1.506.42 1.642l.234-.16s-.48-.455-.653-1.48z" fill="#c75b5c"/><path d="M26.46 17.268c.487-.52 1.178-.892 1.728-1.387.117-.106.096-.16.096-.16-.467.354-.92.716-1.455.966-.4.185-.675.51-.675.51l.307.073z" fill="#a84a4e"/><path d="M28.055 15.36s-.254.29-.848.652l-1.426.858c-.04.05.725-.53 1.3-.853s.925-.7.925-.7l.04.053z" fill="#e47d7d"/><path d="M24.41 11.89c-.327.512-.593 1.057-.7 1.66 0 0 .33-1.003.7-1.66zm-.553 1.59c.372-1.827 1.563-.906 1.406-.827-.424.212-1.017.007-1.406.827zm.02.736c.135-.227 1.34-1.636 1.365-1.173.001.024-1.034 1.4-.873 1 .08-.198.32-.553.08-.304s-.574.467-.574.467z" fill="#da7171"/><path d="M22.117 10.075c.318.296 2.258 1.207 2.705 1.3.385.08-2.618-1.407-2.705-1.3z" fill="#d66e6e"/><path d="M25.36 34.026l14.81-2.575-.47-13.89-2.783.056.02-.4-8.924.5-5.987.492-.225 11.25.035 2.857c.053.074 2.733 1.156 3.524 1.71z" fill="url(#a)"/><path d="M24.555 18.68l9.226-.7 4.73-.33-1.982.014.353-.413-6.68.415-7.687.56 2.71.147-.007.07c-.07.053-.662.248-.662.248z" fill="#b78756"/><path d="M35.723 17.814l.646-.137.494-.413-.334.4.033.097z" fill="#4a2304"/><path d="M21.834 32.378l2.65-2.4.26-1.87-.48-9.367.618-.288-2.855-.184-.224 11.2z" fill="#b97d4b"/><path d="M25.295 33.982l-.55-5.874-.26 1.87-2.572 2.333s2.623 1.098 3.383 1.672z" fill="#d6a56d"/><use xlink:href="#o" fill="#090307"/><path d="M29.336 19.642l.002-.35s-.357.14-.002.35z" fill="#666560"/><use xlink:href="#o" x="5.705" y="-0.43" fill="#090307"/><path d="M35.04 19.212l.002-.35s-.357.14-.002.35z" fill="#666560"/><path d="M24.536 23.13l-.26-4.427.738-.27-2.87-.156 3.082.085-.857.397z" fill="#e0be8d"/><path d="M24.684 18.748l8.545-.682-8.545.682z" fill="#e6c28f"/><path d="M36.614 17.682l.343-.436-.415.407z" fill="#ecc9a1"/><path d="M21.836 32.316l-3.686.657-2.867-1.462.09-13.822 3.03-.267c1.918-.148 12.058-.738 12.058-.738l-.176.485 2.1.056.018.294-10.38.7-.2 14.107z" fill="#658ecf"/><path d="M17.82 18.188l.33 14.785 3.686-.657.2-14.107 10.38-.7-.018-.294s-13.05 1.08-14.567.963z" fill="url(#i)"/><path d="M15.83 17.73l2.445.183-.288.28L25 17.8l5.963-.497-.864-.032.24-.46-14.497.92z" fill="#5a80bd"/><path d="M26.64 18.54l.67-.054-.27-2.95c.084-1.638.8-3.5 2.08-4.567.843-.703 1.922-.956 2.523-.798s.632.53.646.854l.07 7.036.587-.046c.024-1.217.276-6.6-.274-7.315-1.02-1.326-2.814-.896-3.95.042-1.515 1.252-1.657 3.497-1.862 5.32l-.22 2.48z" fill="url(#I)"/><path d="M29 18.36c.137-1.603.198-6.914 1.433-7.954 1.935-1.628 4.333.87 4.694 2.748.288 1.5.208 3.176.237 4.706l-.554.04s.353-1.24.42-2.17-.35-2.36-.885-3.24-1.138-1.96-2.073-2.207-1.32-.274-1.65.302c-.527.92-.798 6.378-.912 7.7l-.708.076z" fill="url(#d)"/><path d="M20.088 18.083c-.055-2.016-.592-4.51-.333-6.395.127-.92 1.483-2.185 2.298-2.445s1.28-.09 1.91.443c1.522 1.285 1.608 6.066 1.82 8.004l-.61.097-.852-7.004c-.084-.492-.28-1.054-.76-1.258-1.7-.72-4.03 1.562-3.78 3.485.218 1.69.783 3.253.922 5.04l-.617.033z" fill="url(#H)"/><path d="M22.922 17.883c-.07-1.828-.27-6.193.627-7.765.43-.752 1.637-1.026 1.848-1.047 1.837-.184 2.393 2.768 2.65 4.012.197.956.575 4.402.575 4.402l-.596.053c-.092-2.216.305-5.7-1.343-7.315-.506-.5-1.138-.864-1.644-.85-2.098.058-1.5 7.1-1.46 8.516l-.655-.006z" fill="url(#f)"/><path d="M40.17 31.45l-14.822 2.635-2.36-1.183-1.183-.543-1.287.24-.053-.04 1.373-.245 2.35 1.075c.676.315 1.175.636 1.175.636l14.81-2.575z" fill="#6e4829"/><path d="M28.18 26.293c.135.622-.592.925-1.09.77-.178-.058-.225-.35-.047-.278.32.13.95.07.848-.396-.075-.348-.668-.29-.947-.474-.727-.48.228-1.363.77-1.012.052.033.155.3-.015.244-.482-.166-.946.16-.634.47.287.288.985.08 1.113.675zm1.57.293c-.146.026-.94.198-1.02.158-.09-.048-.365-1.83-.406-2.06-.012-.07.27-.132.284-.05l.333 1.845.765-.138c.088-.016.12.232.044.246zm1.1-.125c-1.342.17-1.533-2.056-.237-2.22 1.318-.167 1.54 2.055.237 2.22zm-.223-1.974c-.874.11-.748 1.845.207 1.724.893-.114.713-1.84-.207-1.724zm3.296 1.56c.007.174-.268.155-.35.095-.16-.12-.724-1.15-.86-1.374l-.225-.396.073 1.803c.003.076-.27.087-.273.01l-.077-2c-.007-.177.348-.223.5.033l.932 1.565-.07-1.726c-.003-.076.27-.087.273-.01l.077 2zm2.224-1.05c.022 1.022-1.16 1.45-1.6 1.125-.092-.068-.095-2.077-.045-2.117.4-.315 1.634.002 1.655.992zm-.303.018c-.016-.767-.468-.815-1.093-.8l.036 1.687c.674-.015 1.075-.073 1.057-.886zm1.6 1.135c-1.33.03-1.322-2.205-.004-2.233 1.328-.028 1.318 2.205.004 2.233zm-.015-1.986c-.898.02-.902 1.756.025 1.736.906-.02.896-1.755-.025-1.736z" fill="#57574c" fill-rule="nonzero"/><path d="M24.5 23.564l.793 10.498s-.33-6.18-.793-10.498z" fill="#c3946a"/><path d="M5 33.826c-.126 1.335.2 2.04 1.51 2.52.754.275 5.954.457 5.838-.59-.03-.274-.934-.66-.934-.66L4.99 33.825z" fill="#cfcfcf"/><path d="M6.094 35.82c.817.36 5.02.66 5.433-.285 0 0-4.04-.314-5.433.285zM13 33.995s.558-.133.888-.144 1.552.368 1.552.368l.726.223c.4.112.58.13 1.224.188l3.036.18s1.498-.005 2.096-.208.035-.766-.67-.944-8.348-1.572-8.798-1.07-1.674 1.014-1.674 1.014l-.03.39h1.056l.594.002z" fill="#1c0909"/><path d="M11.03 32.552c.453.387.322.812.564 1.224.138.02.148.106.194.222l.406-.003s.08-.135.165-.142.2.152.2.152l.54-.013.048-.05c.084-.018.2-.06.21-.142l-.003-.358c.33-.003 1.717.38 1.766.553.062.216.46.255.462.236l.076-.018c.067.117.426.197.558.238.14-.327.26.07.264.074.094.058 1.114.117 1.145.117 0 0 .124-.296.292-.025.046.074.444.046.444.046-.01-.19.13-.052.254-.028 0 0 .386-.056.434-.1.337-.3.228-.02.41-.013.127.005.32-.074.32-.074.03-.218.152-.04.23-.028.09.015.584-.086.655-.198.1-.156.25-.237.368-.053.01.018 1.6-.256 1.6-.858 0-.25-.103-.577-.103-.577s-1.297.274-1.72.48-1.23.27-2.92.362-2.878-.596-3.85-.792-2.868-.526-3.005-.233z" fill="url(#D)"/><path d="M6.417 26.33c-.8 0-.53 1.5-.68 1.837l-.147.162.122.178c0 .107-.07-.02-.076.203l.056.564c-.055.412-.406 1-.452 1.584a4.84 4.84 0 0 0 .132 1.569c.147.574.03 1.32.254 1.685s.533.447 1.335.4l1.843-.264c.855-.04 1.665-.13 2.518.036.22.043.17.074.195-.09.1-.707.037-1.09-.444-1.635-.2-.215-.95-2.068-1.02-2.4-.073-.35-.355-1.084-.355-1.33l.04-1.498c-.02-.112-.376-1.165-.406-1.167-.066-.005-2.914.165-2.914.165z" fill="url(#c)"/><path d="M5.3 32.293c.046-.01-.213.05-.203.274s-.096 1.122-.096 1.26.26.487.35.624-.03.858.08 1.08.518.315 1.005.29c1.496-.078 2.836-.38 4.41-.3l.965.02-.03-.975c-.646-.875-3.725-.14-4.7-.05-.497.045-1.105.002-1.305-.27-.45-.616-.202-1.007-.358-1.68-.062-.268-.11-.263-.11-.263z" fill="url(#K)"/><path d="M5.53 35.633c.098-.147.153-.057.165.07l-.165-.07zm.24.134c.113-.214.148-.115.213.057 0 0-.175-.008-.213-.057zm.322.052c.105-.242.17-.267.254.005l-.254-.005zm.444-.006c.112-.202.13-.202.2.008l-.2-.008zm.688-.065c-.001-.006.3-.547.3-.015l-.3.015z" fill="#a7421a"/><path d="M5.366 33.83c-.112.095-.072.148.003.254l-.003-.254z" fill="#c6815a"/><path d="M5.292 32.294c-.443.168.018.807.06 1.177.046.406-.04.92.09 1.203.33.7 3.588.053 4.348.003.178-.012 1.98.025 1.985.02l.01-.09c-1.387-.148-2.863.001-4.246.157-.553.062-1.75.352-2.102-.234-.003-.006-.112-1.98-.146-2.236z" fill="url(#N)"/><path d="M11.712 34.598c-.476-.744-2.79-.422-3.528-.277-.642.127-1.04.2-1.66.203s-.894-.265-.97-.427c-.207-.442-.045-1.46-.206-1.713l-.057-.09s-.185.073-.195.188l.24.884c.068.342.036.93.138 1.223.2.57 3.43.04 3.998.006.95-.057 1.514-.1 2.24.005z" fill="#e8c9ac"/><path d="M7.544 31.36s.112-.62-.002-.865l-.32-1.147c-.122-.294-.382-.5-.416-.55s-.163-.25.34-.393 2-.188 2.137-.152.142.035.147.457l.06 1.574c.037.398.163.787.163.787s-1.02-.904-2.11.29z" fill="url(#X)"/><path d="M5.203 32.496l.2.315c.115.086-.104-.407-.2-.315z" fill="#b29581"/><path d="M5.566 34.372c.353.556 1.797.48 2.355.25.155-.063.175-.018.322-.015l.297-.096 2.95-.046c.11-.11-2.822-.194-3.457.028-.536.187-1.95.31-2.393-.09l-.074-.033z" fill="#c59f74"/><path d="M5.61 34.407c-.02.015.133.248.277.254.082.003-.253-.256-.277-.254zm2.588.142c.193-.15.41-.046.343-.038-.14.016-.252.09-.343.038z" fill="#9f7444"/><path d="M7.597 31.322s.46-.36.638-.41.495-.055.495-.055-.43-.107-.807.148-.326.317-.326.317zm-.005-.432l.03.18.32-.187zm.014-.348c.064-.115.13-.197.272-.173-.654-.31-.313.147-.272.173zm-.015.07c-.19.033.953.022.586-.153-.24-.114-.303.038-.586.153zm.68-.114s-.053.11.01.105l.125-.01-.135-.094zm.682.257s.232.08.427.182l.25.145s-.05-.16-.036-.238l.01-.105s-.16.117-.246.068-.405-.052-.405-.052zm-.14-.346l.66-.353.015.41c-.143.146-.7.054-.675-.056zm-.926-.294c-.005.02.2-.168.25-.178s.614.2.614.2l.086-.058c-.102-.037-.905-.355-.953-.32-.032.023-.312.276-.28.294l.286.06zm-.437-.18l.032.044c.006 0 .13-.076-.032-.044zm.884-.236l.213-.08s-.05.117-.213.08zM9 29.47c.183.014.4.068.353.302l.048.01c.028-.03.01-.45.01-.45s-.336.05-.4.14zm-2.092-.612c.052.068.31.538.358.536.034-.001.227-.028.32-.086.142-.088-.556-.177-.394-.316.124-.107.565.1.528.13l-.04.128c.002.002.43-.19.333-.19-.188 0-.988-.304-1.104-.203zm1.686.137l.59-.244c.053 0 .035.302-.033.358l-.08.084c.54.034.277-.407.35-.538l.098-.115c-.023-.02-1.146.375-.924.455z" fill="#050301"/><path d="M8.697 34.522s.02-.107.155-.072l.2-.008c.054.02-.273.088-.355.08zm.526-.064c-.026-.16.19-.02.287-.04.035-.008-.117.043-.287.04zm.627-.038c.078.082.167.05.24-.005l-.24.005zm.52-.023c.076.114.264.016.193.003l-.193-.003z" fill="#9f7444"/><path d="M6.293 34.5s.986-.013 1.32-.15c.56-.23 3.067-.452 3.608-.093-.86-.21-1.663-.04-2.52-.01-.545.018-.784.112-1.233.204s-1.176.05-1.176.05z" fill="#983f19"/><path d="M9.257 28.27c.034-.338-.006-1.768-.078-2.098-.056-.254-.355-.493-1.06-.523-.473-.02-1.652.578-1.497.645 0 0 .2.062.246.427.055.436-.26 1.592.004 1.843 0 0 1.044-.323 2.386-.294z" fill="url(#b)"/><path d="M5.363 32.2s.173-.234.27-.277.287.363.388.508.094.132.23.056l1.218-.71c1.136-.512-.08-.16.254-.462.42-.38 1.405-.615 1.75-.07.262.41.73.34 1.173.708l.152.137s-.26-.464-.47-.55c-.48-.197-.63-.5-.906-.622-1.344-.588-2.317 1.07-3.25 1.538-.08.04-.112-.014-.137-.05l-.298-.548c-.157-.143-.342.214-.374.345z" fill="url(#J)"/><path d="M6.846 31.355s.447-.43.72-.437c1.23-.023 1.644-.333 2.8.133.073.03.13-.173-.003-.336-.302-.37-2.64-.105-3.066.06-.39.152-.655.376-.7.482s.107.208.25.097z" fill="#48190b"/><path d="M6.637 31.38s.154-.3.606-.45 1.178-.137 1.68-.183.706-.107 1.015-.06.504.21.504.21-.058-.128-.172-.2-.7-.137-1.06-.07-1.076.152-1.386.152-1.07.193-1.187.6z" fill="#cd855e"/><path d="M6.593 31.36c.014-.01-.028-.157.256-.386s.73-.238 1.08-.26.462-.03.75-.096.53-.124.97-.086.654.125.746.23c.01.012-.537-.24-1.45-.094-.9.144-1.708-.104-2.354.69z" fill="#a56b59"/><path d="M7.544 31.36l.772-.496-.685.054-.088.442z" fill="#2f0901"/><path d="M7.596 31.087l.203-.142.223-.005-.442.288z" fill="#571e07"/><path d="M7.92 30.7c.088-.06.24-.13.294-.21-1.07-.56-1.018-.007-1.58.173-.056.018-.12-.165-.104-.234s.107-.21.386-.312c.726-.264 1.104.213 1.574.23l.678-.42c.81-.423 1.268.32.957.426-.013.004-.025-.183-.302-.27-.344-.107-1.07.224-1.086.363-.003.02.296.113.296.113s-.494.154-1.11.14z" fill="#5e2b15"/><path d="M6.58 30.462s.24-.226.393-.272.107-.074.107-.074-.708.147-.5.345z" fill="#6a3930"/><path d="M7.14 30.126c.298-.13 1.102.292 1.358.292l-.007-.08c-.13-.05-1.437-.51-1.35-.2z" fill="#b5785b"/><path d="M10.1 30.005c-.73-.48-1.518.504-1.583.377l.06-.086c.44-.364.762-.54 1.33-.455.125.02.223.13.193.163z" fill="#da9266"/><path d="M6.596 30.535c.318-.366.64-.307 1.062-.254.32.04 1.008.292.995.293l-.46.11c-.064-.012-.025-.154-.025-.154l-.25.16c.33.013.6-.04.93-.108l-.142-.04c-.557-.077-1.564-.922-2.112-.006z" fill="#96522d"/><path d="M9.637 29.965a.77.77 0 0 0 .299.091c.15.084.202.187.24.14s-.294-.28-.54-.23z" fill="#ae653e"/><path d="M8.62 30.403l-.08.033c-.015.033.184.1.273.127s.207-.012.207-.012l-.4-.148z" fill="#794738"/><path d="M6.494 29.946c.373-.446.78-.283 1.262-.198.043.008-.302.254-.302.254l.186.065c.067.016.32-.263.32-.263l.868.323.244-.154-.71-.296.792-.294c.725-.223.618.16.77.185.107.018.094-.084.097-.206.01-.41-.816-.177-.995-.122l-.548-.223c.518-.247 1.09-.414 1.498-.835.24-.246-.315-.486-.21-.12.025.09.086.102.003.178s-1.533.728-1.533.728l-1.937-.426c-.06-.05-.132-.086-.213-.086s.01.102.09.157c.068.047 1.49.43 1.746.492l-.462.287c-.254-.017-1.123.062-1.04.434l.076.12zm1.236-.482l.307.13.45-.2-.246-.203-.5.274z" fill="#53271c"/><path d="M6.46 29.794c.303-.175.8-.312 1.127-.145.11.056-.652-.383-1.127.145z" fill="#b4673c"/><path d="M6.484 29.68s.096-.007.303-.104.656-.038.636-.064-.838-.165-.94.168z" fill="#9e5e41"/><path d="M7 29.438c-.028-.16 1.666.567 1.716.387l-.54-.158c-.16-.092 1.34-.462 1.327-.525-.015-.078-1.33.36-1.465.452-.398-.178-.605-.257-1.038-.155z" fill="#b47759"/><path d="M9.605 29.183c.12-.018.42.35.41.15-.002-.054-.212-.22-.41-.15z" fill="#b97046"/><path d="M7.6 29.426l.48-.287-.16-.033-.462.287.14.034z" fill="#6e3b23"/><path d="M6.083 28.456s-.092.1.507.246l2.3.58.145-.04-.602-.25.848-.41c.284-.124.57-.277.566-.32s-.086-.005-.162.034l-1.44.674-1.937-.426c-.024-.02-.15-.107-.213-.086z" fill="#b8724b"/><path d="M9.83 27.88l-.01.205.12.107c.064.065.063-.533-.112-.312z" fill="#815a3f"/><path d="M7.564 30.043l.32-.28c.044-.022.846.288.992.33l.195-.12c-.326-.02-1.63-.475-1.596-.404l.052.06c-.07-.014-.268-.056-.344-.038-.086.02.575.15.57.174l-.3.238.1.04z" fill="#784026"/><path d="M6.624 31.288c-.017-.005-.09.145-.086.213.02.282.334-.033.308-.146-.002-.01-.266.36-.222-.067zm-.048-.73c-.022.01-.102.137-.06.168.118.09.144-.184.206-.094.038.056-.064.183-.124.195-.264.055-.01-.45-.02-.27zm-.198-.766c-.227.35.19.384.184.085-.15.19-.23.153-.184-.085zm3.92 1.238l.074.124c.036.004.078-.037.046-.07l-.12-.056zm-.393-1.418s-.003.137.038.097.001-.137-.038-.097z" fill="#a57f6a"/><path d="M6.653 31.37c-.007-.004-.062.138.015.127s.108-.102-.015-.127zm-.096-.795l-.054.126c-.017.076.26.097.054-.126zm-.14-.748s-.125.072-.043.14.117.042.043-.14z" fill="#412e29"/><path d="M6.92 28.193l.05.218c.02.045.4-.092 1.02-.128s1.1-.035 1.152-.11-.218-1.41-.25-1.462c-.025-.04-1.843-.03-2.015.234-.086.132-.035 1.107.04 1.25z" fill="url(#V)"/><path d="M7.387 26.83s.028.175.053.117l.064-.122c.064-.02.084-.04.11.056.037.14.107-.237.173-.07l.07.097c.015-.048.003-.152.05-.152l.09.076c.07.105.228-.21.228-.01 0 .076.04.1.048.07l.05-.114c.115 0-.1.148.152.003l.112.09c.03.002.05-.198.124-.07l.08-.005c.058-.06.114.018.064.107s-.084.11-.02.11.137.074.066.135c-.064.055-.023.226-.005.25.04.056.06.145.015.23l-.028.122c.056.104.212.428.183.41-.235-.153-.02.18-.145.043-.056-.06-.102-.142-.122-.06l-.07.06c-.278-.14-.153.23-.26.023-.048-.094-.068-.134-.063-.048.01.188-.14-.094-.188.01-.028.06-.07.117-.132.046l-.175.015-.193.04c-.12-.152-.094.107-.213.028-.223-.15-.085.074-.196.028l-.16.005-.17-.03c-.082.018.268-.083.005-.122-.032-.005-.053-.152-.06-.198l.112-.07-.077-.062c-.005-.02.172-.11.047-.136-.08-.015-.132-.312-.1-.345l.063-.09c-.05-.018-.104-.132-.03-.183l.096-.163c.184.238.142-.25.185-.013.013.07.09.152.066.05s.034-.132.03-.138-.36.084-.38.137c-.025.066-.055.256-.032.312s.008.335.01.42c.003.108.01.586.05.608l.24.014.192.006.24-.034.23-.016.317-.02.257-.018.205-.01c.096-.001.33.022.376-.008s.11-.087.097-.128c-.093-.297-.252-.835-.188-1.142.057-.273-.204-.208-.35-.213l-.16.025-.155-.013-.206.013c-.083-.036-.313-.015-.41.003l-.267.047z" fill="url(#U)"/><path d="M7.306 27.56c.017.095-.095.136-.17.1l-.005-.042c.048.02.143.016.13-.055l-.14-.077c-.107-.077.042-.205.123-.148l-.004.037c-.072-.028-.144.02-.1.068s.148.018.164.11zm.236.054l-.155.018-.05-.314.043-.006.04.28.117-.016.005.037zm.167-.013c-.204.018-.22-.32-.023-.337s.22.32.023.337zm-.022-.3c-.133.012-.124.275.02.262.136-.012.12-.274-.02-.262zm.49.255l-.053.012L8 27.356l-.032-.06v.273h-.04v-.303l.075.008.132.242v-.26h.04v.303zm.342-.146c-.003.155-.184.212-.25.16-.013-.01-.002-.315.006-.32a.18.18 0 0 1 .244.16zm-.046.001c.002-.116-.066-.126-.16-.128l-.004.255c.102.002.163-.005.165-.128zm.235.18c-.2-.003-.187-.34.013-.338s.186.34-.013.338zm.01-.3c-.136-.002-.147.26-.006.263s.146-.26.006-.263z" fill-rule="nonzero"/><path d="M7.018 28.445l2.286-.2s-2.067.05-2.286.2z" fill="#402115"/><path d="M6.203 28.055c.54-.828 3.105-.422 2.902-.303l-2.42.308s-.013.168.02.2c.097.067 3.043-.537 3.115-.358l.124-.003c-.115-.463-.474-.134-.622-.195-.03-.013.066-.205-.614-.29-.674-.083-2.265-.113-2.716.475-.058.076.046.145.21.175z" fill="#47211a"/><path d="M6.09 27.946c1.082-.947 3.153-.288 3.198-.3.013-.006-.01-.077-.12-.12-.68-.263-2.105-.21-2.778.113-.253.122-.42.258-.3.316z" fill="#c18869"/><path d="M6.835 28.116l2.902-.408c-.216-.01-2.55.273-2.88.34l-.022.067z" fill="url(#T)"/><path d="M9.368 28.398l.185-.11c-.094-.265-.066-.537-.336-.3 0 0 .136.314.15.42zm.05-.76s-.157-.05-.185-.102-.11-1.193-.058-1.218c.277-.138.248 1.17.244 1.32zm-2.616.988c.138-.072.144-.258.11-.39 0 0-.142-.008-.153-.092s.083-.123.094-.18l-.006-.26-.126.063-.037.395c-.037.05-.2.283-.166.313l.285.154z" fill="#0c0605"/><path d="M6.836 27.497c.068-.27.194-.874-.055-1.07.182.366.053.712-.06 1.076l.114-.004z" fill="#0c0402"/><path d="M6.106 28.453c.34-.043.18-.43.112-.45-.08-.025-.11.03-.11.03.043.005.203.253.006.352l-.01.07z" fill="#442612"/><path d="M5.97 28.448s.234-.08.256-.17c.065-.254-.546-.4-.256.17z" fill="#905d36"/><path d="M6.106 28.65s.048-.093-.014-.144c-.102-.084-.196-.223-.097-.345.05-.064-.064-.2-.102-.13-.1.176.064.496.213.62z" fill="#a07a65"/><path d="M5.956 27.877c-.055.103.064.362.135.287.036-.038-.006-.112-.04-.125s-.068.017-.095-.162z" fill="#e4b99d"/><path d="M5.95 27.408c.024.14.482-.41.46-.525-.013-.064-.135-.163-.23-.16-.217.006-.256.518-.228.685z" fill="#785743"/><path d="M6.048 27.355c.025.022.483-.275.452-.462l-.452.462z" fill="#541a05"/><path d="M6.12 26.832c-.157.206.033.285.22.238 0 0 .043-.1-.008-.123-.066-.043-.103-.15-.21-.114z" fill="#94623e"/><path d="M6.18 26.723c-.104.048.065.144.1.185l-.1-.185z" fill="#ffe8d2"/><path d="M6.332 26.946c.19.046.03-.16-.127-.222l.127.222z" fill="#d3ad91"/><path d="M6.02 27c-.008.013-.015.172.033.246.15.228-.024-.228-.033-.246z" fill="#a27657"/><path d="M5.882 26.833c-.055.25-.1 1.276-.146 1.336-.08.102-.633-.577.146-1.336z" fill="#412929"/><path d="M5.527 29.828c.093-.137.264-.385.164-.553l-.164.553z" fill="#b86438"/><path d="M5.83 29.3c.01.75.206.26.156-.035l-.07-.035-.086.07z" fill="#8f7871"/><path d="M5.916 29.24s-.085.15-.086.292c-.002.198.237.128.086-.292z" fill="#41302a"/><path d="M6.74 28.858l-.56.42c-.24-.07.072-.473.152-.566 0 0 .404.067.41.147z" fill="#5d2812"/><path d="M6.215 29.178a.88.88 0 0 1 .365-.411l.144.064-.424.352c-.053.08-.085-.005-.085-.005z" fill="#3c2d33"/><path d="M6.464 28.536l.18-.228.16.317z" fill="#3f2d2e"/><path d="M5.598 28.3c-.25-.493-.224-.82.103-1.26-.09.34-.047 1.25-.047 1.25l-.056.01z" fill="#a59399"/><path d="M6.667 26.552s-.044-.17-.142-.202c-.237-.074-.52.12-.52.358 0 .04.287-.452.66-.156z" fill="#cf763c"/><path d="M9.493 26.652l.18.64c-.008.056.084-.515.033-.52s-.213-.12-.213-.12z" fill="#562e1d"/><path d="M9.82 26.64c.035 0 .09.345.09.345s-.165-.17-.22-.176c-.127-.01.08-.17.13-.17z" fill="#946847"/><path d="M6.958 26.877c.885-.413.718-.513 1.832-.188l-1.832.188z" fill="url(#h)"/><path d="M9.617 28.25c0 .015.172.023.192-.01.053-.082-.103-.26-.01-.37l.124-.047c.004-.005-.306-.3-.306.425z" fill="#341b12"/><path d="M7.38 30.385l.085.34.076.017-.113-.39zm-.15-.732l.068.407.084-.026-.105-.376zm-1.088-.27c.297-.05.383-.36.597-.41s.315.385.426.34c-.086-.157-.24-.493-.447-.398-.078.036-.448.368-.576.467z" fill="#e99457"/><path d="M5.326 32.096s.198-.34.267-.353.43.43.533.497c.115.075 1.102-.787 1.24-.94.084-.09.084-.25.114-.274l.056-.025c.075.36-1.007 1.22-1.287 1.348-.316.143-.37-.512-.622-.55-.1-.014-.302.297-.302.297z" fill="url(#C)"/><path d="M9.63 28.472l.01.63.08-.017c-.02-.217-.05-.456-.01-.67l-.078.058zm-.152-.797l-.046.008.004-1c.103.28.052.684.042.99z" fill="#a35534"/><path d="M9.72 30.837a1.4 1.4 0 0 0 .178.305c.086.094.378.213.378.213s-.376-.226-.424-.338l-.09-.2-.043.01zm-.08-.7l.038.343c.005.025.117-.043.08-.07-.093-.066-.015-.203-.015-.28l-.104.005zm-.064-.736s-.07.104-.023.173.028.172.028.188l.1.013c-.068-.14-.078-.22-.104-.373z" fill="#ba602b"/><path d="M7.47 31.767c.864-.458 1.61-.573 2.514-.146 0 0-.65-.427-.66-.497-.026-.2-2.217.375-1.854.643z" fill="#d16a24"/><path d="M7.064 28.63c.082-.052.803-.074.98-.08l-.4.254-.58-.173z" fill="#6a3826"/><path d="M8.04 28.895c-.006.028.286.032.286.032l.773-.362c-.276-.15-.856.246-.987.223-.153-.027-.07.107-.07.107z" fill="#4c2415"/><path d="M10.168 27.362l.058.685.097.523c-.023.152-.18.587-.223.965s.082.98.115 1.14a8.79 8.79 0 0 0 .481 1.236l.152.283s.265.016 1.39.158 1.787.274 2.675.518.66.39 1.75.528 2.558.04 3.523-.188l1.787-.518.28-.168s-.056-.73-.24-1-.827-.35-1.645-.386-1.61 0-2.462-.548-3.472-4.64-3.472-4.64-.985.07-1.25.284-.548 1.117-.924 1.3-2.096-.193-2.096-.193z" fill="url(#j)"/><path d="M11.143 32.646s1.603.1 2.497.364c2.912.86 4.478 1.308 7.518.472 1.07-.294 1.223-.42 1.3-.508s.05-.24.05-.24-.3.365-1.523.65c-3.49.818-9.947-.848-9.923-.82l.07.082z" fill="url(#E)"/><path d="M11.072 32.563c1.342.1 2.943.258 4.185.8 1.27.556 3.263.533 4.602.28.293-.056 2.676-.532 2.668-.894-.001-.06-.18-.116-.196-.127s-2.695.96-2.974 1.01c-1.4.252-2.937.065-4.256-.43-.868-.325-1.33-.386-1.914-.487l-2.213-.275.042.06.056.062z" fill="url(#M)"/><path d="M10.917 32.346c2.58.19 4.135 1 6.35 1.273 1.236.152 5.022-.996 5.046-1 .04.01.046.145.03.2-.18.536-4.492.947-5.28.862-.84-.09-2.426-.64-2.426-.64s-1.07-.3-1.927-.4-1.704-.144-1.704-.144l-.053-.08-.015-.025-.02-.035z" fill="url(#O)"/><path d="M10.86 32.243c.9.044 2.095.132 2.95.39l2.554.72c.754.118 1.99.234 2.814.08.807-.15 2.495-.52 3.08-.91 0 0 .117.092.074.163-.232.382-3.638 1-4.18.967-.757-.03-1.005.005-2.117-.262l-2.642-.742c-.607-.1-2.473-.305-2.473-.305l-.057-.104z" fill="url(#L)"/><path d="M10.825 32.15c-.02.006 2.157.15 3.014.397 3.272.947 5.144 1.346 8.416-.024 0 0-.106.148-.617.318-2.5.835-4.922.923-7.44-.073-.8-.32-2.44-.485-3.337-.527l-.035-.092z" fill="url(#P)"/><path d="M12.864 32.356s.46-.68.997-.994 2.193-.132 2.518-.07.508.096.538.01-.386-.26-.254-.244.3.162.376.076l.39-.756c.04-.03-.033.228-.056.28l.06.17-.137-.084c-.064.012-.09.066-.02.14l.02.06c-.07-.06-.097-.127-.09-.018s.152.198.104.188l-.155-.084c-.03.033-.054.03.008.178s.03.122-.025.07-.2-.178-.11-.025l.06.152c-.056-.06-.135-.175-.107-.053s.076.198-.01.12-.124-.145-.16-.018-.096.216-.104.084-.048-.206-.064-.11-.063.15-.06.048-.09-.175-.112-.124-.025.2-.053.104c-.097-.333-.112.214-.152.025-.025-.12-.048-.284-.08-.17s-.07.264-.094.147l-.043-.16c-.046.08-.117.2-.117.084s-.074-.173-.086-.06c-.04.345-.105-.265-.132-.01v.13c-.012.008-.082-.3-.16-.185l-.08.142-.063-.175-.056.173-.046-.165-.058.09c-.034.15-.08-.233-.147-.09-.02.043-.07.096-.084.053s-.035-.107-.07-.058c-.152.207-.08-.138-.147-.005-.023.046-.013.114-.084.06l-.094-.04-.127-.003c-.046.07-.013.168-.08.102s-.114-.124-.114-.043c0 .286-.133-.13-.137.01-.003.1.013.168-.046.11s-.1-.104-.112-.053c-.073.29-.035-.063-.11.033l-.015.14-.142.003.01.127-.114-.04c-.13.355-.06-.124-.11.063l-.04.06-.086.035.036.142c-.06-.028-.132-.147-.114-.04.06.354-.19.013-.1.152.04.06.038.127-.01.064s-.122-.07-.066.008c.2.286-.19-.08-.086.09.046.076.086.14.005.09s-.066.017-.07.053.1.078.11.018.033-.094.084-.064.09-.005.086-.06.132-.14.155-.162l.08-.064.053-.09.122-.037.035-.077.084-.03c.002-.005-.008-.23.08-.21l.04.08.06-.094.056.025.07-.064.066.05.117-.092c.086-.08.083-.05.09-.01s.033.076.08-.003.074-.12.08-.05.05.094.086.008.06-.165.076-.07.05.223.07.104.056-.185.056-.084.1.137.16.104.148-.175.173-.114l.018.128.093-.072c-.01.08.07.1.193.106l.185-.07-.014.094.15-.076.03.104.11-.06.064.056c.048-.035.123-.076.112-.013l.06.058.14-.005.09-.048.056.076.096-.053c.04.025-.07.043.066.09s.185-.018.195-.06l.07.08c.04.063.08-.048.13-.107l.132-.142.086-.175-.028-.124.128-.006.006-.108.063-.112c.033-.05.09-.145.086-.226l.053-.117c.138-.304-.268 1.13-.62 1.153-.423.027-1.353-.214-1.87-.234-.464-.018-.72.023-.914.124s-.162.035-.383.24l-.56.634s-.316-.05-.333-.133z" fill="url(#G)"/><path d="M13.286 32.422s.3-.54.87-.754 1.29-.137 1.62-.05 1.076.234 1.188.203c.23-.062.725-.836.604-1.234-.107.27-.427 1.23-.797 1.152-.07-.015-1.28-.264-1.843-.274s-.797.086-1.08.284-.56.672-.56.672z" fill="#9c4511"/><path d="M10.328 30.626c.294-.475 1.005-.947 1.06-1.173.1-.404-.216-.698-.62-.64.266-.42 1.53-.31 2.06-.38.426-.056.528-.168.61-.345s.05-.26-.025-.127-.015.365-.76.376-1.345-.046-1.665.147-.436.183-.436.294.107.117.33.142c.532.06.618.43.188.772-.415.33-.57.6-.878.867 0 0 .08.112.137.067z" fill="url(#F)"/><path d="M10.38 30.174c.3-.36 1.002-.67.827-1.036-.001.548-.573.468-.827 1.036z" fill="#772b08"/><path d="M10.276 29.992s.193-.287.272-.302.2.11.26-.034c.14-.3-.543-.175-.532.336zm-.127-.31l.43-.533c-.358 0-.468.174-.43.533z" fill="#b75118"/><path d="M10.902 29.2s-.084.084-.064.175c.07.312.47-.282.064-.175z" fill="#291008"/><path d="M10.568 28.652s.124-.16.244-.24.307-.147.307-.147-.043-.086-.24.023-.355.254-.312.363z" fill="#440e03"/><path d="M10.17 27.395s.024.112.123.232.48.376.48.376l-.602-.607z" fill="#bc6337"/><path d="M10.217 27.27s.035-.39.25-.513.325-.04.64-.244.41-.218.685-.203.496.242.802.3.468-.215.468-.215.213.32.28.773.123.76-.254.965-1.998.1-1.998.1-.317-.252-.495-.47-.393-.293-.376-.503z" fill="#170606"/><path d="M10.725 27.73s.01-.234-.142-.34c-.404-.282.414-.944.426-.502.014.498.344.317.98.594.322.14.9.743 1.173.528.127-.096.005-.234-.102-.426-.4-.725.065-.896.015-1.07-.025-.086-.8.312-.878.36-.157.086-.32.162-.563-.046s-.28-.32-.43-.32c-.143 0-.753.246-.86.375-.103.123-.124.422-.124.422s.304.387.508.427z" fill="url(#Y)"/><path d="M11.877 27.28s.02.09.193.06.07.086.305.05.38-.36.36-.528-.4.274-.604.325-.254.09-.254.09zm-.827-.518c.03 0 .27.355.497.376s-.264-.492-.34-.533-.145.165-.157.157z" fill="#9a8483"/><path d="M11.248 26.56l.434.358c.08.094.127.02.11.012s-.433-.362-.545-.37zm.728.495l.155-.127c.02.008-.028.13-.155.127z" fill="#d0bdc3"/><path d="M11.193 26.458s.585.472.692.5c.158.04.574-.267.757-.325-.466-.22-.965-.51-1.448-.174z" fill="url(#Z)"/><path d="M13.33 26.166c.318-.082 1-.26 1.2.12.1.208.327.215.508.335l.348-.26c-.14-.224-.428-.94-.663-.883-.146.035-.934.305-1.383.687z" fill="url(#W)"/><path d="M13.55 26.415c-.02 0-.178.046-.2.193s.084.25.127.287-.08.137-.02.294.327.15.424.038l.104-.185c.08-.058.338-.056.365-.307.052-.466-.49-.137-.543-.178-.08-.058-.084-.147-.267-.142z" fill="#753c1e"/><path d="M13.432 26.66s.002-.12.137-.165.27.127.27.127.09-.104.254-.094.198.132.175.21-.145.188-.244.21-.09.137-.18.234-.272.112-.32-.07.09-.26.09-.26-.2-.044-.183-.195z" fill="#70503e"/><path d="M13.523 26.558c.077.01.164.163.07.2-.124.036-.203-.07-.07-.2z" fill="#c68e5e"/><path d="M13.896 26.695c-.127.47.5.013.326-.02-.042-.008-.15.155-.217.13l-.11-.1z" fill="#93684b"/><path d="M13.97 26.634s.086-.08.118-.02c.102.183-.11.16-.118.02z" fill="#50311f"/><path d="M13.755 26.884s-.143-.018-.18.087-.004.202.034.23c.168.123.01-.187.013-.193l.133-.124z" fill="#deb391"/><path d="M13.693 27.028c.172-.09.152.116.105.13l-.09.063-.017-.194z" fill="#875935"/><path d="M13.182 26.628c-.172-.267.983-.92 1.447.184 0 0-.158-.3-.096-.36.292-.293-1.17-.497-1.453-.085-.033.048.103.26.103.26z" fill="#a84c1e"/><path d="M13.388 29.073c-.152.303.246.62.525.34.205-.205-.306-.778-.525-.34z" fill="#974010"/><path d="M13.67 29.464c.187.018.357-.315.08-.457-.26-.132-.49.416-.08.457z" fill="#83614c"/><path d="M13.505 29.275c.083.187.436-.014.236-.185-.078-.067-.313.013-.236.185z" fill="#050505"/><path d="M14.084 27.646s-.08-.155-.226-.145c-.52.036-.062.548-.064.558-.02.173-.023.506.292.358.135-.064.104-.24.18-.267.15-.05.38-.082.4-.274.044-.39-.472-.346-.584-.23z" fill="#a54a1a"/><path d="M13.738 27.74c0 .102.145.228.16.264s-.064.12-.04.244c.03.16.328.238.376-.145.003-.02.25-.073.343-.175.18-.194-.084-.403-.315-.272-.076.043-.15.097-.234.015-.113-.1-.29-.12-.29.07z" fill="#ae7c58"/><path d="M13.742 27.77s.092.144.18.162.095-.232.138-.235l.15.022c.037.022.387-.086.325.107-.023.07-.135.107-.22.13-.102.027-.06.358-.115.282-.03-.04-.068-.1-.116-.08l-.076.122c-.053.04-.236.013-.15-.033s.145-.094.11-.127c-.043-.04-.29-.333-.272-.383l.047.033z" fill="#5d3e2b"/><path d="M13.873 27.68c-.01-.013-.107.033-.056.112s.145.114.137.023.01-.14-.08-.135z" fill="#7a4a26"/><path d="M14.022 27.9s.003.13.076.157.127-.008.122-.104.038-.163.094-.145l.08.076c.084-.03.096-.106.035-.127s-.163.077-.223.015-.103-.113-.144-.076-.04.203-.04.203z" fill="#543424"/><path d="M14.53 28.158s-.572.424-.635.634.147.38.335.406c.296.04.894-.692 1.117-.59.132.06.38.27.38.27l.208-.137s-.37-.29-.533-.345c-.283-.098-.982.656-1.107.604-.06-.025-.157-.173-.102-.218l.716-.604s-.35-.07-.38-.02z" fill="#b45a28"/><path d="M14.154 28.815c-.03.07.09.177.192.184s.874-.605.874-.605-.15-.223-.23-.244c-.14-.035-.816.622-.835.665z" fill="#201112"/><path d="M14.717 26.617l.386 1.33c.086.07.65-.254.66-.33.03-.234-.374-1.43-.675-1.117-.095.1-.37.117-.37.117z" fill="#eb9f29"/><path d="M15.047 27.998c.33.435 1.05.86 1.492 1.25a7.09 7.09 0 0 1 .745.737L16.2 28.57c-.23-.26-.428-.818-.46-.854s-.315.264-.696.284z" fill="#a86e57"/><path d="M14.288 27.643s-.066-.207.158-.47.834-.803.94-.85.137.023.155.096c.014.057-.773.626-.92.848-.117.178-.14.36-.14.36l-.193.017z" fill="#bf794e"/><path d="M14.354 27.63c.01-.478 1.086-1.384 1.14-1.345.025.018-.028.07-.094.127-.308.273-.836.697-.965 1.084l-.002.13-.08.005z" fill="#784a49"/><path d="M15.102 26.804s.734.588.764.256c.008-.084-.333-.07-.46-.165s-.208-.216-.208-.216l-.096.124z" fill="#834930"/><path d="M15.211 26.799s.145.165.317.244c.173.079.335.066.338.018l-.32-.061-.335-.201z" fill="#a66549"/><path d="M16.17 30.146c.204-.358.36-.397.655-.625l-.4-.382s-.31.377-.438.444-.4.178-.315.457.426.294.508.107zm-.802-1.127s-.315-.025-.472.208-.03.392.24.426c.155.02.74-.484 1.096-.62l-.353-.328s-.327.344-.51.313zm1.007 1.465c-.09.152.104.447.322.457.246.01.578-.536.81-.704l-.256-.234c-.188.148-.843.422-.877.48z" fill="#9e5029"/><path d="M15.556 26.446l-.12.155a1.01 1.01 0 0 0 .162.343l.13.01c-.08-.14-.21-.34-.173-.508z" fill="#3f1a0f"/><path d="M14.71 26.557s.055.16.097.185.192-.11.192-.11l-.288-.076z" fill="#130404"/><path d="M15.066 26.85c.117.18.477.454.67.26-.17-.044-.54-.182-.636-.326l-.034.065z" fill="#4c281e"/><path d="M14.805 27.123s.165.333.216.36-.023-.124-.035-.168c-.004-.012.258-.23.053-.297l-.104.04.056.048c.12.04.04.192-.07.07l.005-.074c-.018-.01.026-.06-.122.018zm.396-.04l.124.198c.05.1.086.07.13.06.003-.001-.157-.236-.254-.26z" fill="#3d2612"/><path d="M15.45 27.116s.043.22.09.223.043-.048.013-.097-.02-.118.027-.092.134.32.175.38c.072.106-.024-.375-.134-.404l-.173-.01z" fill="#7c4b33"/><path d="M15.795 28.31c.173.07-.058.152-.02.234l.132.24c-.015.03-.5.305-.645.38s-.208.132-.135.213.145.08.287.003.63-.484.7-.488.39.325.39.325l-.64.57c-.063.066-.013.18.084.208.07.02.567-.55.697-.653l.585.525c.117.1.09.1 0 .153s-.56.452-.607.515-.048.17.107.152.604-.508.734-.553l.368-.076c.223-.116-.274-.18-.28-.183-.07-.04-.346-.463-.346-.463.15-.154.03-.25-.127-.172-.025.013-.41-.5-.41-.5.004-.172-.152-.143-.193-.195-.025-.033-.066-.208-.142-.236-.18-.066-.332-.526-.475-.612-.137-.082-.547.447-1.297.206l-.17.128c.003.097 1.243.206 1.404.272z" fill="#b8724b"/><path d="M14.487 28.035l1.355.246c.04.023-.114.153-.15.206-.072.108.26-.09.292-.09.1 0 .37.436.414.407.14-.087-.09-.506-.104-.506l-.038.08-.178-.12c-.098-.036-.2.015-.094.038s.24.07.26.137.036.104-.06.025l-.203-.11-.15-.135c-.124-.064-1.218-.196-1.27-.23l-.076.046zm.703-.104a1.68 1.68 0 0 0 .642.114l.16-.056c.167.266-.687.06-.802-.07l-.001.013z" fill="#5a342b"/><path d="M15.73 28.508s.144-.18.236-.105.35.388.433.402.09-.17.056-.214l-.132-.24-.072.155c-.07.004-.175-.2-.316-.197s-.217.103-.206.2zm.49.415c-.017.02.428.447.446.218.008-.1-.354-.254-.446-.218zm.36-.07c.05.1.357.664.485.52.076-.085-.33-.527-.38-.533l-.104.013zm.11.548l.543.488c.112.104.1.056.168.028s.12-.065.087-.107-.185-.24-.24-.277-.086.02.01.122.145.21.04.11l-.36-.312c-.096-.084-.25-.05-.25-.05zm.77.73a1.08 1.08 0 0 0 .288.346c.2.143.27.14.27.14s.025-.112-.124-.325-.112-.21-.195-.234-.237.074-.237.074z" fill="#110608"/><path d="M15.332 29.463s.32-.31.497-.414.185-.112.317-.117.302.034.382.084.138.097.118.01-.13-.18-.41-.183-.363.086-.564.216-.37.305-.41.353.07.05.07.05z" fill="#ac633a"/><path d="M15.928 29.953s.056-.152.162-.226-.1.282-.162.226zm.26-.164c.12-.13.41-.527.588-.505.088.01.32.216.387.276s.1.193.015.095-.234-.25-.385-.283c-.304-.068-.55.523-.606.417z" fill="#884a2f"/><path d="M16.662 30.644s.2-.147.152-.183-.24.185-.152.183zm.118.023s.183-.234.288-.323.246-.188.305-.218.12-.137.162-.094.048.073-.052.137-.182.06-.38.25-.276.275-.323.247z" fill="#9e5029"/><path d="M17.968 30.604c.023-.107-.196-.44-.268-.547 0 0 .444.442.268.547zm-.773-1.13c.004.024.315.39.315.39l.07.02-.336-.416-.05.006zm-.538-.668l.437.502-.036-.086-.364-.442-.037.025zm-.35-.5s.154.316.195.328-.195-.328-.195-.328z" fill="#7e3818"/><path d="M15.262 29.16c-.097-.126-.493.046-.28.35.175.25.528-.025.452-.107-.02-.02-.488.23-.41-.07.023-.09.033-.13.24-.175z" fill="#755748"/><path d="M15.098 29.265c.02.013.26.262.135.246-.34-.042-.196-.302-.135-.246z" fill="#130504"/><path d="M15.95 29.75c-.208-.054-.386.292-.117.452.203.12.478-.2.322-.33-.02-.018-.363.412-.363.1 0-.09.157-.22.157-.22z" fill="#755748"/><path d="M17.694 30.43c.045.576-.1.82-.52 1.183.25.055 6.234.606 4.568-.267-.284-.265-2.442-.11-3.16-.42-.424-.182-.888-.498-.888-.498z" fill="url(#n)"/><path d="M15.91 29.857c-.055.14.19.124.15.197-.108.203-.47-.23-.15-.197z" fill="#130504"/><path d="M16.758 30.4c-.292-.064-.48.284-.24.42.366.207.472-.206.4-.223-.02-.005-.13.15-.23.15s-.17-.07-.142-.155.213-.19.213-.19z" fill="#755748"/><path d="M16.663 30.537c-.167.14.16.134.16.162s-.13.085-.193.057c-.307-.138.045-.357.034-.22z" fill="#130504"/><path d="M10.41 26.797l.267-.028c.124-.028.203-.142.203-.142-.17.035-.33.066-.47.17z" fill="#bbabb3"/></svg>