<svg xmlns="http://www.w3.org/2000/svg" xmlns:xlink="http://www.w3.org/1999/xlink" width="163.839" height="163.839" viewBox="0 0 43.349 43.349" shape-rendering="geometricPrecision" image-rendering="optimizeQuality" fill-rule="evenodd" xmlns:v="https://vecta.io/nano"><defs><linearGradient id="A" x1="36.934" y1="28.229" x2="36.628" y2="29.661" xlink:href="#Af"><stop offset="0" stop-color="#72533c"/><stop offset=".059" stop-color="#775841"/><stop offset=".11" stop-color="#644b3c"/><stop offset=".169" stop-color="#846247"/><stop offset=".22" stop-color="#6f533f"/><stop offset=".29" stop-color="#83644b"/><stop offset=".361" stop-color="#644d3d"/><stop offset=".451" stop-color="#7d604a"/><stop offset=".541" stop-color="#624a3a"/><stop offset=".639" stop-color="#5c4539"/><stop offset=".729" stop-color="#765941"/><stop offset=".831" stop-color="#5d4639"/><stop offset=".949" stop-color="#75563d"/><stop offset="1" stop-color="#846347"/></linearGradient><linearGradient id="B" xlink:href="#A" x1="16.55" y1="30.897" x2="16.191" y2="32.577"/><linearGradient id="C" x1="35.384" y1="28.649" x2="36.633" y2="29.148" xlink:href="#Af"><stop offset="0" stop-color="#543b28"/><stop offset=".49" stop-color="#5f4735"/><stop offset="1" stop-color="#392617"/></linearGradient><linearGradient id="D" x1="16.658" y1="31.674" x2="23.682" y2="34.323" xlink:href="#Af"><stop offset="0" stop-color="#5c422f"/><stop offset="1" stop-color="#674e3a"/></linearGradient><linearGradient id="E" x1="9.809" y1="27.11" x2="13.038" y2="27.11" xlink:href="#Af"><stop offset="0" stop-color="#b35c2e"/><stop offset=".212" stop-color="#be703e"/><stop offset=".38" stop-color="#a1542f"/><stop offset=".549" stop-color="#cd7a42"/><stop offset=".729" stop-color="#ac6436"/><stop offset=".871" stop-color="#bd6b3c"/><stop offset="1" stop-color="#ca743d"/></linearGradient><linearGradient id="F" x1="10.714" y1="9.883" x2="35.907" y2="9.883" xlink:href="#Af"><stop offset="0" stop-color="#474f63"/><stop offset="1" stop-color="#424a5f"/></linearGradient><linearGradient id="G" x1="18.524" y1="27.585" x2="18.83" y2="27.585" xlink:href="#Af"><stop offset="0" stop-color="#6c503a"/><stop offset="1" stop-color="#624630"/></linearGradient><linearGradient id="H" x1="18.144" y1="27.322" x2="18.526" y2="27.322" xlink:href="#Af"><stop offset="0" stop-color="#745843"/><stop offset=".471" stop-color="#534033"/><stop offset="1" stop-color="#89684c"/></linearGradient><linearGradient id="I" x1="20.821" y1="27.189" x2="21.131" y2="27.189" xlink:href="#Af"><stop offset="0" stop-color="#745843"/><stop offset=".471" stop-color="#7a5e49"/><stop offset="1" stop-color="#89684c"/></linearGradient><linearGradient id="J" xlink:href="#I" x1="22.923" y1="26.647" x2="23.197" y2="26.647"/><linearGradient id="K" x1="24.325" y1="26.842" x2="24.325" y2="10.35" xlink:href="#Af"><stop offset="0" stop-color="#7d5f47"/><stop offset=".188" stop-color="#6f5747"/><stop offset=".388" stop-color="#785d49"/><stop offset=".6" stop-color="#7c5f47"/><stop offset=".729" stop-color="#503b2d"/><stop offset="1" stop-color="#4b392a"/></linearGradient><linearGradient id="L" xlink:href="#A" x1="13.101" y1="29.162" x2="12.775" y2="30.452"/><linearGradient id="M" xlink:href="#A" x1="6.819" y1="27.287" x2="6.493" y2="28.577"/><linearGradient id="N" xlink:href="#A" x1="23.927" y1="25.228" x2="23.649" y2="26.328"/><linearGradient id="O" xlink:href="#C" x1="22.609" y1="25.563" x2="23.67" y2="25.922"/><linearGradient id="P" xlink:href="#D" x1="6.866" y1="27.956" x2="12.824" y2="29.854"/><linearGradient id="Q" x1="19.899" y1="25.158" x2="23.067" y2="20.61" xlink:href="#Af"><stop offset="0" stop-color="#344660"/><stop offset=".239" stop-color="#354e69"/><stop offset=".549" stop-color="#334359"/><stop offset=".761" stop-color="#334c67"/><stop offset="1" stop-color="#32455d"/></linearGradient><linearGradient id="R" xlink:href="#Q" x1="32.312" y1="28.23" x2="35.885" y2="22.156"/><linearGradient id="S" x1="37.56" y1="28.278" x2="36.872" y2="29.773" xlink:href="#Af"><stop offset="0" stop-color="#7c5f4b"/><stop offset=".251" stop-color="#6b5241"/><stop offset=".388" stop-color="#8b6a4f"/><stop offset=".522" stop-color="#685143"/><stop offset=".702" stop-color="#8f6e54"/><stop offset=".851" stop-color="#715848"/><stop offset="1" stop-color="#89684f"/></linearGradient><linearGradient id="T" x1="27.67" y1="33.91" x2="28.536" y2="32.611" xlink:href="#Af"><stop offset="0" stop-color="#605c5c"/><stop offset="1" stop-color="#b4a8a5"/></linearGradient><linearGradient id="U" xlink:href="#Q" x1="31.297" y1="28.01" x2="34.891" y2="21.901"/><linearGradient id="V" xlink:href="#Q" x1="16.569" y1="24.465" x2="19.627" y2="20.075"/><linearGradient id="W" xlink:href="#Q" x1="15.326" y1="24.269" x2="18.375" y2="19.892"/><linearGradient id="X" xlink:href="#Q" x1="17.79" y1="24.732" x2="20.918" y2="20.24"/><linearGradient id="Y" xlink:href="#Q" x1="19.116" y1="24.965" x2="22.27" y2="20.436"/><linearGradient id="Z" xlink:href="#Q" x1="26.817" y1="27.04" x2="30.214" y2="21.264"/><linearGradient id="a" xlink:href="#Q" x1="29.755" y1="27.642" x2="33.242" y2="21.713"/><linearGradient id="b" xlink:href="#Q" x1="28.301" y1="27.293" x2="31.707" y2="21.502"/><linearGradient id="c" xlink:href="#S" x1="24.457" y1="25.282" x2="23.849" y2="26.399"/><linearGradient id="d" x1="23.383" y1="7.463" x2="24.051" y2="6.863" xlink:href="#Af"><stop offset="0" stop-color="#3c2e25"/><stop offset="1" stop-color="#917159"/></linearGradient><linearGradient id="e" xlink:href="#A" x1="16.295" y1="31.223" x2="17.072" y2="32.344"/><linearGradient id="f" xlink:href="#A" x1="6.58" y1="27.555" x2="7.257" y2="28.38"/><linearGradient id="g" x1="27.107" y1="33.461" x2="30.559" y2="32.04" xlink:href="#Af"><stop offset="0" stop-color="#004d6b"/><stop offset=".502" stop-color="#0093c9"/><stop offset="1" stop-color="#008ec0"/></linearGradient><linearGradient id="h" x1="22.146" y1="29.17" x2="21.989" y2="20.619" xlink:href="#Af"><stop offset="0" stop-color="#6399f0"/><stop offset=".078" stop-color="#5188e0"/><stop offset=".212" stop-color="#9ab7e6"/><stop offset=".31" stop-color="#7099db"/><stop offset=".42" stop-color="#a1bbe6"/><stop offset=".502" stop-color="#5a85cc"/><stop offset=".639" stop-color="#83a9e6"/><stop offset=".749" stop-color="#2f5ba1"/><stop offset=".878" stop-color="#81aaeb"/><stop offset="1" stop-color="#4181e8"/></linearGradient><linearGradient id="i" x1="22.922" y1="26.96" x2="22.555" y2="26.98" xlink:href="#Af"><stop offset="0" stop-color="#644e3d"/><stop offset=".471" stop-color="#534033"/><stop offset="1" stop-color="#6e5441"/></linearGradient><linearGradient id="j" x1="16.132" y1="25.505" x2="21.638" y2="19.557" xlink:href="#Af"><stop offset="0" stop-color="#fffff2"/><stop offset=".239" stop-color="#fcf3e5"/><stop offset=".529" stop-color="#fffaeb"/><stop offset="1" stop-color="#f3ebde"/></linearGradient><linearGradient id="k" xlink:href="#j" x1="27.884" y1="28.679" x2="34.084" y2="20.749"/><linearGradient id="l" xlink:href="#H" x1="20.829" y1="27.267" x2="20.405" y2="27.289"/><linearGradient id="m" xlink:href="#A" x1="23.757" y1="25.311" x2="24.284" y2="26.161"/><linearGradient id="n" xlink:href="#A" x1="36.766" y1="28.329" x2="37.35" y2="29.445"/><linearGradient id="o" xlink:href="#A" x1="12.935" y1="29.303" x2="13.528" y2="30.259"/><linearGradient id="p" xlink:href="#A" x1="23.879" y1="33.511" x2="24.531" y2="34.757"/><linearGradient id="q" x1="26.6" y1="26.594" x2="23.735" y2="31.942" xlink:href="#Af"><stop offset="0" stop-color="#2b3c53"/><stop offset=".129" stop-color="#2f3d52"/><stop offset=".278" stop-color="#33465f"/><stop offset=".541" stop-color="#2d3c51"/><stop offset=".769" stop-color="#2d3e55"/><stop offset="1" stop-color="#2d3c52"/></linearGradient><linearGradient id="r" xlink:href="#q" x1="28.483" y1="27.046" x2="25.604" y2="32.421"/><linearGradient id="s" xlink:href="#q" x1="29.573" y1="27.632" x2="26.951" y2="32.527"/><linearGradient id="t" xlink:href="#S" x1="19.39" y1="33.749" x2="20.842" y2="29.501"/><linearGradient id="u" xlink:href="#q" x1="24.912" y1="26.297" x2="22.194" y2="31.37"/><linearGradient id="v" xlink:href="#q" x1="23.23" y1="25.913" x2="20.554" y2="30.908"/><linearGradient id="w" xlink:href="#S" x1="9.143" y1="29.47" x2="10.457" y2="26.222"/><linearGradient id="x" x1="20.525" y1="26.361" x2="20.828" y2="24.633" xlink:href="#Af"><stop offset="0" stop-color="#715542"/><stop offset=".2" stop-color="#5f4839"/><stop offset=".4" stop-color="#7a5a3f"/><stop offset=".612" stop-color="#614938"/><stop offset=".859" stop-color="#6f543f"/><stop offset="1" stop-color="#816044"/></linearGradient><linearGradient id="y" xlink:href="#q" x1="17.851" y1="24.792" x2="15.489" y2="28.515"/><linearGradient id="z" xlink:href="#q" x1="16.905" y1="24.352" x2="14.324" y2="28.421"/><linearGradient id="AA" x1="26.494" y1="25.411" x2="22.663" y2="33.072" xlink:href="#Af"><stop offset="0" stop-color="#e4d8c9"/><stop offset=".18" stop-color="#f3eadc"/><stop offset=".471" stop-color="#ece4d7"/><stop offset=".69" stop-color="#e8e0d3"/><stop offset="1" stop-color="#e7ded1"/></linearGradient><linearGradient id="AB" xlink:href="#q" x1="13.904" y1="23.77" x2="11.466" y2="27.614"/><linearGradient id="AC" xlink:href="#q" x1="15.292" y1="24.049" x2="12.787" y2="27.997"/><linearGradient id="AD" xlink:href="#q" x1="12.49" y1="23.478" x2="10.09" y2="27.261"/><linearGradient id="AE" xlink:href="#q" x1="23.92" y1="27.013" x2="23.857" y2="27.129"/><linearGradient id="AF" xlink:href="#q" x1="18.511" y1="28.172" x2="17.966" y2="29.19"/><linearGradient id="AG" xlink:href="#x" x1="19.376" y1="26.996" x2="19.581" y2="26.07"/><linearGradient id="AH" xlink:href="#q" x1="12.952" y1="24.313" x2="12.915" y2="24.372"/><linearGradient id="AI" xlink:href="#AA" x1="15.608" y1="22.965" x2="12.045" y2="28.984"/><linearGradient id="AJ" x1="23.954" y1="22.564" x2="19.897" y2="37.919" xlink:href="#Af"><stop offset="0" stop-color="#e1bb8f"/><stop offset=".09" stop-color="#bca684"/><stop offset=".169" stop-color="#e8c196"/><stop offset=".251" stop-color="#d7bd93"/><stop offset=".329" stop-color="#d9b68a"/><stop offset=".439" stop-color="#cab188"/><stop offset=".549" stop-color="#e9bf95"/><stop offset=".631" stop-color="#ceb48a"/><stop offset=".722" stop-color="#e5be90"/><stop offset=".788" stop-color="#ddbc90"/><stop offset=".878" stop-color="#fad5a9"/><stop offset=".961" stop-color="#d2b48b"/><stop offset="1" stop-color="#fedbaf"/></linearGradient><linearGradient id="AK" xlink:href="#q" x1="8.469" y1="25.187" x2="7.978" y2="25.962"/><linearGradient id="AL" xlink:href="#x" x1="19.122" y1="26.6" x2="19.373" y2="25.471"/><linearGradient id="AM" xlink:href="#x" x1="22.114" y1="25.455" x2="22.405" y2="26.579"/><linearGradient id="AN" xlink:href="#x" x1="22.163" y1="26.961" x2="21.88" y2="26.063"/><linearGradient id="AO" xlink:href="#q" x1="25.457" y1="26.546" x2="25.39" y2="26.67"/><linearGradient id="AP" xlink:href="#A" x1="11.773" y1="29.406" x2="7.926" y2="28.729"/><linearGradient id="AQ" xlink:href="#A" x1="20.877" y1="27.25" x2="9.837" y2="25.307"/><linearGradient id="AR" xlink:href="#q" x1="14.285" y1="23.928" x2="14.225" y2="24.023"/><linearGradient id="AS" xlink:href="#A" x1="33.084" y1="30.916" x2="20.39" y2="28.271"/><linearGradient id="AT" xlink:href="#A" x1="22.392" y1="33.671" x2="17.959" y2="32.747"/><linearGradient id="AU" xlink:href="#A" x1="33.893" y1="27.741" x2="33.799" y2="28.149"/><linearGradient id="AV" xlink:href="#A" x1="33.403" y1="28.072" x2="33.294" y2="28.548"/><linearGradient id="AW" xlink:href="#S" x1="20.354" y1="22.499" x2="23.247" y2="23.973"/><linearGradient id="AX" xlink:href="#A" x1="35.273" y1="26.647" x2="35.004" y2="27.82"/><linearGradient id="AY" xlink:href="#S" x1="32.755" y1="24.649" x2="36.072" y2="26.649"/><linearGradient id="AZ" xlink:href="#A" x1="20.958" y1="25.111" x2="20.861" y2="25.469"/><linearGradient id="Aa" xlink:href="#A" x1="21.364" y1="24.855" x2="21.282" y2="25.157"/><linearGradient id="Ab" xlink:href="#A" x1="22.53" y1="24.012" x2="22.288" y2="24.904"/><linearGradient id="Ac" xlink:href="#S" x1="29.564" y1="27.836" x2="31.681" y2="32.705"/><linearGradient id="Ad" xlink:href="#S" x1="17.685" y1="24.978" x2="19.56" y2="28.62"/><radialGradient id="Ae" cx="28.586" cy="34.07" r="6.006" fx="28.586" fy="34.07" xlink:href="#Af"><stop offset="0" stop-color="#6f512d"/><stop offset="1" stop-color="#b29669"/></radialGradient><linearGradient id="Af" gradientUnits="userSpaceOnUse"/></defs><circle cx="22.089" cy="22.053" r="19.05" fill="#f0f0f0"/><path d="M3.862 27.418c1.932-.827 5.42-1.26 5.803-1.366s-3.723.317-3.575-.016 3.905-1.055 4.894-1.194-3.745.305-3.82-.103 6.897-1.406 7.967-1.45-2.706.376-2.78-.29 4.69-.792 6.255-1-3.44-.175-3.217-.657 10.097-.915 9.235-.254-3.826 1.217-1.12 1.254 6.015.338 5.317.74-4.724.556-3.76.668 12.273-.987 9.053.24-4.392.955-1.017.97 6.783.163 5.08.792-7.343.977-2.95 1.007 7.617-.563 5.098.734c-3.678 1.893-39.028 1.037-36.46-.062z" fill="url(#h)"/><path d="M6.643 26.902c.86-.43 13.088-3.422 13.116-3.42.424.023 3.308.772 4.798 1 4.592.7 10.63 2.37 15.07 3.6 1.953.545 2.37.833 2.392 1.113.027.334-.503.294-.893.4-.504.14-.936.452-1.113.484-.415.075-1.322.288-1.597.6-.61.668-.94.198-1.082.515-.136.303-.12.41-.348.394-.826-.055-.3.043-.764.15a8.88 8.88 0 0 0-1.234.477c-.96.586.404.583-.273.704-.212.038-.3.136-.44.038-1.197-.915-.344-.095-.288-.023.106.136.204.068.15.19s-.09.174-.174.13c-.04-.02-2.57.67-3 .712-.902.086-2.692 1.382-3.292 1.408s-1.367.105-1.915.492c-.187.132-1.013 1.14-1.574.44-.414-.517-1.563-.19-1.37-.5.001-.001.697-.404.194-.337l-.273.038c-.098-.068.106-.288-.144-.167-.26.126.087.215-.346.087-.46-.137-.686.093-.84-.03-.64-.513-1.504-.286-1.786-.72-.114-.174-.06-.416-.273-.235-.6.505-1.08-.193-1.506-.076-1.1.3-.414-.267-.946-.045-.363.15-.106.3-.454.12-1.033-.56-1.32.17-2.074-.272-.386-.227-.083-.227-.575-.227a7.12 7.12 0 0 1-1.165-.447c-.13-.098-.03-.174 0-.273.115-.374-.213.04-.348.023l-.833-.484c-.605.314-.874-.445-1.226-.386-.74.123-4.285-2.23-4.507-2.2-1.206.178-1.06-.45-1.3-.52-.216-.064-.36.193-.55-.034-.486-.584-1.325-.506-1.37-.56-.192-.233-.7-.372-.696-.397.024-.266 4.248-1.468 4.835-1.762z" fill="url(#AJ)"/><path d="M6.534 27.278l.053 1.247.2.06-.005-1.236z" fill="url(#M)"/><path d="M7.054 28.464l-.276.12-.005-1.236.292.087z" fill="url(#f)"/><g fill="#ceb38a"><path d="M3.1 28.1s-.095.037.612.373c.922.44 2.757.08 3.797.08 2.123 0-4.283-.584-4.4-.454zm4.502 1.333c1.148.086 5.253 3.384 7.768 3.23.567-.035 1.054-.208.452-.3s-1.227-.394-.243-.405c1.808-.02-2.944-.338-3.253-.637-1.08-1.046-3.155-2.015-4.723-1.9zm16.265 2.86c1.535-.256 4.582 1.283 6.228-.046-1.28 1.1-5.6-1.082-6.228.046zm5.615-1.692c.66.116 1.725-.046 2.34.14s-.544-.6-2.34-.14z"/><path d="M28.093 31.4s.428.532 1.4.313 1.308-.104 1.563-.046-1.378-.776-2.952-.266zm4.052-1.4c.806.904 2.76.214 3.508.602.313.162-1.343-.556-3.508-.602zm3.473-1.62c2.792-.798 3.93.527 5.35.266.63-.116-3.235-1.256-5.35-.266zm-20.844.393c.336.08.996.278 1.17.232.654-.174-7.166-1.68-1.17-.232zm-.672-1.505c.15.08.093.162.695.127s.857.127.95.127-.938-.648-1.644-.255zm.868-.578s.3-.07 1.007.046.996-.012.857-.208-.243-.116-.208-.336-.544-.162-.88.023l-.776.475z"/></g><path d="M23.332 34.5c.052-.026.318.012.362-.035s-.075-.087-.203-.08-.16.116-.16.116zm10.598-3.163c.08.032.15-.025.22-.06.112-.056-.26-.014-.22.06z" fill="#b3996f"/><path d="M7.044 28.008c.015 0 5.796 1.7 5.796 1.7l.004.095-5.997-1.747.197-.048z" fill="url(#P)"/><path d="M12.755 29.707l.035.08.053.015-.004-.1z" fill="#463326"/><path d="M8.38 27.752c-.05 0-.677.298-.716.348s1.463.428 3.025.935 2.08.637 2.13.527 9.93-3.95 9.93-3.95.274-.005.567.18.502.378.607.403.27-.08.27-.08-.124-.423-.234-.483-1.274-.308-1.274-.308L8.38 27.75z" fill="#735f44"/><path d="M7.107 26.512c-.153-.248-.216-.567.12-.704l1.304-.313 3.583-.942c.553-.138 2-.683 2.482-.585l5.57 1.193c.595.835-6.367 2.66-7.112 2.918l-5.947-1.567z" fill="url(#AI)"/><path d="M7.008 26.316l-.475.148 6.532 1.763L24.18 24.37l-.287-.04-10.84 3.75-5.982-1.588z" fill="url(#AQ)"/><path d="M6.9 26.363l.12-.046.082.18-.174-.05.114-.032s-.017-.068-.14-.05z" fill="#554337"/><path d="M20.01 25.673l.38-.13 3.2-4.463-.068-.22-.38-.06-.036.215-2.947 4.122.015.08c-.001.04.05.19-.163.457z" fill="url(#AW)"/><path d="M23.675 25.3l-.01.946.247.075-.005-1.107z" fill="url(#N)"/><path d="M24.085 26.24l-.174.092-.005-1.107.227-.084z" fill="url(#m)"/><path d="M23.705 26.342l.026.03.068.01.448-1.066-.16-.01c-.058.004-.227.177-.305.248l-.1.144-.003.222.022-.001-.01.208.023.215z" fill="#2f1e11"/><path d="M24.287 25.316s-.218-.032-.38.227-.16.593-.152.71.045.145.086.145l.307-.13.282-.086c.058-.02.086-.11.107-.384s-.093-.46-.25-.482z" fill="url(#c)"/><path d="M24.157 25.132l-11.093 4.096.001-1L24.18 24.37z" fill="url(#Ad)"/><path d="M12.816 29.154l.053 1.247.2.06-.005-1.236z" fill="url(#L)"/><path d="M13.336 30.34l-.276.12-.005-1.236.354-.124z" fill="url(#o)"/><path d="M6.843 28.254l6.012 1.825-.012-.277-5.997-1.747z" fill="url(#AP)"/><path d="M22.608 25.704l1.06.215.003-.22-.686-.133z" fill="url(#O)"/><path d="M21.968 24.996l1.925-.666-2.34-.41-.628.876z" fill="url(#Ab)"/><path d="M21.457 25.173l-.704-.136.14-.197 1 .18z" fill="url(#Aa)"/><path d="M20.457 25.518l.938-.325-.65-.133-.323.443z" fill="url(#AZ)"/><path d="M6.534 27.278l6.53 1.95.001-1-6.532-1.763z" fill="url(#w)"/><path d="M24.23 25.78s-.098.035-.124.118-.03.177-.005.222l.06.067s-.09.01-.105-.143.087-.316.174-.264z" fill="#563f2f"/><path d="M6.992 26.1c.506.378 5.376 1.64 6.073 1.7.04.004.352-.295.352-.295-.896-.312-6.08-1.74-6.3-1.595-.054.036-.102.066-.126.188z" fill="#fffff5"/><path d="M12.97 27.375c.005-.014 6.672-2.33 7.072-2.304 1.394.09-6.06 2.327-6.9 2.597l-.17-.293z" fill="#fffffc"/><path d="M14.597 23.968c-.005-.016 3.103-3.96 3.226-4.023.037-.02 5.218.533 5.303.716.052.113-.002.328-.04.396a24.58 24.58 0 0 1-.868 1.209c-.182.22-.684.953-.684.953l-1.38 1.917-5.56-1.167z" fill="url(#j)"/><path d="M13.063 28.09l.043-.486c.05-.078 5.178-1.768 5.69-1.914.38-.108 1.045-.3 1.38-.475.104.58-.883.732-1.29.915-.2.09-.643.153-.912.246l-1.405.486-3.506 1.227z" fill="url(#y)"/><path d="M12.518 27.937c.014-.52-.17-.658.514-.907l4.9-1.55 1.675-.525-.774-.118-2.33.74c-1.146.222-2.183.723-3.294.982-.258.06-1.248.343-1.405.52-.163.183-.034.668-.033.666.003-.01.757.19.757.19z" fill="url(#z)"/><path d="M10.966 27.525c-.037-.204-.094-.53.098-.675.537-.406 3.202-.908 4.11-1.3.937-.394 1.95-.6 2.92-.877l-.674-.12c-.187-.04-1.976.536-2.252.616l-4.92 1.543c-.262.265.042.423-.007.61l.725.193z" fill="url(#AC)"/><path d="M9.5 27.136c-.02-.17-.157-.298-.062-.476.264-.498 1.01-.357 1.466-.59 1.223-.628 4.164-1.223 5.763-1.672l-.702-.137c-.698.16-1.587.534-2.233.6-.412.04-4.874 1.362-4.952 1.5s-.004.596-.003.594a19.6 19.6 0 0 1 .723.183z" fill="url(#AB)"/><path d="M7.395 26.567a18.43 18.43 0 0 0 .697.195c-.06-.285-.127-.595.22-.738.614-.252 2.837-.817 3.743-1.036l3.206-.85-.622-.163c-.001 0-1.102.332-1.234.358-.652.132-5.505 1.35-5.877 1.56-.16.09-.2.384-.134.672z" fill="url(#AD)"/><path d="M7.268 25.794c.14.03 1.667-.404 1.912-.47l-1.912.47z" fill="url(#AK)"/><path d="M12.864 24.362l.128-.034-.128.034z" fill="url(#AH)"/><path d="M14.11 24c.068-.026.21-.05.288-.05l-.288.05z" fill="url(#AR)"/><path d="M7.412 26.58l.655.174s-.593-.218-.655-.174zm1.418.298l.397.138.263.054-.03-.06-.628-.13zm1.352.24s.036.14.084.162.672.192.672.192l-.14-.08-.464-.162-.152-.114z" fill="#232d3c"/><path d="M13.09 28.003l.98-.33s-.894.245-.98.33z" fill="#242f3e"/><path d="M19.75 24.973l.214.06c.053.004.085-.037.15-.13l1.717-2.44c.226-.3 1.245-1.56 1.278-1.828.1.122.015.4-.076.51-.194.236-.354.577-.548.836l-2.326 3.156s-.22-.108-.407-.162z" fill="url(#Q)"/><path d="M18.76 24.817c.202-.55 2.658-3.66 3.195-4.375l.675.08-2.768 3.76c-.07.087-.506.57-.383.66.02.014-.67-.083-.72-.127z" fill="url(#Y)"/><path d="M18.72 31.566c-.058 0-.787.347-.834.405s1.702.498 3.52 1.088 2.42.74 2.478.614 11.554-4.596 11.554-4.596.318-.006.66.208.585.44.706.47.313-.093.313-.093-.145-.492-.272-.56-1.482-.36-1.482-.36L18.72 31.566z" fill="#735f44"/><path d="M17.388 24.57c.178-.437 3.25-4.28 3.277-4.295l.655.083c-.85.835-1.54 2.096-2.353 3.054-.07.08-.877 1.125-.886 1.286l-.693-.128z" fill="url(#X)"/><path d="M16.177 24.3l.62.12c-.078-.048 1.042-1.487 1.236-1.692.538-.57 1.468-2.223 2.004-2.534l-.615-.078c-.02.001-3.26 3.915-3.244 4.183z" fill="url(#V)"/><path d="M15.534 24.22c.112-.456 2.7-3.594 3.257-4.2l-.578-.072c-.143-.018-1.33 1.574-1.575 1.896l-1.682 2.205.577.16z" fill="url(#W)"/><g fill="#2a3649"><path d="M20.125 25.115s.157-.28.284-.436l.546-.654-.83 1.1zm1.518-2.055l.36-.543-.02-.04.274-.348.183-.22-.07.167-.214.284-.014-.033-.074.12c.01.007-.117.216-.42.615z"/><path d="M22.703 21.6l.308-.47.112-.147s0 .073-.42.616z"/></g><path d="M25.83 26.598c-.003-.01 3.72-5.188 3.843-5.215.3-.067 6.144.804 6.317.873.147.06-.002.48-.046.57s-.817 1.283-1.034 1.567-.815 1.235-.815 1.235l-1.643 2.485-6.622-1.514z" fill="url(#k)"/><path d="M25.882 26.6c.186-.306 5.64.866 6.357.987.286-.82 2.908-4.395 3.578-5.4.123.03.208.12.2.25l-3.768 5.784-6.483-1.473.117-.138z" fill="#fffffc"/><path d="M16.91 29.896c-.183-.32-.258-.736.144-.912.195-.086.78-.178 1.554-.405L25 26.724c.234-.067.452-.168.702-.144.793.078 6.52 1.19 6.768 1.565.04.06.04.543-.254.703-2.326 1.264-5.606 2.06-8.113 3.04l-.106.04-7.085-2.03z" fill="url(#AA)"/><path d="M16.225 30.9l.064 1.616.227.08-.006-1.602z" fill="url(#B)"/><path d="M16.844 32.427l-.33.157-.006-1.602.348.113z" fill="url(#e)"/><path d="M16.832 31.835c.018 0 6.905 2.204 6.905 2.204l.005.123-7.145-2.265.235-.063z" fill="url(#D)"/><path d="M23.637 34.038l.042.104.064.02-.005-.116z" fill="#463326"/><path d="M16.79 29.642l-.566.192 7.782 2.285 13.242-5-.342-.053-12.913 4.86-7.127-2.058z" fill="url(#AS)"/><path d="M16.65 29.702l.14-.06.098.233-.208-.066.136-.042s-.02-.088-.167-.065z" fill="#554337"/><path d="M32.28 28.81l.452-.17 3.813-5.785-.08-.285-.454-.08-.04.275-3.514 5.346c.083.235-.04.51-.176.697z" fill="url(#AY)"/><path d="M36.647 28.328l-.014 1.238.295.097-.005-1.435z" fill="url(#A)"/><path d="M37.135 29.543l-.207.12-.005-1.454.27-.098z" fill="url(#n)"/><path d="M36.682 29.676l.03.038.08.013.533-1.382-.192-.013c-.07.005-.27.23-.363.322s-.13.187-.13.187l-.003.287.027-.001-.01.27.028.28z" fill="#2f1e11"/><path d="M37.376 28.346s-.26-.042-.45.294-.192.77-.18.92.053.188.102.188l.366-.167.336-.11c.07-.025.102-.144.127-.498s-.11-.595-.3-.625z" fill="url(#S)"/><path d="M37.22 28.108L23.998 33.42l.005-1.3 13.245-5z" fill="url(#Ac)"/><path d="M23.71 33.32l.064 1.616.227.08-.006-1.603z" fill="url(#B)"/><path d="M24.33 34.858l-.33.158-.006-1.603.422-.16z" fill="url(#p)"/><path d="M16.594 32.155l7.163 2.366-.014-.358-7.145-2.265z" fill="url(#AT)"/><path d="M35.376 28.85l1.262.28.003-.287-.817-.172z" fill="url(#C)"/><path d="M34.613 27.93l2.294-.863-2.788-.532-.75 1.137z" fill="url(#AX)"/><path d="M34.003 28.16l-.836-.18.164-.25 1.193.233z" fill="url(#AU)"/><path d="M32.813 28.608l1.118-.42-.784-.177-.38.577z" fill="url(#AV)"/><path d="M16.225 30.9l7.78 2.527.001-1.298-7.782-2.285z" fill="url(#t)"/><path d="M37.308 28.946s-.117.045-.148.153-.035.23-.006.287l.072.087s-.11.012-.125-.185.104-.4.207-.342z" fill="#563f2f"/><path d="M16.77 29.362c.46.374 6.445 2.13 7.235 2.205.05.005.42-.382.42-.382-.546-.207-7.35-2.178-7.504-2.068a.31.31 0 0 0-.15.244z" fill="#fffff5"/><path d="M23.893 31.014c.017-.048 5.517-2.068 6.474-2.357.396-.12 1.652-.65 1.952-.63.108.007.157.1.156.19l-8.378 3.178-.204-.38z" fill="#fffffc"/><path d="M24.003 31.943l.05-.63c0-.001 5.623-2.037 6.062-2.196.663-.24 1.78-.572 2.36-.9.046.28-.074.556-.34.67l-1.195.516c-.538.265-2.064.687-2.76.95-.46.172-1.186.53-1.62.61-.068.012-2.557.982-2.557.982z" fill="url(#s)"/><path d="M23.355 31.743c.006-.242-.088-.55.02-.752.2-.374 3.37-1.352 4-1.565l4.404-1.55c-.338-.027-.614-.122-.922-.153l-1.294.405c-.44.12-1.043.463-1.482.556-.753.16-1.534.48-2.288.713l-1.637.56c-.307.078-1.487.445-1.674.674-.194.237-.04.867-.04.864.004-.013.902.247.902.247z" fill="url(#r)"/><path d="M21.505 31.21c-.044-.265-.112-.687.116-.875.21-.172 3.516-1.25 4.156-1.452l4.22-1.357-.803-.156c-.175-.042-.81.215-1.015.26-1.526.33-3.297 1.035-4.85 1.535-.488.157-2.4.7-2.677 1.005-.312.344.05.55-.01.79l.864.25z" fill="url(#q)"/><path d="M19.76 30.704c-.023-.222-.187-.386-.074-.618.225-.462 4.587-1.708 5.683-2.026l2.93-.908-.836-.177c-.832.208-1.89.693-2.66.777-.802.087-2.284.786-3.28 1.033-.382.095-2.544.763-2.62.912-.09.178-.004.773-.004.77.003-.01.862.237.862.237z" fill="url(#u)"/><path d="M17.25 29.968c-.003.01.83.252.83.252s-.038-.194-.057-.472c-.056-.832 3.45-1.22 3.936-1.5 1.1-.644 3.3-.993 4.662-1.426l-.74-.21-.693.228c-.468.098-1.313.346-1.777.502l-6.002 1.756c-.192.118-.25.498-.16.87z" fill="url(#v)"/><path d="M17.1 28.966c.167.04 1.987-.523 2.278-.6l-2.278.6z" fill="url(#AF)"/><path d="M23.767 27.1c.242-.027.152-.078 0 0z" fill="url(#AE)"/><path d="M25.252 26.64a1.22 1.22 0 0 1 .343-.066l-.343.066z" fill="url(#AO)"/><path d="M17.272 29.986l.78.225s-.706-.283-.78-.225zm1.688.384c.253.106.512.2.785.25l-.037-.08-.748-.17zm1.612.312s.043.18.1.2.8.25.8.25a10.92 10.92 0 0 0-.901-.458z" fill="#232d3c"/><path d="M24.038 31.83l1.17-.428s-1.065.317-1.17.428z" fill="#242f3e"/><path d="M31.97 27.902c.254.093.284.142.433-.094l2.046-3.163.75-1.148c.163-.194.746-.983.772-1.222.258.313-.394 1.155-.574 1.4l-1.458 2.202-1.484 2.226s-.26-.14-.485-.2z" fill="url(#R)"/><path d="M30.79 27.7c.23-.684 1.658-2.466 2.15-3.276.486-.797 1.124-1.626 1.655-2.395l.804.103-3.774 5.66.02.072c.023.018-.798-.107-.856-.164z" fill="url(#U)"/><path d="M29.156 27.378c.147-.394.645-.902.882-1.305.398-.675 2.84-4.137 3.022-4.263l.78.108c-1.014 1.083-1.834 2.717-2.803 3.96-.19.245-1.043 1.425-1.056 1.667l-.826-.166z" fill="url(#a)"/><path d="M27.713 27.03l.737.157c-.107-.072.692-1.105.857-1.332.582-.804 2.387-3.757 3.003-4.147l-.733-.1c-.185.013-1.077 1.518-1.392 1.817s-2.488 3.33-2.473 3.604z" fill="url(#b)"/><path d="M26.948 26.926c.135-.595 2.315-3.337 2.77-3.956l1.112-1.476-.69-.094c-.17-.024-1.585 2.04-1.876 2.458l-2.004 2.86.688.21z" fill="url(#Z)"/><path d="M32.417 28.085c.273-.525.627-.947 1-1.412l-1 1.412zm1.81-2.662c.013-.023.58-.88.402-.758-.022.015.366-.52.544-.736-.065.243-.343.6-.34.584l-.016-.043c-.044.04-.1.146-.088.155s-.14.28-.5.797zm1.262-1.907l.5-.798s.001.095-.5.798z" fill="#2a3649"/><path d="M18.203 28.674l-.06-2.705.38.08.002 2.556z" fill="url(#H)"/><path d="M18.792 28.515l.038-1.88-.305-.07.001 2.042z" fill="url(#G)"/><path d="M20.41 26.54l.075 1.474.337-.15.005-1.283z" fill="url(#l)"/><path d="M21.13 26.513l-.03 1.307-.28.045.005-1.283z" fill="url(#I)"/><path d="M20.28 26.97l.02 1.11.186-.065-.05-1z" fill="#3c2a1d"/><path d="M22.923 26.025v1.32l.23-.063.045-1.33z" fill="url(#J)"/><path d="M22.554 26.6l.003.85.366-.105v-.853z" fill="url(#i)"/><path d="M18.753 26.114l1.653.368.027.534-1.91-.452v-.514z" fill="url(#AG)"/><path d="M21.12 27l1.803-.508v-.466l-1.792.49z" fill="url(#AN)"/><path d="M17.67 25.855l3.156.728v-.408l-3.14-.686z" fill="url(#AL)"/><path d="M23.694 25.797l-2.87.786v-.408l2.843-.724z" fill="url(#AM)"/><path d="M17.755 25.468l2.718-.648 3.195.632-2.843.724-3.14-.686z" fill="url(#x)"/><path d="M18.144 25.97l.003.13s.283.028.336.05l.06.028 2.282.53 2.38-.67-.002-.1-2.35.638h-.025l-2.68-.607z" fill="#423023"/><path d="M18.826 26.815v-.19l-.193-.028z" fill="#342113"/><path d="M20.425 25.56s-.215-.01-.227.07c-.016.1.55.147.61.03.02-.04-.058-.083-.15-.097l-.11-.01.012-.18c.073-.073.188-.092.23-.2l.097-.036-.094-.06-.02-.213c-.028-.088.005-.073.05-.126.13-.155.014-.454 0-.622-.016-.193-.012-.302.066-.48l-.593-.001.067.355-.076.342-.01.285c-.215.765.08.558.172.782.02.05.002.16-.024.163z" fill="#cfcbc9"/><path d="M20.33 24.72c-.137.117-.154.5.095.597s.356-.195.322-.41l-.01-.142c.113-.396.108-.108.042-.57-.017-.12.037-.21.038-.244.002-.082-.432-.105-.447-.015l.028.164c.02.147-.13.378-.053.572l-.013.05z" fill="#ffe03c"/><path d="M20.292 25.08c0 .164.312.244.43.02l.013-.32c.018-.06.056-.675.001-.73-.03-.03-.318.007-.318.007-.026.142-.073.415-.048.555l-.007.13c-.034.042-.095.092-.07.335z" fill="#fff266"/><path d="M20.418 24.058l.245.018c.173.025.055.65.044.658l-.153.046.007.17c-.044.03-.108-.02-.112-.082l.02-.16c-.192-.13-.09-.422-.05-.652z" fill="#ffec9d"/><path d="M20.568 24.456c.096.13.087-.194.05-.17-.023.015-.072.08-.05.17z" fill="#ffffbe"/><path d="M20.477 24.286c.05-.05.084-.166.02-.2-.053-.03-.065.125-.02.2z" fill="#ffffec"/><path d="M10.74 12.23l3.496-.926 11.31-1.14c1.305-.054 9.76-.56 10.3-.415.065.017 1.023.4 1.072.45l.083.1-.252-.022c-.052-.012-.557.078-.557.078l-5.024.737-8.272.75-7.742.42L11 12.187s-.218.117-.268.045z" fill="#2a2e3b"/><path d="M24.593 26.842l-.87-16.453.326-.04.88 16.395-.335.097z" fill="url(#K)"/><g fill="#131722"><path d="M17.524 11.044L15.03 12.26l-.035.088c.02 0 .095.017.127-.035.2-.3 2.034-1.096 2.402-1.27zm5.58-.582l-.3 1.386-.05.003.3-1.406z"/><path d="M23.145 10.457l-.248 1.387-.096.035.052.055.067-.092c.032-.017.243-1.382.243-1.382l-.018-.003z"/></g><path d="M9.517 30.367s-.18.02-.07.103c.494.37 3.08.662 2.82.164-.03-.058-2.752-.268-2.752-.268z" fill="#b58f60"/><path d="M29.593 10.395l1.5.68.07.064c.065.016.001-.075-.04-.1l-1.54-.653zm6.467-.252c.183.037.6-.01.763.133.042.04.074-.028.074-.05s-.715-.132-.837-.083z" fill="#131722"/><path d="M10.752 12.242l3.405-.897-.023.082c.11.055.108-.106.116-.107l2.382-.224 8.852-.925.076.094c.054.033.088-.082.088-.082L35.6 9.75c.033.106.316.077.255.04l-.148-.093c-.052-.03-11.854-2.176-11.854-2.176-.008.033-.273.023-.333.028l-12.76 4.692z" fill="url(#F)"/><path d="M16.68 10.138l4.648-1.68-4.648 1.68zm4.493-1.522l1.462-.593c.096-.05-1.357.483-1.462.593zm2.457-1.053l.704.975-.704-.975zm.165.054l6.477 1.17-6.477-1.17z" fill="#282e3d"/><path d="M23.608 7.56s-.175-.174-.186-.3c-.003-.032.224-.45.252-.473.038-.033.288.317.294.333a.43.43 0 0 1-.165.431l-.194-.001z" fill="url(#d)"/><path d="M9.55 29.18s-.07.36-.088.773-.046.482.2.565c.472.16 1.648.412 2.144.32.764-.142.654-.443.57-1.097-.074-.574-.232-.852-.24-1.38v-.63c-.005-.065-.532-.143-1.06-.232s-.783-.14-1.005-.088-.324.014-.38.143-.018.676-.14 1.625z" fill="#fff"/><path d="M12.09 27.787s-.15.25-.265.347l-.153.098.056 1.257.02 1.123.01.18.14-.89c.053-.2.248-.34.296-.235s-.11 1.032-.11 1.032.23-.09.285-.18.023-.46-.013-.72-.37-.134-.444-.238-.094-.35-.03-.664.245-.536.245-.536-.001-.527-.042-.573z" fill="#dcdacc"/><path d="M9.5 30.36c.4.16 1.632.374 2.077.424.267.03.647-.17.856-.33-.3.164-.628.363-.98.286l-1.952-.38zm-.015-.16c.324.1 1.9.417 2.2.417.168 0 .6-.24.736-.345-.243.155-.542.32-.838.306-.535-.028-1.5-.27-2.088-.377z" fill="#f8e0dc"/><path d="M9.482 30.1c.096.083 1.978.406 2.182.407.137.001.637-.244.76-.327-.17.065-.64.297-.787.295-.208-.004-2.037-.32-2.155-.402l.001.027z" fill="#b78893"/><path d="M9.488 29.875c.4.16 1.632.374 2.077.424.267.03.647-.17.856-.33-.3.164-.627.362-.98.286l-1.952-.38z" fill="#f8e0dc"/><g fill="#b78893"><path d="M9.484 29.644l1.813.335c.492.085.62-.053 1.05-.25l-.004-.05c-.25.1-.574.328-.842.278l-2.022-.36.006.046zm.07-.564l1.983.335c.165.023.472-.18.7-.236l-.005-.035c-.134.046-.543.247-.63.24-.123-.01-2.037-.343-2.037-.343l-.01.038zm.055-.478l2.07.32c.14-.102.3-.208.484-.2l-.01-.06c-.294.056-.45.247-.654.2l-1.9-.306-.003.034z"/><path d="M9.66 28.034c-.015-.001.9.146 1.308.218l.697.095c.134-.007.438-.17.438-.17s-.226.107-.396.137c-.25.043-1.677-.26-2.06-.32l.013.04zm.027-.507c.3.167 1.58.32 1.982.33.347.01.4-.06.428-.104.063-.15-1.18-.286-1.3-.3.022.004 1.587.227 1.164.33-.153.037-.255.08-.942-.02l-1.197-.206c-.316-.152.782-.133.864-.12-.206-.023-.898-.1-1 .1z"/></g><g fill="#e6decd"><path d="M9.48 30.285c.54.105 1.764.432 2.24.4.142-.007.635-.198.692-.347-.165.197-.652.35-.9.317-.335-.04-1.996-.42-2.02-.38z"/><path d="M9.476 30.007c-.234-.01 1.695.448 2.267.39.078-.008.652-.318.653-.324l-.558.252c-.253.13-1.97-.254-2.362-.32z"/></g><path d="M9.474 29.745l2.227.396.665-.308-.005-.035-.572.255c-.274.158-2.227-.407-2.315-.308z" fill="#c6b8a5"/><path d="M9.497 29.522c.31.054 2.17.445 2.33.32.136-.105.345-.15.498-.23-.04-.025-.453.192-.542.218-.31.1-1.817-.254-2.27-.338l-.016.03z" fill="#e6decd"/><path d="M9.534 29.368l1.706.278c.252.042.477.076.537.058.05-.015.337-.225.528-.264l-.012-.03-.567.264c-.097.002-2.183-.345-2.183-.345l-.01.04z" fill="#f8e0dc"/><path d="M9.533 29.272l2.025.318c-.028-.002-2.003-.356-2.025-.318z" fill="#e6decd"/><path d="M11.738 29.587c.004-.1.418-.215.52-.232.008.026-.434.148-.52.232z" fill="#cec6b6"/><path d="M9.573 28.976l2.128.344c.068-.02.285-.178.51-.234l.023-.032-.556.238c-.028.007-2.102-.34-2.102-.34l-.003.025z" fill="#e6decd"/><path d="M9.568 28.893a54.93 54.93 0 0 1 1.456.236l.66.114c.01-.001.34-.216.516-.257l.008-.036c-.692.25-.33.304-1.108.166l-1.533-.252v.03z" fill="#f8e0dc"/><path d="M9.598 28.722l2.045.326c.002 0 .42-.198.54-.222l-.008-.04c-.148.042-.42.1-.525.223L9.6 28.69l-.003.03z" fill="#c6b8a5"/><path d="M9.617 28.5l2.075.292c.128-.06.272-.166.424-.183l.014-.035-.502.192c-.074.01-2.008-.3-2.008-.3l-.003.035z" fill="#e6decd"/><path d="M9.63 28.32l2.033.335c.196-.13.263-.12.452-.213l.02-.035-.516.21-1.987-.338-.002.04z" fill="#f8e0dc"/><path d="M9.638 28.15l2.03.308a3.73 3.73 0 0 0 .447-.195l.002-.037s-.343.164-.447.185-2.02-.303-2.02-.303l-.014.04z" fill="#c6b8a5"/><path d="M9.648 27.936l2.07.327c.08-.01.382-.17.382-.17v-.03s-.3.17-.4.17-2.04-.334-2.04-.334l-.002.037z" fill="#e6decd"/><path d="M9.668 27.835c-.015-.001 1.446.378 2.183.296.104-.012.243-.107.243-.107l-.01-.03s-.1.097-.3.11c-.515.034-1.603-.18-2.12-.304l.013.033z" fill="#f8e0dc"/><g fill="#c6b8a5"><path d="M9.665 27.66c-.005.018 1.904.38 2.255.3.183-.042.197-.088.197-.088v-.037s-.018.063-.178.1c-.25.044-2.134-.16-2.268-.313l-.006.047z"/><path d="M9.948 27.57c-.003.015.116-.04.484-.037s1.118.155 1.257.195l.206.074.073-.018-.922-.214c-.387-.07-.674-.07-.84-.07s-.312.073-.312.073l.055-.004z"/></g><path d="M10.082 27.992c.096-.065.01-.218-.008-.27a18.27 18.27 0 0 1-.022-1.322c.084-.244.896.01 1.075.083-.08.235-.266.785-.43.953l.218.03c-.036-.028.306-.83.347-.94.34.076-.043 1.153-.108 1.385-.1.105-.205.33.022.335.173.004.2-.176.095-.287.074-.272.376-1.118.27-1.37-.088-.206-.22-.227-.22-.227.115-.372.557-.134.814-.038.667.25.59.383.197.866-.093.113-.343.474-.343.474l.1.09.607-.83c.335-.595-.566-.86-1.02-.926-.192-.028-.462.1-.49.3-.26-.08-1.083-.32-1.247-.046-.084.156-.016 1.208-.01 1.465-.127.172-.004.37.147.267z" fill="url(#E)"/><path d="M27.618 33.33s-.142.037-.132.272c.028.667 1.99.96 2.21.28.047-.147-.03-.17-.03-.17l-2.046-.38z" fill="url(#Ae)"/><path d="M28.657 31.454c1.052-.152 1.874 1.13 1.138 2.11-.474.632-1.58.542-2.057-.1-.604-.8-.108-1.873.918-2.022z" fill="url(#g)"/><path d="M27.683 32.054c.403-.157 1.21.453 1.478.52.04.01.235-.225.26-.26.126-.177-.922-.677-1.303-.674 0 0-.32.18-.434.414z" fill="#e3dfde"/><path d="M28.5 33.972s-.407-.096-.6-.32l-.142-1.01c.004-.036.335-.095.335.1 0 .658-.02.7.408 1.218z" fill="url(#T)"/><path d="M28.736 33.612c.468-.244 1.262-.866 1.22-1.45 0 0 .133.385.13.515-.01.52-.815 1.228-1.205 1.153 0 0-.165-.1-.145-.22z" fill="#bfb9b9"/><path d="M27.962 32.59s.673.46.72.44.487-.357.514-.387c.103-.112-.517.34-.527.342-.035.01-.646-.427-.71-.394z" fill="#0082b2"/><path d="M34.417 32.28c.1.04.134-.055 0 0zm1.618-.665c.068.06.165-.004 0 0zm-.347-.62c.02.066.16.025 0 0zM37.86 29.5c.156.047.205-.047 0 0zM3.1 28.46c.145-.2.258-.032 0 0zm10.852 2.692s.214.012.145-.035-.145.035-.145.035zm2.454 1.528l.052-.04-.052.04zm.194-1.362l.084.015-.084-.015zm6.083 3.002s.124.107.107.04-.107-.04-.107-.04zm2.882.533l.087.026-.087-.026zm-1.09-.873l.075.026-.075-.026zm1.27-.876l.1.026-.1-.026zm-2.487 2.45l.058.006-.058-.006z" fill="#b29669"/></svg>