<?xml version="1.0" encoding="UTF-8"?>
<!DOCTYPE svg PUBLIC "-//W3C//DTD SVG 1.1//EN" "http://www.w3.org/Graphics/SVG/1.1/DTD/svg11.dtd">
<!-- Creator: CorelDRAW -->
<svg xmlns="http://www.w3.org/2000/svg" xml:space="preserve" width="15mm" height="15mm" style="shape-rendering:geometricPrecision; text-rendering:geometricPrecision; image-rendering:optimizeQuality; fill-rule:evenodd; clip-rule:evenodd"
viewBox="0 0 15 15"
 xmlns:xlink="http://www.w3.org/1999/xlink">
 <defs>
  <style type="text/css">
   <![CDATA[
    .fil1 {fill:#7109AA}
    .fil0 {fill:url(#id0)}
   ]]>
  </style>
  <linearGradient id="id0" gradientUnits="userSpaceOnUse" x1="7.4605" y1="12.5256" x2="7.4605" y2="9.4591">
   <stop offset="0" style="stop-color:#AD66D5"/>
   <stop offset="0.0117647" style="stop-color:#C492E0"/>
   <stop offset="0.258824" style="stop-color:#DFC4EE"/>
   <stop offset="1" style="stop-color:#FEFEFE"/>
  </linearGradient>
 </defs>
 <g id="Слой_x0020_1">
  <metadata id="CorelCorpID_0Corel-Layer"/>
  <g id="_400053568">
   <polygon id="_400080640" class="fil0" points="7.3671,12.5256 14.8851,9.4591 0.036,9.4591 "/>
   <path id="_400080568" class="fil1" d="M7.3573 12.5186c0,0 -0.9438,-0.8829 -1.2411,-1.2005 -0.2974,-0.3175 -0.9196,-0.9526 -1.4336,-1.5987 -0.514,-0.6462 -1.2078,-1.5897 -1.5456,-2.5955 -0.3377,-1.0059 0,-1.9898 0.1542,-2.401 0.1542,-0.4112 0.6241,-1.395 1.7402,-2.1293 1.116,-0.7342 2.3274,-0.6862 2.3274,-0.6862l-0.0004 2.6038c0.979,0.0009 1.7723,0.7974 1.7723,1.7798 0,0.9826 -0.7936,1.7792 -1.7728,1.7798l-0.0006 4.4478zm-2.8831 -8.5419c0,0 0.1674,-0.2849 0.6785,-0.6549 0.511,-0.3701 0.9809,-0.5257 0.9809,-0.5257 0,0 0.16,-0.0353 0.2408,0.0704 0.0808,0.1058 0.0661,0.2012 0.0132,0.2776 -0.0528,0.0763 -0.1101,0.0793 -0.1733,0.1043 -0.0631,0.0249 -0.5036,0.2026 -0.7841,0.4287 -0.2805,0.2262 -0.3495,0.2967 -0.4009,0.3525 -0.0514,0.0558 -0.1813,0.1997 -0.2034,0.2313 -0.022,0.0315 -0.1204,0.113 -0.2401,0.0741 -0.1196,-0.0389 -0.1476,-0.1505 -0.1476,-0.1505 0,0 -0.0176,-0.0595 -0.0051,-0.1131 0.0125,-0.0536 0.0411,-0.0947 0.0411,-0.0947zm-0.0954 1.0279c0,0 -0.1469,0.329 -0.1821,0.5551 -0.0352,0.2262 -0.047,0.2849 -0.0969,0.3378 -0.05,0.0528 -0.1131,0.0793 -0.213,0.0719 -0.0998,-0.0073 -0.1776,-0.1131 -0.1806,-0.2291 -0.0029,-0.116 0.0984,-0.4757 0.1263,-0.5565 0.0279,-0.0808 0.1131,-0.3495 0.163,-0.4112 0.0499,-0.0617 0.1175,-0.1072 0.2452,-0.0807 0.1278,0.0264 0.1586,0.1615 0.1586,0.2261 0,0.0646 -0.0205,0.0866 -0.0205,0.0866zm2.9785 7.514c0,0 0.9435,-0.883 1.2409,-1.2006 0.2973,-0.3175 0.9196,-0.9526 1.4335,-1.5988 0.514,-0.6461 1.2078,-1.5896 1.5456,-2.5955 0.3377,-1.0059 0,-1.9897 -0.1542,-2.4009 -0.1542,-0.4112 -0.6241,-1.3951 -1.7401,-2.1293 -1.116,-0.7342 -2.3242,-0.6861 -2.3242,-0.6861l-0.0004 2.6038 -0.0016 0c-0.9797,0 -1.7739,0.7969 -1.7739,1.7798 0,0.9829 0.7942,1.7798 1.7739,1.7798l0.0011 0 -0.0006 4.4478z"/>
  </g>
 </g>
</svg>
