<svg width="79" height="65" viewBox="0 0 79 65" fill="none" xmlns="http://www.w3.org/2000/svg">
<path d="M7.25804 60.964C9.77435 60.942 11.8142 60.4721 11.8142 59.9145C11.8142 59.3569 9.77435 58.9227 7.25804 58.9448C4.74174 58.9668 2.70187 59.4367 2.70187 59.9943C2.70187 60.5519 4.74174 60.9861 7.25804 60.964Z" fill="#362D6B"/>
<path fill-rule="evenodd" clip-rule="evenodd" d="M10.303 36.6161C6.89109 36.6161 4.12546 39.8826 4.12546 43.912C4.12546 47.9415 6.89109 51.2076 10.303 51.2076C10.4588 51.2076 10.6134 51.2009 10.7662 51.1873C7.57097 50.9075 5.05189 47.7573 5.05189 43.912C5.05189 40.0668 7.57097 36.9162 10.7662 36.6364C10.6134 36.6231 10.4588 36.6161 10.303 36.6161Z" fill="#54489C"/>
<path d="M11.2294 51.2079C14.6411 51.2079 17.4069 47.9415 17.4069 43.912C17.4069 39.8826 14.6411 36.6161 11.2294 36.6161C7.8176 36.6161 5.05182 39.8826 5.05182 43.912C5.05182 47.9415 7.8176 51.2079 11.2294 51.2079Z" fill="#6A5EAC"/>
<path fill-rule="evenodd" clip-rule="evenodd" d="M11.2868 38.3988C11.2351 38.3988 11.1838 38.4003 11.1325 38.4021C13.6194 38.4992 15.6111 40.9319 15.6111 43.919C15.6111 46.9057 13.6194 49.3384 11.1325 49.4355C11.1838 49.4373 11.2351 49.4388 11.2868 49.4388C13.8457 49.4388 15.92 46.9673 15.92 43.919C15.92 40.8702 13.8457 38.3988 11.2868 38.3988Z" fill="#54489C"/>
<path fill-rule="evenodd" clip-rule="evenodd" d="M13.0295 60.965H63.4513C64.4538 60.965 65.2735 60.1453 65.2735 59.1432V31.8057H11.2073V59.1432C11.2073 60.1453 12.0271 60.965 13.0295 60.965Z" fill="url(#paint0_linear)"/>
<path fill-rule="evenodd" clip-rule="evenodd" d="M10.903 19.3521H65.5775C66.5803 19.3521 67.3997 20.1719 67.3997 21.1744V31.8054H9.08075V21.1744C9.08075 20.1719 9.90051 19.3521 10.903 19.3521Z" fill="url(#paint1_linear)"/>
<path d="M65.2735 31.8053H11.2073V34.334H65.2735V31.8053Z" fill="#994ECC"/>
<path d="M42.4608 19.3521H34.0694V60.9651H42.4608V19.3521Z" fill="#7DBCF6"/>
<path d="M42.4608 31.8053H34.0694V34.334H42.4608V31.8053Z" fill="#65ADF0"/>
<path fill-rule="evenodd" clip-rule="evenodd" d="M33.9549 19.352H23.0529C23.0529 19.352 17.2821 18.4407 13.9407 16.9219C10.5992 15.4035 10.5992 15.4035 10.5992 15.4035C12.2192 14.2899 13.8392 13.176 15.4591 12.0624C15.4591 12.0624 18.4968 15.0997 21.2303 16.0106C23.9642 16.9219 25.4827 16.9219 25.4827 16.9219C25.4827 16.9219 20.319 14.1884 18.4968 10.5432C16.6742 6.89839 17.2821 4.77203 18.4968 3.25357C19.7115 1.73474 22.1412 0.823444 25.1789 0.519679C28.2165 0.216282 30.3425 2.34227 31.5576 4.46863C32.7727 6.59499 32.4689 9.32851 33.0764 12.0624C33.684 14.7959 33.9877 15.0997 33.9877 15.0997C33.9877 15.0997 34.5945 13.5812 37.025 12.9737C39.4551 12.3658 41.2774 13.5805 41.8849 14.1884C42.4924 14.7959 42.4924 14.7959 42.4924 14.7959C42.4924 14.7959 43.4037 10.8477 44.0112 7.50629C44.6188 4.16487 46.4406 1.12721 49.7821 0.519679C53.1235 -0.0874835 56.7683 1.43097 57.9834 3.25357C59.1984 5.07616 59.8056 7.80968 57.9834 10.5432C56.1608 13.2771 54.3382 14.7959 54.3382 14.7959C54.3382 14.7959 51.605 16.9219 51.3013 16.9219C50.9971 16.9219 54.6423 16.6185 57.3758 14.7959C60.1097 12.9737 61.0206 12.0624 61.0206 12.0624L65.5771 15.4035C65.5771 15.4035 63.147 16.9219 60.1097 17.8332C57.0721 18.7445 53.5941 19.352 53.5941 19.352H33.9549ZM44.0112 16.9219C44.0112 16.9219 50.0858 15.1001 52.516 12.0624C54.9461 9.02475 55.5536 7.80968 55.5536 7.80968C55.5536 7.80968 54.0344 6.89839 51.6047 6.89839C49.1749 6.89839 47.6561 6.89839 46.441 9.63228C45.2259 12.3658 46.1372 13.2771 44.0112 16.9219ZM20.9265 7.50629C20.9265 7.50629 22.7495 6.59462 25.7864 6.89839C28.8237 7.20215 30.0384 8.72098 30.6463 11.4545C31.2538 14.1884 31.2538 14.4925 31.8614 15.7072C32.4685 16.9219 32.4685 16.9219 32.4685 16.9219C32.4685 16.9219 28.2162 16.0106 25.1789 13.2771C22.1416 10.5432 20.9265 7.50629 20.9265 7.50629Z" fill="#7DBCF6"/>
<path fill-rule="evenodd" clip-rule="evenodd" d="M47.3525 6.29125C47.3525 6.29125 48.5676 3.86113 52.8199 4.46866C57.0723 5.07619 55.5538 7.80971 55.5538 7.80971C55.5538 7.80971 54.0346 6.89842 51.6049 6.89842C49.1751 6.89842 47.6563 6.89842 46.4412 9.63231C45.2262 12.3658 46.1375 13.2771 44.0115 16.9219C44.0115 16.9219 44.619 8.72101 47.3525 6.29125Z" fill="#4A94D9"/>
<path fill-rule="evenodd" clip-rule="evenodd" d="M27.6093 5.68365C27.6093 5.68365 22.4452 4.16483 21.5343 5.98705C20.623 7.80964 20.9268 7.50625 20.9268 7.50625C20.9268 7.50625 22.7497 6.59458 25.7867 6.89835C28.8239 7.20211 30.0386 8.72094 30.6465 11.4545C31.2541 14.1884 31.2541 14.4925 31.8616 15.7072C32.4688 16.9219 32.4688 16.9219 32.4688 16.9219C32.4688 16.9219 33.0767 8.41754 27.6093 5.68365Z" fill="#4A94D9"/>
<path fill-rule="evenodd" clip-rule="evenodd" d="M14.1237 12.9804C14.1237 12.9804 16.067 16.0107 19.4081 17.2261C22.7491 18.4411 26.3534 19.3521 26.3534 19.3521H23.0529C23.0529 19.3521 17.2821 18.4408 13.9407 16.922C10.5992 15.4035 10.5992 15.4035 10.5992 15.4035L14.1234 12.9804H14.1237Z" fill="#4A94D9"/>
<path fill-rule="evenodd" clip-rule="evenodd" d="M63.299 13.7328C63.299 13.7328 62.5542 15.1775 58.287 17.226C54.0867 19.2423 51.2698 19.3494 51.1831 19.352H51.1808H53.594C53.594 19.352 57.072 18.7444 60.1096 17.8331C63.1469 16.9218 65.5771 15.4034 65.5771 15.4034L63.2994 13.7328H63.299Z" fill="#4A94D9"/>
<path fill-rule="evenodd" clip-rule="evenodd" d="M25.8163 19.352H53.5941C53.5941 19.352 37.936 17.226 25.8163 19.352Z" fill="#4A94D9"/>
<path d="M72.867 61.8038C75.3833 62.0821 77.4232 61.9452 77.4232 61.498C77.4232 61.0508 75.3833 60.4627 72.867 60.1844C70.3507 59.9061 68.3109 60.0431 68.3109 60.4902C68.3109 60.9374 70.3507 61.5256 72.867 61.8038Z" fill="#362D6B"/>
<path d="M7.25806 60.8893C11.2002 60.8893 14.396 57.6765 14.396 53.7133C14.396 49.7502 11.2002 46.5374 7.25806 46.5374C3.31588 46.5374 0.120117 49.7502 0.120117 53.7133C0.120117 57.6765 3.31588 60.8893 7.25806 60.8893Z" fill="url(#paint2_linear)"/>
<path fill-rule="evenodd" clip-rule="evenodd" d="M7.65128 60.1906C7.57487 60.1935 7.4981 60.1954 7.42096 60.1954C3.85587 60.1954 0.966217 57.2884 0.966217 53.7026C0.966217 50.3173 3.54177 47.538 6.82893 47.2375L7.41838 48.1972C4.35821 48.1983 1.87751 50.6627 1.87751 53.7026C1.87751 56.7432 4.35931 59.2081 7.42096 59.2081C7.69852 59.2081 7.97091 59.1874 8.23777 59.1483L7.65128 60.1906Z" fill="#54489C"/>
<path fill-rule="evenodd" clip-rule="evenodd" d="M7.25833 47.2206C10.8234 47.2206 13.7131 50.1276 13.7131 53.7134C13.7131 57.2992 10.8234 60.2062 7.25833 60.2062C3.6936 60.2062 0.803955 57.2992 0.803955 53.7134C0.803955 50.1276 3.6936 47.2206 7.25833 47.2206ZM7.25833 48.208C10.32 48.208 12.8018 50.6728 12.8018 53.7134C12.8018 56.754 10.32 59.2188 7.25833 59.2188C4.19705 59.2188 1.71525 56.754 1.71525 53.7134C1.71525 50.6728 4.19705 48.208 7.25833 48.208Z" fill="#6A5EAC"/>
<path d="M9.53465 54.8287C9.53465 55.1045 9.48778 55.3558 9.39329 55.585C9.2988 55.8142 9.15781 56.011 8.96883 56.1793C8.77838 56.3476 8.53773 56.4775 8.24651 56.572C7.9564 56.6665 7.57845 56.713 7.11523 56.713H5.51336C5.39967 56.713 5.30814 56.6823 5.23764 56.6214C5.16714 56.5605 5.13208 56.4564 5.13208 56.3092V51.0271C5.13208 50.8894 5.16714 50.7901 5.23764 50.7292C5.30814 50.6683 5.39488 50.6377 5.49896 50.6377H8.93856C8.96883 50.6377 8.99614 50.6458 9.02013 50.662C9.04413 50.6764 9.06332 50.7037 9.08103 50.7436C9.09875 50.782 9.1113 50.8318 9.11942 50.8942C9.12754 50.9551 9.13049 51.0319 9.13049 51.1249C9.13049 51.2131 9.12754 51.2865 9.11942 51.3493C9.1113 51.4102 9.09875 51.4596 9.08103 51.498C9.06332 51.5383 9.04413 51.5656 9.02013 51.5829C8.99614 51.6006 8.97031 51.6088 8.94152 51.6088H6.36228V53.118H7.37507C7.76595 53.118 8.08927 53.1545 8.34395 53.2298C8.59715 53.3055 8.81344 53.4173 8.98802 53.565C9.16445 53.7122 9.2988 53.8916 9.39329 54.1046C9.48778 54.3179 9.53465 54.5597 9.53465 54.8287ZM8.2849 54.9074C8.2849 54.7741 8.26238 54.6527 8.2192 54.5453C8.17417 54.4364 8.11031 54.3449 8.02542 54.2681C7.94053 54.1913 7.8298 54.1319 7.69693 54.092C7.56221 54.0518 7.3843 54.0311 7.16026 54.0311H6.36228V55.7803H7.17466C7.37655 55.7803 7.54301 55.7611 7.67293 55.7242C7.80433 55.6858 7.91322 55.6297 8.00143 55.5562C8.08927 55.4809 8.1583 55.3879 8.2096 55.279C8.25906 55.1683 8.2849 55.045 8.2849 54.9074Z" fill="white"/>
<path d="M58.5908 64.1841C61.1071 64.294 63.147 63.8637 63.147 63.223C63.147 62.5824 61.1071 61.974 58.5908 61.8642C56.0745 61.7543 54.0347 62.1846 54.0347 62.8252C54.0347 63.4659 56.0745 64.0743 58.5908 64.1841Z" fill="#362D6B"/>
<path fill-rule="evenodd" clip-rule="evenodd" d="M72.3208 46.5189C75.6792 46.5189 78.4017 49.7345 78.4017 53.7015C78.4017 57.6682 75.6792 60.8841 72.3208 60.8841C72.1676 60.8841 72.0156 60.8771 71.865 60.8642C75.0101 60.5885 77.4893 57.487 77.4893 53.7015C77.4893 49.9157 75.0101 46.8142 71.865 46.5388C72.0156 46.5256 72.1676 46.5189 72.3208 46.5189Z" fill="#54489C"/>
<path d="M71.4088 60.8841C74.7669 60.8841 77.4893 57.6684 77.4893 53.7015C77.4893 49.7347 74.7669 46.5189 71.4088 46.5189C68.0506 46.5189 65.3283 49.7347 65.3283 53.7015C65.3283 57.6684 68.0506 60.8841 71.4088 60.8841Z" fill="#6A5EAC"/>
<path d="M71.409 59.1357C73.9277 59.1357 75.9695 56.7026 75.9695 53.7012C75.9695 50.6997 73.9277 48.2666 71.409 48.2666C68.8903 48.2666 66.8484 50.6997 66.8484 53.7012C66.8484 56.7026 68.8903 59.1357 71.409 59.1357Z" fill="url(#paint3_linear)"/>
<path d="M73.0563 54.818C73.0356 55.0937 72.9806 55.3455 72.8906 55.5747C72.8005 55.8042 72.6769 56.0013 72.5182 56.1697C72.3583 56.338 72.1631 56.4679 71.9309 56.5624C71.7002 56.6572 71.405 56.7037 71.0477 56.7037H69.8112C69.7237 56.7037 69.6554 56.6731 69.6056 56.6122C69.5558 56.5513 69.5362 56.4472 69.5477 56.2996L69.9459 51.0126C69.9563 50.875 69.991 50.7757 70.05 50.7144C70.1091 50.6535 70.1781 50.6232 70.2582 50.6232H72.9127C72.936 50.6232 72.9566 50.6314 72.974 50.6472C72.9913 50.6616 73.0043 50.6889 73.0146 50.7292C73.0253 50.7676 73.0316 50.817 73.033 50.8798C73.0345 50.9407 73.0312 51.0178 73.0242 51.1105C73.0175 51.1987 73.0094 51.2725 72.9987 51.3352C72.988 51.3961 72.9744 51.4456 72.9577 51.4843C72.9411 51.5242 72.9242 51.5515 72.9042 51.5692C72.8843 51.587 72.864 51.5951 72.8418 51.5951H70.8513L70.7376 53.1054H71.519C71.8206 53.1054 72.0675 53.1423 72.2583 53.2176C72.448 53.2929 72.6064 53.4051 72.7304 53.5528C72.8551 53.7004 72.9452 53.8798 73.0024 54.0931C73.0592 54.3065 73.0766 54.5486 73.0563 54.818ZM72.0863 54.8966C72.0963 54.7634 72.0882 54.6416 72.0627 54.5342C72.0365 54.4249 71.994 54.3338 71.9342 54.2566C71.8744 54.1799 71.7936 54.1204 71.694 54.0802C71.5932 54.0403 71.4574 54.0193 71.2846 54.0193H70.6686L70.5368 55.7703H71.1636C71.3193 55.7703 71.4493 55.7511 71.5522 55.7142C71.6567 55.6758 71.7449 55.6197 71.8183 55.5459C71.8922 55.4706 71.9523 55.3776 71.9999 55.2687C72.0468 55.158 72.076 55.0343 72.0863 54.8966Z" fill="url(#paint4_linear)"/>
<path fill-rule="evenodd" clip-rule="evenodd" d="M71.3524 48.274C71.4033 48.274 71.4539 48.2751 71.5044 48.2773C69.0562 48.3729 67.0959 50.7676 67.0959 53.7082C67.0959 56.6488 69.0562 59.0439 71.5044 59.1395C71.4539 59.1413 71.4033 59.1428 71.3524 59.1428C68.8336 59.1428 66.7918 56.7097 66.7918 53.7082C66.7918 50.7071 68.8336 48.274 71.3524 48.274Z" fill="#54489C"/>
<path d="M57.9081 49.4991H55.7817V50.0306H57.9081V49.4991Z" fill="#54489C"/>
<path d="M57.6043 63.3951H55.7817V63.8506H57.6043V63.3951Z" fill="#54489C"/>
<path d="M55.8196 63.8506C57.6858 63.8506 59.1986 60.6378 59.1986 56.6746C59.1986 52.7114 57.6858 49.4986 55.8196 49.4986C53.9534 49.4986 52.4405 52.7114 52.4405 56.6746C52.4405 60.6378 53.9534 63.8506 55.8196 63.8506Z" fill="#6A5EAC"/>
<path fill-rule="evenodd" clip-rule="evenodd" d="M57.5657 49.4991C59.4319 49.4991 60.9448 52.7117 60.9448 56.6747C60.9448 60.638 59.4319 63.8506 57.5657 63.8506C57.2638 63.8506 56.9711 63.7661 56.6928 63.6081C58.1356 62.7906 59.1986 59.9965 59.1986 56.6747C59.1986 53.3532 58.1356 50.5588 56.6928 49.7416C56.9711 49.5836 57.2638 49.4991 57.5657 49.4991Z" fill="#54489C"/>
<path d="M55.8193 62.1797C57.1822 62.1797 58.2871 59.715 58.2871 56.6746C58.2871 53.6342 57.1822 51.1695 55.8193 51.1695C54.4564 51.1695 53.3516 53.6342 53.3516 56.6746C53.3516 59.715 54.4564 62.1797 55.8193 62.1797Z" fill="url(#paint5_linear)"/>
<path fill-rule="evenodd" clip-rule="evenodd" d="M55.7436 51.1695C55.7816 51.1695 55.8196 51.1718 55.8576 51.1758C54.5455 51.3083 53.5036 53.7196 53.5036 56.675C53.5036 59.6303 54.5455 62.0412 55.8576 62.1741C55.8196 62.1778 55.7816 62.18 55.7436 62.18C54.3783 62.18 53.2758 59.7152 53.2758 56.675C53.2758 53.6344 54.3783 51.1695 55.7436 51.1695Z" fill="#54489C"/>
<path d="M56.5408 57.866C56.5408 58.1417 56.5272 58.3931 56.4995 58.6223C56.4718 58.8515 56.4305 59.0482 56.3751 59.2165C56.319 59.3848 56.2489 59.5148 56.1633 59.6093C56.0784 59.7037 55.9673 59.7503 55.8314 59.7503H55.362C55.3284 59.7503 55.3018 59.7196 55.2811 59.6587C55.2605 59.5978 55.2501 59.4937 55.2501 59.3465V54.0647C55.2501 53.927 55.2605 53.8274 55.2811 53.7669C55.3018 53.706 55.3269 53.6753 55.3575 53.6753H56.3663C56.3751 53.6753 56.3832 53.6834 56.3903 53.6993C56.3973 53.7137 56.4028 53.741 56.408 53.7812C56.4131 53.8196 56.4168 53.8691 56.4194 53.9318C56.4216 53.9924 56.4224 54.0695 56.4224 54.1625C56.4224 54.2504 56.4216 54.3242 56.4194 54.3866C56.4168 54.4475 56.4131 54.4973 56.408 54.5357C56.4028 54.5755 56.3973 54.6028 56.3903 54.6206C56.3832 54.6383 56.3755 54.646 56.367 54.646H55.6107V56.1553H55.9078C56.0223 56.1553 56.1171 56.1922 56.1921 56.2675C56.2662 56.3428 56.3294 56.4546 56.3807 56.6022C56.4323 56.7495 56.4718 56.9289 56.4995 57.1422C56.5272 57.3552 56.5408 57.597 56.5408 57.866ZM56.1743 57.9446C56.1743 57.8118 56.1681 57.69 56.1551 57.5826C56.1422 57.4737 56.1234 57.3825 56.0983 57.3054C56.0736 57.2286 56.0411 57.1692 56.002 57.1293C55.9628 57.0891 55.9104 57.0684 55.8447 57.0684H55.6107V58.8176H55.8492C55.9082 58.8176 55.9569 58.7984 55.995 58.7614C56.0337 58.7234 56.0655 58.6673 56.0913 58.5935C56.1171 58.5182 56.1374 58.4252 56.1526 58.3163C56.167 58.206 56.1743 58.0823 56.1743 57.9446Z" fill="white"/>
<defs>
<linearGradient id="paint0_linear" x1="38.5255" y1="31.8017" x2="37.9553" y2="60.9691" gradientUnits="userSpaceOnUse">
<stop stop-color="#AD66D5"/>
<stop offset="1" stop-color="#675EAA"/>
</linearGradient>
<linearGradient id="paint1_linear" x1="38.2899" y1="19.3484" x2="38.1906" y2="31.8095" gradientUnits="userSpaceOnUse">
<stop stop-color="#695EAB"/>
<stop offset="1" stop-color="#A765D1"/>
</linearGradient>
<linearGradient id="paint2_linear" x1="0.120117" y1="53.7133" x2="14.3964" y2="53.7133" gradientUnits="userSpaceOnUse">
<stop stop-color="#695EAB"/>
<stop offset="1" stop-color="#A665D1"/>
</linearGradient>
<linearGradient id="paint3_linear" x1="66.8488" y1="53.7012" x2="75.9695" y2="53.7012" gradientUnits="userSpaceOnUse">
<stop stop-color="#6B5EAC"/>
<stop offset="1" stop-color="#A465D0"/>
</linearGradient>
<linearGradient id="paint4_linear" x1="69.496" y1="54.618" x2="73.3933" y2="52.7086" gradientUnits="userSpaceOnUse">
<stop stop-color="#E6E6E6"/>
<stop offset="0.258824" stop-color="#F2F2F2"/>
<stop offset="1" stop-color="white"/>
</linearGradient>
<linearGradient id="paint5_linear" x1="53.3512" y1="56.6746" x2="58.2871" y2="56.6746" gradientUnits="userSpaceOnUse">
<stop stop-color="#6A5EAC"/>
<stop offset="1" stop-color="#A565D0"/>
</linearGradient>
</defs>
</svg>
