<svg xmlns="http://www.w3.org/2000/svg" width="10.837mm" height="10.837mm" viewBox="0 0 10.8372 10.8372" shape-rendering="geometricPrecision" text-rendering="geometricPrecision" image-rendering="optimizeQuality" fill-rule="evenodd" clip-rule="evenodd"><defs><style type="text/css"><![CDATA[
    .fil0 {fill:#D6C989}
   ]]></style></defs><g id="_200933880"><path id="_200932272" class="fil0" d="M3.641 5.889l-.002.5s-.004.081.103.22l1.446 1.733.111.055.18-.051 2.186-.875.103-.11.03-.151.084-.803-1.921.63-.085.015c-.041-.001-.107-.026-.156-.092l-.65-1.072h-1.428z"/><path id="_200931888" class="fil0" d="M2.405 4.296l1.073 1.282s.056.074.153.099l.237.021 1.243-.011-1.599-1.396-1.003-.065c-.068-.005-.126.003-.105.069z"/><path id="_200933592" class="fil0" d="M3.262 3.601l.252.691 2.442-.276 1.925.846-2.759.827.671 1.02s.058.085.165.091c.107.005 2.732-.864 2.732-.864l.052-.097c-.009-.069-.609-.951-.609-.951l.09-.062.611-.627.016-.086-.126-.08-2.123-.649-.174.011-.168.13-.336.345-.446-.56-.107-.074c-.079-.027-2.009.221-2.009.221s-.135.015-.098.144z"/></g></svg>