<svg xmlns="http://www.w3.org/2000/svg" xmlns:xlink="http://www.w3.org/1999/xlink" width="163.839" height="163.839" viewBox="0 0 43.349 43.349" shape-rendering="geometricPrecision" image-rendering="optimizeQuality" fill-rule="evenodd" xmlns:v="https://vecta.io/nano"><defs><linearGradient id="A" x1="16.458" y1="20.809" x2="18.763" y2="20.809" xlink:href="#P"><stop offset="0" stop-color="#634e32"/><stop offset="1" stop-color="#4c381f"/></linearGradient><linearGradient id="B" x1="17.857" y1="32.788" x2="37.491" y2="32.788" xlink:href="#P"><stop offset="0" stop-color="#f8f6ea"/><stop offset=".78" stop-color="#eeece0"/><stop offset="1" stop-color="#e3e2d6"/></linearGradient><linearGradient id="C" x1="13.691" y1="28.621" x2="12.972" y2="21.735" xlink:href="#P"><stop offset="0" stop-color="#565651"/><stop offset="1" stop-color="#909087"/></linearGradient><linearGradient id="D" x1="19.83" y1="1.114" x2="20.254" y2=".531" xlink:href="#P"><stop offset="0" stop-color="#3b3c39"/><stop offset="1" stop-color="#666"/></linearGradient><linearGradient id="E" x1="22.012" y1="1.157" x2="21.145" y2="1.287" xlink:href="#P"><stop offset="0" stop-color="#444542"/><stop offset="1" stop-color="#62635e"/></linearGradient><linearGradient id="F" x1="7.507" y1="2.781" x2="7.741" y2="1.343" xlink:href="#P"><stop offset="0" stop-color="#3b3b38"/><stop offset=".729" stop-color="#585955"/><stop offset="1" stop-color="#767772"/></linearGradient><linearGradient id="G" x1="6.566" y1="2.965" x2="8.313" y2=".718" xlink:href="#P"><stop offset="0" stop-color="#242423"/><stop offset="1" stop-color="#424240"/></linearGradient><linearGradient id="H" x1="14.559" y1="9.901" x2="15.664" y2="9.802" xlink:href="#P"><stop offset="0" stop-color="#3f2f19"/><stop offset="1" stop-color="#524028"/></linearGradient><linearGradient id="I" x1="16.234" y1="2.811" x2="17.2" y2="2.691" xlink:href="#P"><stop offset="0" stop-color="#49371d"/><stop offset="1" stop-color="#5f4a2f"/></linearGradient><linearGradient id="J" x1="20.081" y1="1.62" x2="21.554" y2=".126" xlink:href="#P"><stop offset="0" stop-color="#2d2c2a"/><stop offset="1" stop-color="#474844"/></linearGradient><linearGradient id="K" x1="13.869" y1="38.172" x2="8.742" y2="33.32" xlink:href="#P"><stop offset="0" stop-color="#080808"/><stop offset=".588" stop-color="#7c7c7c"/><stop offset="1" stop-color="#f0f0f0"/></linearGradient><linearGradient id="L" x1="28.507" y1="34.44" x2="32.119" y2="32.696" xlink:href="#P"><stop offset="0" stop-color="#151514"/><stop offset=".271" stop-color="#2e2e2c"/><stop offset="1" stop-color="#474744"/></linearGradient><linearGradient id="M" x1="22.755" y1="16.419" x2="25.514" y2="20.601" xlink:href="#P"><stop offset="0" stop-color="#ca9569"/><stop offset="1" stop-color="#be916b"/></linearGradient><linearGradient id="N" x1="21.501" y1="28.36" x2="24.323" y2="39.12" xlink:href="#P"><stop offset="0"/><stop offset=".651" stop-color="#787878"/><stop offset="1" stop-color="#f0f0f0"/></linearGradient><radialGradient id="O" cx="14.017" cy="32.501" r="13.865" fx="14.017" fy="32.501" xlink:href="#P"><stop offset="0" stop-color="#9d9e97"/><stop offset=".4" stop-color="#757570"/><stop offset="1" stop-color="#4d4d4a"/></radialGradient><linearGradient id="P" gradientUnits="userSpaceOnUse"/></defs><circle cx="22.089" cy="22.053" r="19.05" fill="#f0f0f0"/><path d="M16.058 39.034s-.158 1.26 3.624.946 12.764-3.257 13.184-3.624-8.976-6.32-12.33-7.745-8 3.178-7.852 2.74c.115-.34.448 4.8 1.323 6.973.253.627 2.05.71 2.05.71z" fill="url(#N)"/><path d="M15.02 2.548l3.372-1.057 5.45-.125.642 6.298-7.276.566-1.547.365z" fill="#ffe6b2"/><path d="M15.116 2.518l3.276-1.027.726 6.6-1.93.13-1.52.36-.65-6.045z" fill="#a98868"/><path d="M16.414 3.59l.768-.227-.132-1.453-.798.25z" fill="url(#I)"/><path d="M13.784 19.262l13.864-1.87 7.57-.184L20.72 19.3z" fill="#a5815f"/><path d="M13.187 9.186l4.002-.955 9.415-.736 1.05 10.344-9.336 1.224-4.097-.108z" fill="#ffe7b0"/><path d="M18.318 19.064L17.207 8.23h-.018l-4.002.955 1.034 9.77z" fill="#987a5d"/><path d="M14.586 8.852l.24 2.197.813-.154-.22-2.24z" fill="url(#H)"/><path d="M15.655 18.836l-.004.158.843.022.005-.152z" fill="#3d2914"/><path d="M15.386 19.09l2.983.046 9.15-1.2-.43-.022-8.747 1.134-2.604-.052z" fill="#20150c"/><path d="M22.235 33.983l14.3-3.496-1.26-13.278-14.545 2.1z" fill="#ecbb89"/><path d="M20.105 1.324C19.62 1.278 19.86.3 20.35.556c.095.05-.02.09.312.273l.61.36c.346-.37.743.053.71.22l-1.602.037-.177-.137-.1.016z" fill="url(#J)"/><path d="M19.97 1.107c-.04-.193.085-.5.29-.5.016 0 .015-.07-.064-.07-.274 0-.388.543-.225.57z" fill="url(#D)"/><path d="M21.148 1.413c0 .015.077-.21.215-.298s.214-.1.29-.082.18.103.27.22.063.155.063.155l-.836.004z" fill="url(#E)"/><path d="M21.503 1.41c.042-.068.164-.076.196.004l-.196-.004z" fill="#b8b3a9"/><path d="M27.295 17.966l2.638-.178-9.376 1.444-2.22-.096z" fill="url(#M)"/><path d="M6.802.782c-.355.095-.44.7-.187.827.08.04.202.028.202.028l.61.463s-.087.29.143.555.568.05.614.026.335-.693.335-.693c-.007-.413-.314-.816-.726-.565l-.07.043-.614-.48S7.086.76 6.802.782z" fill="url(#G)"/><path d="M7.712 2.76l.063-.353s-.057-.1-.05-.292.136-.282.184-.317l.14-.064-.053-.37c-.63.038-.802 1.176-.286 1.398z" fill="url(#F)"/><path d="M8.133 1.766c.588.42 1.25.718 1.412 1.48l1.725 9.758 2.297-.23.07.653-2.25.24 1.783 10.06 1.055-.168.593 5.802-1.615-.965L8.946 3.8c-.13-.84-.484-.918-1.17-1.392-.137-.174-.043-.733.358-.642z" fill="#c3c4ba"/><path d="M7.818 1.9c-.006-.005.48.365.598.2.035-.05-.294-.326-.294-.326S7.9 1.7 7.82 1.898zM9.1 2.9c.177 1.62.57 3.335.847 4.95l1.84 10.04s.092.453.203.673c.118.233-.636-4.132-.916-5.74L9.415 3.252S9.13 2.505 9.1 2.9zm2.162 10.238l.05.24c.165-.02 2-.164 1.934-.338-.02-.052-.78-.056-1.983.1zM14 28.61c.087.058.402.243.445.3-.08-.355-.624-3.028-.886-3.037l.442 2.726z" fill="#fff"/><path d="M8.4 2.855s-.065-.337-.036-.38.378.292.505.686.29 1.504.29 1.504l1.82 10.548c.66 3.756 1.27 7.67 2.144 11.375.112.473.57 1.897.57 1.897l-.28-.09-.215-.02L8.928 3.7c-.055-.4-.165-.647-.528-.847z" fill="#86847e"/><path d="M7.702 2.196l.414.322-.14.03s-.27-.118-.273-.35z" fill="#918d87"/><path d="M11.346 13.535l.04.133 2.25-.24-.07-.653-.442.044s.172.13.172.302c0 .394-1.626.387-1.95.414z" fill="#8d8981"/><path d="M13.286 12.928c.05.143.106.26.01.396l.346-.033-.077-.516-.28.153z" fill="#6c594a"/><path d="M14.313 38.84s-.14.145-.578.145-2.285-.545-3.782-2.8-1.655-2.73-1.366-2.955.71-.05 1.182-.184.5-.552.814-.302 3.73 6.086 3.73 6.086z" fill="url(#K)"/><path d="M13.124 12.82l.187.13.255-.173z" fill="#514a45"/><path d="M13.868 28.51l-1.192-6.743.294.848 1.016 5.976z" fill="url(#C)"/><path d="M14.223 23.56l-.586.093.782 5.25c.13.134.31.317.403.478l-.598-5.82z" fill="#46372b"/><path d="M12.83 22.626l.065-.45-1.508-8.5z" fill="#acaba0"/><path d="M22.235 33.983l-.026-.27L20.72 19.3l-6.937-.047 1.032 10.098.8 2.955z" fill="#ad8d6e"/><path d="M16.78 22.42l1.405.085-.34-3.215.92-.153-.214-.024-.213.023-1.116-.017-.762.162z" fill="url(#A)"/><path d="M11.206 13.282l.064-.277-1.725-9.758z" fill="#c8c4b6"/><path d="M16.488 33.54l.302-.066 5.404 1.464L37.5 31.055l-.036-.52-.947-.16.01.11-14.324 3.488-5.954-1.5.175.696.066.37z" fill="#d5d0c3"/><path d="M37.45 30.64c.02-.001.042.305.042.305L22.194 34.94l-.063-.397-4.274-1.064 4.26.94 15.33-3.78z" fill="url(#B)"/><path d="M16.247 32.474l1.05.264-.66.205 2.837 1.238-3-.826-.215-.88z" fill="#514d45"/><path d="M16.872 32.63l-.56-.01.06.236c-.015.003 1.21.528 1.21.528l-.972-.197-.15.167-.215-.88.625.158z" fill="#222220"/><path d="M10.692 29.56c.724-1.415 2.725-1.673 3.825-.556 1.512 1.534 1.89 3.766 2.113 5.818.116 1.07-.214 3.036-1.293 3.546l-1.024.473c-.956.1-1.99-.485-2.502-1.274-1.276-1.93-2.27-5.845-1.12-8.007z" fill="#4d4d4a"/><path d="M14.5 37.455s.617-1.72.236-4.294-1.53-3.257-1.687-3.788-.05-1.067-.05-1.067c-1.423-.174-2.672 1.258-2.687 2.582-.001.08.967-2.576 2.248-.58 1.466 2.283 1.97 4.43 1.94 7.147zm-3.316-6.644c.446-.814.8-.624 1.07-.414 1.05.82 1.81 4.132 1.635 5.417-.13.96-.617 1.43-.854 1.5-1.285.428-2.98-4.454-1.85-6.513z" fill="#464643"/><path d="M12.194 28.386s1.475-.208 2.388.987 1.41 2.465 1.72 4.333-.08 3.02-.276 3.572-.847 1.163-.847 1.163.68-.288.967-.834.407-1.135.474-2.126-.325-2.933-.422-3.277-.518-1.997-1.445-2.974-1.728-.997-2.56-.845z" fill="#424240"/><path d="M11.81 31.064s.532.085.9.666c.624 1.013 1.198 3.352.548 4.425-.17.282-.348.354-.348.354 1.592-.616.368-5.85-1.1-5.446z" fill="#181817"/><path d="M14.16 31.224c.3-.136.646 3.734 1.208 2.75.368-.645-.464-3.932-1.208-2.75z" fill="url(#O)"/><path d="M11.552 31.126c-1.147.59-.402 4.635.788 5.3.34.2.666.234.93-.306s.3-1.265.187-2.183c-.078-.638-.915-3.47-1.905-2.81z" fill="#afaca4"/><path d="M11.138 32.09s.217-.5.643-.578c.98-.18 1.813 3.324 1.228 4.202-.105.158-.29.78-.29.78 1.04.03.834-2.465.635-3.135-.183-.617-.462-1.477-.916-1.955l-.808-.313s-.543.21-.493.997z" fill="#bebbb2"/><path d="M12.115 34.995c.05.078.1.302.056.378.1-.038.272-.4-.056-.378zm.6-.28s.075.105.07.25c-.015.328.327-.587-.07-.25zm-.03-1.348c.1.115.096.274.063.415.185-.083.208-.372-.063-.415zM12.07 32.2a.41.41 0 0 1 .064.374c.292-.128.08-.457-.064-.374zm-.608.34c.073-.015.075.27.075.322.22-.13.112-.443-.075-.322z" fill="#eeebdf"/><path d="M12.145 34.918l.16.1c.044.036.07-.266-.16-.1zm.572-.29s.166.033.217.1.02-.295-.217-.1zm-1.188-2.15c.165.08.18.156.164.332 0 0 .2-.35-.164-.332zm.547-.33s.19.094.202.144.137-.383-.202-.144z" fill="#8d8c84"/><path d="M12.737 33.34c.106.078.13.123.17.243 0 0 .146-.32-.17-.243z" fill="#686661"/><path d="M12.027 32.988l-.456.348c-.06.05-.105.47.003.798s.266.384.345.407.453.066.453.066.207-.05.217-.53-.22-1.1-.56-1.1z" fill="#1d1e1c"/><path d="M11.667 33.26s.226-.033.353.37.102.693.05.785-.15.125-.15.125-.214.003-.364-.474.003-.776.113-.805z" fill="#292a28"/><path d="M27.775 33.523c1.024 1.085 2.417 1.378 3.716.604.646-.385 1.233-1.14 1.36-1.893l-5.076 1.288z" fill="url(#L)"/><path d="M32.607 32.297a3.4 3.4 0 0 1-1.032 1.779c.517-.318 1.256-1.235 1.276-1.84l-.245.062z" fill="#262624"/><path d="M30.48 34.52c-1.26.543-2.757-.28-3.005-.92l.35-.09c.672.823 1.615 1.128 2.655 1.01z" fill="#060606"/></svg>