<svg xmlns="http://www.w3.org/2000/svg" xmlns:xlink="http://www.w3.org/1999/xlink" width="163.839" height="163.839" viewBox="0 0 43.349 43.349" shape-rendering="geometricPrecision" image-rendering="optimizeQuality" fill-rule="evenodd" xmlns:v="https://vecta.io/nano"><defs><linearGradient id="A" x1="34.755" y1="13.793" x2="21.785" y2="13.793" xlink:href="#c"><stop offset="0" stop-color="#dfdfdf"/><stop offset="1" stop-color="#ededed"/></linearGradient><linearGradient id="B" x1="24.529" y1="24.941" x2="15.794" y2="25.806" xlink:href="#c"><stop offset="0" stop-color="#362e2b"/><stop offset="1" stop-color="#483d36"/></linearGradient><linearGradient id="C" x1="15.251" y1="20.576" x2="15.334" y2="26.078" xlink:href="#c"><stop offset="0" stop-color="#0f0403"/><stop offset="1" stop-color="#89502f"/></linearGradient><linearGradient id="D" x1="18.952" y1="21.515" x2="19.24" y2="21.515" xlink:href="#c"><stop offset="0" stop-color="#483d36"/><stop offset="1" stop-color="#33302e"/></linearGradient><linearGradient id="E" x1="14.945" y1="14.938" x2="18.498" y2="14.938" xlink:href="#c"><stop offset="0" stop-color="#1f408c"/><stop offset=".278" stop-color="#1058b3"/><stop offset="1" stop-color="#0070da"/></linearGradient><linearGradient id="F" x1="13.981" y1="16.325" x2="17.106" y2="16.325" xlink:href="#c"><stop offset="0" stop-color="#102666"/><stop offset=".302" stop-color="#144194"/><stop offset="1" stop-color="#195cc2"/></linearGradient><linearGradient id="G" x1="17.715" y1="15.791" x2="20.701" y2="15.791" xlink:href="#c"><stop offset="0" stop-color="#a6b0d3"/><stop offset="1" stop-color="#518ce4"/></linearGradient><linearGradient id="H" xlink:href="#D" x1="19.12" y1="21.739" x2="19.196" y2="21.739"/><linearGradient id="I" xlink:href="#D" x1="15.796" y1="21.605" x2="16.266" y2="21.605"/><linearGradient id="J" xlink:href="#D" x1="19.503" y1="21.634" x2="24.528" y2="21.634"/><linearGradient id="K" x1="24.814" y1="25.115" x2="25.622" y2="25.115" xlink:href="#c"><stop offset="0" stop-color="#7a7370"/><stop offset="1" stop-color="#cecfcd"/></linearGradient><linearGradient id="L" x1="13.253" y1="22.863" x2="25.08" y2="22.863" xlink:href="#c"><stop offset="0" stop-color="#5f3922"/><stop offset=".478" stop-color="#7f5541"/><stop offset="1" stop-color="#ae7f63"/></linearGradient><linearGradient id="M" x1="13.092" y1="22.84" x2="25.08" y2="22.84" xlink:href="#c"><stop offset="0" stop-color="#bb7b53"/><stop offset=".251" stop-color="#dea886"/><stop offset="1" stop-color="#dc9e79"/></linearGradient><linearGradient id="N" x1="18.896" y1="29.906" x2="20.498" y2="29.906" xlink:href="#c"><stop offset="0" stop-color="#494745"/><stop offset=".522" stop-color="#5c5a5b"/><stop offset="1" stop-color="#4b4a4b"/></linearGradient><linearGradient id="O" xlink:href="#D" x1="18.787" y1="21.688" x2="18.97" y2="21.688"/><linearGradient id="P" x1="18.852" y1="17.575" x2="18.808" y2="19.197" xlink:href="#c"><stop offset="0" stop-color="#a1cbff"/><stop offset="1" stop-color="#fbfffe"/></linearGradient><linearGradient id="Q" x1="13.737" y1="18.702" x2="13.812" y2="19.652" xlink:href="#c"><stop offset="0" stop-color="#7886aa"/><stop offset="1" stop-color="#1e4ba7"/></linearGradient><linearGradient id="R" x1="19.573" y1="28.345" x2="19.644" y2="29.226" xlink:href="#c"><stop offset="0" stop-color="#898687"/><stop offset="1" stop-color="#5f5e5c"/></linearGradient><linearGradient id="S" x1="24.95" y1="37.642" x2="27.224" y2="35.893" xlink:href="#c"><stop offset="0" stop-color="#353432"/><stop offset=".8" stop-color="#44403d"/><stop offset="1" stop-color="#534d49"/></linearGradient><linearGradient id="T" x1="14.852" y1="24.378" x2="12.95" y2="24.438" xlink:href="#c"><stop offset="0" stop-color="#1c1c1c"/><stop offset="1" stop-color="#474747"/></linearGradient><linearGradient id="U" x1="18.628" y1="37.43" x2="18.775" y2="39.323" xlink:href="#c"><stop offset="0" stop-color="#292825"/><stop offset="1" stop-color="#6f6967"/></linearGradient><linearGradient id="V" x1="15.115" y1="19.801" x2="15.523" y2="20.64" xlink:href="#c"><stop offset="0" stop-color="#b4afad"/><stop offset="1" stop-color="#bdb8ba"/></linearGradient><linearGradient id="W" x1="11.887" y1="37.657" x2="10.171" y2="35.518" xlink:href="#c"><stop offset="0" stop-color="#262323"/><stop offset="1" stop-color="#504441"/></linearGradient><linearGradient id="X" x1="8.886" y1="14.607" x2="28.58" y2="25.86" xlink:href="#c"><stop offset="0" stop-color="#494648"/><stop offset=".122" stop-color="#535051"/><stop offset=".412" stop-color="#413e3f"/><stop offset=".678" stop-color="#4a4749"/><stop offset=".902" stop-color="#4d4a4b"/><stop offset="1" stop-color="#373435"/></linearGradient><linearGradient id="Y" x1="24.762" y1="23.125" x2="24.456" y2="23.122" xlink:href="#c"><stop offset="0" stop-color="#6b4a36"/><stop offset="1" stop-color="#d08b63"/></linearGradient><linearGradient id="Z" x1="11.827" y1="36.419" x2="11.521" y2="36.149" xlink:href="#c"><stop offset="0" stop-color="#33322f"/><stop offset="1" stop-color="#807d81"/></linearGradient><linearGradient id="a" xlink:href="#Z" x1="11.364" y1="36.957" x2="10.796" y2="36.456"/><radialGradient id="b" cx="22.065" cy="16.96" r="21.913" fx="22.065" fy="16.96" xlink:href="#c"><stop offset="0" stop-color="#008efd"/><stop offset=".588" stop-color="#0b5cb4"/><stop offset="1" stop-color="#152a6b"/></radialGradient><linearGradient id="c" gradientUnits="userSpaceOnUse"/></defs><circle cx="22.089" cy="22.053" r="19.05" fill="#f0f0f0"/><path d="M32.805 37.69s.21.052.273.012.12-13.304.12-13.304.067-.003.077-.1-.022-.1.087-.122.22-.06.235-.14-.003-.46-.003-.46l1.015-19.255s-.006-.08-.064.058-1.03 19.298-1.03 19.342l-.226.02c-.145.023-.177.046-.223.148s-.058.17-.157.165-.473-.072-.67-.07.043.023.3.087.258.093.27.183l.087.186c-.003.104-.088 13.242-.088 13.242z" fill="#8e8e8e"/><path d="M33.085 37.635l-.046-1.086.006-3.365c.006-.18 0-.51.052-.51s-.003 4.705-.013 4.962z" fill="#ababab"/><g fill="#555"><path d="M32.834 24.298s.042.1.128.132h.234l.078-.136c.001-.012-.44.003-.44.003z"/><path d="M33.225 23.747c.002.008-.213.207-.093.37.025.033.197.035.222.02s.06-.078-.023-.08l-.177-.006.022-.067c.055-.012.123-.183.11-.21l-.06-.03z"/></g><path d="M24.7 23.34l8.422.776.378-.376 1.067-19.488c.18-.367-.033-.784-.267-.69-1.078.43-11.775.636-11.837.714-.046.058-.058.203.017.273s.36.064.365.28c.124 4.6-.792 10.693-1.07 15.64l2.925 2.874z" fill="url(#A)"/><path d="M24.753 22.96l8.483.714s-.033.355-.262.376-1.297-.09-1.297-.09l-6.966-.617.043-.382z" fill="#dadada"/><g fill="#5e5c5c"><path d="M30.926 22.823l.026.14.084-.064-.003.14.08-.1c.13-.186.135.085.148.087h-.142c-.47.262-.24-.338-.194-.203zm.476.203l.052-.125.122.096.113-.067.046.06.072-.04.096.046.1-.012.058-.015c.136.305-.18.08-.223.087-.26.037-.175.06-.435-.032z"/><path d="M30.842 22.597l.1.125.133-.01c.188.188.19-.09.305.026.075.075.104.096.154.064l.075-.03c.076.025.262.05.34.026.01-.003.342-.124.18-.107-.083.008-.293.047-.33.006l-.05-.043c-.235.02-.258.026-.302-.015-.124-.116-.4.033-.487-.026l-.107-.017z"/></g><path d="M31.967 23.963c-.002.02-.015-.12.026-.13.104-.03.226.185-.026.13z" fill="#7f7f7f"/><path d="M32.362 23.89c.006-.244.358-.074.212.046-.05.04-.182.06-.212-.046z" fill="#3f3f3f"/><path d="M33.12 23.663l.197-3.173.453-7.816.503-8.307c.023-.15.134-.215.284-.244s.184-.106.184-.242-.192-.287-.28-.3-.244-.072-.247.072.017.383-.02.383-1.15 19.643-1.15 19.643l.074-.007z" fill="#979797"/><path d="M34.516 3.71l.012.313.08-.006-.02-.294z" fill="#5b5b5b"/><path d="M34.136 4.33l-.003-.232h.154z" fill="#171717"/><path d="M34.133 4.152l-11.28.65-.032-.08-.104-.08 11.422-.618-.005.128z" fill="#b1b1b1"/><g fill="#1c1c1c"><path d="M32.628 4.106s.025.126.07.146.135.014.16-.012l.036-.135-.266.001z"/><path d="M32.118 4.17s-.013.093.06.13.17-.122.17-.122l-.232-.01zm-1.254.058l.043.1c.045.02.14-.03.16-.07s-.203-.04-.203-.04zm-5.1.282s-.007.095.044.118.156-.012.18-.034V4.5h-.225zm-1.59.085s-.008.094.073.124.13-.01.155-.046l.03-.097-.257.02z"/><path d="M24.672 4.578s-.006.102.068.125.1-.036.138-.087l.026-.052-.232.015z"/></g><path d="M30.723 3.788c.002.023-.1.1-.08.192s.194.125.194.125l1.76-.1-.02-.314-1.853.097z" fill="#7b7b7b"/><path d="M31.42 3.8s-.013.19.012.22h.21l-.002-.226-.22.007z" fill="#595959"/><path d="M32.505 3.71l-.003.3.084-.004v-.3l-.08-.006z" fill="#464646"/><path d="M25.85 4.785l.01.078c.017.02.344.015.37.013s.052-.14.03-.15a2.83 2.83 0 0 0-.38-.006l-.03.064zm.625-.065l.01.1a.52.52 0 0 0 .299-.022l-.007-.08-.302.004zm.53 0l.02.072a1.19 1.19 0 0 0 .367-.004l.007-.1-.393.022z" fill="#a3a3a3"/><path d="M27.62 4.722l.042-.068.32-.01.192-.142c.088-.032.252-.03.287-.007s.17.075.28.086l.28.004v.128c-.013.01-.434.026-.48-.003a.53.53 0 0 0-.268-.064l-.323.055-.33.02z" fill="#818181"/><path d="M27.565 4.723l.032.072c.01.006.248-.04.354.025s.25.12.323.112l.307-.077.2-.075.006-.054-1.233-.002z" fill="#c4c4c4"/><g fill="#777"><path d="M29.267 4.568l-.012.126.142-.054h.402l-.007-.088-.525.014z"/><path d="M29.956 4.5s-.04.142.002.15l.38.006.075-.07.003-.086s-.18-.017-.24.013l-.157.052-.062-.067z"/><path d="M30.54 4.494l.016.075.138.013.136.054c.016-.013-.006-.062.097-.062l.25-.015-.02-.07-.617.006z"/></g><path d="M22.536 4.562l-.015-.186.01-.122-.076.048c-.026.054-.038.236.08.26z" fill="#c3c3c3"/><path d="M22.724 4.645s.088.048.128.138.216.18.216.18l-.006-.325-.338.007z" fill="#afafaf"/><path d="M23.075 4.9c-.008 0-.956 13.503-.956 13.503l-.064-.174.948-13.363.07.034z" fill="#bbb"/><path d="M22.908 4.864l-.937 13.2-.05-.013.936-13.225z" fill="#cdcdcd"/><path d="M33.986 4.687l-10.862.574.003.073.3.01-.98 14.07.1.015.976-14.12.32-.022-.99 14.15.073.014 1-14.167.31-.013-1.002 14.223.093.015.973-14.244.318-.007-.965 14.266.096.006.95-14.276.313-.01-.95 14.305.1.015.946-14.323.342-.01-.98 14.33.084.014.978-14.36.34-.013-1.01 14.378.09.004.995-14.39.318-.01-.96 14.523.064.012.97-14.54.325-.012-.966 14.88.07.052.972-14.94.348-.01L26.05 20.7l.07.104 1.044-15.65.313-.017L26.294 23.1l.093.008 1.168-17.983.345-.01-1.172 18.02.098.008 1.176-18.03.354-.015-1.208 18.09.097.026 1.192-18.124.31-.02-1.176 18.14.106.017L28.84 5.055l.338-.014-1.152 18.195.082.007 1.175-18.207.335-.007-1.144 18.245.078.006 1.14-18.257.35-.016L28.9 23.31l.088.007 1.138-18.334.384-.016-1.163 18.38.094.008L30.578 4.96l.36-.01-1.164 18.43.088.007 1.155-18.438.35-.012-1.126 18.496.09.004 1.117-18.516.322-.015-1.053 18.552.094.008 1.074-18.586.32-.01-1.083 18.62.098.024 1.065-18.644.397-.01-1.092 18.668.085.007 1.11-18.68.336-.023-1.097 18.733.093.008L33.2 4.82l.4-.017-1.088 18.793.112.025 1.05-18.825.386-.022-.004-.1z" fill="#dcdcdc"/><path d="M23.063 5.66c-.043-.003 11.018-.482 11.018-.482l-.026.104-10.986.476-.02.37 11.007-.432.003.096c.02.001-11.02.424-11.02.424l-.023.435 11.007-.458-.006.087-11 .448-.017.367 10.998-.377-.006.093-10.99.37-.03.377 11.032-.34-.01.16-11.043.257-.017.406 11.04-.315-.005.08-11.05.314-.046.383 11.042-.267-.012.096-11.052.25-.004.387 11.067-.226-.005.08-11.077.224-.03.38 11.082-.198-.007.12-11.087.17-.032.374 11.095-.14-.005.08-11.094.15-.01.384 11.077-.093-.005.1-11.08.08-.003.392 11.024-.075-.006.093-11.02.075-.026.368h11.057l-.005.084-11.06-.006-.045.44 11.082-.03-.023.1-11.07.032-.022.395L33.67 12.3l-.003.087-11.068-.003-.026.41 11.094.052-.005.085-11.098-.053-.026.363 11.085.075-.026.08-11.07-.084-.035.374 11.117.162-.02.09-11.117-.177-.018.393 11.125.218-.006.098-11.123-.23-.017.363 11.134.258-.022.096-11.11-.226-.023.36 11.107.305-.006.102-11.1-.328-.017.44 11.08.33-.017.08-11.062-.34-.03.395 11.073.325-.01.093-11.068-.3-.04.368 11.117.395-.004.078-11.126-.412-.032.4 11.108.453-.015.104-11.097-.48-.032.396 11.115.47-.004.087-11.118-.5-.032.415 11.15.534-.005.08-11.156-.55-.022.432 11.123.554-.012.122-10.902-.583-.032.357 10.945.656-.005.1-10.96-.688s-.43.213-.43.347-.215.215.093.37.383-.26.383-.26l10.893.62-.005.082-10.71-.584 3.017.58 7.665.47-.005.092-7.98-.498s-.667.406-.7.458.365-.052.365-.052l8.283.47-.007.126-8.386-.533-.19.145.122.226 8.396.604v.087l-8.77-.65.334.406 8.443.656-.005.087-8.513-.67.122.48 8.366.645-.034.083-8.495-.635.145.395 8.326.696.003.078-8.558-.708s-2.396-2.083-2.605-2.338-.192-.66-.157-.777l.36-1.146.975-12.656z" fill="#dbdbdb"/><path d="M31.773 18.18l.655-.017-1.542-2.43-1.33.657-1.88-3.016c0-.02-1.17.953-1.17.953l-2.303-4.548.52-.29-1.582-1.22-.2 2.034.54-.252 2.85 5.103 1.134-.786 1.883 2.675 1.448-.865.978 2.002z" fill="#ff5321"/><path d="M23.503 10.102l-.564.23.003-.03.54-.252zm.73-.266l.58-.367-1.672-1.2 1.582 1.22-.52.3zm2.096 5.317l.035.017 1.157-.72-.058-.082zm4.5 1.073l-1.417.877-.04-.07 1.434-.856z" fill="#d44633"/><path d="M30.574 35.052c.067.015.165.015.23-.01l-.7-11.224-.307-.027.778 11.26z" fill="#969696"/><path d="M20.636 35.664c.047.023.262.1.3.052l.946-8.317-.3.453-.946 7.813z" fill="#868686"/><path d="M9.934 9.94s.067.41.035.5l-.197.264c0 .035.215-.075.215.365 0 3.36.747 5.747 1.076 8.898 0 0 .104 1.224-.08 2.28-.188 1.07-.365 2.793.64 3.525.192.14.91.052 1.915.26 1.45.302 2.16.23 2.7 1.63.033.014.727.295.586.33-.035.01-2.646.2-2.77.255s-.676.928-.676.928c-.236-.1-.95.808-.972.943-.023.15.203.39.528.366.433-.03.684-.94.598-1.178-.07-.195.44-.92.583-.975s3.06-.244 3.06-.244.052.273.154.307c.216.074.89.084.902.467l.006.28h.725v-.348h.15l.006.458h-.238l.18 1.224c.568.004.89.05 1.427-.157l-.064-1.155-.226-.087-.012-.667s.192-.003.22-.052l.183-.273 1.4-.154c.058-.023.482-.39.482-.39.773-.077 1.83-.086 2.385-.685l2.25-.203c.52-.157.588-.597.215-.806-.33-.185-2.97-.787-3.534-.934l-3.98-9.25c-.326-1.263-.272-5.135-.46-5.57-.043-.102-.412-.096-.55-.067-.93.194-7.978.025-8.864-.1z" fill="url(#X)"/><path d="M9.587 10.6s-.128-.145-.078-.43.387-.3.426-.232.072.325.035.5-.18.23-.18.23-.122.016-.203-.07z" fill="#bbb4af"/><path d="M9.65 10.604s-.122-.142-.1-.232l.174-.194-.05-.177c.067-.043.168-.02.177.073l.012.136c.105.014.14.043.093.072s-.125-.072-.183.078l-.125.244z" fill="#8f857d"/><path d="M19.328 10.07s.134.017.175.203-.115.423-.115.423.025-.44-.06-.627z" fill="#979795"/><path d="M9.894 10.743s.148-.096.172-.325l.015-.354s.615.075 1.117.078 1.326-.072 1.326-.072l-1.62-.065-.967-.065s.05.05.073.284-.182.427-.186.458l.072.06z" fill="#3b3839"/><path d="M18.555 10.108l.496.017c.203.012.21-.015.223.038s.052.908.078 1.352l.226 3.46c.087.493.23.7.23.7l-.264-1.962-.19-3.563s-.078-.093-.166-.12-.576.032-.632.086z" fill="#343132"/><path d="M10.168 10.36l5.49.168c.39 0 3.41-.06 3.627-.27l.077 1.403c-3.002.22-5.99.205-8.995.063.448-.003 9.297-.164 8.54-1.108-.046-.058-.418.023-1.735.104-.598.037-7.15-.084-7.122-.2.012-.052.022-.148.12-.15z" fill="#363334"/><path d="M10.25 12.925c2.232-.022 6.596-.375 8.622-.052.36.057-5.864.226-8.622.052z" fill="#2b2b2b"/><path d="M10.342 14.184l8.843-.133-8.843.133z" fill="#2f2c2d"/><path d="M10.554 15.46c1.516-.17 3.018-.116 4.532-.215l-.104.128-4.427.087z" fill="#312e30"/><path d="M10.7 16.546l3.5-.14-.064.1-3.446.04z" fill="#333031"/><path d="M22.015 19.352l3.19.333c.307.113.3.206.246.2l-3.642-.357.204-.176z" fill="#444142"/><path d="M13.182 25.293l.043-4.484-.13-.084-.003-1.018.737-.157 11.25.106-.004 1.075-.284.035-.1 4.77-9.404.596z" fill="url(#M)"/><path d="M13.82 19.552s.37.437.597.512.66-.038 1.053.084c.612.19 6.666.483 6.832-.45.023-.13-.015-.102-.057-.137l-.435-.033-8 .023z" fill="#8a6e5b"/><path d="M10.937 17.776c.995-.188 1.944-.218 2.947-.273l-.03.14-2.918.133z" fill="#393637"/><path d="M11.256 18.907c.89-.147 1.66-.165 2.553-.197l-.035.087s-1.868-.017-2.518.1z" fill="#353233"/><path d="M12.33 19.98c.26-.065.483-.1.75-.1l.003.116-.754-.006z" fill="#2e2b2c"/><path d="M11.233 21.344c.4-.156 1.587-.287 1.996-.215l-.017.093s-1.442-.01-1.978.122z" fill="#191919"/><path d="M11.06 22.5c.675-.186 1.452-.264 2.152-.268v.14s-1.375-.035-2.152.13z" fill="#111"/><path d="M10.92 23.735c.578-.15 1.726-.43 2.28-.414v.15s-.807-.05-2.28.263z" fill="#1c1c1c"/><path d="M10.1 10.068l5.635.148c1.6.058 3.34-.094 3.428-.087s-.14.163-.284.238c-.716.374-7.48.094-8.816-.014 0 0-.028-.268.037-.285zm.908.572c.004-.055 6.768.147 7.623-.034 0 0-4.182.304-7.623.034zm-.522 1.177c2.8.294 5.607.295 8.402-.046l-8.402.046z" fill="#5b5658"/><path d="M24.924 19.65l-.001 1.013-9.53-.085-2.14.157.006.163 1.953-.16.006 5.338.142.003.05-5.398 9.05.1.007 4.742.22-.096.074-4.697h.317l.004-1.073z" fill="url(#L)"/><path d="M10.473 13.134c2.683.168 5.907.287 8.54-.162l-8.535.104-.006.058zm.407 1.156c.003-.082 7.415-.117 8.25-.197l-8.25.197z" fill="#5b5658"/><path d="M10.142 13.804c-.063.004.232 2.164.325 2.683l.5 2.736.085.743.083-.006-.496-2.927-.508-3.23z" fill="#333331"/><path d="M10.93 23.163l.226-1.735c0-.174-.337 1.4-.226 1.735z" fill="#353233"/><path d="M10.902 24.184c-.034.004.158.925.44 1.324l1.702.48.14-.696c-1.445.33-1.904.577-2.28-1.108z" fill="#202020"/><path d="M10.518 20.19c-.2.18-.582.9-.635 1.157-.107.515.884.284 1.22.247l-.018-.404-.257.006.263-.61s-.512.058-.573-.398z" fill="#cec1b8"/><path d="M10.08 21.093c.21.336.58-.41.64-.58l-.272-.254s-.334.543-.37.833z" fill="#70695c"/><path d="M9.984 21.18c-.022-.012.02.28.12.247.2-.07.044-.395-.12-.247zm.416.186c.2-.067.734-.068.453.044-.045.018-.483.073-.453-.044z" fill="#e0e2e0"/><path d="M9.94 21.204c-.338.657.72.455 1.1.398 0 0-.768.028-.823-.042s-.026-.194-.116-.133-.162.142-.183.075.02-.298.02-.298z" fill="#96918a"/><path d="M10.213 21.453s-.002.15.038.142.775-.02.813-.02.01-.086-.068-.072-.734.035-.783-.05z" fill="#292825"/><path d="M10.42 21.36c.425-.033.562-.4.626-.77l-.316-.13c-.055.134-.387.8-.31.9z" fill="#2a2929"/><path d="M10.683 20.533c.014.006-.166-.14-.157-.295s.142-.222.44-.283 2.773.14 2.94.18.252.154.258.212c.02.21-.69-.418-.69.313 0 .032-2.205-.064-2.383-.072s-.408-.056-.408-.056z" fill="#312e30"/><path d="M10.654 20.185l2.733.18s.026.223.003.226-2.576-.206-2.69-.232-.13-.104-.046-.174z" fill="#403f3d"/><path d="M13.392 20.415s.102-.15.308-.187c.907-.166 1.076 1.3 1.082 1.88.01.913-.922.524-.922.39.053-1.492-.446-1.77-.468-2.082z" fill="#dcdcd5"/><path d="M14.646 22.588s-.182-.107-.182-.42v-.4s-.064.1-.1.267l-.046.55.328.003z" fill="#ecebe2"/><path d="M15.246 25.86l-2.055-.806.01-.4 2.045.743-.001.464zm-.646-.484c.064.168.29.148.36.174.078.03.084.006.06-.043l-.15-.026-.072-.1-.197-.006z" fill="#352d27"/><path d="M15.073 25l-1.117-.3.026-.116 1.1.354zm-.035-.63l-1.64-.395.023-.078 1.625.4zm.035-.614L13.4 23.43l.017-.07 1.67.325z" fill="#b07856"/><path d="M13.466 20.452c.59.663.44 2.14.457 2.15.103.06.284.067.4.073 0 0-.037-.664.138-.907.765-1.062-.827-1.76-.997-1.314z" fill="#c1b8b3"/><path d="M13.122 25.594c.162.06.933.212.868.496-.082.358.82-3.02.838-3.722 0 0-.14.25-.406.305a.57.57 0 0 1-.563-.176c-.062-.07-.886 3.04-.738 3.097z" fill="url(#T)"/><path d="M10.83 23.076s-.08.62-.04 1.23.215 1.114.598 1.485l1.044.377s-.174.012-.18.075l-.006.116s.44-.023.58.046.168.145.464.18.952-.04 1.497.1.68.267.83.395.267.1.267.1.006.197.08.325.424.162.487-.163-.03-.522-.192-.598-.348.122-.348.122-.32-.267-1.04-.453-.79-.22-.885-.322-.125-.3-.142-.316-.665-.158-.665-.158l-.14.372s-1.277-.057-1.53-.334-.683-.618-.683-2.58z" fill="#dbdbd7"/><path d="M11.32 25.7c.474.264 1.22.34 1.503.516.1.06-.015.087-.113.058-.168-.05-.47.154-.462.03.008-.11.07-.14.184-.133 0 0-.754 0-1.11-.47z" fill="#938d89"/><path d="M12.94 26.475l.997-.088c.064-.087.1 0 .122.035.004.006 1.532.304 1.85.598.07.063-.192.023-.33-.075s-.65-.273-1.236-.377-1.37-.012-1.403-.09z" fill="#867f7a"/><path d="M12.917 26.116c.02.3.18.295.435.223 0 0-.354-.087-.435-.223z" fill="#9a8f84"/><path d="M13.224 25.718s-.072.18-.055.302.23.22.415.258.165-.48.165-.48-.5.01-.525-.08z" fill="#b4afa3"/><path d="M13.735 26.225c.07.11.593.08.722.076 0 0-.56-.04-.61-.087l-.04-.145c-.045.01-.073.157-.073.157z" fill="#7d797b"/><path d="M16.036 26.94s-.055.35-.026.43.12.183.163-.046 0-.47-.136-.383z" fill="#b9b4b0"/><path d="M25.075 20.632c.257.32.312.964.238 1.358l.294.102s-.01-.725.07-.927c.195-.502.508-1.107-.41-1.33-.14-.034-.213-.008-.213-.008l.023.806z" fill="#c1b8b3"/><path d="M25.622 22.05c-.015 0 .26-.01.41-.08l.136-.087c.008-.274-.072-1.296-.28-1.456 0 0-.072.455-.145.574-.173.284-.14.72-.122 1.05z" fill="#d5d3d1"/><path d="M25.622 22.05l.174-.018c.033-.005.086-1.073.14-1.2-.402.347-.35.735-.313 1.227z" fill="#eae6e2"/><path d="M24.848 25.087s.064-.174.145-.186.307.012.505-.017c.353-.052.676-2.63.754-3.035l-.94.14c-.086.097-.476 2.665-.466 3.097z" fill="#313132"/><path d="M24.924 24.885c.028.035.215-1.102.28-1.393s.194-1.37.2-1.416-.1-.087-.1-.087l-.2 1.387-.263 1.41c-.004.15.026.314.074.1z" fill="#131316"/><path d="M25.602 25.396l.02-.562c-.145.066-.7.062-.705.08l-.09.214-.015.056.788.212z" fill="url(#K)"/><path d="M16.466 27.044c2.35-.024 8.632-.44 10.62-.958.267-.07.258-.2.003-.165s-5.634.493-7.363.685-3.37.223-3.37.223a.41.41 0 0 0 .112.216z" fill="#535051"/><path d="M14.092 25.63l-.088.4c.098.1 1.654.745 1.787.752.2.01.172.043.28-.03l-.222-.38c.198-.378 7.805-.406 8.8-.754.258-.09.332.764 1.38-.1l-1.33-.357-.006.324-.154.07c-.052.015-9.153.57-9.205.586-.073.025-1.176-.453-1.232-.503z" fill="#323232"/><path d="M16.265 26.416l7.763-.58c.615-.03.795-.1.65-.122s-1.8.052-2.914.122l-5.95.516c-.012.05.45.064.45.064z" fill="#3c3c3e"/><path d="M26.97 25.868s.267-.023.354.186.058.424-.66.493l-10.03.925-.212-.034c-.07.028-.174.224-.174.224l.23.1c.07.032-.02-.056.502-.154s9.403-.76 9.91-.9.526-.116.582-.32-.04-.604-.5-.5z" fill="#2a2627"/><path d="M16.783 27.652a.63.63 0 0 0 .329.142c.5.068 7.21-.478 7.334-.772.028-.066-4.584.395-4.584.395l-3.08.235z" fill="#070506"/><path d="M17.106 27.87l5.5-.458c.04-.048-4.954.41-5.378.383s-.616-.174-.65-.156.528.232.528.232z" fill="#383536"/><path d="M22.47 27.544c-.654.328-2.768.115-3.524.336-.168.05-.513.1-.554.1s.22-.16.682-.197l3.396-.238z" fill="#120e10"/><path d="M17.81 27.967c.108.178-.02.268-.015.313s.348-.177.015-.313z" fill="#181715"/><path d="M13.014 29.66c-.15.142-.7.577-.352.776.58.34.92-.7.883-1.114-.11.435-.53.785-.53.338z" fill="#191617"/><path d="M18.657 27.942s-.023.188.006.208l.134.003.087-.218-.226.007zm.843-.002c.007.254-.056.382.145.348.096-.016-.043-.3-.087-.342l-.058-.006z" fill="#797876"/><g fill="#0a0a0a"><path d="M21.474 27.997l-.776.08c-.135.024-.123-.188-.095-.217.114-.114.977.126.87.137z"/><path d="M19.753 27.926s-.142.264-.125.313.717-.02.74.017-.7.062-.784.056-.12.055-.005.078c.424.085.757.08.997-.27.023-.033-.028-.164-.078-.178s-.746-.015-.746-.015z"/><path d="M18.895 28s.01.268.05.287c.09.042.5.064.563-.054a.49.49 0 0 0-.007-.293c-.045-.032-.5.06-.606.06z"/><path d="M18.662 28.15c.25-.042.15.17.14.17l-.065-.022-.048-.054-.028-.094z"/></g><path d="M16.398 27.633s.39.14.627.273.667.035.673.128-.58.06-.58.06c-.274-.17-.575-.3-.87-.43l.238-.308-.087.28z" fill="#221f1c"/><path d="M18.108 28.642s.213-.048.27-.118.116-.2.21-.22c.372-.08.618.46.406.47-.067.003.043.28-.058.305s-.22.04-.22.128l.02.43.21-.004.023.16-.226-.004-.01 2.936h-.16l.004-2.936c-.134.001-.64.038-.615-.177.014-.123.504.1.596-.002.023-.023.008-.404.048-.467s.054-.283.045-.298c-.124-.206-.28.198-.297.23l-.1.067c-.012 0 .06-.35-.15-.5z" fill="#191814"/><path d="M19.443 28.405c-.148.22-.058.637.058.86l-.373-.01c-.001-.093-.064-.767-.001-.8.055-.038.316-.038.316-.038zm.38-.003l.113.803c.074.005.605.107.384-.084-.2-.165-.12-.45-.125-.7 0 0-.248-.044-.372-.01z" fill="#393638"/><path d="M19.4 28.502s.108.42.198.53c.155.2.22-.48.2-.63 0 0-.34-.052-.388.1z" fill="url(#R)"/><path d="M19.574 29.23c.006-.044.25-.1.24 0-.001.005-.255.2-.24 0z" fill="#bab7b9"/><path d="M18.896 29.293s.065 1.115.174 1.184c.27.17 1.132-.057 1.427-.157l-.064-1.155-1.537.128z" fill="url(#N)"/><path d="M18.187 28.72l.006.73s-.28.06-.3.125-.012 2.913-.012 2.913l.136.075.017-2.773s-.095-.088-.08-.18.3-.057.3-.057.087-.685-.078-.832zm.93 1.775l-.005 2.064.104-.093.006-1.954z" fill="#9b9b9b"/><path d="M18.275 29.46c.123.065.04-.222.14-.222l.05.235.038-.012v-.318h-.245l.017.317z" fill="#e2e4e3"/><path d="M18.735 29.636l.148-.003.003-.083c-.058-.068-.09-.313.032-.325l.13-.072v.1h.08l-.004-.476-.158.001-.001.316-.225.073-.005.47z" fill="#b6b7b7"/><g fill="#eaeaec"><path d="M18.045 29.79c.424-.004.536-.144.535.255l-.004 2.677c-.154-.004-.45-.026-.548-.158l.017-2.773z"/><path d="M18.744 29.787l-.01 2.936a.7.7 0 0 0 .398-.183l-.015-2.046c-.13-.188-.116-.483-.148-.704l-.226-.004z"/></g><g fill="#eaeaea"><path d="M14.865 32.447c.512-.445 2.095.08 2.644.256 0 0-.005.108-.158.22s-.9.204-.9.204c-.803-.546-.885-.66-1.248.203l-.885.172c.01-.292.353-.887.547-1.055zm5.752.653s.843-.37 1.1-.398.418.33.453.505l.047.26.87.243s.033-.53-.193-.873-.667-.586-1.224-.647-1.497.14-1.78.215l-.477.147s.187.44.378.52.816.03.816.03z"/><path d="M11.126 35.787c.408-1.605 1.83-2.095 3.312-2.308l3.076-.32.007.815-2.392.17c-.946.005-2.683.043-3.122 1.12-.128.313-.15.453-.15.453-.333.44-.472-.045-.73.07zm8.32-1.943s.157.093.638.174 3.458.296 3.615.337.905.342 1.224.783a3.13 3.13 0 0 1 .423.754s.168.08.36-.104.1-.307.104-.377-.545-.87-1.195-1.282-4.046-1.035-4.046-1.035l-.98.107-.145.644z"/></g><path d="M17.89 32.49l-.303.095c-.154.085-2.454-1.004-2.95.17.382-.786 2.252-.23 2.86-.006 0 0-.07.15-.238.226-.42.188-4.117.58-4.207.94-.017.07.26.215.26.215 1.376-.375 2.768-.692 4.183-.876 0 0-.03.644.023.72s.505.215.505.215-.035-.656.174-.812.33-.174.33-.174 0 .186.116.145.104-.017.197.046.145.238.18.435l.02.367s.313-.02.482-.158.128-.505.134-.653.038-.128.107-.128c1.24 0 2.963.862 4.01.882l.43.006c-.47-.39-3.662-1.126-4.45-1.172-.22-.41 2.154-.553 2.636-.482.015.002-.924-.51-2.75.197 0 0-.247-.172-.342-.192s-.444.186-.505.3c-.252.43-.683-.2-.903-.298z" fill="#393939"/><path d="M17.9 32.5c-.788.166.238.474.238.403 0 0-.418-.218-.238-.403zm1.345 0c.005.018.537.144.418.377l-.66.012c-.035-.01.482-.072.244-.4z" fill="#554a3c"/><path d="M18.318 32.812s.04.054.177.09.308-.088.308-.088-.43-.028-.484-.003z" fill="#d0ccca"/><path d="M14.473 33.376c.14-.392.284-.938.804-.867a.41.41 0 0 1 .284.2c-.073-.02-.677-.13-.508.072.073.087.165.16.13.284l-.1.223s-.12-.255-.218-.293c-.1-.042-.164.308-.403.38z" fill="#5a5a5a"/><path d="M17.196 32.988c-.452-.166-1.315-.5-1.775-.425l.1.18c.223-.145.708.243.912.372l.763-.128z" fill="#b8b8b8"/><path d="M21.975 32.692c.18.21.348.426.348.717.255-.727.414-.147.554.026.078.096.238-.52-.583-.795-.052-.017-.05.04.08.197s.04.206-.03.113-.226-.37-.37-.258z" fill="#606060"/><path d="M20.1 32.944c.48-.205 1.166-.36 1.68-.24-.177.03-1.34.19-1.117.233.125.023.585-.053.585-.053l-.04.34c-.306-.283-.696-.166-1.11-.28z" fill="#b5b5b5"/><path d="M11.71 35.738s.08-.377.415-.78.88-.644 1.2-.734.522-.038.522-.038-.666.04-1.35.503-.637 1.13-.637 1.13-.168-.003-.16-.08z" fill="#c8c8c8"/><path d="M11.505 34.942c.47-.588.478-.527 1.06-.538.302-.006.69-.25.69-.25s-.215-.21-.035-.267.572-.283.572-.283-1.675.196-2.287 1.337z" fill="#a7a7a7"/><path d="M12.38 34.343c.156-.218.454-.422.725-.444l.208.232-.144.07s.13-.13-.005-.16-.506.12-.784.3z" fill="#929292"/><path d="M13.177 34.273l4.003-.676c.168-.012.186.087.22.104l.022-.436c-.55.094-4.144.672-4.245 1.008z" fill="#fefefe"/><path d="M23.986 34.028c.37.093 1.24.613.99 1.037-.127-.213-1.276-.735-1.6-.928 0 0 .07-.04.412.003s.55.1.2-.112z" fill="#a0a0a0"/><path d="M23.614 34.24c-.014.026 1.053.433 1.187.493 0 0-.055-.154-.133-.252l-.134-.174c.28.102.49.7.476.708 0 0-.54-.436-1.395-.775z" fill="#6d6d6d"/><path d="M19.66 33.252s.006.305.073.374l2.074.302c1.085.186 1.398.337 1.398.337l.55.086s-.704-.375-2.202-.713l-1.892-.386z" fill="#fff"/><path d="M18.53 33.203s-.355-.006-.46.418-.198 1.607-.198 2.03.33 2.037.33 2.037l.76-.215.232-.116s.07-1.613-.023-2.245-.046-1.926-.642-1.91z" fill="#eaeaea"/><path d="M17.954 35.68l.226-1.538c.07-.412.125-.665.25-.75s.3-.006.37.255.395 1.583.405 1.84l.015.58c.053-.534-.1-2.2-.334-2.634-.12-.214-.397-.385-.575-.134-.424.597-.494 2.28-.365 2.993l.007-.613z" fill="#aaa8aa"/><path d="M18.447 34.224c-.158.302-.28 1.26-.284 1.265-.116.14-.192.226-.023.122s.238-.238.22-.08-.046.36.08.4.43-.15.57-.244.07-.627-.058-.905-.273-.598-.325-.58l-.04.348c-.052.064-.14-.325-.14-.325z" fill="#393939"/><path d="M18.413 37.28l.464.017c.03-.003-.02-.543.058-.775.048-.142.105-.866.106-.868-.3.253-.672.365-.8-.117 0 0-.1.065-.11.14s.035.487.145.804c.092.265.232.495.136.798z" fill="#989898"/><path d="M18.195 37.46s.023.28-.018.33-.186.14-.21.61.122.79.186.83c.124.08.188-.357.197-.43l.644.012s.04.348.116.395.232-.128.284-.493c.062-.434-.193-.82-.215-1.27l-.986.017z" fill="url(#U)"/><path d="M19.17 38.413l.04.766c.15-.338.32-.485-.04-.766zm-1.2-.013c-.03.367.014.5.186.83 0 0 0-.83-.186-.83z" fill="#3a312b"/><path d="M18.183 38.84l.02.395c.094-.12.12-.25.142-.396h-.163zm.817.005s.04.316.112.363.08-.37.08-.37l-.193.01z" fill="#c1b4a8"/><path d="M11.166 35.735s.122-.01.2.04.174.043.28.023.174-.06.25-.026c.44.203-.298 1.675-.914 1.64-.405-.024-.503-.302-.714-.586-.55-.742.9-1.03.896-1.09z" fill="url(#W)"/><path d="M10.5 37.093c-.03.02-.064-.43.07-.667.236-.42 1.004-.214 1.15.433 0 0-.325.55-.588.545s-.534.003-.633-.3z" fill="url(#a)"/><path d="M11.33 36.008c.09-.018.486.492.537.622 0 0 .148-.298.148-.494s-.546-.157-.685-.128z" fill="url(#Z)"/><path d="M11.723 36.858c-.05-.945-.627-.827-1.332-.793 0 0 .255-.158.446-.208s.218-.105.374-.093l.376.14c.116.01.07-.175.234-.144s.22.216.194.405c-.028.208.153-.142-.473-.18l-.447-.044c.562.04.605.638.766.57l.102-.035-.24.383z" fill="#131011"/><path d="M13.843 34.205c-.06.35.106.996.58.78.267-.122.26-.22.26-.22.095.38.658.188.638-.62l-1.48.062z" fill="#31302d"/><path d="M14.74 34.203s.194.342.3.406.157-.395.157-.395l-.447-.012z" fill="#404043"/><path d="M14.544 34.92s.135-.122.167-.195-.093-.534-.093-.534c-.105-.04-.073.65-.074.73z" fill="#71675d"/><path d="M25.262 35.84s-.26.04-.273.244.116.534.14.685c.147.96.492.694 1.108.54.96-.24.633-1.344-.21-1.398-.18-.012-.105-.1-.296-.058l-.47-.012z" fill="url(#S)"/><path d="M25.235 35.845s-.293.063-.243.323c.18.927.14 1.425 1.076 1.205l.204-.075c.175-.085.322-.203.374-.243.072-.055.038-.162-.12-.072-.487.28-1.018 1.02-1.352-.316-.04-.163.046-.328.226-.403s-.77.132-.167-.418z" fill="#211c19"/><path d="M25.683 36.25c.298.14.45.678.458.986.464-.667-.238-1.17-.458-.986z" fill="#716e6c"/><path d="M21.892 34.19s.09.436.275.633.44.14.44.14.122.15.37.157.412-.232.51-.412.093-.37.093-.37l-1.69-.147z" fill="#3c393b"/><path d="M22.138 34.282s-.01.252.015.365a.2.2 0 0 0 .27.107c.058-.055.122.216.122.216s-.267.026-.41-.184-.236-.563-.236-.563l.24.058z" fill="#171613"/><path d="M22.57 34.345s-.096.168-.104.325.115.297.115.297l-.01-.622z" fill="#837d78"/><path d="M16.46 27.435l6.264-.522 3.87-.443c.4-.04.346-.12.33-.238s.5-.216.5-.216.11.363.022.507-3.07.448-4.846.596l-6.228.594s-.123-.05-.04-.147l.138-.13z" fill="#292627"/><path d="M15.822 26.5c.047-.033 5.325-.62 5.325-.62l-5.325.62zm1.178.204l4.485-.406-4.485.406z" fill="#413e3f"/><path d="M24.46 20.925l.007 4.595.218-.044.075-4.75-.3.001z" fill="url(#Y)"/><path d="M15.172 20.58l.08.146-.007 5.35.1.002-.007-5.354.084-.146-.24.003z" fill="url(#C)"/><path d="M19.503 21.495l5.02.03.006.25-5.007-.012z" fill="url(#J)"/><path d="M15.796 21.437l.006.307.464.03-.01-.334z" fill="url(#I)"/><path d="M19.1 21.6c.04-.05.14-.1.093-.168 0 0-.21-.018-.226.012-.014.024.034.173.134.157z" fill="url(#D)"/><path d="M18.813 21.54s-.026.252-.003.276l.16.003-.01-.084c-.103.04-.073-.122-.07-.19l-.078-.006z" fill="url(#O)"/><path d="M19.12 21.68l.01.133.067-.003-.012-.148z" fill="url(#H)"/><path d="M16.56 21.898l.632.003-.006.076-.615-.003zm.7.002l.01.074.306-.003v-.078zm.393-.006l-.004.078.472-.002-.004-.077zm.545-.001l-.01.08.546-.003.002-.077z" fill="#4a403a"/><path d="M17.1 22.662l6.435-.07v.104l-6.417.046zm0 .742v.104l6.423-.145-.006-.104zm-.028.726l.012.104L23.5 24l.006-.104zm-.012.696l-.006.1 6.464-.26.006-.104z" fill="#b99177"/><path d="M15.797 25.357l.003.476 8.722-.47.004-.448-8.73.442zm6.575-.075l.038-.1c.035.01.14.084.232.055l.37-.055.122-.043c.077.015.67-.05.673-.046l.017.13s-.563-.032-.656 0-.186.093-.26.075c-.183-.042-.364.04-.537-.017z" fill="url(#B)"/><path d="M15.176 21.74l-.383-.003v-.276l.386.038zm-1.96-.02l.202.01.012-.24-.2-.027z" fill="#302925"/><g fill="#835940"><path d="M13.476 21.874l.302.013.001-.06-.29-.003z"/><path d="M13.473 21.663l.355.016c.008-.005-.036-.186-.072-.177l-.06.07-.065-.072-.148.016-.01.146z"/></g><path d="M13.948 18.632s-.337.325-.36.586c-.077.862 3.788.734 4.288.795 1.63.197 1.973.267 2.74.1.818-.18 2.508-1.132 1.356-2.047-.4-.326-.99-.28-1.27-.97s-.83-1.783-2.205-2.373-2.78-.064-3.296.395-.25.36-.725.91c-.688.797-.678 1.614-.528 2.605z" fill="url(#b)"/><path d="M18.1 19.813l-.075-.7c-.205.13-.018.538.075.7z" fill="#0a1c69"/><path d="M18.894 19.05l-.757.177-.026-.128.714-.128zm-.55.763l.702-.087-.006.1-.673.046z" fill="#6ca3ef"/><path d="M17.844 19.726s.21-.032.208.003l-.017.142s-.055-.128-.192-.145z" fill="#4e88dd"/><path d="M19.144 19.105l.16.57.064-.067s-.168-.525-.223-.502z" fill="#2696fc"/><path d="M19.335 19.195s.19-.046.18-.116c-.014-.085-.772-1.19-.893-1.42 0 0-.487-.08-.476-.04s.743 1.23.83 1.265h.255l.104.313z" fill="url(#P)"/><path d="M21.16 17.646c.3.17 1.02.428 1.133.772.08.245.034.252-.033.27s-.682-.36-.682-.4.325.2.513.22.084-.13-.154-.3-.74-.392-.778-.55zm.142.42s.093.107.163.1c.185.008-.097-.217-.163-.1z" fill="#0056ce"/><path d="M21.032 17.846c.355.427.495.598.99.873l-.395-.42c-.046-.04.007-.054.12-.027s-.197-.255-.328-.345l.122.264c-.035.04-.28-.032-.508-.345z" fill="#6293e2"/><path d="M14.53 19.256s.493.122.986.157l.88.01-.05-.154s-.438.075-.725.07-.563-.107-.792-.15l-.27-.038-.03.107z" fill="#0a59c3"/><path d="M16.49 19.802l.148-.015-.15-.522h-.107l.1.537z" fill="#219cff"/><path d="M13.983 18.888c-.248.842.93.827 1.51.818 0 0-.934-.226-1-.302v-.307c-.426-.814-.59-1.703.055-2.475-1.13.696-.15 2.657-.15 2.658-.012.064-.296.145-.403-.392z" fill="#0b1e61"/><path d="M13.877 18.706c-.313.4-.306.64.108.942-.265-.374-.232-.53-.108-.942z" fill="url(#Q)"/><path d="M14.25 19.21c-.46-.758-.52-1.932.03-2.663.157-.21-.122.12-.218.817-.12.885.21 1.853.19 1.847z" fill="#7f859c"/><path d="M13.98 17.198s.282-.86.816-1.196 1.51-.122 1.833.017l.476.22-1.178-.604c-.383-.186-.768-.106-1.05.07s-.894.743-.897 1.492z" fill="url(#F)"/><path d="M16.73 15.742s.174.145.267.163-.064-.238-.267-.163zm.95-.848s.157.2.296.22-.1-.25-.296-.22z" fill="#acd1fe"/><path d="M14.657 15.874c.342-.503 1.443-.536 2.008-.5l-1.23-.035c-.157.03.36-.267.656-.39s-1.097.246-1.433.934z" fill="#95a1c1"/><path d="M14.945 15.51c.783-1.133 2.747-.765 3.554.277-.7-1.156-2.94-1.7-3.554-.277z" fill="url(#E)"/><path d="M17.715 14.624c.745.374 1.238.86 1.89 1.337l-.836-.847s.3.017.603.255c.62.47.874 1.105 1.33 1.725a4.12 4.12 0 0 0-2.128-2.339c-.536-.267-.858-.13-.858-.13z" fill="url(#G)"/><path d="M18.847 15.222l.903.47s-.714-.57-.903-.47z" fill="#1e7fe2"/><path d="M15.957 19.9c.193.375.314.445.453-.01l-.453.01z" fill="#0c4ab4"/><path d="M14.994 19.814c.03.1.328.732.37.764.064.048.116-.001.116-.001-.103-.36-.016-.425.162-.714 0 0-.586-.006-.65-.05z" fill="url(#V)"/><path d="M16.803 21.71c-.04.058-.185.064-.232.03l.004-.047c.012 0 .158.06.158-.013 0-.053-.163-.034-.163-.128s.172-.095.214-.064l.006.008-.01.04c-.01 0-.132-.046-.132.01 0 .047.228.055.153.166zm.27.045h-.176l-.023-.018v-.255h.078v.226h.12v.047zm.207.005c-.252 0-.236-.29.007-.29.25 0 .236.29-.007.29zm.004-.244c-.135 0-.14.197-.002.197s.14-.197.002-.197zm.562.22l-.094.013-.12-.16-.032-.052v.2h-.07v-.253c0-.032.095-.027.114-.005l.133.19-.001-.195h.07v.253zm.402-.125c0 .16-.18.145-.295.145l-.023-.018v-.245l.023-.018c.106 0 .295-.017.295.137zm-.08.002c0-.095-.088-.094-.16-.094v.19c.077 0 .16.002.16-.098zm.304.148c-.252 0-.236-.29.007-.29.25 0 .236.29-.007.29zm.004-.244c-.135 0-.14.197-.002.197s.14-.197.002-.197z" fill="#4a403a" fill-rule="nonzero"/><path d="M17.5 33.534s.24.235.4.26l.15.025-.05.354s-.23-.068-.333-.123-.146-.047-.15-.213l-.006-.304zm1.54.33l.48-.15c.128-.058.15-.14.15-.14s.01.257-.075.394-.314.2-.314.2l-.188.035-.05-.33z" fill="#2b2b2b"/></svg>