<svg xmlns="http://www.w3.org/2000/svg" width="10.837mm" height="10.837mm" viewBox="0 0 10.8372 10.8372" shape-rendering="geometricPrecision" text-rendering="geometricPrecision" image-rendering="optimizeQuality" fill-rule="evenodd" clip-rule="evenodd"><defs><style type="text/css"><![CDATA[
    .fil1 {fill:#4D4D4D}
    .fil0 {fill:#695C41}
   ]]></style></defs><g id="Слой_x0020_1"><path class="fil0" d="M2.527 5.636l.005 2.208s.017.141.151.222l.174.075h5.09s.141-.002.252-.114c.112-.112.114-.22.114-.22l-.002-2.171s-.169.186-.39.3c-.221.114-.451.122-.451.122l-1.607.001.001.334-.074.132-.136.07-.463.008-.126-.063c-.078-.063-.089-.169-.089-.169l.001-.314-1.676.005s-.22-.014-.428-.138c-.207-.124-.35-.287-.35-.287z"/><path class="fil1" d="M5.658 5.563l-.002.783-.05.05-.367.006-.056-.066-.002-.783.061-.037.378.003.038.044z"/><path class="fil0" d="M2.531 4.075v1.118s.018.239.267.431c.249.191.459.223.556.227.098.004 1.627 0 1.627 0l.002-.319s-.008-.076.064-.141l.153-.078.455-.002s.112.012.153.096l.052.12-.001.332 1.634-.005s.173.012.429-.14c.255-.151.369-.439.369-.439l.018-.106.002-1.103s-.024-.11-.124-.199c-.1-.09-.245-.098-.245-.098l-5.072-.002s-.267.026-.339.307z"/><path class="fil1" d="M4.404 3.571l.319-.006.002-.195.066-.062c.062-.006 1.271-.001 1.271-.001l.056.058.007.204.314-.002.003-.241s-.022-.142-.131-.241c-.109-.1-.254-.103-.254-.103l-1.305.002s-.115.002-.21.096c-.096.094-.109.157-.119.184l-.019.086v.221z"/></g></svg>