<svg width="35" height="35" viewBox="0 0 35 35" fill="none" xmlns="http://www.w3.org/2000/svg">
<g clip-path="url(#clip0)">
<path fill-rule="evenodd" clip-rule="evenodd" d="M3 4.48816C3 4.48816 3.22752 11.5983 3.41597 13.4895C3.60426 15.3809 4.69505 20.6077 6.56288 23.8566C8.43071 27.1056 9.74903 28.6203 9.74903 28.6203C9.74903 28.6203 10.9616 30.0524 12.8058 31.6613C14.6501 33.2701 16.0784 34.0862 16.0784 34.0862C16.0784 34.0862 17.1299 34.6533 17.3439 34.7043C17.5577 34.7552 17.6421 34.7043 17.6421 34.7043C17.6421 34.7043 18.9889 34.103 19.9973 33.3534C21.0058 32.604 22.5204 31.4111 23.9487 29.9985C25.377 28.5859 26.7191 26.5611 26.9937 26.1687C27.2684 25.7763 28.579 23.6104 29.5051 21.4443C30.431 19.2784 31.2393 15.3152 31.2393 15.3152C31.2393 15.3152 31.5689 13.4945 31.6631 10.936C31.7574 8.37771 31.9064 4.48509 31.9064 4.48509C27.6832 3.72436 24.1722 3.165 20.2445 1.31073C18.1334 0.313916 17.6468 0 17.6468 0L17.231 0.00209923C17.231 0.00209923 15.8752 0.712285 14.7491 1.22627C10.5842 3.12737 7.5022 3.73744 3 4.48816ZM24.3469 21.6855C23.7126 23.2227 22.4649 24.1349 20.9168 24.6366C18.844 25.3122 15.0196 25.0582 12.7438 25.0582C11.9534 25.0582 11.6036 24.6174 11.6036 23.851V8.05604C11.6036 7.34634 11.9669 6.89194 12.7007 6.89194H22.9863C23.5864 6.89194 23.5612 7.94365 23.5612 8.34832C23.5612 8.72973 23.5665 9.79517 22.996 9.79517H15.2829V14.3079C17.0747 14.3079 19.5297 14.1469 21.2091 14.6433C22.6151 15.0615 23.7428 15.8972 24.3469 17.2589C24.9313 18.5763 24.893 20.3617 24.3469 21.6855ZM20.8354 18.5764C20.7012 18.2507 20.5095 17.9777 20.2557 17.7475C19.572 17.1284 18.5485 17.0387 17.6686 17.0387H15.2829V22.2701H17.7117C18.9785 22.2701 20.2092 22.04 20.8066 20.7706C21.1022 20.1126 21.1043 19.2438 20.8354 18.5764ZM4.06415 5.68391L4.31525 11.7071C4.31525 11.7071 4.4173 13.9281 4.68407 15.4113C4.95099 16.8945 5.20209 17.899 5.68863 19.5393C6.17517 21.1795 7.58004 23.8555 7.58004 23.8555C7.58004 23.8555 8.37258 25.4643 10.005 27.5048C11.6374 29.5452 13.9682 31.4051 13.9682 31.4051C13.9682 31.4051 15.0551 32.3351 16.1028 32.8962C17.1504 33.4574 17.4605 33.5045 17.4605 33.5045C17.4605 33.5045 17.7313 33.4496 18.7475 32.8139C19.7638 32.1782 21.1764 31.2679 23.162 29.3531C25.1474 27.4381 26.9131 24.4246 26.9131 24.4246C26.9131 24.4246 28.4122 21.9996 29.1577 19.3234C29.9033 16.6474 30.0366 16.0352 30.2877 14.4343C30.5388 12.8332 30.7665 5.88011 30.7665 5.88011C30.7665 5.88011 30.8155 5.58783 30.5448 5.51323C30.274 5.43862 26.3893 4.83437 25.3219 4.5676C24.2547 4.30068 21.8062 3.55513 20.0248 2.64487C18.2432 1.73445 17.6507 1.47544 17.5094 1.45186C17.3681 1.42845 17.2191 1.45977 17.0857 1.51468C16.9523 1.56958 14.4251 2.86061 13.1853 3.33148C11.9453 3.80235 10.5209 4.32038 9.41041 4.5676C8.29991 4.81483 6.11623 5.18946 6.11623 5.18946C6.11623 5.18946 4.33866 5.48384 4.22304 5.5171C4.10726 5.55053 4.0916 5.61528 4.06415 5.68391ZM4.97828 6.21163C4.97828 6.21163 5.25296 13.1688 5.37068 14.1969C5.4884 15.2249 5.76307 16.6335 5.9906 17.646C6.21812 18.6583 6.89698 20.8203 7.90946 22.8372C8.92177 24.8543 10.3029 26.667 10.3029 26.667C10.3029 26.667 11.5508 28.323 13.2459 29.8298C14.9411 31.3365 16.5302 32.2116 16.5302 32.2116C16.5302 32.2116 17.217 32.5902 17.3876 32.6059C17.5583 32.6216 17.6623 32.602 17.7211 32.5746C17.78 32.547 19.0357 31.927 20.2286 31.0089C21.4214 30.0907 23.199 28.376 23.6934 27.7835C24.1879 27.1909 26.1537 24.6992 27.2368 22.3449C28.3196 19.9905 28.822 17.6754 28.822 17.6754C28.822 17.6754 29.4183 15.2504 29.5361 14.3636C29.6538 13.4767 29.9029 6.46466 29.9029 6.46466C29.9029 6.46466 29.9402 6.23714 29.7264 6.16657C29.5126 6.09584 27.0523 5.67794 25.8241 5.43475C24.5959 5.1914 23.1166 4.82258 21.4803 4.1673C19.8441 3.51201 17.9173 2.46627 17.9173 2.46627C17.557 2.27298 17.3098 2.27347 16.9541 2.46434C16.7931 2.55057 15.8652 3.02741 15.0706 3.4119C14.2759 3.79654 12.8123 4.42034 11.9001 4.7068C10.9877 4.99326 10.409 5.14231 9.94991 5.23468C9.49082 5.32688 6.18873 5.96844 6.18873 5.96844C6.18873 5.96844 5.00073 6.17933 4.97828 6.21163Z" fill="white"/>
</g>
<defs>
<clipPath id="clip0">
<rect width="35" height="35" fill="white"/>
</clipPath>
</defs>
</svg>
