<svg xmlns="http://www.w3.org/2000/svg" width="128" height="128" viewBox="0 0 128 128" shape-rendering="geometricPrecision" text-rendering="geometricPrecision" image-rendering="optimizeQuality" fill-rule="evenodd" clip-rule="evenodd"><defs><style type="text/css"><![CDATA[
    .fil0 {fill:#4D4D4D}
   ]]></style></defs><g id="_331800128"><path id="_331801544" class="fil0" d="M.419 12.601l.071 103.836s.554 3.833 2.688 6.289c2.139 2.459 4.758 3.867 6.987 4.367 2.226.496 2.867.372 2.867.372l64.783-.07s4.597-.572 7.376-3.456c2.78-2.887 3.706-5.667 3.921-8.302.213-2.639-.073-26.156-.073-26.156l-6.362.035v29.706h-75.57v-109.584h75.57v29.243l6.371.007.028-26.452s.017-1.176-1.052-3.938c-1.07-2.763-2.958-4.331-5.078-5.791-2.12-1.461-4.704-1.781-5.505-1.818-.802-.035-65.281-.035-65.281-.035s-3.813.177-6.698 2.495c-2.888 2.316-4.136 4.419-5.043 9.252z"/><path id="_331802096" class="fil0" d="M98.026 67.846l-42.109.012-.006 8.454-16.893-12.652 16.899-12.624-.001 8.462 42.134-.012z"/></g></svg>