<?xml version="1.0" encoding="UTF-8"?>
<!DOCTYPE svg PUBLIC "-//W3C//DTD SVG 1.1//EN" "http://www.w3.org/Graphics/SVG/1.1/DTD/svg11.dtd">
<!-- Creator: CorelDRAW -->
<svg xmlns="http://www.w3.org/2000/svg" xml:space="preserve" width="15mm" height="15mm" style="shape-rendering:geometricPrecision; text-rendering:geometricPrecision; image-rendering:optimizeQuality; fill-rule:evenodd; clip-rule:evenodd"
viewBox="0 0 15 15"
 xmlns:xlink="http://www.w3.org/1999/xlink">
 <defs>
  <style type="text/css">
   <![CDATA[
    .fil0 {fill:#9E9E9E}
    .fil2 {fill:#AD66D5}
    .fil1 {fill:white}
   ]]>
  </style>
 </defs>
 <g id="Слой_x0020_1">
  <metadata id="CorelCorpID_0Corel-Layer"/>
  <g id="_400054288">
   <path id="_400054048" class="fil0" d="M3.6343 0.6524l8.1695 0c1.6181,0 2.9418,1.3237 2.9418,2.9417l0 8.2242c0,1.618 -1.3237,2.9417 -2.9418,2.9417l-8.1695 0c-1.618,0 -2.9417,-1.3237 -2.9417,-2.9417l0 -8.2242c0,-1.618 1.3237,-2.9417 2.9417,-2.9417z"/>
   <path id="_400053160" class="fil1" d="M3.193 0.2111l8.1696 0c1.618,0 2.9417,1.3238 2.9417,2.9418l0 8.2241c0,1.618 -1.3237,2.9418 -2.9417,2.9418l-8.1696 0c-1.618,0 -2.9417,-1.3238 -2.9417,-2.9418l0 -8.2241c0,-1.618 1.3237,-2.9418 2.9417,-2.9418z"/>
   <path id="_400053760" class="fil2" d="M8.528 4.307l0 5.769c0,0 0.0031,0.108 -0.087,0.2371 -0.09,0.1291 -0.2581,0.1921 -0.3722,0.2071 -0.1141,0.015 -0.2161,-0.006 -0.3842,-0.1591 -0.1681,-0.1531 -2.8906,-2.9265 -2.8906,-2.9265 0,0 -0.0781,-0.096 -0.0781,-0.2641 0,-0.1681 0.0871,-0.2792 0.0871,-0.2792l2.9746 -2.9611c0,0 0.0885,-0.099 0.3106,-0.078 0.2221,0.021 0.3827,0.1666 0.4398,0.4548z"/>
  </g>
 </g>
</svg>
