<svg width="16" height="16" viewBox="0 0 16 16" fill="none" xmlns="http://www.w3.org/2000/svg">
<path d="M12.8075 4.80751V3.19249H6.38498V4.80751H12.8075ZM12.8075 7.21127V5.59624H6.38498V7.21127H12.8075ZM10.4038 9.61502V8H6.38498V9.61502H10.4038ZM4.80751 4.80751V3.19249H3.19249V4.80751H4.80751ZM4.80751 7.21127V5.59624H3.19249V7.21127H4.80751ZM4.80751 9.61502V8H3.19249V9.61502H4.80751ZM14.4225 0C14.8482 0 15.2113 0.162754 15.5117 0.488263C15.8372 0.788732 16 1.1518 16 1.57746V11.1925C16 11.6182 15.8372 11.9937 15.5117 12.3192C15.2113 12.6448 14.8482 12.8075 14.4225 12.8075H3.19249L0 16V1.57746C0 1.1518 0.150235 0.788732 0.450704 0.488263C0.776213 0.162754 1.1518 0 1.57746 0H14.4225Z" fill="url(#paint0_linear)"/>
<defs>
<linearGradient id="paint0_linear" x1="-9.74206e-07" y1="9.33333" x2="9.26447" y2="1.54422" gradientUnits="userSpaceOnUse">
<stop stop-color="#675EAA"/>
<stop offset="1" stop-color="#AD66D5"/>
</linearGradient>
</defs>
</svg>
