<svg xmlns="http://www.w3.org/2000/svg" width="10.837mm" height="10.837mm" viewBox="0 0 10.8372 10.8372" shape-rendering="geometricPrecision" text-rendering="geometricPrecision" image-rendering="optimizeQuality" fill-rule="evenodd" clip-rule="evenodd"><defs><style type="text/css"><![CDATA[
    .fil2 {fill:#4D4D4D}
    .fil1 {fill:#6072B5}
    .fil0 {fill:#9D9D9D}
   ]]></style></defs><g id="Слой_x0020_1"><path class="fil0" d="M4.076 3.524l-.001 3.335.052.108.095.043.06.003 4.491.001v-.079l-.009-.038c.004-.015.083-.08.175-.089.092-.009.692-.005.692-.005l.001-3.297-.044-.096-.111-.058-.09-.002-5.156.002-.098.038-.057.135zm1.429 1.885l.694.088.085-.032.267-.129.099.054.003.024.003.043.204.24.048.006.277-.086c.157-.065.216-.115.235-.137.019-.022.039-.136.025-.256l-.028-.183.061-.038.03-.194.065-.231.022-.051.159.118.002.039.039.048.018.012-.047.108.017.013-.016.067-.017.003-.014.023-.003.105.019.016h.012l-.001.035.009.032-.025.012.025.086.026.044.014-.006.038.063-.016.019.072.09.028.011.013-.01.054.041-.01.028.12.064.016-.016.07.013.001.025.132.013.009-.023.074-.005.003.019.075-.016.062-.026-.007-.018.065-.033.017.016.074-.053.036-.04-.009-.013.038-.053.025.006.068-.117-.017-.017.021-.064.024-.002.017-.083.001-.051-.021-.008-.003-.07.02-.007-.015-.096-.019-.041-.023.005-.04-.088-.043-.058.011-.021-.052-.06-.044-.035-.018.012-.056-.036.003-.027-.113-.047-.023.005-.007.012-.057-.013-.008-.028-.105-.003-.039.011-.002.017-.058.013-.017-.02-.055.011-.078.039.007.024-.059.036-.02-.013-.037.03-.06-.04-.054-.001-.166-.127s.043-.121.208-.209c.166-.088.334-.084.426-.064l.104.012-.001-.045c-.013-.019-.169-.067-.256-.075-.087-.008-.191-.006-.312.039l-.286.234-.061-.044.037-.053-.047-.094-.104-.071-.072-.008-.042.046-.044-.033.02-.033-.278-.207-.085.065-.185.066-.113.001-.006.022.059.123.045.001.172-.082.25.187.018-.001.026-.036.338.264-.02.021-.072-.04-.021-.034-.197-.135-.044.039-.036.051-.085-.02-.096.059c-.017.018-.269.303-.509.417-.24.114-.412.187-.574.174-.163-.013-.173.004-.222.024-.048.019-.513.301-.531.314l.03.039.432-.136c.146-.04.218-.024.218-.024l-.245.11-.021.067.034.052zm2.535-.479s-.052.107.015.249c.067.142.233.166.3.156.067-.009.189-.048.246-.189.057-.141-.02-.256-.04-.294-.02-.037-.136-.121-.209-.118l-.122.013-.059.036.104.074s.102-.035.176.041c.074.076.058.175.029.233-.029.057-.111.104-.214.082-.103-.022-.131-.133-.131-.164l.007-.053-.1-.067zm-2.442.2l.127-.028.072.013.101-.074-.008-.023-.167.049-.126.063zm1.31.296l.102-.08.144-.021.008.12-.102.085c-.066.02-.127-.042-.14-.061l-.012-.043zm.005-.272l.204-.004.032-.021-.013-.041-.216.001-.028.027.021.038zm.096-.126l.204-.004.032-.021-.013-.041-.216.001-.028.027.021.038zm.133-.119l.204-.004.032-.021-.013-.041-.216.001-.028.027.021.038zm-1.484.745l.055-.035-.004-.024.128-.055.013.021.07-.01.005-.026h.115l.023.023.064.017.018-.019.122.053v.027l.059.036.017-.01.046.038.221-.178.05.011.092.139-.269.181.015.047.014.018.034.03.017.102-.018.01.004.064.024.014-.023.126-.015.005-.009.004-.02.062.02.015-.066.116-.028-.007-.043.056.012.017-.104.083-.022-.013-.062.032.001.02-.124.043-.017-.024-.067.008-.006.021-.133-.013-.009-.022-.063-.02-.016.018-.117-.057.004-.028-.058-.04-.021.007-.084-.098.012-.018-.035-.063-.033-.018-.03-.111.018-.008-.008-.046v-.023l-.024-.005.005-.135.023-.007.015-.064-.018-.02.055-.112.025.001.042-.057-.01-.024.093-.086.025.009zm.413.295l.094-.077s-.097-.086-.244-.055c-.147.032-.228.156-.237.245-.009.089.013.198.108.281.095.083.195.076.284.058.089-.018.164-.1.2-.211.036-.112-.02-.203-.02-.203l-.1.062s.037.101-.03.18c-.068.079-.186.095-.258.03-.072-.065-.089-.164-.053-.23s.097-.096.157-.102l.099.024z"/><path class="fil1" d="M1.196 7.787l.112.021.173.002v-.031l.811.002.005-.04s-.003-.22.131-.416c.135-.196.348-.293.559-.312.211-.018.498.07.654.29.156.22.159.477.159.477l2.917.003s-.008-.237.127-.432c.135-.196.269-.247.269-.247l-2.9.005-.141-.066-.073-.102s-.049-.014-.044-.262c.004-.247.002-1.921.002-1.921s-.008-.083-.128-.12c-.12-.038-.448-.054-.448-.054s-.431-.007-.597.006c-.166.013-.358.04-.47.077-.112.037-.188.147-.188.147l-.169.224-.575 1.005-.076.236c-.018.124.002 1.036.002 1.036v.066l-.096.002-.024.146.008.258zm.379-1.857l.524-.897s.047-.072.18-.095c.133-.023.402-.023.402-.023l.86.005.001.887s-.013.106-.079.184c-.067.078-.061.076-.176.109l-1.46.414s-.111.03-.158-.015-.094-.156-.095-.268l.002-.3zm6.264 1.175s.147.071.237.204c.091.133.126.224.136.277l.002.447.097-.004-.008-.244.257-.007.109-.067c.054-.065.064-.156.063-.215l-.001-.389-.893-.004zm1.013-.173l-.002.601.126.041.632-.003s.116-.026.133-.111l.016-.123-.004-.298-.056-.103-.093-.046-.675-.003-.077.046z"/><path class="fil2" d="M3.043 7.092c.373 0 .675.303.675.678 0 .374-.302.677-.675.677-.373 0-.675-.303-.675-.677 0-.374.302-.678.675-.678zm-.001.349c.195 0 .352.158.352.354 0 .195-.158.354-.352.354-.195 0-.352-.158-.352-.354 0-.195.158-.354.352-.354zm4.423-.347c.373 0 .675.303.675.678 0 .374-.302.677-.675.677-.373 0-.675-.303-.675-.677 0-.374.302-.678.675-.678zm-.001.349c.195 0 .352.158.352.354 0 .195-.158.354-.352.354-.195 0-.352-.158-.352-.354 0-.195.158-.354.352-.354z"/></g></svg>