<?xml version="1.0" encoding="UTF-8"?>
<!DOCTYPE svg PUBLIC "-//W3C//DTD SVG 1.1//EN" "http://www.w3.org/Graphics/SVG/1.1/DTD/svg11.dtd">
<!-- Creator: CorelDRAW -->
<svg xmlns="http://www.w3.org/2000/svg" xml:space="preserve" width="15mm" height="15mm" style="shape-rendering:geometricPrecision; text-rendering:geometricPrecision; image-rendering:optimizeQuality; fill-rule:evenodd; clip-rule:evenodd"
viewBox="0 0 15 15"
 xmlns:xlink="http://www.w3.org/1999/xlink">
 <defs>
  <style type="text/css">
   <![CDATA[
    .fil0 {fill:#4D4D4D}
   ]]>
  </style>
 </defs>
 <g id="Слой_x0020_1">
  <metadata id="CorelCorpID_0Corel-Layer"/>
  <path class="fil0" d="M6.1225 0.2968c3.1085,0 5.6285,2.52 5.6285,5.6285 0,3.1086 -2.52,5.6285 -5.6285,5.6285 -3.1085,0 -5.6285,-2.5199 -5.6285,-5.6285 0,-3.1085 2.52,-5.6285 5.6285,-5.6285zm-0.0282 0.6649c2.7445,0 4.9693,2.2248 4.9693,4.9693 0,2.7444 -2.2248,4.9692 -4.9693,4.9692 -2.7444,0 -4.9693,-2.2248 -4.9693,-4.9692 0,-2.7445 2.2249,-4.9693 4.9693,-4.9693z"/>
  <path class="fil0" d="M2.0918 4.9042c0,0 0.0353,-0.6776 0.7258,-1.6063 0.6905,-0.9288 1.7373,-1.3831 1.7373,-1.3831 0,0 0.837,-0.3538 1.7069,-0.3209 0.8699,0.0329 0.934,0.1858 0.934,0.1858 0,0 0.0959,0.0925 0.0492,0.2026 -0.0468,0.11 -0.0942,0.1403 -0.1681,0.1607 -0.0739,0.0204 -0.5164,-0.1282 -1.1072,-0.0853 -0.5909,0.043 -1.0811,0.2123 -1.0811,0.2123 0,0 -0.3308,0.1309 -0.6188,0.3081 -0.288,0.1771 -0.5403,0.3315 -0.8402,0.6733 -0.2998,0.3418 -0.3509,0.4346 -0.53,0.7194 -0.1792,0.2848 -0.3081,0.7949 -0.3081,0.7949l-0.0767 0.283c0,0 -0.08,0.1313 -0.2279,0.0986 -0.1478,-0.0326 -0.1833,-0.0935 -0.1951,-0.2431z"/>
  <path class="fil0" d="M8.9699 10.6663c0,0 0.4355,-0.2162 0.6194,-0.1484 0.1839,0.0677 3.8071,4.0168 3.8071,4.0168 0,0 0.0581,0.0403 0.1258,0.0113 0.0678,-0.029 0.6808,-0.6453 0.6808,-0.6453 0,0 0.0371,-0.0677 -0.0161,-0.1419 -0.0533,-0.0742 -3.6442,-3.9055 -3.6442,-3.9055 0,0 -0.0774,-0.0484 -0.0968,-0.2049 -0.0193,-0.1565 0.0581,-0.2436 0.0581,-0.2436l-1.4857 0.8792 -0.0484 0.3823z"/>
 </g>
</svg>
