<?xml version="1.0" encoding="UTF-8"?>
<!DOCTYPE svg PUBLIC "-//W3C//DTD SVG 1.1//EN" "http://www.w3.org/Graphics/SVG/1.1/DTD/svg11.dtd">
<!-- Creator: CorelDRAW -->
<svg xmlns="http://www.w3.org/2000/svg" xml:space="preserve" width="15mm" height="15mm" style="shape-rendering:geometricPrecision; text-rendering:geometricPrecision; image-rendering:optimizeQuality; fill-rule:evenodd; clip-rule:evenodd"
viewBox="0 0 15 15"
 xmlns:xlink="http://www.w3.org/1999/xlink">
 <defs>
  <style type="text/css">
   <![CDATA[
    .fil0 {fill:#333333}
   ]]>
  </style>
 </defs>
 <g id="Слой_x0020_1">
  <metadata id="CorelCorpID_0Corel-Layer"/>
  <g id="_400053736">
   <path id="_400079224" class="fil0" d="M1.2395 14.5911l0.5909 -12.025c0,0 -0.0178,-0.3008 0.0694,-0.3862 0.0872,-0.0855 0.0801,-0.0961 0.2741,-0.121 0.194,-0.025 2.3637,0.0017 2.3637,0.0017 0,0 0.1744,-0.3346 0.6371,-0.8009 0.4628,-0.4664 1.0288,-0.6977 1.6553,-0.8508 0.6266,-0.1531 1.5592,0.0569 1.5592,0.0569 0,0 0.6337,0.1923 1.068,0.5198 0.4343,0.3275 0.8152,0.833 0.8152,0.833l0.1548 0.2367 2.3317 -0.0018c0,0 0.1958,0 0.2617,0.0766 0.0658,0.0765 0.0783,0.1326 0.0863,0.1664 0.008,0.0338 0.6158,12.0829 0.6158,12.0829 0,0 0.0178,0.2367 -0.0516,0.3275 -0.0694,0.0908 -0.1851,0.1175 -0.2367,0.1175 -0.0516,0 -11.9111,0.001 -11.9111,0.001 0,0 -0.2038,0.024 -0.2838,-0.2343zm3.9699 -12.5228c0,0 0.4138,-0.5873 1.1258,-0.9211 0.7119,-0.3337 1.6775,-0.2225 1.9089,-0.1379 0.2314,0.0845 0.8677,0.3426 1.1792,0.6808 0.3115,0.3382 0.3026,0.3649 0.3026,0.3649l-4.5165 0.0133zm-2.823 0.546l-0.5788 11.6441 11.3379 -0.0044 -0.5829 -11.6406 -10.1762 0.0009z"/>
   <path id="_400077496" class="fil0" d="M4.177 2.9316c0,0 -0.1824,0.614 -0.0801,0.9967 0.1024,0.3827 0.2893,0.5874 0.7075,0.6586 0.4183,0.0712 0.8232,-0.1869 0.9256,-0.5429 0.1023,-0.356 -0.0044,-0.6808 -0.1824,-0.8632 -0.178,-0.1825 -0.3382,-0.2403 -0.4673,-0.2581 -0.129,-0.0178 -0.3293,0.0044 -0.3293,0.0044l0.2092 -0.5206 -0.6363 0.0935 -0.1469 0.4316z"/>
   <path id="_400079824" class="fil0" d="M4.9257 3.4589c0.1579,0 0.2859,0.129 0.2859,0.2881 0,0.1591 -0.128,0.2881 -0.2859,0.2881 -0.1579,0 -0.2859,-0.129 -0.2859,-0.2881 0,-0.1591 0.128,-0.2881 0.2859,-0.2881z"/>
   <path id="_400080352" class="fil0" d="M10.7735 2.9316c0,0 0.1824,0.614 0.0801,0.9967 -0.1024,0.3827 -0.2893,0.5874 -0.7076,0.6586 -0.4182,0.0712 -0.8232,-0.1869 -0.9255,-0.5429 -0.1024,-0.356 0.0044,-0.6808 0.1824,-0.8632 0.178,-0.1825 0.3382,-0.2403 0.4672,-0.2581 0.1291,-0.0178 0.3293,0.0044 0.3293,0.0044l-0.2091 -0.5206 0.6363 0.0935 0.1469 0.4316z"/>
   <path id="_400053760" class="fil0" d="M10.0248 3.4589c-0.1579,0 -0.2859,0.129 -0.2859,0.2881 0,0.1591 0.128,0.2881 0.2859,0.2881 0.1579,0 0.2859,-0.129 0.2859,-0.2881 0,-0.1591 -0.128,-0.2881 -0.2859,-0.2881z"/>
  </g>
 </g>
</svg>
