<svg xmlns="http://www.w3.org/2000/svg" xmlns:xlink="http://www.w3.org/1999/xlink" width="163.839" height="163.839" viewBox="0 0 43.349 43.349" shape-rendering="geometricPrecision" image-rendering="optimizeQuality" fill-rule="evenodd" xmlns:v="https://vecta.io/nano"><defs><linearGradient id="A" x1="3.771" y1="31.408" x2="16.23" y2="31.408" xlink:href="#J"><stop offset="0" stop-color="#29292b"/><stop offset="1" stop-color="#202022"/></linearGradient><linearGradient id="B" x1="7.71" y1="32.465" x2="16.24" y2="32.465" xlink:href="#J"><stop offset="0" stop-color="#3b3c40"/><stop offset=".051" stop-color="#47464c"/><stop offset=".122" stop-color="#29282d"/><stop offset=".961" stop-color="#29282d"/><stop offset="1" stop-color="#838288"/></linearGradient><linearGradient id="C" x1="7.397" y1="17.095" x2="8.727" y2="17.095" xlink:href="#J"><stop offset="0" stop-color="#dedee0"/><stop offset="1" stop-color="#646368"/></linearGradient><linearGradient id="D" x1="11.312" y1="32.042" x2="11.312" y2="30.756" xlink:href="#J"><stop offset="0" stop-color="#121214"/><stop offset="1" stop-color="#19191b"/></linearGradient><linearGradient id="E" x1="13.647" y1="28.275" x2="37.324" y2="14.127" xlink:href="#J"><stop offset="0" stop-color="#0ff"/><stop offset=".329" stop-color="#f0f"/><stop offset=".678" stop-color="#00f"/><stop offset="1" stop-color="#f63"/></linearGradient><linearGradient id="F" x1="10.41" y1="30.682" x2="12.007" y2="30.052" xlink:href="#J"><stop offset="0" stop-color="#c2c2c0"/><stop offset=".478" stop-color="#8d8b90"/><stop offset="1" stop-color="#f4f4f2"/></linearGradient><linearGradient id="G" x1="3.779" y1="21.285" x2="15.017" y2="26.813" xlink:href="#J"><stop offset="0" stop-color="#c8c8ca"/><stop offset="1" stop-color="#dcdcde"/></linearGradient><linearGradient id="H" x1="26.108" y1="21.686" x2="24.011" y2="31.206" xlink:href="#J"><stop offset="0"/><stop offset="1" stop-color="#363636"/></linearGradient><linearGradient id="I" x1="36.051" y1="23.059" x2="36.642" y2="21.001" xlink:href="#J"><stop offset="0" stop-color="#8c8c8c"/><stop offset="1" stop-color="#f5f5f5"/></linearGradient><linearGradient id="J" gradientUnits="userSpaceOnUse"/></defs><circle cx="22.089" cy="22.053" r="19.05" fill="#f0f0f0"/><path d="M9.553 28.377c.195.088 22.018 4.162 22.018 4.162a4.66 4.66 0 0 0 1.855-.13c.107-.034 7.957-4.165 7.957-4.165.905-.545.376-2.008-.045-2.714-.317-.53-2.454-4.31-2.596-4.61s-.164-.662-.164-.662c-4.154 1.06-30.746 7.344-29.024 8.118z" fill="url(#H)"/><path d="M36.4 28.504l2.12-7.968s.05.31.153.51c.625 1.216 3.052 4.876 3.188 5.852 0 0-.08-.595-.3-.982L38.687 20.9s-.12-.33-.102-.56.92-3.62.92-3.62l-.102-.105-3.02 11.8.018.086z" fill="#4d4d4d"/><path d="M16.828 12.338s-.515.226-.68.746l-3.86 12.57s-.093.365-.03.647.25.45.498.512.667.12.752.178a.92.92 0 0 0 .331.158 9959.54 9959.54 0 0 0 19.529 3.339s0-.1.172-.085l.75.062c.302.01.738-.048.978-.37s.338-.49.443-.55a1.24 1.24 0 0 0 .413-.416c.107-.195 3.43-13.128 3.43-13.128s.068-.515.01-.7-.187-.385-.187-.385-.12-.775-.548-.933-1.142-.18-1.68-.237-18.7-1.442-18.7-1.442-1.264-.093-1.633.02z" fill="#d5d5d5"/><path d="M16.185 13.143L12.297 25.75c-.05.387-.022.924.452 1.03.204.045 21.45 3.655 21.45 3.655.63.04 1.173-.272 1.4-.882.04-.106 3.732-14.443 3.732-14.443.075-.538-.05-.995-.642-1.128-.34-.076-20.9-1.65-21.254-1.643-.62.015-1.052.153-1.252.804z"/><path d="M12.288 25.554s-.206.127-.23.4a1.61 1.61 0 0 0 .056.52c.044.15.114.246.148.29.07.1.537.223.724.252s.307-.078.307-.078-.663-.13-.81-.244-.236-.348-.245-.577-.01-.285.05-.55z" fill="#1f1f1f"/><path d="M33.36 30.62c1.904.238 1.43.262 2.46-.814.153-.16-.234-.147-.344.005-.658.912-.948.588-1.854.6-.168.002-.262.2-.262.2z" fill="#1a1a1a"/><path d="M34.6 30.484c.605-.06.807-.324 1.128-.814l-.187.042s-.195.554-.94.772z" fill="#0c0c0c"/><path d="M35.664 29.556s.36-.22.46-.424.13-.356.13-.356.057.74-.588.78z" fill="#0e0e0e"/><path d="M35.622 29.702c.38-.076.613-.298.75-.672.042-.116-.028-.365-.028-.365-.138.275-.07.843-.655.897l-.067.14z" fill="#343434"/><path d="M37.673 13.806l.23-.22c.8 0 1.888.163 2.02 1.15.1.678-.003.88-.208 1.504l-.188-1.238s-.138.04-.174-.295c-.087-.8-1.046-.892-1.678-.9z" fill="#545454"/><path d="M39.4 16.647l.1.105c.2-.335.403-1.3.206-1.637-.08-.136-.1-.305-.096-.486s-.2-.594-.277-.633.144.55.1.718.043.38.113.523c.135.275-.1 1.087-.127 1.4zm-1.548-2.825c.4.013.997.06 1.3.313 0 0-.715-.557-1.3-.313z" fill="#090909"/><path d="M16.043 13.428c.126-.546.462-1.09 1.063-1.158.172-.02 1.42.052 1.42.052s-.343-.228-.713-.28-.998.005-1.3.253-.53.656-.534.772a1.81 1.81 0 0 0 .065.361z" fill="#0f0f0f"/><path d="M16.097 13.03c.307-.653.72-.83 1.402-.795.218.01.435-.17.435-.17s-.563-.11-1.032.042c-.33.107-.898.52-.805.923z" fill="#666"/><path d="M12.232 26.674s.507.31.737.328c.615.046.608.106 1.166.203L33.37 30.49s-.095.103.022.134c1.828.472 1.952-.407 2.86-1.315 0 0-.577 1.323-.724 1.408s.38.31.38.31l-.565.3c.043-.06-21.537-2.915-23.233-4.267l.335-.134s-.19-.14-.21-.253z"/><path d="M35.855 29.445l3.708-14.2s.04.564.012.72-3.403 13.048-3.403 13.048-.18.313-.318.422z" fill="#6d6d6d"/><path d="M39.145 17.144l-.22.843.04.14c.02-.02.218-.88.23-.93l-.048-.054z" fill="#1f1f1f"/><path d="M39.47 15.942l.017.078-.017-.078z" fill="#0f0f0f"/><path d="M16.153 15.7s-.175.147-.064.245.235.003.225-.05l-.016-.098c.05-.006.035-.045-.013-.076l-.048.018-.085-.04z" fill="#353739"/><path d="M14.725 20.68c.218.053.77-2.043.837-2.296.028-.107-.085-.14-.16-.14-.142 0-.762 2.13-.786 2.3-.01.085.1.124.1.124zm-.064-.14l.724-2.228s.107-.07.102.043-.642 2.205-.7 2.245-.12.02-.136-.06z" fill="#535353"/><path d="M14.62 20.365l.656-2.084c.034-.01-.61 1.985-.656 2.084z" fill="#363636"/><path d="M9.906 28.434l21.756 4.01c.48.034 1.34.062 1.764-.127S41.5 28.11 41.5 28.11L33.45 32.4s-.658.197-1.274.15-.583-.035-.937-.092-21.32-3.973-21.333-4.024z" fill="#4e4e4e"/><path d="M17.838 13.13l-3.925 12.94 19.278 3.2 3.865-14.547z" fill="url(#E)"/><g fill-rule="nonzero"><path d="M36.238 22.868c.062.056.037.197-.026.23l-.06-.02c.004-.015.103-.096.045-.145l-.228.097c-.098-.028-.094-.15-.035-.217l.01-.01.06.02c-.002.007-.1.107-.022.13.057.016.135-.193.256-.084zm.132-.238l-.058.18-.35-.093.02-.074.292.084.033-.114.06.017zm.063-.194c-.072.252-.437.107-.373-.115.07-.24.44-.117.373.115zm-.314-.095c-.036.124.214.214.254.075.037-.13-.216-.207-.254-.075zm.446-.445l-.02.09c-.033.022-.276.063-.315.067l.272.076-.02.066-.343-.107.027-.09.294-.064-.082-.022-.175-.052.024-.063.337.1zm-.062-.432c.176.05.173.297.096.347-.02.012-.347-.09-.35-.1-.03-.066.07-.3.255-.246zm-.02.077c-.104-.03-.137.02-.164.117l.247.07c.028-.096.032-.155-.082-.188zm.273-.233c-.07.245-.44.113-.373-.115.068-.238.44-.117.373.115zm-.314-.095c-.036.124.214.213.254.075s-.217-.203-.254-.075z" fill="url(#I)"/><g fill="#c8d9d5"><path d="M33 15.252l-.06-.006-.036-.222-.094.208-.06-.006-.046-.27.044-.002.037.245.103-.23.047.005.04.245.106-.23.043.003-.126.26zm.308-.057l-.146-.016.062.08.075-.007-.002.028-.01.003-.073.005c-.078-.008-.105-.053-.096-.12.01-.06.05-.106.123-.098.065.007.092.05.084.104l-.02.02zm-.02-.03l-.05-.067-.07.054.12.013zm.276.15l-.036-.004.004-.026-.04.022c-.086.032-.127-.045-.118-.11.014-.097.112-.14.176-.064l.017-.115.04.004-.043.292zm-.02-.143c-.046-.066-.114-.06-.127.026s.046.113.116.053l.012-.08zm.147.154l-.058.063-.03-.003.043-.06.007-.037.04-.001-.003.038zm.435.04l-.044.003-.017-.072-.133-.014-.04.07-.04-.007.15-.26.057.006.07.275zm-.104-.247l-.076.136.11.012-.035-.147zm.342.28l-.037-.004.004-.026c-.053.04-.14.042-.148-.03l.02-.157.04.004-.018.143c.007.06.072.037.108.007l.02-.138.04.004-.03.197zm.278-.147l-.032-.003-.001.07c-.024.036-.1.045-.13.016l.013.04c.046.007.135.01.126.07-.013.087-.222.07-.2-.008l.04-.046.01-.075-.01-.045c.01-.06.074-.075.132-.055l.067.007-.004.03zm-.103-.016c-.06-.007-.077.08-.012.086s.078-.08.012-.086zm.04.206l-.097-.04-.032.035c-.006.04.12.057.13.005zm.395.028l-.167-.018.004-.03.067.007.032-.216-.075.028.004-.03.08-.034.038.008-.036.25.058.006-.004.03z"/><path d="M32.27 16.596l-.632-.068c-.046-.005-.028-.12.017-.114l.252.027.12-.816c-.038.015-.276.124-.298.1-.017-.017-.006-.093.032-.1l.302-.128c.016-.008.15-.008.144.03l-.138.943.218.023c.046.005.03.12-.017.114zm1.046-.238c-.05.342-.485.387-.758.24-.083-.043-.03-.145-.004-.142.133.014.533.287.6-.103.046-.31-.45-.216-.5-.265-.024-.03.057-.503.08-.52.035-.025.503.04.58.05.05.005.028.13-.018.124l-.45-.048-.044.3c.265-.006.558.086.517.363zm.418-.183c-.143-.015-.1-.206.028-.192s.115.207-.028.192zm-.084.576c-.144-.015-.11-.206.028-.19s.116.207-.028.19zm1.073.107l-.632-.068c-.047-.005-.028-.12.017-.114l.252.027.12-.816-.252.098c-.09.032-.052-.092-.014-.108l.302-.128c.016-.008.15-.008.144.03l-.138.943.218.023c.046.005.03.12-.017.114zm.608.08c-.63-.067-.35-1.16.186-1.102.613.066.37 1.162-.186 1.102zm.16-.986c-.327-.035-.525.828-.133.87.327.035.526-.828.133-.87z"/><path d="M33.155 17.14c-.013.1-.128.102-.2.063l.006-.034c.047.032.14.04.15-.03.008-.054-.05-.066-.1-.065l-.03-.005.02-.137.153.013-.005.033-.12-.013-.012.08c.068-.002.147.023.137.096zm.28-.124l-.153.227-.044-.007.16-.233-.154-.017.005-.033.186.02.001.042zm.1.116c-.095-.01-.07-.158.023-.148s.07.158-.023.148zm.02-.124c-.043-.004-.068.094-.013.1.045.005.066-.095.013-.1zm.15.286c-.095-.01-.07-.158.023-.148s.072.16-.023.148zm.02-.124c-.046-.005-.063.095-.013.1s.06-.095.013-.1zm-.207.102l-.033-.01.264-.26.036.004-.003.004-.264.26z"/></g></g><path d="M33.91 17.323l.238.03.04-.292c-.078-.05-.154-.08-.242-.023l-.036.285zm.06-.228l.172.016s-.08-.106-.172-.016z" fill="#c8d9d5"/><path d="M3.878 30.622l3.76 2.644s.246.2.792.2l.828-.08 6.647-1.31s.187-.03.264-.12l.07-.103-.01-.394s-.065-.198-.3-.356l-1.99-1.275-6.768-1.014-2.962.486s-.26.048-.37.218c-.128.197-.15.67-.122.89 0 0 .003.093.16.222z" fill="#5c5b61"/><path d="M3.846 29.64l-.072.09c.003.035 3.88 3.116 3.88 3.116.34.203.92.33 1.312.254l7.098-1.436c.052-.025.166-.098.155-.177s-.045-.16-.064-.13-.037.137-.286.2L8.905 32.96c-.312.032-.806.04-1.076-.14-1.277-.847-2.728-2.203-3.983-3.183z" fill="url(#A)"/><path d="M7.77 32.783s.314.138.672.158.84-.064.84-.064-.892.287-1.51-.095z" fill="#9b9a9f"/><path d="M7.714 32.877l-.004.432a1.92 1.92 0 0 0 .608.144c.356.027.438.014.7-.03l6.953-1.366s.196-.07.238-.14l.04-.146-.01-.318s.006.17-.27.236l-7.113 1.427s-.355.015-.578-.037-.457-.136-.554-.2z" fill="url(#B)"/><path d="M15.917 31.563l.146-.06.074-.054.057.072c.003.025-.115.135-.2.135l-.076-.092z" fill="#a2a1a7"/><path d="M7.85 32.04c.158.515 1.193.237 1.612.317.61.115 4.604-.292 4.44-1.222-.155-.875-6.45-.39-6.05.905z" fill="#2d2d2e"/><path d="M9.562 32.042l4.015-.773-.014-.512-4.032.742-.484.137z" fill="url(#D)"/><path d="M9.537 32.022v-.517l4.026-.75.001.035-3.996.738-.006.513z" fill="#4d4d4f"/><path d="M8.182 31.614s.215.107.47.082 1.083-.198 1.083-.198l3.828-.742s.23-.078.386-.25.158-.267.158-.267l-.073-.492-3.12-12.796s-.12-.274-.273-.346-.397-.095-.824-.083-4.465.44-4.465.44-.464.187-.532.566.01.744.01.744l3.023 12.842.327.5z" fill="#121214"/><path d="M8.356 31.498a1.41 1.41 0 0 0 .557.017l4.757-.903c.4-.07.51-.442.386-.797L10.9 16.912c-.165-.38-.413-.44-.794-.437-.197.001-4.897.43-4.897.43-.586.14-.604.77-.498 1.252l2.95 12.754s.01.07.12.266.39.45.39.437l-.383-.512c-.003-.024.122.262.557.396z" fill="url(#G)"/><path d="M8.863 31.416l4.697-.9s.32-.06.414-.254-.005-.423-.005-.423L10.9 16.984s-.065-.187-.206-.3-.358-.12-.455-.12-4.17.334-4.17.334-.643.058-.854.154-.32.365-.36.503-.01.4.018.536 2.897 12.57 2.897 12.57c.136.546.56.78 1.094.754z" fill="#121214"/><path d="M10.526 16.64l3.06 12.79.257-.058-2.915-12.152s-.102-.53-.402-.578z" fill="#b6b5bb"/><path d="M14.002 29.828l-.858-3.655.858 3.655z" fill="#4e4d52"/><path d="M7.435 17.002s-.113.09-.017.197.197.065.376.05.824-.03.874-.14-.636-.052-1.233-.107z" fill="#090c13"/><path d="M5.507 17.03l2.97 13.32-.4.07-3-13.127s.062-.192.42-.262z" fill="#646369"/><path d="M8.303 31.28l-.215-.862.4-.07.25 1.028s-.275.007-.424-.096z" fill="#6e6d75"/><path d="M13.785 30.402l-.235-.953.292-.078.138.65s.085.232-.195.382z" fill="#8f9094"/><path d="M10.057 16.612l-4.47.393s-.336.05-.515.243-.143.367-.12.403.058.16.09.33 2.72 11.87 2.72 11.87l.175.973s-.122-.3-.2-.605L5.86 21.8l-.28-1.286-.635-2.6c-.02-.073-.08-.122-.05.048a91.13 91.13 0 0 0 .355 1.592l-.35-1.47c-.033-.14-.06-.376-.001-.553s.07-.225.283-.403 1.004-.204 1.004-.204l2.733-.25s.668-.053 1.138-.055z" fill="#3d3c42"/><path d="M10.75 17.582l-5.013.485-.233-1.045c.02-.022 4.14-.374 4.552-.4.244-.088.44-.163.515.14l.18.832z" fill="#24272e"/><path d="M5.08 18.155l.194-.044-.187-.82s-.072-.01-.122.116l-.02.23c.018.035.047.054.134.517z" fill="#26262e"/><path d="M7.873 30.47l.214-.05.215.862s-.46-.224-.43-.8zm.604-.12l5.073-.9.235.953c-.104.118-4.48.913-5.058.976l-.25-1.028z" fill="#1e1e26"/><path d="M5.583 16.872s-.444.027-.602.267-.223.56-.223.56-.054-.18.082-.447.365-.376.744-.38z" fill="#fefefe"/><path d="M9.36 30.884l.3-.064-.048-.212-.295.06.054.216zm.026-.06l.2-.038-.035-.126-.213.035.04.13zm-.03-.204l.26-.045.052.175.04-.014-.064-.212-.293.06zm3.343-.4l.013.052s.203.001.26-.085c.093-.146-.084-.195-.205-.177l-.01-.035-.12.083.143.06-.007-.054c.168-.062.312.113-.072.155z" fill="#919199"/><path d="M10.688 30.83c-.208-.007-.387-.464-.14-.636-.22.396.168.56.14.636z" fill="#727377"/><path d="M10.753 30.82l.93-.178c.27-.05.217-.53-.004-.635-.153-.073-.824.072-1.008.106 0 0-.165.065-.192.206s-.003.298.058.385.218.116.218.116zm-.075-.628l.936-.16c.235.132.277.455.015.54-.12.04-.858.16-.858.16s-.262-.103-.233-.33.14-.21.14-.21z" fill="#0e0e10"/><path d="M11.565 30.01l-.89.136c-.234.07-.262.538.1.62.09.02.95-.17.95-.17.3-.15.08-.644-.15-.585zm-.872.21l.837-.156c.26-.002.32.33.148.462-.076.06-.845.172-.88.174-.2.008-.328-.407-.106-.48z" fill="url(#F)"/><path d="M6.694 17.172c.17-.213.193.204.093.105-.023-.023 0-.085-.093-.105zm.256-.02c.17-.213.193.204.093.105-.023-.023 0-.085-.093-.105zm2.213-.254c.115-.058.247.16.15.233.272-.17-.105-.4-.15-.233z" fill="#121318"/><path d="M8.515 16.923l-1.09.105c-.03.02-.027.112.034.178s.335.024.335.024l.786-.08c.146-.053.07-.233-.066-.228zm-.035.04c.053.037.113.088.073.158.122-.007.078-.204-.073-.158zM8.412 17l.125.097c.01-.002-.083-.118-.125-.097zm-.088.01l.125.097c.013-.003-.083-.12-.125-.097zm-.08.014l.125.097c.014.001-.08-.115-.125-.097zm-.085.016l.125.097c.017-.002-.08-.118-.125-.097zm-.078.013l.125.097c.012-.003-.082-.12-.125-.097zm-.087.01l.125.097c.01-.001-.08-.117-.125-.097zm-.1-.003l.125.097c.013-.001-.083-.117-.125-.097zm-.086.006l.125.097c.02 0-.074-.116-.125-.097zm-.095.01l.125.097c.027.001-.067-.115-.125-.097zm-.075.013l.125.097c.018-.003-.074-.12-.125-.097zm-.093.017l.125.097c.014.001-.064-.113-.125-.097zm-.094.018l.125.097c.001.001-.058-.116-.125-.097z" fill="url(#C)"/><path d="M7.408 17.08c.02-.038 1.025-.13 1.165-.145-.003-.032-1.028.078-1.128.088l-.038.057z" fill="#494c53"/><g fill-rule="nonzero" fill="#b1c4c0"><path d="M8.73 23.265l-.052.007-.1-.205-.025.222-.052.007-.112-.25.037-.012.097.228.027-.245L8.6 23l.1.227.03-.246.038-.006-.038.28zm.248-.126l-.13.018.074.062.063-.024.006.028-.007.005-.062.02c-.07.01-.104-.027-.114-.093-.008-.06.015-.113.08-.123.058-.008.092.026.1.08l-.01.024zm-.026-.023l-.06-.053-.046.07.107-.015zm.277.08l-.032.005-.004-.026-.03.03c-.065.05-.12-.014-.13-.08-.014-.096.058-.16.133-.102l-.016-.114.036-.005.04.29zm-.056-.133c-.057-.053-.114-.033-.102.054s.07.1.113.025l-.01-.08zm.167.115l-.033.074-.026.004.02-.067-.004-.038.035-.01.007.037zm.383-.06l-.037.013-.034-.066-.118.017-.015.075-.037.002.058-.284.05-.007.132.25zm-.155-.215l-.03.148.098-.014-.07-.134zm.368.193l-.033.005-.004-.026c-.035.05-.108.073-.136.004l-.026-.155.036-.005.023.142c.022.056.07.02.094-.018l-.02-.138.036-.005.028.197zm.2-.205l-.028.004.018.066c-.01.04-.073.066-.106.045l.022.036c.04-.004.118-.022.126.04.012.086-.17.118-.182.04l.02-.054-.013-.074-.02-.04c-.008-.06.043-.1.098-.083l.06-.008.004.03zm-.092.008c-.054.008-.045.094.013.086s.045-.094-.013-.086zm.09.2l-.094-.016-.018.04c.006.04.12.027.11-.025zm.345-.064l-.148.02-.004-.03.06-.008-.03-.215-.056.044-.005-.03.06-.05.035-.001.035.25.05-.007.004.03z"/><path d="M8.465 24.727l-.56.08c-.04.006-.056-.108-.016-.114l.223-.032-.116-.814c-.028.023-.203.182-.23.164l-.002-.113.224-.193c.01-.012.126-.042.13-.005l.134.94.193-.027c.04-.006.057.108.016.114zm.832-.47c.05.34-.312.484-.585.405-.083-.023-.065-.132-.04-.136.117-.017.533.154.478-.234-.044-.3-.443-.106-.5-.143-.03-.025-.086-.497-.07-.518.024-.032.44-.076.51-.086.045-.006.06.118.018.124l-.4.057.043.3c.225-.066.5-.044.54.23zm.31-.272c-.127.018-.15-.174-.027-.19s.154.173.027.19zm.082.575c-.127.018-.148-.174-.027-.19s.154.173.027.19zm.947-.142l-.56.08c-.04.006-.056-.108-.016-.114l.223-.032-.116-.814-.19.152c-.07.05-.07-.076-.04-.1l.224-.193c.01-.01.126-.042.13-.005l.134.94.193-.028c.04-.006.057.108.016.114zm.542-.06c-.556.08-.6-1.037-.135-1.105.542-.077.628 1.034.135 1.105zm-.127-.987c-.29.04-.228.918.12.87.29-.04.23-.92-.12-.87z"/><path d="M9.367 25.05c.013.1-.082.128-.155.107l-.004-.034c.05.02.13.005.12-.064-.008-.054-.06-.05-.103-.04l-.027.002-.02-.137.135-.023.005.033-.106.015.01.08c.058-.017.132-.012.143.06zm.206-.183l-.07.254-.04.004.074-.26-.136.02-.005-.033.165-.024.012.04zm.116.09c-.084.012-.102-.137-.02-.148s.102.137.02.148zm-.017-.124c-.038.005-.033.106.015.1.04-.006.03-.106-.015-.1zm.204.242c-.084.012-.1-.137-.02-.148s.104.136.02.148zm-.017-.124c-.04.006-.03.106.015.1s.025-.105-.015-.1zm-.15.146l-.03-.001.157-.3.032-.004-.002.005-.157.3z"/></g><path d="M10.06 25.054l.212-.025-.044-.29c-.08-.03-.153-.04-.213.033l.045.283zm-.01-.233l.15-.024s-.097-.084-.15.024z" fill="#aac5be"/></svg>