<?xml version="1.0" encoding="UTF-8"?>
<!DOCTYPE svg PUBLIC "-//W3C//DTD SVG 1.1//EN" "http://www.w3.org/Graphics/SVG/1.1/DTD/svg11.dtd">
<!-- Creator: CorelDRAW -->
<svg xmlns="http://www.w3.org/2000/svg" xml:space="preserve" width="15mm" height="15mm" style="shape-rendering:geometricPrecision; text-rendering:geometricPrecision; image-rendering:optimizeQuality; fill-rule:evenodd; clip-rule:evenodd"
viewBox="0 0 15 15"
 xmlns:xlink="http://www.w3.org/1999/xlink">
 <defs>
  <style type="text/css">
   <![CDATA[
    .fil2 {fill:white}
    .fil1 {fill:url(#id0)}
    .fil0 {fill:url(#id1)}
   ]]>
  </style>
  <linearGradient id="id0" gradientUnits="userSpaceOnUse" x1="7.4302" y1="14.153" x2="7.6271" y2="-0.0329">
   <stop offset="0" style="stop-color:#0088CC"/>
   <stop offset="1" style="stop-color:#0499E3"/>
  </linearGradient>
  <linearGradient id="id1" gradientUnits="userSpaceOnUse" x1="7.4027" y1="15.0186" x2="7.5997" y2="0.8326">
   <stop offset="0" style="stop-color:#E6E6E6"/>
   <stop offset="1" style="stop-color:#1A71B6"/>
  </linearGradient>
 </defs>
 <g id="Слой_x0020_1">
  <metadata id="CorelCorpID_0Corel-Layer"/>
  <g id="_255613744">
   <path id="_255613216" class="fil0" d="M6.8866 0.9293l1.2615 -0.0015c1.7841,-0.002 3.4507,0.3281 4.7506,1.5103 1.1326,1.03 1.4019,2.9313 1.4037,4.3589l0.0027 2.0898c0.0022,1.752 -0.1274,3.1722 -1.3642,4.5141 -0.9375,1.0172 -2.9218,1.5246 -4.3957,1.5221l-2.1884 -0.0036c-1.6504,-0.0028 -3.1013,-0.4941 -4.2777,-1.5245 -1.0732,-0.9402 -1.384,-2.7254 -1.384,-4.3009l0 -2.3157c0,-1.5643 0.3218,-3.3334 1.3806,-4.3359 1.1752,-1.1127 3.1493,-1.5112 4.8109,-1.5131z"/>
   <path id="_255613504" class="fil1" d="M6.9141 0.0637l1.2614 -0.0014c1.7841,-0.0021 3.4508,0.328 4.7506,1.5102 1.1327,1.03 1.402,2.9313 1.4038,4.3589l0.0027 2.0898c0.0022,1.752 -0.1275,3.1722 -1.3642,4.5141 -0.9375,1.0172 -2.9219,1.5246 -4.3957,1.5221l-2.1884 -0.0036c-1.6504,-0.0027 -3.1014,-0.4941 -4.2777,-1.5245 -1.0732,-0.9401 -1.384,-2.7254 -1.384,-4.3009l0 -2.3157c0,-1.5643 0.3218,-3.3334 1.3806,-4.3359 1.1752,-1.1127 3.1493,-1.5111 4.8109,-1.5131z"/>
   <path id="_255613456" class="fil2" d="M3.2033 6.6118l7.2712 -2.7874c0,0 0.2244,-0.055 0.3801,0.0435 0.1556,0.0984 0.151,0.3365 0.119,0.4968 -0.0321,0.1603 -1.2866,6.0236 -1.2866,6.0236 0,0 -0.0893,0.2679 -0.2679,0.3228 -0.1786,0.055 -0.4029,-0.103 -0.5151,-0.1808 -0.1122,-0.0779 -1.7698,-1.3348 -1.7698,-1.3348l-1.0439 1.0074c0,0 -0.1649,0.1442 -0.3068,0.0961 -0.142,-0.0481 -0.158,-0.1053 -0.2542,-0.3915 -0.0961,-0.2862 -0.6112,-1.9804 -0.6112,-1.9804 0,0 -0.0207,-0.0938 -0.1489,-0.1396 -0.1282,-0.0458 -1.8224,-0.5609 -1.8224,-0.5609 0,0 -0.2648,-0.094 -0.206,-0.2839 0.0595,-0.1923 0.4625,-0.3309 0.4625,-0.3309zm1.9608 1.1883l0.641 1.9323c0,0 0.0298,0.0366 0.0527,-0.0481 0.0228,-0.0847 0.1167,-1.2248 0.1167,-1.2248 0,0 -0.0091,-0.1054 0.1168,-0.213 0.1259,-0.1076 3.4364,-3.1114 3.4364,-3.1114 0,0 0.055,-0.0801 -0.0183,-0.0938 -0.0733,-0.0138 -0.1786,0.0068 -0.2541,0.0503 -0.0756,0.0435 -4.0478,2.5414 -4.0478,2.5414 0,0 -0.0755,0.0572 -0.0434,0.1671z"/>
  </g>
 </g>
</svg>
