<?xml version="1.0" encoding="UTF-8"?>
<!DOCTYPE svg PUBLIC "-//W3C//DTD SVG 1.1//EN" "http://www.w3.org/Graphics/SVG/1.1/DTD/svg11.dtd">
<!-- Creator: CorelDRAW -->
<svg xmlns="http://www.w3.org/2000/svg" xml:space="preserve" width="15mm" height="15mm" style="shape-rendering:geometricPrecision; text-rendering:geometricPrecision; image-rendering:optimizeQuality; fill-rule:evenodd; clip-rule:evenodd"
viewBox="0 0 15 15"
 xmlns:xlink="http://www.w3.org/1999/xlink">
 <defs>
  <style type="text/css">
   <![CDATA[
    .fil2 {fill:white}
    .fil1 {fill:url(#id0)}
    .fil0 {fill:url(#id1)}
   ]]>
  </style>
  <linearGradient id="id0" gradientUnits="userSpaceOnUse" x1="7.4316" y1="14.0777" x2="7.6287" y2="-0.1084">
   <stop offset="0" style="stop-color:#075384"/>
   <stop offset="1" style="stop-color:#32AEE1"/>
  </linearGradient>
  <linearGradient id="id1" gradientUnits="userSpaceOnUse" x1="7.4042" y1="14.9432" x2="7.6011" y2="0.7573">
   <stop offset="0" style="stop-color:#E6E6E6"/>
   <stop offset="1" style="stop-color:#1A71B6"/>
  </linearGradient>
 </defs>
 <g id="Слой_x0020_1">
  <metadata id="CorelCorpID_0Corel-Layer"/>
  <g id="_404754376">
   <path id="_404754544" class="fil0" d="M6.8881 0.8539l1.2614 -0.0014c1.7841,-0.0021 3.4508,0.328 4.7506,1.5102 1.1327,1.03 1.402,2.9313 1.4038,4.359l0.0027 2.0897c0.0022,1.752 -0.1275,3.1722 -1.3642,4.5141 -0.9375,1.0172 -2.9219,1.5246 -4.3957,1.5222l-2.1884 -0.0037c-1.6504,-0.0027 -3.1014,-0.4941 -4.2777,-1.5245 -1.0733,-0.9401 -1.384,-2.7254 -1.384,-4.3009l0 -2.3156c0,-1.5644 0.3218,-3.3335 1.3806,-4.336 1.1752,-1.1127 3.1493,-1.5111 4.8109,-1.5131z"/>
   <path id="_404754280" class="fil1" d="M6.9156 -0.0116l1.2614 -0.0015c1.7841,-0.0021 3.4507,0.3281 4.7506,1.5102 1.1326,1.0301 1.4019,2.9313 1.4038,4.359l0.0026 2.0897c0.0023,1.752 -0.1274,3.1722 -1.3641,4.5141 -0.9375,1.0173 -2.9219,1.5246 -4.3957,1.5222l-2.1884 -0.0037c-1.6505,-0.0027 -3.1014,-0.494 -4.2777,-1.5245 -1.0733,-0.9401 -1.3841,-2.7254 -1.3841,-4.3009l0 -2.3156c0,-1.5643 0.3219,-3.3335 1.3806,-4.3359 1.1753,-1.1128 3.1493,-1.5112 4.811,-1.5131z"/>
   <path id="_404754424" class="fil2" d="M3.5467 9.5181c0,0 1.0833,0.8143 2.6101,0.7053 1.5267,-0.1091 2.3774,-0.5453 3.2498,-1.4251 0.8724,-0.8797 1.1705,-2.0429 1.2432,-2.5955 0.0727,-0.5525 0.0291,-0.8434 0.0291,-0.8434l0.8325 -0.8397 -0.9597 0.269c0,0 0.2399,-0.1709 0.4435,-0.4181 0.2036,-0.2471 0.269,-0.5234 0.269,-0.5234 0,0 -0.2926,0.1927 -0.5235,0.2908 -0.2308,0.0981 -0.3726,0.1309 -0.4834,0.1327 -0.1109,0.0018 -0.0382,-0.0727 -0.2745,-0.229 -0.2363,-0.1564 -0.5289,-0.2582 -0.9233,-0.2999 -0.3944,-0.0418 -0.7561,0.1326 -1.0615,0.358 -0.3053,0.2254 -0.5452,0.7598 -0.5889,0.9488 -0.0436,0.189 0.0327,0.7234 0.0327,0.7234 0,0 -0.5344,-0.0181 -1.0215,-0.1635 -0.4872,-0.1454 -0.7016,-0.2217 -1.2542,-0.5707 -0.5525,-0.349 -0.8634,-0.7125 -0.9434,-0.8161 -0.0799,-0.1036 -0.1563,-0.1872 -0.1563,-0.1872 0,0 -0.1636,0.3762 -0.1963,0.6053 -0.0327,0.229 0.0145,0.6162 0.0636,0.7779 0.0491,0.1618 0.2653,0.4636 0.3526,0.5726 0.0872,0.1091 0.2762,0.2636 0.2762,0.2636 0,0 -0.198,0.011 -0.4616,-0.1017 -0.2636,-0.1127 -0.2599,-0.1164 -0.2599,-0.1164 0,0 -0.04,0.5453 0.3344,1.0434 0.3744,0.498 0.9379,0.5525 0.9379,0.5525 0,0 -0.0828,0.08 -0.3781,0.0737 -0.2954,-0.0064 -0.2999,-0.0055 -0.2999,-0.0055 0,0 0.0781,0.5544 0.5907,0.8307 0.5125,0.2763 0.9088,0.2872 0.9088,0.2872 0,0 -0.549,0.4035 -1.0979,0.5671 -0.5489,0.1636 -1.2902,0.1332 -1.2902,0.1332z"/>
  </g>
 </g>
</svg>
