<svg width="80" height="80" viewBox="0 0 80 80" fill="none" xmlns="http://www.w3.org/2000/svg">
<path fill-rule="evenodd" clip-rule="evenodd" d="M40.0005 0C62.0911 0 80 17.909 80 40.0007C80 62.0915 62.0911 80.0005 40.0005 80.0005C17.9089 80.0005 0 62.0915 0 40.0007C0 17.909 17.9089 0 40.0005 0ZM46.1973 44.498L49.708 17.8585C49.708 17.8585 47.1781 13.5728 42.8935 13.1601C38.6088 12.7473 33.8589 14.0895 32.2585 18.8393C30.6581 23.5883 30.6066 29.9386 32.3615 34.7914C34.1163 39.6442 38.6603 42.7936 40.622 43.6201C42.5837 44.4455 46.1973 44.498 46.1973 44.498ZM50.6373 19.1739L47.487 43.6191C47.487 43.6191 46.997 45.6323 46.1449 45.8906C45.2927 46.1489 40.8269 45.8392 37.2648 43.2578C33.7026 40.6765 31.1213 37.0114 30.0623 31.7449C29.0043 26.4794 29.8812 22.8657 30.3454 20.904C30.8106 18.9423 31.3272 18.4256 31.3272 18.4256C31.3272 18.4256 26.4211 19.0958 18.4713 28.9053C10.5206 38.7148 12.0686 47.697 12.0686 47.697C12.0686 47.697 13.5146 45.7352 13.9273 45.5294C14.3401 45.3225 14.0293 47.2842 14.4421 51.4145C14.8548 55.5448 16.2494 60.2422 16.2494 60.2422L24.9226 60.3976C24.9226 60.3976 24.5613 52.3954 25.4907 50.7949C26.4191 49.1945 28.6906 47.2327 32.5111 47.3357C36.3316 47.4396 38.8099 49.2984 39.481 52.7052C40.152 56.1129 40.152 60.4491 40.152 60.4491L48.3601 60.2937C48.3601 60.2937 47.9474 56.7325 47.793 52.0856C47.6376 47.4396 48.1542 44.2387 50.787 43.3093C53.4198 42.3799 56.8275 45.4769 57.1888 49.143C57.55 52.8081 56.5177 57.1967 55.227 57.7124C53.9364 58.229 53.782 57.558 52.7487 57.7648C51.7164 57.9707 51.9232 59.3138 52.1291 59.6751C52.336 60.0363 54.5045 60.7074 58.4279 58.8486C62.3513 56.9899 65.2424 48.2651 65.5522 41.5545C65.862 34.8429 62.1445 26.995 57.1888 22.9687C52.233 18.9413 50.6373 19.1739 50.6373 19.1739ZM53.9564 30.8031C55.1212 30.8031 56.0668 31.7363 56.0668 32.8869C56.0668 34.0384 55.1212 34.9715 53.9564 34.9715C52.7906 34.9715 51.846 34.0384 51.846 32.8869C51.846 31.7363 52.7906 30.8031 53.9564 30.8031Z" fill="#999999" fill-opacity="0.6"/>
</svg>
