<svg xmlns="http://www.w3.org/2000/svg" width="10.837mm" height="10.837mm" viewBox="0 0 10.8372 10.8372" shape-rendering="geometricPrecision" text-rendering="geometricPrecision" image-rendering="optimizeQuality" fill-rule="evenodd" clip-rule="evenodd"><defs><style type="text/css"><![CDATA[
    .fil3 {fill:#33CC33}
    .fil0 {fill:gray}
    .fil2 {fill:#B3B3B3}
    .fil1 {fill:#91948F}
   ]]></style></defs><g id="Слой_x0020_1"><path class="fil0" d="M3.958 3.639l.003 3.6s0 .112.089.198c.089.086.213.079.213.079l1.893.001-.068-.203-.024-.166-1.733.001.006-2.976h2.631l-.001 1.751.209-.04h.167l-.003-2.264s-.004-.134-.114-.194l-.217-.074-.496-.001-.003.162c-.01.082-.085.192-.184.238l-.196.05-1.025.001s-.169-.026-.24-.139l-.077-.19.01-.123-.632.001s-.093.031-.148.112l-.06.174z"/><path class="fil1" d="M5.287 3.209l-.185.004c-.056.008-.157.085-.163.196-.006.112.059.177.059.177l.095.059.082.007.981.001s.142-.018.18-.111c.038-.093.035-.134.019-.201-.015-.067-.089-.11-.125-.118l-.056-.014-.185-.001-.068-.08c-.019-.059.003-.128-.077-.214-.079-.086-.199-.075-.199-.075s-.1-.006-.181.071c-.081.077-.074.17-.074.17s.018.093-.102.13zm.364-.226l-.086.044-.015.117.093.063.1-.043.014-.117-.105-.064z"/><path class="fil2" d="M4.615 4.548l-.05.05-.002.126.058.043h1.978l.058-.033.006-.153-.058-.036c-.026-.004-1.989.004-1.989.004zm.005.667l1.981-.001.059.043.003.122-.027.043-.035.015-1.978-.003-.061-.074.004-.111.055-.033zm-.058.648v.112l.056.056c.035.004 1.614.001 1.614.001l.042-.031.016-.049.001-.095-.022-.027-.052-.022-1.605.002-.051.054zm-.001.667l-.001.112.029.04.04.016 1.442.002.053-.033.008-.153-.055-.037c-.036-.005-1.463-.002-1.463-.002l-.053.055z"/><path class="fil3" d="M7.269 6.105c.539 0 .976.431.976.962 0 .531-.437.962-.976.962-.539 0-.976-.431-.976-.962 0-.531.437-.962.976-.962zm-.576 1.126l.43.345.085.015.109-.066.61-.677.017-.098c-.013-.066-.045-.096-.092-.116l-.13.008c-.036.021-.55.598-.55.598l-.301-.234s-.074-.033-.142.014c-.068.047-.064.116-.064.141l.028.068z"/></g></svg>