<svg xmlns="http://www.w3.org/2000/svg" xmlns:xlink="http://www.w3.org/1999/xlink" width="163.839" height="163.839" viewBox="0 0 43.349 43.349" shape-rendering="geometricPrecision" image-rendering="optimizeQuality" fill-rule="evenodd" xmlns:v="https://vecta.io/nano"><defs><linearGradient id="A" x1="19.438" y1="17.54" x2="24.711" y2="17.54" xlink:href="#I"><stop offset="0" stop-color="#007193"/><stop offset="1" stop-color="#0098c5"/></linearGradient><linearGradient id="B" x1="14.55" y1="17.523" x2="19.512" y2="17.523" xlink:href="#I"><stop offset="0" stop-color="#00b2e4"/><stop offset="1" stop-color="#0080a6"/></linearGradient><linearGradient id="C" x1="2.309" y1="17.666" x2="2.731" y2="17.666" xlink:href="#I"><stop offset="0" stop-color="#090909"/><stop offset=".11" stop-color="#1f1f1f"/><stop offset="1" stop-color="#363636"/></linearGradient><linearGradient id="D" x1="6.405" y1="18.306" x2="6.405" y2="17.183" xlink:href="#I"><stop offset="0" stop-color="#141414"/><stop offset=".141" stop-color="#252525"/><stop offset="1" stop-color="#363636"/></linearGradient><linearGradient id="E" x1="16.818" y1="25.546" x2="32.885" y2="38.4" xlink:href="#I"><stop offset="0" stop-color="#999"/><stop offset=".322" stop-color="#ccc"/><stop offset="1" stop-color="#fefefe"/></linearGradient><linearGradient id="F" x1="29.419" y1="30.357" x2="23.598" y2="24.537" xlink:href="#I"><stop offset="0" stop-color="#fff"/><stop offset=".149" stop-color="#fff"/><stop offset=".471" stop-color="#bbb"/><stop offset=".788" stop-color="#fff"/><stop offset="1" stop-color="#fefefe"/></linearGradient><linearGradient id="G" x1="29.792" y1="21.147" x2="35.813" y2="24.158" xlink:href="#I"><stop offset="0" stop-color="#027699"/><stop offset=".51" stop-color="#0187af"/><stop offset="1" stop-color="#0098c5"/></linearGradient><linearGradient id="H" x1="10.694" y1="17.374" x2="10.016" y2="18.053" xlink:href="#I"><stop offset="0" stop-color="#070707"/><stop offset=".149" stop-color="#1e1e1e"/><stop offset="1" stop-color="#363636"/></linearGradient><linearGradient id="I" gradientUnits="userSpaceOnUse"/></defs><circle cx="22.089" cy="22.053" r="19.05" fill="#f0f0f0"/><path d="M16.837 34.93c.432.682 1.103 1.47 1.768 1.925.68-.257 5.368-5.168 5.368-5.168l-1.443-1.572c-1.863 1.073-4.92 2.642-5.694 4.814h0z" fill="#0d1110"/><path d="M2.254 16.82c-.03.213-.034 1.613.01 1.68.143.226.34-.156.4-.15 1.18.14 5.63.116 7.52.007.086.167.25.25.37.07.03-.043.013-1.623.01-1.688-.008-.144-.333-.216-.414.07-2.582-.14-4.882-.122-7.462.002-.05-.147-.38-.302-.422.007v.001z" fill="#141414"/><path d="M2.376 18.416c.01.03.193-.1.24-.13.116-.07-.115-1.33-.182-1.354-.124-.046-.065 1.462-.057 1.482z" fill="url(#C)"/><path d="M2.726 17.257l.02.893 7.31-.104.028-.843s-.086-.02-.104.104c-.09.622-3.245.09-3.737.09-1.52 0-2.233.667-3.458-.15l-.06.01v.001z" fill="url(#D)"/><path d="M10.18 17.195l.004 1.02c.02.057.107.175.175.175.19 0 .104-1.19.1-1.333 0 0-.168-.02-.28.138z" fill="url(#H)"/><path d="M10.473 17.862c.594-.032 1.188.02 1.342.747l1.37 7.22c.147.415.425.71.9.71l2.383-.004c.36-.017.777-.67.854-.943l-.586.004c-.058.155-.197.398-.357.454-.214.075-2.222.07-2.44.01-.668-.186-1.466-6.567-1.63-7.516-.332-.996-.9-1.216-1.842-1.188l.007.505h-.001z" fill="#050505"/><path d="M10.56 17.492c1.28-.01 1.405.753 1.657 1.78.146.594 1.036 6.268 1.268 6.598.473.67 1.946.382 2.794.38.36-.038.524-.35.647-.655l.204-.001c-.03.46-.485.802-.907.856-1.145.147-2.91.36-3.097-1.115l-1.418-7.17c-.373-.455-.58-.405-1.146-.4l-.001-.283z" fill="#fff"/><path d="M11.466 17.48c.33.15.697.58.805.922.125.396 1.24 6.923 1.347 7.187.15.368.32.44.673.5-.51.375-.826-.484-.923-.815-.183-.624-1.104-6.198-1.214-6.715s-.384-.7-.688-1.08v-.001z" fill="#026a82"/><path d="M10.55 17.563c1.043-.106 1.49.624 1.632 1.552l1.247 6.69c.18.315.276.388.55.44s2.277-.001 2.385-.015c.248-.033.513-.412.59-.638l-.143.001c-.195.847-2.415.69-2.87.54-.075-.025-.318-.053-.468-.536s-1.205-6.74-1.205-6.74c-.255-1.065-.645-1.423-1.726-1.438l.006.143z" fill="#3d3535"/><path d="M14.634 26.1s.152.104.207.105c1.383.043 1.642-.015 2.07-.538l.383-.001.026-.075-.577-.007c-.317.664-1.416.508-2.108.517V26.1z" fill="#026980"/><path d="M13.98 26.533a12.14 12.14 0 0 0 1.14.047l1.322-.045c.062.001-.218-.074-.67-.075l-1.707-.015c-.1.032-.083.088-.083.088z" fill="#555"/><path d="M30.02 24.767c.523-.082 1.64-.406 2.082-.514.015-.004-.212.602-.912 1.08-.774.53-3.655 2.967-3.7 3.994-.015.322-.015.936-.3 1.107-2.003 1.202-7.62 9.26-9.602 6.666 5.333-4.1 7.705-8.11 12.433-12.334v.001z" fill="url(#E)"/><path d="M25.38 27.094c.182-.134.553.16.693.282.557-.297 3.042-2.523 3.132-2.53l.815-.08-5.715 5.36-1.31-.1c.56-.73 1.7-2.427 2.383-2.934z" fill="url(#F)"/><path d="M19.798 10.537c.334.322.336-.272.81-.28l.593-.01.115-.09.11.064c.07.04.7.107.722.007.042-.204 1.078-.03 1.28.272.226.34.125-.214.207-.143.053.047.03.11.125.11.133 0 .64.31.7.132.025-.075.093-.18.136-.15.28.186.403-.11.314-.2-.02-.02.025-.2.24.015.04.04.1-.004.125-.047.066-.113 1.357-.052 1.51-.025.772.134 2.5.067 3.043.29.142.06 1.1-.05 1.393-.036.347.016 1.782.094 2.086-.007.553-.185 1.702-.075 2.368-.09l.173.08.293.01c.09.07.27.144.38.07.218-.145.37-.012.556.01.272.034.31-.086.422-.062.488.103.21.152.834.125.432-.02-.152.925-.22 1.032-.043.068.036.143.122.168.052.015-.08.418-.104.464l-.107.22.186.343c-.058.23.023.414.243.24.086-.068.036.03.01.114l-.004.44c-.02.1-.118.21-.057.282.327.385-.194 1.74-.164 1.95.158 1.104-.012.796-.214 1.565l.02.257c-.1.08-.172.12-.172.18 0 .078.26.164.28.422.047.615-.096 2.893.043 3.115.077.123.126 2.02.032 2.093l-.047.104c.001.002.208.187.05.2-.001 0-.267.775-.132.843.07.036.102.175.082.19-.1.1-.672-.123-1.002.11-.068.05-.104.084-.21.052-.247-.076-.72-.22-.96-.175-.695.126-1.577-.122-2.288-.073-.2.013-1.048.227-1.133 0-.106-.283-.22-.23-.218-.232l.154-.12c.003-.03-.52.177-.83.09-.097-.028-2.946.536-3.626.536-.147 0-.315-.047-.23-.082l.607-.12c.035-.186-.88.1-.997.093-.13-.007-.3-.115-.37-.05s.05.18-.157.172c-.967-.033-2.11.08-3.076-.125-.253-.053-.734-.175-.975-.26-.1-.036-.214-.036-.325.05-.13.1-.51.216-.414.08.047-.068.096-.136.075-.172-.047-.077-.388-.005-.404.082-.078.44.08.065-.13-.007-.12-.04-.5-.036-.697.053-.37.16-1.13.13-1.543.13l.01-14.464.164.19c.045.073.114.004.185-.018h-.001z" fill="#04a1d1"/><path d="M19.512 10.604l-.001.832c.043-.03 5.02-.66 5.026-.715.05-.382 3.85.21 4.483.21.1 0 .114-.068.23-.122.366-.172 2.725.096 3.418.204.92.144 3.603-.144 4.64-.182.193-.007.118-.14.204-.18.833-.382.45.87.436.89-.162.207.306.266.107.504-.63.752.052 1.438-.164 2.01-.37.984.15 1.148 0 1.957-.23 1.237-.03 3.693-.147 4.158-.21.838.255.232.28.836.016.424.218 3.81-.035 3.8a76.39 76.39 0 0 1-1.724-.12l-1.107-.157c-2.05-1.203-1.72-.036-3.88-.068-16.59-.244-11.775-.332-11.76-13.87l-.001.001z" fill="#0098c5"/><path d="M31.865 24.452c.626-.568 3.898-2.808 3.122-3.63-.243-.257-.743-.157-.97 0s-4.172 3.8-4.172 3.8c.805.117 1.358-.194 2.022-.172v.001z" fill="url(#G)"/><path d="M19.798 10.537c.334.322.336-.272.81-.28l.593-.01.115-.09c.092-.004.13.158.315.06l.153-.07c.06.002.29.166.364.082.21-.233 1.11.017 1.28.272.24.36.142-.2.207-.143.053.047.03.11.125.11.302 0 .625.357.7.132.025-.075.093-.18.136-.15l.115.07h.002v14.445c-.588-.148-1.28-.153-1.837-.352-.1-.036-.214-.036-.325.05-.13.1-.51.216-.414.08.047-.068.096-.136.075-.17-.047-.077-.388-.005-.404.082-.075.427.268.178-.13-.007-.115-.053-.5-.036-.697.053-.37.16-1.13.13-1.543.13l.01-14.464c.184.18.085.256.35.17z" fill="url(#A)"/><path d="M26.11 27.788l.47.464 6.944-6.294.07-.15.314-.293.136-.036.232-.625-.464.085-.532.55-.154.053z" fill="#a0a6ab"/><path d="M26.208 27.886l4.466-4.034-.118.175-4.31 3.897-.038-.038zm.312.37l4.122-3.776-4.2 3.714.078.062z" fill="#dadde2"/><path d="M33.61 21.307c.286-.138.53-.113.67-.386h-.353s-.3.295-.32.276l.004.11zm.29.096l.263-.118-.096.202-.168-.084z" fill="#7f8c92"/><path d="M22.664 30.263l.467.51s-1.214 1.006-1.835 1.357.514-.75.536-.83-3.993 1.833-3.908 3.865 4.118-1.96 4.537-2.9c.086-.193-.37.272-.37.05L23.35 31l.485.53c-.776 1.214-3.917 5.202-5.23 5.318a7.61 7.61 0 0 1-1.662-1.765c1.067-2.408 3.54-3.634 5.72-4.83v-.001z" fill="#2b2c2f"/><path d="M17.552 35.417c-.177.557.475.862 1.05.428l.786-.636c-.658.03-.904-.127-1.257-.676-.15.29-.508.66-.58.884z" fill="#101210"/><path d="M17.76 35.254c-.175.338.05.64.4.664.16.01.393-.25.464-.368.11-.184-.435-.956-.865-.296h.001z" fill="#de1413"/><path d="M19.48 10.444c.123.65.214.236.372.2.066-.015.252.102.292.053.03-.018.007-.13.093-.193.072-.054.184-.176.247-.16l.19.11.093-.053c.02-.057.09-.057.118-.025l.075-.02h.536l.017-.1c-.103-.006-.176-.19-.267-.027-.04.073-.67.001-.816.06-.135.054-.257.25-.35.304-.04.024-.17.052-.204.005-.045-.06-.068-.063-.13-.03-.163.085-.21-.226-.263-.112zm2.327-.036l.152.3.102-.107c.185-.066-.108-.125-.095-.17l.077-.104c.048-.01-.03-.08-.07-.07l-.164.152zm3.605-.244c-.012-.083.29.48.282-.014l-.282.014zm.646.002c.33.038.283.305.425.2.12-.097.163-.2.366-.15-.132-.04-.67-.068-.792-.04h.001zm1.843.494s-.03-.086.09-.11l.175-.08c.143-.018.204-.007.1.047-.185.096-.237.27-.364.143zm1.1-.22s-.05.093.096.107c.001 0 .92.288.7.068-.08-.08-.214-.04-.26-.08-.15-.126-.352-.127-.536-.096zm1.437.046c.05.038.244.157.296.118.18-.135-.185-.104-.296-.118zm-.383.11l.118.082c.13.045.384-.325-.118-.082zm2.21.043c-.047-.158.414-.12.375-.082-.028.028-.323.158-.375.082zm2.968-.25c.092.04.288.26.315.17l-.086-.164c.027-.035-.16-.044-.23-.007zm2.815 1.28c-.236.094.064.245.13.12.014-.025-.074-.136-.13-.12z" fill="#d2f2f7"/><path d="M14.55 10.158c.08-.41.657-.547 1.004-.596.544-.078 3.676-.263 3.958.39l-.043 15.375c-.104.42-4.117.236-4.456.175-.21-.038-.448-.227-.448-.456l-.014-14.89z" fill="url(#B)"/><path d="M38.138 12.007c-.06.026-.046.327-.005.24.014-.03.05-.2.005-.24zm-.214.56c-.122.122.547.352 0 0zm.482.777c-.03.073-.2.7-.1.68l.04-.25c.07-.113.138-.31.05-.428zM38.36 14.4c0 .047.043.64-.047.81s-.162.205-.08.236c.128.048.373-.745.125-1.047zm-.368 1.422c-.07.223-.013.474.107.675.163.272-.05-.43-.043-.464.03-.14-.064-.21-.064-.21zm-.018 2.358l.047.518c.001.01-.218.892-.047.568.32-.602.134-1.334 0-1.086zm.142 1.204c-.743.382.3.403 0 0zm-.172.61c-.003.005-.084.533-.06.554.015.013.337.65.204.184l-.022-.312c-.146-.043.044-.42-.12-.425v-.001zm.254 1.9c.058-.003-.074 1.098.03 1.1.048.001.043-.736-.03-1.1zm-.075 1.557c-.004.032.022.1-.06.157-.11.1.286.136.17-.01-.053-.067-.09.045-.1-.148zm-.018.586c0 .06.016.115-.09.118-.124.003-.235.3-.154.225.243-.254.222-.01.29-.078.06-.06.036-.3-.046-.265h.001zm-.96.868c-.014-.085-.66-.282-.785-.085.135.02.78.232.785.085zm-4.415-.51s0-.147.107-.07c.316.22.39-.206.4-.032.01.15-.315.2-.143.282.147.08.54.045.55.154-.104.001-1.18.37-1.052-.1.022-.082.74-.127.137-.223zm-.714.025c.177-.126.185-.076.37-.05 0 0-.288.136-.37.05zm-4.192.517c.186-.176.977-.2.86-.142-.043.02-.282.01-.325.075s.017.1-.214.12-.322-.047-.32-.052h-.001zm1.227-.374l.03.001c.052.004.16.02.168.088.015.127.214.238.193.13-.016-.086-.13.003-.122-.136s-.268-.082-.268-.082v.001zm-1.226.242c-.152-.142-.306-.02-.3.048.003.027.214.004.3-.048zm-.895.026c.34.15-.252.15 0 0zM25.28 24.7l.15.168c.01.022.332-.12.282-.19-.018-.025-.22.247-.432.02h-.001zm-2.48-.1c-.003.02.13-.084.22-.037.283.14 1.146.03 1.26.36-.156.005-1.44-.238-1.482-.324h.001zm-.7-.058c.2-.08.307.104.467.088.184-.018-.254.263-.404.174-.14-.084.2-.152-.063-.262zm-.172.04s-.13.036-.1.105-.083.148-.06.115c.057-.08-.27-.25.16-.22z" fill="#d2f2f7"/><path d="M26.276 27.952l6.796-6.067.043.09-6.748 6.096z" fill="#c5ccd4"/><path d="M26.41 28.13l.098.086L33.26 22.1l-.118-.057z" fill="#fcfdff"/><path d="M33.032 21.775l.18.188.175-.21-.082-.17-.14.03z" fill="#a4b3bc"/><path d="M33.334 21.568c.103.038.145.115.17.216l-.105-.018-.066-.198z" fill="#818f95"/><path d="M33.557 21.795c.237-.226.28-.297.438-.584l-.475.45.037.136z" fill="#c8d7e1"/><path d="M22.53 30.117l1.305 1.422s.37-.528 1.206-.957l1.583-.765c.154-.17-.22-.558-.33-.727l.54-.525-.023-.025-.927-.983-.464.396c-.14.094-.49-.33-.66-.37-.118-.03-.182.068-.3.253-.64 1.007-.947 1.552-1.93 2.28v.001z" fill="#ff1b22"/><path d="M25.448 28.222l.67.693s-.314-.46-.67-.693z" fill="#f4272f"/><path d="M25.095 28.268c.157.025.246.233.357.322l.23.243c.13.046.06.108.143.16.074.047.325.235.275.318-.044.073-.224-.163-.26-.2l-.275-.236c-.04-.05-.05-.14-.115-.154-.073-.015-.138-.035-.153-.143l-.21-.168c-.026-.055-.108-.134.01-.143zm-.15.297c-.067.196.095.13.11.218.023.125.562.548.564.554.12.323.315.254.004-.175-.066-.1-.174-.126-.218-.24-.026-.067-.14-.15-.172-.13-.23.153.053-.267-.29-.23z" fill="#f01719"/><path d="M23.47 31.14c1.402-.86.912-1.28 2.865-1.768-.22.47-.787.656-1.218.893-.4.22-1.11.783-1.35 1.197l-.296-.322z" fill="#fa7175"/><path d="M24.412 29.87c.066-.003.102.198.034.198l-.324.16c-.157-.143.276-.358.29-.36h.001z" fill="#efa4a1"/><path d="M23.944 30.32c.107.122-.07.235-.095.23l-.075.015c-.082.354-.16-.62.17-.245zm-.21-.195c-.038-.153.233-.306.24-.294.292.32-.255.22-.24.294z" fill="#f36d6b"/><path d="M23.006 30.562c-.286.263 1.62-1.427 1.793-1.714.085-.142.056-.52.236-.88-.064-.028-2.005 2.054-2.345 2.323l.272.295.045-.024v-.001z" fill="#ff3741"/><path d="M26.053 28.626l.207.253.48-.413-.234-.25z" fill="#fa7175"/><path d="M22.54 30.092c.06.078 1.102-1.047 1.177-1.163l.9-1.356c.132-.09.236.004.35.086s.365.312.365.312c-.104-.062-.546-.383-.625-.377-.148.01-.796 1.154-.917 1.33a5.49 5.49 0 0 1-1.239 1.169h-.001zm4.234-1.512l-.527.498.002.086c.03.066.332.32.33.486-.008.37-1.1.664-1.41.814-.33.165-1.158.73-1.34 1.06l.007.015s.445-.52 1.014-.853 1.236-.538 1.47-.647.315-.208.345-.3c.035-.12-.288-.515-.37-.638l.48-.5z" fill="#f01719"/><path d="M19.62 34.23c.026.095-.09.2-.17.203l-.033-.044c.393-.34-.065-.075-.17-.196-.097-.112.073-.242.126-.222l.027.04c-.39.336.155-.01.22.218zm.3-.157l-.167.138c-.015.001-.295-.32-.296-.334l.048-.035.258.298.123-.107.034.04zm.184-.15c-.2.182-.507-.182-.3-.36s.507.182.3.36zm-.27-.32c-.143.124.09.405.237.278s-.1-.405-.237-.278zm.74-.13l-.045.062c-.058.001-.343-.118-.4-.148l.25.287-.04.04-.28-.32c-.024-.027.03-.076.066-.067.388.098.534.32.14-.133l.043-.038.275.318v-.001zm.22-.467c.145.167-.007.39-.1.398a2.24 2.24 0 0 1-.291-.337c.022-.1.266-.218.4-.062h.001zm-.33.06l.232.268c.21-.183.047-.51-.232-.268zm.69-.052c-.2.18-.507-.182-.3-.36s.507.182.3.36zm-.27-.32c-.143.124.09.405.237.278s-.1-.405-.237-.278z" fill="#f5f5f5" fill-rule="nonzero"/><path d="M17.968 36.32l.434.377c.774.596 4.812-4.32 5.362-5.235l-.296-.322c-1.782 2.15-2.912 3.9-5.5 5.18h.001z" fill="#4d4e4f"/><path d="M17.896 35.586c.07-.082.335-.427.46-.362.1.05-.185.468-.37.468l-.09-.105zm.282-.563c.54.237.53.743-.068.867.252.033.527-.18.513-.45-.02-.34-.39-.5-.445-.418z" fill="#b1101b"/><path d="M16.837 34.93s-.23.386-.29.66c-.117.528.724 1.376 1.136 1.5.225.068.496-.03.668-.09l.255-.147s-.973-.643-1.768-1.925h0z" fill="#ff1b22"/><path d="M16.853 35.053c.487.698 1.008 1.364 1.752 1.804 0 0-.673-.505-1.13-1.06s-.624-.843-.624-.843l.002.098v.001z" fill="#b1101b"/><path d="M31.534 29.79c.984.21 2.206 1.94 3.515 2.284 0 0-.207-.216-.48-.566-.54-.698-1.69-1.185-2.233-1.942-.23-.32-.23-.62-.23-.62s-.628.37-.575.843z" fill="#cfcfcf"/><path d="M31.283 29.923l.78.068.064.107.147.046.053.118.16.05.04.115c.053 0 .147-.004.16.032l.064.136c.025 0 .13.01.157.075s.03.125.118.107.09.057.115.11.05.053.136.053l.107.157.115.053c.01.04.09.157.136.132s.068.05.082.086l.08.025c.05-.015.057.07.093.132s.036.06.125.04.068.093.125.122l.13.01.043.093.06-.01.036.096.147-.007.064.06c.122.05.21.046.336.13l-.13-.182-.015-.07-.09-.032c-.007-.04-.02-.122-.06-.104l-.04-.06-.093-.007-.06-.154-.143-.09-.1-.147c-.036-.01-.1 0-.132-.09l-.132-.1-.09-.08-.164-.04-.093-.14-.132-.086-.096-.047-.07-.14-.164-.07-.118-.164-.104-.093-.096-.03-.053-.093-.09-.03-.05-.13-.132-.064c.058-.136-.117-.08-.154-.118-.104-.104-.243-.55-.296-.718 0 0-.514.31-.77.936l-.001.001z" fill="#2c2c2c"/><path d="M31.42 29.84l.336-.422c.033-.033.753.628.768.743.007.053.01.132.057.154l.115-.007c.067.01-.03.295.168.21.065-.028-.08.117.24.053.245-.05-.044.212.064.225.013.002.19-.117.312.124l.028.16c.152.19.14.066.214.04.012-.004.162.4.196.26.01-.043.018-.182.047-.13l.053.22.11-.06.06.175.202.05a4.36 4.36 0 0 1 .361.335s-.143-.027-.167-.073c-.03-.058-.273.004-.194-.088l-.035-.027-.067-.076-.15-.02-.08-.12-.118.01-.12-.183c-.192-.01-.068-.074-.156-.115l-.054.005-.105-.122-.16-.12c-.058-.188-.1-.057-.18-.123-.054-.052-.338-.32-.382-.324l-.07-.066-.058-.096-.127-.01c-.068-.042.067-.034-.2-.164l-.045-.08c-.027-.118-.148-.06-.183-.096l-.015-.08c-.05-.033-.636-.07-.748-.08l.084-.088z" fill="#363636"/><path d="M39.15 32.36c-.656-.763-.582-2.88-1.414-3.946 0 0 .034.297.038.74.008.883.626 1.966.6 2.897-.01.393-.193.632-.193.632s.725.085.968-.323z" fill="#cfcfcf"/><path d="M39.43 32.408l-.58-.525.014-.124-.09-.126.03-.126-.098-.137.038-.115-.11-.123.03-.147c-.02-.015-.096-.086-.08-.155.012-.05-.047-.377-.13-.44l.01-.2-.058-.112c.015-.037.024-.18-.028-.187s-.024-.08-.013-.118l-.048-.067c-.048-.02-.002-.09.006-.162s.008-.07-.075-.107.002-.115-.026-.172l-.096-.086.022-.1-.055-.028c-.063-.035.105-.015.03-.098-.092-.1-.28-.346-.325-.476l-.008.223-.032.066.052.08c-.018.036-.057.1-.015.12l-.005.072.07.062-.045.16.06.157-.01.177c.022.03.08.06.05.15s.024.134.045.16l.024.117.107.13-.01.167.053.148.05.096-.028.154.087.156-.005.202.026.137.06.08-.014.106.054.077-.038.133.066.13c-.13.073.044.135.05.187.02.145-.14.585-.2.75 0 0 .598.064 1.18-.278v.001z" fill="#2c2c2c"/><path d="M39.27 32.39l-.523.132c-.045.006-.132-.726-.09-.837.108-.287-.128-.12-.07-.22.027-.047.07-.112.048-.157l-.096-.063c-.047-.048.2-.218-.006-.27-.07-.017.134-.045-.158-.187-.224-.11.163-.142.085-.218-.01-.01-.322-.086-.272-.35l.173-.08c-.006-.244-.072-.138-.147-.16-.012-.004.114-.416.001-.327-.034.028-.124.134-.115.074l.09-.21-.125-.02.058-.176-.114-.05-.016-.11c-.04-.07.047-.127-.038-.197-.065-.053-.052-.21-.046-.287.04.043.24.337.2.347l.012.042.006.1.11.107-.007.144.1.064-.015.22.068.067-.014.12.046.03.01.16.054.19c-.067.185.054.112.07.207l.073.266c-.017.084-.06.138.035.223l.015.094-.012.112.096.084c.03.075-.074-.013.06.252l-.013.1c-.05.1.08.14.087.187l-.038.073c.02.056.464.44.548.516l-.12.02.001.001z" fill="#363636"/><path d="M40.12 22.667c-.18.99-1.87 2.266-2.173 3.585 0 0 .21-.214.55-.496.68-.563 1.132-1.725 1.87-2.292.31-.24.612-.248.612-.248s-.39-.617-.86-.548z" fill="#cfcfcf"/><path d="M39.98 22.42l-.043.78-.105.067-.042.148-.116.057-.045.163-.113.043c.002.053.008.146-.027.162l-.134.068c.001.025-.007.13-.07.16-.047.023-.263.274-.26.377l-.154.112-.05.116c-.04.012-.154.094-.128.14s-.048.07-.083.085l-.023.08c.016.05-.07.06-.13.097s-.06.037-.035.126-.09.07-.118.13l-.007.13-.09.046.013.06-.096.04.012.146-.06.066c-.047.123-.04.213-.118.34l.178-.134.07-.016.03-.1c.04-.008.12-.025.102-.064l.06-.04.004-.093c.252-.116.122-.027.236-.21l.143-.105c.01-.036-.003-.1.085-.135s.09-.103.096-.135l.075-.092.034-.166.136-.097.08-.135.043-.098.137-.076.066-.167.16-.123.1-.106.026-.097.09-.057.026-.1.127-.054.06-.134c.138.054.077-.12.113-.157.1-.107.543-.26.708-.32 0 0-.327-.505-.96-.742h.001z" fill="#2c2c2c"/><path d="M40.07 22.555l.432.323c.034.032-.605.772-.72.79-.053.01-.132.015-.152.062l.01.114c-.007.067-.295-.02-.205.174.03.064-.12-.076-.046.24.057.243-.213-.037-.223.07-.001.014.136.304-.1.432l-.17-.084c-.186.158-.062.143-.033.215.004.01-.395.174-.255.204.043.01.183.012.13.043l-.22.06.064.11-.173.066.032.12c-.033.08-.205.15-.205.237s-.13.173-.195.217c0 0 .022-.144.067-.17.057-.032-.013-.273.082-.197l.025-.036.074-.07.015-.152.116-.085-.014-.118.18-.126.01-.096.1-.064-.006-.054.118-.11.115-.163c.186-.064.053-.112.117-.184l.16-.224c.076-.04.144-.04.15-.168l.063-.07.094-.062.005-.128c.04-.07.037.065.158-.205l.078-.047c.117-.03.057-.15.1-.185l.08-.017c.03-.05.05-.638.055-.75l.1.08h.001z" fill="#363636"/></svg>