<svg width="20" height="20" viewBox="0 0 20 20" fill="none" xmlns="http://www.w3.org/2000/svg">
<path d="M10.0002 3.33398C6.32424 3.33398 3.3335 6.32473 3.3335 10.0007C3.3335 13.6766 6.32424 16.6673 10.0002 16.6673C13.6761 16.6673 16.6669 13.6766 16.6669 10.0007C16.6669 6.32473 13.6761 3.33398 10.0002 3.33398ZM13.4108 5.82422C13.4857 5.74082 13.5915 5.69156 13.7038 5.68711C13.8006 5.67613 13.9252 5.72332 14.0065 5.80063C14.8708 6.61891 15.4584 7.66059 15.7041 8.81293C15.7432 8.99684 15.6545 9.18402 15.4876 9.27027C15.0799 9.48105 14.5957 9.58316 14.1319 9.58316C13.5272 9.58316 12.9543 9.4098 12.6222 9.07777C11.9159 8.37184 12.2104 7.15562 13.4108 5.82422ZM6.58955 14.2422C6.51467 14.3256 6.40889 14.3752 6.29658 14.3797C6.2917 14.3801 6.286 14.3801 6.28029 14.3801C6.17369 14.3801 6.07115 14.3394 5.99385 14.2662C5.12959 13.4479 4.54201 12.4062 4.29627 11.2535C4.25721 11.0696 4.34592 10.8824 4.51275 10.7961C5.45189 10.3115 6.79139 10.4018 7.37814 10.9886C8.08369 11.6946 7.78908 12.9108 6.58955 14.2422ZM7.37811 9.07781C7.04607 9.40984 6.47314 9.5832 5.8685 9.5832C5.40463 9.5832 4.92123 9.48105 4.51271 9.27031C4.34588 9.18406 4.25717 8.99687 4.29623 8.81297C4.54201 7.66062 5.12955 6.61895 5.99381 5.80066C6.07518 5.72336 6.19482 5.67535 6.29654 5.68715C6.40885 5.69164 6.51463 5.74086 6.58951 5.82426C7.7899 7.15562 8.08447 8.37184 7.37811 9.07781ZM11.7759 15.5569C11.1989 15.7408 10.6015 15.834 10.0002 15.834C9.39881 15.834 8.80143 15.7409 8.22447 15.5569C8.04135 15.4983 7.92174 15.3225 7.93475 15.1309C8.03893 13.6314 8.92678 12.5007 10.0002 12.5007C11.0736 12.5007 11.9614 13.6314 12.0656 15.1309C12.0786 15.3225 11.959 15.4983 11.7759 15.5569ZM8.3335 10.0007C8.3335 9.08148 9.08139 8.33398 10.0002 8.33398C10.919 8.33398 11.6669 9.08145 11.6669 10.0007C11.6669 10.9199 10.919 11.6673 10.0002 11.6673C9.08139 11.6673 8.3335 10.9198 8.3335 10.0007ZM12.0656 4.9034C11.9614 6.40242 11.0736 7.5332 10.0002 7.5332C8.92678 7.5332 8.03893 6.40242 7.93475 4.9034C7.92174 4.71176 8.04053 4.53598 8.22365 4.47777C9.37764 4.1091 10.6228 4.1091 11.7767 4.47777C11.9598 4.53598 12.0786 4.71176 12.0656 4.9034ZM15.7041 11.1872C15.4583 12.3399 14.8708 13.3816 14.0065 14.1999C13.9292 14.2731 13.8267 14.3138 13.7201 14.3138C13.7144 14.3138 13.7087 14.3138 13.7038 14.3134C13.5915 14.3089 13.4857 14.2597 13.4108 14.1763C12.2105 12.845 11.9159 11.6283 12.6222 10.9223C13.209 10.3352 14.5477 10.2461 15.4876 10.7299C15.6545 10.8161 15.7432 11.0033 15.7041 11.1872Z" fill="#838383"/>
<path d="M10 0C4.48566 0 0 4.48609 0 10C0 15.5139 4.48566 20 10 20C15.5143 20 20 15.5139 20 10C20 4.48609 15.5143 0 10 0ZM10 17.5C5.86426 17.5 2.5 14.1354 2.5 10C2.5 5.86465 5.86426 2.5 10 2.5C14.1357 2.5 17.5 5.86465 17.5 10C17.5 14.1354 14.1357 17.5 10 17.5Z" fill="#838383"/>
</svg>
