<?xml version="1.0" encoding="UTF-8"?>
<!DOCTYPE svg PUBLIC "-//W3C//DTD SVG 1.1//EN" "http://www.w3.org/Graphics/SVG/1.1/DTD/svg11.dtd">
<!-- Creator: CorelDRAW -->
<svg xmlns="http://www.w3.org/2000/svg" xml:space="preserve" width="15mm" height="15mm" style="shape-rendering:geometricPrecision; text-rendering:geometricPrecision; image-rendering:optimizeQuality; fill-rule:evenodd; clip-rule:evenodd"
viewBox="0 0 15 15"
 xmlns:xlink="http://www.w3.org/1999/xlink">
 <defs>
  <style type="text/css">
   <![CDATA[
    .fil2 {fill:white}
    .fil1 {fill:url(#id0)}
    .fil0 {fill:url(#id1)}
   ]]>
  </style>
  <linearGradient id="id0" gradientUnits="userSpaceOnUse" x1="7.389" y1="14.1146" x2="7.5859" y2="-0.0714">
   <stop offset="0" style="stop-color:#004725"/>
   <stop offset="1" style="stop-color:#009242"/>
  </linearGradient>
  <linearGradient id="id1" gradientUnits="userSpaceOnUse" x1="7.3615" y1="14.9802" x2="7.5585" y2="0.7942">
   <stop offset="0" style="stop-color:#E6E6E6"/>
   <stop offset="1" style="stop-color:#1A71B6"/>
  </linearGradient>
 </defs>
 <g id="Слой_x0020_1">
  <metadata id="CorelCorpID_0Corel-Layer"/>
  <g id="_255609304">
   <path id="_404754112" class="fil0" d="M6.8454 0.8909l1.2615 -0.0015c1.7841,-0.0021 3.4507,0.3281 4.7505,1.5102 1.1327,1.0301 1.402,2.9313 1.4038,4.359l0.0027 2.0897c0.0022,1.752 -0.1274,3.1722 -1.3642,4.5141 -0.9375,1.0173 -2.9218,1.5246 -4.3957,1.5222l-2.1884 -0.0036c-1.6504,-0.0028 -3.1013,-0.4941 -4.2777,-1.5246 -1.0732,-0.9401 -1.384,-2.7253 -1.384,-4.3008l0 -2.3157c0,-1.5643 0.3218,-3.3334 1.3806,-4.3359 1.1752,-1.1127 3.1493,-1.5112 4.8109,-1.5131z"/>
   <path id="_404754328" class="fil1" d="M6.8729 0.0253l1.2614 -0.0015c1.7841,-0.0021 3.4508,0.3281 4.7506,1.5103 1.1327,1.03 1.402,2.9312 1.4038,4.3589l0.0027 2.0898c0.0022,1.752 -0.1275,3.1722 -1.3642,4.5141 -0.9375,1.0172 -2.9219,1.5246 -4.3957,1.5221l-2.1884 -0.0036c-1.6504,-0.0028 -3.1014,-0.4941 -4.2777,-1.5245 -1.0732,-0.9402 -1.384,-2.7254 -1.384,-4.3009l0 -2.3157c0,-1.5643 0.3218,-3.3334 1.3806,-4.3359 1.1752,-1.1127 3.1493,-1.5112 4.8109,-1.5131z"/>
   <g>
    <path id="_404753584" class="fil2" d="M7.6561 3.3668c2.0488,0 3.7097,1.6568 3.7097,3.7007 0,2.0438 -1.6609,3.7006 -3.7097,3.7006 -0.9244,0 -1.7697,-0.3373 -2.4192,-0.8952l0.7797 -0.2343c0.4804,0.3142 1.0541,0.497 1.6704,0.497 1.6904,0 3.0608,-1.3737 3.0608,-3.0681 0,-1.6945 -1.3704,-3.0682 -3.0608,-3.0682 -1.6904,0 -3.0608,1.3737 -3.0608,3.0682 0,0.6668 0.2123,1.2838 0.5727,1.7871l-0.246 0.747c-0.624,-0.6622 -1.0065,-1.5536 -1.0065,-2.5341 0,-2.0439 1.6609,-3.7007 3.7097,-3.7007z"/>
    <polygon id="_404753104" class="fil2" points="3.8374,10.9753 4.6299,8.6415 5.0584,9.2812 4.8225,9.9974 5.2368,9.873 5.5968,9.7648 6.0258,10.0011 6.0694,10.2701 5.8768,10.3155 "/>
   </g>
   <path id="_255609640" class="fil2" d="M6.3166 5.2898c0,0 -0.3708,0.2436 -0.4435,0.5635 -0.0726,0.3199 -0.0181,0.7089 0.1491,1.0251 0.1672,0.3163 0.5308,0.8434 0.8616,1.1488 0.3308,0.3053 0.6652,0.5344 1.2323,0.7307 0.5671,0.1963 0.7888,0.1708 1.0906,0.0218 0.3017,-0.1491 0.378,-0.389 0.3998,-0.5271 0.0218,-0.1382 0.0473,-0.2 -0.0472,-0.2799 -0.0945,-0.08 -0.7561,-0.4363 -0.8616,-0.4326 -0.1054,0.0036 -0.3998,0.3889 -0.4653,0.4435 -0.0654,0.0545 -0.3162,-0.0255 -0.4834,-0.1418 -0.1673,-0.1163 -0.5744,-0.4544 -0.7598,-0.7525 -0.1854,-0.2981 -0.1672,-0.2618 -0.1708,-0.3599 -0.0037,-0.0982 0.2399,-0.229 0.2908,-0.4144 0.0509,-0.1854 -0.1018,-0.5453 -0.2036,-0.7707 -0.1018,-0.2254 -0.2399,-0.3599 -0.589,-0.2545z"/>
  </g>
 </g>
</svg>
