<svg xmlns="http://www.w3.org/2000/svg" xml:space="preserve" width="153mm" height="45mm" version="1.0"
     style="shape-rendering:geometricPrecision; text-rendering:geometricPrecision; image-rendering:optimizeQuality; fill-rule:evenodd; clip-rule:evenodd"
     viewBox="0 0 15300 4500"
     xmlns:xlink="http://www.w3.org/1999/xlink"
>
 <defs>
  <style type="text/css">
   <![CDATA[
    .fil11 {fill:none}
    .fil5 {fill:#6F4599}
    .fil1 {fill:#6F5EAE}
    .fil10 {fill:#BC0C0E}
    .fil9 {fill:#DD1B1B}
    .fil4 {fill:#E0E0E0}
    .fil7 {fill:#ECE2D9}
    .fil12 {fill:#F23A3A}
    .fil14 {fill:#F5EEE9}
    .fil13 {fill:#FAF6F2}
    .fil3 {fill:white}
    .fil2 {fill:#494A61;fill-rule:nonzero}
    .fil6 {fill:url(#id0)}
    .fil8 {fill:url(#id1)}
    .fil0 {fill:url(#id2)}
   ]]>
  </style>
     <linearGradient id="id0" gradientUnits="userSpaceOnUse" x1="2269.21" y1="2177.96" x2="2589.04" y2="391.32">
   <stop offset="0" style="stop-opacity:1; stop-color:#F6F1ED"/>
         <stop offset="1" style="stop-opacity:1; stop-color:white"/>
  </linearGradient>
     <linearGradient id="id1" gradientUnits="userSpaceOnUse" x1="1769.07" y1="-46.17" x2="1572.05" y2="2448.78">
   <stop offset="0" style="stop-opacity:1; stop-color:#EC2C2B"/>
         <stop offset="1" style="stop-opacity:1; stop-color:#E02121"/>
  </linearGradient>
     <linearGradient id="id2" gradientUnits="userSpaceOnUse" x1="1381.19" y1="1433.29" x2="4220.93" y2="3821.47">
   <stop offset="0" style="stop-opacity:1; stop-color:#895CAB"/>
         <stop offset="0.54902" style="stop-opacity:1; stop-color:#7C5DAC"/>
         <stop offset="1" style="stop-opacity:1; stop-color:#6E5EAE"/>
  </linearGradient>
 </defs>
    <g id="Слой_x0020_1">
  <metadata id="CorelCorpID_0Corel-Layer"/>
        <path class="fil0"
              d="M2802.23 774.06c1024.48,0 1854.95,829.89 1854.95,1853.46 0,1023.61 -830.47,1853.46 -1854.95,1853.46 -1024.47,0 -1854.99,-829.85 -1854.99,-1853.46 0,-1023.57 830.52,-1853.46 1854.99,-1853.46z"/>
        <path class="fil1"
              d="M5242.9 2441.22c0,0 -18.35,19.86 -18.56,31.23 -0.25,11.37 -2.6,15.32 8.58,25.22 11.19,9.96 18.05,7.47 23.28,31.48 5.24,24.01 15.54,56.51 22.39,60.41 5.6,3.19 -3.58,-124.2 -13.74,-161.43 -2.3,-8.36 -21.95,13.09 -21.95,13.09z"/>
        <path class="fil2"
              d="M6436.92 3139.3c0,97.93 -18.11,183.12 -54.36,257.07 -36.71,73.41 -85.64,134.63 -147.86,184.06 -62.66,48.99 -135.12,86.19 -218.37,111.15 -83.25,25.02 -172.37,37.25 -267.36,37.25 -64.11,0 -123.39,-5.42 -178.69,-16.16 -54.86,-10.79 -103.34,-23.52 -145.42,-38.69 -42.12,-14.68 -77.38,-30.34 -105.78,-47 -28.4,-16.66 -48.49,-31.33 -61.22,-43.57 -12.23,-12.73 -21.04,-30.88 -26.41,-54.35 -10.97,-47.77 -9.8,-125.38 -4.92,-175.31 1.94,-20.09 4.92,-36.25 9.3,-48.98 4.42,-12.24 10.29,-21.04 17.16,-26.41 7.31,-5.42 15.66,-7.86 25.46,-7.86 13.23,0 32.28,7.86 56.79,24.02 24.47,15.66 55.8,33.27 94,52.37 38.19,19.1 84.24,36.75 137.61,52.41 52.86,16.12 114.58,23.98 184.6,23.98 46.01,0 87.13,-5.38 123.39,-16.17 36.7,-11.24 67.54,-26.45 93,-46.5 25.46,-20.09 44.56,-44.56 58.28,-73.95 13.23,-29.39 20.1,-62.16 20.1,-98.42 0,-42.12 -11.29,-78.33 -34.32,-108.21 -22.98,-30.34 -52.86,-56.8 -90.06,-80.28 -36.75,-23.52 -78.83,-45.55 -125.87,-66.14l-144.93 -65.1c-49.93,-23.02 -98.42,-48.98 -144.92,-78.33 -46.99,-28.89 -89.12,-63.65 -125.82,-104.29 -37.25,-40.67 -67.09,-88.62 -90.11,-144.47 -23.03,-55.3 -34.27,-121.89 -34.27,-199.27 0,-88.63 16.66,-166.96 49.44,-234.54 32.82,-67.09 77.38,-122.89 133.18,-167.45 56.3,-44.56 121.94,-77.88 197.83,-99.91 75.89,-22.03 156.66,-32.78 241.9,-32.78 43.57,0 87.63,3.39 131.69,10.25 44.07,6.37 85.19,15.67 123.39,26.95 38.19,11.74 71.96,24.47 101.85,38.69 29.39,14.68 48.98,26.41 58.74,36.21 9.34,9.3 15.71,17.65 19.09,24.02 3.43,6.82 6.37,15.67 8.85,26.91 2.44,10.79 3.88,24.47 4.88,41.62 2.48,42.26 2.75,90.07 -0.5,132.19 -1.44,19.1 -3.93,34.77 -7.31,47.5 -3.43,12.28 -8.35,21.58 -14.22,26.95 -6.37,5.87 -14.68,8.8 -25.47,8.8 -10.29,0 -26.9,-6.86 -49.93,-20.09 -23.02,-13.18 -51.42,-27.9 -84.69,-44.06 -33.82,-15.67 -72.51,-29.84 -116.57,-42.57 -44.07,-13.23 -92.06,-19.6 -144.93,-19.6 -41.12,0 -76.88,4.88 -107.72,15.17 -30.33,9.8 -55.8,24.02 -76.38,41.63 -20.55,17.6 -36.26,38.69 -46.01,63.65 -10.29,24.97 -15.21,51.43 -15.21,78.83 0,41.13 11.28,76.89 33.81,106.73 22.53,30.38 52.87,57.29 90.57,80.81 37.69,23.02 80.81,45.06 128.8,65.6l146.37 65.15c49.97,22.98 98.91,48.93 146.41,78.33 47.99,29.39 90.61,64.15 128.3,104.78 37.21,40.63 67.54,88.13 90.57,143.48 23.02,54.81 34.27,119.46 34.27,193.9zm1302.93 472.01c-2.43,19.6 -6.36,35.71 -10.74,48.45 -4.92,13.22 -10.79,22.52 -18.1,27.94 -7.36,5.87 -15.67,8.81 -25.02,8.81l-850.47 0c-31.33,0 -57.79,-9.3 -79.33,-27.91 -21.58,-18.6 -32.32,-48.98 -32.32,-91.1l0 -1686.33c0,-9.3 2.93,-18.1 9.3,-25.96 6.37,-7.31 16.66,-13.68 30.83,-18.6 14.23,-4.87 33.82,-8.3 58.29,-11.24 55.3,-6.63 127.86,-6.77 183.12,0 23.52,2.94 43.07,6.37 57.29,11.24 14.22,4.92 24.47,11.29 30.83,18.6 6.37,7.86 9.3,16.66 9.3,25.96l0 1493.91 583.16 0c9.35,0 18.15,2.44 25.02,7.86 7.31,5.37 13.18,13.68 18.1,25.91 4.87,11.79 8.31,27.45 10.74,47.5 5.38,42.75 5.38,102.25 0,144.96zm1843.53 -864.74c0,153.77 -19.1,291.38 -57.29,412.78 -38.2,121.44 -94.99,224.74 -170.88,308.98 -75.4,84.7 -168.94,149.35 -280.09,193.91 -111.61,44.56 -240.41,66.59 -386.82,66.59 -144.43,0 -270.25,-19.1 -377.52,-56.79 -107.72,-37.75 -197.29,-94.99 -269.3,-172.87 -71.47,-77.38 -125.33,-175.76 -161.08,-295.26 -35.76,-119.46 -53.86,-261 -53.86,-424.52 0,-149.84 19.09,-284.96 57.29,-404.92 38.19,-119.95 94.99,-221.81 170.88,-306.05 75.39,-84.2 168.94,-148.85 280.09,-193.41 111.65,-45.06 240.9,-67.54 388.26,-67.54 140.54,0 264.43,18.6 372.15,55.8 107.22,37.2 197.33,94.5 269.3,172.37 72.46,77.34 126.82,174.77 163.57,292.78 36.7,118.51 55.3,257.56 55.3,418.15zm-396.61 19.1c0,-97.43 -7.82,-186.05 -23.03,-265.87 -15.17,-79.82 -41.13,-148.35 -77.83,-205.15 -36.71,-56.79 -85.69,-100.86 -146.91,-132.19 -61.17,-30.88 -137.56,-46.55 -229.12,-46.55 -92.55,0 -169.93,17.66 -231.6,52.42 -62.22,34.76 -112.65,81.76 -150.84,140.05 -38.19,58.24 -65.1,126.32 -80.77,204.15 -15.66,78.37 -23.52,160.63 -23.52,247.77 0,101.35 7.86,192.41 23.03,273.22 15.17,80.77 41.12,149.85 77.33,207.59 36.26,57.29 84.74,100.9 145.92,131.24 61.22,29.89 138.1,45.06 230.65,45.06 92.51,0 169.89,-17.16 231.61,-51.92 62.16,-34.27 112.59,-81.27 150.79,-140.5 38.19,-59.28 65.14,-128.31 80.81,-207.13 15.66,-78.83 23.48,-163.07 23.48,-252.19zm2245.51 798.65c0,22.03 -3.93,41.58 -11.24,59.23 -7.86,17.11 -18.15,31.33 -31.38,43.07 -12.73,11.29 -27.9,19.59 -45.51,24.96 -17.29,5.15 -35.3,7.82 -53.36,7.82 -0.18,0 -0.36,0 -0.5,0l-161.08 0.04c-33.82,0 -62.71,-3.43 -87.18,-9.8 -23.97,-6.86 -46.5,-19.09 -67.09,-36.7 -21.04,-17.65 -40.63,-41.63 -59.73,-72.01 -19.09,-29.84 -40.63,-69.03 -64.65,-117.02l-460.72 -868.13c-26.95,-51.92 -53.86,-107.72 -81.76,-167.45 -27.95,-59.73 -52.42,-118.01 -74.45,-174.31l-2.93 0 8.8 206.14 2.93 211.51 0 971.97c0,9.3 -2.43,18.1 -7.81,25.91 -5.41,7.36 -14.71,13.73 -27.45,19.1 -12.73,5.42 -30.33,9.3 -52.37,12.23 -22.03,2.98 -50.42,4.43 -84.69,4.43 -33.82,0 -61.72,-1.45 -83.75,-4.43 -22.03,-2.93 -39.19,-6.81 -51.42,-12.23 -12.73,-4.88 -21.54,-11.74 -25.96,-19.1 -4.88,-7.81 -7.31,-16.61 -7.31,-25.91l0 -1668.72c0,-45.06 13.22,-78.83 39.63,-101.35 25.96,-22.53 58.29,-33.82 96.98,-33.82l202.21 0c36.21,0 67.09,2.94 92.06,9.3 24.96,6.37 47,16.66 66.59,30.88 19.59,14.18 38.19,34.27 55.3,59.73 17.16,24.97 34.77,56.8 52.92,94l360.85 679.14 62.17 121.45c20.59,39.64 40.68,79.32 59.28,118.96l55.8 117.02 53.36 115.08 1.49 0 -6.86 -209.57 -1.94 -208.58 0 -871.56c0,-9.3 2.94,-18.15 8.8,-25.96 5.38,-7.36 15.17,-14.22 28.4,-20.09 13.68,-5.87 31.33,-9.8 53.37,-12.24 22.03,-2.43 50.42,-3.43 84.69,-3.43 32.82,0 60.23,1 82.26,3.43 22.03,2.44 38.69,6.37 50.92,12.24 11.79,5.87 20.59,12.73 24.97,20.09 4.92,7.81 7.36,16.16 7.36,25.96l0 1668.72zm1858.69 -726.51c0,170.43 -22.03,315.85 -66.59,437.25 -44.56,120.95 -108.21,219.37 -191.46,296.25 -83.21,76.39 -184.56,132.69 -303.57,168.45 -118.96,35.75 -260.95,53.86 -425.51,53.86l-443.12 0c-31.83,0 -58.24,-9.3 -79.82,-27.9 -21.53,-18.6 -32.28,-48.99 -32.28,-91.11l0 -1746.01c0,-42.12 10.75,-72.46 32.28,-91.06 21.58,-18.65 47.99,-27.95 79.82,-27.95l475.94 0c165.51,0 306.05,19.6 421.09,58.29 115.57,38.69 212.5,95.98 291.33,171.87 78.87,76.39 139.1,170.39 180.22,282.03 41.13,112.15 61.67,241.4 61.67,388.76l0 127.27zm-396.02 -47.63c0,-88.12 -10.25,-169.39 -30.84,-245.33 -20.54,-75.39 -53.36,-140.49 -98.92,-195.84 -45.5,-55.31 -103.79,-98.92 -174.8,-129.75 -71.47,-30.84 -164.52,-46.51 -280.55,-46.51l-190.47 0 0 1260.32 196.34 0c103.3,0 190.48,-13.18 261,-40.13 70.47,-26.46 129.75,-67.09 177.24,-120.95 47,-53.86 82.26,-120.95 105.74,-201.22 23.52,-80.32 35.26,-173.86 35.26,-280.59zm2374.18 3.48c0,153.77 -19.1,291.38 -57.29,412.78 -38.2,121.44 -94.99,224.74 -170.88,308.98 -75.4,84.7 -168.9,149.35 -280.05,193.91 -111.65,44.56 -240.45,66.59 -386.82,66.59 -144.47,0 -270.29,-19.1 -377.51,-56.8 -107.73,-37.74 -197.34,-94.98 -269.31,-172.86 -71.51,-77.38 -125.37,-175.76 -161.13,-295.26 -35.71,-119.46 -53.86,-261 -53.86,-424.52 0,-149.84 19.1,-284.97 57.3,-404.92 38.19,-119.96 94.99,-221.81 170.88,-306.05 75.44,-84.2 168.94,-148.85 280.09,-193.41 111.65,-45.06 240.9,-67.54 388.31,-67.54 140.49,0 264.38,18.6 372.1,55.8 107.22,37.2 197.33,94.49 269.3,172.37 72.46,77.34 126.81,174.77 163.56,292.78 36.71,118.51 55.31,257.56 55.31,418.15zm-396.62 19.1c0,-97.43 -7.81,-186.05 -22.98,-265.87 -15.21,-79.82 -41.12,-148.36 -77.87,-205.15 -36.71,-56.8 -85.69,-100.86 -146.91,-132.19 -61.18,-30.88 -137.56,-46.55 -229.12,-46.55 -92.55,0 -169.93,17.66 -231.61,52.42 -62.21,34.76 -112.64,81.76 -150.83,140.04 -38.2,58.24 -65.1,126.32 -80.77,204.16 -15.66,78.37 -23.52,160.63 -23.52,247.76 0,101.36 7.86,192.42 23.02,273.23 15.17,80.77 41.13,149.84 77.39,207.59 36.2,57.29 84.69,100.9 145.91,131.24 61.18,29.89 138.06,45.06 230.61,45.06 92.55,0 169.89,-17.16 231.6,-51.92 62.17,-34.27 112.6,-81.27 150.79,-140.5 38.2,-59.28 65.15,-128.31 80.82,-207.13 15.66,-78.83 23.47,-163.07 23.47,-252.19z"/>
        <path class="fil1"
              d="M3931.36 2285.4c0,0 123.7,317.42 477.65,417.42 353.95,99.96 795.85,32.15 876.21,8.04 80.41,-24.11 361.76,-124.61 450.2,-196.98 88.4,-72.32 61.27,-5.01 88.4,11.07 27.14,16.07 50.25,-1 58.29,20.09 1.08,2.93 -3.53,8.89 -13.32,17.24 -60.41,51.92 -316.84,198.15 -612.73,312.33 -343.66,132.64 -852.83,268.62 -1219.92,253.23 -367.13,-15.4 -404.87,-117.52 -484.33,-147.54 -79.42,-30.03 -81.4,-116.75 -35.17,-142.85 46.18,-26.14 414.72,-552.05 414.72,-552.05z"/>
        <path class="fil1"
              d="M5859.13 2570.14c0,0 27.81,-22.35 33.36,-36.93 5.51,-14.59 -4.02,-28.13 -12.55,-29.66 -8.58,-1.49 -24.15,9.88 -46.23,-5.02 -22.12,-14.89 -21.63,-37.65 -30.16,-45.19 -8.53,-7.54 -23.61,-11.06 -48.22,-8.58 -24.65,2.53 -40.22,10.07 -40.22,10.07 0,0 16.57,13.32 22.98,17.47 4.42,2.85 8.76,5.92 12.91,9.03l110.65 56.53 -2.43 32.28 -0.09 0z"/>
        <path class="fil3"
              d="M5254.51 2452.08c0,0 -25.5,5.75 -23.41,24.2 2.08,18.45 17,17.05 23.77,32.69 6.78,15.65 12.53,87.04 30.49,86.53 17.9,-0.58 40.67,-11.24 49.87,-26.12 9.2,-14.94 -17.76,-49.04 -21.02,-86.71 -3.26,-37.68 14.59,-66.8 -7.54,-66.8 -22.07,0 -52.16,36.21 -52.16,36.21z"/>
        <path class="fil3"
              d="M2500.88 1775.78c0,0 -227.99,31.15 -597.47,487.04 -369.53,455.9 -297.57,873.37 -297.57,873.37 0,0 67.18,-91.2 86.37,-100.77 19.19,-9.62 4.74,81.58 23.93,273.5 19.18,191.96 83.97,410.29 83.97,410.29l403.12 7.23c0,0 -16.8,-371.92 26.36,-446.28 43.21,-74.4 148.76,-165.55 326.32,-160.77 177.57,4.79 292.73,91.2 323.93,249.53 31.2,158.38 31.2,359.91 31.2,359.91l381.49 -7.22c0,0 -19.19,-165.56 -26.41,-381.49 -7.18,-215.94 16.79,-364.7 139.19,-407.91 28.44,-10.02 58.91,-9.93 89.02,-1.76 -55.93,-19.63 -83.07,-74.98 -49.07,-94.22 46.23,-26.09 486.1,-575.12 486.1,-575.12 -63.48,-108.36 -141.95,-203.84 -228.54,-274.23 -230.34,-187.13 -304.47,-176.29 -304.47,-176.29l-146.41 1136.07c0,0 -22.8,93.55 -62.39,105.56 -39.6,12 -247.14,-2.4 -412.69,-122.35 -165.55,-119.96 -285.55,-290.34 -334.76,-535.08 -49.17,-244.74 -8.4,-412.69 13.18,-503.84 21.58,-91.15 45.6,-115.17 45.6,-115.17zm953.59 672.1c0,-53.5 43.93,-96.89 98.1,-96.89 54.18,0 98.06,43.39 98.06,96.89 0,53.5 -43.88,96.88 -98.06,96.88 -54.17,0 -98.1,-43.38 -98.1,-96.88zm476.89 -186.77c0,0 123.7,317.42 477.65,417.38 353.95,100 795.85,32.19 876.21,8.04 80.41,-24.11 361.76,-124.61 450.2,-196.93 88.4,-72.38 61.27,-5.02 88.4,11.06 27.14,16.07 50.25,-1 58.29,20.09 8.03,21.08 -282.4,196.93 -626.05,329.57 -343.66,132.64 -852.83,268.62 -1219.92,253.23 -367.13,-15.4 -406.27,-114.13 -484.33,-147.54 -21.4,-9.21 -31.06,-16.3 -57.43,-25.51 -55.98,-19.64 -83.12,-75.03 -49.12,-94.27 46.23,-26.09 486.1,-575.12 486.1,-575.12zm-1387.19 -466.1c-74.4,220.72 -76.79,515.85 4.79,741.36 81.58,225.55 292.73,371.92 383.88,410.29 91.2,38.42 259.15,40.81 259.15,40.81l163.16 -1238.06c0,0 -117.57,-199.14 -316.71,-218.33 -199.14,-19.19 -419.91,43.16 -494.27,263.93z"/>
        <path class="fil4"
              d="M3112.98 1547.25l-561.75 228.42 0.03 -0.1c80.51,-204.99 294.01,-263.11 487.18,-244.49 26.26,2.53 51.09,8.21 74.43,16.13l0.11 0.04z"/>
        <path class="fil5"
              d="M1485.85 3933.38c0,0 122.41,-151.95 134.81,-233.89 12.39,-81.94 -10.41,-110.76 -10.41,-110.76l34.78 37.81c0,0 10.87,-55.01 -33.59,-179.63 -44.47,-124.61 -157.79,-207.37 -240.85,-227.62 -83.06,-20.25 -85.68,-19.87 -85.68,-19.87l-126.47 -6.01 -37.59 -589.74c0,0 96.1,-59.99 167.04,-115.52 70.95,-55.53 100.14,-85.08 93.4,-66.75 -6.74,18.36 -24.36,72.95 -24.36,72.95 0,0 42.31,-59.46 163.01,-140.78 120.73,-81.33 291.96,-183.21 609.35,-356.67 17.52,-9.58 35.04,-19.11 52.53,-28.58 202.1,-176.53 319.06,-192.54 319.06,-192.54 0,0 -8.69,8.7 -20.31,35.45 24.01,-12.2 47.58,-24.07 70.66,-35.56 80.47,-205.07 294.01,-263.21 487.21,-244.59 26.3,2.53 51.16,8.23 74.54,16.17 63.67,-21.74 111.29,-41.32 127.51,-61.28 30.71,-37.79 46.07,-61.35 49.99,-43.2 3.91,18.15 9.86,32.01 5.02,54.07 -4.88,22.07 2.84,-64.54 34.46,-77.06 31.62,-12.52 34.02,60.63 34.02,60.63 0,0 134,-81.89 224.21,-152.18 90.21,-70.29 209.88,-264.69 209.88,-264.69l-52.92 -32.48c0,0 -357.93,63.21 -443.99,78.13 -86.06,14.92 -2316.46,1281.13 -2316.46,1281.13l46.3 926.11 394.78 553.6 60.07 63.35z"/>
        <path class="fil3"
              d="M3707.94 390.3c0,0 -48.59,174.34 -33.2,253.67 15.39,79.33 121.11,188.5 108.6,299.1 -12.5,110.59 -167.21,213.57 -288.24,282.93 -121.03,69.36 -161.14,81.77 -161.14,81.77 0,0 -10.95,-42.3 -21.91,-51.35 -10.96,-9.05 -34.79,76.8 -35.32,98.39 -0.53,21.6 -7.08,-41.79 -22.34,-44.61 -15.25,-2.82 -22.16,42.7 -66.78,86.74 -44.61,44.03 -133.1,75.37 -252.08,116.21 -118.98,40.83 -415.8,172.95 -891.99,421.68 -476.18,248.73 -556.43,311.14 -611.03,364.02 -54.59,52.88 -52.89,55.96 -52.89,55.96 0,0 7.73,-32.24 23.02,-58.33 15.29,-26.1 15.28,-29.34 3.45,-24.93 -11.84,4.41 -69.06,52.54 -135.24,95.25 -42.32,27.32 -108.42,61.81 -150.55,83.11 -13.19,-58.69 -29.97,-137.49 -48.86,-235.66 -45.66,-237.28 -8.22,-364.84 -8.22,-364.84 0,0 16.56,-17.36 38.16,-83.62 21.6,-66.26 -14.05,-124.09 -22.2,-162.43 -8.16,-38.34 60.43,-54.15 91.02,-104.18 30.6,-50.03 9.86,-78.86 9.86,-78.86 0,0 7.08,-0.11 104.6,-15.23 97.53,-15.12 217.18,-79.43 225.58,-97.56 8.4,-18.14 24.3,-43.12 37.56,-37.44 13.26,5.69 -4.89,47 4.29,75.41 9.19,28.4 39.23,33.21 39.23,33.21 0,0 -5.75,-14.68 -9.05,-30.28 -3.29,-15.61 7.33,-54.43 16.87,-57.63 9.53,-3.2 23.12,48.18 26.9,31.38 3.79,-16.8 7.81,-49.26 10.38,-63.97 2.56,-14.71 22.2,-28.64 22.2,-28.64 0,0 11.56,2.59 16.51,10.47 4.96,7.88 28.08,57.13 33.44,49.62 5.37,-7.52 5.42,-31.03 5.42,-31.03l11.26 6.37c0,0 8.35,-27.33 -12.57,-45.78 -20.92,-18.45 -19.72,-38.22 -19.72,-38.22 0,0 328.7,-175.59 516.68,-283.02 187.97,-107.42 514.02,-322.08 726.93,-429.61 172.77,-87.24 263.66,-109.78 291.8,-115.17l9.63 -1.58 0.07 -0.01c14.56,-2.4 28.22,-4.74 40.76,-7.09 121.81,-22.82 216.16,13.23 247.05,41.07 30.89,27.84 38.44,69.38 38.44,69.38 0,0 26.37,-25.41 32.76,-46.1 6.39,-20.7 10.01,39.53 10.78,81.75 0.78,42.21 10.97,52.03 41.27,5.77 30.3,-46.26 58.81,-106.09 58.81,-106.09z"/>
        <path class="fil6"
              d="M3784.34 927.39c-0.4,0.66 -21.95,35.31 -120.29,74.8 -99.28,39.88 -130.79,13.09 -237.05,76.86 -106.25,63.77 -164.3,169.41 -567.97,381.49 -403.68,212.09 -573.48,244.95 -689.86,241.07 -116.37,-3.87 -245.83,-48.56 -280.93,-210.72 -35.11,-162.17 -76.55,-211.19 -22.04,-284.62 54.52,-73.44 148.4,-157.43 180.22,-207.38 2.66,-4.19 -0.74,-5.55 -9.01,-4.65 -168.19,92.61 -344.45,186.76 -344.45,186.76 0,0 -1.2,19.77 19.72,38.22 20.92,18.45 12.57,45.78 12.57,45.78l-11.26 -6.37c0,0 -0.05,23.51 -5.42,31.03 -5.36,7.51 -28.48,-41.74 -33.44,-49.62 -4.95,-7.88 -16.51,-10.47 -16.51,-10.47 0,0 -19.64,13.93 -22.2,28.64 -2.57,14.71 -6.59,47.17 -10.38,63.97 -3.78,16.8 -17.37,-34.58 -26.9,-31.38 -9.54,3.2 -20.16,42.02 -16.87,57.63 3.3,15.6 9.05,30.28 9.05,30.28 0,0 -30.04,-4.81 -39.23,-33.21 -9.18,-28.41 8.97,-69.72 -4.29,-75.41 -13.26,-5.68 -29.16,19.3 -37.56,37.44 -8.4,18.13 -128.05,82.44 -225.58,97.56 -97.52,15.12 -104.6,15.23 -104.6,15.23 0,0 20.74,28.83 -9.86,78.86 -22.34,36.53 -64.93,54.82 -83.11,76.96 35.84,196.29 220.09,517.87 316.52,521.91 82.09,3.44 186.63,5.93 352.76,-9.67 75.09,-41.5 168.91,-91.77 287.17,-153.55 476.19,-248.73 773.01,-380.85 891.99,-421.68 118.98,-40.84 207.47,-72.18 252.08,-116.21 44.62,-44.04 51.53,-89.56 66.78,-86.74 15.26,2.82 21.81,66.21 22.34,44.61 0.53,-21.59 24.36,-107.44 35.32,-98.39 10.96,9.05 21.91,51.35 21.91,51.35 0,0 40.11,-12.41 161.14,-81.77 121.03,-69.36 275.74,-172.34 288.24,-282.93 0.6,-5.24 0.91,-10.46 1,-15.68z"/>
        <path class="fil7"
              d="M1333.83 1405.06c0,0 -92.11,220.33 0.13,352.48 92.24,132.14 219.3,193.98 219.3,193.98 0,0 27.63,-18.85 31.58,-33.21 3.95,-14.35 9.22,-4.84 31,-23.51 21.79,-18.67 20.5,-31.72 20.5,-31.72 0,0 126.22,79.62 199.84,92.23 40.65,6.96 95.26,12.97 136.03,16.95 -413.1,217.76 -487.95,276.47 -539.7,326.59 -54.59,52.88 -52.89,55.96 -52.89,55.96 0,0 7.73,-32.24 23.02,-58.33 15.29,-26.1 15.28,-29.34 3.45,-24.93 -11.84,4.41 -69.06,52.54 -135.24,95.25 -42.32,27.32 -108.42,61.81 -150.55,83.11 -13.19,-58.69 -29.97,-137.49 -48.86,-235.66 -45.66,-237.28 -8.22,-364.84 -8.22,-364.84 0,0 16.56,-17.36 38.16,-83.62 21.6,-66.26 -14.05,-124.09 -22.2,-162.43 -8.16,-38.34 60.43,-54.15 91.02,-104.18 30.6,-50.03 9.86,-78.86 9.86,-78.86 0,0 7.08,-0.11 104.6,-15.23 16.95,-2.63 34.55,-6.74 52.13,-11.83 -0.34,4.19 -1.28,8.15 -2.96,11.8z"/>
        <path class="fil8"
              d="M3238.07 351.61c0,0 -88.58,9.24 -301.5,116.76 -212.91,107.53 -538.96,322.19 -726.93,429.61 -187.98,107.43 -516.68,283.02 -516.68,283.02 0,0 -1.2,19.77 19.72,38.22 20.92,18.45 12.57,45.78 12.57,45.78l-11.26 -6.37c0,0 -0.05,23.51 -5.42,31.03 -5.36,7.51 -28.48,-41.74 -33.44,-49.62 -4.95,-7.88 -16.51,-10.47 -16.51,-10.47 0,0 -19.64,13.93 -22.2,28.64 -2.57,14.71 -6.59,47.17 -10.38,63.97 -3.78,16.8 -17.37,-34.58 -26.9,-31.38 -9.54,3.2 -20.16,42.02 -16.87,57.63 3.3,15.6 9.05,30.28 9.05,30.28 0,0 -30.04,-4.81 -39.23,-33.21 -9.18,-28.41 8.97,-69.72 -4.29,-75.41 -13.26,-5.68 -29.16,19.3 -37.56,37.44 -8.4,18.13 -128.05,82.44 -225.58,97.56 -97.52,15.12 -104.6,15.23 -104.6,15.23 0,0 20.74,28.83 -9.86,78.86 -30.59,50.03 -99.18,65.84 -91.02,104.18 8.15,38.34 43.8,96.17 22.2,162.43 -21.6,66.26 -38.16,83.62 -38.16,83.62 0,0 -37.44,127.56 8.22,364.84 45.66,237.28 79.01,361.58 79.01,361.58l-610.55 208.08c0,0 -109.3,-253.21 -178.12,-377.43 -68.82,-124.23 -62.09,-137.87 -94.23,-170.11 -32.15,-32.24 -221.32,-153.55 -241.55,-449.96 -20.22,-296.42 70.31,-453.06 148.44,-548.29 78.14,-95.24 133,-155.13 293.91,-255.56 160.92,-100.44 471.24,-337.15 594.54,-456.11 123.29,-118.96 293.27,-265.33 508.02,-373.83 214.76,-108.49 349.73,-150.51 480.07,-119.29 130.33,31.22 517.12,145.15 668.63,160.91 151.51,15.76 286.56,30.78 324.45,35.79 37.88,5.02 137.05,44.3 194.01,121.58z"/>
        <path class="fil9"
              d="M2073.38 974.39c0,0 -304.72,90.07 -472.21,84.14 -167.49,-5.92 -224.4,-82.92 -292.93,-131.45 -68.52,-48.52 -118.64,-31.58 -181.57,11.6 -62.94,43.18 -93.81,178.6 -171.66,188.43 -77.85,9.84 -78.16,-78.86 -244.33,-65.24 -166.18,13.62 -193.95,156.8 -145.02,232.23 48.93,75.44 182.77,132.26 237.68,321.59 54.91,189.32 82.44,621.33 31.58,684.17 -50.86,62.84 -118.65,43.55 -178.19,-68.21 -59.54,-111.77 -219.39,-383.19 -367.12,-533.86 -87.15,-88.9 -186.33,-133.74 -253.02,-155.57 -12.18,68.8 -17.06,149.33 -10.59,244.19 20.23,296.41 209.4,417.72 241.55,449.96 32.14,32.24 25.41,45.88 94.23,170.11 68.82,124.22 178.12,377.43 178.12,377.43l610.55 -208.08c0,0 -33.35,-124.3 -79.01,-361.58 -45.66,-237.28 -8.22,-364.84 -8.22,-364.84 0,0 16.56,-17.36 38.16,-83.62 21.6,-66.26 -14.05,-124.09 -22.2,-162.43 -8.16,-38.34 60.43,-54.15 91.02,-104.18 30.6,-50.03 9.86,-78.86 9.86,-78.86 0,0 7.08,-0.11 104.6,-15.23 97.53,-15.12 217.18,-79.43 225.58,-97.56 8.4,-18.14 24.3,-43.12 37.56,-37.44 13.26,5.69 -4.89,47 4.29,75.41 9.19,28.4 39.23,33.21 39.23,33.21 0,0 -5.75,-14.68 -9.05,-30.28 -3.29,-15.61 7.33,-54.43 16.87,-57.63 9.53,-3.2 23.12,48.18 26.9,31.38 3.79,-16.8 7.81,-49.26 10.38,-63.97 2.56,-14.71 22.2,-28.64 22.2,-28.64 0,0 11.56,2.59 16.51,10.47 4.96,7.88 28.08,57.13 33.44,49.62 5.37,-7.52 5.42,-31.03 5.42,-31.03l11.26 6.37c0,0 8.35,-27.33 -12.57,-45.78 -20.92,-18.45 -19.72,-38.22 -19.72,-38.22 0,0 202.42,-108.13 380.42,-206.61z"/>
        <path class="fil9"
              d="M2109.3 48.14c0,0 -243.39,57.16 -553.08,211.2 -188.38,93.7 -469.98,290.89 -727.8,464.44 94.82,-74.07 181.74,-146.46 234.47,-197.33 123.29,-118.96 293.27,-265.33 508.02,-373.83 214.76,-108.49 349.73,-150.51 480.07,-119.29 15.91,3.81 35.67,8.86 58.32,14.81z"/>
        <path class="fil10"
              d="M3198 360.42c0,0 -121,-94.57 -200.78,-107.56 -79.78,-12.98 -97.01,-14.06 -264.98,13.51 -167.97,27.57 -361.93,21.11 -393.37,11.62 -31.43,-9.5 3.87,-38.16 39.9,-35.41 36.02,2.74 267.83,2.33 368.13,-12.08 100.3,-14.41 255.37,-39.52 370.06,4.26 114.68,43.77 135.13,84.17 131.52,99.95 -3.61,15.77 -50.48,25.71 -50.48,25.71z"/>
        <path class="fil10"
              d="M1784.1 1132.05c0,0 -164.71,39.8 -239.12,64.44 -74.4,24.64 -259.9,57.08 -323.92,59.65 -64.01,2.57 -88.76,-29.22 -64.6,-69.37 24.16,-40.14 31.3,-106.73 14,-122.93 -17.31,-16.2 -33.26,0.12 -27.29,30.22 5.97,30.1 -49.36,129.97 -89.8,179.39 -40.45,49.42 -81.25,85.31 -81.25,85.31 0,0 -45.27,-86.02 -68.8,-119.9 -23.53,-33.87 -60.34,-81 -92.32,-72.14 -31.98,8.86 2.15,81.23 31.63,140.87 29.48,59.65 55.33,56.9 77.6,86.38 22.28,29.47 134.2,233.62 130.82,315.59 -3.37,81.97 15.22,135.92 15.22,135.92l0.01 -0.01c5.75,-8.14 19.03,-30.37 35.1,-79.68 21.6,-66.26 -14.05,-124.09 -22.2,-162.43 -8.16,-38.34 60.43,-54.15 91.02,-104.18 30.6,-50.03 9.86,-78.86 9.86,-78.86 0,0 7.08,-0.11 104.6,-15.23 97.53,-15.12 217.18,-79.43 225.58,-97.56 8.4,-18.14 24.3,-43.12 37.56,-37.44 13.26,5.69 -4.89,47 4.29,75.41 9.19,28.4 39.23,33.21 39.23,33.21 0,0 -5.75,-14.68 -9.05,-30.28 -3.29,-15.61 7.33,-54.43 16.87,-57.63 9.53,-3.2 23.12,48.18 26.9,31.38 3.79,-16.8 7.81,-49.26 10.38,-63.97 2.56,-14.71 22.2,-28.64 22.2,-28.64 0,0 11.56,2.59 16.51,10.47 4.96,7.88 28.08,57.13 33.44,49.62 5.37,-7.52 5.42,-31.03 5.42,-31.03l11.26 6.37c0,0 8.35,-27.33 -12.57,-45.78 -20.92,-18.45 -19.72,-38.22 -19.72,-38.22 0,0 36.08,-19.28 91.14,-48.95z"/>
        <path class="fil11"
              d="M60.47 1957.64c0.36,-0.49 29.48,-39.56 70.03,3.75 40.8,43.58 98.56,177.94 201.72,265.34 103.16,87.41 169.89,152.04 243.04,279.77 73.14,127.73 68.54,213.95 49.51,226.84 -19.04,12.89 -61.89,-81.64 -82.47,-153.17 -20.59,-71.54 -80.49,-115.21 -108.99,-162.36 -20.1,-33.26 -73.11,-102.41 -146.3,-157.37 -5.19,-8.31 -10.96,-15.55 -19.46,-24.07 -25.07,-25.14 -145.62,-104.46 -207.08,-278.73z"/>
        <path class="fil10"
              d="M1377.09 323.95c0,0 -42.49,75.78 -215.6,207.91 -173.12,132.13 -313.47,215.98 -467.24,333.62 -153.77,117.63 -351.82,245.52 -374.58,251.7 -21.79,5.92 -26.53,-7.23 -6.26,-24.97l2.66 -2.23 0.19 -0.16 0.12 -0.09c4,-3.22 18.54,-14.67 40.48,-31.85 30.93,-23.09 67.19,-47.67 111.49,-75.32 125.13,-78.11 340.56,-238.58 488.19,-362.04 130.54,-83.86 312.08,-206.2 352.1,-244 50,-47.21 66.84,-70.51 68.45,-52.57z"/>
        <path class="fil12"
              d="M2643.05 428.95c0,0 -236.77,-92.33 -615.14,-23.58 -378.38,68.75 -577.15,251.21 -616.98,299.59 -39.83,48.38 42.31,115.02 171.57,107.8 129.26,-7.22 377.91,-26.61 656.43,-125.26 278.52,-98.65 468.31,-215.7 404.12,-258.55z"/>
        <path class="fil9"
              d="M1150.45 2575.83c0,0 43.6,267.34 47.76,386.52 4.15,119.19 -31.53,286.75 -31.53,286.75l-295.06 120.34c0,0 -108.93,-149.38 -205.7,-336.94 -96.76,-187.56 -126.02,-248.59 -126.02,-248.59l488.74 -209.27 121.81 1.19z"/>
        <path class="fil3"
              d="M1080.01 3203.95c0,0 141.59,-15.89 288.13,62.17 146.54,78.06 185.69,230.77 185.69,230.77l-44.32 -21.44c0,0 59.02,89.15 25.52,206.17 -33.49,117.02 -137,251.63 -299.14,329.6 -162.15,77.97 -364.69,40.11 -460.1,-108.59 -95.42,-148.71 -108.56,-284.3 -41.62,-407.58 66.93,-123.29 201.12,-279.45 345.84,-291.1z"/>
        <path class="fil13"
              d="M1538.72 3667.22c-0.92,1.14 -37.14,45.98 -87.26,61.79 -50.76,16.01 -85.83,-16.93 -112.08,16.89 -26.26,33.82 -24.68,53.08 -50.75,59.58 -26.07,6.51 -103.08,-30.8 -109.27,-0.73 -6.19,30.06 15.43,45.56 -29.63,46.26 -45.07,0.69 -13.76,13.56 -60.14,31.2 -46.38,17.63 -62.32,-13.19 -99.52,-70.57 -37.2,-57.38 -79.6,-157.77 -70.36,-256.41 9.24,-98.64 25.18,-154.97 85.05,-222.37 59.76,-67.26 113.52,-129.94 113.73,-130.19 -24.18,-0.32 -38.48,1.28 -38.48,1.28 -144.72,11.65 -278.91,167.81 -345.84,291.1 -66.94,123.28 -53.8,258.87 41.62,407.58 95.41,148.7 297.95,186.56 460.1,108.59 162.14,-77.97 265.65,-212.58 299.14,-329.6 1.39,-4.85 2.6,-9.65 3.69,-14.4z"/>
        <path class="fil14"
              d="M1460.2 3828.11c0,0 -30.62,-20.08 -92,4.43 -61.38,24.51 -103.69,74.78 -172.01,107.92 -68.33,33.14 -91.09,50.84 -185.29,19.59 -94.21,-31.25 -138.98,-105.13 -176.87,-207.59 -37.9,-102.45 -31.09,-150.96 -13.72,-227.92 12.98,-57.5 22.4,-131.62 20.64,-179.46 -43.7,47.88 -80.44,101.46 -106.78,149.97 -66.94,123.28 -53.8,258.87 41.62,407.58 95.41,148.7 297.95,186.56 460.1,108.59 96.21,-46.26 171.77,-112.46 224.31,-183.11z"/>
        <path class="fil4"
              d="M2189.62 1961.56l290.95 -150.33c11.62,-26.75 20.31,-35.45 20.31,-35.45 0,0 -113.95,15.61 -311.26,185.78z"/>
 </g>
</svg>
