<svg width="192" height="158" viewBox="0 0 192 158" fill="none" xmlns="http://www.w3.org/2000/svg">
<path d="M17.7325 149.127C23.8799 149.073 28.8634 147.924 28.8634 146.56C28.8634 145.196 23.8799 144.134 17.7325 144.188C11.585 144.242 6.60156 145.391 6.60156 146.755C6.60156 148.119 11.585 149.181 17.7325 149.127Z" fill="#362D6B"/>
<path fill-rule="evenodd" clip-rule="evenodd" d="M25.1701 89.5688C16.8347 89.5688 10.0781 97.5592 10.0781 107.416C10.0781 117.272 16.8347 125.262 25.1701 125.262C25.5506 125.262 25.9285 125.246 26.3018 125.212C18.4956 124.528 12.3414 116.822 12.3414 107.416C12.3414 98.0097 18.4956 90.3029 26.3018 89.6185C25.9285 89.586 25.5506 89.5688 25.1701 89.5688Z" fill="#54489C"/>
<path d="M27.4338 125.263C35.7689 125.263 42.5258 117.272 42.5258 107.416C42.5258 97.5592 35.7689 89.5688 27.4338 89.5688C19.0987 89.5688 12.3418 97.5592 12.3418 107.416C12.3418 117.272 19.0987 125.263 27.4338 125.263Z" fill="#6A5EAC"/>
<path fill-rule="evenodd" clip-rule="evenodd" d="M27.5732 93.9297C27.447 93.9297 27.3216 93.9333 27.1963 93.9378C33.272 94.1753 38.1377 100.126 38.1377 107.433C38.1377 114.739 33.272 120.69 27.1963 120.927C27.3216 120.932 27.447 120.935 27.5732 120.935C33.8248 120.935 38.8924 114.89 38.8924 107.433C38.8924 99.9753 33.8248 93.9297 27.5732 93.9297Z" fill="#54489C"/>
<path fill-rule="evenodd" clip-rule="evenodd" d="M31.8316 149.13H155.014C157.463 149.13 159.466 147.124 159.466 144.673V77.8015H27.3799V144.673C27.3799 147.124 29.3826 149.13 31.8316 149.13Z" fill="url(#paint0_linear)"/>
<path fill-rule="evenodd" clip-rule="evenodd" d="M26.6373 47.3381H160.209C162.659 47.3381 164.661 49.3434 164.661 51.7956V77.8008H22.1855V51.7956C22.1855 49.3434 24.1883 47.3381 26.6373 47.3381Z" fill="url(#paint1_linear)"/>
<path d="M159.466 77.8008H27.3799V83.9863H159.466V77.8008Z" fill="#994ECC"/>
<path d="M103.734 47.3381H83.2334V149.13H103.734V47.3381Z" fill="#7DBCF6"/>
<path d="M103.734 77.8008H83.2334V83.9863H103.734V77.8008Z" fill="#65ADF0"/>
<path fill-rule="evenodd" clip-rule="evenodd" d="M82.9542 47.3381H56.3203C56.3203 47.3381 42.222 45.1089 34.0587 41.3936C25.8955 37.6793 25.8955 37.6792 25.8955 37.6792C29.8531 34.9553 33.8108 32.2305 37.7684 29.5065C37.7684 29.5065 45.1895 36.9362 51.8676 39.1645C58.5466 41.3936 62.2562 41.3936 62.2562 41.3936C62.2562 41.3936 49.6413 34.707 45.1895 25.7903C40.7368 16.8745 42.222 11.6731 45.1895 7.95876C48.157 4.24347 54.093 2.0143 61.5141 1.27124C68.9352 0.529085 74.1291 5.72958 77.0976 10.931C80.066 16.1324 79.3239 22.819 80.8081 29.5065C82.2923 36.1931 83.0345 36.9362 83.0345 36.9362C83.0345 36.9362 84.5169 33.2218 90.4547 31.7357C96.3915 30.2487 100.843 33.22 102.328 34.707C103.812 36.1931 103.812 36.1931 103.812 36.1931C103.812 36.1931 106.038 26.5352 107.522 18.3616C109.007 10.1879 113.457 2.75735 121.621 1.27124C129.784 -0.213972 138.688 3.50041 141.657 7.95876C144.625 12.4171 146.108 19.1037 141.657 25.7903C137.204 32.4778 132.751 36.1931 132.751 36.1931C132.751 36.1931 126.074 41.3936 125.332 41.3936C124.589 41.3936 133.494 40.6515 140.172 36.1931C146.851 31.7357 149.077 29.5065 149.077 29.5065L160.209 37.6792C160.209 37.6792 154.272 41.3936 146.852 43.6228C139.43 45.852 130.934 47.3381 130.934 47.3381H82.9542ZM107.522 41.3936C107.522 41.3936 122.363 36.9371 128.3 29.5065C134.237 22.0759 135.721 19.1037 135.721 19.1037C135.721 19.1037 132.009 16.8745 126.073 16.8745C120.137 16.8745 116.427 16.8745 113.458 23.5621C110.49 30.2487 112.716 32.4778 107.522 41.3936ZM51.1255 18.3616C51.1255 18.3616 55.5791 16.1315 62.9984 16.8745C70.4186 17.6176 73.3861 21.3329 74.8712 28.0195C76.3555 34.707 76.3555 35.451 77.8397 38.4223C79.323 41.3936 79.323 41.3936 79.323 41.3936C79.323 41.3936 68.9343 39.1645 61.5141 32.4778C54.0939 25.7903 51.1255 18.3616 51.1255 18.3616Z" fill="#7DBCF6"/>
<path fill-rule="evenodd" clip-rule="evenodd" d="M115.685 15.3892C115.685 15.3892 118.653 9.44478 129.042 10.9309C139.431 12.417 135.721 19.1036 135.721 19.1036C135.721 19.1036 132.009 16.8745 126.073 16.8745C120.137 16.8745 116.427 16.8745 113.458 23.562C110.49 30.2486 112.716 32.4778 107.522 41.3936C107.522 41.3936 109.007 21.3328 115.685 15.3892Z" fill="#4A94D9"/>
<path fill-rule="evenodd" clip-rule="evenodd" d="M67.4501 13.9032C67.4501 13.9032 54.8343 10.1879 52.6088 14.6453C50.3825 19.1037 51.1246 18.3615 51.1246 18.3615C51.1246 18.3615 55.5782 16.1314 62.9975 16.8745C70.4177 17.6175 73.3852 21.3328 74.8703 28.0195C76.3546 34.707 76.3546 35.4509 77.8388 38.4223C79.3221 41.3936 79.3221 41.3936 79.3221 41.3936C79.3221 41.3936 80.8072 20.5907 67.4501 13.9032Z" fill="#4A94D9"/>
<path fill-rule="evenodd" clip-rule="evenodd" d="M34.506 31.7522C34.506 31.7522 39.2535 39.1647 47.4158 42.1378C55.5782 45.1101 64.3834 47.3383 64.3834 47.3383H56.3203C56.3203 47.3383 42.222 45.1092 34.0587 41.3939C25.8955 37.6795 25.8955 37.6795 25.8955 37.6795L34.5051 31.7522H34.506Z" fill="#4A94D9"/>
<path fill-rule="evenodd" clip-rule="evenodd" d="M154.642 33.5928C154.642 33.5928 152.823 37.1266 142.398 42.1375C132.136 47.0698 125.254 47.3000 125.043 47.338H125.037H130.933C130.933 47.338 139.429 45.8519 146.85 43.6227C154.271 41.3935 160.208 37.6791 160.208 37.6791L154.643 33.5928H154.642Z" fill="#4A94D9"/>
<path fill-rule="evenodd" clip-rule="evenodd" d="M63.0703 47.3382H130.932C130.932 47.3382 92.679 42.1377 63.0703 47.3382Z" fill="#4A94D9"/>
<path d="M178.017 151.182C184.164 151.862 189.148 151.527 189.148 150.434C189.148 149.34 184.164 147.901 178.017 147.22C171.869 146.54 166.886 146.875 166.886 147.968C166.886 149.062 171.869 150.501 178.017 151.182Z" fill="#362D6B"/>
<path d="M17.7322 148.944C27.3631 148.944 35.1705 141.085 35.1705 131.391C35.1705 121.696 27.3631 113.837 17.7322 113.837C8.10132 113.837 0.293945 121.696 0.293945 131.391C0.293945 141.085 8.10132 148.944 17.7322 148.944Z" fill="url(#paint2_linear)"/>
<path fill-rule="evenodd" clip-rule="evenodd" d="M18.6922 147.235C18.5056 147.242 18.318 147.247 18.1295 147.247C9.41987 147.247 2.36035 140.136 2.36035 131.365C2.36035 123.084 8.65252 116.285 16.6832 115.55L18.1232 117.897C10.6471 117.9 4.58668 123.929 4.58668 131.365C4.58668 138.802 10.6498 144.832 18.1295 144.832C18.8076 144.832 19.4731 144.781 20.125 144.685L18.6922 147.235Z" fill="#54489C"/>
<path fill-rule="evenodd" clip-rule="evenodd" d="M17.7322 115.509C26.4418 115.509 33.5013 122.62 33.5013 131.391C33.5013 140.162 26.4418 147.273 17.7322 147.273C9.02339 147.273 1.96387 140.162 1.96387 131.391C1.96387 122.62 9.02339 115.509 17.7322 115.509ZM17.7322 117.924C25.2119 117.924 31.275 123.953 31.275 131.391C31.275 138.829 25.2119 144.858 17.7322 144.858C10.2533 144.858 4.1902 138.829 4.1902 131.391C4.1902 123.953 10.2533 117.924 17.7322 117.924Z" fill="#6A5EAC"/>
<path d="M23.2937 134.119C23.2937 134.794 23.1792 135.409 22.9484 135.969C22.7175 136.53 22.3731 137.011 21.9114 137.423C21.4461 137.835 20.8582 138.153 20.1468 138.384C19.438 138.615 18.5147 138.729 17.383 138.729H13.4696C13.1918 138.729 12.9682 138.654 12.796 138.505C12.6237 138.356 12.5381 138.101 12.5381 137.741V124.82C12.5381 124.483 12.6237 124.24 12.796 124.091C12.9682 123.942 13.1801 123.867 13.4344 123.867H21.8375C21.9114 123.867 21.9781 123.887 22.0368 123.927C22.0954 123.962 22.1423 124.029 22.1855 124.127C22.2288 124.22 22.2595 124.342 22.2793 124.495C22.2992 124.644 22.3064 124.832 22.3064 125.059C22.3064 125.275 22.2992 125.455 22.2793 125.608C22.2595 125.757 22.2288 125.878 22.1855 125.972C22.1423 126.07 22.0954 126.137 22.0368 126.18C21.9781 126.223 21.915 126.243 21.8447 126.243H15.5435V129.935H18.0178C18.9727 129.935 19.7626 130.024 20.3848 130.208C21.0034 130.393 21.5318 130.667 21.9583 131.028C22.3893 131.388 22.7175 131.827 22.9484 132.348C23.1792 132.87 23.2937 133.461 23.2937 134.119ZM20.2405 134.312C20.2405 133.986 20.1855 133.689 20.08 133.426C19.97 133.16 19.814 132.936 19.6066 132.748C19.3992 132.56 19.1287 132.415 18.8041 132.317C18.475 132.219 18.0404 132.168 17.493 132.168H15.5435V136.447H17.5282C18.0214 136.447 18.4281 136.4 18.7455 136.31C19.0665 136.216 19.3325 136.079 19.548 135.899C19.7626 135.715 19.9312 135.487 20.0566 135.221C20.1774 134.95 20.2405 134.649 20.2405 134.312Z" fill="white"/>
<path d="M143.141 157.004C149.288 157.273 154.272 156.22 154.272 154.653C154.272 153.086 149.288 151.598 143.141 151.329C136.993 151.061 132.01 152.113 132.01 153.68C132.01 155.247 136.993 156.736 143.141 157.004Z" fill="#362D6B"/>
<path fill-rule="evenodd" clip-rule="evenodd" d="M176.683 113.792C184.888 113.792 191.539 121.658 191.539 131.362C191.539 141.065 184.888 148.932 176.683 148.932C176.309 148.932 175.937 148.915 175.569 148.883C183.253 148.209 189.31 140.622 189.31 131.362C189.31 122.102 183.253 114.515 175.569 113.841C175.937 113.809 176.309 113.792 176.683 113.792Z" fill="#54489C"/>
<path d="M174.454 148.932C182.659 148.932 189.309 141.066 189.309 131.362C189.309 121.659 182.659 113.792 174.454 113.792C166.25 113.792 159.6 121.659 159.6 131.362C159.6 141.066 166.25 148.932 174.454 148.932Z" fill="#6A5EAC"/>
<path d="M174.455 144.655C180.608 144.655 185.597 138.704 185.597 131.362C185.597 124.02 180.608 118.068 174.455 118.068C168.302 118.068 163.313 124.02 163.313 131.362C163.313 138.704 168.302 144.655 174.455 144.655Z" fill="url(#paint3_linear)"/>
<path d="M178.479 134.093C178.428 134.768 178.294 135.384 178.074 135.944C177.854 136.506 177.552 136.988 177.164 137.4C176.774 137.811 176.297 138.129 175.73 138.36C175.166 138.592 174.445 138.706 173.572 138.706H170.551C170.337 138.706 170.17 138.631 170.049 138.482C169.927 138.333 169.879 138.079 169.907 137.717L170.88 124.785C170.905 124.448 170.99 124.205 171.134 124.055C171.279 123.906 171.447 123.832 171.643 123.832H178.128C178.185 123.832 178.235 123.852 178.278 123.891C178.32 123.926 178.352 123.993 178.377 124.091C178.403 124.185 178.418 124.306 178.422 124.46C178.426 124.609 178.418 124.797 178.4 125.024C178.384 125.24 178.364 125.42 178.338 125.574C178.312 125.723 178.279 125.844 178.238 125.939C178.198 126.036 178.156 126.103 178.107 126.146C178.059 126.19 178.009 126.21 177.955 126.21H173.092L172.814 129.904H174.723C175.46 129.904 176.063 129.994 176.529 130.179C176.993 130.363 177.38 130.637 177.683 130.998C177.987 131.359 178.207 131.798 178.347 132.32C178.486 132.842 178.528 133.434 178.479 134.093ZM176.109 134.286C176.134 133.96 176.114 133.662 176.051 133.399C175.987 133.132 175.884 132.909 175.738 132.72C175.592 132.532 175.394 132.387 175.151 132.289C174.904 132.191 174.573 132.14 174.151 132.14H172.646L172.324 136.423H173.855C174.235 136.423 174.553 136.376 174.804 136.285C175.06 136.192 175.275 136.054 175.455 135.874C175.635 135.69 175.782 135.462 175.898 135.196C176.013 134.925 176.084 134.622 176.109 134.286Z" fill="url(#paint4_linear)"/>
<path fill-rule="evenodd" clip-rule="evenodd" d="M174.317 118.086C174.442 118.086 174.565 118.089 174.689 118.094C168.708 118.328 163.919 124.186 163.919 131.379C163.919 138.572 168.708 144.431 174.689 144.664C174.565 144.669 174.442 144.673 174.317 144.673C168.164 144.673 163.176 138.721 163.176 131.379C163.176 124.038 168.164 118.086 174.317 118.086Z" fill="#54489C"/>
<path d="M141.471 121.083H136.276V122.383H141.471V121.083Z" fill="#54489C"/>
<path d="M140.729 155.074H136.276V156.189H140.729V155.074Z" fill="#54489C"/>
<path d="M136.369 156.189C140.929 156.189 144.625 148.33 144.625 138.635C144.625 128.941 140.929 121.082 136.369 121.082C131.81 121.082 128.114 128.941 128.114 138.635C128.114 148.33 131.81 156.189 136.369 156.189Z" fill="#6A5EAC"/>
<path fill-rule="evenodd" clip-rule="evenodd" d="M140.635 121.083C145.195 121.083 148.891 128.941 148.891 138.635C148.891 148.33 145.195 156.189 140.635 156.189C139.898 156.189 139.183 155.982 138.503 155.596C142.028 153.596 144.625 146.761 144.625 138.635C144.625 130.51 142.028 123.675 138.503 121.676C139.183 121.29 139.898 121.083 140.635 121.083Z" fill="#54489C"/>
<path d="M136.369 152.101C139.698 152.101 142.398 146.072 142.398 138.635C142.398 131.198 139.698 125.169 136.369 125.169C133.039 125.169 130.34 131.198 130.34 138.635C130.34 146.072 133.039 152.101 136.369 152.101Z" fill="url(#paint5_linear)"/>
<path fill-rule="evenodd" clip-rule="evenodd" d="M136.183 125.169C136.276 125.169 136.369 125.174 136.462 125.184C133.256 125.508 130.711 131.407 130.711 138.636C130.711 145.865 133.256 151.763 136.462 152.088C136.369 152.097 136.276 152.102 136.183 152.102C132.848 152.102 130.154 146.073 130.154 138.636C130.154 131.198 132.848 125.169 136.183 125.169Z" fill="#54489C"/>
<path d="M138.132 141.549C138.132 142.224 138.098 142.839 138.031 143.399C137.963 143.96 137.862 144.441 137.727 144.853C137.59 145.265 137.419 145.583 137.209 145.814C137.002 146.045 136.731 146.159 136.399 146.159H135.252C135.17 146.159 135.105 146.084 135.054 145.935C135.004 145.786 134.979 145.531 134.979 145.171V132.251C134.979 131.914 135.004 131.67 135.054 131.522C135.105 131.373 135.166 131.298 135.241 131.298H137.705C137.727 131.298 137.747 131.318 137.764 131.357C137.781 131.392 137.795 131.459 137.807 131.557C137.82 131.651 137.829 131.772 137.835 131.926C137.841 132.074 137.842 132.263 137.842 132.49C137.842 132.705 137.841 132.886 137.835 133.038C137.829 133.187 137.82 133.309 137.807 133.403C137.795 133.5 137.781 133.567 137.764 133.611C137.747 133.654 137.728 133.673 137.707 133.673H135.859V137.365H136.585C136.865 137.365 137.097 137.455 137.28 137.639C137.461 137.823 137.615 138.097 137.74 138.458C137.867 138.818 137.963 139.257 138.031 139.779C138.098 140.3 138.132 140.891 138.132 141.549ZM137.236 141.742C137.236 141.417 137.221 141.119 137.19 140.856C137.158 140.59 137.112 140.367 137.051 140.178C136.99 139.99 136.911 139.845 136.815 139.747C136.72 139.649 136.592 139.598 136.431 139.598H135.859V143.877H136.442C136.586 143.877 136.705 143.83 136.798 143.74C136.893 143.647 136.97 143.51 137.034 143.329C137.097 143.145 137.146 142.917 137.183 142.651C137.218 142.381 137.236 142.079 137.236 141.742Z" fill="white"/>
<defs>
<linearGradient id="paint0_linear" x1="94.1194" y1="77.7916" x2="92.7227" y2="149.14" gradientUnits="userSpaceOnUse">
<stop stop-color="#AD66D5"/>
<stop offset="1" stop-color="#675EAA"/>
</linearGradient>
<linearGradient id="paint1_linear" x1="93.5445" y1="47.3291" x2="93.3014" y2="77.8107" gradientUnits="userSpaceOnUse">
<stop stop-color="#695EAB"/>
<stop offset="1" stop-color="#A765D1"/>
</linearGradient>
<linearGradient id="paint2_linear" x1="0.293945" y1="131.391" x2="35.1714" y2="131.391" gradientUnits="userSpaceOnUse">
<stop stop-color="#695EAB"/>
<stop offset="1" stop-color="#A665D1"/>
</linearGradient>
<linearGradient id="paint3_linear" x1="163.314" y1="131.362" x2="185.597" y2="131.362" gradientUnits="userSpaceOnUse">
<stop stop-color="#6B5EAC"/>
<stop offset="1" stop-color="#A465D0"/>
</linearGradient>
<linearGradient id="paint4_linear" x1="169.781" y1="133.604" x2="179.307" y2="128.943" gradientUnits="userSpaceOnUse">
<stop stop-color="#E6E6E6"/>
<stop offset="0.258824" stop-color="#F2F2F2"/>
<stop offset="1" stop-color="white"/>
</linearGradient>
<linearGradient id="paint5_linear" x1="130.339" y1="138.635" x2="142.398" y2="138.635" gradientUnits="userSpaceOnUse">
<stop stop-color="#6A5EAC"/>
<stop offset="1" stop-color="#A565D0"/>
</linearGradient>
</defs>
</svg>
