<svg width="154" height="176" viewBox="0 0 154 176" fill="none" xmlns="http://www.w3.org/2000/svg">
<path d="M85.0961 87.8687L149.865 147.297C154.341 151.405 154.341 158.047 149.865 162.111L139.102 171.987C134.625 176.094 127.386 176.094 122.957 171.987L77.0001 129.906L31.0905 172.03C26.6139 176.138 19.375 176.138 14.946 172.03L4.13532 162.155C-0.341332 158.047 -0.341332 151.405 4.13532 147.341L68.904 87.9124C73.3806 83.7611 80.6195 83.7611 85.0961 87.8687ZM68.904 3.96935L4.13532 63.398C-0.341332 67.5056 -0.341332 74.1477 4.13532 78.2115L14.8984 88.0872C19.375 92.1948 26.6139 92.1948 31.0429 88.0872L76.9524 45.9627L122.862 88.0872C127.339 92.1948 134.577 92.1948 139.007 88.0872L149.77 78.2115C154.246 74.104 154.246 67.4619 149.77 63.398L85.0009 3.96935C80.6195 -0.138221 73.3806 -0.138221 68.904 3.96935Z" fill="white"/>
</svg>
