<svg width="180" height="190" viewBox="0 0 180 190" fill="none" xmlns="http://www.w3.org/2000/svg">
<path d="M88.7077 1.96411C69.7077 20.3025 58.0385 51.2196 59.4963 79.6372C46.8552 92.7611 39.5206 110.51 39.3961 128.857C39.383 129.919 39.9701 130.889 40.911 131.364C41.8578 131.832 42.9985 131.729 43.8579 131.082L61.386 117.896L61.5846 121.884C61.6576 123.368 62.8789 124.517 64.3634 124.507L115.251 124.162C116.022 124.157 116.725 123.843 117.239 123.329C117.712 122.857 118.025 122.214 118.065 121.501L118.318 117.509L135.669 130.459C136.513 131.089 137.648 131.04 138.595 130.564C138.839 130.438 139.06 130.276 139.252 130.085C139.813 129.523 140.152 128.701 140.163 127.912C140.292 109.82 133.191 92.1753 120.727 79.2217C122.565 50.7402 111.398 19.9068 92.5672 1.93793C91.5055 0.91206 89.8013 0.929552 88.7077 1.96411ZM104.283 54.2663C104.257 58.1257 102.66 61.6335 100.113 64.1801C97.5604 66.7326 94.0524 68.3298 90.1928 68.356C82.4796 68.4024 76.2459 62.169 76.2923 54.4562C76.3447 46.7375 82.6635 40.419 90.3827 40.3666C98.1019 40.3142 104.336 46.5476 104.283 54.2663Z" fill="white"/>
<path d="M72.3259 151.245C72.2625 159.718 85.4235 184.583 86.9245 187.387C87.4112 188.292 88.3515 188.85 89.3788 188.837C90.1328 188.838 90.8415 188.53 91.3616 188.01C91.5529 187.819 91.7147 187.598 91.8529 187.354C93.3921 184.529 106.88 159.483 106.938 151.005C107.002 141.457 99.2942 133.749 89.7521 133.82C80.2041 133.885 72.3966 141.704 72.3259 151.245Z" fill="white"/>
</svg>
